<?xml version="1.0" encoding="utf-8" standalone="no"?>
<!DOCTYPE svg PUBLIC "-//W3C//DTD SVG 1.1//EN"
  "http://www.w3.org/Graphics/SVG/1.1/DTD/svg11.dtd">
<svg height="126.47875pt" version="1.1" viewBox="0 0 256.116094 126.47875" width="256.116094pt" xmlns="http://www.w3.org/2000/svg" xmlns:xlink="http://www.w3.org/1999/xlink">
 <metadata>
  <rdf:RDF xmlns:cc="http://creativecommons.org/ns#" xmlns:dc="http://purl.org/dc/elements/1.1/" xmlns:rdf="http://www.w3.org/1999/02/22-rdf-syntax-ns#">
   <cc:Work>
    <dc:type rdf:resource="http://purl.org/dc/dcmitype/StillImage"/>
    <dc:date>2023-02-21T21:59:43.908068</dc:date>
    <dc:format>image/svg+xml</dc:format>
    <dc:creator>
     <cc:Agent>
      <dc:title>Matplotlib v3.4.3, https://matplotlib.org/</dc:title>
     </cc:Agent>
    </dc:creator>
   </cc:Work>
  </rdf:RDF>
 </metadata>
 <defs>
  <style type="text/css">*{stroke-linecap:butt;stroke-linejoin:round;}</style>
 </defs>
 <g id="figure_1">
  <g id="patch_1">
   <path d="M 0 126.47875 
L 256.116094 126.47875 
L 256.116094 -0 
L 0 -0 
z
" style="fill:none;"/>
  </g>
  <g id="axes_1">
   <g id="patch_2">
    <path d="M 42.027031 88.74 
L 153.627031 88.74 
L 153.627031 7.2 
L 42.027031 7.2 
z
" style="fill:#ffffff;"/>
   </g>
   <g id="PathCollection_1">
    <defs>
     <path d="M 0 1.936492 
C 0.513564 1.936492 1.006162 1.732451 1.369306 1.369306 
C 1.732451 1.006162 1.936492 0.513564 1.936492 -0 
C 1.936492 -0.513564 1.732451 -1.006162 1.369306 -1.369306 
C 1.006162 -1.732451 0.513564 -1.936492 0 -1.936492 
C -0.513564 -1.936492 -1.006162 -1.732451 -1.369306 -1.369306 
C -1.732451 -1.006162 -1.936492 -0.513564 -1.936492 0 
C -1.936492 0.513564 -1.732451 1.006162 -1.369306 1.369306 
C -1.006162 1.732451 -0.513564 1.936492 0 1.936492 
z
" id="C0_0_973f2aa522"/>
    </defs>
    <g clip-path="url(#p4eee1092a8)">
     <use style="fill:#910040;fill-opacity:0.6;" x="67.024637" xlink:href="#C0_0_973f2aa522" y="57.692165"/>
    </g>
    <g clip-path="url(#p4eee1092a8)">
     <use style="fill:#910040;fill-opacity:0.6;" x="86.308964" xlink:href="#C0_0_973f2aa522" y="32.697505"/>
    </g>
    <g clip-path="url(#p4eee1092a8)">
     <use style="fill:#910040;fill-opacity:0.6;" x="108.622297" xlink:href="#C0_0_973f2aa522" y="32.059757"/>
    </g>
    <g clip-path="url(#p4eee1092a8)">
     <use style="fill:#910040;fill-opacity:0.6;" x="105.51532" xlink:href="#C0_0_973f2aa522" y="47.440839"/>
    </g>
    <g clip-path="url(#p4eee1092a8)">
     <use style="fill:#910040;fill-opacity:0.6;" x="97.201576" xlink:href="#C0_0_973f2aa522" y="53.692335"/>
    </g>
    <g clip-path="url(#p4eee1092a8)">
     <use style="fill:#910040;fill-opacity:0.6;" x="95.000118" xlink:href="#C0_0_973f2aa522" y="51.296886"/>
    </g>
    <g clip-path="url(#p4eee1092a8)">
     <use style="fill:#910040;fill-opacity:0.6;" x="132.150955" xlink:href="#C0_0_973f2aa522" y="41.329127"/>
    </g>
    <g clip-path="url(#p4eee1092a8)">
     <use style="fill:#910040;fill-opacity:0.6;" x="97.107435" xlink:href="#C0_0_973f2aa522" y="42.734938"/>
    </g>
    <g clip-path="url(#p4eee1092a8)">
     <use style="fill:#910040;fill-opacity:0.6;" x="105.523395" xlink:href="#C0_0_973f2aa522" y="58.552118"/>
    </g>
    <g clip-path="url(#p4eee1092a8)">
     <use style="fill:#910040;fill-opacity:0.6;" x="128.474421" xlink:href="#C0_0_973f2aa522" y="10.906364"/>
    </g>
    <g clip-path="url(#p4eee1092a8)">
     <use style="fill:#910040;fill-opacity:0.6;" x="73.88013" xlink:href="#C0_0_973f2aa522" y="52.568885"/>
    </g>
    <g clip-path="url(#p4eee1092a8)">
     <use style="fill:#910040;fill-opacity:0.6;" x="124.972818" xlink:href="#C0_0_973f2aa522" y="62.111792"/>
    </g>
    <g clip-path="url(#p4eee1092a8)">
     <use style="fill:#910040;fill-opacity:0.6;" x="95.18422" xlink:href="#C0_0_973f2aa522" y="60.974942"/>
    </g>
    <g clip-path="url(#p4eee1092a8)">
     <use style="fill:#910040;fill-opacity:0.6;" x="84.647056" xlink:href="#C0_0_973f2aa522" y="53.912596"/>
    </g>
    <g clip-path="url(#p4eee1092a8)">
     <use style="fill:#910040;fill-opacity:0.6;" x="98.564431" xlink:href="#C0_0_973f2aa522" y="44.355079"/>
    </g>
    <g clip-path="url(#p4eee1092a8)">
     <use style="fill:#910040;fill-opacity:0.6;" x="104.52402" xlink:href="#C0_0_973f2aa522" y="44.412426"/>
    </g>
    <g clip-path="url(#p4eee1092a8)">
     <use style="fill:#910040;fill-opacity:0.6;" x="75.553228" xlink:href="#C0_0_973f2aa522" y="55.976796"/>
    </g>
    <g clip-path="url(#p4eee1092a8)">
     <use style="fill:#910040;fill-opacity:0.6;" x="111.783948" xlink:href="#C0_0_973f2aa522" y="55.536894"/>
    </g>
    <g clip-path="url(#p4eee1092a8)">
     <use style="fill:#910040;fill-opacity:0.6;" x="74.583549" xlink:href="#C0_0_973f2aa522" y="53.502616"/>
    </g>
    <g clip-path="url(#p4eee1092a8)">
     <use style="fill:#910040;fill-opacity:0.6;" x="99.252373" xlink:href="#C0_0_973f2aa522" y="37.812477"/>
    </g>
    <g clip-path="url(#p4eee1092a8)">
     <use style="fill:#910040;fill-opacity:0.6;" x="119.353471" xlink:href="#C0_0_973f2aa522" y="42.019003"/>
    </g>
    <g clip-path="url(#p4eee1092a8)">
     <use style="fill:#910040;fill-opacity:0.6;" x="84.774916" xlink:href="#C0_0_973f2aa522" y="63.073992"/>
    </g>
    <g clip-path="url(#p4eee1092a8)">
     <use style="fill:#910040;fill-opacity:0.6;" x="97.606251" xlink:href="#C0_0_973f2aa522" y="24.248409"/>
    </g>
    <g clip-path="url(#p4eee1092a8)">
     <use style="fill:#910040;fill-opacity:0.6;" x="94.356798" xlink:href="#C0_0_973f2aa522" y="49.811097"/>
    </g>
    <g clip-path="url(#p4eee1092a8)">
     <use style="fill:#910040;fill-opacity:0.6;" x="141.247213" xlink:href="#C0_0_973f2aa522" y="44.993069"/>
    </g>
    <g clip-path="url(#p4eee1092a8)">
     <use style="fill:#ff603d;fill-opacity:0.6;" x="85.636056" xlink:href="#C0_0_973f2aa522" y="33.728539"/>
    </g>
    <g clip-path="url(#p4eee1092a8)">
     <use style="fill:#ff603d;fill-opacity:0.6;" x="109.914268" xlink:href="#C0_0_973f2aa522" y="47.935571"/>
    </g>
    <g clip-path="url(#p4eee1092a8)">
     <use style="fill:#ff603d;fill-opacity:0.6;" x="99.685372" xlink:href="#C0_0_973f2aa522" y="38.122902"/>
    </g>
    <g clip-path="url(#p4eee1092a8)">
     <use style="fill:#ff603d;fill-opacity:0.6;" x="100.056527" xlink:href="#C0_0_973f2aa522" y="52.64988"/>
    </g>
    <g clip-path="url(#p4eee1092a8)">
     <use style="fill:#ff603d;fill-opacity:0.6;" x="111.565798" xlink:href="#C0_0_973f2aa522" y="55.376408"/>
    </g>
    <g clip-path="url(#p4eee1092a8)">
     <use style="fill:#ff603d;fill-opacity:0.6;" x="76.285375" xlink:href="#C0_0_973f2aa522" y="53.28001"/>
    </g>
    <g clip-path="url(#p4eee1092a8)">
     <use style="fill:#ff603d;fill-opacity:0.6;" x="97.800287" xlink:href="#C0_0_973f2aa522" y="20.453951"/>
    </g>
    <g clip-path="url(#p4eee1092a8)">
     <use style="fill:#ff603d;fill-opacity:0.6;" x="96.60055" xlink:href="#C0_0_973f2aa522" y="29.256351"/>
    </g>
    <g clip-path="url(#p4eee1092a8)">
     <use style="fill:#ff603d;fill-opacity:0.6;" x="75.652095" xlink:href="#C0_0_973f2aa522" y="50.520031"/>
    </g>
    <g clip-path="url(#p4eee1092a8)">
     <use style="fill:#ff603d;fill-opacity:0.6;" x="100.05485" xlink:href="#C0_0_973f2aa522" y="50.422119"/>
    </g>
    <g clip-path="url(#p4eee1092a8)">
     <use style="fill:#ff603d;fill-opacity:0.6;" x="103.381931" xlink:href="#C0_0_973f2aa522" y="73.80023"/>
    </g>
    <g clip-path="url(#p4eee1092a8)">
     <use style="fill:#ff603d;fill-opacity:0.6;" x="88.436691" xlink:href="#C0_0_973f2aa522" y="85.033636"/>
    </g>
    <g clip-path="url(#p4eee1092a8)">
     <use style="fill:#ff603d;fill-opacity:0.6;" x="97.111372" xlink:href="#C0_0_973f2aa522" y="79.747718"/>
    </g>
    <g clip-path="url(#p4eee1092a8)">
     <use style="fill:#ff603d;fill-opacity:0.6;" x="103.445953" xlink:href="#C0_0_973f2aa522" y="63.118552"/>
    </g>
    <g clip-path="url(#p4eee1092a8)">
     <use style="fill:#ff603d;fill-opacity:0.6;" x="79.021996" xlink:href="#C0_0_973f2aa522" y="23.555533"/>
    </g>
    <g clip-path="url(#p4eee1092a8)">
     <use style="fill:#ff603d;fill-opacity:0.6;" x="97.242254" xlink:href="#C0_0_973f2aa522" y="27.992306"/>
    </g>
    <g clip-path="url(#p4eee1092a8)">
     <use style="fill:#ff603d;fill-opacity:0.6;" x="82.656938" xlink:href="#C0_0_973f2aa522" y="53.952304"/>
    </g>
    <g clip-path="url(#p4eee1092a8)">
     <use style="fill:#ff603d;fill-opacity:0.6;" x="47.099759" xlink:href="#C0_0_973f2aa522" y="35.167804"/>
    </g>
    <g clip-path="url(#p4eee1092a8)">
     <use style="fill:#ff603d;fill-opacity:0.6;" x="101.887753" xlink:href="#C0_0_973f2aa522" y="43.070735"/>
    </g>
    <g clip-path="url(#p4eee1092a8)">
     <use style="fill:#ff603d;fill-opacity:0.6;" x="73.371375" xlink:href="#C0_0_973f2aa522" y="60.161384"/>
    </g>
    <g clip-path="url(#p4eee1092a8)">
     <use style="fill:#ff603d;fill-opacity:0.6;" x="97.403125" xlink:href="#C0_0_973f2aa522" y="48.605297"/>
    </g>
    <g clip-path="url(#p4eee1092a8)">
     <use style="fill:#ff603d;fill-opacity:0.6;" x="73.330628" xlink:href="#C0_0_973f2aa522" y="34.389811"/>
    </g>
    <g clip-path="url(#p4eee1092a8)">
     <use style="fill:#ff603d;fill-opacity:0.6;" x="99.973743" xlink:href="#C0_0_973f2aa522" y="61.470855"/>
    </g>
    <g clip-path="url(#p4eee1092a8)">
     <use style="fill:#ff603d;fill-opacity:0.6;" x="106.194322" xlink:href="#C0_0_973f2aa522" y="30.474918"/>
    </g>
    <g clip-path="url(#p4eee1092a8)">
     <use style="fill:#ff603d;fill-opacity:0.6;" x="130.320383" xlink:href="#C0_0_973f2aa522" y="65.988787"/>
    </g>
    <g clip-path="url(#p4eee1092a8)">
     <use style="fill:#ff603d;fill-opacity:0.6;" x="113.342889" xlink:href="#C0_0_973f2aa522" y="53.747354"/>
    </g>
    <g clip-path="url(#p4eee1092a8)">
     <use style="fill:#ff603d;fill-opacity:0.6;" x="108.843579" xlink:href="#C0_0_973f2aa522" y="42.917417"/>
    </g>
    <g clip-path="url(#p4eee1092a8)">
     <use style="fill:#ff603d;fill-opacity:0.6;" x="58.784062" xlink:href="#C0_0_973f2aa522" y="38.314727"/>
    </g>
    <g clip-path="url(#p4eee1092a8)">
     <use style="fill:#ff603d;fill-opacity:0.6;" x="96.275285" xlink:href="#C0_0_973f2aa522" y="69.074044"/>
    </g>
    <g clip-path="url(#p4eee1092a8)">
     <use style="fill:#ff603d;fill-opacity:0.6;" x="102.257939" xlink:href="#C0_0_973f2aa522" y="29.10567"/>
    </g>
    <g clip-path="url(#p4eee1092a8)">
     <use style="fill:#ff603d;fill-opacity:0.6;" x="92.43768" xlink:href="#C0_0_973f2aa522" y="49.849756"/>
    </g>
    <g clip-path="url(#p4eee1092a8)">
     <use style="fill:#ff603d;fill-opacity:0.6;" x="101.42842" xlink:href="#C0_0_973f2aa522" y="49.845083"/>
    </g>
    <g clip-path="url(#p4eee1092a8)">
     <use style="fill:#ff603d;fill-opacity:0.6;" x="105.933945" xlink:href="#C0_0_973f2aa522" y="65.203535"/>
    </g>
    <g clip-path="url(#p4eee1092a8)">
     <use style="fill:#ff603d;fill-opacity:0.6;" x="117.888571" xlink:href="#C0_0_973f2aa522" y="36.793199"/>
    </g>
    <g clip-path="url(#p4eee1092a8)">
     <use style="fill:#ff603d;fill-opacity:0.6;" x="101.74571" xlink:href="#C0_0_973f2aa522" y="76.54436"/>
    </g>
    <g clip-path="url(#p4eee1092a8)">
     <use style="fill:#ff603d;fill-opacity:0.6;" x="92.749931" xlink:href="#C0_0_973f2aa522" y="64.219553"/>
    </g>
    <g clip-path="url(#p4eee1092a8)">
     <use style="fill:#ff603d;fill-opacity:0.6;" x="104.821724" xlink:href="#C0_0_973f2aa522" y="69.271178"/>
    </g>
    <g clip-path="url(#p4eee1092a8)">
     <use style="fill:#ff603d;fill-opacity:0.6;" x="143.107689" xlink:href="#C0_0_973f2aa522" y="43.965831"/>
    </g>
    <g clip-path="url(#p4eee1092a8)">
     <use style="fill:#ff603d;fill-opacity:0.6;" x="108.02666" xlink:href="#C0_0_973f2aa522" y="68.466064"/>
    </g>
    <g clip-path="url(#p4eee1092a8)">
     <use style="fill:#ff603d;fill-opacity:0.6;" x="108.351515" xlink:href="#C0_0_973f2aa522" y="31.525504"/>
    </g>
    <g clip-path="url(#p4eee1092a8)">
     <use style="fill:#ff603d;fill-opacity:0.6;" x="148.554304" xlink:href="#C0_0_973f2aa522" y="44.389447"/>
    </g>
    <g clip-path="url(#p4eee1092a8)">
     <use style="fill:#ff603d;fill-opacity:0.6;" x="88.249227" xlink:href="#C0_0_973f2aa522" y="47.872299"/>
    </g>
    <g clip-path="url(#p4eee1092a8)">
     <use style="fill:#ff603d;fill-opacity:0.6;" x="126.386653" xlink:href="#C0_0_973f2aa522" y="57.16886"/>
    </g>
    <g clip-path="url(#p4eee1092a8)">
     <use style="fill:#ff603d;fill-opacity:0.6;" x="123.38221" xlink:href="#C0_0_973f2aa522" y="47.228855"/>
    </g>
    <g clip-path="url(#p4eee1092a8)">
     <use style="fill:#ff603d;fill-opacity:0.6;" x="128.730988" xlink:href="#C0_0_973f2aa522" y="38.567259"/>
    </g>
    <g clip-path="url(#p4eee1092a8)">
     <use style="fill:#ff603d;fill-opacity:0.6;" x="106.125526" xlink:href="#C0_0_973f2aa522" y="21.937656"/>
    </g>
    <g clip-path="url(#p4eee1092a8)">
     <use style="fill:#ff603d;fill-opacity:0.6;" x="108.688006" xlink:href="#C0_0_973f2aa522" y="47.568393"/>
    </g>
    <g clip-path="url(#p4eee1092a8)">
     <use style="fill:#ff603d;fill-opacity:0.6;" x="126.611632" xlink:href="#C0_0_973f2aa522" y="53.486387"/>
    </g>
    <g clip-path="url(#p4eee1092a8)">
     <use style="fill:#ff603d;fill-opacity:0.6;" x="116.516577" xlink:href="#C0_0_973f2aa522" y="53.474619"/>
    </g>
    <g clip-path="url(#p4eee1092a8)">
     <use style="fill:#ff603d;fill-opacity:0.6;" x="87.236272" xlink:href="#C0_0_973f2aa522" y="53.024285"/>
    </g>
    <g clip-path="url(#p4eee1092a8)">
     <use style="fill:#ff603d;fill-opacity:0.6;" x="124.267739" xlink:href="#C0_0_973f2aa522" y="41.176606"/>
    </g>
    <g clip-path="url(#p4eee1092a8)">
     <use style="fill:#ff603d;fill-opacity:0.6;" x="79.37014" xlink:href="#C0_0_973f2aa522" y="55.839663"/>
    </g>
    <g clip-path="url(#p4eee1092a8)">
     <use style="fill:#ff603d;fill-opacity:0.6;" x="90.848253" xlink:href="#C0_0_973f2aa522" y="48.044398"/>
    </g>
    <g clip-path="url(#p4eee1092a8)">
     <use style="fill:#ff603d;fill-opacity:0.6;" x="136.236258" xlink:href="#C0_0_973f2aa522" y="66.671166"/>
    </g>
    <g clip-path="url(#p4eee1092a8)">
     <use style="fill:#ff603d;fill-opacity:0.6;" x="113.868478" xlink:href="#C0_0_973f2aa522" y="52.908523"/>
    </g>
    <g clip-path="url(#p4eee1092a8)">
     <use style="fill:#ff603d;fill-opacity:0.6;" x="102.599967" xlink:href="#C0_0_973f2aa522" y="42.669498"/>
    </g>
    <g clip-path="url(#p4eee1092a8)">
     <use style="fill:#ff603d;fill-opacity:0.6;" x="98.353333" xlink:href="#C0_0_973f2aa522" y="42.557831"/>
    </g>
    <g clip-path="url(#p4eee1092a8)">
     <use style="fill:#ff603d;fill-opacity:0.6;" x="111.95181" xlink:href="#C0_0_973f2aa522" y="66.749113"/>
    </g>
    <g clip-path="url(#p4eee1092a8)">
     <use style="fill:#ff603d;fill-opacity:0.6;" x="108.288124" xlink:href="#C0_0_973f2aa522" y="54.518465"/>
    </g>
    <g clip-path="url(#p4eee1092a8)">
     <use style="fill:#ff603d;fill-opacity:0.6;" x="93.926117" xlink:href="#C0_0_973f2aa522" y="40.380319"/>
    </g>
    <g clip-path="url(#p4eee1092a8)">
     <use style="fill:#ff603d;fill-opacity:0.6;" x="117.029976" xlink:href="#C0_0_973f2aa522" y="29.63251"/>
    </g>
    <g clip-path="url(#p4eee1092a8)">
     <use style="fill:#ff603d;fill-opacity:0.6;" x="147.890074" xlink:href="#C0_0_973f2aa522" y="59.502557"/>
    </g>
    <g clip-path="url(#p4eee1092a8)">
     <use style="fill:#ff603d;fill-opacity:0.6;" x="91.903028" xlink:href="#C0_0_973f2aa522" y="69.547332"/>
    </g>
    <g clip-path="url(#p4eee1092a8)">
     <use style="fill:#ff603d;fill-opacity:0.6;" x="94.375482" xlink:href="#C0_0_973f2aa522" y="60.226806"/>
    </g>
    <g clip-path="url(#p4eee1092a8)">
     <use style="fill:#ff603d;fill-opacity:0.6;" x="115.882846" xlink:href="#C0_0_973f2aa522" y="48.061919"/>
    </g>
    <g clip-path="url(#p4eee1092a8)">
     <use style="fill:#ff603d;fill-opacity:0.6;" x="110.226067" xlink:href="#C0_0_973f2aa522" y="38.65695"/>
    </g>
    <g clip-path="url(#p4eee1092a8)">
     <use style="fill:#ff603d;fill-opacity:0.6;" x="123.323307" xlink:href="#C0_0_973f2aa522" y="43.109305"/>
    </g>
    <g clip-path="url(#p4eee1092a8)">
     <use style="fill:#ff603d;fill-opacity:0.6;" x="136.774233" xlink:href="#C0_0_973f2aa522" y="72.989872"/>
    </g>
    <g clip-path="url(#p4eee1092a8)">
     <use style="fill:#ff603d;fill-opacity:0.6;" x="110.725931" xlink:href="#C0_0_973f2aa522" y="49.353175"/>
    </g>
    <g clip-path="url(#p4eee1092a8)">
     <use style="fill:#ff603d;fill-opacity:0.6;" x="98.68452" xlink:href="#C0_0_973f2aa522" y="26.281545"/>
    </g>
    <g clip-path="url(#p4eee1092a8)">
     <use style="fill:#ff603d;fill-opacity:0.6;" x="115.711335" xlink:href="#C0_0_973f2aa522" y="52.016445"/>
    </g>
    <g clip-path="url(#p4eee1092a8)">
     <use style="fill:#ff603d;fill-opacity:0.6;" x="99.382677" xlink:href="#C0_0_973f2aa522" y="61.405453"/>
    </g>
    <g clip-path="url(#p4eee1092a8)">
     <use style="fill:#ff603d;fill-opacity:0.6;" x="98.419024" xlink:href="#C0_0_973f2aa522" y="54.606606"/>
    </g>
    <g clip-path="url(#p4eee1092a8)">
     <use style="fill:#ff603d;fill-opacity:0.6;" x="102.802607" xlink:href="#C0_0_973f2aa522" y="58.049721"/>
    </g>
    <g clip-path="url(#p4eee1092a8)">
     <use style="fill:#ff603d;fill-opacity:0.6;" x="140.124116" xlink:href="#C0_0_973f2aa522" y="29.748423"/>
    </g>
    <g clip-path="url(#p4eee1092a8)">
     <use style="fill:#ff603d;fill-opacity:0.6;" x="112.960227" xlink:href="#C0_0_973f2aa522" y="51.724819"/>
    </g>
    <g clip-path="url(#p4eee1092a8)">
     <use style="fill:#ff603d;fill-opacity:0.6;" x="85.720317" xlink:href="#C0_0_973f2aa522" y="59.55917"/>
    </g>
    <g clip-path="url(#p4eee1092a8)">
     <use style="fill:#ff603d;fill-opacity:0.6;" x="125.118451" xlink:href="#C0_0_973f2aa522" y="38.446878"/>
    </g>
    <g clip-path="url(#p4eee1092a8)">
     <use style="fill:#ff603d;fill-opacity:0.6;" x="112.838407" xlink:href="#C0_0_973f2aa522" y="56.233659"/>
    </g>
    <g clip-path="url(#p4eee1092a8)">
     <use style="fill:#ff603d;fill-opacity:0.6;" x="104.717351" xlink:href="#C0_0_973f2aa522" y="49.853087"/>
    </g>
    <g clip-path="url(#p4eee1092a8)">
     <use style="fill:#ff603d;fill-opacity:0.6;" x="91.673796" xlink:href="#C0_0_973f2aa522" y="40.272166"/>
    </g>
    <g clip-path="url(#p4eee1092a8)">
     <use style="fill:#ff603d;fill-opacity:0.6;" x="78.248265" xlink:href="#C0_0_973f2aa522" y="45.643365"/>
    </g>
    <g clip-path="url(#p4eee1092a8)">
     <use style="fill:#ff603d;fill-opacity:0.6;" x="102.802531" xlink:href="#C0_0_973f2aa522" y="70.915136"/>
    </g>
    <g clip-path="url(#p4eee1092a8)">
     <use style="fill:#ff603d;fill-opacity:0.6;" x="93.581937" xlink:href="#C0_0_973f2aa522" y="44.191266"/>
    </g>
   </g>
   <g id="matplotlib.axis_1">
    <g id="xtick_1">
     <g id="line2d_1">
      <defs>
       <path d="M 0 0 
L 0 3.5 
" id="m23a6a3c48e" style="stroke:#000000;stroke-width:0.8;"/>
      </defs>
      <g>
       <use style="stroke:#000000;stroke-width:0.8;" x="65.667154" xlink:href="#m23a6a3c48e" y="88.74"/>
      </g>
     </g>
     <g id="text_1">
      <!-- −2 -->
      <g transform="translate(58.638326 103.374688)scale(0.11 -0.11)">
       <defs>
        <path d="M 365 1594 
Q 365 1670 493 1670 
L 4416 1670 
Q 4422 1670 4451 1670 
Q 4480 1670 4489 1670 
Q 4499 1670 4521 1670 
Q 4544 1670 4553 1664 
Q 4563 1658 4576 1651 
Q 4589 1645 4595 1632 
Q 4602 1619 4602 1600 
Q 4602 1523 4435 1523 
L 4422 1523 
Q 4403 1523 4368 1526 
Q 4333 1530 4314 1530 
L 710 1530 
Q 685 1530 637 1526 
Q 589 1523 563 1523 
L 531 1523 
Q 365 1523 365 1594 
z
" id="CMUSerif-Roman-2212" transform="scale(0.015625)"/>
        <path d="M 320 0 
Q 320 115 329 150 
Q 339 186 390 237 
L 1619 1606 
Q 2291 2362 2291 3021 
Q 2291 3450 2067 3757 
Q 1843 4064 1434 4064 
Q 1152 4064 915 3891 
Q 678 3718 570 3411 
Q 589 3418 653 3418 
Q 813 3418 902 3318 
Q 992 3219 992 3085 
Q 992 2912 880 2829 
Q 768 2746 659 2746 
Q 614 2746 556 2755 
Q 499 2765 409 2854 
Q 320 2944 320 3104 
Q 320 3552 659 3907 
Q 998 4262 1517 4262 
Q 2106 4262 2490 3913 
Q 2874 3565 2874 3021 
Q 2874 2829 2816 2656 
Q 2758 2483 2681 2348 
Q 2605 2214 2400 2000 
Q 2195 1786 2028 1632 
Q 1862 1478 1491 1152 
L 813 493 
L 1965 493 
Q 2528 493 2573 544 
Q 2637 634 2714 1114 
L 2874 1114 
L 2694 0 
L 320 0 
z
" id="CMUSerif-Roman-32" transform="scale(0.015625)"/>
       </defs>
       <use xlink:href="#CMUSerif-Roman-2212"/>
       <use x="77.799988" xlink:href="#CMUSerif-Roman-32"/>
      </g>
     </g>
    </g>
    <g id="xtick_2">
     <g id="line2d_2">
      <g>
       <use style="stroke:#000000;stroke-width:0.8;" x="102.976575" xlink:href="#m23a6a3c48e" y="88.74"/>
      </g>
     </g>
     <g id="text_2">
      <!-- 0 -->
      <g transform="translate(100.226575 103.374688)scale(0.11 -0.11)">
       <defs>
        <path d="M 250 2048 
Q 250 2989 486 3501 
Q 819 4262 1600 4262 
Q 1766 4262 1939 4217 
Q 2112 4173 2333 4000 
Q 2554 3827 2688 3546 
Q 2944 3002 2944 2048 
Q 2944 1114 2707 602 
Q 2362 -141 1594 -141 
Q 1306 -141 1014 6 
Q 723 154 538 506 
Q 250 1037 250 2048 
z
M 781 2125 
Q 781 1158 851 774 
Q 928 358 1142 179 
Q 1357 0 1594 0 
Q 1850 0 2064 192 
Q 2278 384 2342 800 
Q 2413 1210 2413 2125 
Q 2413 3014 2349 3373 
Q 2266 3789 2042 3955 
Q 1818 4122 1594 4122 
Q 1510 4122 1420 4096 
Q 1331 4070 1203 4000 
Q 1075 3930 976 3750 
Q 877 3571 832 3302 
Q 781 2957 781 2125 
z
" id="CMUSerif-Roman-30" transform="scale(0.015625)"/>
       </defs>
       <use xlink:href="#CMUSerif-Roman-30"/>
      </g>
     </g>
    </g>
    <g id="xtick_3">
     <g id="line2d_3">
      <g>
       <use style="stroke:#000000;stroke-width:0.8;" x="140.285996" xlink:href="#m23a6a3c48e" y="88.74"/>
      </g>
     </g>
     <g id="text_3">
      <!-- 2 -->
      <g transform="translate(137.535996 103.374688)scale(0.11 -0.11)">
       <use xlink:href="#CMUSerif-Roman-32"/>
      </g>
     </g>
    </g>
    <g id="text_4">
     <!-- F1 -->
     <g transform="translate(91.490859 117.144063)scale(0.11 -0.11)">
      <defs>
       <path d="M 211 0 
L 211 198 
L 365 198 
Q 710 198 790 256 
Q 870 314 870 499 
L 870 3853 
Q 870 4038 790 4096 
Q 710 4154 365 4154 
L 211 4154 
L 211 4352 
L 3725 4352 
L 3904 2912 
L 3744 2912 
Q 3699 3277 3641 3485 
Q 3584 3693 3453 3859 
Q 3322 4026 3101 4090 
Q 2880 4154 2522 4154 
L 1754 4154 
Q 1536 4154 1488 4109 
Q 1440 4064 1440 3898 
L 1440 2278 
L 1990 2278 
Q 2426 2278 2547 2435 
Q 2669 2592 2669 3027 
L 2829 3027 
L 2829 1331 
L 2669 1331 
Q 2669 1773 2547 1926 
Q 2426 2080 1990 2080 
L 1440 2080 
L 1440 506 
Q 1440 371 1462 320 
Q 1485 269 1619 233 
Q 1754 198 2048 198 
L 2259 198 
L 2259 0 
Q 2029 19 1184 19 
Q 435 19 211 0 
z
" id="CMUSerif-Roman-46" transform="scale(0.015625)"/>
       <path d="M 570 3654 
L 570 3853 
Q 1338 3853 1734 4262 
Q 1843 4262 1862 4236 
Q 1882 4211 1882 4096 
L 1882 506 
Q 1882 314 1974 256 
Q 2067 198 2477 198 
L 2682 198 
L 2682 0 
Q 2458 19 1645 19 
Q 832 19 608 0 
L 608 198 
L 813 198 
Q 1216 198 1312 256 
Q 1408 314 1408 506 
L 1408 3821 
Q 1075 3654 570 3654 
z
" id="CMUSerif-Roman-31" transform="scale(0.015625)"/>
      </defs>
      <use xlink:href="#CMUSerif-Roman-46"/>
      <use x="65.199997" xlink:href="#CMUSerif-Roman-31"/>
     </g>
    </g>
   </g>
   <g id="matplotlib.axis_2">
    <g id="ytick_1">
     <g id="line2d_4">
      <defs>
       <path d="M 0 0 
L -3.5 0 
" id="m418063c6bd" style="stroke:#000000;stroke-width:0.8;"/>
      </defs>
      <g>
       <use style="stroke:#000000;stroke-width:0.8;" x="42.027031" xlink:href="#m418063c6bd" y="77.396084"/>
      </g>
     </g>
     <g id="text_5">
      <!-- −2 -->
      <g transform="translate(20.969375 81.213428)scale(0.11 -0.11)">
       <use xlink:href="#CMUSerif-Roman-2212"/>
       <use x="77.799988" xlink:href="#CMUSerif-Roman-32"/>
      </g>
     </g>
    </g>
    <g id="ytick_2">
     <g id="line2d_5">
      <g>
       <use style="stroke:#000000;stroke-width:0.8;" x="42.027031" xlink:href="#m418063c6bd" y="49.239384"/>
      </g>
     </g>
     <g id="text_6">
      <!-- 0 -->
      <g transform="translate(29.527031 53.056727)scale(0.11 -0.11)">
       <use xlink:href="#CMUSerif-Roman-30"/>
      </g>
     </g>
    </g>
    <g id="ytick_3">
     <g id="line2d_6">
      <g>
       <use style="stroke:#000000;stroke-width:0.8;" x="42.027031" xlink:href="#m418063c6bd" y="21.082683"/>
      </g>
     </g>
     <g id="text_7">
      <!-- 2 -->
      <g transform="translate(29.527031 24.900027)scale(0.11 -0.11)">
       <use xlink:href="#CMUSerif-Roman-32"/>
      </g>
     </g>
    </g>
    <g id="text_8">
     <!-- F2 -->
     <g transform="translate(14.834687 54.306172)rotate(-90)scale(0.11 -0.11)">
      <use xlink:href="#CMUSerif-Roman-46"/>
      <use x="65.199997" xlink:href="#CMUSerif-Roman-32"/>
     </g>
    </g>
   </g>
   <g id="patch_3">
    <path d="M 42.027031 88.74 
L 42.027031 7.2 
" style="fill:none;stroke:#000000;stroke-linecap:square;stroke-linejoin:miter;stroke-width:0.8;"/>
   </g>
   <g id="patch_4">
    <path d="M 42.027031 88.74 
L 153.627031 88.74 
" style="fill:none;stroke:#000000;stroke-linecap:square;stroke-linejoin:miter;stroke-width:0.8;"/>
   </g>
   <g id="legend_1">
    <g id="line2d_7"/>
    <g id="line2d_8">
     <defs>
      <path d="M 0 2.5 
C 0.663008 2.5 1.29895 2.236584 1.767767 1.767767 
C 2.236584 1.29895 2.5 0.663008 2.5 0 
C 2.5 -0.663008 2.236584 -1.29895 1.767767 -1.767767 
C 1.29895 -2.236584 0.663008 -2.5 0 -2.5 
C -0.663008 -2.5 -1.29895 -2.236584 -1.767767 -1.767767 
C -2.236584 -1.29895 -2.5 -0.663008 -2.5 0 
C -2.5 0.663008 -2.236584 1.29895 -1.767767 1.767767 
C -1.29895 2.236584 -0.663008 2.5 0 2.5 
z
" id="mb47760dd02"/>
     </defs>
     <g>
      <use style="fill:#910040;fill-opacity:0.6;" x="163.367031" xlink:href="#mb47760dd02" y="39.235313"/>
     </g>
    </g>
    <g id="text_9">
     <!-- affective -->
     <g transform="translate(183.167031 43.085313)scale(0.11 -0.11)">
      <defs>
       <path d="M 269 608 
Q 269 1152 909 1440 
Q 1293 1626 2086 1670 
L 2086 1907 
Q 2086 2304 1878 2515 
Q 1670 2726 1408 2726 
Q 941 2726 717 2432 
Q 909 2426 976 2330 
Q 1043 2234 1043 2138 
Q 1043 2010 963 1926 
Q 883 1843 749 1843 
Q 621 1843 537 1923 
Q 454 2003 454 2144 
Q 454 2458 736 2662 
Q 1018 2867 1421 2867 
Q 1946 2867 2298 2515 
Q 2406 2406 2460 2265 
Q 2515 2125 2521 2032 
Q 2528 1939 2528 1760 
L 2528 480 
Q 2528 442 2541 381 
Q 2554 320 2611 240 
Q 2669 160 2765 160 
Q 2995 160 2995 570 
L 2995 928 
L 3155 928 
L 3155 570 
Q 3155 230 2976 96 
Q 2797 -38 2630 -38 
Q 2419 -38 2284 118 
Q 2150 275 2131 486 
Q 2035 243 1814 86 
Q 1594 -70 1293 -70 
Q 1062 -70 844 -12 
Q 627 45 448 205 
Q 269 365 269 608 
z
M 762 614 
Q 762 378 931 224 
Q 1101 70 1338 70 
Q 1606 70 1846 278 
Q 2086 486 2086 896 
L 2086 1536 
Q 1376 1510 1069 1228 
Q 762 947 762 614 
z
" id="CMUSerif-Roman-61" transform="scale(0.015625)"/>
       <path d="M 211 2560 
L 211 2758 
L 717 2758 
L 717 3494 
Q 717 3968 1024 4240 
Q 1331 4512 1709 4512 
Q 1958 4512 2121 4377 
Q 2285 4243 2285 4064 
Q 2285 3942 2211 3862 
Q 2138 3782 2003 3782 
Q 1875 3782 1801 3862 
Q 1728 3942 1728 4058 
Q 1728 4262 1920 4326 
Q 1824 4371 1709 4371 
Q 1478 4371 1299 4134 
Q 1120 3898 1120 3501 
L 1120 2758 
L 1869 2758 
L 1869 2560 
L 1139 2560 
L 1139 499 
Q 1139 314 1216 256 
Q 1293 198 1626 198 
L 1760 198 
L 1760 0 
Q 1504 19 947 19 
Q 870 19 748 16 
Q 627 13 467 6 
Q 307 0 218 0 
L 218 198 
Q 557 198 637 240 
Q 717 282 717 486 
L 717 2560 
L 211 2560 
z
" id="CMUSerif-Roman-66" transform="scale(0.015625)"/>
       <path d="M 179 1408 
Q 179 2010 566 2438 
Q 954 2867 1510 2867 
Q 2074 2867 2365 2502 
Q 2656 2138 2656 1613 
Q 2656 1517 2630 1497 
Q 2605 1478 2496 1478 
L 710 1478 
Q 710 826 902 518 
Q 1171 90 1626 90 
Q 1690 90 1763 102 
Q 1837 115 1990 169 
Q 2144 224 2278 371 
Q 2413 518 2490 749 
Q 2509 838 2573 838 
Q 2656 838 2656 762 
Q 2656 704 2595 579 
Q 2534 454 2419 304 
Q 2304 154 2080 42 
Q 1856 -70 1587 -70 
Q 1024 -70 601 355 
Q 179 781 179 1408 
z
M 717 1613 
L 2234 1613 
Q 2234 1747 2211 1897 
Q 2189 2048 2121 2256 
Q 2054 2464 1897 2595 
Q 1741 2726 1510 2726 
Q 1408 2726 1296 2681 
Q 1184 2637 1049 2531 
Q 915 2426 822 2186 
Q 730 1946 717 1613 
z
" id="CMUSerif-Roman-65" transform="scale(0.015625)"/>
       <path d="M 624 352 
Q 218 774 218 1382 
Q 218 1990 618 2428 
Q 1018 2867 1606 2867 
Q 1997 2867 2291 2681 
Q 2586 2496 2586 2182 
Q 2586 2042 2502 1962 
Q 2419 1882 2291 1882 
Q 2157 1882 2077 1965 
Q 1997 2048 1997 2176 
Q 1997 2234 2016 2288 
Q 2035 2342 2105 2403 
Q 2176 2464 2298 2470 
Q 2067 2707 1613 2707 
Q 1286 2707 1017 2400 
Q 749 2093 749 1395 
Q 749 1030 838 761 
Q 928 493 1075 355 
Q 1222 218 1366 154 
Q 1510 90 1651 90 
Q 2278 90 2490 762 
Q 2509 826 2573 826 
Q 2656 826 2656 762 
Q 2656 730 2630 650 
Q 2605 570 2528 442 
Q 2451 314 2339 202 
Q 2227 90 2032 10 
Q 1837 -70 1594 -70 
Q 1030 -70 624 352 
z
" id="CMUSerif-Roman-63" transform="scale(0.015625)"/>
       <path d="M 122 2560 
L 122 2701 
Q 416 2714 611 2922 
Q 806 3130 873 3386 
Q 941 3642 947 3936 
L 1107 3936 
L 1107 2758 
L 2022 2758 
L 2022 2560 
L 1107 2560 
L 1107 781 
Q 1107 90 1536 90 
Q 1722 90 1843 278 
Q 1965 467 1965 806 
L 1965 1158 
L 2125 1158 
L 2125 794 
Q 2125 448 1965 189 
Q 1805 -70 1491 -70 
Q 1376 -70 1261 -41 
Q 1146 -13 998 64 
Q 851 141 758 329 
Q 666 518 666 794 
L 666 2560 
L 122 2560 
z
" id="CMUSerif-Roman-74" transform="scale(0.015625)"/>
       <path d="M 211 0 
L 211 198 
Q 550 198 630 240 
Q 710 282 710 486 
L 710 2208 
Q 710 2445 630 2502 
Q 550 2560 237 2560 
L 237 2758 
L 1133 2829 
L 1133 480 
Q 1133 288 1200 243 
Q 1267 198 1581 198 
L 1581 0 
Q 928 19 915 19 
Q 826 19 211 0 
z
M 480 3942 
Q 480 4070 579 4176 
Q 678 4282 819 4282 
Q 960 4282 1059 4186 
Q 1158 4090 1158 3942 
Q 1158 3795 1059 3699 
Q 960 3603 819 3603 
Q 672 3603 576 3705 
Q 480 3808 480 3942 
z
" id="CMUSerif-Roman-69" transform="scale(0.015625)"/>
       <path d="M 122 2560 
L 122 2758 
Q 410 2739 742 2739 
Q 864 2739 1440 2758 
L 1440 2560 
Q 1075 2560 1075 2394 
Q 1075 2368 1114 2285 
L 1830 499 
L 2483 2131 
Q 2522 2240 2522 2285 
Q 2522 2394 2448 2474 
Q 2374 2554 2214 2560 
L 2214 2758 
Q 2541 2739 2771 2739 
Q 3034 2739 3251 2758 
L 3251 2560 
Q 3059 2560 2924 2473 
Q 2790 2387 2748 2313 
Q 2707 2240 2662 2131 
L 1824 51 
Q 1773 -70 1690 -70 
Q 1632 -70 1609 -48 
Q 1587 -26 1555 51 
L 634 2323 
Q 570 2483 490 2521 
Q 410 2560 122 2560 
z
" id="CMUSerif-Roman-76" transform="scale(0.015625)"/>
      </defs>
      <use xlink:href="#CMUSerif-Roman-61"/>
      <use x="49.999985" xlink:href="#CMUSerif-Roman-66"/>
      <use x="80.499969" xlink:href="#CMUSerif-Roman-66"/>
      <use x="110.999954" xlink:href="#CMUSerif-Roman-65"/>
      <use x="155.399948" xlink:href="#CMUSerif-Roman-63"/>
      <use x="199.799942" xlink:href="#CMUSerif-Roman-74"/>
      <use x="238.59993" xlink:href="#CMUSerif-Roman-69"/>
      <use x="266.299927" xlink:href="#CMUSerif-Roman-76"/>
      <use x="318.999924" xlink:href="#CMUSerif-Roman-65"/>
     </g>
    </g>
    <g id="line2d_9"/>
    <g id="line2d_10">
     <defs>
      <path d="M 0 2.5 
C 0.663008 2.5 1.29895 2.236584 1.767767 1.767767 
C 2.236584 1.29895 2.5 0.663008 2.5 0 
C 2.5 -0.663008 2.236584 -1.29895 1.767767 -1.767767 
C 1.29895 -2.236584 0.663008 -2.5 0 -2.5 
C -0.663008 -2.5 -1.29895 -2.236584 -1.767767 -1.767767 
C -2.236584 -1.29895 -2.5 -0.663008 -2.5 0 
C -2.5 0.663008 -2.236584 1.29895 -1.767767 1.767767 
C -1.29895 2.236584 -0.663008 2.5 0 2.5 
z
" id="m22da9f5314"/>
     </defs>
     <g>
      <use style="fill:#ff603d;fill-opacity:0.6;" x="163.367031" xlink:href="#m22da9f5314" y="54.57"/>
     </g>
    </g>
    <g id="text_10">
     <!-- non-affective -->
     <g transform="translate(183.167031 58.42)scale(0.11 -0.11)">
      <defs>
       <path d="M 205 0 
L 205 198 
Q 544 198 624 240 
Q 704 282 704 486 
L 704 2202 
Q 704 2438 621 2499 
Q 538 2560 205 2560 
L 205 2758 
L 1107 2829 
L 1107 2157 
Q 1408 2829 2054 2829 
Q 2534 2829 2726 2592 
Q 2867 2432 2896 2253 
Q 2925 2074 2925 1613 
L 2925 390 
Q 2931 256 3033 227 
Q 3136 198 3424 198 
L 3424 0 
Q 2771 19 2707 19 
Q 2656 19 1984 0 
L 1984 198 
Q 2323 198 2403 240 
Q 2483 282 2483 486 
L 2483 1978 
Q 2483 2304 2384 2496 
Q 2285 2688 2010 2688 
Q 1677 2688 1411 2409 
Q 1146 2131 1146 1664 
L 1146 486 
Q 1146 282 1226 240 
Q 1306 198 1645 198 
L 1645 0 
Q 992 19 928 19 
Q 877 19 205 0 
z
" id="CMUSerif-Roman-6e" transform="scale(0.015625)"/>
       <path d="M 601 346 
Q 179 762 179 1370 
Q 179 1978 592 2422 
Q 1005 2867 1600 2867 
Q 2182 2867 2598 2425 
Q 3014 1984 3014 1370 
Q 3014 768 2595 349 
Q 2176 -70 1594 -70 
Q 1024 -70 601 346 
z
M 710 1421 
Q 710 800 870 518 
Q 1120 90 1600 90 
Q 1837 90 2035 218 
Q 2234 346 2342 563 
Q 2483 845 2483 1421 
Q 2483 2035 2317 2310 
Q 2067 2726 1594 2726 
Q 1389 2726 1187 2617 
Q 986 2509 864 2298 
Q 710 2016 710 1421 
z
" id="CMUSerif-Roman-6f" transform="scale(0.015625)"/>
       <path d="M 64 1190 
L 64 1568 
L 1766 1568 
L 1766 1190 
L 64 1190 
z
" id="CMUSerif-Roman-2d" transform="scale(0.015625)"/>
      </defs>
      <use xlink:href="#CMUSerif-Roman-6e"/>
      <use x="55.499985" xlink:href="#CMUSerif-Roman-6f"/>
      <use x="105.499969" xlink:href="#CMUSerif-Roman-6e"/>
      <use x="160.999954" xlink:href="#CMUSerif-Roman-2d"/>
      <use x="194.299942" xlink:href="#CMUSerif-Roman-61"/>
      <use x="244.299927" xlink:href="#CMUSerif-Roman-66"/>
      <use x="274.799911" xlink:href="#CMUSerif-Roman-66"/>
      <use x="305.299896" xlink:href="#CMUSerif-Roman-65"/>
      <use x="349.69989" xlink:href="#CMUSerif-Roman-63"/>
      <use x="394.099884" xlink:href="#CMUSerif-Roman-74"/>
      <use x="432.899872" xlink:href="#CMUSerif-Roman-69"/>
      <use x="460.599869" xlink:href="#CMUSerif-Roman-76"/>
      <use x="513.299866" xlink:href="#CMUSerif-Roman-65"/>
     </g>
    </g>
   </g>
  </g>
 </g>
 <defs>
  <clipPath id="p4eee1092a8">
   <rect height="81.54" width="111.6" x="42.027031" y="7.2"/>
  </clipPath>
 </defs>
</svg>
