<?xml version="1.0" encoding="utf-8" standalone="no"?>
<!DOCTYPE svg PUBLIC "-//W3C//DTD SVG 1.1//EN"
  "http://www.w3.org/Graphics/SVG/1.1/DTD/svg11.dtd">
<svg height="126.47875pt" version="1.1" viewBox="0 0 256.116094 126.47875" width="256.116094pt" xmlns="http://www.w3.org/2000/svg" xmlns:xlink="http://www.w3.org/1999/xlink">
 <metadata>
  <rdf:RDF xmlns:cc="http://creativecommons.org/ns#" xmlns:dc="http://purl.org/dc/elements/1.1/" xmlns:rdf="http://www.w3.org/1999/02/22-rdf-syntax-ns#">
   <cc:Work>
    <dc:type rdf:resource="http://purl.org/dc/dcmitype/StillImage"/>
    <dc:date>2023-02-21T15:37:02.112527</dc:date>
    <dc:format>image/svg+xml</dc:format>
    <dc:creator>
     <cc:Agent>
      <dc:title>Matplotlib v3.4.3, https://matplotlib.org/</dc:title>
     </cc:Agent>
    </dc:creator>
   </cc:Work>
  </rdf:RDF>
 </metadata>
 <defs>
  <style type="text/css">*{stroke-linecap:butt;stroke-linejoin:round;}</style>
 </defs>
 <g id="figure_1">
  <g id="patch_1">
   <path d="M 0 126.47875 
L 256.116094 126.47875 
L 256.116094 -0 
L 0 -0 
z
" style="fill:none;"/>
  </g>
  <g id="axes_1">
   <g id="patch_2">
    <path d="M 42.027031 88.74 
L 153.627031 88.74 
L 153.627031 7.2 
L 42.027031 7.2 
z
" style="fill:#ffffff;"/>
   </g>
   <g id="PathCollection_1">
    <defs>
     <path d="M 0 1.936492 
C 0.513564 1.936492 1.006162 1.732451 1.369306 1.369306 
C 1.732451 1.006162 1.936492 0.513564 1.936492 -0 
C 1.936492 -0.513564 1.732451 -1.006162 1.369306 -1.369306 
C 1.006162 -1.732451 0.513564 -1.936492 0 -1.936492 
C -0.513564 -1.936492 -1.006162 -1.732451 -1.369306 -1.369306 
C -1.732451 -1.006162 -1.936492 -0.513564 -1.936492 0 
C -1.936492 0.513564 -1.732451 1.006162 -1.369306 1.369306 
C -1.006162 1.732451 -0.513564 1.936492 0 1.936492 
z
" id="C0_0_b16e0ebea6"/>
    </defs>
    <g clip-path="url(#p711cb966f2)">
     <use style="fill:#3880d9;fill-opacity:0.6;" x="93.495055" xlink:href="#C0_0_b16e0ebea6" y="42.493745"/>
    </g>
    <g clip-path="url(#p711cb966f2)">
     <use style="fill:#3880d9;fill-opacity:0.6;" x="68.837821" xlink:href="#C0_0_b16e0ebea6" y="52.876615"/>
    </g>
    <g clip-path="url(#p711cb966f2)">
     <use style="fill:#3880d9;fill-opacity:0.6;" x="118.358968" xlink:href="#C0_0_b16e0ebea6" y="33.364665"/>
    </g>
    <g clip-path="url(#p711cb966f2)">
     <use style="fill:#3880d9;fill-opacity:0.6;" x="123.326994" xlink:href="#C0_0_b16e0ebea6" y="43.491183"/>
    </g>
    <g clip-path="url(#p711cb966f2)">
     <use style="fill:#3880d9;fill-opacity:0.6;" x="96.784774" xlink:href="#C0_0_b16e0ebea6" y="18.520265"/>
    </g>
    <g clip-path="url(#p711cb966f2)">
     <use style="fill:#3880d9;fill-opacity:0.6;" x="104.068148" xlink:href="#C0_0_b16e0ebea6" y="29.054768"/>
    </g>
    <g clip-path="url(#p711cb966f2)">
     <use style="fill:#3880d9;fill-opacity:0.6;" x="108.234894" xlink:href="#C0_0_b16e0ebea6" y="39.452737"/>
    </g>
    <g clip-path="url(#p711cb966f2)">
     <use style="fill:#3880d9;fill-opacity:0.6;" x="108.085116" xlink:href="#C0_0_b16e0ebea6" y="64.592914"/>
    </g>
    <g clip-path="url(#p711cb966f2)">
     <use style="fill:#3880d9;fill-opacity:0.6;" x="107.312721" xlink:href="#C0_0_b16e0ebea6" y="33.198904"/>
    </g>
    <g clip-path="url(#p711cb966f2)">
     <use style="fill:#3880d9;fill-opacity:0.6;" x="97.97445" xlink:href="#C0_0_b16e0ebea6" y="54.384303"/>
    </g>
    <g clip-path="url(#p711cb966f2)">
     <use style="fill:#3880d9;fill-opacity:0.6;" x="131.549298" xlink:href="#C0_0_b16e0ebea6" y="25.151551"/>
    </g>
    <g clip-path="url(#p711cb966f2)">
     <use style="fill:#3880d9;fill-opacity:0.6;" x="64.299318" xlink:href="#C0_0_b16e0ebea6" y="60.263303"/>
    </g>
    <g clip-path="url(#p711cb966f2)">
     <use style="fill:#3880d9;fill-opacity:0.6;" x="85.338894" xlink:href="#C0_0_b16e0ebea6" y="66.083657"/>
    </g>
    <g clip-path="url(#p711cb966f2)">
     <use style="fill:#3880d9;fill-opacity:0.6;" x="79.774566" xlink:href="#C0_0_b16e0ebea6" y="59.601591"/>
    </g>
    <g clip-path="url(#p711cb966f2)">
     <use style="fill:#3880d9;fill-opacity:0.6;" x="99.400781" xlink:href="#C0_0_b16e0ebea6" y="37.341983"/>
    </g>
    <g clip-path="url(#p711cb966f2)">
     <use style="fill:#3880d9;fill-opacity:0.6;" x="82.934502" xlink:href="#C0_0_b16e0ebea6" y="42.905866"/>
    </g>
    <g clip-path="url(#p711cb966f2)">
     <use style="fill:#3880d9;fill-opacity:0.6;" x="86.112337" xlink:href="#C0_0_b16e0ebea6" y="42.661194"/>
    </g>
    <g clip-path="url(#p711cb966f2)">
     <use style="fill:#3880d9;fill-opacity:0.6;" x="117.710151" xlink:href="#C0_0_b16e0ebea6" y="31.959173"/>
    </g>
    <g clip-path="url(#p711cb966f2)">
     <use style="fill:#3880d9;fill-opacity:0.6;" x="108.450785" xlink:href="#C0_0_b16e0ebea6" y="32.06455"/>
    </g>
    <g clip-path="url(#p711cb966f2)">
     <use style="fill:#3880d9;fill-opacity:0.6;" x="81.500231" xlink:href="#C0_0_b16e0ebea6" y="58.614061"/>
    </g>
    <g clip-path="url(#p711cb966f2)">
     <use style="fill:#3880d9;fill-opacity:0.6;" x="95.677467" xlink:href="#C0_0_b16e0ebea6" y="18.374258"/>
    </g>
    <g clip-path="url(#p711cb966f2)">
     <use style="fill:#3880d9;fill-opacity:0.6;" x="67.632995" xlink:href="#C0_0_b16e0ebea6" y="26.925333"/>
    </g>
    <g clip-path="url(#p711cb966f2)">
     <use style="fill:#3880d9;fill-opacity:0.6;" x="84.819602" xlink:href="#C0_0_b16e0ebea6" y="64.154781"/>
    </g>
    <g clip-path="url(#p711cb966f2)">
     <use style="fill:#3880d9;fill-opacity:0.6;" x="109.98096" xlink:href="#C0_0_b16e0ebea6" y="32.851665"/>
    </g>
    <g clip-path="url(#p711cb966f2)">
     <use style="fill:#3880d9;fill-opacity:0.6;" x="97.555666" xlink:href="#C0_0_b16e0ebea6" y="28.326316"/>
    </g>
    <g clip-path="url(#p711cb966f2)">
     <use style="fill:#3880d9;fill-opacity:0.6;" x="96.682933" xlink:href="#C0_0_b16e0ebea6" y="45.918614"/>
    </g>
    <g clip-path="url(#p711cb966f2)">
     <use style="fill:#3880d9;fill-opacity:0.6;" x="105.95459" xlink:href="#C0_0_b16e0ebea6" y="65.785863"/>
    </g>
    <g clip-path="url(#p711cb966f2)">
     <use style="fill:#3880d9;fill-opacity:0.6;" x="107.754133" xlink:href="#C0_0_b16e0ebea6" y="55.440339"/>
    </g>
    <g clip-path="url(#p711cb966f2)">
     <use style="fill:#3880d9;fill-opacity:0.6;" x="79.028614" xlink:href="#C0_0_b16e0ebea6" y="40.384905"/>
    </g>
    <g clip-path="url(#p711cb966f2)">
     <use style="fill:#3880d9;fill-opacity:0.6;" x="88.535129" xlink:href="#C0_0_b16e0ebea6" y="36.560933"/>
    </g>
    <g clip-path="url(#p711cb966f2)">
     <use style="fill:#3880d9;fill-opacity:0.6;" x="72.521366" xlink:href="#C0_0_b16e0ebea6" y="55.545869"/>
    </g>
    <g clip-path="url(#p711cb966f2)">
     <use style="fill:#3880d9;fill-opacity:0.6;" x="105.511009" xlink:href="#C0_0_b16e0ebea6" y="29.208485"/>
    </g>
    <g clip-path="url(#p711cb966f2)">
     <use style="fill:#3880d9;fill-opacity:0.6;" x="83.129684" xlink:href="#C0_0_b16e0ebea6" y="58.859793"/>
    </g>
    <g clip-path="url(#p711cb966f2)">
     <use style="fill:#3880d9;fill-opacity:0.6;" x="109.452536" xlink:href="#C0_0_b16e0ebea6" y="37.131814"/>
    </g>
    <g clip-path="url(#p711cb966f2)">
     <use style="fill:#3880d9;fill-opacity:0.6;" x="112.736579" xlink:href="#C0_0_b16e0ebea6" y="29.217024"/>
    </g>
    <g clip-path="url(#p711cb966f2)">
     <use style="fill:#3880d9;fill-opacity:0.6;" x="114.142522" xlink:href="#C0_0_b16e0ebea6" y="55.476857"/>
    </g>
    <g clip-path="url(#p711cb966f2)">
     <use style="fill:#3880d9;fill-opacity:0.6;" x="80.034627" xlink:href="#C0_0_b16e0ebea6" y="35.495437"/>
    </g>
    <g clip-path="url(#p711cb966f2)">
     <use style="fill:#3880d9;fill-opacity:0.6;" x="102.318799" xlink:href="#C0_0_b16e0ebea6" y="36.45131"/>
    </g>
    <g clip-path="url(#p711cb966f2)">
     <use style="fill:#3880d9;fill-opacity:0.6;" x="67.793526" xlink:href="#C0_0_b16e0ebea6" y="58.95264"/>
    </g>
    <g clip-path="url(#p711cb966f2)">
     <use style="fill:#3880d9;fill-opacity:0.6;" x="114.250665" xlink:href="#C0_0_b16e0ebea6" y="50.949249"/>
    </g>
    <g clip-path="url(#p711cb966f2)">
     <use style="fill:#3880d9;fill-opacity:0.6;" x="112.72778" xlink:href="#C0_0_b16e0ebea6" y="17.176444"/>
    </g>
    <g clip-path="url(#p711cb966f2)">
     <use style="fill:#3880d9;fill-opacity:0.6;" x="114.82116" xlink:href="#C0_0_b16e0ebea6" y="37.278274"/>
    </g>
    <g clip-path="url(#p711cb966f2)">
     <use style="fill:#3880d9;fill-opacity:0.6;" x="92.342403" xlink:href="#C0_0_b16e0ebea6" y="69.619838"/>
    </g>
    <g clip-path="url(#p711cb966f2)">
     <use style="fill:#3880d9;fill-opacity:0.6;" x="124.061249" xlink:href="#C0_0_b16e0ebea6" y="64.972215"/>
    </g>
    <g clip-path="url(#p711cb966f2)">
     <use style="fill:#3880d9;fill-opacity:0.6;" x="104.735035" xlink:href="#C0_0_b16e0ebea6" y="56.04033"/>
    </g>
    <g clip-path="url(#p711cb966f2)">
     <use style="fill:#3880d9;fill-opacity:0.6;" x="89.40712" xlink:href="#C0_0_b16e0ebea6" y="71.271736"/>
    </g>
    <g clip-path="url(#p711cb966f2)">
     <use style="fill:#910040;fill-opacity:0.6;" x="64.321427" xlink:href="#C0_0_b16e0ebea6" y="54.067611"/>
    </g>
    <g clip-path="url(#p711cb966f2)">
     <use style="fill:#910040;fill-opacity:0.6;" x="83.703498" xlink:href="#C0_0_b16e0ebea6" y="39.511624"/>
    </g>
    <g clip-path="url(#p711cb966f2)">
     <use style="fill:#910040;fill-opacity:0.6;" x="106.788458" xlink:href="#C0_0_b16e0ebea6" y="39.031792"/>
    </g>
    <g clip-path="url(#p711cb966f2)">
     <use style="fill:#910040;fill-opacity:0.6;" x="104.910574" xlink:href="#C0_0_b16e0ebea6" y="51.57391"/>
    </g>
    <g clip-path="url(#p711cb966f2)">
     <use style="fill:#910040;fill-opacity:0.6;" x="97.047114" xlink:href="#C0_0_b16e0ebea6" y="50.716405"/>
    </g>
    <g clip-path="url(#p711cb966f2)">
     <use style="fill:#910040;fill-opacity:0.6;" x="95.587465" xlink:href="#C0_0_b16e0ebea6" y="45.391634"/>
    </g>
    <g clip-path="url(#p711cb966f2)">
     <use style="fill:#910040;fill-opacity:0.6;" x="131.13248" xlink:href="#C0_0_b16e0ebea6" y="46.454511"/>
    </g>
    <g clip-path="url(#p711cb966f2)">
     <use style="fill:#910040;fill-opacity:0.6;" x="95.731031" xlink:href="#C0_0_b16e0ebea6" y="41.569777"/>
    </g>
    <g clip-path="url(#p711cb966f2)">
     <use style="fill:#910040;fill-opacity:0.6;" x="102.166539" xlink:href="#C0_0_b16e0ebea6" y="61.767801"/>
    </g>
    <g clip-path="url(#p711cb966f2)">
     <use style="fill:#910040;fill-opacity:0.6;" x="129.667496" xlink:href="#C0_0_b16e0ebea6" y="10.906364"/>
    </g>
    <g clip-path="url(#p711cb966f2)">
     <use style="fill:#910040;fill-opacity:0.6;" x="74.905071" xlink:href="#C0_0_b16e0ebea6" y="45.033788"/>
    </g>
    <g clip-path="url(#p711cb966f2)">
     <use style="fill:#910040;fill-opacity:0.6;" x="123.360002" xlink:href="#C0_0_b16e0ebea6" y="64.762761"/>
    </g>
    <g clip-path="url(#p711cb966f2)">
     <use style="fill:#910040;fill-opacity:0.6;" x="94.148162" xlink:href="#C0_0_b16e0ebea6" y="58.473219"/>
    </g>
    <g clip-path="url(#p711cb966f2)">
     <use style="fill:#910040;fill-opacity:0.6;" x="82.248534" xlink:href="#C0_0_b16e0ebea6" y="52.789148"/>
    </g>
    <g clip-path="url(#p711cb966f2)">
     <use style="fill:#910040;fill-opacity:0.6;" x="96.437755" xlink:href="#C0_0_b16e0ebea6" y="42.169084"/>
    </g>
    <g clip-path="url(#p711cb966f2)">
     <use style="fill:#910040;fill-opacity:0.6;" x="104.521484" xlink:href="#C0_0_b16e0ebea6" y="40.405629"/>
    </g>
    <g clip-path="url(#p711cb966f2)">
     <use style="fill:#910040;fill-opacity:0.6;" x="73.159458" xlink:href="#C0_0_b16e0ebea6" y="52.435936"/>
    </g>
    <g clip-path="url(#p711cb966f2)">
     <use style="fill:#910040;fill-opacity:0.6;" x="112.177717" xlink:href="#C0_0_b16e0ebea6" y="54.474158"/>
    </g>
    <g clip-path="url(#p711cb966f2)">
     <use style="fill:#910040;fill-opacity:0.6;" x="73.017116" xlink:href="#C0_0_b16e0ebea6" y="50.049901"/>
    </g>
    <g clip-path="url(#p711cb966f2)">
     <use style="fill:#910040;fill-opacity:0.6;" x="99.279312" xlink:href="#C0_0_b16e0ebea6" y="32.165348"/>
    </g>
    <g clip-path="url(#p711cb966f2)">
     <use style="fill:#910040;fill-opacity:0.6;" x="118.477875" xlink:href="#C0_0_b16e0ebea6" y="39.711069"/>
    </g>
    <g clip-path="url(#p711cb966f2)">
     <use style="fill:#910040;fill-opacity:0.6;" x="83.167277" xlink:href="#C0_0_b16e0ebea6" y="59.908337"/>
    </g>
    <g clip-path="url(#p711cb966f2)">
     <use style="fill:#910040;fill-opacity:0.6;" x="98.108017" xlink:href="#C0_0_b16e0ebea6" y="25.202893"/>
    </g>
    <g clip-path="url(#p711cb966f2)">
     <use style="fill:#910040;fill-opacity:0.6;" x="94.205743" xlink:href="#C0_0_b16e0ebea6" y="45.202616"/>
    </g>
    <g clip-path="url(#p711cb966f2)">
     <use style="fill:#910040;fill-opacity:0.6;" x="141.612575" xlink:href="#C0_0_b16e0ebea6" y="49.272605"/>
    </g>
    <g clip-path="url(#p711cb966f2)">
     <use style="fill:#ff603d;fill-opacity:0.6;" x="85.515335" xlink:href="#C0_0_b16e0ebea6" y="34.617875"/>
    </g>
    <g clip-path="url(#p711cb966f2)">
     <use style="fill:#ff603d;fill-opacity:0.6;" x="109.429226" xlink:href="#C0_0_b16e0ebea6" y="49.592255"/>
    </g>
    <g clip-path="url(#p711cb966f2)">
     <use style="fill:#ff603d;fill-opacity:0.6;" x="99.618178" xlink:href="#C0_0_b16e0ebea6" y="39.207348"/>
    </g>
    <g clip-path="url(#p711cb966f2)">
     <use style="fill:#ff603d;fill-opacity:0.6;" x="100.889169" xlink:href="#C0_0_b16e0ebea6" y="50.954057"/>
    </g>
    <g clip-path="url(#p711cb966f2)">
     <use style="fill:#ff603d;fill-opacity:0.6;" x="108.613561" xlink:href="#C0_0_b16e0ebea6" y="64.844101"/>
    </g>
    <g clip-path="url(#p711cb966f2)">
     <use style="fill:#ff603d;fill-opacity:0.6;" x="74.725487" xlink:href="#C0_0_b16e0ebea6" y="50.83008"/>
    </g>
    <g clip-path="url(#p711cb966f2)">
     <use style="fill:#ff603d;fill-opacity:0.6;" x="97.90875" xlink:href="#C0_0_b16e0ebea6" y="23.151945"/>
    </g>
    <g clip-path="url(#p711cb966f2)">
     <use style="fill:#ff603d;fill-opacity:0.6;" x="94.794649" xlink:href="#C0_0_b16e0ebea6" y="27.360419"/>
    </g>
    <g clip-path="url(#p711cb966f2)">
     <use style="fill:#ff603d;fill-opacity:0.6;" x="75.445217" xlink:href="#C0_0_b16e0ebea6" y="44.331265"/>
    </g>
    <g clip-path="url(#p711cb966f2)">
     <use style="fill:#ff603d;fill-opacity:0.6;" x="98.881077" xlink:href="#C0_0_b16e0ebea6" y="45.921037"/>
    </g>
    <g clip-path="url(#p711cb966f2)">
     <use style="fill:#ff603d;fill-opacity:0.6;" x="99.361363" xlink:href="#C0_0_b16e0ebea6" y="79.033244"/>
    </g>
    <g clip-path="url(#p711cb966f2)">
     <use style="fill:#ff603d;fill-opacity:0.6;" x="86.686827" xlink:href="#C0_0_b16e0ebea6" y="81.080008"/>
    </g>
    <g clip-path="url(#p711cb966f2)">
     <use style="fill:#ff603d;fill-opacity:0.6;" x="93.00958" xlink:href="#C0_0_b16e0ebea6" y="83.377906"/>
    </g>
    <g clip-path="url(#p711cb966f2)">
     <use style="fill:#ff603d;fill-opacity:0.6;" x="101.046899" xlink:href="#C0_0_b16e0ebea6" y="64.151289"/>
    </g>
    <g clip-path="url(#p711cb966f2)">
     <use style="fill:#ff603d;fill-opacity:0.6;" x="78.629914" xlink:href="#C0_0_b16e0ebea6" y="20.860806"/>
    </g>
    <g clip-path="url(#p711cb966f2)">
     <use style="fill:#ff603d;fill-opacity:0.6;" x="91.456065" xlink:href="#C0_0_b16e0ebea6" y="38.907941"/>
    </g>
    <g clip-path="url(#p711cb966f2)">
     <use style="fill:#ff603d;fill-opacity:0.6;" x="81.149055" xlink:href="#C0_0_b16e0ebea6" y="53.311513"/>
    </g>
    <g clip-path="url(#p711cb966f2)">
     <use style="fill:#ff603d;fill-opacity:0.6;" x="47.099759" xlink:href="#C0_0_b16e0ebea6" y="25.189657"/>
    </g>
    <g clip-path="url(#p711cb966f2)">
     <use style="fill:#ff603d;fill-opacity:0.6;" x="100.505922" xlink:href="#C0_0_b16e0ebea6" y="43.418408"/>
    </g>
    <g clip-path="url(#p711cb966f2)">
     <use style="fill:#ff603d;fill-opacity:0.6;" x="70.900751" xlink:href="#C0_0_b16e0ebea6" y="55.717664"/>
    </g>
    <g clip-path="url(#p711cb966f2)">
     <use style="fill:#ff603d;fill-opacity:0.6;" x="94.008022" xlink:href="#C0_0_b16e0ebea6" y="48.277833"/>
    </g>
    <g clip-path="url(#p711cb966f2)">
     <use style="fill:#ff603d;fill-opacity:0.6;" x="70.956344" xlink:href="#C0_0_b16e0ebea6" y="38.991903"/>
    </g>
    <g clip-path="url(#p711cb966f2)">
     <use style="fill:#ff603d;fill-opacity:0.6;" x="96.631683" xlink:href="#C0_0_b16e0ebea6" y="67.750529"/>
    </g>
    <g clip-path="url(#p711cb966f2)">
     <use style="fill:#ff603d;fill-opacity:0.6;" x="104.410899" xlink:href="#C0_0_b16e0ebea6" y="35.791588"/>
    </g>
    <g clip-path="url(#p711cb966f2)">
     <use style="fill:#ff603d;fill-opacity:0.6;" x="129.456448" xlink:href="#C0_0_b16e0ebea6" y="67.911269"/>
    </g>
    <g clip-path="url(#p711cb966f2)">
     <use style="fill:#ff603d;fill-opacity:0.6;" x="112.590171" xlink:href="#C0_0_b16e0ebea6" y="59.16481"/>
    </g>
    <g clip-path="url(#p711cb966f2)">
     <use style="fill:#ff603d;fill-opacity:0.6;" x="106.329322" xlink:href="#C0_0_b16e0ebea6" y="47.038408"/>
    </g>
    <g clip-path="url(#p711cb966f2)">
     <use style="fill:#ff603d;fill-opacity:0.6;" x="57.609488" xlink:href="#C0_0_b16e0ebea6" y="36.191322"/>
    </g>
    <g clip-path="url(#p711cb966f2)">
     <use style="fill:#ff603d;fill-opacity:0.6;" x="94.73731" xlink:href="#C0_0_b16e0ebea6" y="67.028022"/>
    </g>
    <g clip-path="url(#p711cb966f2)">
     <use style="fill:#ff603d;fill-opacity:0.6;" x="99.815909" xlink:href="#C0_0_b16e0ebea6" y="34.163396"/>
    </g>
    <g clip-path="url(#p711cb966f2)">
     <use style="fill:#ff603d;fill-opacity:0.6;" x="92.446311" xlink:href="#C0_0_b16e0ebea6" y="46.128717"/>
    </g>
    <g clip-path="url(#p711cb966f2)">
     <use style="fill:#ff603d;fill-opacity:0.6;" x="101.509078" xlink:href="#C0_0_b16e0ebea6" y="47.894276"/>
    </g>
    <g clip-path="url(#p711cb966f2)">
     <use style="fill:#ff603d;fill-opacity:0.6;" x="105.79776" xlink:href="#C0_0_b16e0ebea6" y="62.162823"/>
    </g>
    <g clip-path="url(#p711cb966f2)">
     <use style="fill:#ff603d;fill-opacity:0.6;" x="117.164428" xlink:href="#C0_0_b16e0ebea6" y="41.285413"/>
    </g>
    <g clip-path="url(#p711cb966f2)">
     <use style="fill:#ff603d;fill-opacity:0.6;" x="96.745558" xlink:href="#C0_0_b16e0ebea6" y="82.365381"/>
    </g>
    <g clip-path="url(#p711cb966f2)">
     <use style="fill:#ff603d;fill-opacity:0.6;" x="89.6338" xlink:href="#C0_0_b16e0ebea6" y="62.97689"/>
    </g>
    <g clip-path="url(#p711cb966f2)">
     <use style="fill:#ff603d;fill-opacity:0.6;" x="102.626442" xlink:href="#C0_0_b16e0ebea6" y="69.817581"/>
    </g>
    <g clip-path="url(#p711cb966f2)">
     <use style="fill:#ff603d;fill-opacity:0.6;" x="145.646642" xlink:href="#C0_0_b16e0ebea6" y="43.464823"/>
    </g>
    <g clip-path="url(#p711cb966f2)">
     <use style="fill:#ff603d;fill-opacity:0.6;" x="105.348363" xlink:href="#C0_0_b16e0ebea6" y="70.202078"/>
    </g>
    <g clip-path="url(#p711cb966f2)">
     <use style="fill:#ff603d;fill-opacity:0.6;" x="107.069815" xlink:href="#C0_0_b16e0ebea6" y="33.280736"/>
    </g>
    <g clip-path="url(#p711cb966f2)">
     <use style="fill:#ff603d;fill-opacity:0.6;" x="148.554304" xlink:href="#C0_0_b16e0ebea6" y="50.33453"/>
    </g>
    <g clip-path="url(#p711cb966f2)">
     <use style="fill:#ff603d;fill-opacity:0.6;" x="81.954451" xlink:href="#C0_0_b16e0ebea6" y="54.972022"/>
    </g>
    <g clip-path="url(#p711cb966f2)">
     <use style="fill:#ff603d;fill-opacity:0.6;" x="127.274112" xlink:href="#C0_0_b16e0ebea6" y="57.572508"/>
    </g>
    <g clip-path="url(#p711cb966f2)">
     <use style="fill:#ff603d;fill-opacity:0.6;" x="123.709836" xlink:href="#C0_0_b16e0ebea6" y="44.840436"/>
    </g>
    <g clip-path="url(#p711cb966f2)">
     <use style="fill:#ff603d;fill-opacity:0.6;" x="128.894602" xlink:href="#C0_0_b16e0ebea6" y="42.236174"/>
    </g>
    <g clip-path="url(#p711cb966f2)">
     <use style="fill:#ff603d;fill-opacity:0.6;" x="107.807067" xlink:href="#C0_0_b16e0ebea6" y="17.164926"/>
    </g>
    <g clip-path="url(#p711cb966f2)">
     <use style="fill:#ff603d;fill-opacity:0.6;" x="107.965978" xlink:href="#C0_0_b16e0ebea6" y="49.453499"/>
    </g>
    <g clip-path="url(#p711cb966f2)">
     <use style="fill:#ff603d;fill-opacity:0.6;" x="126.89539" xlink:href="#C0_0_b16e0ebea6" y="54.003052"/>
    </g>
    <g clip-path="url(#p711cb966f2)">
     <use style="fill:#ff603d;fill-opacity:0.6;" x="115.277708" xlink:href="#C0_0_b16e0ebea6" y="57.302262"/>
    </g>
    <g clip-path="url(#p711cb966f2)">
     <use style="fill:#ff603d;fill-opacity:0.6;" x="83.020842" xlink:href="#C0_0_b16e0ebea6" y="55.176869"/>
    </g>
    <g clip-path="url(#p711cb966f2)">
     <use style="fill:#ff603d;fill-opacity:0.6;" x="123.360544" xlink:href="#C0_0_b16e0ebea6" y="46.878842"/>
    </g>
    <g clip-path="url(#p711cb966f2)">
     <use style="fill:#ff603d;fill-opacity:0.6;" x="77.936831" xlink:href="#C0_0_b16e0ebea6" y="53.049207"/>
    </g>
    <g clip-path="url(#p711cb966f2)">
     <use style="fill:#ff603d;fill-opacity:0.6;" x="89.849914" xlink:href="#C0_0_b16e0ebea6" y="43.304956"/>
    </g>
    <g clip-path="url(#p711cb966f2)">
     <use style="fill:#ff603d;fill-opacity:0.6;" x="135.908984" xlink:href="#C0_0_b16e0ebea6" y="69.566662"/>
    </g>
    <g clip-path="url(#p711cb966f2)">
     <use style="fill:#ff603d;fill-opacity:0.6;" x="113.154303" xlink:href="#C0_0_b16e0ebea6" y="50.778412"/>
    </g>
    <g clip-path="url(#p711cb966f2)">
     <use style="fill:#ff603d;fill-opacity:0.6;" x="101.240961" xlink:href="#C0_0_b16e0ebea6" y="48.055097"/>
    </g>
    <g clip-path="url(#p711cb966f2)">
     <use style="fill:#ff603d;fill-opacity:0.6;" x="99.146472" xlink:href="#C0_0_b16e0ebea6" y="39.119691"/>
    </g>
    <g clip-path="url(#p711cb966f2)">
     <use style="fill:#ff603d;fill-opacity:0.6;" x="109.918696" xlink:href="#C0_0_b16e0ebea6" y="67.438168"/>
    </g>
    <g clip-path="url(#p711cb966f2)">
     <use style="fill:#ff603d;fill-opacity:0.6;" x="104.070506" xlink:href="#C0_0_b16e0ebea6" y="60.592772"/>
    </g>
    <g clip-path="url(#p711cb966f2)">
     <use style="fill:#ff603d;fill-opacity:0.6;" x="93.164014" xlink:href="#C0_0_b16e0ebea6" y="42.76578"/>
    </g>
    <g clip-path="url(#p711cb966f2)">
     <use style="fill:#ff603d;fill-opacity:0.6;" x="116.690893" xlink:href="#C0_0_b16e0ebea6" y="37.591578"/>
    </g>
    <g clip-path="url(#p711cb966f2)">
     <use style="fill:#ff603d;fill-opacity:0.6;" x="146.263036" xlink:href="#C0_0_b16e0ebea6" y="70.247152"/>
    </g>
    <g clip-path="url(#p711cb966f2)">
     <use style="fill:#ff603d;fill-opacity:0.6;" x="90.076487" xlink:href="#C0_0_b16e0ebea6" y="69.090445"/>
    </g>
    <g clip-path="url(#p711cb966f2)">
     <use style="fill:#ff603d;fill-opacity:0.6;" x="91.286931" xlink:href="#C0_0_b16e0ebea6" y="59.836623"/>
    </g>
    <g clip-path="url(#p711cb966f2)">
     <use style="fill:#ff603d;fill-opacity:0.6;" x="112.781239" xlink:href="#C0_0_b16e0ebea6" y="58.242419"/>
    </g>
    <g clip-path="url(#p711cb966f2)">
     <use style="fill:#ff603d;fill-opacity:0.6;" x="112.254828" xlink:href="#C0_0_b16e0ebea6" y="29.813206"/>
    </g>
    <g clip-path="url(#p711cb966f2)">
     <use style="fill:#ff603d;fill-opacity:0.6;" x="123.070307" xlink:href="#C0_0_b16e0ebea6" y="47.556528"/>
    </g>
    <g clip-path="url(#p711cb966f2)">
     <use style="fill:#ff603d;fill-opacity:0.6;" x="131.685525" xlink:href="#C0_0_b16e0ebea6" y="85.033636"/>
    </g>
    <g clip-path="url(#p711cb966f2)">
     <use style="fill:#ff603d;fill-opacity:0.6;" x="112.537386" xlink:href="#C0_0_b16e0ebea6" y="43.601132"/>
    </g>
    <g clip-path="url(#p711cb966f2)">
     <use style="fill:#ff603d;fill-opacity:0.6;" x="96.165439" xlink:href="#C0_0_b16e0ebea6" y="31.884408"/>
    </g>
    <g clip-path="url(#p711cb966f2)">
     <use style="fill:#ff603d;fill-opacity:0.6;" x="114.498025" xlink:href="#C0_0_b16e0ebea6" y="53.638016"/>
    </g>
    <g clip-path="url(#p711cb966f2)">
     <use style="fill:#ff603d;fill-opacity:0.6;" x="98.268047" xlink:href="#C0_0_b16e0ebea6" y="58.297275"/>
    </g>
    <g clip-path="url(#p711cb966f2)">
     <use style="fill:#ff603d;fill-opacity:0.6;" x="96.142474" xlink:href="#C0_0_b16e0ebea6" y="58.996881"/>
    </g>
    <g clip-path="url(#p711cb966f2)">
     <use style="fill:#ff603d;fill-opacity:0.6;" x="102.815251" xlink:href="#C0_0_b16e0ebea6" y="51.552187"/>
    </g>
    <g clip-path="url(#p711cb966f2)">
     <use style="fill:#ff603d;fill-opacity:0.6;" x="141.098162" xlink:href="#C0_0_b16e0ebea6" y="32.073207"/>
    </g>
    <g clip-path="url(#p711cb966f2)">
     <use style="fill:#ff603d;fill-opacity:0.6;" x="111.882649" xlink:href="#C0_0_b16e0ebea6" y="53.984816"/>
    </g>
    <g clip-path="url(#p711cb966f2)">
     <use style="fill:#ff603d;fill-opacity:0.6;" x="81.503421" xlink:href="#C0_0_b16e0ebea6" y="60.166482"/>
    </g>
    <g clip-path="url(#p711cb966f2)">
     <use style="fill:#ff603d;fill-opacity:0.6;" x="125.057444" xlink:href="#C0_0_b16e0ebea6" y="44.059272"/>
    </g>
    <g clip-path="url(#p711cb966f2)">
     <use style="fill:#ff603d;fill-opacity:0.6;" x="111.354977" xlink:href="#C0_0_b16e0ebea6" y="60.861284"/>
    </g>
    <g clip-path="url(#p711cb966f2)">
     <use style="fill:#ff603d;fill-opacity:0.6;" x="103.97045" xlink:href="#C0_0_b16e0ebea6" y="43.822593"/>
    </g>
    <g clip-path="url(#p711cb966f2)">
     <use style="fill:#ff603d;fill-opacity:0.6;" x="90.115969" xlink:href="#C0_0_b16e0ebea6" y="37.342909"/>
    </g>
    <g clip-path="url(#p711cb966f2)">
     <use style="fill:#ff603d;fill-opacity:0.6;" x="73.205937" xlink:href="#C0_0_b16e0ebea6" y="53.491946"/>
    </g>
    <g clip-path="url(#p711cb966f2)">
     <use style="fill:#ff603d;fill-opacity:0.6;" x="101.29167" xlink:href="#C0_0_b16e0ebea6" y="70.608909"/>
    </g>
    <g clip-path="url(#p711cb966f2)">
     <use style="fill:#ff603d;fill-opacity:0.6;" x="91.371784" xlink:href="#C0_0_b16e0ebea6" y="45.548237"/>
    </g>
   </g>
   <g id="matplotlib.axis_1">
    <g id="xtick_1">
     <g id="line2d_1">
      <defs>
       <path d="M 0 0 
L 0 3.5 
" id="m5936de19af" style="stroke:#000000;stroke-width:0.8;"/>
      </defs>
      <g>
       <use style="stroke:#000000;stroke-width:0.8;" x="54.07756" xlink:href="#m5936de19af" y="88.74"/>
      </g>
     </g>
     <g id="text_1">
      <!-- −2.5 -->
      <g transform="translate(42.769904 103.374687)scale(0.11 -0.11)">
       <defs>
        <path d="M 365 1594 
Q 365 1670 493 1670 
L 4416 1670 
Q 4422 1670 4451 1670 
Q 4480 1670 4489 1670 
Q 4499 1670 4521 1670 
Q 4544 1670 4553 1664 
Q 4563 1658 4576 1651 
Q 4589 1645 4595 1632 
Q 4602 1619 4602 1600 
Q 4602 1523 4435 1523 
L 4422 1523 
Q 4403 1523 4368 1526 
Q 4333 1530 4314 1530 
L 710 1530 
Q 685 1530 637 1526 
Q 589 1523 563 1523 
L 531 1523 
Q 365 1523 365 1594 
z
" id="CMUSerif-Roman-2212" transform="scale(0.015625)"/>
        <path d="M 320 0 
Q 320 115 329 150 
Q 339 186 390 237 
L 1619 1606 
Q 2291 2362 2291 3021 
Q 2291 3450 2067 3757 
Q 1843 4064 1434 4064 
Q 1152 4064 915 3891 
Q 678 3718 570 3411 
Q 589 3418 653 3418 
Q 813 3418 902 3318 
Q 992 3219 992 3085 
Q 992 2912 880 2829 
Q 768 2746 659 2746 
Q 614 2746 556 2755 
Q 499 2765 409 2854 
Q 320 2944 320 3104 
Q 320 3552 659 3907 
Q 998 4262 1517 4262 
Q 2106 4262 2490 3913 
Q 2874 3565 2874 3021 
Q 2874 2829 2816 2656 
Q 2758 2483 2681 2348 
Q 2605 2214 2400 2000 
Q 2195 1786 2028 1632 
Q 1862 1478 1491 1152 
L 813 493 
L 1965 493 
Q 2528 493 2573 544 
Q 2637 634 2714 1114 
L 2874 1114 
L 2694 0 
L 320 0 
z
" id="CMUSerif-Roman-32" transform="scale(0.015625)"/>
        <path d="M 640 102 
Q 544 205 544 339 
Q 544 474 640 573 
Q 736 672 883 672 
Q 1024 672 1120 579 
Q 1216 486 1216 339 
Q 1216 192 1113 96 
Q 1011 0 883 0 
Q 736 0 640 102 
z
" id="CMUSerif-Roman-2e" transform="scale(0.015625)"/>
        <path d="M 320 1030 
Q 320 1222 422 1296 
Q 525 1370 634 1370 
Q 781 1370 867 1277 
Q 954 1184 954 1056 
Q 954 928 867 835 
Q 781 742 634 742 
Q 563 742 525 755 
Q 608 461 867 249 
Q 1126 38 1466 38 
Q 1894 38 2150 454 
Q 2304 723 2304 1331 
Q 2304 1869 2189 2138 
Q 2010 2547 1645 2547 
Q 1126 2547 819 2099 
Q 781 2042 736 2042 
Q 672 2042 659 2077 
Q 646 2112 646 2208 
L 646 4102 
Q 646 4256 710 4256 
Q 736 4256 787 4237 
Q 1190 4058 1638 4058 
Q 2099 4058 2509 4243 
Q 2541 4262 2560 4262 
Q 2624 4262 2624 4192 
Q 2624 4166 2573 4092 
Q 2522 4019 2413 3923 
Q 2304 3827 2163 3737 
Q 2022 3648 1817 3587 
Q 1613 3526 1389 3526 
Q 1120 3526 845 3610 
L 845 2362 
Q 1178 2688 1658 2688 
Q 2170 2688 2522 2275 
Q 2874 1862 2874 1286 
Q 2874 685 2458 272 
Q 2042 -141 1478 -141 
Q 966 -141 643 224 
Q 320 589 320 1030 
z
" id="CMUSerif-Roman-35" transform="scale(0.015625)"/>
       </defs>
       <use xlink:href="#CMUSerif-Roman-2212"/>
       <use x="77.799988" xlink:href="#CMUSerif-Roman-32"/>
       <use x="127.799973" xlink:href="#CMUSerif-Roman-2e"/>
       <use x="155.59996" xlink:href="#CMUSerif-Roman-35"/>
      </g>
     </g>
    </g>
    <g id="xtick_2">
     <g id="line2d_2">
      <g>
       <use style="stroke:#000000;stroke-width:0.8;" x="100.501513" xlink:href="#m5936de19af" y="88.74"/>
      </g>
     </g>
     <g id="text_2">
      <!-- 0.0 -->
      <g transform="translate(93.472685 103.374687)scale(0.11 -0.11)">
       <defs>
        <path d="M 250 2048 
Q 250 2989 486 3501 
Q 819 4262 1600 4262 
Q 1766 4262 1939 4217 
Q 2112 4173 2333 4000 
Q 2554 3827 2688 3546 
Q 2944 3002 2944 2048 
Q 2944 1114 2707 602 
Q 2362 -141 1594 -141 
Q 1306 -141 1014 6 
Q 723 154 538 506 
Q 250 1037 250 2048 
z
M 781 2125 
Q 781 1158 851 774 
Q 928 358 1142 179 
Q 1357 0 1594 0 
Q 1850 0 2064 192 
Q 2278 384 2342 800 
Q 2413 1210 2413 2125 
Q 2413 3014 2349 3373 
Q 2266 3789 2042 3955 
Q 1818 4122 1594 4122 
Q 1510 4122 1420 4096 
Q 1331 4070 1203 4000 
Q 1075 3930 976 3750 
Q 877 3571 832 3302 
Q 781 2957 781 2125 
z
" id="CMUSerif-Roman-30" transform="scale(0.015625)"/>
       </defs>
       <use xlink:href="#CMUSerif-Roman-30"/>
       <use x="49.999985" xlink:href="#CMUSerif-Roman-2e"/>
       <use x="77.799973" xlink:href="#CMUSerif-Roman-30"/>
      </g>
     </g>
    </g>
    <g id="xtick_3">
     <g id="line2d_3">
      <g>
       <use style="stroke:#000000;stroke-width:0.8;" x="146.925466" xlink:href="#m5936de19af" y="88.74"/>
      </g>
     </g>
     <g id="text_3">
      <!-- 2.5 -->
      <g transform="translate(139.896638 103.374687)scale(0.11 -0.11)">
       <use xlink:href="#CMUSerif-Roman-32"/>
       <use x="49.999985" xlink:href="#CMUSerif-Roman-2e"/>
       <use x="77.799973" xlink:href="#CMUSerif-Roman-35"/>
      </g>
     </g>
    </g>
    <g id="text_4">
     <!-- F1 -->
     <g transform="translate(91.490859 117.144063)scale(0.11 -0.11)">
      <defs>
       <path d="M 211 0 
L 211 198 
L 365 198 
Q 710 198 790 256 
Q 870 314 870 499 
L 870 3853 
Q 870 4038 790 4096 
Q 710 4154 365 4154 
L 211 4154 
L 211 4352 
L 3725 4352 
L 3904 2912 
L 3744 2912 
Q 3699 3277 3641 3485 
Q 3584 3693 3453 3859 
Q 3322 4026 3101 4090 
Q 2880 4154 2522 4154 
L 1754 4154 
Q 1536 4154 1488 4109 
Q 1440 4064 1440 3898 
L 1440 2278 
L 1990 2278 
Q 2426 2278 2547 2435 
Q 2669 2592 2669 3027 
L 2829 3027 
L 2829 1331 
L 2669 1331 
Q 2669 1773 2547 1926 
Q 2426 2080 1990 2080 
L 1440 2080 
L 1440 506 
Q 1440 371 1462 320 
Q 1485 269 1619 233 
Q 1754 198 2048 198 
L 2259 198 
L 2259 0 
Q 2029 19 1184 19 
Q 435 19 211 0 
z
" id="CMUSerif-Roman-46" transform="scale(0.015625)"/>
       <path d="M 570 3654 
L 570 3853 
Q 1338 3853 1734 4262 
Q 1843 4262 1862 4236 
Q 1882 4211 1882 4096 
L 1882 506 
Q 1882 314 1974 256 
Q 2067 198 2477 198 
L 2682 198 
L 2682 0 
Q 2458 19 1645 19 
Q 832 19 608 0 
L 608 198 
L 813 198 
Q 1216 198 1312 256 
Q 1408 314 1408 506 
L 1408 3821 
Q 1075 3654 570 3654 
z
" id="CMUSerif-Roman-31" transform="scale(0.015625)"/>
      </defs>
      <use xlink:href="#CMUSerif-Roman-46"/>
      <use x="65.199997" xlink:href="#CMUSerif-Roman-31"/>
     </g>
    </g>
   </g>
   <g id="matplotlib.axis_2">
    <g id="ytick_1">
     <g id="line2d_4">
      <defs>
       <path d="M 0 0 
L -3.5 0 
" id="m9076dedcec" style="stroke:#000000;stroke-width:0.8;"/>
      </defs>
      <g>
       <use style="stroke:#000000;stroke-width:0.8;" x="42.027031" xlink:href="#m9076dedcec" y="78.45794"/>
      </g>
     </g>
     <g id="text_5">
      <!-- −2 -->
      <g transform="translate(20.969375 82.275284)scale(0.11 -0.11)">
       <use xlink:href="#CMUSerif-Roman-2212"/>
       <use x="77.799988" xlink:href="#CMUSerif-Roman-32"/>
      </g>
     </g>
    </g>
    <g id="ytick_2">
     <g id="line2d_5">
      <g>
       <use style="stroke:#000000;stroke-width:0.8;" x="42.027031" xlink:href="#m9076dedcec" y="48.381864"/>
      </g>
     </g>
     <g id="text_6">
      <!-- 0 -->
      <g transform="translate(29.527031 52.199208)scale(0.11 -0.11)">
       <use xlink:href="#CMUSerif-Roman-30"/>
      </g>
     </g>
    </g>
    <g id="ytick_3">
     <g id="line2d_6">
      <g>
       <use style="stroke:#000000;stroke-width:0.8;" x="42.027031" xlink:href="#m9076dedcec" y="18.305788"/>
      </g>
     </g>
     <g id="text_7">
      <!-- 2 -->
      <g transform="translate(29.527031 22.123131)scale(0.11 -0.11)">
       <use xlink:href="#CMUSerif-Roman-32"/>
      </g>
     </g>
    </g>
    <g id="text_8">
     <!-- F2 -->
     <g transform="translate(14.834687 54.306172)rotate(-90)scale(0.11 -0.11)">
      <use xlink:href="#CMUSerif-Roman-46"/>
      <use x="65.199997" xlink:href="#CMUSerif-Roman-32"/>
     </g>
    </g>
   </g>
   <g id="patch_3">
    <path d="M 42.027031 88.74 
L 42.027031 7.2 
" style="fill:none;stroke:#000000;stroke-linecap:square;stroke-linejoin:miter;stroke-width:0.8;"/>
   </g>
   <g id="patch_4">
    <path d="M 42.027031 88.74 
L 153.627031 88.74 
" style="fill:none;stroke:#000000;stroke-linecap:square;stroke-linejoin:miter;stroke-width:0.8;"/>
   </g>
   <g id="legend_1">
    <g id="line2d_7"/>
    <g id="line2d_8">
     <defs>
      <path d="M 0 2.5 
C 0.663008 2.5 1.29895 2.236584 1.767767 1.767767 
C 2.236584 1.29895 2.5 0.663008 2.5 0 
C 2.5 -0.663008 2.236584 -1.29895 1.767767 -1.767767 
C 1.29895 -2.236584 0.663008 -2.5 0 -2.5 
C -0.663008 -2.5 -1.29895 -2.236584 -1.767767 -1.767767 
C -2.236584 -1.29895 -2.5 -0.663008 -2.5 0 
C -2.5 0.663008 -2.236584 1.29895 -1.767767 1.767767 
C -1.29895 2.236584 -0.663008 2.5 0 2.5 
z
" id="m684badecbb"/>
     </defs>
     <g>
      <use style="fill:#3880d9;fill-opacity:0.6;" x="163.367031" xlink:href="#m684badecbb" y="31.567969"/>
     </g>
    </g>
    <g id="text_9">
     <!-- control -->
     <g transform="translate(183.167031 35.417969)scale(0.11 -0.11)">
      <defs>
       <path d="M 624 352 
Q 218 774 218 1382 
Q 218 1990 618 2428 
Q 1018 2867 1606 2867 
Q 1997 2867 2291 2681 
Q 2586 2496 2586 2182 
Q 2586 2042 2502 1962 
Q 2419 1882 2291 1882 
Q 2157 1882 2077 1965 
Q 1997 2048 1997 2176 
Q 1997 2234 2016 2288 
Q 2035 2342 2105 2403 
Q 2176 2464 2298 2470 
Q 2067 2707 1613 2707 
Q 1286 2707 1017 2400 
Q 749 2093 749 1395 
Q 749 1030 838 761 
Q 928 493 1075 355 
Q 1222 218 1366 154 
Q 1510 90 1651 90 
Q 2278 90 2490 762 
Q 2509 826 2573 826 
Q 2656 826 2656 762 
Q 2656 730 2630 650 
Q 2605 570 2528 442 
Q 2451 314 2339 202 
Q 2227 90 2032 10 
Q 1837 -70 1594 -70 
Q 1030 -70 624 352 
z
" id="CMUSerif-Roman-63" transform="scale(0.015625)"/>
       <path d="M 601 346 
Q 179 762 179 1370 
Q 179 1978 592 2422 
Q 1005 2867 1600 2867 
Q 2182 2867 2598 2425 
Q 3014 1984 3014 1370 
Q 3014 768 2595 349 
Q 2176 -70 1594 -70 
Q 1024 -70 601 346 
z
M 710 1421 
Q 710 800 870 518 
Q 1120 90 1600 90 
Q 1837 90 2035 218 
Q 2234 346 2342 563 
Q 2483 845 2483 1421 
Q 2483 2035 2317 2310 
Q 2067 2726 1594 2726 
Q 1389 2726 1187 2617 
Q 986 2509 864 2298 
Q 710 2016 710 1421 
z
" id="CMUSerif-Roman-6f" transform="scale(0.015625)"/>
       <path d="M 205 0 
L 205 198 
Q 544 198 624 240 
Q 704 282 704 486 
L 704 2202 
Q 704 2438 621 2499 
Q 538 2560 205 2560 
L 205 2758 
L 1107 2829 
L 1107 2157 
Q 1408 2829 2054 2829 
Q 2534 2829 2726 2592 
Q 2867 2432 2896 2253 
Q 2925 2074 2925 1613 
L 2925 390 
Q 2931 256 3033 227 
Q 3136 198 3424 198 
L 3424 0 
Q 2771 19 2707 19 
Q 2656 19 1984 0 
L 1984 198 
Q 2323 198 2403 240 
Q 2483 282 2483 486 
L 2483 1978 
Q 2483 2304 2384 2496 
Q 2285 2688 2010 2688 
Q 1677 2688 1411 2409 
Q 1146 2131 1146 1664 
L 1146 486 
Q 1146 282 1226 240 
Q 1306 198 1645 198 
L 1645 0 
Q 992 19 928 19 
Q 877 19 205 0 
z
" id="CMUSerif-Roman-6e" transform="scale(0.015625)"/>
       <path d="M 122 2560 
L 122 2701 
Q 416 2714 611 2922 
Q 806 3130 873 3386 
Q 941 3642 947 3936 
L 1107 3936 
L 1107 2758 
L 2022 2758 
L 2022 2560 
L 1107 2560 
L 1107 781 
Q 1107 90 1536 90 
Q 1722 90 1843 278 
Q 1965 467 1965 806 
L 1965 1158 
L 2125 1158 
L 2125 794 
Q 2125 448 1965 189 
Q 1805 -70 1491 -70 
Q 1376 -70 1261 -41 
Q 1146 -13 998 64 
Q 851 141 758 329 
Q 666 518 666 794 
L 666 2560 
L 122 2560 
z
" id="CMUSerif-Roman-74" transform="scale(0.015625)"/>
       <path d="M 179 0 
L 179 198 
Q 518 198 598 240 
Q 678 282 678 486 
L 678 2202 
Q 678 2438 595 2499 
Q 512 2560 179 2560 
L 179 2758 
L 1069 2829 
L 1069 2125 
Q 1158 2400 1350 2614 
Q 1542 2829 1856 2829 
Q 2061 2829 2195 2713 
Q 2330 2598 2330 2438 
Q 2330 2298 2243 2227 
Q 2157 2157 2054 2157 
Q 1939 2157 1859 2230 
Q 1779 2304 1779 2432 
Q 1779 2509 1814 2569 
Q 1850 2630 1878 2652 
Q 1907 2675 1926 2682 
Q 1914 2688 1856 2688 
Q 1504 2688 1302 2336 
Q 1101 1984 1101 1485 
L 1101 499 
Q 1101 314 1177 256 
Q 1254 198 1587 198 
L 1722 198 
L 1722 0 
Q 1466 19 909 19 
Q 832 19 710 16 
Q 589 13 429 6 
Q 269 0 179 0 
z
" id="CMUSerif-Roman-72" transform="scale(0.015625)"/>
       <path d="M 211 0 
L 211 198 
Q 550 198 630 240 
Q 710 282 710 486 
L 710 3814 
Q 710 4051 627 4112 
Q 544 4173 211 4173 
L 211 4371 
L 1133 4442 
L 1133 486 
Q 1133 282 1213 240 
Q 1293 198 1632 198 
L 1632 0 
Q 1555 0 1392 6 
Q 1229 13 1110 16 
Q 992 19 922 19 
Q 845 19 211 0 
z
" id="CMUSerif-Roman-6c" transform="scale(0.015625)"/>
      </defs>
      <use xlink:href="#CMUSerif-Roman-63"/>
      <use x="44.399994" xlink:href="#CMUSerif-Roman-6f"/>
      <use x="94.399979" xlink:href="#CMUSerif-Roman-6e"/>
      <use x="149.899963" xlink:href="#CMUSerif-Roman-74"/>
      <use x="188.699951" xlink:href="#CMUSerif-Roman-72"/>
      <use x="227.799942" xlink:href="#CMUSerif-Roman-6f"/>
      <use x="277.799927" xlink:href="#CMUSerif-Roman-6c"/>
     </g>
    </g>
    <g id="line2d_9"/>
    <g id="line2d_10">
     <defs>
      <path d="M 0 2.5 
C 0.663008 2.5 1.29895 2.236584 1.767767 1.767767 
C 2.236584 1.29895 2.5 0.663008 2.5 0 
C 2.5 -0.663008 2.236584 -1.29895 1.767767 -1.767767 
C 1.29895 -2.236584 0.663008 -2.5 0 -2.5 
C -0.663008 -2.5 -1.29895 -2.236584 -1.767767 -1.767767 
C -2.236584 -1.29895 -2.5 -0.663008 -2.5 0 
C -2.5 0.663008 -2.236584 1.29895 -1.767767 1.767767 
C -1.29895 2.236584 -0.663008 2.5 0 2.5 
z
" id="mc90b0df859"/>
     </defs>
     <g>
      <use style="fill:#910040;fill-opacity:0.6;" x="163.367031" xlink:href="#mc90b0df859" y="46.902656"/>
     </g>
    </g>
    <g id="text_10">
     <!-- affective -->
     <g transform="translate(183.167031 50.752656)scale(0.11 -0.11)">
      <defs>
       <path d="M 269 608 
Q 269 1152 909 1440 
Q 1293 1626 2086 1670 
L 2086 1907 
Q 2086 2304 1878 2515 
Q 1670 2726 1408 2726 
Q 941 2726 717 2432 
Q 909 2426 976 2330 
Q 1043 2234 1043 2138 
Q 1043 2010 963 1926 
Q 883 1843 749 1843 
Q 621 1843 537 1923 
Q 454 2003 454 2144 
Q 454 2458 736 2662 
Q 1018 2867 1421 2867 
Q 1946 2867 2298 2515 
Q 2406 2406 2460 2265 
Q 2515 2125 2521 2032 
Q 2528 1939 2528 1760 
L 2528 480 
Q 2528 442 2541 381 
Q 2554 320 2611 240 
Q 2669 160 2765 160 
Q 2995 160 2995 570 
L 2995 928 
L 3155 928 
L 3155 570 
Q 3155 230 2976 96 
Q 2797 -38 2630 -38 
Q 2419 -38 2284 118 
Q 2150 275 2131 486 
Q 2035 243 1814 86 
Q 1594 -70 1293 -70 
Q 1062 -70 844 -12 
Q 627 45 448 205 
Q 269 365 269 608 
z
M 762 614 
Q 762 378 931 224 
Q 1101 70 1338 70 
Q 1606 70 1846 278 
Q 2086 486 2086 896 
L 2086 1536 
Q 1376 1510 1069 1228 
Q 762 947 762 614 
z
" id="CMUSerif-Roman-61" transform="scale(0.015625)"/>
       <path d="M 211 2560 
L 211 2758 
L 717 2758 
L 717 3494 
Q 717 3968 1024 4240 
Q 1331 4512 1709 4512 
Q 1958 4512 2121 4377 
Q 2285 4243 2285 4064 
Q 2285 3942 2211 3862 
Q 2138 3782 2003 3782 
Q 1875 3782 1801 3862 
Q 1728 3942 1728 4058 
Q 1728 4262 1920 4326 
Q 1824 4371 1709 4371 
Q 1478 4371 1299 4134 
Q 1120 3898 1120 3501 
L 1120 2758 
L 1869 2758 
L 1869 2560 
L 1139 2560 
L 1139 499 
Q 1139 314 1216 256 
Q 1293 198 1626 198 
L 1760 198 
L 1760 0 
Q 1504 19 947 19 
Q 870 19 748 16 
Q 627 13 467 6 
Q 307 0 218 0 
L 218 198 
Q 557 198 637 240 
Q 717 282 717 486 
L 717 2560 
L 211 2560 
z
" id="CMUSerif-Roman-66" transform="scale(0.015625)"/>
       <path d="M 179 1408 
Q 179 2010 566 2438 
Q 954 2867 1510 2867 
Q 2074 2867 2365 2502 
Q 2656 2138 2656 1613 
Q 2656 1517 2630 1497 
Q 2605 1478 2496 1478 
L 710 1478 
Q 710 826 902 518 
Q 1171 90 1626 90 
Q 1690 90 1763 102 
Q 1837 115 1990 169 
Q 2144 224 2278 371 
Q 2413 518 2490 749 
Q 2509 838 2573 838 
Q 2656 838 2656 762 
Q 2656 704 2595 579 
Q 2534 454 2419 304 
Q 2304 154 2080 42 
Q 1856 -70 1587 -70 
Q 1024 -70 601 355 
Q 179 781 179 1408 
z
M 717 1613 
L 2234 1613 
Q 2234 1747 2211 1897 
Q 2189 2048 2121 2256 
Q 2054 2464 1897 2595 
Q 1741 2726 1510 2726 
Q 1408 2726 1296 2681 
Q 1184 2637 1049 2531 
Q 915 2426 822 2186 
Q 730 1946 717 1613 
z
" id="CMUSerif-Roman-65" transform="scale(0.015625)"/>
       <path d="M 211 0 
L 211 198 
Q 550 198 630 240 
Q 710 282 710 486 
L 710 2208 
Q 710 2445 630 2502 
Q 550 2560 237 2560 
L 237 2758 
L 1133 2829 
L 1133 480 
Q 1133 288 1200 243 
Q 1267 198 1581 198 
L 1581 0 
Q 928 19 915 19 
Q 826 19 211 0 
z
M 480 3942 
Q 480 4070 579 4176 
Q 678 4282 819 4282 
Q 960 4282 1059 4186 
Q 1158 4090 1158 3942 
Q 1158 3795 1059 3699 
Q 960 3603 819 3603 
Q 672 3603 576 3705 
Q 480 3808 480 3942 
z
" id="CMUSerif-Roman-69" transform="scale(0.015625)"/>
       <path d="M 122 2560 
L 122 2758 
Q 410 2739 742 2739 
Q 864 2739 1440 2758 
L 1440 2560 
Q 1075 2560 1075 2394 
Q 1075 2368 1114 2285 
L 1830 499 
L 2483 2131 
Q 2522 2240 2522 2285 
Q 2522 2394 2448 2474 
Q 2374 2554 2214 2560 
L 2214 2758 
Q 2541 2739 2771 2739 
Q 3034 2739 3251 2758 
L 3251 2560 
Q 3059 2560 2924 2473 
Q 2790 2387 2748 2313 
Q 2707 2240 2662 2131 
L 1824 51 
Q 1773 -70 1690 -70 
Q 1632 -70 1609 -48 
Q 1587 -26 1555 51 
L 634 2323 
Q 570 2483 490 2521 
Q 410 2560 122 2560 
z
" id="CMUSerif-Roman-76" transform="scale(0.015625)"/>
      </defs>
      <use xlink:href="#CMUSerif-Roman-61"/>
      <use x="49.999985" xlink:href="#CMUSerif-Roman-66"/>
      <use x="80.499969" xlink:href="#CMUSerif-Roman-66"/>
      <use x="110.999954" xlink:href="#CMUSerif-Roman-65"/>
      <use x="155.399948" xlink:href="#CMUSerif-Roman-63"/>
      <use x="199.799942" xlink:href="#CMUSerif-Roman-74"/>
      <use x="238.59993" xlink:href="#CMUSerif-Roman-69"/>
      <use x="266.299927" xlink:href="#CMUSerif-Roman-76"/>
      <use x="318.999924" xlink:href="#CMUSerif-Roman-65"/>
     </g>
    </g>
    <g id="line2d_11"/>
    <g id="line2d_12">
     <defs>
      <path d="M 0 2.5 
C 0.663008 2.5 1.29895 2.236584 1.767767 1.767767 
C 2.236584 1.29895 2.5 0.663008 2.5 0 
C 2.5 -0.663008 2.236584 -1.29895 1.767767 -1.767767 
C 1.29895 -2.236584 0.663008 -2.5 0 -2.5 
C -0.663008 -2.5 -1.29895 -2.236584 -1.767767 -1.767767 
C -2.236584 -1.29895 -2.5 -0.663008 -2.5 0 
C -2.5 0.663008 -2.236584 1.29895 -1.767767 1.767767 
C -1.29895 2.236584 -0.663008 2.5 0 2.5 
z
" id="m7c9fec5281"/>
     </defs>
     <g>
      <use style="fill:#ff603d;fill-opacity:0.6;" x="163.367031" xlink:href="#m7c9fec5281" y="62.237344"/>
     </g>
    </g>
    <g id="text_11">
     <!-- non-affective -->
     <g transform="translate(183.167031 66.087344)scale(0.11 -0.11)">
      <defs>
       <path d="M 64 1190 
L 64 1568 
L 1766 1568 
L 1766 1190 
L 64 1190 
z
" id="CMUSerif-Roman-2d" transform="scale(0.015625)"/>
      </defs>
      <use xlink:href="#CMUSerif-Roman-6e"/>
      <use x="55.499985" xlink:href="#CMUSerif-Roman-6f"/>
      <use x="105.499969" xlink:href="#CMUSerif-Roman-6e"/>
      <use x="160.999954" xlink:href="#CMUSerif-Roman-2d"/>
      <use x="194.299942" xlink:href="#CMUSerif-Roman-61"/>
      <use x="244.299927" xlink:href="#CMUSerif-Roman-66"/>
      <use x="274.799911" xlink:href="#CMUSerif-Roman-66"/>
      <use x="305.299896" xlink:href="#CMUSerif-Roman-65"/>
      <use x="349.69989" xlink:href="#CMUSerif-Roman-63"/>
      <use x="394.099884" xlink:href="#CMUSerif-Roman-74"/>
      <use x="432.899872" xlink:href="#CMUSerif-Roman-69"/>
      <use x="460.599869" xlink:href="#CMUSerif-Roman-76"/>
      <use x="513.299866" xlink:href="#CMUSerif-Roman-65"/>
     </g>
    </g>
   </g>
  </g>
 </g>
 <defs>
  <clipPath id="p711cb966f2">
   <rect height="81.54" width="111.6" x="42.027031" y="7.2"/>
  </clipPath>
 </defs>
</svg>
