<?xml version="1.0" encoding="UTF-8" standalone="no"?>
<svg
   xmlns:dc="http://purl.org/dc/elements/1.1/"
   xmlns:cc="http://creativecommons.org/ns#"
   xmlns:rdf="http://www.w3.org/1999/02/22-rdf-syntax-ns#"
   xmlns:svg="http://www.w3.org/2000/svg"
   xmlns="http://www.w3.org/2000/svg"
   xmlns:xlink="http://www.w3.org/1999/xlink"
   xmlns:sodipodi="http://sodipodi.sourceforge.net/DTD/sodipodi-0.dtd"
   xmlns:inkscape="http://www.inkscape.org/namespaces/inkscape"
   height="38.424374pt"
   version="1.1"
   viewBox="0 0 62.845993 38.424373"
   width="62.845993pt"
   id="svg839"
   sodipodi:docname="clu.svg"
   inkscape:version="0.92.5 (2060ec1f9f, 2020-04-08)">
  <sodipodi:namedview
     pagecolor="#ffffff"
     bordercolor="#666666"
     borderopacity="1"
     objecttolerance="10"
     gridtolerance="10"
     guidetolerance="10"
     inkscape:pageopacity="0"
     inkscape:pageshadow="2"
     inkscape:window-width="1920"
     inkscape:window-height="1018"
     id="namedview841"
     showgrid="false"
     inkscape:zoom="1.0958484"
     inkscape:cx="-159.95166"
     inkscape:cy="-28.8024"
     inkscape:window-x="0"
     inkscape:window-y="34"
     inkscape:window-maximized="1"
     inkscape:current-layer="svg839" />
  <metadata
     id="metadata2">
    <rdf:RDF>
      <cc:Work>
        <dc:type
           rdf:resource="http://purl.org/dc/dcmitype/StillImage" />
        <dc:date>2023-02-21T17:59:14.107306</dc:date>
        <dc:format>image/svg+xml</dc:format>
        <dc:creator>
          <cc:Agent>
            <dc:title>Matplotlib v3.4.3, https://matplotlib.org/</dc:title>
          </cc:Agent>
        </dc:creator>
        <dc:title />
      </cc:Work>
    </rdf:RDF>
  </metadata>
  <defs
     id="defs6"
     style="stroke-linecap:butt;stroke-linejoin:round">
    <style
       type="text/css"
       id="style4">*{stroke-linecap:butt;stroke-linejoin:round;}</style>
    <style
       id="style4-7"
       type="text/css">*{stroke-linecap:butt;stroke-linejoin:round;}</style>
    <path
       style="stroke:#000000;stroke-width:0.8;"
       id="mb90d6cc15a"
       d="M 0 0  L 0 3.5  " />
    <path
       transform="scale(0.015625)"
       id="CMUSerif-Roman-30"
       d="M 250 2048  Q 250 2989 486 3501  Q 819 4262 1600 4262  Q 1766 4262 1939 4217  Q 2112 4173 2333 4000  Q 2554 3827 2688 3546  Q 2944 3002 2944 2048  Q 2944 1114 2707 602  Q 2362 -141 1594 -141  Q 1306 -141 1014 6  Q 723 154 538 506  Q 250 1037 250 2048  z M 781 2125  Q 781 1158 851 774  Q 928 358 1142 179  Q 1357 0 1594 0  Q 1850 0 2064 192  Q 2278 384 2342 800  Q 2413 1210 2413 2125  Q 2413 3014 2349 3373  Q 2266 3789 2042 3955  Q 1818 4122 1594 4122  Q 1510 4122 1420 4096  Q 1331 4070 1203 4000  Q 1075 3930 976 3750  Q 877 3571 832 3302  Q 781 2957 781 2125  z " />
    <path
       transform="scale(0.015625)"
       id="CMUSerif-Roman-31"
       d="M 570 3654  L 570 3853  Q 1338 3853 1734 4262  Q 1843 4262 1862 4236  Q 1882 4211 1882 4096  L 1882 506  Q 1882 314 1974 256  Q 2067 198 2477 198  L 2682 198  L 2682 0  Q 2458 19 1645 19  Q 832 19 608 0  L 608 198  L 813 198  Q 1216 198 1312 256  Q 1408 314 1408 506  L 1408 3821  Q 1075 3654 570 3654  z " />
    <path
       transform="scale(0.015625)"
       id="CMUSerif-Roman-32"
       d="M 320 0  Q 320 115 329 150  Q 339 186 390 237  L 1619 1606  Q 2291 2362 2291 3021  Q 2291 3450 2067 3757  Q 1843 4064 1434 4064  Q 1152 4064 915 3891  Q 678 3718 570 3411  Q 589 3418 653 3418  Q 813 3418 902 3318  Q 992 3219 992 3085  Q 992 2912 880 2829  Q 768 2746 659 2746  Q 614 2746 556 2755  Q 499 2765 409 2854  Q 320 2944 320 3104  Q 320 3552 659 3907  Q 998 4262 1517 4262  Q 2106 4262 2490 3913  Q 2874 3565 2874 3021  Q 2874 2829 2816 2656  Q 2758 2483 2681 2348  Q 2605 2214 2400 2000  Q 2195 1786 2028 1632  Q 1862 1478 1491 1152  L 813 493  L 1965 493  Q 2528 493 2573 544  Q 2637 634 2714 1114  L 2874 1114  L 2694 0  L 320 0  z " />
    <path
       transform="scale(0.015625)"
       id="CMUSerif-Roman-43"
       d="M 358 2189  Q 358 3155 1017 3833  Q 1677 4512 2586 4512  Q 2867 4512 3116 4409  Q 3366 4307 3481 4217  Q 3597 4128 3763 3962  L 4083 4435  Q 4134 4512 4185 4512  Q 4237 4512 4246 4483  Q 4256 4454 4256 4358  L 4256 2842  Q 4256 2739 4243 2713  Q 4230 2688 4154 2688  Q 4090 2688 4077 2707  Q 4064 2726 4051 2797  Q 3955 3488 3571 3901  Q 3187 4314 2656 4314  Q 2502 4314 2332 4278  Q 2163 4243 1916 4112  Q 1670 3981 1481 3763  Q 1293 3546 1155 3136  Q 1018 2726 1018 2182  Q 1018 1645 1155 1232  Q 1293 819 1481 604  Q 1670 390 1916 259  Q 2163 128 2336 93  Q 2509 58 2662 58  Q 3213 58 3635 448  Q 4058 838 4096 1498  Q 4102 1530 4102 1542  Q 4102 1555 4108 1571  Q 4115 1587 4131 1593  Q 4147 1600 4173 1600  Q 4256 1600 4256 1491  Q 4256 883 3789 371  Q 3322 -141 2586 -141  Q 1677 -141 1017 534  Q 358 1210 358 2189  z " />
    <path
       transform="scale(0.015625)"
       id="CMUSerif-Roman-6c-5"
       d="M 211 0  L 211 198  Q 550 198 630 240  Q 710 282 710 486  L 710 3814  Q 710 4051 627 4112  Q 544 4173 211 4173  L 211 4371  L 1133 4442  L 1133 486  Q 1133 282 1213 240  Q 1293 198 1632 198  L 1632 0  Q 1555 0 1392 6  Q 1229 13 1110 16  Q 992 19 922 19  Q 845 19 211 0  z " />
    <path
       transform="scale(0.015625)"
       id="CMUSerif-Roman-75-3"
       d="M 205 2560  L 205 2758  L 1146 2829  L 1146 704  Q 1146 550 1158 460  Q 1171 371 1222 268  Q 1274 166 1395 118  Q 1517 70 1709 70  Q 2054 70 2268 355  Q 2483 640 2483 1062  L 2483 2202  Q 2483 2438 2400 2499  Q 2317 2560 1984 2560  L 1984 2758  L 2925 2829  L 2925 557  Q 2925 320 3008 259  Q 3091 198 3424 198  L 3424 0  L 2502 -70  L 2502 506  Q 2234 -70 1677 -70  Q 1395 -70 1203 0  Q 1011 70 915 160  Q 819 250 768 422  Q 717 595 710 700  Q 704 806 704 1011  L 704 1971  Q 704 2406 640 2483  Q 576 2560 205 2560  z " />
    <path
       transform="scale(0.015625)"
       id="CMUSerif-Roman-73-5"
       d="M 211 83  L 211 928  Q 211 998 214 1024  Q 218 1050 237 1069  Q 256 1088 294 1088  Q 339 1088 355 1069  Q 371 1050 384 979  Q 480 538 688 304  Q 896 70 1274 70  Q 1632 70 1814 230  Q 1997 390 1997 653  Q 1997 1120 1331 1242  Q 947 1318 787 1369  Q 627 1421 486 1536  Q 211 1760 211 2080  Q 211 2400 454 2633  Q 698 2867 1235 2867  Q 1594 2867 1837 2688  Q 1907 2746 1946 2790  Q 2029 2867 2074 2867  Q 2125 2867 2134 2835  Q 2144 2803 2144 2714  L 2144 2067  Q 2144 1997 2141 1971  Q 2138 1946 2118 1930  Q 2099 1914 2061 1914  Q 1990 1914 1984 1971  Q 1933 2746 1235 2746  Q 858 2746 688 2602  Q 518 2458 518 2259  Q 518 2150 569 2067  Q 621 1984 688 1936  Q 755 1888 880 1843  Q 1005 1798 1081 1782  Q 1158 1766 1306 1734  Q 1818 1638 2035 1427  Q 2304 1158 2304 819  Q 2304 442 2048 186  Q 1792 -70 1274 -70  Q 858 -70 570 205  Q 531 166 502 134  Q 474 102 464 89  Q 454 77 451 70  Q 448 64 442 58  Q 314 -70 282 -70  Q 230 -70 220 -38  Q 211 -6 211 83  z " />
    <path
       transform="scale(0.015625)"
       id="CMUSerif-Roman-74-6"
       d="M 122 2560  L 122 2701  Q 416 2714 611 2922  Q 806 3130 873 3386  Q 941 3642 947 3936  L 1107 3936  L 1107 2758  L 2022 2758  L 2022 2560  L 1107 2560  L 1107 781  Q 1107 90 1536 90  Q 1722 90 1843 278  Q 1965 467 1965 806  L 1965 1158  L 2125 1158  L 2125 794  Q 2125 448 1965 189  Q 1805 -70 1491 -70  Q 1376 -70 1261 -41  Q 1146 -13 998 64  Q 851 141 758 329  Q 666 518 666 794  L 666 2560  L 122 2560  z " />
    <path
       transform="scale(0.015625)"
       id="CMUSerif-Roman-65-2"
       d="M 179 1408  Q 179 2010 566 2438  Q 954 2867 1510 2867  Q 2074 2867 2365 2502  Q 2656 2138 2656 1613  Q 2656 1517 2630 1497  Q 2605 1478 2496 1478  L 710 1478  Q 710 826 902 518  Q 1171 90 1626 90  Q 1690 90 1763 102  Q 1837 115 1990 169  Q 2144 224 2278 371  Q 2413 518 2490 749  Q 2509 838 2573 838  Q 2656 838 2656 762  Q 2656 704 2595 579  Q 2534 454 2419 304  Q 2304 154 2080 42  Q 1856 -70 1587 -70  Q 1024 -70 601 355  Q 179 781 179 1408  z M 717 1613  L 2234 1613  Q 2234 1747 2211 1897  Q 2189 2048 2121 2256  Q 2054 2464 1897 2595  Q 1741 2726 1510 2726  Q 1408 2726 1296 2681  Q 1184 2637 1049 2531  Q 915 2426 822 2186  Q 730 1946 717 1613  z " />
    <path
       transform="scale(0.015625)"
       id="CMUSerif-Roman-72-9"
       d="M 179 0  L 179 198  Q 518 198 598 240  Q 678 282 678 486  L 678 2202  Q 678 2438 595 2499  Q 512 2560 179 2560  L 179 2758  L 1069 2829  L 1069 2125  Q 1158 2400 1350 2614  Q 1542 2829 1856 2829  Q 2061 2829 2195 2713  Q 2330 2598 2330 2438  Q 2330 2298 2243 2227  Q 2157 2157 2054 2157  Q 1939 2157 1859 2230  Q 1779 2304 1779 2432  Q 1779 2509 1814 2569  Q 1850 2630 1878 2652  Q 1907 2675 1926 2682  Q 1914 2688 1856 2688  Q 1504 2688 1302 2336  Q 1101 1984 1101 1485  L 1101 499  Q 1101 314 1177 256  Q 1254 198 1587 198  L 1722 198  L 1722 0  Q 1466 19 909 19  Q 832 19 710 16  Q 589 13 429 6  Q 269 0 179 0  z " />
    <path
       style="stroke:#000000;stroke-width:0.8;"
       id="m56d908cb7a"
       d="M 0 0  L -3.5 0  " />
    <path
       transform="scale(0.015625)"
       id="CMUSerif-Roman-35"
       d="M 320 1030  Q 320 1222 422 1296  Q 525 1370 634 1370  Q 781 1370 867 1277  Q 954 1184 954 1056  Q 954 928 867 835  Q 781 742 634 742  Q 563 742 525 755  Q 608 461 867 249  Q 1126 38 1466 38  Q 1894 38 2150 454  Q 2304 723 2304 1331  Q 2304 1869 2189 2138  Q 2010 2547 1645 2547  Q 1126 2547 819 2099  Q 781 2042 736 2042  Q 672 2042 659 2077  Q 646 2112 646 2208  L 646 4102  Q 646 4256 710 4256  Q 736 4256 787 4237  Q 1190 4058 1638 4058  Q 2099 4058 2509 4243  Q 2541 4262 2560 4262  Q 2624 4262 2624 4192  Q 2624 4166 2573 4092  Q 2522 4019 2413 3923  Q 2304 3827 2163 3737  Q 2022 3648 1817 3587  Q 1613 3526 1389 3526  Q 1120 3526 845 3610  L 845 2362  Q 1178 2688 1658 2688  Q 2170 2688 2522 2275  Q 2874 1862 2874 1286  Q 2874 685 2458 272  Q 2042 -141 1478 -141  Q 966 -141 643 224  Q 320 589 320 1030  z " />
    <path
       transform="scale(0.015625)"
       id="CMUSerif-Roman-50"
       d="M 224 0  L 224 198  L 378 198  Q 723 198 803 256  Q 883 314 883 499  L 883 3872  Q 883 4058 803 4115  Q 723 4173 378 4173  L 224 4173  L 224 4371  L 2483 4371  Q 3130 4371 3562 4016  Q 3994 3661 3994 3181  Q 3994 2707 3555 2364  Q 3117 2022 2534 2022  L 1453 2022  L 1453 499  Q 1453 314 1533 256  Q 1613 198 1958 198  L 2112 198  L 2112 0  Q 1888 19 1165 19  Q 448 19 224 0  z M 1434 2189  L 2317 2189  Q 2605 2189 2813 2269  Q 3021 2349 3117 2448  Q 3213 2547 3267 2707  Q 3322 2867 3328 2956  Q 3334 3046 3334 3181  Q 3334 3322 3328 3411  Q 3322 3501 3267 3661  Q 3213 3821 3117 3920  Q 3021 4019 2813 4096  Q 2605 4173 2317 4173  L 1747 4173  Q 1530 4173 1482 4128  Q 1434 4083 1434 3917  L 1434 2189  z " />
    <path
       transform="scale(0.015625)"
       id="CMUSerif-Roman-41"
       d="M 205 0  L 205 198  Q 774 211 922 627  L 2246 4454  Q 2272 4531 2301 4556  Q 2330 4582 2400 4582  Q 2438 4582 2460 4576  Q 2483 4570 2499 4547  Q 2515 4525 2521 4512  Q 2528 4499 2547 4454  L 3930 454  Q 3981 294 4083 246  Q 4186 198 4474 198  L 4589 198  L 4589 0  Q 4186 19 3750 19  Q 3059 19 2829 0  L 2829 198  Q 3360 198 3360 390  Q 3360 403 3341 480  L 3002 1459  L 1421 1459  L 1126 621  Q 1114 595 1114 525  Q 1114 390 1238 294  Q 1363 198 1594 198  L 1594 0  Q 979 19 858 19  Q 646 19 205 0  z M 1491 1658  L 2931 1658  L 2208 3738  L 1491 1658  z " />
    <path
       transform="scale(0.015625)"
       id="CMUSerif-Roman-4e"
       d="M 211 0  L 211 198  Q 442 198 589 243  Q 736 288 790 374  Q 845 461 857 518  Q 870 576 870 672  L 870 4013  Q 870 4102 848 4124  Q 826 4147 717 4160  Q 525 4173 397 4173  L 211 4173  L 211 4371  L 1299 4371  Q 1389 4371 1414 4358  Q 1440 4346 1485 4288  L 3744 966  L 3744 3699  Q 3744 3795 3731 3852  Q 3718 3910 3664 3996  Q 3610 4083 3462 4128  Q 3315 4173 3085 4173  L 3085 4371  Q 3757 4352 3833 4352  Q 3910 4352 4582 4371  L 4582 4173  Q 4352 4173 4205 4128  Q 4058 4083 4003 3996  Q 3949 3910 3936 3852  Q 3923 3795 3923 3699  L 3923 166  Q 3923 64 3910 32  Q 3898 0 3834 0  Q 3789 0 3725 83  L 1114 3923  Q 1088 3962 1050 4000  L 1050 672  Q 1050 576 1062 518  Q 1075 461 1129 374  Q 1184 288 1331 243  Q 1478 198 1709 198  L 1709 0  Q 1037 19 960 19  Q 883 19 211 0  z " />
    <path
       transform="scale(0.015625)"
       id="CMUSerif-Roman-53"
       d="M 358 13  L 358 1293  Q 358 1363 361 1388  Q 365 1414 384 1433  Q 403 1453 442 1453  Q 512 1453 518 1389  Q 538 755 915 403  Q 1286 58 1926 58  Q 2310 58 2547 333  Q 2784 608 2784 973  Q 2784 1318 2586 1562  Q 2502 1670 2396 1740  Q 2291 1811 2227 1833  Q 2163 1856 2042 1888  Q 1248 2080 1197 2099  Q 819 2227 588 2550  Q 358 2874 358 3270  Q 358 3782 720 4147  Q 1082 4512 1606 4512  Q 1869 4512 2089 4429  Q 2310 4346 2400 4272  Q 2490 4198 2630 4064  L 2854 4429  Q 2906 4512 2950 4512  Q 3002 4512 3011 4483  Q 3021 4454 3021 4358  L 3021 3072  Q 3021 3002 3017 2976  Q 3014 2950 2995 2934  Q 2976 2918 2938 2918  Q 2874 2918 2861 2995  Q 2682 4333 1613 4333  Q 1248 4333 1008 4086  Q 768 3840 768 3494  Q 768 3213 944 2982  Q 1120 2752 1414 2682  L 2234 2483  Q 2643 2387 2918 2025  Q 3194 1664 3194 1190  Q 3194 646 2838 252  Q 2483 -141 1933 -141  Q 1536 -141 1229 -9  Q 922 122 755 307  Q 627 96 544 -26  L 525 -58  Q 474 -141 429 -141  Q 378 -141 368 -109  Q 358 -77 358 13  z " />
    <path
       transform="scale(0.015625)"
       id="CMUSerif-Roman-20-7" />
    <path
       transform="scale(0.015625)"
       id="CMUSerif-Roman-6f"
       d="M 601 346  Q 179 762 179 1370  Q 179 1978 592 2422  Q 1005 2867 1600 2867  Q 2182 2867 2598 2425  Q 3014 1984 3014 1370  Q 3014 768 2595 349  Q 2176 -70 1594 -70  Q 1024 -70 601 346  z M 710 1421  Q 710 800 870 518  Q 1120 90 1600 90  Q 1837 90 2035 218  Q 2234 346 2342 563  Q 2483 845 2483 1421  Q 2483 2035 2317 2310  Q 2067 2726 1594 2726  Q 1389 2726 1187 2617  Q 986 2509 864 2298  Q 710 2016 710 1421  z " />
    <path
       transform="scale(0.015625)"
       id="CMUSerif-Roman-61"
       d="M 269 608  Q 269 1152 909 1440  Q 1293 1626 2086 1670  L 2086 1907  Q 2086 2304 1878 2515  Q 1670 2726 1408 2726  Q 941 2726 717 2432  Q 909 2426 976 2330  Q 1043 2234 1043 2138  Q 1043 2010 963 1926  Q 883 1843 749 1843  Q 621 1843 537 1923  Q 454 2003 454 2144  Q 454 2458 736 2662  Q 1018 2867 1421 2867  Q 1946 2867 2298 2515  Q 2406 2406 2460 2265  Q 2515 2125 2521 2032  Q 2528 1939 2528 1760  L 2528 480  Q 2528 442 2541 381  Q 2554 320 2611 240  Q 2669 160 2765 160  Q 2995 160 2995 570  L 2995 928  L 3155 928  L 3155 570  Q 3155 230 2976 96  Q 2797 -38 2630 -38  Q 2419 -38 2284 118  Q 2150 275 2131 486  Q 2035 243 1814 86  Q 1594 -70 1293 -70  Q 1062 -70 844 -12  Q 627 45 448 205  Q 269 365 269 608  z M 762 614  Q 762 378 931 224  Q 1101 70 1338 70  Q 1606 70 1846 278  Q 2086 486 2086 896  L 2086 1536  Q 1376 1510 1069 1228  Q 762 947 762 614  z " />
    <path
       style="stroke:#2b2b2b;stroke-linejoin:miter;"
       id="m69a456615d"
       d="M -0 3.535534  L 2.12132 0  L -0 -3.535534  L -2.12132 -0  z " />
    <path
       id="C0_0_c9ca2f76e0"
       d="M 0 1.5  C 0.397805 1.5 0.77937 1.341951 1.06066 1.06066  C 1.341951 0.77937 1.5 0.397805 1.5 -0  C 1.5 -0.397805 1.341951 -0.77937 1.06066 -1.06066  C 0.77937 -1.341951 0.397805 -1.5 0 -1.5  C -0.397805 -1.5 -0.77937 -1.341951 -1.06066 -1.06066  C -1.341951 -0.77937 -1.5 -0.397805 -1.5 0  C -1.5 0.397805 -1.341951 0.77937 -1.06066 1.06066  C -0.77937 1.341951 -0.397805 1.5 0 1.5  z " />
    <path
       id="C1_0_85f49b55ba"
       d="M 0 1.5  C 0.397805 1.5 0.77937 1.341951 1.06066 1.06066  C 1.341951 0.77937 1.5 0.397805 1.5 -0  C 1.5 -0.397805 1.341951 -0.77937 1.06066 -1.06066  C 0.77937 -1.341951 0.397805 -1.5 0 -1.5  C -0.397805 -1.5 -0.77937 -1.341951 -1.06066 -1.06066  C -1.341951 -0.77937 -1.5 -0.397805 -1.5 0  C -1.5 0.397805 -1.341951 0.77937 -1.06066 1.06066  C -0.77937 1.341951 -0.397805 1.5 0 1.5  z " />
    <path
       id="C2_0_e49dd63ca7"
       d="M 0 1.5  C 0.397805 1.5 0.77937 1.341951 1.06066 1.06066  C 1.341951 0.77937 1.5 0.397805 1.5 -0  C 1.5 -0.397805 1.341951 -0.77937 1.06066 -1.06066  C 0.77937 -1.341951 0.397805 -1.5 0 -1.5  C -0.397805 -1.5 -0.77937 -1.341951 -1.06066 -1.06066  C -1.341951 -0.77937 -1.5 -0.397805 -1.5 0  C -1.5 0.397805 -1.341951 0.77937 -1.06066 1.06066  C -0.77937 1.341951 -0.397805 1.5 0 1.5  z " />
    <path
       transform="scale(0.015625)"
       id="CMUSerif-Roman-70"
       d="M 179 -1043  Q 518 -1043 598 -1001  Q 678 -960 678 -755  L 678 2240  Q 678 2451 598 2505  Q 518 2560 179 2560  L 179 2758  L 1101 2829  L 1101 2406  Q 1485 2829 1997 2829  Q 2541 2829 2937 2406  Q 3334 1984 3334 1382  Q 3334 774 2912 352  Q 2490 -70 1907 -70  Q 1587 -70 1372 93  Q 1158 256 1120 378  L 1120 320  L 1120 -755  Q 1120 -960 1200 -1001  Q 1280 -1043 1619 -1043  L 1619 -1242  Q 947 -1222 896 -1222  Q 832 -1222 179 -1242  L 179 -1043  z M 1120 730  Q 1120 634 1133 598  Q 1146 563 1210 461  Q 1466 70 1882 70  Q 2246 70 2524 444  Q 2803 819 2803 1382  Q 2803 1920 2550 2294  Q 2298 2669 1946 2669  Q 1696 2669 1478 2534  Q 1261 2400 1120 2157  L 1120 730  z " />
    <path
       transform="scale(0.015625)"
       id="CMUSerif-Roman-69"
       d="M 211 0  L 211 198  Q 550 198 630 240  Q 710 282 710 486  L 710 2208  Q 710 2445 630 2502  Q 550 2560 237 2560  L 237 2758  L 1133 2829  L 1133 480  Q 1133 288 1200 243  Q 1267 198 1581 198  L 1581 0  Q 928 19 915 19  Q 826 19 211 0  z M 480 3942  Q 480 4070 579 4176  Q 678 4282 819 4282  Q 960 4282 1059 4186  Q 1158 4090 1158 3942  Q 1158 3795 1059 3699  Q 960 3603 819 3603  Q 672 3603 576 3705  Q 480 3808 480 3942  z " />
    <path
       transform="scale(0.015625)"
       id="CMUSerif-Roman-76"
       d="M 122 2560  L 122 2758  Q 410 2739 742 2739  Q 864 2739 1440 2758  L 1440 2560  Q 1075 2560 1075 2394  Q 1075 2368 1114 2285  L 1830 499  L 2483 2131  Q 2522 2240 2522 2285  Q 2522 2394 2448 2474  Q 2374 2554 2214 2560  L 2214 2758  Q 2541 2739 2771 2739  Q 3034 2739 3251 2758  L 3251 2560  Q 3059 2560 2924 2473  Q 2790 2387 2748 2313  Q 2707 2240 2662 2131  L 1824 51  Q 1773 -70 1690 -70  Q 1632 -70 1609 -48  Q 1587 -26 1555 51  L 634 2323  Q 570 2483 490 2521  Q 410 2560 122 2560  z " />
    <path
       id="C3_0_6650216e40"
       d="M 0 1.5  C 0.397805 1.5 0.77937 1.341951 1.06066 1.06066  C 1.341951 0.77937 1.5 0.397805 1.5 -0  C 1.5 -0.397805 1.341951 -0.77937 1.06066 -1.06066  C 0.77937 -1.341951 0.397805 -1.5 0 -1.5  C -0.397805 -1.5 -0.77937 -1.341951 -1.06066 -1.06066  C -1.341951 -0.77937 -1.5 -0.397805 -1.5 0  C -1.5 0.397805 -1.341951 0.77937 -1.06066 1.06066  C -0.77937 1.341951 -0.397805 1.5 0 1.5  z " />
    <path
       id="C4_0_d1050062bb"
       d="M 0 1.5  C 0.397805 1.5 0.77937 1.341951 1.06066 1.06066  C 1.341951 0.77937 1.5 0.397805 1.5 -0  C 1.5 -0.397805 1.341951 -0.77937 1.06066 -1.06066  C 0.77937 -1.341951 0.397805 -1.5 0 -1.5  C -0.397805 -1.5 -0.77937 -1.341951 -1.06066 -1.06066  C -1.341951 -0.77937 -1.5 -0.397805 -1.5 0  C -1.5 0.397805 -1.341951 0.77937 -1.06066 1.06066  C -0.77937 1.341951 -0.397805 1.5 0 1.5  z " />
    <path
       id="C5_0_250929710c"
       d="M 0 1.5  C 0.397805 1.5 0.77937 1.341951 1.06066 1.06066  C 1.341951 0.77937 1.5 0.397805 1.5 -0  C 1.5 -0.397805 1.341951 -0.77937 1.06066 -1.06066  C 0.77937 -1.341951 0.397805 -1.5 0 -1.5  C -0.397805 -1.5 -0.77937 -1.341951 -1.06066 -1.06066  C -1.341951 -0.77937 -1.5 -0.397805 -1.5 0  C -1.5 0.397805 -1.341951 0.77937 -1.06066 1.06066  C -0.77937 1.341951 -0.397805 1.5 0 1.5  z " />
    <path
       transform="scale(0.015625)"
       id="CMUSerif-Roman-33"
       d="M 269 864  Q 269 1056 377 1145  Q 486 1235 627 1235  Q 774 1235 880 1139  Q 986 1043 986 877  Q 986 698 861 598  Q 736 499 563 525  Q 717 269 998 153  Q 1280 38 1542 38  Q 1818 38 2042 275  Q 2266 512 2266 1094  Q 2266 1587 2074 1872  Q 1882 2157 1504 2157  L 1222 2157  Q 1126 2157 1097 2166  Q 1069 2176 1069 2227  Q 1069 2291 1165 2304  Q 1261 2304 1414 2323  Q 1786 2336 1984 2656  Q 2163 2957 2163 3386  Q 2163 3776 1977 3939  Q 1792 4102 1549 4102  Q 1325 4102 1078 4009  Q 832 3917 698 3706  Q 1094 3706 1094 3386  Q 1094 3245 1004 3152  Q 915 3059 768 3059  Q 627 3059 534 3148  Q 442 3238 442 3392  Q 442 3757 768 4009  Q 1094 4262 1574 4262  Q 2048 4262 2400 4012  Q 2752 3763 2752 3379  Q 2752 3002 2502 2691  Q 2253 2381 1856 2253  Q 2342 2157 2633 1827  Q 2925 1498 2925 1094  Q 2925 595 2531 227  Q 2138 -141 1562 -141  Q 1030 -141 649 147  Q 269 435 269 864  z " />
    <path
       transform="scale(0.015625)"
       id="CMUSerif-Roman-6e"
       d="M 205 0  L 205 198  Q 544 198 624 240  Q 704 282 704 486  L 704 2202  Q 704 2438 621 2499  Q 538 2560 205 2560  L 205 2758  L 1107 2829  L 1107 2157  Q 1408 2829 2054 2829  Q 2534 2829 2726 2592  Q 2867 2432 2896 2253  Q 2925 2074 2925 1613  L 2925 390  Q 2931 256 3033 227  Q 3136 198 3424 198  L 3424 0  Q 2771 19 2707 19  Q 2656 19 1984 0  L 1984 198  Q 2323 198 2403 240  Q 2483 282 2483 486  L 2483 1978  Q 2483 2304 2384 2496  Q 2285 2688 2010 2688  Q 1677 2688 1411 2409  Q 1146 2131 1146 1664  L 1146 486  Q 1146 282 1226 240  Q 1306 198 1645 198  L 1645 0  Q 992 19 928 19  Q 877 19 205 0  z " />
    <path
       transform="scale(0.015625)"
       id="CMUSerif-Roman-67"
       d="M 179 -506  Q 179 -301 336 -121  Q 493 58 768 134  Q 486 314 486 704  Q 486 1005 685 1235  Q 384 1485 384 1894  Q 384 2272 685 2550  Q 986 2829 1421 2829  Q 1805 2829 2099 2598  Q 2406 2899 2778 2899  Q 2944 2899 3024 2796  Q 3104 2694 3104 2586  Q 3104 2490 3043 2442  Q 2982 2394 2918 2394  Q 2842 2394 2787 2445  Q 2733 2496 2733 2579  Q 2733 2714 2835 2752  Q 2816 2758 2771 2758  Q 2458 2758 2195 2509  Q 2458 2266 2458 1888  Q 2458 1510 2157 1232  Q 1856 954 1421 954  Q 1062 954 787 1152  Q 678 1024 678 851  Q 678 691 774 566  Q 870 442 1018 422  Q 1062 416 1498 416  Q 1754 416 1894 409  Q 2035 403 2236 361  Q 2438 320 2598 237  Q 3014 6 3014 -493  Q 3014 -858 2595 -1088  Q 2176 -1318 1594 -1318  Q 1005 -1318 592 -1084  Q 179 -851 179 -506  z M 512 -506  Q 512 -768 822 -969  Q 1133 -1171 1600 -1171  Q 2061 -1171 2371 -972  Q 2682 -774 2682 -506  Q 2682 -314 2573 -192  Q 2464 -70 2240 -22  Q 2016 26 1859 35  Q 1702 45 1414 45  L 1037 45  Q 819 32 665 -128  Q 512 -288 512 -506  z M 864 1888  Q 864 1101 1421 1101  Q 1702 1101 1875 1357  Q 1978 1530 1978 1894  Q 1978 2682 1421 2682  Q 1139 2682 966 2426  Q 864 2253 864 1888  z " />
    <path
       id="C6_0_951bba7583"
       d="M 0 1.5  C 0.397805 1.5 0.77937 1.341951 1.06066 1.06066  C 1.341951 0.77937 1.5 0.397805 1.5 -0  C 1.5 -0.397805 1.341951 -0.77937 1.06066 -1.06066  C 0.77937 -1.341951 0.397805 -1.5 0 -1.5  C -0.397805 -1.5 -0.77937 -1.341951 -1.06066 -1.06066  C -1.341951 -0.77937 -1.5 -0.397805 -1.5 0  C -1.5 0.397805 -1.341951 0.77937 -1.06066 1.06066  C -0.77937 1.341951 -0.397805 1.5 0 1.5  z " />
    <path
       id="C7_0_048a0eb4ec"
       d="M 0 1.5  C 0.397805 1.5 0.77937 1.341951 1.06066 1.06066  C 1.341951 0.77937 1.5 0.397805 1.5 -0  C 1.5 -0.397805 1.341951 -0.77937 1.06066 -1.06066  C 0.77937 -1.341951 0.397805 -1.5 0 -1.5  C -0.397805 -1.5 -0.77937 -1.341951 -1.06066 -1.06066  C -1.341951 -0.77937 -1.5 -0.397805 -1.5 0  C -1.5 0.397805 -1.341951 0.77937 -1.06066 1.06066  C -0.77937 1.341951 -0.397805 1.5 0 1.5  z " />
    <path
       id="C8_0_29a3584618"
       d="M 0 1.5  C 0.397805 1.5 0.77937 1.341951 1.06066 1.06066  C 1.341951 0.77937 1.5 0.397805 1.5 -0  C 1.5 -0.397805 1.341951 -0.77937 1.06066 -1.06066  C 0.77937 -1.341951 0.397805 -1.5 0 -1.5  C -0.397805 -1.5 -0.77937 -1.341951 -1.06066 -1.06066  C -1.341951 -0.77937 -1.5 -0.397805 -1.5 0  C -1.5 0.397805 -1.341951 0.77937 -1.06066 1.06066  C -0.77937 1.341951 -0.397805 1.5 0 1.5  z " />
    <path
       transform="scale(0.015625)"
       id="CMUSerif-Roman-34"
       d="M 179 1056  L 179 1254  L 2144 4256  Q 2195 4333 2272 4333  Q 2342 4333 2358 4304  Q 2374 4275 2374 4166  L 2374 1254  L 3014 1254  L 3014 1056  L 2374 1056  L 2374 499  Q 2374 314 2451 256  Q 2528 198 2861 198  L 2995 198  L 2995 0  Q 2733 19 2125 19  Q 1523 19 1261 0  L 1261 198  L 1395 198  Q 1728 198 1805 256  Q 1882 314 1882 499  L 1882 1056  L 179 1056  z M 358 1254  L 1920 1254  L 1920 3642  L 358 1254  z " />
    <path
       transform="scale(0.015625)"
       id="CMUSerif-Roman-79"
       d="M 122 -794  Q 122 -659 202 -588  Q 282 -518 390 -518  Q 506 -518 582 -592  Q 659 -666 659 -787  Q 659 -1024 410 -1056  Q 531 -1171 710 -1171  Q 902 -1171 1056 -1030  Q 1210 -890 1277 -755  Q 1344 -621 1440 -378  Q 1530 -186 1600 0  L 640 2336  Q 576 2490 480 2525  Q 384 2560 122 2560  L 122 2758  Q 410 2739 742 2739  Q 941 2739 1440 2758  L 1440 2560  Q 1082 2560 1082 2394  Q 1082 2374 1120 2278  L 1830 557  L 2477 2131  Q 2515 2221 2515 2285  Q 2515 2547 2214 2560  L 2214 2758  Q 2637 2739 2771 2739  Q 3034 2739 3251 2758  L 3251 2560  Q 2822 2560 2656 2150  L 1530 -582  Q 1222 -1312 710 -1312  Q 467 -1312 294 -1161  Q 122 -1011 122 -794  z " />
    <path
       transform="scale(0.015625)"
       id="CMUSerif-Roman-63-8"
       d="M 624 352  Q 218 774 218 1382  Q 218 1990 618 2428  Q 1018 2867 1606 2867  Q 1997 2867 2291 2681  Q 2586 2496 2586 2182  Q 2586 2042 2502 1962  Q 2419 1882 2291 1882  Q 2157 1882 2077 1965  Q 1997 2048 1997 2176  Q 1997 2234 2016 2288  Q 2035 2342 2105 2403  Q 2176 2464 2298 2470  Q 2067 2707 1613 2707  Q 1286 2707 1017 2400  Q 749 2093 749 1395  Q 749 1030 838 761  Q 928 493 1075 355  Q 1222 218 1366 154  Q 1510 90 1651 90  Q 2278 90 2490 762  Q 2509 826 2573 826  Q 2656 826 2656 762  Q 2656 730 2630 650  Q 2605 570 2528 442  Q 2451 314 2339 202  Q 2227 90 2032 10  Q 1837 -70 1594 -70  Q 1030 -70 624 352  z " />
    <path
       transform="scale(0.015625)"
       id="CMUSerif-Roman-68"
       d="M 205 0  L 205 198  Q 544 198 624 240  Q 704 282 704 486  L 704 3814  Q 704 4051 621 4112  Q 538 4173 205 4173  L 205 4371  L 1126 4442  L 1126 2214  L 1133 2214  Q 1235 2445 1465 2637  Q 1696 2829 2054 2829  Q 2534 2829 2726 2592  Q 2867 2432 2896 2253  Q 2925 2074 2925 1613  L 2925 390  Q 2931 256 3033 227  Q 3136 198 3424 198  L 3424 0  Q 2771 19 2707 19  Q 2656 19 1984 0  L 1984 198  Q 2323 198 2403 240  Q 2483 282 2483 486  L 2483 1978  Q 2483 2304 2384 2496  Q 2285 2688 2010 2688  Q 1677 2688 1411 2409  Q 1146 2131 1146 1664  L 1146 486  Q 1146 282 1226 240  Q 1306 198 1645 198  L 1645 0  Q 992 19 928 19  Q 877 19 205 0  z " />
    <path
       id="C9_0_0282d9a347"
       d="M 0 1.5  C 0.397805 1.5 0.77937 1.341951 1.06066 1.06066  C 1.341951 0.77937 1.5 0.397805 1.5 -0  C 1.5 -0.397805 1.341951 -0.77937 1.06066 -1.06066  C 0.77937 -1.341951 0.397805 -1.5 0 -1.5  C -0.397805 -1.5 -0.77937 -1.341951 -1.06066 -1.06066  C -1.341951 -0.77937 -1.5 -0.397805 -1.5 0  C -1.5 0.397805 -1.341951 0.77937 -1.06066 1.06066  C -0.77937 1.341951 -0.397805 1.5 0 1.5  z " />
    <path
       id="Ca_0_8380e0f6fe"
       d="M 0 1.5  C 0.397805 1.5 0.77937 1.341951 1.06066 1.06066  C 1.341951 0.77937 1.5 0.397805 1.5 -0  C 1.5 -0.397805 1.341951 -0.77937 1.06066 -1.06066  C 0.77937 -1.341951 0.397805 -1.5 0 -1.5  C -0.397805 -1.5 -0.77937 -1.341951 -1.06066 -1.06066  C -1.341951 -0.77937 -1.5 -0.397805 -1.5 0  C -1.5 0.397805 -1.341951 0.77937 -1.06066 1.06066  C -0.77937 1.341951 -0.397805 1.5 0 1.5  z " />
    <path
       id="Cb_0_3e6c7aff43"
       d="M 0 1.5  C 0.397805 1.5 0.77937 1.341951 1.06066 1.06066  C 1.341951 0.77937 1.5 0.397805 1.5 -0  C 1.5 -0.397805 1.341951 -0.77937 1.06066 -1.06066  C 0.77937 -1.341951 0.397805 -1.5 0 -1.5  C -0.397805 -1.5 -0.77937 -1.341951 -1.06066 -1.06066  C -1.341951 -0.77937 -1.5 -0.397805 -1.5 0  C -1.5 0.397805 -1.341951 0.77937 -1.06066 1.06066  C -0.77937 1.341951 -0.397805 1.5 0 1.5  z " />
    <clipPath
       id="p4bf85e0e50">
      <rect
         id="rect2640"
         y="22.801838"
         x="38.969375"
         width="52.157812"
         height="86.730073" />
    </clipPath>
    <clipPath
       id="p7469bcc0d7">
      <rect
         id="rect2643"
         y="22.801838"
         x="135.007188"
         width="52.157813"
         height="86.730073" />
    </clipPath>
    <clipPath
       id="p7ed28fe74b">
      <rect
         id="rect2646"
         y="22.801838"
         x="231.045"
         width="52.157812"
         height="86.730073" />
    </clipPath>
    <clipPath
       id="p79c152b911">
      <rect
         id="rect2649"
         y="22.801838"
         x="327.082812"
         width="52.157813"
         height="86.730073" />
    </clipPath>
  </defs>
  <g
     style="stroke-linecap:butt;stroke-linejoin:round"
     id="line2d_5"
     transform="translate(-157.80937,-27.783281)" />
  <g
     style="stroke-linecap:butt;stroke-linejoin:round;fill:#1b3375;fill-opacity:1"
     id="line2d_6"
     transform="translate(-157.80937,-27.783281)">
    <defs
       id="defs733">
      <path
         style="stroke-linecap:butt;stroke-linejoin:round"
         inkscape:connector-curvature="0"
         id="mff9934357e"
         d="M 0,2.5 C 0.663008,2.5 1.29895,2.236584 1.767767,1.767767 2.236584,1.29895 2.5,0.663008 2.5,0 2.5,-0.663008 2.236584,-1.29895 1.767767,-1.767767 1.29895,-2.236584 0.663008,-2.5 0,-2.5 c -0.663008,0 -1.29895,0.263416 -1.767767,0.732233 C -2.236584,-1.29895 -2.5,-0.663008 -2.5,0 c 0,0.663008 0.263416,1.29895 0.732233,1.767767 C -1.29895,2.236584 -0.663008,2.5 0,2.5 Z" />
    </defs>
    <g
       style="stroke-linecap:butt;stroke-linejoin:round;fill:#1b3375;fill-opacity:1"
       id="g737">
      <use
         height="100%"
         width="100%"
         id="use735"
         y="31.567968"
         xlink:href="#mff9934357e"
         x="160.30937"
         style="fill:#1b3375;fill-opacity:1;stroke-linecap:butt;stroke-linejoin:round" />
    </g>
  </g>
  <g
     style="stroke-linecap:butt;stroke-linejoin:round"
     id="text_7"
     transform="translate(-157.80937,-27.783281)">
    <!-- cluster 0 -->
    <g
       style="stroke-linecap:butt;stroke-linejoin:round"
       id="g768"
       transform="matrix(0.11,0,0,-0.11,180.10937,35.417969)">
      <defs
         id="defs748">
        <path
           style="stroke-linecap:butt;stroke-linejoin:round"
           inkscape:connector-curvature="0"
           transform="scale(0.015625)"
           id="CMUSerif-Roman-63"
           d="m 624,352 q -406,422 -406,1030 0,608 400,1046 400,439 988,439 391,0 685,-186 295,-185 295,-499 0,-140 -84,-220 -83,-80 -211,-80 -134,0 -214,83 -80,83 -80,211 0,58 19,112 19,54 89,115 71,61 193,67 -231,237 -685,237 -327,0 -596,-307 -268,-307 -268,-1005 0,-365 89,-634 90,-268 237,-406 147,-137 291,-201 144,-64 285,-64 627,0 839,672 19,64 83,64 83,0 83,-64 0,-32 -26,-112 Q 2605,570 2528,442 2451,314 2339,202 2227,90 2032,10 1837,-70 1594,-70 1030,-70 624,352 Z" />
        <path
           style="stroke-linecap:butt;stroke-linejoin:round"
           inkscape:connector-curvature="0"
           transform="scale(0.015625)"
           id="CMUSerif-Roman-6c"
           d="m 211,0 v 198 q 339,0 419,42 80,42 80,246 v 3328 q 0,237 -83,298 -83,61 -416,61 v 198 l 922,71 V 486 q 0,-204 80,-246 80,-42 419,-42 V 0 q -77,0 -240,6 -163,7 -282,10 -118,3 -188,3 -77,0 -711,-19 z" />
        <path
           style="stroke-linecap:butt;stroke-linejoin:round"
           inkscape:connector-curvature="0"
           transform="scale(0.015625)"
           id="CMUSerif-Roman-75"
           d="m 205,2560 v 198 l 941,71 V 704 q 0,-154 12,-244 13,-89 64,-192 52,-102 173,-150 122,-48 314,-48 345,0 559,285 215,285 215,707 v 1140 q 0,236 -83,297 -83,61 -416,61 v 198 l 941,71 V 557 q 0,-237 83,-298 83,-61 416,-61 V 0 l -922,-70 v 576 q -268,-576 -825,-576 -282,0 -474,70 -192,70 -288,160 -96,90 -147,262 -51,173 -58,278 -6,106 -6,311 v 960 q 0,435 -64,512 -64,77 -435,77 z" />
        <path
           style="stroke-linecap:butt;stroke-linejoin:round"
           inkscape:connector-curvature="0"
           transform="scale(0.015625)"
           id="CMUSerif-Roman-73"
           d="m 211,83 v 845 q 0,70 3,96 4,26 23,45 19,19 57,19 45,0 61,-19 16,-19 29,-90 96,-441 304,-675 208,-234 586,-234 358,0 540,160 183,160 183,423 0,467 -666,589 -384,76 -544,127 -160,52 -301,167 -275,224 -275,544 0,320 243,553 244,234 781,234 359,0 602,-179 70,58 109,102 83,77 128,77 51,0 60,-32 10,-32 10,-121 v -647 q 0,-70 -3,-96 -3,-25 -23,-41 -19,-16 -57,-16 -71,0 -77,57 -51,775 -749,775 -377,0 -547,-144 -170,-144 -170,-343 0,-109 51,-192 52,-83 119,-131 67,-48 192,-93 125,-45 201,-61 77,-16 225,-48 512,-96 729,-307 269,-269 269,-608 0,-377 -256,-633 Q 1792,-70 1274,-70 858,-70 570,205 531,166 502,134 474,102 464,89 454,77 451,70 448,64 442,58 314,-70 282,-70 q -52,0 -62,32 -9,32 -9,121 z" />
        <path
           style="stroke-linecap:butt;stroke-linejoin:round"
           inkscape:connector-curvature="0"
           transform="scale(0.015625)"
           id="CMUSerif-Roman-74"
           d="m 122,2560 v 141 q 294,13 489,221 195,208 262,464 68,256 74,550 h 160 V 2758 h 915 V 2560 H 1107 V 781 q 0,-691 429,-691 186,0 307,188 122,189 122,528 v 352 h 160 V 794 q 0,-346 -160,-605 -160,-259 -474,-259 -115,0 -230,29 -115,28 -263,105 -147,77 -240,265 -92,189 -92,465 v 1766 z" />
        <path
           style="stroke-linecap:butt;stroke-linejoin:round"
           inkscape:connector-curvature="0"
           transform="scale(0.015625)"
           id="CMUSerif-Roman-65"
           d="m 179,1408 q 0,602 387,1030 388,429 944,429 564,0 855,-365 291,-364 291,-889 0,-96 -26,-116 -25,-19 -134,-19 H 710 q 0,-652 192,-960 269,-428 724,-428 64,0 137,12 74,13 227,67 154,55 288,202 135,147 212,378 19,89 83,89 83,0 83,-76 0,-58 -61,-183 Q 2534,454 2419,304 2304,154 2080,42 1856,-70 1587,-70 1024,-70 601,355 179,781 179,1408 Z m 538,205 h 1517 q 0,134 -23,284 -22,151 -90,359 -67,208 -224,339 -156,131 -387,131 -102,0 -214,-45 -112,-44 -247,-150 Q 915,2426 822,2186 730,1946 717,1613 Z" />
        <path
           style="stroke-linecap:butt;stroke-linejoin:round"
           inkscape:connector-curvature="0"
           transform="scale(0.015625)"
           id="CMUSerif-Roman-72"
           d="m 179,0 v 198 q 339,0 419,42 80,42 80,246 v 1716 q 0,236 -83,297 -83,61 -416,61 v 198 l 890,71 v -704 q 89,275 281,489 192,215 506,215 205,0 339,-116 135,-115 135,-275 0,-140 -87,-211 -86,-70 -189,-70 -115,0 -195,73 -80,74 -80,202 0,77 35,137 36,61 64,83 29,23 48,30 -12,6 -70,6 -352,0 -554,-352 -201,-352 -201,-851 V 499 q 0,-185 76,-243 77,-58 410,-58 h 135 V 0 Q 1466,19 909,19 832,19 710,16 589,13 429,6 269,0 179,0 Z" />
        <path
           style="stroke-linecap:butt;stroke-linejoin:round"
           inkscape:connector-curvature="0"
           d=""
           transform="scale(0.015625)"
           id="CMUSerif-Roman-20" />
      </defs>
      <use
         height="100%"
         width="100%"
         y="0"
         x="0"
         style="stroke-linecap:butt;stroke-linejoin:round"
         id="use750"
         xlink:href="#CMUSerif-Roman-63" />
      <use
         height="100%"
         width="100%"
         y="0"
         style="stroke-linecap:butt;stroke-linejoin:round"
         id="use752"
         xlink:href="#CMUSerif-Roman-6c"
         x="44.399994" />
      <use
         height="100%"
         width="100%"
         y="0"
         style="stroke-linecap:butt;stroke-linejoin:round"
         id="use754"
         xlink:href="#CMUSerif-Roman-75"
         x="72.099991" />
      <use
         height="100%"
         width="100%"
         y="0"
         style="stroke-linecap:butt;stroke-linejoin:round"
         id="use756"
         xlink:href="#CMUSerif-Roman-73"
         x="127.59998" />
      <use
         height="100%"
         width="100%"
         y="0"
         style="stroke-linecap:butt;stroke-linejoin:round"
         id="use758"
         xlink:href="#CMUSerif-Roman-74"
         x="166.99997" />
      <use
         height="100%"
         width="100%"
         y="0"
         style="stroke-linecap:butt;stroke-linejoin:round"
         id="use760"
         xlink:href="#CMUSerif-Roman-65"
         x="205.79996" />
      <use
         height="100%"
         width="100%"
         y="0"
         style="stroke-linecap:butt;stroke-linejoin:round"
         id="use762"
         xlink:href="#CMUSerif-Roman-72"
         x="250.19995" />
      <use
         height="100%"
         width="100%"
         y="0"
         style="stroke-linecap:butt;stroke-linejoin:round"
         id="use764"
         xlink:href="#CMUSerif-Roman-20"
         x="289.29993" />
      <path
         d="m 326.5062,32 q 0,14.703125 3.6875,22.703125 5.20312,11.890625 17.40625,11.890625 2.59375,0 5.29687,-0.703125 2.70313,-0.6875 6.15625,-3.390625 3.45313,-2.703125 5.54688,-7.09375 4,-8.5 4,-23.40625 0,-14.59375 -3.70313,-22.59375 -5.39062,-11.609375 -17.39062,-11.609375 -4.5,0 -9.0625,2.296875 -4.54688,2.3125 -7.4375,7.8125 -4.5,8.296875 -4.5,24.09375 z m 8.29687,1.203125 q 0,-15.109375 1.09375,-21.109375 1.20313,-6.5 4.54688,-9.296875 Q 343.80307,0 347.5062,0 q 4,0 7.34375,3 3.34375,3 4.34375,9.5 1.10937,6.40625 1.10937,20.703125 0,13.890625 -1,19.5 -1.29687,6.5 -4.79687,9.09375 -3.5,2.609375 -7,2.609375 -1.3125,0 -2.71875,-0.40625 -1.39063,-0.40625 -3.39063,-1.5 -2,-1.09375 -3.54687,-3.90625 -1.54688,-2.796875 -2.25,-7 -0.79688,-5.390625 -0.79688,-18.390625 z"
         id="use766"
         inkscape:connector-curvature="0"
         style="stroke-width:0.015625;stroke-linecap:butt;stroke-linejoin:round" />
    </g>
  </g>
  <g
     style="stroke-linecap:butt;stroke-linejoin:round"
     id="line2d_7"
     transform="translate(-157.80937,-27.783281)" />
  <g
     style="stroke-linecap:butt;stroke-linejoin:round;fill:#6ea699;fill-opacity:1"
     id="line2d_8"
     transform="translate(-157.80937,-27.783281)">
    <defs
       id="defs773">
      <path
         style="stroke-linecap:butt;stroke-linejoin:round"
         inkscape:connector-curvature="0"
         id="mce5b6e3aa8"
         d="M 0,2.5 C 0.663008,2.5 1.29895,2.236584 1.767767,1.767767 2.236584,1.29895 2.5,0.663008 2.5,0 2.5,-0.663008 2.236584,-1.29895 1.767767,-1.767767 1.29895,-2.236584 0.663008,-2.5 0,-2.5 c -0.663008,0 -1.29895,0.263416 -1.767767,0.732233 C -2.236584,-1.29895 -2.5,-0.663008 -2.5,0 c 0,0.663008 0.263416,1.29895 0.732233,1.767767 C -1.29895,2.236584 -0.663008,2.5 0,2.5 Z" />
    </defs>
    <g
       style="stroke-linecap:butt;stroke-linejoin:round;fill:#6ea699;fill-opacity:1"
       id="g777">
      <use
         height="100%"
         width="100%"
         id="use775"
         y="46.902657"
         xlink:href="#mce5b6e3aa8"
         x="160.30937"
         style="fill:#6ea699;fill-opacity:1;stroke-linecap:butt;stroke-linejoin:round" />
    </g>
  </g>
  <g
     style="stroke-linecap:butt;stroke-linejoin:round"
     id="text_8"
     transform="translate(-157.80937,-27.783281)">
    <!-- cluster 1 -->
    <g
       style="stroke-linecap:butt;stroke-linejoin:round"
       id="g798"
       transform="matrix(0.11,0,0,-0.11,180.10937,50.752656)">
      <use
         height="100%"
         width="100%"
         y="0"
         x="0"
         style="stroke-linecap:butt;stroke-linejoin:round"
         id="use780"
         xlink:href="#CMUSerif-Roman-63" />
      <use
         height="100%"
         width="100%"
         y="0"
         style="stroke-linecap:butt;stroke-linejoin:round"
         id="use782"
         xlink:href="#CMUSerif-Roman-6c"
         x="44.399994" />
      <use
         height="100%"
         width="100%"
         y="0"
         style="stroke-linecap:butt;stroke-linejoin:round"
         id="use784"
         xlink:href="#CMUSerif-Roman-75"
         x="72.099991" />
      <use
         height="100%"
         width="100%"
         y="0"
         style="stroke-linecap:butt;stroke-linejoin:round"
         id="use786"
         xlink:href="#CMUSerif-Roman-73"
         x="127.59998" />
      <use
         height="100%"
         width="100%"
         y="0"
         style="stroke-linecap:butt;stroke-linejoin:round"
         id="use788"
         xlink:href="#CMUSerif-Roman-74"
         x="166.99997" />
      <use
         height="100%"
         width="100%"
         y="0"
         style="stroke-linecap:butt;stroke-linejoin:round"
         id="use790"
         xlink:href="#CMUSerif-Roman-65"
         x="205.79996" />
      <use
         height="100%"
         width="100%"
         y="0"
         style="stroke-linecap:butt;stroke-linejoin:round"
         id="use792"
         xlink:href="#CMUSerif-Roman-72"
         x="250.19995" />
      <use
         height="100%"
         width="100%"
         y="0"
         style="stroke-linecap:butt;stroke-linejoin:round"
         id="use794"
         xlink:href="#CMUSerif-Roman-20"
         x="289.29993" />
      <path
         d="m 331.5062,57.09375 v 3.109375 q 12,0 18.1875,6.390625 1.70312,0 2,-0.40625 0.3125,-0.390625 0.3125,-2.1875 V 7.90625 q 0,-3 1.4375,-3.90625 1.45312,-0.90625 7.85937,-0.90625 h 3.20313 V 0 q -3.5,0.296875 -16.20313,0.296875 -12.70312,0 -16.20312,-0.296875 v 3.09375 h 3.20312 q 6.29688,0 7.79688,0.90625 1.5,0.90625 1.5,3.90625 V 59.703125 Q 339.39682,57.09375 331.5062,57.09375 Z"
         id="use796"
         inkscape:connector-curvature="0"
         style="stroke-width:0.015625;stroke-linecap:butt;stroke-linejoin:round" />
    </g>
  </g>
  <g
     style="stroke-linecap:butt;stroke-linejoin:round"
     id="line2d_9"
     transform="translate(-157.80937,-27.783281)" />
  <g
     style="stroke-linecap:butt;stroke-linejoin:round;fill:#b6c276;fill-opacity:1"
     id="line2d_10"
     transform="translate(-157.80937,-27.783281)">
    <defs
       id="defs803">
      <path
         style="stroke-linecap:butt;stroke-linejoin:round"
         inkscape:connector-curvature="0"
         id="md42004ae45"
         d="M 0,2.5 C 0.663008,2.5 1.29895,2.236584 1.767767,1.767767 2.236584,1.29895 2.5,0.663008 2.5,0 2.5,-0.663008 2.236584,-1.29895 1.767767,-1.767767 1.29895,-2.236584 0.663008,-2.5 0,-2.5 c -0.663008,0 -1.29895,0.263416 -1.767767,0.732233 C -2.236584,-1.29895 -2.5,-0.663008 -2.5,0 c 0,0.663008 0.263416,1.29895 0.732233,1.767767 C -1.29895,2.236584 -0.663008,2.5 0,2.5 Z" />
    </defs>
    <g
       style="stroke-linecap:butt;stroke-linejoin:round;fill:#b6c276;fill-opacity:1"
       id="g807">
      <use
         height="100%"
         width="100%"
         id="use805"
         y="62.237343"
         xlink:href="#md42004ae45"
         x="160.30937"
         style="fill:#b6c276;fill-opacity:1;stroke-linecap:butt;stroke-linejoin:round" />
    </g>
  </g>
  <g
     style="stroke-linecap:butt;stroke-linejoin:round"
     id="text_9"
     transform="translate(-157.80937,-27.783281)">
    <!-- cluster 2 -->
    <g
       style="stroke-linecap:butt;stroke-linejoin:round"
       id="g828"
       transform="matrix(0.11,0,0,-0.11,180.10937,66.087344)">
      <use
         height="100%"
         width="100%"
         y="0"
         x="0"
         style="stroke-linecap:butt;stroke-linejoin:round"
         id="use810"
         xlink:href="#CMUSerif-Roman-63" />
      <use
         height="100%"
         width="100%"
         y="0"
         style="stroke-linecap:butt;stroke-linejoin:round"
         id="use812"
         xlink:href="#CMUSerif-Roman-6c"
         x="44.399994" />
      <use
         height="100%"
         width="100%"
         y="0"
         style="stroke-linecap:butt;stroke-linejoin:round"
         id="use814"
         xlink:href="#CMUSerif-Roman-75"
         x="72.099991" />
      <use
         height="100%"
         width="100%"
         y="0"
         style="stroke-linecap:butt;stroke-linejoin:round"
         id="use816"
         xlink:href="#CMUSerif-Roman-73"
         x="127.59998" />
      <use
         height="100%"
         width="100%"
         y="0"
         style="stroke-linecap:butt;stroke-linejoin:round"
         id="use818"
         xlink:href="#CMUSerif-Roman-74"
         x="166.99997" />
      <use
         height="100%"
         width="100%"
         y="0"
         style="stroke-linecap:butt;stroke-linejoin:round"
         id="use820"
         xlink:href="#CMUSerif-Roman-65"
         x="205.79996" />
      <use
         height="100%"
         width="100%"
         y="0"
         style="stroke-linecap:butt;stroke-linejoin:round"
         id="use822"
         xlink:href="#CMUSerif-Roman-72"
         x="250.19995" />
      <use
         height="100%"
         width="100%"
         y="0"
         style="stroke-linecap:butt;stroke-linejoin:round"
         id="use824"
         xlink:href="#CMUSerif-Roman-20"
         x="289.29993" />
      <path
         d="m 327.59995,0 q 0,1.796875 0.14062,2.34375 0.15625,0.5625 0.95313,1.359375 l 19.20312,21.390625 q 10.5,11.8125 10.5,22.109375 0,6.703125 -3.5,11.5 -3.5,4.796875 -9.89062,4.796875 -4.40625,0 -8.10938,-2.703125 -3.70312,-2.703125 -5.39062,-7.5 0.29687,0.109375 1.29687,0.109375 2.5,0 3.89063,-1.5625 1.40625,-1.546875 1.40625,-3.640625 0,-2.703125 -1.75,-4 -1.75,-1.296875 -3.45313,-1.296875 -0.70312,0 -1.60937,0.140625 -0.89063,0.15625 -2.29688,1.546875 Q 327.59995,46 327.59995,48.5 q 0,7 5.29687,12.546875 5.29688,5.546875 13.40625,5.546875 9.20313,0 15.20313,-5.453125 6,-5.4375 6,-13.9375 0,-3 -0.90625,-5.703125 -0.90625,-2.703125 -2.10938,-4.8125 -1.1875,-2.09375 -4.39062,-5.4375 -3.20313,-3.34375 -5.8125,-5.75 -2.59375,-2.40625 -8.39063,-7.5 L 335.30307,7.703125 h 18 q 8.79688,0 9.5,0.796875 1,1.40625 2.20313,8.90625 h 2.5 L 364.6937,0 Z"
         id="use826"
         inkscape:connector-curvature="0"
         style="stroke-width:0.015625;stroke-linecap:butt;stroke-linejoin:round" />
    </g>
  </g>
  <defs
     id="defs837">
    <clipPath
       id="pbb1b9e7236"
       style="stroke-linecap:butt;stroke-linejoin:round">
      <rect
         height="81.540001"
         width="111.6"
         x="38.969376"
         y="7.1999998"
         id="rect834"
         style="stroke-linecap:butt;stroke-linejoin:round" />
    </clipPath>
  </defs>
</svg>
