<?xml version="1.0" encoding="utf-8" standalone="no"?>
<!DOCTYPE svg PUBLIC "-//W3C//DTD SVG 1.1//EN"
  "http://www.w3.org/Graphics/SVG/1.1/DTD/svg11.dtd">
<svg height="99.29875pt" version="1.1" viewBox="0 0 210.644062 99.29875" width="210.644062pt" xmlns="http://www.w3.org/2000/svg" xmlns:xlink="http://www.w3.org/1999/xlink">
 <metadata>
  <rdf:RDF xmlns:cc="http://creativecommons.org/ns#" xmlns:dc="http://purl.org/dc/elements/1.1/" xmlns:rdf="http://www.w3.org/1999/02/22-rdf-syntax-ns#">
   <cc:Work>
    <dc:type rdf:resource="http://purl.org/dc/dcmitype/StillImage"/>
    <dc:date>2023-02-23T10:08:13.647471</dc:date>
    <dc:format>image/svg+xml</dc:format>
    <dc:creator>
     <cc:Agent>
      <dc:title>Matplotlib v3.4.3, https://matplotlib.org/</dc:title>
     </cc:Agent>
    </dc:creator>
   </cc:Work>
  </rdf:RDF>
 </metadata>
 <defs>
  <style type="text/css">*{stroke-linecap:butt;stroke-linejoin:round;}</style>
 </defs>
 <g id="figure_1">
  <g id="patch_1">
   <path d="M 0 99.29875 
L 210.644062 99.29875 
L 210.644062 0 
L 0 0 
z
" style="fill:none;"/>
  </g>
  <g id="axes_1">
   <g id="patch_2">
    <path d="M 42.027031 61.56 
L 125.727031 61.56 
L 125.727031 7.2 
L 42.027031 7.2 
z
" style="fill:#ffffff;"/>
   </g>
   <g id="PathCollection_1">
    <defs>
     <path d="M 0 1.936492 
C 0.513564 1.936492 1.006162 1.732451 1.369306 1.369306 
C 1.732451 1.006162 1.936492 0.513564 1.936492 -0 
C 1.936492 -0.513564 1.732451 -1.006162 1.369306 -1.369306 
C 1.006162 -1.732451 0.513564 -1.936492 0 -1.936492 
C -0.513564 -1.936492 -1.006162 -1.732451 -1.369306 -1.369306 
C -1.732451 -1.006162 -1.936492 -0.513564 -1.936492 0 
C -1.936492 0.513564 -1.732451 1.006162 -1.369306 1.369306 
C -1.006162 1.732451 -0.513564 1.936492 0 1.936492 
z
" id="C0_0_874e62266b"/>
    </defs>
    <g clip-path="url(#p2cfeca3adf)">
     <use style="fill:#0c2c84;fill-opacity:0.6;" x="56.553315" xlink:href="#C0_0_874e62266b" y="31.876173"/>
    </g>
    <g clip-path="url(#p2cfeca3adf)">
     <use style="fill:#0c2c84;fill-opacity:0.6;" x="63.086391" xlink:href="#C0_0_874e62266b" y="34.543424"/>
    </g>
    <g clip-path="url(#p2cfeca3adf)">
     <use style="fill:#0c2c84;fill-opacity:0.6;" x="45.831577" xlink:href="#C0_0_874e62266b" y="46.287536"/>
    </g>
    <g clip-path="url(#p2cfeca3adf)">
     <use style="fill:#0c2c84;fill-opacity:0.6;" x="57.295035" xlink:href="#C0_0_874e62266b" y="35.718939"/>
    </g>
    <g clip-path="url(#p2cfeca3adf)">
     <use style="fill:#0c2c84;fill-opacity:0.6;" x="57.724689" xlink:href="#C0_0_874e62266b" y="44.09659"/>
    </g>
    <g clip-path="url(#p2cfeca3adf)">
     <use style="fill:#0c2c84;fill-opacity:0.6;" x="56.39646" xlink:href="#C0_0_874e62266b" y="44.630733"/>
    </g>
    <g clip-path="url(#p2cfeca3adf)">
     <use style="fill:#64b09e;fill-opacity:0.6;" x="61.174565" xlink:href="#C0_0_874e62266b" y="47.657421"/>
    </g>
    <g clip-path="url(#p2cfeca3adf)">
     <use style="fill:#64b09e;fill-opacity:0.6;" x="73.949622" xlink:href="#C0_0_874e62266b" y="27.71452"/>
    </g>
    <g clip-path="url(#p2cfeca3adf)">
     <use style="fill:#0c2c84;fill-opacity:0.6;" x="54.819026" xlink:href="#C0_0_874e62266b" y="36.049373"/>
    </g>
    <g clip-path="url(#p2cfeca3adf)">
     <use style="fill:#64b09e;fill-opacity:0.6;" x="63.72196" xlink:href="#C0_0_874e62266b" y="45.126197"/>
    </g>
    <g clip-path="url(#p2cfeca3adf)">
     <use style="fill:#0c2c84;fill-opacity:0.6;" x="55.746182" xlink:href="#C0_0_874e62266b" y="30.77181"/>
    </g>
    <g clip-path="url(#p2cfeca3adf)">
     <use style="fill:#64b09e;fill-opacity:0.6;" x="68.952695" xlink:href="#C0_0_874e62266b" y="53.035076"/>
    </g>
    <g clip-path="url(#p2cfeca3adf)">
     <use style="fill:#64b09e;fill-opacity:0.6;" x="64.242704" xlink:href="#C0_0_874e62266b" y="51.747379"/>
    </g>
    <g clip-path="url(#p2cfeca3adf)">
     <use style="fill:#0c2c84;fill-opacity:0.6;" x="55.579178" xlink:href="#C0_0_874e62266b" y="39.108968"/>
    </g>
    <g clip-path="url(#p2cfeca3adf)">
     <use style="fill:#0c2c84;fill-opacity:0.6;" x="59.755612" xlink:href="#C0_0_874e62266b" y="32.920554"/>
    </g>
    <g clip-path="url(#p2cfeca3adf)">
     <use style="fill:#0c2c84;fill-opacity:0.6;" x="55.535804" xlink:href="#C0_0_874e62266b" y="51.00413"/>
    </g>
    <g clip-path="url(#p2cfeca3adf)">
     <use style="fill:#0c2c84;fill-opacity:0.6;" x="62.08658" xlink:href="#C0_0_874e62266b" y="30.809791"/>
    </g>
    <g clip-path="url(#p2cfeca3adf)">
     <use style="fill:#0c2c84;fill-opacity:0.6;" x="63.262504" xlink:href="#C0_0_874e62266b" y="44.215"/>
    </g>
    <g clip-path="url(#p2cfeca3adf)">
     <use style="fill:#0c2c84;fill-opacity:0.6;" x="64.589148" xlink:href="#C0_0_874e62266b" y="26.989938"/>
    </g>
    <g clip-path="url(#p2cfeca3adf)">
     <use style="fill:#64b09e;fill-opacity:0.6;" x="65.211327" xlink:href="#C0_0_874e62266b" y="45.168635"/>
    </g>
    <g clip-path="url(#p2cfeca3adf)">
     <use style="fill:#0c2c84;fill-opacity:0.6;" x="57.472957" xlink:href="#C0_0_874e62266b" y="37.823679"/>
    </g>
    <g clip-path="url(#p2cfeca3adf)">
     <use style="fill:#64b09e;fill-opacity:0.6;" x="56.2449" xlink:href="#C0_0_874e62266b" y="54.955887"/>
    </g>
    <g clip-path="url(#p2cfeca3adf)">
     <use style="fill:#0c2c84;fill-opacity:0.6;" x="47.878938" xlink:href="#C0_0_874e62266b" y="30.760295"/>
    </g>
    <g clip-path="url(#p2cfeca3adf)">
     <use style="fill:#0c2c84;fill-opacity:0.6;" x="57.409042" xlink:href="#C0_0_874e62266b" y="31.798762"/>
    </g>
    <g clip-path="url(#p2cfeca3adf)">
     <use style="fill:#bfcf69;fill-opacity:0.6;" x="74.972102" xlink:href="#C0_0_874e62266b" y="51.532403"/>
    </g>
    <g clip-path="url(#p2cfeca3adf)">
     <use style="fill:#0c2c84;fill-opacity:0.6;" x="64.338156" xlink:href="#C0_0_874e62266b" y="42.06937"/>
    </g>
    <g clip-path="url(#p2cfeca3adf)">
     <use style="fill:#bfcf69;fill-opacity:0.6;" x="76.343163" xlink:href="#C0_0_874e62266b" y="46.5619"/>
    </g>
    <g clip-path="url(#p2cfeca3adf)">
     <use style="fill:#0c2c84;fill-opacity:0.6;" x="56.459387" xlink:href="#C0_0_874e62266b" y="37.788991"/>
    </g>
    <g clip-path="url(#p2cfeca3adf)">
     <use style="fill:#64b09e;fill-opacity:0.6;" x="68.347189" xlink:href="#C0_0_874e62266b" y="38.97075"/>
    </g>
    <g clip-path="url(#p2cfeca3adf)">
     <use style="fill:#0c2c84;fill-opacity:0.6;" x="54.27226" xlink:href="#C0_0_874e62266b" y="42.694029"/>
    </g>
    <g clip-path="url(#p2cfeca3adf)">
     <use style="fill:#64b09e;fill-opacity:0.6;" x="66.937622" xlink:href="#C0_0_874e62266b" y="45.451149"/>
    </g>
    <g clip-path="url(#p2cfeca3adf)">
     <use style="fill:#64b09e;fill-opacity:0.6;" x="59.529018" xlink:href="#C0_0_874e62266b" y="52.970318"/>
    </g>
    <g clip-path="url(#p2cfeca3adf)">
     <use style="fill:#0c2c84;fill-opacity:0.6;" x="54.184172" xlink:href="#C0_0_874e62266b" y="43.75013"/>
    </g>
    <g clip-path="url(#p2cfeca3adf)">
     <use style="fill:#0c2c84;fill-opacity:0.6;" x="50.701685" xlink:href="#C0_0_874e62266b" y="39.987676"/>
    </g>
    <g clip-path="url(#p2cfeca3adf)">
     <use style="fill:#0c2c84;fill-opacity:0.6;" x="53.715642" xlink:href="#C0_0_874e62266b" y="45.892958"/>
    </g>
    <g clip-path="url(#p2cfeca3adf)">
     <use style="fill:#64b09e;fill-opacity:0.6;" x="66.865279" xlink:href="#C0_0_874e62266b" y="54.973792"/>
    </g>
    <g clip-path="url(#p2cfeca3adf)">
     <use style="fill:#64b09e;fill-opacity:0.6;" x="70.207073" xlink:href="#C0_0_874e62266b" y="41.227189"/>
    </g>
    <g clip-path="url(#p2cfeca3adf)">
     <use style="fill:#0c2c84;fill-opacity:0.6;" x="62.870504" xlink:href="#C0_0_874e62266b" y="24.319529"/>
    </g>
    <g clip-path="url(#p2cfeca3adf)">
     <use style="fill:#bfcf69;fill-opacity:0.6;" x="76.493487" xlink:href="#C0_0_874e62266b" y="33.036465"/>
    </g>
    <g clip-path="url(#p2cfeca3adf)">
     <use style="fill:#0c2c84;fill-opacity:0.6;" x="62.856396" xlink:href="#C0_0_874e62266b" y="36.705571"/>
    </g>
    <g clip-path="url(#p2cfeca3adf)">
     <use style="fill:#0c2c84;fill-opacity:0.6;" x="62.620469" xlink:href="#C0_0_874e62266b" y="42.778725"/>
    </g>
    <g clip-path="url(#p2cfeca3adf)">
     <use style="fill:#64b09e;fill-opacity:0.6;" x="60.899008" xlink:href="#C0_0_874e62266b" y="56.755153"/>
    </g>
    <g clip-path="url(#p2cfeca3adf)">
     <use style="fill:#bfcf69;fill-opacity:0.6;" x="84.32408" xlink:href="#C0_0_874e62266b" y="52.547557"/>
    </g>
    <g clip-path="url(#p2cfeca3adf)">
     <use style="fill:#0c2c84;fill-opacity:0.6;" x="66.426518" xlink:href="#C0_0_874e62266b" y="23.738671"/>
    </g>
    <g clip-path="url(#p2cfeca3adf)">
     <use style="fill:#bfcf69;fill-opacity:0.6;" x="87.646105" xlink:href="#C0_0_874e62266b" y="46.600535"/>
    </g>
    <g clip-path="url(#p2cfeca3adf)">
     <use style="fill:#0c2c84;fill-opacity:0.6;" x="53.726763" xlink:href="#C0_0_874e62266b" y="34.153119"/>
    </g>
    <g clip-path="url(#p2cfeca3adf)">
     <use style="fill:#0c2c84;fill-opacity:0.6;" x="52.003562" xlink:href="#C0_0_874e62266b" y="44.265113"/>
    </g>
    <g clip-path="url(#p2cfeca3adf)">
     <use style="fill:#bfcf69;fill-opacity:0.6;" x="71.707244" xlink:href="#C0_0_874e62266b" y="54.039244"/>
    </g>
    <g clip-path="url(#p2cfeca3adf)">
     <use style="fill:#0c2c84;fill-opacity:0.6;" x="64.485021" xlink:href="#C0_0_874e62266b" y="38.432217"/>
    </g>
    <g clip-path="url(#p2cfeca3adf)">
     <use style="fill:#64b09e;fill-opacity:0.6;" x="57.62038" xlink:href="#C0_0_874e62266b" y="50.700422"/>
    </g>
    <g clip-path="url(#p2cfeca3adf)">
     <use style="fill:#0c2c84;fill-opacity:0.6;" x="61.045859" xlink:href="#C0_0_874e62266b" y="46.106507"/>
    </g>
    <g clip-path="url(#p2cfeca3adf)">
     <use style="fill:#bfcf69;fill-opacity:0.6;" x="94.420863" xlink:href="#C0_0_874e62266b" y="13.395178"/>
    </g>
    <g clip-path="url(#p2cfeca3adf)">
     <use style="fill:#0c2c84;fill-opacity:0.6;" x="58.385853" xlink:href="#C0_0_874e62266b" y="32.920132"/>
    </g>
    <g clip-path="url(#p2cfeca3adf)">
     <use style="fill:#64b09e;fill-opacity:0.6;" x="62.249715" xlink:href="#C0_0_874e62266b" y="49.192798"/>
    </g>
    <g clip-path="url(#p2cfeca3adf)">
     <use style="fill:#bfcf69;fill-opacity:0.6;" x="73.519009" xlink:href="#C0_0_874e62266b" y="50.934113"/>
    </g>
    <g clip-path="url(#p2cfeca3adf)">
     <use style="fill:#bfcf69;fill-opacity:0.6;" x="77.153089" xlink:href="#C0_0_874e62266b" y="32.219004"/>
    </g>
    <g clip-path="url(#p2cfeca3adf)">
     <use style="fill:#0c2c84;fill-opacity:0.6;" x="66.034491" xlink:href="#C0_0_874e62266b" y="20.833448"/>
    </g>
    <g clip-path="url(#p2cfeca3adf)">
     <use style="fill:#bfcf69;fill-opacity:0.6;" x="77.284199" xlink:href="#C0_0_874e62266b" y="51.383579"/>
    </g>
    <g clip-path="url(#p2cfeca3adf)">
     <use style="fill:#bfcf69;fill-opacity:0.6;" x="78.838927" xlink:href="#C0_0_874e62266b" y="34.63162"/>
    </g>
    <g clip-path="url(#p2cfeca3adf)">
     <use style="fill:#bfcf69;fill-opacity:0.6;" x="80.085506" xlink:href="#C0_0_874e62266b" y="39.517166"/>
    </g>
    <g clip-path="url(#p2cfeca3adf)">
     <use style="fill:#bfcf69;fill-opacity:0.6;" x="73.873734" xlink:href="#C0_0_874e62266b" y="38.611481"/>
    </g>
    <g clip-path="url(#p2cfeca3adf)">
     <use style="fill:#bfcf69;fill-opacity:0.6;" x="97.541339" xlink:href="#C0_0_874e62266b" y="45.794281"/>
    </g>
    <g clip-path="url(#p2cfeca3adf)">
     <use style="fill:#bfcf69;fill-opacity:0.6;" x="84.437317" xlink:href="#C0_0_874e62266b" y="42.735704"/>
    </g>
    <g clip-path="url(#p2cfeca3adf)">
     <use style="fill:#bfcf69;fill-opacity:0.6;" x="101.607749" xlink:href="#C0_0_874e62266b" y="51.755847"/>
    </g>
    <g clip-path="url(#p2cfeca3adf)">
     <use style="fill:#0c2c84;fill-opacity:0.6;" x="64.635292" xlink:href="#C0_0_874e62266b" y="25.387766"/>
    </g>
    <g clip-path="url(#p2cfeca3adf)">
     <use style="fill:#0c2c84;fill-opacity:0.6;" x="52.023775" xlink:href="#C0_0_874e62266b" y="45.012978"/>
    </g>
    <g clip-path="url(#p2cfeca3adf)">
     <use style="fill:#bfcf69;fill-opacity:0.6;" x="79.603272" xlink:href="#C0_0_874e62266b" y="52.840884"/>
    </g>
    <g clip-path="url(#p2cfeca3adf)">
     <use style="fill:#bfcf69;fill-opacity:0.6;" x="96.492553" xlink:href="#C0_0_874e62266b" y="53.558"/>
    </g>
    <g clip-path="url(#p2cfeca3adf)">
     <use style="fill:#bfcf69;fill-opacity:0.6;" x="77.826664" xlink:href="#C0_0_874e62266b" y="45.999124"/>
    </g>
    <g clip-path="url(#p2cfeca3adf)">
     <use style="fill:#64b09e;fill-opacity:0.6;" x="69.976965" xlink:href="#C0_0_874e62266b" y="42.251175"/>
    </g>
    <g clip-path="url(#p2cfeca3adf)">
     <use style="fill:#64b09e;fill-opacity:0.6;" x="66.894295" xlink:href="#C0_0_874e62266b" y="59.089091"/>
    </g>
    <g clip-path="url(#p2cfeca3adf)">
     <use style="fill:#64b09e;fill-opacity:0.6;" x="61.548543" xlink:href="#C0_0_874e62266b" y="52.098326"/>
    </g>
    <g clip-path="url(#p2cfeca3adf)">
     <use style="fill:#0c2c84;fill-opacity:0.6;" x="61.077775" xlink:href="#C0_0_874e62266b" y="36.798024"/>
    </g>
    <g clip-path="url(#p2cfeca3adf)">
     <use style="fill:#64b09e;fill-opacity:0.6;" x="69.227994" xlink:href="#C0_0_874e62266b" y="38.085961"/>
    </g>
    <g clip-path="url(#p2cfeca3adf)">
     <use style="fill:#64b09e;fill-opacity:0.6;" x="66.933094" xlink:href="#C0_0_874e62266b" y="49.684472"/>
    </g>
    <g clip-path="url(#p2cfeca3adf)">
     <use style="fill:#bfcf69;fill-opacity:0.6;" x="93.297893" xlink:href="#C0_0_874e62266b" y="49.001858"/>
    </g>
    <g clip-path="url(#p2cfeca3adf)">
     <use style="fill:#0c2c84;fill-opacity:0.6;" x="65.853825" xlink:href="#C0_0_874e62266b" y="29.980769"/>
    </g>
    <g clip-path="url(#p2cfeca3adf)">
     <use style="fill:#bfcf69;fill-opacity:0.6;" x="76.774143" xlink:href="#C0_0_874e62266b" y="51.881674"/>
    </g>
    <g clip-path="url(#p2cfeca3adf)">
     <use style="fill:#0c2c84;fill-opacity:0.6;" x="54.980541" xlink:href="#C0_0_874e62266b" y="35.056577"/>
    </g>
    <g clip-path="url(#p2cfeca3adf)">
     <use style="fill:#0c2c84;fill-opacity:0.6;" x="70.229949" xlink:href="#C0_0_874e62266b" y="29.886131"/>
    </g>
    <g clip-path="url(#p2cfeca3adf)">
     <use style="fill:#bfcf69;fill-opacity:0.6;" x="93.421174" xlink:href="#C0_0_874e62266b" y="47.513833"/>
    </g>
    <g clip-path="url(#p2cfeca3adf)">
     <use style="fill:#bfcf69;fill-opacity:0.6;" x="72.297785" xlink:href="#C0_0_874e62266b" y="50.928149"/>
    </g>
    <g clip-path="url(#p2cfeca3adf)">
     <use style="fill:#bfcf69;fill-opacity:0.6;" x="73.87124" xlink:href="#C0_0_874e62266b" y="45.833557"/>
    </g>
    <g clip-path="url(#p2cfeca3adf)">
     <use style="fill:#64b09e;fill-opacity:0.6;" x="66.1316" xlink:href="#C0_0_874e62266b" y="50.113939"/>
    </g>
    <g clip-path="url(#p2cfeca3adf)">
     <use style="fill:#0c2c84;fill-opacity:0.6;" x="49.922854" xlink:href="#C0_0_874e62266b" y="36.403738"/>
    </g>
    <g clip-path="url(#p2cfeca3adf)">
     <use style="fill:#64b09e;fill-opacity:0.6;" x="68.549713" xlink:href="#C0_0_874e62266b" y="46.135697"/>
    </g>
    <g clip-path="url(#p2cfeca3adf)">
     <use style="fill:#bfcf69;fill-opacity:0.6;" x="100.831396" xlink:href="#C0_0_874e62266b" y="31.626146"/>
    </g>
    <g clip-path="url(#p2cfeca3adf)">
     <use style="fill:#64b09e;fill-opacity:0.6;" x="69.896003" xlink:href="#C0_0_874e62266b" y="45.979434"/>
    </g>
    <g clip-path="url(#p2cfeca3adf)">
     <use style="fill:#0c2c84;fill-opacity:0.6;" x="59.667339" xlink:href="#C0_0_874e62266b" y="40.852897"/>
    </g>
    <g clip-path="url(#p2cfeca3adf)">
     <use style="fill:#bfcf69;fill-opacity:0.6;" x="83.227354" xlink:href="#C0_0_874e62266b" y="52.168823"/>
    </g>
    <g clip-path="url(#p2cfeca3adf)">
     <use style="fill:#bfcf69;fill-opacity:0.6;" x="113.113765" xlink:href="#C0_0_874e62266b" y="37.588538"/>
    </g>
    <g clip-path="url(#p2cfeca3adf)">
     <use style="fill:#64b09e;fill-opacity:0.6;" x="65.414896" xlink:href="#C0_0_874e62266b" y="50.59765"/>
    </g>
    <g clip-path="url(#p2cfeca3adf)">
     <use style="fill:#bfcf69;fill-opacity:0.6;" x="78.141484" xlink:href="#C0_0_874e62266b" y="32.27642"/>
    </g>
    <g clip-path="url(#p2cfeca3adf)">
     <use style="fill:#bfcf69;fill-opacity:0.6;" x="76.080056" xlink:href="#C0_0_874e62266b" y="50.542597"/>
    </g>
    <g clip-path="url(#p2cfeca3adf)">
     <use style="fill:#0c2c84;fill-opacity:0.6;" x="60.609384" xlink:href="#C0_0_874e62266b" y="45.222082"/>
    </g>
    <g clip-path="url(#p2cfeca3adf)">
     <use style="fill:#bfcf69;fill-opacity:0.6;" x="78.721633" xlink:href="#C0_0_874e62266b" y="54.360102"/>
    </g>
    <g clip-path="url(#p2cfeca3adf)">
     <use style="fill:#64b09e;fill-opacity:0.6;" x="69.396736" xlink:href="#C0_0_874e62266b" y="51.017643"/>
    </g>
    <g clip-path="url(#p2cfeca3adf)">
     <use style="fill:#0c2c84;fill-opacity:0.6;" x="56.870066" xlink:href="#C0_0_874e62266b" y="42.626292"/>
    </g>
    <g clip-path="url(#p2cfeca3adf)">
     <use style="fill:#bfcf69;fill-opacity:0.6;" x="81.310369" xlink:href="#C0_0_874e62266b" y="50.752766"/>
    </g>
    <g clip-path="url(#p2cfeca3adf)">
     <use style="fill:#0c2c84;fill-opacity:0.6;" x="57.248194" xlink:href="#C0_0_874e62266b" y="39.494759"/>
    </g>
    <g clip-path="url(#p2cfeca3adf)">
     <use style="fill:#bfcf69;fill-opacity:0.6;" x="91.953526" xlink:href="#C0_0_874e62266b" y="55.749149"/>
    </g>
    <g clip-path="url(#p2cfeca3adf)">
     <use style="fill:#bfcf69;fill-opacity:0.6;" x="91.108523" xlink:href="#C0_0_874e62266b" y="41.640047"/>
    </g>
    <g clip-path="url(#p2cfeca3adf)">
     <use style="fill:#0c2c84;fill-opacity:0.6;" x="53.62681" xlink:href="#C0_0_874e62266b" y="28.982023"/>
    </g>
    <g clip-path="url(#p2cfeca3adf)">
     <use style="fill:#bfcf69;fill-opacity:0.6;" x="76.481686" xlink:href="#C0_0_874e62266b" y="47.890056"/>
    </g>
    <g clip-path="url(#p2cfeca3adf)">
     <use style="fill:#bfcf69;fill-opacity:0.6;" x="85.022121" xlink:href="#C0_0_874e62266b" y="39.21238"/>
    </g>
    <g clip-path="url(#p2cfeca3adf)">
     <use style="fill:#64b09e;fill-opacity:0.6;" x="66.889951" xlink:href="#C0_0_874e62266b" y="52.48222"/>
    </g>
    <g clip-path="url(#p2cfeca3adf)">
     <use style="fill:#bfcf69;fill-opacity:0.6;" x="121.922486" xlink:href="#C0_0_874e62266b" y="9.670909"/>
    </g>
    <g clip-path="url(#p2cfeca3adf)">
     <use style="fill:#bfcf69;fill-opacity:0.6;" x="77.813448" xlink:href="#C0_0_874e62266b" y="47.976547"/>
    </g>
    <g clip-path="url(#p2cfeca3adf)">
     <use style="fill:#0c2c84;fill-opacity:0.6;" x="57.6474" xlink:href="#C0_0_874e62266b" y="50.458411"/>
    </g>
   </g>
   <g id="matplotlib.axis_1">
    <g id="xtick_1">
     <g id="line2d_1">
      <defs>
       <path d="M 0 0 
L 0 3.5 
" id="m52e9e08669" style="stroke:#000000;stroke-width:0.8;"/>
      </defs>
      <g>
       <use style="stroke:#000000;stroke-width:0.8;" x="68.95519" xlink:href="#m52e9e08669" y="61.56"/>
      </g>
     </g>
     <g id="text_1">
      <!-- 0 -->
      <g transform="translate(66.20519 76.194688)scale(0.11 -0.11)">
       <defs>
        <path d="M 250 2048 
Q 250 2989 486 3501 
Q 819 4262 1600 4262 
Q 1766 4262 1939 4217 
Q 2112 4173 2333 4000 
Q 2554 3827 2688 3546 
Q 2944 3002 2944 2048 
Q 2944 1114 2707 602 
Q 2362 -141 1594 -141 
Q 1306 -141 1014 6 
Q 723 154 538 506 
Q 250 1037 250 2048 
z
M 781 2125 
Q 781 1158 851 774 
Q 928 358 1142 179 
Q 1357 0 1594 0 
Q 1850 0 2064 192 
Q 2278 384 2342 800 
Q 2413 1210 2413 2125 
Q 2413 3014 2349 3373 
Q 2266 3789 2042 3955 
Q 1818 4122 1594 4122 
Q 1510 4122 1420 4096 
Q 1331 4070 1203 4000 
Q 1075 3930 976 3750 
Q 877 3571 832 3302 
Q 781 2957 781 2125 
z
" id="CMUSerif-Roman-30" transform="scale(0.015625)"/>
       </defs>
       <use xlink:href="#CMUSerif-Roman-30"/>
      </g>
     </g>
    </g>
    <g id="xtick_2">
     <g id="line2d_2">
      <g>
       <use style="stroke:#000000;stroke-width:0.8;" x="108.232267" xlink:href="#m52e9e08669" y="61.56"/>
      </g>
     </g>
     <g id="text_2">
      <!-- 10 -->
      <g transform="translate(102.732267 76.194688)scale(0.11 -0.11)">
       <defs>
        <path d="M 570 3654 
L 570 3853 
Q 1338 3853 1734 4262 
Q 1843 4262 1862 4236 
Q 1882 4211 1882 4096 
L 1882 506 
Q 1882 314 1974 256 
Q 2067 198 2477 198 
L 2682 198 
L 2682 0 
Q 2458 19 1645 19 
Q 832 19 608 0 
L 608 198 
L 813 198 
Q 1216 198 1312 256 
Q 1408 314 1408 506 
L 1408 3821 
Q 1075 3654 570 3654 
z
" id="CMUSerif-Roman-31" transform="scale(0.015625)"/>
       </defs>
       <use xlink:href="#CMUSerif-Roman-31"/>
       <use x="49.999985" xlink:href="#CMUSerif-Roman-30"/>
      </g>
     </g>
    </g>
    <g id="text_3">
     <!-- PC1 -->
     <g transform="translate(73.415859 89.964062)scale(0.11 -0.11)">
      <defs>
       <path d="M 224 0 
L 224 198 
L 378 198 
Q 723 198 803 256 
Q 883 314 883 499 
L 883 3872 
Q 883 4058 803 4115 
Q 723 4173 378 4173 
L 224 4173 
L 224 4371 
L 2483 4371 
Q 3130 4371 3562 4016 
Q 3994 3661 3994 3181 
Q 3994 2707 3555 2364 
Q 3117 2022 2534 2022 
L 1453 2022 
L 1453 499 
Q 1453 314 1533 256 
Q 1613 198 1958 198 
L 2112 198 
L 2112 0 
Q 1888 19 1165 19 
Q 448 19 224 0 
z
M 1434 2189 
L 2317 2189 
Q 2605 2189 2813 2269 
Q 3021 2349 3117 2448 
Q 3213 2547 3267 2707 
Q 3322 2867 3328 2956 
Q 3334 3046 3334 3181 
Q 3334 3322 3328 3411 
Q 3322 3501 3267 3661 
Q 3213 3821 3117 3920 
Q 3021 4019 2813 4096 
Q 2605 4173 2317 4173 
L 1747 4173 
Q 1530 4173 1482 4128 
Q 1434 4083 1434 3917 
L 1434 2189 
z
" id="CMUSerif-Roman-50" transform="scale(0.015625)"/>
       <path d="M 358 2189 
Q 358 3155 1017 3833 
Q 1677 4512 2586 4512 
Q 2867 4512 3116 4409 
Q 3366 4307 3481 4217 
Q 3597 4128 3763 3962 
L 4083 4435 
Q 4134 4512 4185 4512 
Q 4237 4512 4246 4483 
Q 4256 4454 4256 4358 
L 4256 2842 
Q 4256 2739 4243 2713 
Q 4230 2688 4154 2688 
Q 4090 2688 4077 2707 
Q 4064 2726 4051 2797 
Q 3955 3488 3571 3901 
Q 3187 4314 2656 4314 
Q 2502 4314 2332 4278 
Q 2163 4243 1916 4112 
Q 1670 3981 1481 3763 
Q 1293 3546 1155 3136 
Q 1018 2726 1018 2182 
Q 1018 1645 1155 1232 
Q 1293 819 1481 604 
Q 1670 390 1916 259 
Q 2163 128 2336 93 
Q 2509 58 2662 58 
Q 3213 58 3635 448 
Q 4058 838 4096 1498 
Q 4102 1530 4102 1542 
Q 4102 1555 4108 1571 
Q 4115 1587 4131 1593 
Q 4147 1600 4173 1600 
Q 4256 1600 4256 1491 
Q 4256 883 3789 371 
Q 3322 -141 2586 -141 
Q 1677 -141 1017 534 
Q 358 1210 358 2189 
z
" id="CMUSerif-Roman-43" transform="scale(0.015625)"/>
      </defs>
      <use xlink:href="#CMUSerif-Roman-50"/>
      <use x="67.999985" xlink:href="#CMUSerif-Roman-43"/>
      <use x="140.199966" xlink:href="#CMUSerif-Roman-31"/>
     </g>
    </g>
   </g>
   <g id="matplotlib.axis_2">
    <g id="ytick_1">
     <g id="line2d_3">
      <defs>
       <path d="M 0 0 
L -3.5 0 
" id="m7d4d08742b" style="stroke:#000000;stroke-width:0.8;"/>
      </defs>
      <g>
       <use style="stroke:#000000;stroke-width:0.8;" x="42.027031" xlink:href="#m7d4d08742b" y="60.935696"/>
      </g>
     </g>
     <g id="text_4">
      <!-- −5 -->
      <g transform="translate(20.969375 64.75304)scale(0.11 -0.11)">
       <defs>
        <path d="M 365 1594 
Q 365 1670 493 1670 
L 4416 1670 
Q 4422 1670 4451 1670 
Q 4480 1670 4489 1670 
Q 4499 1670 4521 1670 
Q 4544 1670 4553 1664 
Q 4563 1658 4576 1651 
Q 4589 1645 4595 1632 
Q 4602 1619 4602 1600 
Q 4602 1523 4435 1523 
L 4422 1523 
Q 4403 1523 4368 1526 
Q 4333 1530 4314 1530 
L 710 1530 
Q 685 1530 637 1526 
Q 589 1523 563 1523 
L 531 1523 
Q 365 1523 365 1594 
z
" id="CMUSerif-Roman-2212" transform="scale(0.015625)"/>
        <path d="M 320 1030 
Q 320 1222 422 1296 
Q 525 1370 634 1370 
Q 781 1370 867 1277 
Q 954 1184 954 1056 
Q 954 928 867 835 
Q 781 742 634 742 
Q 563 742 525 755 
Q 608 461 867 249 
Q 1126 38 1466 38 
Q 1894 38 2150 454 
Q 2304 723 2304 1331 
Q 2304 1869 2189 2138 
Q 2010 2547 1645 2547 
Q 1126 2547 819 2099 
Q 781 2042 736 2042 
Q 672 2042 659 2077 
Q 646 2112 646 2208 
L 646 4102 
Q 646 4256 710 4256 
Q 736 4256 787 4237 
Q 1190 4058 1638 4058 
Q 2099 4058 2509 4243 
Q 2541 4262 2560 4262 
Q 2624 4262 2624 4192 
Q 2624 4166 2573 4092 
Q 2522 4019 2413 3923 
Q 2304 3827 2163 3737 
Q 2022 3648 1817 3587 
Q 1613 3526 1389 3526 
Q 1120 3526 845 3610 
L 845 2362 
Q 1178 2688 1658 2688 
Q 2170 2688 2522 2275 
Q 2874 1862 2874 1286 
Q 2874 685 2458 272 
Q 2042 -141 1478 -141 
Q 966 -141 643 224 
Q 320 589 320 1030 
z
" id="CMUSerif-Roman-35" transform="scale(0.015625)"/>
       </defs>
       <use xlink:href="#CMUSerif-Roman-2212"/>
       <use x="77.799988" xlink:href="#CMUSerif-Roman-35"/>
      </g>
     </g>
    </g>
    <g id="ytick_2">
     <g id="line2d_4">
      <g>
       <use style="stroke:#000000;stroke-width:0.8;" x="42.027031" xlink:href="#m7d4d08742b" y="42.197195"/>
      </g>
     </g>
     <g id="text_5">
      <!-- 0 -->
      <g transform="translate(29.527031 46.014539)scale(0.11 -0.11)">
       <use xlink:href="#CMUSerif-Roman-30"/>
      </g>
     </g>
    </g>
    <g id="ytick_3">
     <g id="line2d_5">
      <g>
       <use style="stroke:#000000;stroke-width:0.8;" x="42.027031" xlink:href="#m7d4d08742b" y="23.458694"/>
      </g>
     </g>
     <g id="text_6">
      <!-- 5 -->
      <g transform="translate(29.527031 27.276038)scale(0.11 -0.11)">
       <use xlink:href="#CMUSerif-Roman-35"/>
      </g>
     </g>
    </g>
    <g id="text_7">
     <!-- PC2 -->
     <g transform="translate(14.834687 44.841172)rotate(-90)scale(0.11 -0.11)">
      <defs>
       <path d="M 320 0 
Q 320 115 329 150 
Q 339 186 390 237 
L 1619 1606 
Q 2291 2362 2291 3021 
Q 2291 3450 2067 3757 
Q 1843 4064 1434 4064 
Q 1152 4064 915 3891 
Q 678 3718 570 3411 
Q 589 3418 653 3418 
Q 813 3418 902 3318 
Q 992 3219 992 3085 
Q 992 2912 880 2829 
Q 768 2746 659 2746 
Q 614 2746 556 2755 
Q 499 2765 409 2854 
Q 320 2944 320 3104 
Q 320 3552 659 3907 
Q 998 4262 1517 4262 
Q 2106 4262 2490 3913 
Q 2874 3565 2874 3021 
Q 2874 2829 2816 2656 
Q 2758 2483 2681 2348 
Q 2605 2214 2400 2000 
Q 2195 1786 2028 1632 
Q 1862 1478 1491 1152 
L 813 493 
L 1965 493 
Q 2528 493 2573 544 
Q 2637 634 2714 1114 
L 2874 1114 
L 2694 0 
L 320 0 
z
" id="CMUSerif-Roman-32" transform="scale(0.015625)"/>
      </defs>
      <use xlink:href="#CMUSerif-Roman-50"/>
      <use x="67.999985" xlink:href="#CMUSerif-Roman-43"/>
      <use x="140.199966" xlink:href="#CMUSerif-Roman-32"/>
     </g>
    </g>
   </g>
   <g id="patch_3">
    <path d="M 42.027031 61.56 
L 42.027031 7.2 
" style="fill:none;stroke:#000000;stroke-linecap:square;stroke-linejoin:miter;stroke-width:0.8;"/>
   </g>
   <g id="patch_4">
    <path d="M 42.027031 61.56 
L 125.727031 61.56 
" style="fill:none;stroke:#000000;stroke-linecap:square;stroke-linejoin:miter;stroke-width:0.8;"/>
   </g>
   <g id="legend_1">
    <g id="line2d_6"/>
    <g id="line2d_7">
     <defs>
      <path d="M 0 2.5 
C 0.663008 2.5 1.29895 2.236584 1.767767 1.767767 
C 2.236584 1.29895 2.5 0.663008 2.5 0 
C 2.5 -0.663008 2.236584 -1.29895 1.767767 -1.767767 
C 1.29895 -2.236584 0.663008 -2.5 0 -2.5 
C -0.663008 -2.5 -1.29895 -2.236584 -1.767767 -1.767767 
C -2.236584 -1.29895 -2.5 -0.663008 -2.5 0 
C -2.5 0.663008 -2.236584 1.29895 -1.767767 1.767767 
C -1.29895 2.236584 -0.663008 2.5 0 2.5 
z
" id="m8b8c082fea"/>
     </defs>
     <g>
      <use style="fill:#0c2c84;fill-opacity:0.6;" x="138.257031" xlink:href="#m8b8c082fea" y="17.977969"/>
     </g>
    </g>
    <g id="text_8">
     <!-- cluster 0 -->
     <g transform="translate(158.057031 21.827969)scale(0.11 -0.11)">
      <defs>
       <path d="M 624 352 
Q 218 774 218 1382 
Q 218 1990 618 2428 
Q 1018 2867 1606 2867 
Q 1997 2867 2291 2681 
Q 2586 2496 2586 2182 
Q 2586 2042 2502 1962 
Q 2419 1882 2291 1882 
Q 2157 1882 2077 1965 
Q 1997 2048 1997 2176 
Q 1997 2234 2016 2288 
Q 2035 2342 2105 2403 
Q 2176 2464 2298 2470 
Q 2067 2707 1613 2707 
Q 1286 2707 1017 2400 
Q 749 2093 749 1395 
Q 749 1030 838 761 
Q 928 493 1075 355 
Q 1222 218 1366 154 
Q 1510 90 1651 90 
Q 2278 90 2490 762 
Q 2509 826 2573 826 
Q 2656 826 2656 762 
Q 2656 730 2630 650 
Q 2605 570 2528 442 
Q 2451 314 2339 202 
Q 2227 90 2032 10 
Q 1837 -70 1594 -70 
Q 1030 -70 624 352 
z
" id="CMUSerif-Roman-63" transform="scale(0.015625)"/>
       <path d="M 211 0 
L 211 198 
Q 550 198 630 240 
Q 710 282 710 486 
L 710 3814 
Q 710 4051 627 4112 
Q 544 4173 211 4173 
L 211 4371 
L 1133 4442 
L 1133 486 
Q 1133 282 1213 240 
Q 1293 198 1632 198 
L 1632 0 
Q 1555 0 1392 6 
Q 1229 13 1110 16 
Q 992 19 922 19 
Q 845 19 211 0 
z
" id="CMUSerif-Roman-6c" transform="scale(0.015625)"/>
       <path d="M 205 2560 
L 205 2758 
L 1146 2829 
L 1146 704 
Q 1146 550 1158 460 
Q 1171 371 1222 268 
Q 1274 166 1395 118 
Q 1517 70 1709 70 
Q 2054 70 2268 355 
Q 2483 640 2483 1062 
L 2483 2202 
Q 2483 2438 2400 2499 
Q 2317 2560 1984 2560 
L 1984 2758 
L 2925 2829 
L 2925 557 
Q 2925 320 3008 259 
Q 3091 198 3424 198 
L 3424 0 
L 2502 -70 
L 2502 506 
Q 2234 -70 1677 -70 
Q 1395 -70 1203 0 
Q 1011 70 915 160 
Q 819 250 768 422 
Q 717 595 710 700 
Q 704 806 704 1011 
L 704 1971 
Q 704 2406 640 2483 
Q 576 2560 205 2560 
z
" id="CMUSerif-Roman-75" transform="scale(0.015625)"/>
       <path d="M 211 83 
L 211 928 
Q 211 998 214 1024 
Q 218 1050 237 1069 
Q 256 1088 294 1088 
Q 339 1088 355 1069 
Q 371 1050 384 979 
Q 480 538 688 304 
Q 896 70 1274 70 
Q 1632 70 1814 230 
Q 1997 390 1997 653 
Q 1997 1120 1331 1242 
Q 947 1318 787 1369 
Q 627 1421 486 1536 
Q 211 1760 211 2080 
Q 211 2400 454 2633 
Q 698 2867 1235 2867 
Q 1594 2867 1837 2688 
Q 1907 2746 1946 2790 
Q 2029 2867 2074 2867 
Q 2125 2867 2134 2835 
Q 2144 2803 2144 2714 
L 2144 2067 
Q 2144 1997 2141 1971 
Q 2138 1946 2118 1930 
Q 2099 1914 2061 1914 
Q 1990 1914 1984 1971 
Q 1933 2746 1235 2746 
Q 858 2746 688 2602 
Q 518 2458 518 2259 
Q 518 2150 569 2067 
Q 621 1984 688 1936 
Q 755 1888 880 1843 
Q 1005 1798 1081 1782 
Q 1158 1766 1306 1734 
Q 1818 1638 2035 1427 
Q 2304 1158 2304 819 
Q 2304 442 2048 186 
Q 1792 -70 1274 -70 
Q 858 -70 570 205 
Q 531 166 502 134 
Q 474 102 464 89 
Q 454 77 451 70 
Q 448 64 442 58 
Q 314 -70 282 -70 
Q 230 -70 220 -38 
Q 211 -6 211 83 
z
" id="CMUSerif-Roman-73" transform="scale(0.015625)"/>
       <path d="M 122 2560 
L 122 2701 
Q 416 2714 611 2922 
Q 806 3130 873 3386 
Q 941 3642 947 3936 
L 1107 3936 
L 1107 2758 
L 2022 2758 
L 2022 2560 
L 1107 2560 
L 1107 781 
Q 1107 90 1536 90 
Q 1722 90 1843 278 
Q 1965 467 1965 806 
L 1965 1158 
L 2125 1158 
L 2125 794 
Q 2125 448 1965 189 
Q 1805 -70 1491 -70 
Q 1376 -70 1261 -41 
Q 1146 -13 998 64 
Q 851 141 758 329 
Q 666 518 666 794 
L 666 2560 
L 122 2560 
z
" id="CMUSerif-Roman-74" transform="scale(0.015625)"/>
       <path d="M 179 1408 
Q 179 2010 566 2438 
Q 954 2867 1510 2867 
Q 2074 2867 2365 2502 
Q 2656 2138 2656 1613 
Q 2656 1517 2630 1497 
Q 2605 1478 2496 1478 
L 710 1478 
Q 710 826 902 518 
Q 1171 90 1626 90 
Q 1690 90 1763 102 
Q 1837 115 1990 169 
Q 2144 224 2278 371 
Q 2413 518 2490 749 
Q 2509 838 2573 838 
Q 2656 838 2656 762 
Q 2656 704 2595 579 
Q 2534 454 2419 304 
Q 2304 154 2080 42 
Q 1856 -70 1587 -70 
Q 1024 -70 601 355 
Q 179 781 179 1408 
z
M 717 1613 
L 2234 1613 
Q 2234 1747 2211 1897 
Q 2189 2048 2121 2256 
Q 2054 2464 1897 2595 
Q 1741 2726 1510 2726 
Q 1408 2726 1296 2681 
Q 1184 2637 1049 2531 
Q 915 2426 822 2186 
Q 730 1946 717 1613 
z
" id="CMUSerif-Roman-65" transform="scale(0.015625)"/>
       <path d="M 179 0 
L 179 198 
Q 518 198 598 240 
Q 678 282 678 486 
L 678 2202 
Q 678 2438 595 2499 
Q 512 2560 179 2560 
L 179 2758 
L 1069 2829 
L 1069 2125 
Q 1158 2400 1350 2614 
Q 1542 2829 1856 2829 
Q 2061 2829 2195 2713 
Q 2330 2598 2330 2438 
Q 2330 2298 2243 2227 
Q 2157 2157 2054 2157 
Q 1939 2157 1859 2230 
Q 1779 2304 1779 2432 
Q 1779 2509 1814 2569 
Q 1850 2630 1878 2652 
Q 1907 2675 1926 2682 
Q 1914 2688 1856 2688 
Q 1504 2688 1302 2336 
Q 1101 1984 1101 1485 
L 1101 499 
Q 1101 314 1177 256 
Q 1254 198 1587 198 
L 1722 198 
L 1722 0 
Q 1466 19 909 19 
Q 832 19 710 16 
Q 589 13 429 6 
Q 269 0 179 0 
z
" id="CMUSerif-Roman-72" transform="scale(0.015625)"/>
       <path id="CMUSerif-Roman-20" transform="scale(0.015625)"/>
      </defs>
      <use xlink:href="#CMUSerif-Roman-63"/>
      <use x="44.399994" xlink:href="#CMUSerif-Roman-6c"/>
      <use x="72.099991" xlink:href="#CMUSerif-Roman-75"/>
      <use x="127.599976" xlink:href="#CMUSerif-Roman-73"/>
      <use x="166.999969" xlink:href="#CMUSerif-Roman-74"/>
      <use x="205.799957" xlink:href="#CMUSerif-Roman-65"/>
      <use x="250.199951" xlink:href="#CMUSerif-Roman-72"/>
      <use x="289.299942" xlink:href="#CMUSerif-Roman-20"/>
      <use x="322.59993" xlink:href="#CMUSerif-Roman-30"/>
     </g>
    </g>
    <g id="line2d_8"/>
    <g id="line2d_9">
     <defs>
      <path d="M 0 2.5 
C 0.663008 2.5 1.29895 2.236584 1.767767 1.767767 
C 2.236584 1.29895 2.5 0.663008 2.5 0 
C 2.5 -0.663008 2.236584 -1.29895 1.767767 -1.767767 
C 1.29895 -2.236584 0.663008 -2.5 0 -2.5 
C -0.663008 -2.5 -1.29895 -2.236584 -1.767767 -1.767767 
C -2.236584 -1.29895 -2.5 -0.663008 -2.5 0 
C -2.5 0.663008 -2.236584 1.29895 -1.767767 1.767767 
C -1.29895 2.236584 -0.663008 2.5 0 2.5 
z
" id="m615c735829"/>
     </defs>
     <g>
      <use style="fill:#64b09e;fill-opacity:0.6;" x="138.257031" xlink:href="#m615c735829" y="33.312656"/>
     </g>
    </g>
    <g id="text_9">
     <!-- cluster 1 -->
     <g transform="translate(158.057031 37.162656)scale(0.11 -0.11)">
      <use xlink:href="#CMUSerif-Roman-63"/>
      <use x="44.399994" xlink:href="#CMUSerif-Roman-6c"/>
      <use x="72.099991" xlink:href="#CMUSerif-Roman-75"/>
      <use x="127.599976" xlink:href="#CMUSerif-Roman-73"/>
      <use x="166.999969" xlink:href="#CMUSerif-Roman-74"/>
      <use x="205.799957" xlink:href="#CMUSerif-Roman-65"/>
      <use x="250.199951" xlink:href="#CMUSerif-Roman-72"/>
      <use x="289.299942" xlink:href="#CMUSerif-Roman-20"/>
      <use x="322.59993" xlink:href="#CMUSerif-Roman-31"/>
     </g>
    </g>
    <g id="line2d_10"/>
    <g id="line2d_11">
     <defs>
      <path d="M 0 2.5 
C 0.663008 2.5 1.29895 2.236584 1.767767 1.767767 
C 2.236584 1.29895 2.5 0.663008 2.5 0 
C 2.5 -0.663008 2.236584 -1.29895 1.767767 -1.767767 
C 1.29895 -2.236584 0.663008 -2.5 0 -2.5 
C -0.663008 -2.5 -1.29895 -2.236584 -1.767767 -1.767767 
C -2.236584 -1.29895 -2.5 -0.663008 -2.5 0 
C -2.5 0.663008 -2.236584 1.29895 -1.767767 1.767767 
C -1.29895 2.236584 -0.663008 2.5 0 2.5 
z
" id="m4ab8daeb98"/>
     </defs>
     <g>
      <use style="fill:#bfcf69;fill-opacity:0.6;" x="138.257031" xlink:href="#m4ab8daeb98" y="48.647344"/>
     </g>
    </g>
    <g id="text_10">
     <!-- cluster 2 -->
     <g transform="translate(158.057031 52.497344)scale(0.11 -0.11)">
      <use xlink:href="#CMUSerif-Roman-63"/>
      <use x="44.399994" xlink:href="#CMUSerif-Roman-6c"/>
      <use x="72.099991" xlink:href="#CMUSerif-Roman-75"/>
      <use x="127.599976" xlink:href="#CMUSerif-Roman-73"/>
      <use x="166.999969" xlink:href="#CMUSerif-Roman-74"/>
      <use x="205.799957" xlink:href="#CMUSerif-Roman-65"/>
      <use x="250.199951" xlink:href="#CMUSerif-Roman-72"/>
      <use x="289.299942" xlink:href="#CMUSerif-Roman-20"/>
      <use x="322.59993" xlink:href="#CMUSerif-Roman-32"/>
     </g>
    </g>
   </g>
  </g>
 </g>
 <defs>
  <clipPath id="p2cfeca3adf">
   <rect height="54.36" width="83.7" x="42.027031" y="7.2"/>
  </clipPath>
 </defs>
</svg>
