<?xml version="1.0" encoding="utf-8" standalone="no"?>
<!DOCTYPE svg PUBLIC "-//W3C//DTD SVG 1.1//EN"
  "http://www.w3.org/Graphics/SVG/1.1/DTD/svg11.dtd">
<!-- Created with matplotlib (https://matplotlib.org/) -->
<svg height="99.346049pt" version="1.1" viewBox="0 0 207.586406 99.346049" width="207.586406pt" xmlns="http://www.w3.org/2000/svg" xmlns:xlink="http://www.w3.org/1999/xlink">
 <defs>
  <style type="text/css">
*{stroke-linecap:butt;stroke-linejoin:round;}
  </style>
 </defs>
 <g id="figure_1">
  <g id="patch_1">
   <path d="M -0 99.346049 
L 207.586406 99.346049 
L 207.586406 0 
L -0 0 
z
" style="fill:#ffffff;"/>
  </g>
  <g id="axes_1">
   <g id="patch_2">
    <path d="M 38.969375 61.607299 
L 122.669375 61.607299 
L 122.669375 7.247299 
L 38.969375 7.247299 
z
" style="fill:#ffffff;"/>
   </g>
   <g id="PathCollection_1">
    <defs>
     <path d="M 0 1.936492 
C 0.513564 1.936492 1.006162 1.732451 1.369306 1.369306 
C 1.732451 1.006162 1.936492 0.513564 1.936492 0 
C 1.936492 -0.513564 1.732451 -1.006162 1.369306 -1.369306 
C 1.006162 -1.732451 0.513564 -1.936492 0 -1.936492 
C -0.513564 -1.936492 -1.006162 -1.732451 -1.369306 -1.369306 
C -1.732451 -1.006162 -1.936492 -0.513564 -1.936492 0 
C -1.936492 0.513564 -1.732451 1.006162 -1.369306 1.369306 
C -1.006162 1.732451 -0.513564 1.936492 0 1.936492 
z
" id="C0_0_ae96d0f8f1"/>
    </defs>
    <g clip-path="url(#pf8ec8283cc)">
     <use style="fill:#0c2c84;fill-opacity:0.6;" x="46.917578" xlink:href="#C0_0_ae96d0f8f1" y="39.345348"/>
    </g>
    <g clip-path="url(#pf8ec8283cc)">
     <use style="fill:#0c2c84;fill-opacity:0.6;" x="48.108814" xlink:href="#C0_0_ae96d0f8f1" y="35.89912"/>
    </g>
    <g clip-path="url(#pf8ec8283cc)">
     <use style="fill:#64b09e;fill-opacity:0.6;" x="60.356599" xlink:href="#C0_0_ae96d0f8f1" y="47.477409"/>
    </g>
    <g clip-path="url(#pf8ec8283cc)">
     <use style="fill:#64b09e;fill-opacity:0.6;" x="59.133526" xlink:href="#C0_0_ae96d0f8f1" y="53.734758"/>
    </g>
    <g clip-path="url(#pf8ec8283cc)">
     <use style="fill:#0c2c84;fill-opacity:0.6;" x="45.315496" xlink:href="#C0_0_ae96d0f8f1" y="43.293315"/>
    </g>
    <g clip-path="url(#pf8ec8283cc)">
     <use style="fill:#64b09e;fill-opacity:0.6;" x="64.330782" xlink:href="#C0_0_ae96d0f8f1" y="49.453813"/>
    </g>
    <g clip-path="url(#pf8ec8283cc)">
     <use style="fill:#0c2c84;fill-opacity:0.6;" x="57.331228" xlink:href="#C0_0_ae96d0f8f1" y="34.292257"/>
    </g>
    <g clip-path="url(#pf8ec8283cc)">
     <use style="fill:#0c2c84;fill-opacity:0.6;" x="58.884885" xlink:href="#C0_0_ae96d0f8f1" y="32.385051"/>
    </g>
    <g clip-path="url(#pf8ec8283cc)">
     <use style="fill:#0c2c84;fill-opacity:0.6;" x="55.381116" xlink:href="#C0_0_ae96d0f8f1" y="42.723496"/>
    </g>
    <g clip-path="url(#pf8ec8283cc)">
     <use style="fill:#0c2c84;fill-opacity:0.6;" x="46.192981" xlink:href="#C0_0_ae96d0f8f1" y="34.658045"/>
    </g>
    <g clip-path="url(#pf8ec8283cc)">
     <use style="fill:#0c2c84;fill-opacity:0.6;" x="51.083218" xlink:href="#C0_0_ae96d0f8f1" y="38.157853"/>
    </g>
    <g clip-path="url(#pf8ec8283cc)">
     <use style="fill:#64b09e;fill-opacity:0.6;" x="63.929014" xlink:href="#C0_0_ae96d0f8f1" y="55.844075"/>
    </g>
    <g clip-path="url(#pf8ec8283cc)">
     <use style="fill:#0c2c84;fill-opacity:0.6;" x="43.973848" xlink:href="#C0_0_ae96d0f8f1" y="32.498036"/>
    </g>
    <g clip-path="url(#pf8ec8283cc)">
     <use style="fill:#0c2c84;fill-opacity:0.6;" x="49.70019" xlink:href="#C0_0_ae96d0f8f1" y="41.417409"/>
    </g>
    <g clip-path="url(#pf8ec8283cc)">
     <use style="fill:#0c2c84;fill-opacity:0.6;" x="50.901919" xlink:href="#C0_0_ae96d0f8f1" y="44.644403"/>
    </g>
    <g clip-path="url(#pf8ec8283cc)">
     <use style="fill:#0c2c84;fill-opacity:0.6;" x="49.085248" xlink:href="#C0_0_ae96d0f8f1" y="45.374119"/>
    </g>
    <g clip-path="url(#pf8ec8283cc)">
     <use style="fill:#0c2c84;fill-opacity:0.6;" x="47.729816" xlink:href="#C0_0_ae96d0f8f1" y="44.584889"/>
    </g>
    <g clip-path="url(#pf8ec8283cc)">
     <use style="fill:#64b09e;fill-opacity:0.6;" x="62.496907" xlink:href="#C0_0_ae96d0f8f1" y="49.719295"/>
    </g>
    <g clip-path="url(#pf8ec8283cc)">
     <use style="fill:#0c2c84;fill-opacity:0.6;" x="59.946504" xlink:href="#C0_0_ae96d0f8f1" y="43.674258"/>
    </g>
    <g clip-path="url(#pf8ec8283cc)">
     <use style="fill:#64b09e;fill-opacity:0.6;" x="66.389416" xlink:href="#C0_0_ae96d0f8f1" y="45.257584"/>
    </g>
    <g clip-path="url(#pf8ec8283cc)">
     <use style="fill:#64b09e;fill-opacity:0.6;" x="62.769203" xlink:href="#C0_0_ae96d0f8f1" y="50.418542"/>
    </g>
    <g clip-path="url(#pf8ec8283cc)">
     <use style="fill:#0c2c84;fill-opacity:0.6;" x="53.697585" xlink:href="#C0_0_ae96d0f8f1" y="48.588585"/>
    </g>
    <g clip-path="url(#pf8ec8283cc)">
     <use style="fill:#0c2c84;fill-opacity:0.6;" x="48.741738" xlink:href="#C0_0_ae96d0f8f1" y="33.284428"/>
    </g>
    <g clip-path="url(#pf8ec8283cc)">
     <use style="fill:#64b09e;fill-opacity:0.6;" x="61.369465" xlink:href="#C0_0_ae96d0f8f1" y="52.635798"/>
    </g>
    <g clip-path="url(#pf8ec8283cc)">
     <use style="fill:#64b09e;fill-opacity:0.6;" x="61.694629" xlink:href="#C0_0_ae96d0f8f1" y="48.592021"/>
    </g>
    <g clip-path="url(#pf8ec8283cc)">
     <use style="fill:#64b09e;fill-opacity:0.6;" x="58.971684" xlink:href="#C0_0_ae96d0f8f1" y="49.275732"/>
    </g>
    <g clip-path="url(#pf8ec8283cc)">
     <use style="fill:#bfcf69;fill-opacity:0.6;" x="72.549797" xlink:href="#C0_0_ae96d0f8f1" y="50.061458"/>
    </g>
    <g clip-path="url(#pf8ec8283cc)">
     <use style="fill:#0c2c84;fill-opacity:0.6;" x="56.010993" xlink:href="#C0_0_ae96d0f8f1" y="43.308947"/>
    </g>
    <g clip-path="url(#pf8ec8283cc)">
     <use style="fill:#0c2c84;fill-opacity:0.6;" x="44.948539" xlink:href="#C0_0_ae96d0f8f1" y="42.20046"/>
    </g>
    <g clip-path="url(#pf8ec8283cc)">
     <use style="fill:#0c2c84;fill-opacity:0.6;" x="48.328006" xlink:href="#C0_0_ae96d0f8f1" y="42.0427"/>
    </g>
    <g clip-path="url(#pf8ec8283cc)">
     <use style="fill:#0c2c84;fill-opacity:0.6;" x="47.917439" xlink:href="#C0_0_ae96d0f8f1" y="47.622035"/>
    </g>
    <g clip-path="url(#pf8ec8283cc)">
     <use style="fill:#64b09e;fill-opacity:0.6;" x="67.20217" xlink:href="#C0_0_ae96d0f8f1" y="48.092076"/>
    </g>
    <g clip-path="url(#pf8ec8283cc)">
     <use style="fill:#64b09e;fill-opacity:0.6;" x="63.759875" xlink:href="#C0_0_ae96d0f8f1" y="51.783993"/>
    </g>
    <g clip-path="url(#pf8ec8283cc)">
     <use style="fill:#0c2c84;fill-opacity:0.6;" x="42.77392" xlink:href="#C0_0_ae96d0f8f1" y="43.165697"/>
    </g>
    <g clip-path="url(#pf8ec8283cc)">
     <use style="fill:#0c2c84;fill-opacity:0.6;" x="52.003769" xlink:href="#C0_0_ae96d0f8f1" y="40.144113"/>
    </g>
    <g clip-path="url(#pf8ec8283cc)">
     <use style="fill:#64b09e;fill-opacity:0.6;" x="61.53447" xlink:href="#C0_0_ae96d0f8f1" y="42.677738"/>
    </g>
    <g clip-path="url(#pf8ec8283cc)">
     <use style="fill:#0c2c84;fill-opacity:0.6;" x="53.228397" xlink:href="#C0_0_ae96d0f8f1" y="36.448225"/>
    </g>
    <g clip-path="url(#pf8ec8283cc)">
     <use style="fill:#0c2c84;fill-opacity:0.6;" x="53.7205" xlink:href="#C0_0_ae96d0f8f1" y="46.181183"/>
    </g>
    <g clip-path="url(#pf8ec8283cc)">
     <use style="fill:#0c2c84;fill-opacity:0.6;" x="55.613027" xlink:href="#C0_0_ae96d0f8f1" y="45.190509"/>
    </g>
    <g clip-path="url(#pf8ec8283cc)">
     <use style="fill:#0c2c84;fill-opacity:0.6;" x="50.483684" xlink:href="#C0_0_ae96d0f8f1" y="39.873398"/>
    </g>
    <g clip-path="url(#pf8ec8283cc)">
     <use style="fill:#0c2c84;fill-opacity:0.6;" x="57.24649" xlink:href="#C0_0_ae96d0f8f1" y="50.395467"/>
    </g>
    <g clip-path="url(#pf8ec8283cc)">
     <use style="fill:#0c2c84;fill-opacity:0.6;" x="56.345091" xlink:href="#C0_0_ae96d0f8f1" y="41.510034"/>
    </g>
    <g clip-path="url(#pf8ec8283cc)">
     <use style="fill:#64b09e;fill-opacity:0.6;" x="69.641841" xlink:href="#C0_0_ae96d0f8f1" y="40.161812"/>
    </g>
    <g clip-path="url(#pf8ec8283cc)">
     <use style="fill:#0c2c84;fill-opacity:0.6;" x="58.084049" xlink:href="#C0_0_ae96d0f8f1" y="45.339141"/>
    </g>
    <g clip-path="url(#pf8ec8283cc)">
     <use style="fill:#0c2c84;fill-opacity:0.6;" x="58.070566" xlink:href="#C0_0_ae96d0f8f1" y="43.467606"/>
    </g>
    <g clip-path="url(#pf8ec8283cc)">
     <use style="fill:#64b09e;fill-opacity:0.6;" x="55.617802" xlink:href="#C0_0_ae96d0f8f1" y="49.693878"/>
    </g>
    <g clip-path="url(#pf8ec8283cc)">
     <use style="fill:#0c2c84;fill-opacity:0.6;" x="56.381531" xlink:href="#C0_0_ae96d0f8f1" y="36.306128"/>
    </g>
    <g clip-path="url(#pf8ec8283cc)">
     <use style="fill:#0c2c84;fill-opacity:0.6;" x="62.614853" xlink:href="#C0_0_ae96d0f8f1" y="37.788459"/>
    </g>
    <g clip-path="url(#pf8ec8283cc)">
     <use style="fill:#0c2c84;fill-opacity:0.6;" x="46.547369" xlink:href="#C0_0_ae96d0f8f1" y="50.750689"/>
    </g>
    <g clip-path="url(#pf8ec8283cc)">
     <use style="fill:#0c2c84;fill-opacity:0.6;" x="57.462875" xlink:href="#C0_0_ae96d0f8f1" y="40.168677"/>
    </g>
    <g clip-path="url(#pf8ec8283cc)">
     <use style="fill:#64b09e;fill-opacity:0.6;" x="58.74822" xlink:href="#C0_0_ae96d0f8f1" y="47.361891"/>
    </g>
    <g clip-path="url(#pf8ec8283cc)">
     <use style="fill:#0c2c84;fill-opacity:0.6;" x="57.263736" xlink:href="#C0_0_ae96d0f8f1" y="47.707472"/>
    </g>
    <g clip-path="url(#pf8ec8283cc)">
     <use style="fill:#64b09e;fill-opacity:0.6;" x="62.887809" xlink:href="#C0_0_ae96d0f8f1" y="50.409263"/>
    </g>
    <g clip-path="url(#pf8ec8283cc)">
     <use style="fill:#bfcf69;fill-opacity:0.6;" x="74.210897" xlink:href="#C0_0_ae96d0f8f1" y="31.63448"/>
    </g>
    <g clip-path="url(#pf8ec8283cc)">
     <use style="fill:#0c2c84;fill-opacity:0.6;" x="54.980656" xlink:href="#C0_0_ae96d0f8f1" y="40.702059"/>
    </g>
    <g clip-path="url(#pf8ec8283cc)">
     <use style="fill:#64b09e;fill-opacity:0.6;" x="65.473398" xlink:href="#C0_0_ae96d0f8f1" y="47.308517"/>
    </g>
    <g clip-path="url(#pf8ec8283cc)">
     <use style="fill:#0c2c84;fill-opacity:0.6;" x="55.225597" xlink:href="#C0_0_ae96d0f8f1" y="36.177842"/>
    </g>
    <g clip-path="url(#pf8ec8283cc)">
     <use style="fill:#bfcf69;fill-opacity:0.6;" x="71.87468" xlink:href="#C0_0_ae96d0f8f1" y="53.816951"/>
    </g>
    <g clip-path="url(#pf8ec8283cc)">
     <use style="fill:#64b09e;fill-opacity:0.6;" x="66.490341" xlink:href="#C0_0_ae96d0f8f1" y="53.687686"/>
    </g>
    <g clip-path="url(#pf8ec8283cc)">
     <use style="fill:#0c2c84;fill-opacity:0.6;" x="56.317848" xlink:href="#C0_0_ae96d0f8f1" y="43.009517"/>
    </g>
    <g clip-path="url(#pf8ec8283cc)">
     <use style="fill:#0c2c84;fill-opacity:0.6;" x="59.887775" xlink:href="#C0_0_ae96d0f8f1" y="36.980924"/>
    </g>
    <g clip-path="url(#pf8ec8283cc)">
     <use style="fill:#64b09e;fill-opacity:0.6;" x="58.006852" xlink:href="#C0_0_ae96d0f8f1" y="53.733388"/>
    </g>
    <g clip-path="url(#pf8ec8283cc)">
     <use style="fill:#0c2c84;fill-opacity:0.6;" x="61.978746" xlink:href="#C0_0_ae96d0f8f1" y="34.906204"/>
    </g>
    <g clip-path="url(#pf8ec8283cc)">
     <use style="fill:#64b09e;fill-opacity:0.6;" x="64.653283" xlink:href="#C0_0_ae96d0f8f1" y="47.367571"/>
    </g>
    <g clip-path="url(#pf8ec8283cc)">
     <use style="fill:#0c2c84;fill-opacity:0.6;" x="64.310448" xlink:href="#C0_0_ae96d0f8f1" y="31.39923"/>
    </g>
    <g clip-path="url(#pf8ec8283cc)">
     <use style="fill:#64b09e;fill-opacity:0.6;" x="67.669193" xlink:href="#C0_0_ae96d0f8f1" y="47.072849"/>
    </g>
    <g clip-path="url(#pf8ec8283cc)">
     <use style="fill:#0c2c84;fill-opacity:0.6;" x="58.066102" xlink:href="#C0_0_ae96d0f8f1" y="42.060674"/>
    </g>
    <g clip-path="url(#pf8ec8283cc)">
     <use style="fill:#64b09e;fill-opacity:0.6;" x="58.449978" xlink:href="#C0_0_ae96d0f8f1" y="57.372382"/>
    </g>
    <g clip-path="url(#pf8ec8283cc)">
     <use style="fill:#0c2c84;fill-opacity:0.6;" x="46.38405" xlink:href="#C0_0_ae96d0f8f1" y="35.535587"/>
    </g>
    <g clip-path="url(#pf8ec8283cc)">
     <use style="fill:#0c2c84;fill-opacity:0.6;" x="57.38167" xlink:href="#C0_0_ae96d0f8f1" y="35.86085"/>
    </g>
    <g clip-path="url(#pf8ec8283cc)">
     <use style="fill:#bfcf69;fill-opacity:0.6;" x="78.017035" xlink:href="#C0_0_ae96d0f8f1" y="51.798224"/>
    </g>
    <g clip-path="url(#pf8ec8283cc)">
     <use style="fill:#64b09e;fill-opacity:0.6;" x="65.729344" xlink:href="#C0_0_ae96d0f8f1" y="45.393534"/>
    </g>
    <g clip-path="url(#pf8ec8283cc)">
     <use style="fill:#bfcf69;fill-opacity:0.6;" x="79.224049" xlink:href="#C0_0_ae96d0f8f1" y="46.752312"/>
    </g>
    <g clip-path="url(#pf8ec8283cc)">
     <use style="fill:#0c2c84;fill-opacity:0.6;" x="56.789044" xlink:href="#C0_0_ae96d0f8f1" y="41.72973"/>
    </g>
    <g clip-path="url(#pf8ec8283cc)">
     <use style="fill:#64b09e;fill-opacity:0.6;" x="70.239976" xlink:href="#C0_0_ae96d0f8f1" y="43.031609"/>
    </g>
    <g clip-path="url(#pf8ec8283cc)">
     <use style="fill:#0c2c84;fill-opacity:0.6;" x="55.361751" xlink:href="#C0_0_ae96d0f8f1" y="46.517831"/>
    </g>
    <g clip-path="url(#pf8ec8283cc)">
     <use style="fill:#64b09e;fill-opacity:0.6;" x="69.100647" xlink:href="#C0_0_ae96d0f8f1" y="47.762838"/>
    </g>
    <g clip-path="url(#pf8ec8283cc)">
     <use style="fill:#64b09e;fill-opacity:0.6;" x="61.921802" xlink:href="#C0_0_ae96d0f8f1" y="55.438096"/>
    </g>
    <g clip-path="url(#pf8ec8283cc)">
     <use style="fill:#0c2c84;fill-opacity:0.6;" x="55.266848" xlink:href="#C0_0_ae96d0f8f1" y="47.340409"/>
    </g>
    <g clip-path="url(#pf8ec8283cc)">
     <use style="fill:#0c2c84;fill-opacity:0.6;" x="51.936533" xlink:href="#C0_0_ae96d0f8f1" y="44.068003"/>
    </g>
    <g clip-path="url(#pf8ec8283cc)">
     <use style="fill:#0c2c84;fill-opacity:0.6;" x="55.284226" xlink:href="#C0_0_ae96d0f8f1" y="48.759368"/>
    </g>
    <g clip-path="url(#pf8ec8283cc)">
     <use style="fill:#bfcf69;fill-opacity:0.6;" x="69.463811" xlink:href="#C0_0_ae96d0f8f1" y="55.09804"/>
    </g>
    <g clip-path="url(#pf8ec8283cc)">
     <use style="fill:#bfcf69;fill-opacity:0.6;" x="72.069987" xlink:href="#C0_0_ae96d0f8f1" y="43.71352"/>
    </g>
    <g clip-path="url(#pf8ec8283cc)">
     <use style="fill:#0c2c84;fill-opacity:0.6;" x="61.830393" xlink:href="#C0_0_ae96d0f8f1" y="28.905878"/>
    </g>
    <g clip-path="url(#pf8ec8283cc)">
     <use style="fill:#bfcf69;fill-opacity:0.6;" x="76.430224" xlink:href="#C0_0_ae96d0f8f1" y="35.413813"/>
    </g>
    <g clip-path="url(#pf8ec8283cc)">
     <use style="fill:#64b09e;fill-opacity:0.6;" x="64.189268" xlink:href="#C0_0_ae96d0f8f1" y="41.37509"/>
    </g>
    <g clip-path="url(#pf8ec8283cc)">
     <use style="fill:#64b09e;fill-opacity:0.6;" x="64.265636" xlink:href="#C0_0_ae96d0f8f1" y="45.090919"/>
    </g>
    <g clip-path="url(#pf8ec8283cc)">
     <use style="fill:#64b09e;fill-opacity:0.6;" x="63.819791" xlink:href="#C0_0_ae96d0f8f1" y="57.897852"/>
    </g>
    <g clip-path="url(#pf8ec8283cc)">
     <use style="fill:#bfcf69;fill-opacity:0.6;" x="88.972926" xlink:href="#C0_0_ae96d0f8f1" y="50.980841"/>
    </g>
    <g clip-path="url(#pf8ec8283cc)">
     <use style="fill:#0c2c84;fill-opacity:0.6;" x="66.589883" xlink:href="#C0_0_ae96d0f8f1" y="28.773001"/>
    </g>
    <g clip-path="url(#pf8ec8283cc)">
     <use style="fill:#bfcf69;fill-opacity:0.6;" x="91.352582" xlink:href="#C0_0_ae96d0f8f1" y="46.672456"/>
    </g>
    <g clip-path="url(#pf8ec8283cc)">
     <use style="fill:#0c2c84;fill-opacity:0.6;" x="54.157841" xlink:href="#C0_0_ae96d0f8f1" y="39.234055"/>
    </g>
    <g clip-path="url(#pf8ec8283cc)">
     <use style="fill:#0c2c84;fill-opacity:0.6;" x="53.350163" xlink:href="#C0_0_ae96d0f8f1" y="47.958512"/>
    </g>
    <g clip-path="url(#pf8ec8283cc)">
     <use style="fill:#bfcf69;fill-opacity:0.6;" x="74.857267" xlink:href="#C0_0_ae96d0f8f1" y="54.900379"/>
    </g>
    <g clip-path="url(#pf8ec8283cc)">
     <use style="fill:#64b09e;fill-opacity:0.6;" x="65.106623" xlink:href="#C0_0_ae96d0f8f1" y="41.187938"/>
    </g>
    <g clip-path="url(#pf8ec8283cc)">
     <use style="fill:#64b09e;fill-opacity:0.6;" x="60.396598" xlink:href="#C0_0_ae96d0f8f1" y="53.540881"/>
    </g>
    <g clip-path="url(#pf8ec8283cc)">
     <use style="fill:#64b09e;fill-opacity:0.6;" x="62.730246" xlink:href="#C0_0_ae96d0f8f1" y="47.82664"/>
    </g>
    <g clip-path="url(#pf8ec8283cc)">
     <use style="fill:#bfcf69;fill-opacity:0.6;" x="93.247056" xlink:href="#C0_0_ae96d0f8f1" y="17.455698"/>
    </g>
    <g clip-path="url(#pf8ec8283cc)">
     <use style="fill:#0c2c84;fill-opacity:0.6;" x="58.709976" xlink:href="#C0_0_ae96d0f8f1" y="37.586714"/>
    </g>
    <g clip-path="url(#pf8ec8283cc)">
     <use style="fill:#64b09e;fill-opacity:0.6;" x="64.726413" xlink:href="#C0_0_ae96d0f8f1" y="51.011748"/>
    </g>
    <g clip-path="url(#pf8ec8283cc)">
     <use style="fill:#bfcf69;fill-opacity:0.6;" x="76.753448" xlink:href="#C0_0_ae96d0f8f1" y="51.337216"/>
    </g>
    <g clip-path="url(#pf8ec8283cc)">
     <use style="fill:#bfcf69;fill-opacity:0.6;" x="77.914595" xlink:href="#C0_0_ae96d0f8f1" y="34.330442"/>
    </g>
    <g clip-path="url(#pf8ec8283cc)">
     <use style="fill:#0c2c84;fill-opacity:0.6;" x="63.932627" xlink:href="#C0_0_ae96d0f8f1" y="26.106928"/>
    </g>
    <g clip-path="url(#pf8ec8283cc)">
     <use style="fill:#bfcf69;fill-opacity:0.6;" x="80.546082" xlink:href="#C0_0_ae96d0f8f1" y="51.165591"/>
    </g>
    <g clip-path="url(#pf8ec8283cc)">
     <use style="fill:#bfcf69;fill-opacity:0.6;" x="80.356701" xlink:href="#C0_0_ae96d0f8f1" y="36.487388"/>
    </g>
    <g clip-path="url(#pf8ec8283cc)">
     <use style="fill:#bfcf69;fill-opacity:0.6;" x="82.546355" xlink:href="#C0_0_ae96d0f8f1" y="41.522278"/>
    </g>
    <g clip-path="url(#pf8ec8283cc)">
     <use style="fill:#bfcf69;fill-opacity:0.6;" x="75.384449" xlink:href="#C0_0_ae96d0f8f1" y="40.64044"/>
    </g>
    <g clip-path="url(#pf8ec8283cc)">
     <use style="fill:#bfcf69;fill-opacity:0.6;" x="99.532352" xlink:href="#C0_0_ae96d0f8f1" y="45.279888"/>
    </g>
    <g clip-path="url(#pf8ec8283cc)">
     <use style="fill:#bfcf69;fill-opacity:0.6;" x="87.022607" xlink:href="#C0_0_ae96d0f8f1" y="43.673921"/>
    </g>
    <g clip-path="url(#pf8ec8283cc)">
     <use style="fill:#bfcf69;fill-opacity:0.6;" x="104.610871" xlink:href="#C0_0_ae96d0f8f1" y="49.080141"/>
    </g>
    <g clip-path="url(#pf8ec8283cc)">
     <use style="fill:#0c2c84;fill-opacity:0.6;" x="64.611988" xlink:href="#C0_0_ae96d0f8f1" y="30.377999"/>
    </g>
    <g clip-path="url(#pf8ec8283cc)">
     <use style="fill:#0c2c84;fill-opacity:0.6;" x="52.810667" xlink:href="#C0_0_ae96d0f8f1" y="48.186483"/>
    </g>
    <g clip-path="url(#pf8ec8283cc)">
     <use style="fill:#bfcf69;fill-opacity:0.6;" x="83.66261" xlink:href="#C0_0_ae96d0f8f1" y="52.394761"/>
    </g>
    <g clip-path="url(#pf8ec8283cc)">
     <use style="fill:#bfcf69;fill-opacity:0.6;" x="100.000055" xlink:href="#C0_0_ae96d0f8f1" y="51.364945"/>
    </g>
    <g clip-path="url(#pf8ec8283cc)">
     <use style="fill:#bfcf69;fill-opacity:0.6;" x="80.749174" xlink:href="#C0_0_ae96d0f8f1" y="46.716285"/>
    </g>
    <g clip-path="url(#pf8ec8283cc)">
     <use style="fill:#bfcf69;fill-opacity:0.6;" x="72.307959" xlink:href="#C0_0_ae96d0f8f1" y="44.622738"/>
    </g>
    <g clip-path="url(#pf8ec8283cc)">
     <use style="fill:#bfcf69;fill-opacity:0.6;" x="70.437822" xlink:href="#C0_0_ae96d0f8f1" y="59.136389"/>
    </g>
    <g clip-path="url(#pf8ec8283cc)">
     <use style="fill:#64b09e;fill-opacity:0.6;" x="64.235719" xlink:href="#C0_0_ae96d0f8f1" y="54.436767"/>
    </g>
    <g clip-path="url(#pf8ec8283cc)">
     <use style="fill:#64b09e;fill-opacity:0.6;" x="62.074303" xlink:href="#C0_0_ae96d0f8f1" y="40.675788"/>
    </g>
    <g clip-path="url(#pf8ec8283cc)">
     <use style="fill:#64b09e;fill-opacity:0.6;" x="69.488809" xlink:href="#C0_0_ae96d0f8f1" y="39.578784"/>
    </g>
    <g clip-path="url(#pf8ec8283cc)">
     <use style="fill:#64b09e;fill-opacity:0.6;" x="69.159433" xlink:href="#C0_0_ae96d0f8f1" y="51.41066"/>
    </g>
    <g clip-path="url(#pf8ec8283cc)">
     <use style="fill:#bfcf69;fill-opacity:0.6;" x="96.393115" xlink:href="#C0_0_ae96d0f8f1" y="47.844432"/>
    </g>
    <g clip-path="url(#pf8ec8283cc)">
     <use style="fill:#0c2c84;fill-opacity:0.6;" x="66.092888" xlink:href="#C0_0_ae96d0f8f1" y="34.01768"/>
    </g>
    <g clip-path="url(#pf8ec8283cc)">
     <use style="fill:#bfcf69;fill-opacity:0.6;" x="79.722862" xlink:href="#C0_0_ae96d0f8f1" y="51.676803"/>
    </g>
    <g clip-path="url(#pf8ec8283cc)">
     <use style="fill:#0c2c84;fill-opacity:0.6;" x="55.774919" xlink:href="#C0_0_ae96d0f8f1" y="39.275718"/>
    </g>
    <g clip-path="url(#pf8ec8283cc)">
     <use style="fill:#0c2c84;fill-opacity:0.6;" x="70.774189" xlink:href="#C0_0_ae96d0f8f1" y="33.201223"/>
    </g>
    <g clip-path="url(#pf8ec8283cc)">
     <use style="fill:#bfcf69;fill-opacity:0.6;" x="96.118637" xlink:href="#C0_0_ae96d0f8f1" y="46.754786"/>
    </g>
    <g clip-path="url(#pf8ec8283cc)">
     <use style="fill:#bfcf69;fill-opacity:0.6;" x="74.974668" xlink:href="#C0_0_ae96d0f8f1" y="51.214818"/>
    </g>
    <g clip-path="url(#pf8ec8283cc)">
     <use style="fill:#bfcf69;fill-opacity:0.6;" x="75.778156" xlink:href="#C0_0_ae96d0f8f1" y="47.405814"/>
    </g>
    <g clip-path="url(#pf8ec8283cc)">
     <use style="fill:#64b09e;fill-opacity:0.6;" x="68.709967" xlink:href="#C0_0_ae96d0f8f1" y="51.979508"/>
    </g>
    <g clip-path="url(#pf8ec8283cc)">
     <use style="fill:#0c2c84;fill-opacity:0.6;" x="49.883645" xlink:href="#C0_0_ae96d0f8f1" y="40.884124"/>
    </g>
    <g clip-path="url(#pf8ec8283cc)">
     <use style="fill:#bfcf69;fill-opacity:0.6;" x="70.756635" xlink:href="#C0_0_ae96d0f8f1" y="48.282116"/>
    </g>
    <g clip-path="url(#pf8ec8283cc)">
     <use style="fill:#bfcf69;fill-opacity:0.6;" x="101.64556" xlink:href="#C0_0_ae96d0f8f1" y="31.641094"/>
    </g>
    <g clip-path="url(#pf8ec8283cc)">
     <use style="fill:#bfcf69;fill-opacity:0.6;" x="71.288445" xlink:href="#C0_0_ae96d0f8f1" y="46.425209"/>
    </g>
    <g clip-path="url(#pf8ec8283cc)">
     <use style="fill:#64b09e;fill-opacity:0.6;" x="60.749475" xlink:href="#C0_0_ae96d0f8f1" y="44.85171"/>
    </g>
    <g clip-path="url(#pf8ec8283cc)">
     <use style="fill:#bfcf69;fill-opacity:0.6;" x="86.257078" xlink:href="#C0_0_ae96d0f8f1" y="51.869805"/>
    </g>
    <g clip-path="url(#pf8ec8283cc)">
     <use style="fill:#bfcf69;fill-opacity:0.6;" x="114.106948" xlink:href="#C0_0_ae96d0f8f1" y="35.567807"/>
    </g>
    <g clip-path="url(#pf8ec8283cc)">
     <use style="fill:#64b09e;fill-opacity:0.6;" x="67.923112" xlink:href="#C0_0_ae96d0f8f1" y="52.902824"/>
    </g>
    <g clip-path="url(#pf8ec8283cc)">
     <use style="fill:#bfcf69;fill-opacity:0.6;" x="79.274204" xlink:href="#C0_0_ae96d0f8f1" y="34.842244"/>
    </g>
    <g clip-path="url(#pf8ec8283cc)">
     <use style="fill:#bfcf69;fill-opacity:0.6;" x="78.50313" xlink:href="#C0_0_ae96d0f8f1" y="50.037966"/>
    </g>
    <g clip-path="url(#pf8ec8283cc)">
     <use style="fill:#64b09e;fill-opacity:0.6;" x="62.86694" xlink:href="#C0_0_ae96d0f8f1" y="48.782701"/>
    </g>
    <g clip-path="url(#pf8ec8283cc)">
     <use style="fill:#bfcf69;fill-opacity:0.6;" x="82.762784" xlink:href="#C0_0_ae96d0f8f1" y="54.199803"/>
    </g>
    <g clip-path="url(#pf8ec8283cc)">
     <use style="fill:#bfcf69;fill-opacity:0.6;" x="72.187229" xlink:href="#C0_0_ae96d0f8f1" y="51.460036"/>
    </g>
    <g clip-path="url(#pf8ec8283cc)">
     <use style="fill:#0c2c84;fill-opacity:0.6;" x="57.302538" xlink:href="#C0_0_ae96d0f8f1" y="45.821475"/>
    </g>
    <g clip-path="url(#pf8ec8283cc)">
     <use style="fill:#bfcf69;fill-opacity:0.6;" x="84.09399" xlink:href="#C0_0_ae96d0f8f1" y="50.325541"/>
    </g>
    <g clip-path="url(#pf8ec8283cc)">
     <use style="fill:#0c2c84;fill-opacity:0.6;" x="58.261112" xlink:href="#C0_0_ae96d0f8f1" y="43.533574"/>
    </g>
    <g clip-path="url(#pf8ec8283cc)">
     <use style="fill:#bfcf69;fill-opacity:0.6;" x="95.712848" xlink:href="#C0_0_ae96d0f8f1" y="53.24158"/>
    </g>
    <g clip-path="url(#pf8ec8283cc)">
     <use style="fill:#bfcf69;fill-opacity:0.6;" x="93.432133" xlink:href="#C0_0_ae96d0f8f1" y="42.517924"/>
    </g>
    <g clip-path="url(#pf8ec8283cc)">
     <use style="fill:#0c2c84;fill-opacity:0.6;" x="53.084063" xlink:href="#C0_0_ae96d0f8f1" y="34.8813"/>
    </g>
    <g clip-path="url(#pf8ec8283cc)">
     <use style="fill:#bfcf69;fill-opacity:0.6;" x="78.825797" xlink:href="#C0_0_ae96d0f8f1" y="48.696122"/>
    </g>
    <g clip-path="url(#pf8ec8283cc)">
     <use style="fill:#bfcf69;fill-opacity:0.6;" x="87.240933" xlink:href="#C0_0_ae96d0f8f1" y="40.571635"/>
    </g>
    <g clip-path="url(#pf8ec8283cc)">
     <use style="fill:#bfcf69;fill-opacity:0.6;" x="69.979256" xlink:href="#C0_0_ae96d0f8f1" y="53.490254"/>
    </g>
    <g clip-path="url(#pf8ec8283cc)">
     <use style="fill:#bfcf69;fill-opacity:0.6;" x="118.86483" xlink:href="#C0_0_ae96d0f8f1" y="9.718208"/>
    </g>
    <g clip-path="url(#pf8ec8283cc)">
     <use style="fill:#bfcf69;fill-opacity:0.6;" x="80.498886" xlink:href="#C0_0_ae96d0f8f1" y="49.533165"/>
    </g>
    <g clip-path="url(#pf8ec8283cc)">
     <use style="fill:#64b09e;fill-opacity:0.6;" x="60.290647" xlink:href="#C0_0_ae96d0f8f1" y="53.297023"/>
    </g>
   </g>
   <g id="matplotlib.axis_1">
    <g id="xtick_1">
     <g id="line2d_1">
      <defs>
       <path d="M 0 0 
L 0 3.5 
" id="m56c9c0a347" style="stroke:#000000;stroke-width:0.8;"/>
      </defs>
      <g>
       <use style="stroke:#000000;stroke-width:0.8;" x="66.104451" xlink:href="#m56c9c0a347" y="61.607299"/>
      </g>
     </g>
     <g id="text_1">
      <!-- 0 -->
      <defs>
       <path d="M 3.90625 32 
Q 3.90625 46.703125 7.59375 54.703125 
Q 12.796875 66.59375 25 66.59375 
Q 27.59375 66.59375 30.296875 65.890625 
Q 33 65.203125 36.453125 62.5 
Q 39.90625 59.796875 42 55.40625 
Q 46 46.90625 46 32 
Q 46 17.40625 42.296875 9.40625 
Q 36.90625 -2.203125 24.90625 -2.203125 
Q 20.40625 -2.203125 15.84375 0.09375 
Q 11.296875 2.40625 8.40625 7.90625 
Q 3.90625 16.203125 3.90625 32 
z
M 12.203125 33.203125 
Q 12.203125 18.09375 13.296875 12.09375 
Q 14.5 5.59375 17.84375 2.796875 
Q 21.203125 0 24.90625 0 
Q 28.90625 0 32.25 3 
Q 35.59375 6 36.59375 12.5 
Q 37.703125 18.90625 37.703125 33.203125 
Q 37.703125 47.09375 36.703125 52.703125 
Q 35.40625 59.203125 31.90625 61.796875 
Q 28.40625 64.40625 24.90625 64.40625 
Q 23.59375 64.40625 22.1875 64 
Q 20.796875 63.59375 18.796875 62.5 
Q 16.796875 61.40625 15.25 58.59375 
Q 13.703125 55.796875 13 51.59375 
Q 12.203125 46.203125 12.203125 33.203125 
z
" id="CMUSerif-Roman-48"/>
      </defs>
      <g transform="translate(63.354451 76.241986)scale(0.11 -0.11)">
       <use xlink:href="#CMUSerif-Roman-48"/>
      </g>
     </g>
    </g>
    <g id="xtick_2">
     <g id="line2d_2">
      <g>
       <use style="stroke:#000000;stroke-width:0.8;" x="106.917274" xlink:href="#m56c9c0a347" y="61.607299"/>
      </g>
     </g>
     <g id="text_2">
      <!-- 10 -->
      <defs>
       <path d="M 8.90625 57.09375 
L 8.90625 60.203125 
Q 20.90625 60.203125 27.09375 66.59375 
Q 28.796875 66.59375 29.09375 66.1875 
Q 29.40625 65.796875 29.40625 64 
L 29.40625 7.90625 
Q 29.40625 4.90625 30.84375 4 
Q 32.296875 3.09375 38.703125 3.09375 
L 41.90625 3.09375 
L 41.90625 0 
Q 38.40625 0.296875 25.703125 0.296875 
Q 13 0.296875 9.5 0 
L 9.5 3.09375 
L 12.703125 3.09375 
Q 19 3.09375 20.5 4 
Q 22 4.90625 22 7.90625 
L 22 59.703125 
Q 16.796875 57.09375 8.90625 57.09375 
z
" id="CMUSerif-Roman-49"/>
      </defs>
      <g transform="translate(101.417274 76.241986)scale(0.11 -0.11)">
       <use xlink:href="#CMUSerif-Roman-49"/>
       <use x="49.999985" xlink:href="#CMUSerif-Roman-48"/>
      </g>
     </g>
    </g>
    <g id="text_3">
     <!-- PC1 -->
     <defs>
      <path d="M 3.5 0 
L 3.5 3.09375 
L 5.90625 3.09375 
Q 11.296875 3.09375 12.546875 4 
Q 13.796875 4.90625 13.796875 7.796875 
L 13.796875 60.5 
Q 13.796875 63.40625 12.546875 64.296875 
Q 11.296875 65.203125 5.90625 65.203125 
L 3.5 65.203125 
L 3.5 68.296875 
L 38.796875 68.296875 
Q 48.90625 68.296875 55.65625 62.75 
Q 62.40625 57.203125 62.40625 49.703125 
Q 62.40625 42.296875 55.546875 36.9375 
Q 48.703125 31.59375 39.59375 31.59375 
L 22.703125 31.59375 
L 22.703125 7.796875 
Q 22.703125 4.90625 23.953125 4 
Q 25.203125 3.09375 30.59375 3.09375 
L 33 3.09375 
L 33 0 
Q 29.5 0.296875 18.203125 0.296875 
Q 7 0.296875 3.5 0 
z
M 22.40625 34.203125 
L 36.203125 34.203125 
Q 40.703125 34.203125 43.953125 35.453125 
Q 47.203125 36.703125 48.703125 38.25 
Q 50.203125 39.796875 51.046875 42.296875 
Q 51.90625 44.796875 52 46.1875 
Q 52.09375 47.59375 52.09375 49.703125 
Q 52.09375 51.90625 52 53.296875 
Q 51.90625 54.703125 51.046875 57.203125 
Q 50.203125 59.703125 48.703125 61.25 
Q 47.203125 62.796875 43.953125 64 
Q 40.703125 65.203125 36.203125 65.203125 
L 27.296875 65.203125 
Q 23.90625 65.203125 23.15625 64.5 
Q 22.40625 63.796875 22.40625 61.203125 
z
" id="CMUSerif-Roman-80"/>
      <path d="M 5.59375 34.203125 
Q 5.59375 49.296875 15.890625 59.890625 
Q 26.203125 70.5 40.40625 70.5 
Q 44.796875 70.5 48.6875 68.890625 
Q 52.59375 67.296875 54.390625 65.890625 
Q 56.203125 64.5 58.796875 61.90625 
L 63.796875 69.296875 
Q 64.59375 70.5 65.390625 70.5 
Q 66.203125 70.5 66.34375 70.046875 
Q 66.5 69.59375 66.5 68.09375 
L 66.5 44.40625 
Q 66.5 42.796875 66.296875 42.390625 
Q 66.09375 42 64.90625 42 
Q 63.90625 42 63.703125 42.296875 
Q 63.5 42.59375 63.296875 43.703125 
Q 61.796875 54.5 55.796875 60.953125 
Q 49.796875 67.40625 41.5 67.40625 
Q 39.09375 67.40625 36.4375 66.84375 
Q 33.796875 66.296875 29.9375 64.25 
Q 26.09375 62.203125 23.140625 58.796875 
Q 20.203125 55.40625 18.046875 49 
Q 15.90625 42.59375 15.90625 34.09375 
Q 15.90625 25.703125 18.046875 19.25 
Q 20.203125 12.796875 23.140625 9.4375 
Q 26.09375 6.09375 29.9375 4.046875 
Q 33.796875 2 36.5 1.453125 
Q 39.203125 0.90625 41.59375 0.90625 
Q 50.203125 0.90625 56.796875 7 
Q 63.40625 13.09375 64 23.40625 
Q 64.09375 23.90625 64.09375 24.09375 
Q 64.09375 24.296875 64.1875 24.546875 
Q 64.296875 24.796875 64.546875 24.890625 
Q 64.796875 25 65.203125 25 
Q 66.5 25 66.5 23.296875 
Q 66.5 13.796875 59.203125 5.796875 
Q 51.90625 -2.203125 40.40625 -2.203125 
Q 26.203125 -2.203125 15.890625 8.34375 
Q 5.59375 18.90625 5.59375 34.203125 
z
" id="CMUSerif-Roman-67"/>
     </defs>
     <g transform="translate(70.358203 90.011361)scale(0.11 -0.11)">
      <use xlink:href="#CMUSerif-Roman-80"/>
      <use x="67.999985" xlink:href="#CMUSerif-Roman-67"/>
      <use x="140.199966" xlink:href="#CMUSerif-Roman-49"/>
     </g>
    </g>
   </g>
   <g id="matplotlib.axis_2">
    <g id="ytick_1">
     <g id="line2d_3">
      <defs>
       <path d="M 0 0 
L -3.5 0 
" id="md1827c5f42" style="stroke:#000000;stroke-width:0.8;"/>
      </defs>
      <g>
       <use style="stroke:#000000;stroke-width:0.8;" x="38.969375" xlink:href="#md1827c5f42" y="44.31095"/>
      </g>
     </g>
     <g id="text_4">
      <!-- 0 -->
      <g transform="translate(26.469375 48.128293)scale(0.11 -0.11)">
       <use xlink:href="#CMUSerif-Roman-48"/>
      </g>
     </g>
    </g>
    <g id="ytick_2">
     <g id="line2d_4">
      <g>
       <use style="stroke:#000000;stroke-width:0.8;" x="38.969375" xlink:href="#md1827c5f42" y="11.017344"/>
      </g>
     </g>
     <g id="text_5">
      <!-- 10 -->
      <g transform="translate(20.969375 14.834687)scale(0.11 -0.11)">
       <use xlink:href="#CMUSerif-Roman-49"/>
       <use x="49.999985" xlink:href="#CMUSerif-Roman-48"/>
      </g>
     </g>
    </g>
    <g id="text_6">
     <!-- PC2 -->
     <defs>
      <path d="M 5 0 
Q 5 1.796875 5.140625 2.34375 
Q 5.296875 2.90625 6.09375 3.703125 
L 25.296875 25.09375 
Q 35.796875 36.90625 35.796875 47.203125 
Q 35.796875 53.90625 32.296875 58.703125 
Q 28.796875 63.5 22.40625 63.5 
Q 18 63.5 14.296875 60.796875 
Q 10.59375 58.09375 8.90625 53.296875 
Q 9.203125 53.40625 10.203125 53.40625 
Q 12.703125 53.40625 14.09375 51.84375 
Q 15.5 50.296875 15.5 48.203125 
Q 15.5 45.5 13.75 44.203125 
Q 12 42.90625 10.296875 42.90625 
Q 9.59375 42.90625 8.6875 43.046875 
Q 7.796875 43.203125 6.390625 44.59375 
Q 5 46 5 48.5 
Q 5 55.5 10.296875 61.046875 
Q 15.59375 66.59375 23.703125 66.59375 
Q 32.90625 66.59375 38.90625 61.140625 
Q 44.90625 55.703125 44.90625 47.203125 
Q 44.90625 44.203125 44 41.5 
Q 43.09375 38.796875 41.890625 36.6875 
Q 40.703125 34.59375 37.5 31.25 
Q 34.296875 27.90625 31.6875 25.5 
Q 29.09375 23.09375 23.296875 18 
L 12.703125 7.703125 
L 30.703125 7.703125 
Q 39.5 7.703125 40.203125 8.5 
Q 41.203125 9.90625 42.40625 17.40625 
L 44.90625 17.40625 
L 42.09375 0 
z
" id="CMUSerif-Roman-50"/>
     </defs>
     <g transform="translate(14.834687 44.88847)rotate(-90)scale(0.11 -0.11)">
      <use xlink:href="#CMUSerif-Roman-80"/>
      <use x="67.999985" xlink:href="#CMUSerif-Roman-67"/>
      <use x="140.199966" xlink:href="#CMUSerif-Roman-50"/>
     </g>
    </g>
   </g>
   <g id="patch_3">
    <path d="M 38.969375 61.607299 
L 38.969375 7.247299 
" style="fill:none;stroke:#000000;stroke-linecap:square;stroke-linejoin:miter;stroke-width:0.8;"/>
   </g>
   <g id="patch_4">
    <path d="M 38.969375 61.607299 
L 122.669375 61.607299 
" style="fill:none;stroke:#000000;stroke-linecap:square;stroke-linejoin:miter;stroke-width:0.8;"/>
   </g>
   <g id="legend_1">
    <g id="line2d_5"/>
    <g id="line2d_6">
     <defs>
      <path d="M 0 2.5 
C 0.663008 2.5 1.29895 2.236584 1.767767 1.767767 
C 2.236584 1.29895 2.5 0.663008 2.5 0 
C 2.5 -0.663008 2.236584 -1.29895 1.767767 -1.767767 
C 1.29895 -2.236584 0.663008 -2.5 0 -2.5 
C -0.663008 -2.5 -1.29895 -2.236584 -1.767767 -1.767767 
C -2.236584 -1.29895 -2.5 -0.663008 -2.5 0 
C -2.5 0.663008 -2.236584 1.29895 -1.767767 1.767767 
C -1.29895 2.236584 -0.663008 2.5 0 2.5 
z
" id="m935c7e8043"/>
     </defs>
     <g>
      <use style="fill:#0c2c84;fill-opacity:0.6;" x="135.199375" xlink:href="#m935c7e8043" y="18.025267"/>
     </g>
    </g>
    <g id="text_7">
     <!-- cluster 0 -->
     <defs>
      <path d="M 16.09375 -1.09375 
Q 3.40625 12.09375 3.40625 21.59375 
Q 3.40625 31.09375 9.65625 37.9375 
Q 15.90625 44.796875 25.09375 44.796875 
Q 31.203125 44.796875 35.796875 41.890625 
Q 40.40625 39 40.40625 34.09375 
Q 40.40625 31.90625 39.09375 30.65625 
Q 37.796875 29.40625 35.796875 29.40625 
Q 33.703125 29.40625 32.453125 30.703125 
Q 31.203125 32 31.203125 34 
Q 31.203125 34.90625 31.5 35.75 
Q 31.796875 36.59375 32.890625 37.546875 
Q 34 38.5 35.90625 38.59375 
Q 32.296875 42.296875 25.203125 42.296875 
Q 20.09375 42.296875 15.890625 37.5 
Q 11.703125 32.703125 11.703125 21.796875 
Q 11.703125 16.09375 13.09375 11.890625 
Q 14.5 7.703125 16.796875 5.546875 
Q 19.09375 3.40625 21.34375 2.40625 
Q 23.59375 1.40625 25.796875 1.40625 
Q 35.59375 1.40625 38.90625 11.90625 
Q 39.203125 12.90625 40.203125 12.90625 
Q 41.5 12.90625 41.5 11.90625 
Q 41.5 11.40625 41.09375 10.15625 
Q 40.703125 8.90625 39.5 6.90625 
Q 38.296875 4.90625 36.546875 3.15625 
Q 34.796875 1.40625 31.75 0.15625 
Q 28.703125 -1.09375 24.90625 -1.09375 
Q 16.09375 -1.09375 3.40625 12.09375 
z
" id="CMUSerif-Roman-99"/>
      <path d="M 3.296875 0 
L 3.296875 3.09375 
Q 8.59375 3.09375 9.84375 3.75 
Q 11.09375 4.40625 11.09375 7.59375 
L 11.09375 59.59375 
Q 11.09375 63.296875 9.796875 64.25 
Q 8.5 65.203125 3.296875 65.203125 
L 3.296875 68.296875 
L 17.703125 69.40625 
L 17.703125 7.59375 
Q 17.703125 4.40625 18.953125 3.75 
Q 20.203125 3.09375 25.5 3.09375 
L 25.5 0 
Q 24.296875 0 21.75 0.09375 
Q 19.203125 0.203125 17.34375 0.25 
Q 15.5 0.296875 14.40625 0.296875 
Q 13.203125 0.296875 3.296875 0 
z
" id="CMUSerif-Roman-108"/>
      <path d="M 3.203125 40 
L 3.203125 43.09375 
L 17.90625 44.203125 
L 17.90625 11 
Q 17.90625 8.59375 18.09375 7.1875 
Q 18.296875 5.796875 19.09375 4.1875 
Q 19.90625 2.59375 21.796875 1.84375 
Q 23.703125 1.09375 26.703125 1.09375 
Q 32.09375 1.09375 35.4375 5.546875 
Q 38.796875 10 38.796875 16.59375 
L 38.796875 34.40625 
Q 38.796875 38.09375 37.5 39.046875 
Q 36.203125 40 31 40 
L 31 43.09375 
L 45.703125 44.203125 
L 45.703125 8.703125 
Q 45.703125 5 47 4.046875 
Q 48.296875 3.09375 53.5 3.09375 
L 53.5 0 
L 39.09375 -1.09375 
L 39.09375 7.90625 
Q 34.90625 -1.09375 26.203125 -1.09375 
Q 21.796875 -1.09375 18.796875 0 
Q 15.796875 1.09375 14.296875 2.5 
Q 12.796875 3.90625 12 6.59375 
Q 11.203125 9.296875 11.09375 10.9375 
Q 11 12.59375 11 15.796875 
L 11 30.796875 
Q 11 37.59375 10 38.796875 
Q 9 40 3.203125 40 
z
" id="CMUSerif-Roman-117"/>
      <path d="M 3.296875 1.296875 
L 3.296875 14.5 
Q 3.296875 15.59375 3.34375 16 
Q 3.40625 16.40625 3.703125 16.703125 
Q 4 17 4.59375 17 
Q 5.296875 17 5.546875 16.703125 
Q 5.796875 16.40625 6 15.296875 
Q 7.5 8.40625 10.75 4.75 
Q 14 1.09375 19.90625 1.09375 
Q 25.5 1.09375 28.34375 3.59375 
Q 31.203125 6.09375 31.203125 10.203125 
Q 31.203125 17.5 20.796875 19.40625 
Q 14.796875 20.59375 12.296875 21.390625 
Q 9.796875 22.203125 7.59375 24 
Q 3.296875 27.5 3.296875 32.5 
Q 3.296875 37.5 7.09375 41.140625 
Q 10.90625 44.796875 19.296875 44.796875 
Q 24.90625 44.796875 28.703125 42 
Q 29.796875 42.90625 30.40625 43.59375 
Q 31.703125 44.796875 32.40625 44.796875 
Q 33.203125 44.796875 33.34375 44.296875 
Q 33.5 43.796875 33.5 42.40625 
L 33.5 32.296875 
Q 33.5 31.203125 33.453125 30.796875 
Q 33.40625 30.40625 33.09375 30.15625 
Q 32.796875 29.90625 32.203125 29.90625 
Q 31.09375 29.90625 31 30.796875 
Q 30.203125 42.90625 19.296875 42.90625 
Q 13.40625 42.90625 10.75 40.65625 
Q 8.09375 38.40625 8.09375 35.296875 
Q 8.09375 33.59375 8.890625 32.296875 
Q 9.703125 31 10.75 30.25 
Q 11.796875 29.5 13.75 28.796875 
Q 15.703125 28.09375 16.890625 27.84375 
Q 18.09375 27.59375 20.40625 27.09375 
Q 28.40625 25.59375 31.796875 22.296875 
Q 36 18.09375 36 12.796875 
Q 36 6.90625 32 2.90625 
Q 28 -1.09375 19.90625 -1.09375 
Q 13.40625 -1.09375 8.90625 3.203125 
Q 8.296875 2.59375 7.84375 2.09375 
Q 7.40625 1.59375 7.25 1.390625 
Q 7.09375 1.203125 7.046875 1.09375 
Q 7 1 6.90625 0.90625 
Q 4.90625 -1.09375 4.40625 -1.09375 
Q 3.59375 -1.09375 3.4375 -0.59375 
Q 3.296875 -0.09375 3.296875 1.296875 
z
" id="CMUSerif-Roman-115"/>
      <path d="M 1.90625 40 
L 1.90625 42.203125 
Q 6.5 42.40625 9.546875 45.65625 
Q 12.59375 48.90625 13.640625 52.90625 
Q 14.703125 56.90625 14.796875 61.5 
L 17.296875 61.5 
L 17.296875 43.09375 
L 31.59375 43.09375 
L 31.59375 40 
L 17.296875 40 
L 17.296875 12.203125 
Q 17.296875 1.40625 24 1.40625 
Q 26.90625 1.40625 28.796875 4.34375 
Q 30.703125 7.296875 30.703125 12.59375 
L 30.703125 18.09375 
L 33.203125 18.09375 
L 33.203125 12.40625 
Q 33.203125 7 30.703125 2.953125 
Q 28.203125 -1.09375 23.296875 -1.09375 
Q 21.5 -1.09375 19.703125 -0.640625 
Q 17.90625 -0.203125 15.59375 1 
Q 13.296875 2.203125 11.84375 5.140625 
Q 10.40625 8.09375 10.40625 12.40625 
L 10.40625 40 
z
" id="CMUSerif-Roman-116"/>
      <path d="M 2.796875 22 
Q 2.796875 31.40625 8.84375 38.09375 
Q 14.90625 44.796875 23.59375 44.796875 
Q 32.40625 44.796875 36.953125 39.09375 
Q 41.5 33.40625 41.5 25.203125 
Q 41.5 23.703125 41.09375 23.390625 
Q 40.703125 23.09375 39 23.09375 
L 11.09375 23.09375 
Q 11.09375 12.90625 14.09375 8.09375 
Q 18.296875 1.40625 25.40625 1.40625 
Q 26.40625 1.40625 27.546875 1.59375 
Q 28.703125 1.796875 31.09375 2.640625 
Q 33.5 3.5 35.59375 5.796875 
Q 37.703125 8.09375 38.90625 11.703125 
Q 39.203125 13.09375 40.203125 13.09375 
Q 41.5 13.09375 41.5 11.90625 
Q 41.5 11 40.546875 9.046875 
Q 39.59375 7.09375 37.796875 4.75 
Q 36 2.40625 32.5 0.65625 
Q 29 -1.09375 24.796875 -1.09375 
Q 16 -1.09375 9.390625 5.546875 
Q 2.796875 12.203125 2.796875 22 
z
M 11.203125 25.203125 
L 34.90625 25.203125 
Q 34.90625 27.296875 34.546875 29.640625 
Q 34.203125 32 33.140625 35.25 
Q 32.09375 38.5 29.640625 40.546875 
Q 27.203125 42.59375 23.59375 42.59375 
Q 22 42.59375 20.25 41.890625 
Q 18.5 41.203125 16.390625 39.546875 
Q 14.296875 37.90625 12.84375 34.15625 
Q 11.40625 30.40625 11.203125 25.203125 
z
" id="CMUSerif-Roman-101"/>
      <path d="M 2.796875 0 
L 2.796875 3.09375 
Q 8.09375 3.09375 9.34375 3.75 
Q 10.59375 4.40625 10.59375 7.59375 
L 10.59375 34.40625 
Q 10.59375 38.09375 9.296875 39.046875 
Q 8 40 2.796875 40 
L 2.796875 43.09375 
L 16.703125 44.203125 
L 16.703125 33.203125 
Q 18.09375 37.5 21.09375 40.84375 
Q 24.09375 44.203125 29 44.203125 
Q 32.203125 44.203125 34.296875 42.390625 
Q 36.40625 40.59375 36.40625 38.09375 
Q 36.40625 35.90625 35.046875 34.796875 
Q 33.703125 33.703125 32.09375 33.703125 
Q 30.296875 33.703125 29.046875 34.84375 
Q 27.796875 36 27.796875 38 
Q 27.796875 39.203125 28.34375 40.140625 
Q 28.90625 41.09375 29.34375 41.4375 
Q 29.796875 41.796875 30.09375 41.90625 
Q 29.90625 42 29 42 
Q 23.5 42 20.34375 36.5 
Q 17.203125 31 17.203125 23.203125 
L 17.203125 7.796875 
Q 17.203125 4.90625 18.390625 4 
Q 19.59375 3.09375 24.796875 3.09375 
L 26.90625 3.09375 
L 26.90625 0 
Q 22.90625 0.296875 14.203125 0.296875 
Q 13 0.296875 11.09375 0.25 
Q 9.203125 0.203125 6.703125 0.09375 
Q 4.203125 0 2.796875 0 
z
" id="CMUSerif-Roman-114"/>
      <path id="CMUSerif-Roman-32"/>
     </defs>
     <g transform="translate(154.999375 21.875267)scale(0.11 -0.11)">
      <use xlink:href="#CMUSerif-Roman-99"/>
      <use x="44.399994" xlink:href="#CMUSerif-Roman-108"/>
      <use x="72.099991" xlink:href="#CMUSerif-Roman-117"/>
      <use x="127.599976" xlink:href="#CMUSerif-Roman-115"/>
      <use x="166.999969" xlink:href="#CMUSerif-Roman-116"/>
      <use x="205.799957" xlink:href="#CMUSerif-Roman-101"/>
      <use x="250.199951" xlink:href="#CMUSerif-Roman-114"/>
      <use x="289.299942" xlink:href="#CMUSerif-Roman-32"/>
      <use x="322.59993" xlink:href="#CMUSerif-Roman-48"/>
     </g>
    </g>
    <g id="line2d_7"/>
    <g id="line2d_8">
     <defs>
      <path d="M 0 2.5 
C 0.663008 2.5 1.29895 2.236584 1.767767 1.767767 
C 2.236584 1.29895 2.5 0.663008 2.5 0 
C 2.5 -0.663008 2.236584 -1.29895 1.767767 -1.767767 
C 1.29895 -2.236584 0.663008 -2.5 0 -2.5 
C -0.663008 -2.5 -1.29895 -2.236584 -1.767767 -1.767767 
C -2.236584 -1.29895 -2.5 -0.663008 -2.5 0 
C -2.5 0.663008 -2.236584 1.29895 -1.767767 1.767767 
C -1.29895 2.236584 -0.663008 2.5 0 2.5 
z
" id="mb8a75e2e29"/>
     </defs>
     <g>
      <use style="fill:#64b09e;fill-opacity:0.6;" x="135.199375" xlink:href="#mb8a75e2e29" y="33.359955"/>
     </g>
    </g>
    <g id="text_8">
     <!-- cluster 1 -->
     <g transform="translate(154.999375 37.209955)scale(0.11 -0.11)">
      <use xlink:href="#CMUSerif-Roman-99"/>
      <use x="44.399994" xlink:href="#CMUSerif-Roman-108"/>
      <use x="72.099991" xlink:href="#CMUSerif-Roman-117"/>
      <use x="127.599976" xlink:href="#CMUSerif-Roman-115"/>
      <use x="166.999969" xlink:href="#CMUSerif-Roman-116"/>
      <use x="205.799957" xlink:href="#CMUSerif-Roman-101"/>
      <use x="250.199951" xlink:href="#CMUSerif-Roman-114"/>
      <use x="289.299942" xlink:href="#CMUSerif-Roman-32"/>
      <use x="322.59993" xlink:href="#CMUSerif-Roman-49"/>
     </g>
    </g>
    <g id="line2d_9"/>
    <g id="line2d_10">
     <defs>
      <path d="M 0 2.5 
C 0.663008 2.5 1.29895 2.236584 1.767767 1.767767 
C 2.236584 1.29895 2.5 0.663008 2.5 0 
C 2.5 -0.663008 2.236584 -1.29895 1.767767 -1.767767 
C 1.29895 -2.236584 0.663008 -2.5 0 -2.5 
C -0.663008 -2.5 -1.29895 -2.236584 -1.767767 -1.767767 
C -2.236584 -1.29895 -2.5 -0.663008 -2.5 0 
C -2.5 0.663008 -2.236584 1.29895 -1.767767 1.767767 
C -1.29895 2.236584 -0.663008 2.5 0 2.5 
z
" id="m92f0bf45dd"/>
     </defs>
     <g>
      <use style="fill:#bfcf69;fill-opacity:0.6;" x="135.199375" xlink:href="#m92f0bf45dd" y="48.694642"/>
     </g>
    </g>
    <g id="text_9">
     <!-- cluster 2 -->
     <g transform="translate(154.999375 52.544642)scale(0.11 -0.11)">
      <use xlink:href="#CMUSerif-Roman-99"/>
      <use x="44.399994" xlink:href="#CMUSerif-Roman-108"/>
      <use x="72.099991" xlink:href="#CMUSerif-Roman-117"/>
      <use x="127.599976" xlink:href="#CMUSerif-Roman-115"/>
      <use x="166.999969" xlink:href="#CMUSerif-Roman-116"/>
      <use x="205.799957" xlink:href="#CMUSerif-Roman-101"/>
      <use x="250.199951" xlink:href="#CMUSerif-Roman-114"/>
      <use x="289.299942" xlink:href="#CMUSerif-Roman-32"/>
      <use x="322.59993" xlink:href="#CMUSerif-Roman-50"/>
     </g>
    </g>
   </g>
  </g>
 </g>
 <defs>
  <clipPath id="pf8ec8283cc">
   <rect height="54.36" width="83.7" x="38.969375" y="7.247299"/>
  </clipPath>
 </defs>
</svg>
