<?xml version="1.0" encoding="UTF-8" standalone="no"?>
<svg
   xmlns:dc="http://purl.org/dc/elements/1.1/"
   xmlns:cc="http://creativecommons.org/ns#"
   xmlns:rdf="http://www.w3.org/1999/02/22-rdf-syntax-ns#"
   xmlns:svg="http://www.w3.org/2000/svg"
   xmlns="http://www.w3.org/2000/svg"
   xmlns:sodipodi="http://sodipodi.sourceforge.net/DTD/sodipodi-0.dtd"
   xmlns:inkscape="http://www.inkscape.org/namespaces/inkscape"
   class="main-svg"
   width="340.5"
   height="121"
   viewBox="0 0 340.5 121"
   version="1.1"
   id="svg316"
   sodipodi:docname="fig1.svg"
   inkscape:version="0.92.5 (2060ec1f9f, 2020-04-08)">
  <metadata
     id="metadata320">
    <rdf:RDF>
      <cc:Work
         rdf:about="">
        <dc:format>image/svg+xml</dc:format>
        <dc:type
           rdf:resource="http://purl.org/dc/dcmitype/StillImage" />
      </cc:Work>
    </rdf:RDF>
  </metadata>
  <sodipodi:namedview
     pagecolor="#ffffff"
     bordercolor="#666666"
     borderopacity="1"
     objecttolerance="10"
     gridtolerance="10"
     guidetolerance="10"
     inkscape:pageopacity="0"
     inkscape:pageshadow="2"
     inkscape:window-width="1920"
     inkscape:window-height="1018"
     id="namedview318"
     showgrid="false"
     inkscape:zoom="1.36"
     inkscape:cx="192.91451"
     inkscape:cy="16.556439"
     inkscape:window-x="1920"
     inkscape:window-y="34"
     inkscape:window-maximized="1"
     inkscape:current-layer="svg316" />
  <defs
     id="defs-915a13">
    <g
       class="clips"
       id="g4" />
    <g
       class="gradients"
       id="g6" />
    <g
       class="patterns"
       id="g8" />
  </defs>
  <g
     class="bglayer"
     id="g11"
     transform="translate(-79.75,-99.5)" />
  <g
     class="layer-below"
     id="g17"
     transform="translate(-79.75,-99.5)">
    <g
       class="imagelayer"
       id="g13" />
    <g
       class="shapelayer"
       id="g15" />
  </g>
  <g
     class="cartesianlayer"
     id="g19"
     transform="translate(-79.75,-99.5)" />
  <g
     class="polarlayer"
     id="g21"
     transform="translate(-79.75,-99.5)" />
  <g
     class="smithlayer"
     id="g23"
     transform="translate(-79.75,-99.5)" />
  <g
     class="ternarylayer"
     id="g25"
     transform="translate(-79.75,-99.5)" />
  <g
     class="geolayer"
     id="g27"
     transform="translate(-79.75,-99.5)" />
  <g
     class="funnelarealayer"
     id="g29"
     transform="translate(-79.75,-99.5)" />
  <g
     class="pielayer"
     id="g31"
     transform="translate(-79.75,-99.5)" />
  <g
     class="iciclelayer"
     id="g33"
     transform="translate(-79.75,-99.5)" />
  <g
     class="treemaplayer"
     id="g35"
     transform="translate(-79.75,-99.5)" />
  <g
     class="sunburstlayer"
     id="g37"
     transform="translate(-79.75,-99.5)" />
  <g
     class="glimages"
     id="g39"
     transform="translate(-79.75,-99.5)" />
  <g
     id="g259"
     style="fill:none"
     class="sankey-links"
     transform="translate(0.25,0.5)">
    <path
       inkscape:connector-curvature="0"
       id="path41"
       style="opacity:1;fill:#000000;fill-opacity:0.2;stroke:#000000;stroke-width:1;stroke-opacity:0.2"
       d="m 20,0 c 150,0 150,0 300,0 v 0.82568807 c -150,0 -150,0 -300,0 z"
       class="sankey-link" />
    <path
       inkscape:connector-curvature="0"
       id="path43"
       style="opacity:1;fill:#000000;fill-opacity:0.2;stroke:#000000;stroke-width:1;stroke-opacity:0.2"
       d="m 20,0.82568807 c 150,0 150,0 300,0 V 1.6513761 c -150,0 -150,0 -300,0 z"
       class="sankey-link" />
    <path
       inkscape:connector-curvature="0"
       id="path45"
       style="opacity:1;fill:#000000;fill-opacity:0.2;stroke:#000000;stroke-width:1;stroke-opacity:0.2"
       d="m 20,1.6513761 c 150,0 150,0 300,0 v 0.8256881 c -150,0 -150,0 -300,0 z"
       class="sankey-link" />
    <path
       inkscape:connector-curvature="0"
       id="path47"
       style="opacity:1;fill:#000000;fill-opacity:0.2;stroke:#000000;stroke-width:1;stroke-opacity:0.2"
       d="m 20,2.4770642 c 150,0 150,0 300,0 v 0.8256881 c -150,0 -150,0 -300,0 z"
       class="sankey-link" />
    <path
       inkscape:connector-curvature="0"
       id="path49"
       style="opacity:1;fill:#000000;fill-opacity:0.2;stroke:#000000;stroke-width:1;stroke-opacity:0.2"
       d="m 20,43.073394 c 150,0 150,-15 300,-15 v 0.825689 c -150,0 -150,15 -300,15 z"
       class="sankey-link" />
    <path
       inkscape:connector-curvature="0"
       id="path51"
       style="opacity:1;fill:#000000;fill-opacity:0.2;stroke:#000000;stroke-width:1;stroke-opacity:0.2"
       d="m 20,3.3027523 c 150,0 150,0 300,0 v 0.8256881 c -150,0 -150,0 -300,0 z"
       class="sankey-link" />
    <path
       inkscape:connector-curvature="0"
       id="path53"
       style="opacity:1;fill:#000000;fill-opacity:0.2;stroke:#000000;stroke-width:1;stroke-opacity:0.2"
       d="m 20,52.981651 c 150,0 150,0 300,0 v 0.825688 c -150,0 -150,0 -300,0 z"
       class="sankey-link" />
    <path
       inkscape:connector-curvature="0"
       id="path55"
       style="opacity:1;fill:#000000;fill-opacity:0.2;stroke:#000000;stroke-width:1;stroke-opacity:0.2"
       d="m 20,81.192661 c 150,0 150,-15 300,-15 v 0.825688 c -150,0 -150,15 -300,15 z"
       class="sankey-link" />
    <path
       inkscape:connector-curvature="0"
       id="path57"
       style="opacity:1;fill:#000000;fill-opacity:0.2;stroke:#000000;stroke-width:1;stroke-opacity:0.2"
       d="m 20,4.1284404 c 150,0 150,0 300,0 v 0.825688 c -150,0 -150,0 -300,0 z"
       class="sankey-link" />
    <path
       inkscape:connector-curvature="0"
       id="path59"
       style="opacity:1;fill:#000000;fill-opacity:0.2;stroke:#000000;stroke-width:1;stroke-opacity:0.2"
       d="m 20,53.807339 c 150,0 150,0 300,0 v 0.825689 c -150,0 -150,0 -300,0 z"
       class="sankey-link" />
    <path
       inkscape:connector-curvature="0"
       id="path61"
       style="opacity:1;fill:#000000;fill-opacity:0.2;stroke:#000000;stroke-width:1;stroke-opacity:0.2"
       d="m 20,4.9541284 c 150,0 150,0 300,0 v 0.8256881 c -150,0 -150,0 -300,0 z"
       class="sankey-link" />
    <path
       inkscape:connector-curvature="0"
       id="path63"
       style="opacity:1;fill:#000000;fill-opacity:0.2;stroke:#000000;stroke-width:1;stroke-opacity:0.2"
       d="m 20,82.018349 c 150,0 150,-15 300,-15 v 0.825688 c -150,0 -150,15 -300,15 z"
       class="sankey-link" />
    <path
       inkscape:connector-curvature="0"
       id="path65"
       style="opacity:1;fill:#000000;fill-opacity:0.2;stroke:#000000;stroke-width:1;stroke-opacity:0.2"
       d="m 20,54.633028 c 150,0 150,0 300,0 v 0.825688 c -150,0 -150,0 -300,0 z"
       class="sankey-link" />
    <path
       inkscape:connector-curvature="0"
       id="path67"
       style="opacity:1;fill:#000000;fill-opacity:0.2;stroke:#000000;stroke-width:1;stroke-opacity:0.2"
       d="m 20,5.7798165 c 150,0 150,0 300,0 v 0.8256881 c -150,0 -150,0 -300,0 z"
       class="sankey-link" />
    <path
       inkscape:connector-curvature="0"
       id="path69"
       style="opacity:1;fill:#000000;fill-opacity:0.2;stroke:#000000;stroke-width:1;stroke-opacity:0.2"
       d="m 20,6.6055046 c 150,0 150,0 300,0 v 0.8256881 c -150,0 -150,0 -300,0 z"
       class="sankey-link" />
    <path
       inkscape:connector-curvature="0"
       id="path71"
       style="opacity:1;fill:#000000;fill-opacity:0.2;stroke:#000000;stroke-width:1;stroke-opacity:0.2"
       d="m 20,43.899083 c 150,0 150,-15 300,-15 v 0.825688 c -150,0 -150,15 -300,15 z"
       class="sankey-link" />
    <path
       inkscape:connector-curvature="0"
       id="path73"
       style="opacity:1;fill:#000000;fill-opacity:0.2;stroke:#000000;stroke-width:1;stroke-opacity:0.2"
       d="m 20,7.4311927 c 150,0 150,0 300,0 v 0.825688 c -150,0 -150,0 -300,0 z"
       class="sankey-link" />
    <path
       inkscape:connector-curvature="0"
       id="path75"
       style="opacity:1;fill:#000000;fill-opacity:0.2;stroke:#000000;stroke-width:1;stroke-opacity:0.2"
       d="m 20,44.724771 c 150,0 150,-15 300,-15 v 0.825688 c -150,0 -150,15 -300,15 z"
       class="sankey-link" />
    <path
       inkscape:connector-curvature="0"
       id="path77"
       style="opacity:1;fill:#000000;fill-opacity:0.2;stroke:#000000;stroke-width:1;stroke-opacity:0.2"
       d="m 20,8.2568807 c 150,0 150,0 300,0 v 0.8256881 c -150,0 -150,0 -300,0 z"
       class="sankey-link" />
    <path
       inkscape:connector-curvature="0"
       id="path79"
       style="opacity:1;fill:#000000;fill-opacity:0.2;stroke:#000000;stroke-width:1;stroke-opacity:0.2"
       d="m 20,55.458716 c 150,0 150,0 300,0 v 0.825688 c -150,0 -150,0 -300,0 z"
       class="sankey-link" />
    <path
       inkscape:connector-curvature="0"
       id="path81"
       style="opacity:1;fill:#000000;fill-opacity:0.2;stroke:#000000;stroke-width:1;stroke-opacity:0.2"
       d="m 20,9.0825688 c 150,0 150,0 300,0 v 0.8256881 c -150,0 -150,0 -300,0 z"
       class="sankey-link" />
    <path
       inkscape:connector-curvature="0"
       id="path83"
       style="opacity:1;fill:#000000;fill-opacity:0.2;stroke:#000000;stroke-width:1;stroke-opacity:0.2"
       d="m 20,56.284404 c 150,0 150,0 300,0 v 0.825688 c -150,0 -150,0 -300,0 z"
       class="sankey-link" />
    <path
       inkscape:connector-curvature="0"
       id="path85"
       style="opacity:1;fill:#000000;fill-opacity:0.2;stroke:#000000;stroke-width:1;stroke-opacity:0.2"
       d="m 20,9.9082569 c 150,0 150,0 300,0 v 0.8256881 c -150,0 -150,0 -300,0 z"
       class="sankey-link" />
    <path
       inkscape:connector-curvature="0"
       id="path87"
       style="opacity:1;fill:#000000;fill-opacity:0.2;stroke:#000000;stroke-width:1;stroke-opacity:0.2"
       d="m 20,10.733945 c 150,0 150,0 300,0 v 0.825688 c -150,0 -150,0 -300,0 z"
       class="sankey-link" />
    <path
       inkscape:connector-curvature="0"
       id="path89"
       style="opacity:1;fill:#000000;fill-opacity:0.2;stroke:#000000;stroke-width:1;stroke-opacity:0.2"
       d="m 20,89.449541 c 150,0 150,0 300,0 v 0.825688 c -150,0 -150,0 -300,0 z"
       class="sankey-link" />
    <path
       inkscape:connector-curvature="0"
       id="path91"
       style="opacity:1;fill:#000000;fill-opacity:0.2;stroke:#000000;stroke-width:1;stroke-opacity:0.2"
       d="m 20,45.550459 c 150,0 150,-15 300,-15 v 0.825688 c -150,0 -150,15 -300,15 z"
       class="sankey-link" />
    <path
       inkscape:connector-curvature="0"
       id="path93"
       style="opacity:1;fill:#000000;fill-opacity:0.2;stroke:#000000;stroke-width:1;stroke-opacity:0.2"
       d="m 20,90.275229 c 150,0 150,0 300,0 v 0.825688 c -150,0 -150,0 -300,0 z"
       class="sankey-link" />
    <path
       inkscape:connector-curvature="0"
       id="path95"
       style="opacity:1;fill:#000000;fill-opacity:0.2;stroke:#000000;stroke-width:1;stroke-opacity:0.2"
       d="m 20,11.559633 c 150,0 150,0 300,0 v 0.825688 c -150,0 -150,0 -300,0 z"
       class="sankey-link" />
    <path
       inkscape:connector-curvature="0"
       id="path97"
       style="opacity:1;fill:#000000;fill-opacity:0.2;stroke:#000000;stroke-width:1;stroke-opacity:0.2"
       d="m 20,57.110092 c 150,0 150,0 300,0 v 0.825688 c -150,0 -150,0 -300,0 z"
       class="sankey-link" />
    <path
       inkscape:connector-curvature="0"
       id="path99"
       style="opacity:1;fill:#000000;fill-opacity:0.2;stroke:#000000;stroke-width:1;stroke-opacity:0.2"
       d="m 20,12.385321 c 150,0 150,0 300,0 v 0.825688 c -150,0 -150,0 -300,0 z"
       class="sankey-link" />
    <path
       inkscape:connector-curvature="0"
       id="path101"
       style="opacity:1;fill:#000000;fill-opacity:0.2;stroke:#000000;stroke-width:1;stroke-opacity:0.2"
       d="m 20,57.93578 c 150,0 150,0 300,0 v 0.825688 c -150,0 -150,0 -300,0 z"
       class="sankey-link" />
    <path
       inkscape:connector-curvature="0"
       id="path103"
       style="opacity:1;fill:#000000;fill-opacity:0.2;stroke:#000000;stroke-width:1;stroke-opacity:0.2"
       d="m 20,58.761468 c 150,0 150,0 300,0 v 0.825688 c -150,0 -150,0 -300,0 z"
       class="sankey-link" />
    <path
       inkscape:connector-curvature="0"
       id="path105"
       style="opacity:1;fill:#000000;fill-opacity:0.2;stroke:#000000;stroke-width:1;stroke-opacity:0.2"
       d="m 20,13.211009 c 150,0 150,0 300,0 v 0.825688 c -150,0 -150,0 -300,0 z"
       class="sankey-link" />
    <path
       inkscape:connector-curvature="0"
       id="path107"
       style="opacity:1;fill:#000000;fill-opacity:0.2;stroke:#000000;stroke-width:1;stroke-opacity:0.2"
       d="m 20,14.036697 c 150,0 150,0 300,0 v 0.825688 c -150,0 -150,0 -300,0 z"
       class="sankey-link" />
    <path
       inkscape:connector-curvature="0"
       id="path109"
       style="opacity:1;fill:#000000;fill-opacity:0.2;stroke:#000000;stroke-width:1;stroke-opacity:0.2"
       d="m 20,14.862385 c 150,0 150,0 300,0 v 0.825688 c -150,0 -150,0 -300,0 z"
       class="sankey-link" />
    <path
       inkscape:connector-curvature="0"
       id="path111"
       style="opacity:1;fill:#000000;fill-opacity:0.2;stroke:#000000;stroke-width:1;stroke-opacity:0.2"
       d="m 20,82.844037 c 150,0 150,-15 300,-15 v 0.825688 c -150,0 -150,15 -300,15 z"
       class="sankey-link" />
    <path
       inkscape:connector-curvature="0"
       id="path113"
       style="opacity:1;fill:#000000;fill-opacity:0.2;stroke:#000000;stroke-width:1;stroke-opacity:0.2"
       d="m 20,83.669725 c 150,0 150,-15 300,-15 v 0.825688 c -150,0 -150,15 -300,15 z"
       class="sankey-link" />
    <path
       inkscape:connector-curvature="0"
       id="path115"
       style="opacity:1;fill:#000000;fill-opacity:0.2;stroke:#000000;stroke-width:1;stroke-opacity:0.2"
       d="m 20,15.688073 c 150,0 150,0 300,0 v 0.825688 c -150,0 -150,0 -300,0 z"
       class="sankey-link" />
    <path
       inkscape:connector-curvature="0"
       id="path117"
       style="opacity:1;fill:#000000;fill-opacity:0.2;stroke:#000000;stroke-width:1;stroke-opacity:0.2"
       d="m 20,91.100917 c 150,0 150,0 300,0 v 0.825689 c -150,0 -150,0 -300,0 z"
       class="sankey-link" />
    <path
       inkscape:connector-curvature="0"
       id="path119"
       style="opacity:1;fill:#000000;fill-opacity:0.2;stroke:#000000;stroke-width:1;stroke-opacity:0.2"
       d="m 20,46.376147 c 150,0 150,-15 300,-15 v 0.825688 c -150,0 -150,15 -300,15 z"
       class="sankey-link" />
    <path
       inkscape:connector-curvature="0"
       id="path121"
       style="opacity:1;fill:#000000;fill-opacity:0.2;stroke:#000000;stroke-width:1;stroke-opacity:0.2"
       d="m 20,47.201835 c 150,0 150,-15 300,-15 v 0.825688 c -150,0 -150,15 -300,15 z"
       class="sankey-link" />
    <path
       inkscape:connector-curvature="0"
       id="path123"
       style="opacity:1;fill:#000000;fill-opacity:0.2;stroke:#000000;stroke-width:1;stroke-opacity:0.2"
       d="m 20,59.587156 c 150,0 150,0 300,0 v 0.825688 c -150,0 -150,0 -300,0 z"
       class="sankey-link" />
    <path
       inkscape:connector-curvature="0"
       id="path125"
       style="opacity:1;fill:#000000;fill-opacity:0.2;stroke:#000000;stroke-width:1;stroke-opacity:0.2"
       d="m 20,91.926606 c 150,0 150,0 300,0 v 0.825688 c -150,0 -150,0 -300,0 z"
       class="sankey-link" />
    <path
       inkscape:connector-curvature="0"
       id="path127"
       style="opacity:1;fill:#000000;fill-opacity:0.2;stroke:#000000;stroke-width:1;stroke-opacity:0.2"
       d="m 20,16.513761 c 150,0 150,0 300,0 v 0.825689 c -150,0 -150,0 -300,0 z"
       class="sankey-link" />
    <path
       inkscape:connector-curvature="0"
       id="path129"
       style="opacity:1;fill:#000000;fill-opacity:0.2;stroke:#000000;stroke-width:1;stroke-opacity:0.2"
       d="m 20,92.752294 c 150,0 150,0 300,0 v 0.825688 c -150,0 -150,0 -300,0 z"
       class="sankey-link" />
    <path
       inkscape:connector-curvature="0"
       id="path131"
       style="opacity:1;fill:#000000;fill-opacity:0.2;stroke:#000000;stroke-width:1;stroke-opacity:0.2"
       d="m 20,17.33945 c 150,0 150,0 300,0 v 0.825688 c -150,0 -150,0 -300,0 z"
       class="sankey-link" />
    <path
       inkscape:connector-curvature="0"
       id="path133"
       style="opacity:1;fill:#000000;fill-opacity:0.2;stroke:#000000;stroke-width:1;stroke-opacity:0.2"
       d="m 20,18.165138 c 150,0 150,0 300,0 v 0.825688 c -150,0 -150,0 -300,0 z"
       class="sankey-link" />
    <path
       inkscape:connector-curvature="0"
       id="path135"
       style="opacity:1;fill:#000000;fill-opacity:0.2;stroke:#000000;stroke-width:1;stroke-opacity:0.2"
       d="m 20,93.577982 c 150,0 150,0 300,0 v 0.825688 c -150,0 -150,0 -300,0 z"
       class="sankey-link" />
    <path
       inkscape:connector-curvature="0"
       id="path137"
       style="opacity:1;fill:#000000;fill-opacity:0.2;stroke:#000000;stroke-width:1;stroke-opacity:0.2"
       d="m 20,48.027523 c 150,0 150,-15 300,-15 v 0.825688 c -150,0 -150,15 -300,15 z"
       class="sankey-link" />
    <path
       inkscape:connector-curvature="0"
       id="path139"
       style="opacity:1;fill:#000000;fill-opacity:0.2;stroke:#000000;stroke-width:1;stroke-opacity:0.2"
       d="m 20,60.412844 c 150,0 150,0 300,0 v 0.825688 c -150,0 -150,0 -300,0 z"
       class="sankey-link" />
    <path
       inkscape:connector-curvature="0"
       id="path141"
       style="opacity:1;fill:#000000;fill-opacity:0.2;stroke:#000000;stroke-width:1;stroke-opacity:0.2"
       d="m 20,48.853211 c 150,0 150,-15 300,-15 v 0.825688 c -150,0 -150,15 -300,15 z"
       class="sankey-link" />
    <path
       inkscape:connector-curvature="0"
       id="path143"
       style="opacity:1;fill:#000000;fill-opacity:0.2;stroke:#000000;stroke-width:1;stroke-opacity:0.2"
       d="m 20,94.40367 c 150,0 150,0 300,0 v 0.825688 c -150,0 -150,0 -300,0 z"
       class="sankey-link" />
    <path
       inkscape:connector-curvature="0"
       id="path145"
       style="opacity:1;fill:#000000;fill-opacity:0.2;stroke:#000000;stroke-width:1;stroke-opacity:0.2"
       d="m 20,18.990826 c 150,0 150,0 300,0 v 0.825688 c -150,0 -150,0 -300,0 z"
       class="sankey-link" />
    <path
       inkscape:connector-curvature="0"
       id="path147"
       style="opacity:1;fill:#000000;fill-opacity:0.2;stroke:#000000;stroke-width:1;stroke-opacity:0.2"
       d="m 20,61.238532 c 150,0 150,0 300,0 v 0.825688 c -150,0 -150,0 -300,0 z"
       class="sankey-link" />
    <path
       inkscape:connector-curvature="0"
       id="path149"
       style="opacity:1;fill:#000000;fill-opacity:0.2;stroke:#000000;stroke-width:1;stroke-opacity:0.2"
       d="m 20,95.229358 c 150,0 150,0 300,0 v 0.825688 c -150,0 -150,0 -300,0 z"
       class="sankey-link" />
    <path
       inkscape:connector-curvature="0"
       id="path151"
       style="opacity:1;fill:#000000;fill-opacity:0.2;stroke:#000000;stroke-width:1;stroke-opacity:0.2"
       d="m 20,96.055046 c 150,0 150,0 300,0 v 0.825688 c -150,0 -150,0 -300,0 z"
       class="sankey-link" />
    <path
       inkscape:connector-curvature="0"
       id="path153"
       style="opacity:1;fill:#000000;fill-opacity:0.2;stroke:#000000;stroke-width:1;stroke-opacity:0.2"
       d="m 20,19.816514 c 150,0 150,0 300,0 v 0.825688 c -150,0 -150,0 -300,0 z"
       class="sankey-link" />
    <path
       inkscape:connector-curvature="0"
       id="path155"
       style="opacity:1;fill:#000000;fill-opacity:0.2;stroke:#000000;stroke-width:1;stroke-opacity:0.2"
       d="m 20,96.880734 c 150,0 150,0 300,0 v 0.825688 c -150,0 -150,0 -300,0 z"
       class="sankey-link" />
    <path
       inkscape:connector-curvature="0"
       id="path157"
       style="opacity:1;fill:#000000;fill-opacity:0.2;stroke:#000000;stroke-width:1;stroke-opacity:0.2"
       d="m 20,97.706422 c 150,0 150,0 300,0 v 0.825688 c -150,0 -150,0 -300,0 z"
       class="sankey-link" />
    <path
       inkscape:connector-curvature="0"
       id="path159"
       style="opacity:1;fill:#000000;fill-opacity:0.2;stroke:#000000;stroke-width:1;stroke-opacity:0.2"
       d="m 20,98.53211 c 150,0 150,0 300,0 v 0.825688 c -150,0 -150,0 -300,0 z"
       class="sankey-link" />
    <path
       inkscape:connector-curvature="0"
       id="path161"
       style="opacity:1;fill:#000000;fill-opacity:0.2;stroke:#000000;stroke-width:1;stroke-opacity:0.2"
       d="m 20,99.357798 c 150,0 150,0 300,0 v 0.825692 c -150,0 -150,0 -300,0 z"
       class="sankey-link" />
    <path
       inkscape:connector-curvature="0"
       id="path163"
       style="opacity:1;fill:#000000;fill-opacity:0.2;stroke:#000000;stroke-width:1;stroke-opacity:0.2"
       d="m 20,100.18349 c 150,0 150,0 300,0 v 0.82568 c -150,0 -150,0 -300,0 z"
       class="sankey-link" />
    <path
       inkscape:connector-curvature="0"
       id="path165"
       style="opacity:1;fill:#000000;fill-opacity:0.2;stroke:#000000;stroke-width:1;stroke-opacity:0.2"
       d="m 20,101.00917 c 150,0 150,0 300,0 v 0.82569 c -150,0 -150,0 -300,0 z"
       class="sankey-link" />
    <path
       inkscape:connector-curvature="0"
       id="path167"
       style="opacity:1;fill:#000000;fill-opacity:0.2;stroke:#000000;stroke-width:1;stroke-opacity:0.2"
       d="m 20,101.83486 c 150,0 150,0 300,0 v 0.82569 c -150,0 -150,0 -300,0 z"
       class="sankey-link" />
    <path
       inkscape:connector-curvature="0"
       id="path169"
       style="opacity:1;fill:#000000;fill-opacity:0.2;stroke:#000000;stroke-width:1;stroke-opacity:0.2"
       d="m 20,20.642202 c 150,0 150,0 300,0 v 0.825688 c -150,0 -150,0 -300,0 z"
       class="sankey-link" />
    <path
       inkscape:connector-curvature="0"
       id="path171"
       style="opacity:1;fill:#000000;fill-opacity:0.2;stroke:#000000;stroke-width:1;stroke-opacity:0.2"
       d="m 20,21.46789 c 150,0 150,0 300,0 v 0.825688 c -150,0 -150,0 -300,0 z"
       class="sankey-link" />
    <path
       inkscape:connector-curvature="0"
       id="path173"
       style="opacity:1;fill:#000000;fill-opacity:0.2;stroke:#000000;stroke-width:1;stroke-opacity:0.2"
       d="m 20,102.66055 c 150,0 150,0 300,0 v 0.82569 c -150,0 -150,0 -300,0 z"
       class="sankey-link" />
    <path
       inkscape:connector-curvature="0"
       id="path175"
       style="opacity:1;fill:#000000;fill-opacity:0.2;stroke:#000000;stroke-width:1;stroke-opacity:0.2"
       d="m 20,103.48624 c 150,0 150,0 300,0 v 0.82569 c -150,0 -150,0 -300,0 z"
       class="sankey-link" />
    <path
       inkscape:connector-curvature="0"
       id="path177"
       style="opacity:1;fill:#000000;fill-opacity:0.2;stroke:#000000;stroke-width:1;stroke-opacity:0.2"
       d="m 20,104.31193 c 150,0 150,0 300,0 v 0.82568 c -150,0 -150,0 -300,0 z"
       class="sankey-link" />
    <path
       inkscape:connector-curvature="0"
       id="path179"
       style="opacity:1;fill:#000000;fill-opacity:0.2;stroke:#000000;stroke-width:1;stroke-opacity:0.2"
       d="m 20,84.495413 c 150,0 150,-15 300,-15 v 0.825688 c -150,0 -150,15 -300,15 z"
       class="sankey-link" />
    <path
       inkscape:connector-curvature="0"
       id="path181"
       style="opacity:1;fill:#000000;fill-opacity:0.2;stroke:#000000;stroke-width:1;stroke-opacity:0.2"
       d="m 20,85.321101 c 150,0 150,-15 300,-15 v 0.825688 c -150,0 -150,15 -300,15 z"
       class="sankey-link" />
    <path
       inkscape:connector-curvature="0"
       id="path183"
       style="opacity:1;fill:#000000;fill-opacity:0.2;stroke:#000000;stroke-width:1;stroke-opacity:0.2"
       d="m 20,62.06422 c 150,0 150,0 300,0 v 0.825688 c -150,0 -150,0 -300,0 z"
       class="sankey-link" />
    <path
       inkscape:connector-curvature="0"
       id="path185"
       style="opacity:1;fill:#000000;fill-opacity:0.2;stroke:#000000;stroke-width:1;stroke-opacity:0.2"
       d="m 20,49.678899 c 150,0 150,-15 300,-15 v 0.825688 c -150,0 -150,15 -300,15 z"
       class="sankey-link" />
    <path
       inkscape:connector-curvature="0"
       id="path187"
       style="opacity:1;fill:#000000;fill-opacity:0.2;stroke:#000000;stroke-width:1;stroke-opacity:0.2"
       d="m 20,62.889908 c 150,0 150,0 300,0 v 0.825688 c -150,0 -150,0 -300,0 z"
       class="sankey-link" />
    <path
       inkscape:connector-curvature="0"
       id="path189"
       style="opacity:1;fill:#000000;fill-opacity:0.2;stroke:#000000;stroke-width:1;stroke-opacity:0.2"
       d="m 20,63.715596 c 150,0 150,0 300,0 v 0.825688 c -150,0 -150,0 -300,0 z"
       class="sankey-link" />
    <path
       inkscape:connector-curvature="0"
       id="path191"
       style="opacity:1;fill:#000000;fill-opacity:0.2;stroke:#000000;stroke-width:1;stroke-opacity:0.2"
       d="m 20,105.13761 c 150,0 150,0 300,0 v 0.82569 c -150,0 -150,0 -300,0 z"
       class="sankey-link" />
    <path
       inkscape:connector-curvature="0"
       id="path193"
       style="opacity:1;fill:#000000;fill-opacity:0.2;stroke:#000000;stroke-width:1;stroke-opacity:0.2"
       d="m 20,22.293578 c 150,0 150,0 300,0 v 0.825688 c -150,0 -150,0 -300,0 z"
       class="sankey-link" />
    <path
       inkscape:connector-curvature="0"
       id="path195"
       style="opacity:1;fill:#000000;fill-opacity:0.2;stroke:#000000;stroke-width:1;stroke-opacity:0.2"
       d="m 20,105.9633 c 150,0 150,0 300,0 v 0.82569 c -150,0 -150,0 -300,0 z"
       class="sankey-link" />
    <path
       inkscape:connector-curvature="0"
       id="path197"
       style="opacity:1;fill:#000000;fill-opacity:0.2;stroke:#000000;stroke-width:1;stroke-opacity:0.2"
       d="m 20,23.119266 c 150,0 150,0 300,0 v 0.825688 c -150,0 -150,0 -300,0 z"
       class="sankey-link" />
    <path
       inkscape:connector-curvature="0"
       id="path199"
       style="opacity:1;fill:#000000;fill-opacity:0.2;stroke:#000000;stroke-width:1;stroke-opacity:0.2"
       d="m 20,23.944954 c 150,0 150,0 300,0 v 0.825688 c -150,0 -150,0 -300,0 z"
       class="sankey-link" />
    <path
       inkscape:connector-curvature="0"
       id="path201"
       style="opacity:1;fill:#000000;fill-opacity:0.2;stroke:#000000;stroke-width:1;stroke-opacity:0.2"
       d="m 20,106.78899 c 150,0 150,0 300,0 v 0.82569 c -150,0 -150,0 -300,0 z"
       class="sankey-link" />
    <path
       inkscape:connector-curvature="0"
       id="path203"
       style="opacity:1;fill:#000000;fill-opacity:0.2;stroke:#000000;stroke-width:1;stroke-opacity:0.2"
       d="m 20,107.61468 c 150,0 150,0 300,0 v 0.82569 c -150,0 -150,0 -300,0 z"
       class="sankey-link" />
    <path
       inkscape:connector-curvature="0"
       id="path205"
       style="opacity:1;fill:#000000;fill-opacity:0.2;stroke:#000000;stroke-width:1;stroke-opacity:0.2"
       d="m 20,108.44037 c 150,0 150,0 300,0 v 0.82569 c -150,0 -150,0 -300,0 z"
       class="sankey-link" />
    <path
       inkscape:connector-curvature="0"
       id="path207"
       style="opacity:1;fill:#000000;fill-opacity:0.2;stroke:#000000;stroke-width:1;stroke-opacity:0.2"
       d="m 20,64.541284 c 150,0 150,0 300,0 v 0.825688 c -150,0 -150,0 -300,0 z"
       class="sankey-link" />
    <path
       inkscape:connector-curvature="0"
       id="path209"
       style="opacity:1;fill:#000000;fill-opacity:0.2;stroke:#000000;stroke-width:1;stroke-opacity:0.2"
       d="m 20,24.770642 c 150,0 150,0 300,0 v 0.825688 c -150,0 -150,0 -300,0 z"
       class="sankey-link" />
    <path
       inkscape:connector-curvature="0"
       id="path211"
       style="opacity:1;fill:#000000;fill-opacity:0.2;stroke:#000000;stroke-width:1;stroke-opacity:0.2"
       d="m 20,86.146789 c 150,0 150,-15 300,-15 v 0.825688 c -150,0 -150,15 -300,15 z"
       class="sankey-link" />
    <path
       inkscape:connector-curvature="0"
       id="path213"
       style="opacity:1;fill:#000000;fill-opacity:0.2;stroke:#000000;stroke-width:1;stroke-opacity:0.2"
       d="m 20,109.26606 c 150,0 150,0 300,0 v 0.82568 c -150,0 -150,0 -300,0 z"
       class="sankey-link" />
    <path
       inkscape:connector-curvature="0"
       id="path215"
       style="opacity:1;fill:#000000;fill-opacity:0.2;stroke:#000000;stroke-width:1;stroke-opacity:0.2"
       d="m 20,86.972477 c 150,0 150,-15 300,-15 v 0.825688 c -150,0 -150,15 -300,15 z"
       class="sankey-link" />
    <path
       inkscape:connector-curvature="0"
       id="path217"
       style="opacity:1;fill:#000000;fill-opacity:0.2;stroke:#000000;stroke-width:1;stroke-opacity:0.2"
       d="m 20,50.504587 c 150,0 150,-15 300,-15 v 0.825688 c -150,0 -150,15 -300,15 z"
       class="sankey-link" />
    <path
       inkscape:connector-curvature="0"
       id="path219"
       style="opacity:1;fill:#000000;fill-opacity:0.2;stroke:#000000;stroke-width:1;stroke-opacity:0.2"
       d="m 20,110.09174 c 150,0 150,0 300,0 v 0.82569 c -150,0 -150,0 -300,0 z"
       class="sankey-link" />
    <path
       inkscape:connector-curvature="0"
       id="path221"
       style="opacity:1;fill:#000000;fill-opacity:0.2;stroke:#000000;stroke-width:1;stroke-opacity:0.2"
       d="m 20,110.91743 c 150,0 150,0 300,0 v 0.82569 c -150,0 -150,0 -300,0 z"
       class="sankey-link" />
    <path
       inkscape:connector-curvature="0"
       id="path223"
       style="opacity:1;fill:#000000;fill-opacity:0.2;stroke:#000000;stroke-width:1;stroke-opacity:0.2"
       d="m 20,65.366972 c 150,0 150,0 300,0 v 0.825689 c -150,0 -150,0 -300,0 z"
       class="sankey-link" />
    <path
       inkscape:connector-curvature="0"
       id="path225"
       style="opacity:1;fill:#000000;fill-opacity:0.2;stroke:#000000;stroke-width:1;stroke-opacity:0.2"
       d="m 20,111.74312 c 150,0 150,0 300,0 v 0.82569 c -150,0 -150,0 -300,0 z"
       class="sankey-link" />
    <path
       inkscape:connector-curvature="0"
       id="path227"
       style="opacity:1;fill:#000000;fill-opacity:0.2;stroke:#000000;stroke-width:1;stroke-opacity:0.2"
       d="m 20,112.56881 c 150,0 150,0 300,0 v 0.82569 c -150,0 -150,0 -300,0 z"
       class="sankey-link" />
    <path
       inkscape:connector-curvature="0"
       id="path229"
       style="opacity:1;fill:#000000;fill-opacity:0.2;stroke:#000000;stroke-width:1;stroke-opacity:0.2"
       d="m 20,51.330275 c 150,0 150,-15 300,-15 v 0.825688 c -150,0 -150,15 -300,15 z"
       class="sankey-link" />
    <path
       inkscape:connector-curvature="0"
       id="path231"
       style="opacity:1;fill:#000000;fill-opacity:0.2;stroke:#000000;stroke-width:1;stroke-opacity:0.2"
       d="m 20,113.3945 c 150,0 150,0 300,0 v 0.82568 c -150,0 -150,0 -300,0 z"
       class="sankey-link" />
    <path
       inkscape:connector-curvature="0"
       id="path233"
       style="opacity:1;fill:#000000;fill-opacity:0.2;stroke:#000000;stroke-width:1;stroke-opacity:0.2"
       d="m 20,87.798165 c 150,0 150,-15 300,-15 v 0.825688 c -150,0 -150,15 -300,15 z"
       class="sankey-link" />
    <path
       inkscape:connector-curvature="0"
       id="path235"
       style="opacity:1;fill:#000000;fill-opacity:0.2;stroke:#000000;stroke-width:1;stroke-opacity:0.2"
       d="m 20,25.59633 c 150,0 150,0 300,0 v 0.825688 c -150,0 -150,0 -300,0 z"
       class="sankey-link" />
    <path
       inkscape:connector-curvature="0"
       id="path237"
       style="opacity:1;fill:#000000;fill-opacity:0.2;stroke:#000000;stroke-width:1;stroke-opacity:0.2"
       d="m 20,114.22018 c 150,0 150,0 300,0 v 0.82569 c -150,0 -150,0 -300,0 z"
       class="sankey-link" />
    <path
       inkscape:connector-curvature="0"
       id="path239"
       style="opacity:1;fill:#000000;fill-opacity:0.2;stroke:#000000;stroke-width:1;stroke-opacity:0.2"
       d="m 20,26.422018 c 150,0 150,0 300,0 v 0.825688 c -150,0 -150,0 -300,0 z"
       class="sankey-link" />
    <path
       inkscape:connector-curvature="0"
       id="path241"
       style="opacity:1;fill:#000000;fill-opacity:0.2;stroke:#000000;stroke-width:1;stroke-opacity:0.2"
       d="m 20,115.04587 c 150,0 150,0 300,0 v 0.82569 c -150,0 -150,0 -300,0 z"
       class="sankey-link" />
    <path
       inkscape:connector-curvature="0"
       id="path243"
       style="opacity:1;fill:#000000;fill-opacity:0.2;stroke:#000000;stroke-width:1;stroke-opacity:0.2"
       d="m 20,115.87156 c 150,0 150,0 300,0 v 0.82569 c -150,0 -150,0 -300,0 z"
       class="sankey-link" />
    <path
       inkscape:connector-curvature="0"
       id="path245"
       style="opacity:1;fill:#000000;fill-opacity:0.2;stroke:#000000;stroke-width:1;stroke-opacity:0.2"
       d="m 20,27.247706 c 150,0 150,0 300,0 v 0.825688 c -150,0 -150,0 -300,0 z"
       class="sankey-link" />
    <path
       inkscape:connector-curvature="0"
       id="path247"
       style="opacity:1;fill:#000000;fill-opacity:0.2;stroke:#000000;stroke-width:1;stroke-opacity:0.2"
       d="m 20,116.69725 c 150,0 150,0 300,0 v 0.82569 c -150,0 -150,0 -300,0 z"
       class="sankey-link" />
    <path
       inkscape:connector-curvature="0"
       id="path249"
       style="opacity:1;fill:#000000;fill-opacity:0.2;stroke:#000000;stroke-width:1;stroke-opacity:0.2"
       d="m 20,117.52294 c 150,0 150,0 300,0 v 0.82568 c -150,0 -150,0 -300,0 z"
       class="sankey-link" />
    <path
       inkscape:connector-curvature="0"
       id="path251"
       style="opacity:1;fill:#000000;fill-opacity:0.2;stroke:#000000;stroke-width:1;stroke-opacity:0.2"
       d="m 20,88.623853 c 150,0 150,-15 300,-15 v 0.825688 c -150,0 -150,15 -300,15 z"
       class="sankey-link" />
    <path
       inkscape:connector-curvature="0"
       id="path253"
       style="opacity:1;fill:#000000;fill-opacity:0.2;stroke:#000000;stroke-width:1;stroke-opacity:0.2"
       d="m 20,118.34862 c 150,0 150,0 300,0 v 0.82569 c -150,0 -150,0 -300,0 z"
       class="sankey-link" />
    <path
       inkscape:connector-curvature="0"
       id="path255"
       style="opacity:1;fill:#000000;fill-opacity:0.2;stroke:#000000;stroke-width:1;stroke-opacity:0.2"
       d="m 20,119.17431 c 150,0 150,0 300,0 V 120 c -150,0 -150,0 -300,0 z"
       class="sankey-link" />
    <path
       inkscape:connector-curvature="0"
       id="path257"
       style="opacity:1;fill:#000000;fill-opacity:0.2;stroke:#000000;stroke-width:1;stroke-opacity:0.2"
       d="m 20,52.155963 c 150,0 150,-15 300,-15 v 0.825688 c -150,0 -150,15 -300,15 z"
       class="sankey-link" />
  </g>
  <rect
     y="0.5"
     x="0.25"
     id="rect261"
     style="fill:#0c2c84;fill-opacity:1;stroke:#000000;stroke-width:0.5;stroke-opacity:1"
     height="28.073395"
     width="20"
     class="node-rect" />
  <rect
     y="43.572998"
     x="0.25"
     id="rect267"
     style="fill:#64b09e;fill-opacity:1;stroke:#000000;stroke-width:0.5;stroke-opacity:1"
     height="23.119267"
     width="20"
     class="node-rect" />
  <rect
     y="81.692993"
     x="0.25"
     id="rect273"
     style="fill:#bfcf69;fill-opacity:1;stroke:#000000;stroke-width:0.5;stroke-opacity:1"
     height="38.807339"
     width="20"
     class="node-rect" />
  <rect
     y="0.5"
     x="320.25"
     id="rect279"
     style="fill:#0c2c84;fill-opacity:1;stroke:#000000;stroke-width:0.5;stroke-opacity:1"
     height="37.981651"
     width="20"
     class="node-rect" />
  <rect
     y="53.481995"
     x="320.25"
     id="rect285"
     style="fill:#64b09e;fill-opacity:1;stroke:#000000;stroke-width:0.5;stroke-opacity:1"
     height="21.46789"
     width="20"
     class="node-rect" />
  <rect
     y="89.949997"
     x="320.25"
     id="rect291"
     style="fill:#bfcf69;fill-opacity:1;stroke:#000000;stroke-width:0.5;stroke-opacity:1"
     height="30.550459"
     width="20"
     class="node-rect" />
  <defs
     id="topdefs-915a13">
    <g
       class="clips"
       id="g301" />
  </defs>
  <g
     class="layer-above"
     id="g308"
     transform="translate(-79.75,-99.5)">
    <g
       class="imagelayer"
       id="g304" />
    <g
       class="shapelayer"
       id="g306" />
  </g>
  <g
     class="infolayer"
     id="g314"
     transform="translate(-79.75,-99.5)">
    <g
       class="g-gtitle"
       id="g310" />
    <g
       class="first-render"
       id="g312" />
  </g>
</svg>
