<?xml version="1.0" encoding="utf-8" standalone="no"?>
<!DOCTYPE svg PUBLIC "-//W3C//DTD SVG 1.1//EN"
  "http://www.w3.org/Graphics/SVG/1.1/DTD/svg11.dtd">
<svg height="111.563pt" version="1.1" viewBox="0 0 149.709062 111.563" width="149.709062pt" xmlns="http://www.w3.org/2000/svg" xmlns:xlink="http://www.w3.org/1999/xlink">
 <metadata>
  <rdf:RDF xmlns:cc="http://creativecommons.org/ns#" xmlns:dc="http://purl.org/dc/elements/1.1/" xmlns:rdf="http://www.w3.org/1999/02/22-rdf-syntax-ns#">
   <cc:Work>
    <dc:type rdf:resource="http://purl.org/dc/dcmitype/StillImage"/>
    <dc:date>2023-02-22T09:19:54.185067</dc:date>
    <dc:format>image/svg+xml</dc:format>
    <dc:creator>
     <cc:Agent>
      <dc:title>Matplotlib v3.4.3, https://matplotlib.org/</dc:title>
     </cc:Agent>
    </dc:creator>
   </cc:Work>
  </rdf:RDF>
 </metadata>
 <defs>
  <style type="text/css">*{stroke-linecap:butt;stroke-linejoin:round;}</style>
 </defs>
 <g id="figure_1">
  <g id="patch_1">
   <path d="M -0 111.563 
L 149.709063 111.563 
L 149.709063 0 
L -0 0 
z
" style="fill:none;"/>
  </g>
  <g id="axes_1">
   <g id="patch_2">
    <path d="M 75.549063 87.593625 
L 142.509063 87.593625 
L 142.509063 22.361625 
L 75.549063 22.361625 
z
" style="fill:#ffffff;"/>
   </g>
   <g id="QuadMesh_1">
    <path clip-path="url(#p3c7b13a76e)" d="M 75.549063 22.361625 
L 97.869063 22.361625 
L 97.869063 44.105625 
L 75.549063 44.105625 
L 75.549063 22.361625 
" style="fill:#4896c8;"/>
    <path clip-path="url(#p3c7b13a76e)" d="M 97.869063 22.361625 
L 120.189063 22.361625 
L 120.189063 44.105625 
L 97.869063 44.105625 
L 97.869063 22.361625 
" style="fill:#97c6df;"/>
    <path clip-path="url(#p3c7b13a76e)" d="M 120.189063 22.361625 
L 142.509063 22.361625 
L 142.509063 44.105625 
L 120.189063 44.105625 
L 120.189063 22.361625 
" style="fill:#f7fbff;"/>
    <path clip-path="url(#p3c7b13a76e)" d="M 75.549063 44.105625 
L 97.869063 44.105625 
L 97.869063 65.849625 
L 75.549063 65.849625 
L 75.549063 44.105625 
" style="fill:#57a0ce;"/>
    <path clip-path="url(#p3c7b13a76e)" d="M 97.869063 44.105625 
L 120.189063 44.105625 
L 120.189063 65.849625 
L 97.869063 65.849625 
L 97.869063 44.105625 
" style="fill:#a3cce3;"/>
    <path clip-path="url(#p3c7b13a76e)" d="M 120.189063 44.105625 
L 142.509063 44.105625 
L 142.509063 65.849625 
L 120.189063 65.849625 
L 120.189063 44.105625 
" style="fill:#e7f1fa;"/>
    <path clip-path="url(#p3c7b13a76e)" d="M 75.549063 65.849625 
L 97.869063 65.849625 
L 97.869063 87.593625 
L 75.549063 87.593625 
L 75.549063 65.849625 
" style="fill:#c2d9ee;"/>
    <path clip-path="url(#p3c7b13a76e)" d="M 97.869063 65.849625 
L 120.189063 65.849625 
L 120.189063 87.593625 
L 97.869063 87.593625 
L 97.869063 65.849625 
" style="fill:#afd1e7;"/>
    <path clip-path="url(#p3c7b13a76e)" d="M 120.189063 65.849625 
L 142.509063 65.849625 
L 142.509063 87.593625 
L 120.189063 87.593625 
L 120.189063 65.849625 
" style="fill:#8dc1dd;"/>
   </g>
   <g id="matplotlib.axis_1">
    <g id="xtick_1">
     <g id="line2d_1">
      <defs>
       <path d="M 0 0 
L 0 3.5 
" id="m86fe71d101" style="stroke:#000000;stroke-width:0.8;"/>
      </defs>
      <g>
       <use style="stroke:#000000;stroke-width:0.8;" x="86.709063" xlink:href="#m86fe71d101" y="87.593625"/>
      </g>
     </g>
     <g id="text_1">
      <!-- 0 -->
      <g transform="translate(83.959063 102.228313)scale(0.11 -0.11)">
       <defs>
        <path d="M 250 2048 
Q 250 2989 486 3501 
Q 819 4262 1600 4262 
Q 1766 4262 1939 4217 
Q 2112 4173 2333 4000 
Q 2554 3827 2688 3546 
Q 2944 3002 2944 2048 
Q 2944 1114 2707 602 
Q 2362 -141 1594 -141 
Q 1306 -141 1014 6 
Q 723 154 538 506 
Q 250 1037 250 2048 
z
M 781 2125 
Q 781 1158 851 774 
Q 928 358 1142 179 
Q 1357 0 1594 0 
Q 1850 0 2064 192 
Q 2278 384 2342 800 
Q 2413 1210 2413 2125 
Q 2413 3014 2349 3373 
Q 2266 3789 2042 3955 
Q 1818 4122 1594 4122 
Q 1510 4122 1420 4096 
Q 1331 4070 1203 4000 
Q 1075 3930 976 3750 
Q 877 3571 832 3302 
Q 781 2957 781 2125 
z
" id="CMUSerif-Roman-30" transform="scale(0.015625)"/>
       </defs>
       <use xlink:href="#CMUSerif-Roman-30"/>
      </g>
     </g>
    </g>
    <g id="xtick_2">
     <g id="line2d_2">
      <g>
       <use style="stroke:#000000;stroke-width:0.8;" x="109.029063" xlink:href="#m86fe71d101" y="87.593625"/>
      </g>
     </g>
     <g id="text_2">
      <!-- 1 -->
      <g transform="translate(106.279063 102.228313)scale(0.11 -0.11)">
       <defs>
        <path d="M 570 3654 
L 570 3853 
Q 1338 3853 1734 4262 
Q 1843 4262 1862 4236 
Q 1882 4211 1882 4096 
L 1882 506 
Q 1882 314 1974 256 
Q 2067 198 2477 198 
L 2682 198 
L 2682 0 
Q 2458 19 1645 19 
Q 832 19 608 0 
L 608 198 
L 813 198 
Q 1216 198 1312 256 
Q 1408 314 1408 506 
L 1408 3821 
Q 1075 3654 570 3654 
z
" id="CMUSerif-Roman-31" transform="scale(0.015625)"/>
       </defs>
       <use xlink:href="#CMUSerif-Roman-31"/>
      </g>
     </g>
    </g>
    <g id="xtick_3">
     <g id="line2d_3">
      <g>
       <use style="stroke:#000000;stroke-width:0.8;" x="131.349063" xlink:href="#m86fe71d101" y="87.593625"/>
      </g>
     </g>
     <g id="text_3">
      <!-- 2 -->
      <g transform="translate(128.599063 102.228313)scale(0.11 -0.11)">
       <defs>
        <path d="M 320 0 
Q 320 115 329 150 
Q 339 186 390 237 
L 1619 1606 
Q 2291 2362 2291 3021 
Q 2291 3450 2067 3757 
Q 1843 4064 1434 4064 
Q 1152 4064 915 3891 
Q 678 3718 570 3411 
Q 589 3418 653 3418 
Q 813 3418 902 3318 
Q 992 3219 992 3085 
Q 992 2912 880 2829 
Q 768 2746 659 2746 
Q 614 2746 556 2755 
Q 499 2765 409 2854 
Q 320 2944 320 3104 
Q 320 3552 659 3907 
Q 998 4262 1517 4262 
Q 2106 4262 2490 3913 
Q 2874 3565 2874 3021 
Q 2874 2829 2816 2656 
Q 2758 2483 2681 2348 
Q 2605 2214 2400 2000 
Q 2195 1786 2028 1632 
Q 1862 1478 1491 1152 
L 813 493 
L 1965 493 
Q 2528 493 2573 544 
Q 2637 634 2714 1114 
L 2874 1114 
L 2694 0 
L 320 0 
z
" id="CMUSerif-Roman-32" transform="scale(0.015625)"/>
       </defs>
       <use xlink:href="#CMUSerif-Roman-32"/>
      </g>
     </g>
    </g>
   </g>
   <g id="matplotlib.axis_2">
    <g id="ytick_1">
     <g id="line2d_4">
      <defs>
       <path d="M 0 0 
L -3.5 0 
" id="m252afc47a9" style="stroke:#000000;stroke-width:0.8;"/>
      </defs>
      <g>
       <use style="stroke:#000000;stroke-width:0.8;" x="75.549063" xlink:href="#m252afc47a9" y="33.233625"/>
      </g>
     </g>
     <g id="text_4">
      <!-- control -->
      <g transform="translate(34.944063 35.983625)scale(0.11 -0.11)">
       <defs>
        <path d="M 624 352 
Q 218 774 218 1382 
Q 218 1990 618 2428 
Q 1018 2867 1606 2867 
Q 1997 2867 2291 2681 
Q 2586 2496 2586 2182 
Q 2586 2042 2502 1962 
Q 2419 1882 2291 1882 
Q 2157 1882 2077 1965 
Q 1997 2048 1997 2176 
Q 1997 2234 2016 2288 
Q 2035 2342 2105 2403 
Q 2176 2464 2298 2470 
Q 2067 2707 1613 2707 
Q 1286 2707 1017 2400 
Q 749 2093 749 1395 
Q 749 1030 838 761 
Q 928 493 1075 355 
Q 1222 218 1366 154 
Q 1510 90 1651 90 
Q 2278 90 2490 762 
Q 2509 826 2573 826 
Q 2656 826 2656 762 
Q 2656 730 2630 650 
Q 2605 570 2528 442 
Q 2451 314 2339 202 
Q 2227 90 2032 10 
Q 1837 -70 1594 -70 
Q 1030 -70 624 352 
z
" id="CMUSerif-Roman-63" transform="scale(0.015625)"/>
        <path d="M 601 346 
Q 179 762 179 1370 
Q 179 1978 592 2422 
Q 1005 2867 1600 2867 
Q 2182 2867 2598 2425 
Q 3014 1984 3014 1370 
Q 3014 768 2595 349 
Q 2176 -70 1594 -70 
Q 1024 -70 601 346 
z
M 710 1421 
Q 710 800 870 518 
Q 1120 90 1600 90 
Q 1837 90 2035 218 
Q 2234 346 2342 563 
Q 2483 845 2483 1421 
Q 2483 2035 2317 2310 
Q 2067 2726 1594 2726 
Q 1389 2726 1187 2617 
Q 986 2509 864 2298 
Q 710 2016 710 1421 
z
" id="CMUSerif-Roman-6f" transform="scale(0.015625)"/>
        <path d="M 205 0 
L 205 198 
Q 544 198 624 240 
Q 704 282 704 486 
L 704 2202 
Q 704 2438 621 2499 
Q 538 2560 205 2560 
L 205 2758 
L 1107 2829 
L 1107 2157 
Q 1408 2829 2054 2829 
Q 2534 2829 2726 2592 
Q 2867 2432 2896 2253 
Q 2925 2074 2925 1613 
L 2925 390 
Q 2931 256 3033 227 
Q 3136 198 3424 198 
L 3424 0 
Q 2771 19 2707 19 
Q 2656 19 1984 0 
L 1984 198 
Q 2323 198 2403 240 
Q 2483 282 2483 486 
L 2483 1978 
Q 2483 2304 2384 2496 
Q 2285 2688 2010 2688 
Q 1677 2688 1411 2409 
Q 1146 2131 1146 1664 
L 1146 486 
Q 1146 282 1226 240 
Q 1306 198 1645 198 
L 1645 0 
Q 992 19 928 19 
Q 877 19 205 0 
z
" id="CMUSerif-Roman-6e" transform="scale(0.015625)"/>
        <path d="M 122 2560 
L 122 2701 
Q 416 2714 611 2922 
Q 806 3130 873 3386 
Q 941 3642 947 3936 
L 1107 3936 
L 1107 2758 
L 2022 2758 
L 2022 2560 
L 1107 2560 
L 1107 781 
Q 1107 90 1536 90 
Q 1722 90 1843 278 
Q 1965 467 1965 806 
L 1965 1158 
L 2125 1158 
L 2125 794 
Q 2125 448 1965 189 
Q 1805 -70 1491 -70 
Q 1376 -70 1261 -41 
Q 1146 -13 998 64 
Q 851 141 758 329 
Q 666 518 666 794 
L 666 2560 
L 122 2560 
z
" id="CMUSerif-Roman-74" transform="scale(0.015625)"/>
        <path d="M 179 0 
L 179 198 
Q 518 198 598 240 
Q 678 282 678 486 
L 678 2202 
Q 678 2438 595 2499 
Q 512 2560 179 2560 
L 179 2758 
L 1069 2829 
L 1069 2125 
Q 1158 2400 1350 2614 
Q 1542 2829 1856 2829 
Q 2061 2829 2195 2713 
Q 2330 2598 2330 2438 
Q 2330 2298 2243 2227 
Q 2157 2157 2054 2157 
Q 1939 2157 1859 2230 
Q 1779 2304 1779 2432 
Q 1779 2509 1814 2569 
Q 1850 2630 1878 2652 
Q 1907 2675 1926 2682 
Q 1914 2688 1856 2688 
Q 1504 2688 1302 2336 
Q 1101 1984 1101 1485 
L 1101 499 
Q 1101 314 1177 256 
Q 1254 198 1587 198 
L 1722 198 
L 1722 0 
Q 1466 19 909 19 
Q 832 19 710 16 
Q 589 13 429 6 
Q 269 0 179 0 
z
" id="CMUSerif-Roman-72" transform="scale(0.015625)"/>
        <path d="M 211 0 
L 211 198 
Q 550 198 630 240 
Q 710 282 710 486 
L 710 3814 
Q 710 4051 627 4112 
Q 544 4173 211 4173 
L 211 4371 
L 1133 4442 
L 1133 486 
Q 1133 282 1213 240 
Q 1293 198 1632 198 
L 1632 0 
Q 1555 0 1392 6 
Q 1229 13 1110 16 
Q 992 19 922 19 
Q 845 19 211 0 
z
" id="CMUSerif-Roman-6c" transform="scale(0.015625)"/>
       </defs>
       <use xlink:href="#CMUSerif-Roman-63"/>
       <use x="44.399994" xlink:href="#CMUSerif-Roman-6f"/>
       <use x="94.399979" xlink:href="#CMUSerif-Roman-6e"/>
       <use x="149.899963" xlink:href="#CMUSerif-Roman-74"/>
       <use x="188.699951" xlink:href="#CMUSerif-Roman-72"/>
       <use x="227.799942" xlink:href="#CMUSerif-Roman-6f"/>
       <use x="277.799927" xlink:href="#CMUSerif-Roman-6c"/>
      </g>
     </g>
    </g>
    <g id="ytick_2">
     <g id="line2d_5">
      <g>
       <use style="stroke:#000000;stroke-width:0.8;" x="75.549063" xlink:href="#m252afc47a9" y="54.977625"/>
      </g>
     </g>
     <g id="text_5">
      <!-- affective -->
      <g transform="translate(28.572656 57.727625)scale(0.11 -0.11)">
       <defs>
        <path d="M 269 608 
Q 269 1152 909 1440 
Q 1293 1626 2086 1670 
L 2086 1907 
Q 2086 2304 1878 2515 
Q 1670 2726 1408 2726 
Q 941 2726 717 2432 
Q 909 2426 976 2330 
Q 1043 2234 1043 2138 
Q 1043 2010 963 1926 
Q 883 1843 749 1843 
Q 621 1843 537 1923 
Q 454 2003 454 2144 
Q 454 2458 736 2662 
Q 1018 2867 1421 2867 
Q 1946 2867 2298 2515 
Q 2406 2406 2460 2265 
Q 2515 2125 2521 2032 
Q 2528 1939 2528 1760 
L 2528 480 
Q 2528 442 2541 381 
Q 2554 320 2611 240 
Q 2669 160 2765 160 
Q 2995 160 2995 570 
L 2995 928 
L 3155 928 
L 3155 570 
Q 3155 230 2976 96 
Q 2797 -38 2630 -38 
Q 2419 -38 2284 118 
Q 2150 275 2131 486 
Q 2035 243 1814 86 
Q 1594 -70 1293 -70 
Q 1062 -70 844 -12 
Q 627 45 448 205 
Q 269 365 269 608 
z
M 762 614 
Q 762 378 931 224 
Q 1101 70 1338 70 
Q 1606 70 1846 278 
Q 2086 486 2086 896 
L 2086 1536 
Q 1376 1510 1069 1228 
Q 762 947 762 614 
z
" id="CMUSerif-Roman-61" transform="scale(0.015625)"/>
        <path d="M 211 2560 
L 211 2758 
L 717 2758 
L 717 3494 
Q 717 3968 1024 4240 
Q 1331 4512 1709 4512 
Q 1958 4512 2121 4377 
Q 2285 4243 2285 4064 
Q 2285 3942 2211 3862 
Q 2138 3782 2003 3782 
Q 1875 3782 1801 3862 
Q 1728 3942 1728 4058 
Q 1728 4262 1920 4326 
Q 1824 4371 1709 4371 
Q 1478 4371 1299 4134 
Q 1120 3898 1120 3501 
L 1120 2758 
L 1869 2758 
L 1869 2560 
L 1139 2560 
L 1139 499 
Q 1139 314 1216 256 
Q 1293 198 1626 198 
L 1760 198 
L 1760 0 
Q 1504 19 947 19 
Q 870 19 748 16 
Q 627 13 467 6 
Q 307 0 218 0 
L 218 198 
Q 557 198 637 240 
Q 717 282 717 486 
L 717 2560 
L 211 2560 
z
" id="CMUSerif-Roman-66" transform="scale(0.015625)"/>
        <path d="M 179 1408 
Q 179 2010 566 2438 
Q 954 2867 1510 2867 
Q 2074 2867 2365 2502 
Q 2656 2138 2656 1613 
Q 2656 1517 2630 1497 
Q 2605 1478 2496 1478 
L 710 1478 
Q 710 826 902 518 
Q 1171 90 1626 90 
Q 1690 90 1763 102 
Q 1837 115 1990 169 
Q 2144 224 2278 371 
Q 2413 518 2490 749 
Q 2509 838 2573 838 
Q 2656 838 2656 762 
Q 2656 704 2595 579 
Q 2534 454 2419 304 
Q 2304 154 2080 42 
Q 1856 -70 1587 -70 
Q 1024 -70 601 355 
Q 179 781 179 1408 
z
M 717 1613 
L 2234 1613 
Q 2234 1747 2211 1897 
Q 2189 2048 2121 2256 
Q 2054 2464 1897 2595 
Q 1741 2726 1510 2726 
Q 1408 2726 1296 2681 
Q 1184 2637 1049 2531 
Q 915 2426 822 2186 
Q 730 1946 717 1613 
z
" id="CMUSerif-Roman-65" transform="scale(0.015625)"/>
        <path d="M 211 0 
L 211 198 
Q 550 198 630 240 
Q 710 282 710 486 
L 710 2208 
Q 710 2445 630 2502 
Q 550 2560 237 2560 
L 237 2758 
L 1133 2829 
L 1133 480 
Q 1133 288 1200 243 
Q 1267 198 1581 198 
L 1581 0 
Q 928 19 915 19 
Q 826 19 211 0 
z
M 480 3942 
Q 480 4070 579 4176 
Q 678 4282 819 4282 
Q 960 4282 1059 4186 
Q 1158 4090 1158 3942 
Q 1158 3795 1059 3699 
Q 960 3603 819 3603 
Q 672 3603 576 3705 
Q 480 3808 480 3942 
z
" id="CMUSerif-Roman-69" transform="scale(0.015625)"/>
        <path d="M 122 2560 
L 122 2758 
Q 410 2739 742 2739 
Q 864 2739 1440 2758 
L 1440 2560 
Q 1075 2560 1075 2394 
Q 1075 2368 1114 2285 
L 1830 499 
L 2483 2131 
Q 2522 2240 2522 2285 
Q 2522 2394 2448 2474 
Q 2374 2554 2214 2560 
L 2214 2758 
Q 2541 2739 2771 2739 
Q 3034 2739 3251 2758 
L 3251 2560 
Q 3059 2560 2924 2473 
Q 2790 2387 2748 2313 
Q 2707 2240 2662 2131 
L 1824 51 
Q 1773 -70 1690 -70 
Q 1632 -70 1609 -48 
Q 1587 -26 1555 51 
L 634 2323 
Q 570 2483 490 2521 
Q 410 2560 122 2560 
z
" id="CMUSerif-Roman-76" transform="scale(0.015625)"/>
       </defs>
       <use xlink:href="#CMUSerif-Roman-61"/>
       <use x="49.999985" xlink:href="#CMUSerif-Roman-66"/>
       <use x="80.499969" xlink:href="#CMUSerif-Roman-66"/>
       <use x="110.999954" xlink:href="#CMUSerif-Roman-65"/>
       <use x="155.399948" xlink:href="#CMUSerif-Roman-63"/>
       <use x="199.799942" xlink:href="#CMUSerif-Roman-74"/>
       <use x="238.59993" xlink:href="#CMUSerif-Roman-69"/>
       <use x="266.299927" xlink:href="#CMUSerif-Roman-76"/>
       <use x="318.999924" xlink:href="#CMUSerif-Roman-65"/>
      </g>
     </g>
    </g>
    <g id="ytick_3">
     <g id="line2d_6">
      <g>
       <use style="stroke:#000000;stroke-width:0.8;" x="75.549063" xlink:href="#m252afc47a9" y="76.721625"/>
      </g>
     </g>
     <g id="text_6">
      <!-- non-affective -->
      <g transform="translate(7.2 79.471625)scale(0.11 -0.11)">
       <defs>
        <path d="M 64 1190 
L 64 1568 
L 1766 1568 
L 1766 1190 
L 64 1190 
z
" id="CMUSerif-Roman-2d" transform="scale(0.015625)"/>
       </defs>
       <use xlink:href="#CMUSerif-Roman-6e"/>
       <use x="55.499985" xlink:href="#CMUSerif-Roman-6f"/>
       <use x="105.499969" xlink:href="#CMUSerif-Roman-6e"/>
       <use x="160.999954" xlink:href="#CMUSerif-Roman-2d"/>
       <use x="194.299942" xlink:href="#CMUSerif-Roman-61"/>
       <use x="244.299927" xlink:href="#CMUSerif-Roman-66"/>
       <use x="274.799911" xlink:href="#CMUSerif-Roman-66"/>
       <use x="305.299896" xlink:href="#CMUSerif-Roman-65"/>
       <use x="349.69989" xlink:href="#CMUSerif-Roman-63"/>
       <use x="394.099884" xlink:href="#CMUSerif-Roman-74"/>
       <use x="432.899872" xlink:href="#CMUSerif-Roman-69"/>
       <use x="460.599869" xlink:href="#CMUSerif-Roman-76"/>
       <use x="513.299866" xlink:href="#CMUSerif-Roman-65"/>
      </g>
     </g>
    </g>
   </g>
   <g id="text_7">
    <!-- 61% -->
    <g style="fill:#ffffff;" transform="translate(77.544219 35.733625)scale(0.1 -0.1)">
     <defs>
      <path d="M 269 2022 
Q 269 3027 781 3644 
Q 1293 4262 1952 4262 
Q 2336 4262 2550 4067 
Q 2765 3872 2765 3571 
Q 2765 3405 2669 3334 
Q 2573 3264 2470 3264 
Q 2355 3264 2265 3341 
Q 2176 3418 2176 3558 
Q 2176 3846 2528 3846 
Q 2362 4102 1965 4102 
Q 1843 4102 1718 4067 
Q 1594 4032 1430 3913 
Q 1267 3795 1142 3606 
Q 1018 3418 931 3066 
Q 845 2714 845 2253 
L 845 2099 
Q 1107 2733 1644 2733 
Q 2182 2733 2553 2323 
Q 2925 1914 2925 1306 
Q 2925 685 2537 272 
Q 2150 -141 1606 -141 
Q 1363 -141 1142 -38 
Q 922 64 717 294 
Q 512 525 390 969 
Q 269 1414 269 2022 
z
M 858 1446 
Q 858 819 973 518 
Q 992 467 1033 400 
Q 1075 333 1148 243 
Q 1222 154 1344 96 
Q 1466 38 1606 38 
Q 2035 38 2240 454 
Q 2349 685 2349 1312 
Q 2349 1952 2234 2189 
Q 2035 2586 1638 2586 
Q 1370 2586 1184 2400 
Q 998 2214 928 1968 
Q 858 1722 858 1446 
z
" id="CMUSerif-Roman-36" transform="scale(0.015625)"/>
      <path d="M 358 3514 
Q 358 4064 640 4432 
Q 922 4800 1299 4800 
Q 1530 4800 1760 4595 
Q 2278 4102 2957 4102 
Q 3725 4102 4173 4710 
Q 4250 4800 4307 4800 
Q 4358 4800 4396 4761 
Q 4435 4723 4435 4672 
Q 4435 4634 4384 4557 
L 1146 -262 
Q 1075 -358 1018 -358 
Q 966 -358 928 -320 
Q 890 -282 890 -230 
Q 890 -186 947 -102 
L 3821 4179 
L 3814 4186 
Q 3482 3962 2963 3962 
Q 2470 3962 1997 4230 
Q 2131 3898 2131 3507 
Q 2131 2970 1891 2595 
Q 1651 2221 1299 2221 
Q 922 2221 640 2585 
Q 358 2950 358 3514 
z
M 800 4035 
Q 755 3808 755 3507 
Q 755 3206 800 2982 
Q 845 2758 909 2643 
Q 973 2528 1059 2461 
Q 1146 2394 1200 2378 
Q 1254 2362 1306 2362 
Q 1568 2362 1769 2688 
Q 1971 3014 1971 3514 
Q 1971 4000 1769 4329 
Q 1568 4659 1306 4659 
Q 1248 4659 1193 4643 
Q 1139 4627 1056 4560 
Q 973 4493 909 4377 
Q 845 4262 800 4035 
z
M 3194 934 
Q 3194 1485 3475 1853 
Q 3757 2221 4134 2221 
Q 4480 2221 4723 1846 
Q 4966 1472 4966 928 
Q 4966 390 4726 16 
Q 4486 -358 4134 -358 
Q 3757 -358 3475 6 
Q 3194 371 3194 934 
z
M 3635 1456 
Q 3590 1229 3590 928 
Q 3590 627 3635 403 
Q 3680 179 3744 64 
Q 3808 -51 3894 -118 
Q 3981 -186 4035 -202 
Q 4090 -218 4141 -218 
Q 4403 -218 4604 108 
Q 4806 435 4806 934 
Q 4806 1421 4604 1750 
Q 4403 2080 4141 2080 
Q 4083 2080 4028 2064 
Q 3974 2048 3891 1981 
Q 3808 1914 3744 1798 
Q 3680 1683 3635 1456 
z
" id="CMUSerif-Roman-25" transform="scale(0.015625)"/>
     </defs>
     <use xlink:href="#CMUSerif-Roman-36"/>
     <use x="49.999985" xlink:href="#CMUSerif-Roman-31"/>
     <use x="99.999969" xlink:href="#CMUSerif-Roman-25"/>
    </g>
   </g>
   <g id="text_8">
    <!-- 39% -->
    <g style="fill:#262626;" transform="translate(99.864219 35.733625)scale(0.1 -0.1)">
     <defs>
      <path d="M 269 864 
Q 269 1056 377 1145 
Q 486 1235 627 1235 
Q 774 1235 880 1139 
Q 986 1043 986 877 
Q 986 698 861 598 
Q 736 499 563 525 
Q 717 269 998 153 
Q 1280 38 1542 38 
Q 1818 38 2042 275 
Q 2266 512 2266 1094 
Q 2266 1587 2074 1872 
Q 1882 2157 1504 2157 
L 1222 2157 
Q 1126 2157 1097 2166 
Q 1069 2176 1069 2227 
Q 1069 2291 1165 2304 
Q 1261 2304 1414 2323 
Q 1786 2336 1984 2656 
Q 2163 2957 2163 3386 
Q 2163 3776 1977 3939 
Q 1792 4102 1549 4102 
Q 1325 4102 1078 4009 
Q 832 3917 698 3706 
Q 1094 3706 1094 3386 
Q 1094 3245 1004 3152 
Q 915 3059 768 3059 
Q 627 3059 534 3148 
Q 442 3238 442 3392 
Q 442 3757 768 4009 
Q 1094 4262 1574 4262 
Q 2048 4262 2400 4012 
Q 2752 3763 2752 3379 
Q 2752 3002 2502 2691 
Q 2253 2381 1856 2253 
Q 2342 2157 2633 1827 
Q 2925 1498 2925 1094 
Q 2925 595 2531 227 
Q 2138 -141 1562 -141 
Q 1030 -141 649 147 
Q 269 435 269 864 
z
" id="CMUSerif-Roman-33" transform="scale(0.015625)"/>
      <path d="M 269 2822 
Q 269 3162 368 3395 
Q 467 3629 678 3859 
Q 1062 4262 1619 4262 
Q 1856 4262 2067 4163 
Q 2278 4064 2480 3837 
Q 2682 3610 2803 3165 
Q 2925 2720 2925 2106 
Q 2925 1114 2445 486 
Q 1965 -141 1318 -141 
Q 909 -141 669 44 
Q 429 230 429 550 
Q 429 717 521 787 
Q 614 858 723 858 
Q 838 858 928 781 
Q 1018 704 1018 563 
Q 1018 448 944 358 
Q 870 269 685 269 
Q 870 38 1312 38 
Q 1472 38 1632 112 
Q 1792 186 1965 365 
Q 2138 544 2243 921 
Q 2349 1299 2349 1830 
L 2349 2035 
Q 2093 1395 1549 1395 
Q 1011 1395 640 1808 
Q 269 2221 269 2822 
z
M 845 2816 
Q 845 2182 960 1946 
Q 1158 1542 1555 1542 
Q 1946 1542 2141 1891 
Q 2336 2240 2336 2694 
Q 2336 3322 2234 3597 
Q 2042 4102 1619 4102 
Q 1197 4102 979 3699 
Q 845 3462 845 2816 
z
" id="CMUSerif-Roman-39" transform="scale(0.015625)"/>
     </defs>
     <use xlink:href="#CMUSerif-Roman-33"/>
     <use x="49.999985" xlink:href="#CMUSerif-Roman-39"/>
     <use x="99.999969" xlink:href="#CMUSerif-Roman-25"/>
    </g>
   </g>
   <g id="text_9">
    <!-- 0% -->
    <g style="fill:#262626;" transform="translate(124.684219 35.733625)scale(0.1 -0.1)">
     <use xlink:href="#CMUSerif-Roman-30"/>
     <use x="49.999985" xlink:href="#CMUSerif-Roman-25"/>
    </g>
   </g>
   <g id="text_10">
    <!-- 56% -->
    <g style="fill:#ffffff;" transform="translate(77.544219 57.477625)scale(0.1 -0.1)">
     <defs>
      <path d="M 320 1030 
Q 320 1222 422 1296 
Q 525 1370 634 1370 
Q 781 1370 867 1277 
Q 954 1184 954 1056 
Q 954 928 867 835 
Q 781 742 634 742 
Q 563 742 525 755 
Q 608 461 867 249 
Q 1126 38 1466 38 
Q 1894 38 2150 454 
Q 2304 723 2304 1331 
Q 2304 1869 2189 2138 
Q 2010 2547 1645 2547 
Q 1126 2547 819 2099 
Q 781 2042 736 2042 
Q 672 2042 659 2077 
Q 646 2112 646 2208 
L 646 4102 
Q 646 4256 710 4256 
Q 736 4256 787 4237 
Q 1190 4058 1638 4058 
Q 2099 4058 2509 4243 
Q 2541 4262 2560 4262 
Q 2624 4262 2624 4192 
Q 2624 4166 2573 4092 
Q 2522 4019 2413 3923 
Q 2304 3827 2163 3737 
Q 2022 3648 1817 3587 
Q 1613 3526 1389 3526 
Q 1120 3526 845 3610 
L 845 2362 
Q 1178 2688 1658 2688 
Q 2170 2688 2522 2275 
Q 2874 1862 2874 1286 
Q 2874 685 2458 272 
Q 2042 -141 1478 -141 
Q 966 -141 643 224 
Q 320 589 320 1030 
z
" id="CMUSerif-Roman-35" transform="scale(0.015625)"/>
     </defs>
     <use xlink:href="#CMUSerif-Roman-35"/>
     <use x="49.999985" xlink:href="#CMUSerif-Roman-36"/>
     <use x="99.999969" xlink:href="#CMUSerif-Roman-25"/>
    </g>
   </g>
   <g id="text_11">
    <!-- 36% -->
    <g style="fill:#262626;" transform="translate(99.864219 57.477625)scale(0.1 -0.1)">
     <use xlink:href="#CMUSerif-Roman-33"/>
     <use x="49.999985" xlink:href="#CMUSerif-Roman-36"/>
     <use x="99.999969" xlink:href="#CMUSerif-Roman-25"/>
    </g>
   </g>
   <g id="text_12">
    <!-- 8% -->
    <g style="fill:#262626;" transform="translate(124.684219 57.477625)scale(0.1 -0.1)">
     <defs>
      <path d="M 269 966 
Q 269 1683 1190 2144 
Q 794 2413 723 2490 
Q 442 2803 442 3194 
Q 442 3642 781 3952 
Q 1120 4262 1600 4262 
Q 2061 4262 2406 3996 
Q 2752 3731 2752 3309 
Q 2752 2714 1978 2317 
Q 2490 1997 2611 1862 
Q 2925 1517 2925 1075 
Q 2925 563 2531 211 
Q 2138 -141 1594 -141 
Q 1062 -141 665 169 
Q 269 480 269 966 
z
M 589 966 
Q 589 570 886 304 
Q 1184 38 1600 38 
Q 2003 38 2304 268 
Q 2605 499 2605 845 
Q 2605 979 2560 1094 
Q 2515 1210 2425 1302 
Q 2336 1395 2281 1436 
Q 2227 1478 2125 1549 
L 1338 2048 
Q 589 1632 589 966 
z
M 723 3443 
Q 723 3136 1043 2925 
L 1837 2413 
Q 2470 2784 2470 3309 
Q 2470 3648 2211 3875 
Q 1952 4102 1594 4102 
Q 1242 4102 982 3916 
Q 723 3731 723 3443 
z
" id="CMUSerif-Roman-38" transform="scale(0.015625)"/>
     </defs>
     <use xlink:href="#CMUSerif-Roman-38"/>
     <use x="49.999985" xlink:href="#CMUSerif-Roman-25"/>
    </g>
   </g>
   <g id="text_13">
    <!-- 26% -->
    <g style="fill:#262626;" transform="translate(77.544219 79.221625)scale(0.1 -0.1)">
     <use xlink:href="#CMUSerif-Roman-32"/>
     <use x="49.999985" xlink:href="#CMUSerif-Roman-36"/>
     <use x="99.999969" xlink:href="#CMUSerif-Roman-25"/>
    </g>
   </g>
   <g id="text_14">
    <!-- 32% -->
    <g style="fill:#262626;" transform="translate(99.864219 79.221625)scale(0.1 -0.1)">
     <use xlink:href="#CMUSerif-Roman-33"/>
     <use x="49.999985" xlink:href="#CMUSerif-Roman-32"/>
     <use x="99.999969" xlink:href="#CMUSerif-Roman-25"/>
    </g>
   </g>
   <g id="text_15">
    <!-- 42% -->
    <g style="fill:#262626;" transform="translate(122.184219 79.221625)scale(0.1 -0.1)">
     <defs>
      <path d="M 179 1056 
L 179 1254 
L 2144 4256 
Q 2195 4333 2272 4333 
Q 2342 4333 2358 4304 
Q 2374 4275 2374 4166 
L 2374 1254 
L 3014 1254 
L 3014 1056 
L 2374 1056 
L 2374 499 
Q 2374 314 2451 256 
Q 2528 198 2861 198 
L 2995 198 
L 2995 0 
Q 2733 19 2125 19 
Q 1523 19 1261 0 
L 1261 198 
L 1395 198 
Q 1728 198 1805 256 
Q 1882 314 1882 499 
L 1882 1056 
L 179 1056 
z
M 358 1254 
L 1920 1254 
L 1920 3642 
L 358 1254 
z
" id="CMUSerif-Roman-34" transform="scale(0.015625)"/>
     </defs>
     <use xlink:href="#CMUSerif-Roman-34"/>
     <use x="49.999985" xlink:href="#CMUSerif-Roman-32"/>
     <use x="99.999969" xlink:href="#CMUSerif-Roman-25"/>
    </g>
   </g>
   <g id="text_16">
    <!-- Cluster -->
    <g transform="translate(88.099844 16.361625)scale(0.132 -0.132)">
     <defs>
      <path d="M 358 2189 
Q 358 3155 1017 3833 
Q 1677 4512 2586 4512 
Q 2867 4512 3116 4409 
Q 3366 4307 3481 4217 
Q 3597 4128 3763 3962 
L 4083 4435 
Q 4134 4512 4185 4512 
Q 4237 4512 4246 4483 
Q 4256 4454 4256 4358 
L 4256 2842 
Q 4256 2739 4243 2713 
Q 4230 2688 4154 2688 
Q 4090 2688 4077 2707 
Q 4064 2726 4051 2797 
Q 3955 3488 3571 3901 
Q 3187 4314 2656 4314 
Q 2502 4314 2332 4278 
Q 2163 4243 1916 4112 
Q 1670 3981 1481 3763 
Q 1293 3546 1155 3136 
Q 1018 2726 1018 2182 
Q 1018 1645 1155 1232 
Q 1293 819 1481 604 
Q 1670 390 1916 259 
Q 2163 128 2336 93 
Q 2509 58 2662 58 
Q 3213 58 3635 448 
Q 4058 838 4096 1498 
Q 4102 1530 4102 1542 
Q 4102 1555 4108 1571 
Q 4115 1587 4131 1593 
Q 4147 1600 4173 1600 
Q 4256 1600 4256 1491 
Q 4256 883 3789 371 
Q 3322 -141 2586 -141 
Q 1677 -141 1017 534 
Q 358 1210 358 2189 
z
" id="CMUSerif-Roman-43" transform="scale(0.015625)"/>
      <path d="M 205 2560 
L 205 2758 
L 1146 2829 
L 1146 704 
Q 1146 550 1158 460 
Q 1171 371 1222 268 
Q 1274 166 1395 118 
Q 1517 70 1709 70 
Q 2054 70 2268 355 
Q 2483 640 2483 1062 
L 2483 2202 
Q 2483 2438 2400 2499 
Q 2317 2560 1984 2560 
L 1984 2758 
L 2925 2829 
L 2925 557 
Q 2925 320 3008 259 
Q 3091 198 3424 198 
L 3424 0 
L 2502 -70 
L 2502 506 
Q 2234 -70 1677 -70 
Q 1395 -70 1203 0 
Q 1011 70 915 160 
Q 819 250 768 422 
Q 717 595 710 700 
Q 704 806 704 1011 
L 704 1971 
Q 704 2406 640 2483 
Q 576 2560 205 2560 
z
" id="CMUSerif-Roman-75" transform="scale(0.015625)"/>
      <path d="M 211 83 
L 211 928 
Q 211 998 214 1024 
Q 218 1050 237 1069 
Q 256 1088 294 1088 
Q 339 1088 355 1069 
Q 371 1050 384 979 
Q 480 538 688 304 
Q 896 70 1274 70 
Q 1632 70 1814 230 
Q 1997 390 1997 653 
Q 1997 1120 1331 1242 
Q 947 1318 787 1369 
Q 627 1421 486 1536 
Q 211 1760 211 2080 
Q 211 2400 454 2633 
Q 698 2867 1235 2867 
Q 1594 2867 1837 2688 
Q 1907 2746 1946 2790 
Q 2029 2867 2074 2867 
Q 2125 2867 2134 2835 
Q 2144 2803 2144 2714 
L 2144 2067 
Q 2144 1997 2141 1971 
Q 2138 1946 2118 1930 
Q 2099 1914 2061 1914 
Q 1990 1914 1984 1971 
Q 1933 2746 1235 2746 
Q 858 2746 688 2602 
Q 518 2458 518 2259 
Q 518 2150 569 2067 
Q 621 1984 688 1936 
Q 755 1888 880 1843 
Q 1005 1798 1081 1782 
Q 1158 1766 1306 1734 
Q 1818 1638 2035 1427 
Q 2304 1158 2304 819 
Q 2304 442 2048 186 
Q 1792 -70 1274 -70 
Q 858 -70 570 205 
Q 531 166 502 134 
Q 474 102 464 89 
Q 454 77 451 70 
Q 448 64 442 58 
Q 314 -70 282 -70 
Q 230 -70 220 -38 
Q 211 -6 211 83 
z
" id="CMUSerif-Roman-73" transform="scale(0.015625)"/>
     </defs>
     <use xlink:href="#CMUSerif-Roman-43"/>
     <use x="72.199982" xlink:href="#CMUSerif-Roman-6c"/>
     <use x="99.899979" xlink:href="#CMUSerif-Roman-75"/>
     <use x="155.399963" xlink:href="#CMUSerif-Roman-73"/>
     <use x="194.799957" xlink:href="#CMUSerif-Roman-74"/>
     <use x="233.599945" xlink:href="#CMUSerif-Roman-65"/>
     <use x="277.999939" xlink:href="#CMUSerif-Roman-72"/>
    </g>
   </g>
  </g>
 </g>
 <defs>
  <clipPath id="p3c7b13a76e">
   <rect height="65.232" width="66.96" x="75.549063" y="22.361625"/>
  </clipPath>
 </defs>
</svg>
