<?xml version="1.0" encoding="UTF-8" standalone="no"?>
<svg
   xmlns:dc="http://purl.org/dc/elements/1.1/"
   xmlns:cc="http://creativecommons.org/ns#"
   xmlns:rdf="http://www.w3.org/1999/02/22-rdf-syntax-ns#"
   xmlns:svg="http://www.w3.org/2000/svg"
   xmlns="http://www.w3.org/2000/svg"
   xmlns:sodipodi="http://sodipodi.sourceforge.net/DTD/sodipodi-0.dtd"
   xmlns:inkscape="http://www.inkscape.org/namespaces/inkscape"
   class="main-svg"
   width="90.5"
   height="71"
   viewBox="0 0 90.5 71"
   version="1.1"
   id="svg408"
   sodipodi:docname="clu_flow_pheno_all.svg"
   inkscape:version="0.92.5 (2060ec1f9f, 2020-04-08)">
  <metadata
     id="metadata412">
    <rdf:RDF>
      <cc:Work
         rdf:about="">
        <dc:format>image/svg+xml</dc:format>
        <dc:type
           rdf:resource="http://purl.org/dc/dcmitype/StillImage" />
      </cc:Work>
    </rdf:RDF>
  </metadata>
  <sodipodi:namedview
     pagecolor="#ffffff"
     bordercolor="#666666"
     borderopacity="1"
     objecttolerance="10"
     gridtolerance="10"
     guidetolerance="10"
     inkscape:pageopacity="0"
     inkscape:pageshadow="2"
     inkscape:window-width="1920"
     inkscape:window-height="1018"
     id="namedview410"
     showgrid="false"
     inkscape:zoom="5.3400704"
     inkscape:cx="30.463267"
     inkscape:cy="57.651871"
     inkscape:window-x="1920"
     inkscape:window-y="34"
     inkscape:window-maximized="1"
     inkscape:current-layer="svg408" />
  <defs
     id="defs-5cad8c">
    <g
       class="clips"
       id="g4" />
    <g
       class="gradients"
       id="g6" />
    <g
       class="patterns"
       id="g8" />
  </defs>
  <g
     class="bglayer"
     id="g11"
     transform="translate(-79.75,-99.5)" />
  <g
     class="layer-below"
     id="g17"
     transform="translate(-79.75,-99.5)">
    <g
       class="imagelayer"
       id="g13" />
    <g
       class="shapelayer"
       id="g15" />
  </g>
  <g
     class="cartesianlayer"
     id="g19"
     transform="translate(-79.75,-99.5)" />
  <g
     class="polarlayer"
     id="g21"
     transform="translate(-79.75,-99.5)" />
  <g
     class="smithlayer"
     id="g23"
     transform="translate(-79.75,-99.5)" />
  <g
     class="ternarylayer"
     id="g25"
     transform="translate(-79.75,-99.5)" />
  <g
     class="geolayer"
     id="g27"
     transform="translate(-79.75,-99.5)" />
  <g
     class="funnelarealayer"
     id="g29"
     transform="translate(-79.75,-99.5)" />
  <g
     class="pielayer"
     id="g31"
     transform="translate(-79.75,-99.5)" />
  <g
     class="iciclelayer"
     id="g33"
     transform="translate(-79.75,-99.5)" />
  <g
     class="treemaplayer"
     id="g35"
     transform="translate(-79.75,-99.5)" />
  <g
     class="sunburstlayer"
     id="g37"
     transform="translate(-79.75,-99.5)" />
  <g
     class="glimages"
     id="g39"
     transform="translate(-79.75,-99.5)" />
  <g
     id="g351"
     style="opacity:0.5979999;fill:none"
     class="sankey-links"
     transform="translate(0.25,0.5)">
    <path
       inkscape:connector-curvature="0"
       id="path41"
       style="opacity:1;fill:#3880d9;fill-opacity:1;stroke:#3880d9;stroke-width:1;stroke-opacity:1"
       d="m 15,0 c 30,0 30,0 60,0 v 0.32258065 c -30,0 -30,0 -60,0 z"
       class="sankey-link" />
    <path
       inkscape:connector-curvature="0"
       id="path43"
       style="opacity:1;fill:#3880d9;fill-opacity:1;stroke:#3880d9;stroke-width:1;stroke-opacity:1"
       d="m 15,0.32258065 c 30,0 30,0 60,0 v 0.32258064 c -30,0 -30,0 -60,0 z"
       class="sankey-link" />
    <path
       inkscape:connector-curvature="0"
       id="path45"
       style="opacity:1;fill:#3880d9;fill-opacity:1;stroke:#3880d9;stroke-width:1;stroke-opacity:1"
       d="m 15,31.290323 c 30,0 30,0 60,0 v 0.32258 c -30,0 -30,0 -60,0 z"
       class="sankey-link" />
    <path
       inkscape:connector-curvature="0"
       id="path47"
       style="opacity:1;fill:#3880d9;fill-opacity:1;stroke:#3880d9;stroke-width:1;stroke-opacity:1"
       d="m 15,31.612903 c 30,0 30,0 60,0 v 0.322581 c -30,0 -30,0 -60,0 z"
       class="sankey-link" />
    <path
       inkscape:connector-curvature="0"
       id="path49"
       style="opacity:1;fill:#3880d9;fill-opacity:1;stroke:#3880d9;stroke-width:1;stroke-opacity:1"
       d="m 15,0.64516129 c 30,0 30,0 60,0 v 0.32258065 c -30,0 -30,0 -60,0 z"
       class="sankey-link" />
    <path
       inkscape:connector-curvature="0"
       id="path51"
       style="opacity:1;fill:#3880d9;fill-opacity:1;stroke:#3880d9;stroke-width:1;stroke-opacity:1"
       d="m 15,31.935484 c 30,0 30,0 60,0 v 0.322581 c -30,0 -30,0 -60,0 z"
       class="sankey-link" />
    <path
       inkscape:connector-curvature="0"
       id="path53"
       style="opacity:1;fill:#3880d9;fill-opacity:1;stroke:#3880d9;stroke-width:1;stroke-opacity:1"
       d="m 15,0.96774194 c 30,0 30,0 60,0 V 1.2903226 c -30,0 -30,0 -60,0 z"
       class="sankey-link" />
    <path
       inkscape:connector-curvature="0"
       id="path55"
       style="opacity:1;fill:#3880d9;fill-opacity:1;stroke:#3880d9;stroke-width:1;stroke-opacity:1"
       d="m 15,1.2903226 c 30,0 30,0 60,0 v 0.3225806 c -30,0 -30,0 -60,0 z"
       class="sankey-link" />
    <path
       inkscape:connector-curvature="0"
       id="path57"
       style="opacity:1;fill:#3880d9;fill-opacity:1;stroke:#3880d9;stroke-width:1;stroke-opacity:1"
       d="m 15,1.6129032 c 30,0 30,0 60,0 v 0.3225807 c -30,0 -30,0 -60,0 z"
       class="sankey-link" />
    <path
       inkscape:connector-curvature="0"
       id="path59"
       style="opacity:1;fill:#3880d9;fill-opacity:1;stroke:#3880d9;stroke-width:1;stroke-opacity:1"
       d="m 15,1.9354839 c 30,0 30,0 60,0 v 0.3225806 c -30,0 -30,0 -60,0 z"
       class="sankey-link" />
    <path
       inkscape:connector-curvature="0"
       id="path61"
       style="opacity:1;fill:#3880d9;fill-opacity:1;stroke:#3880d9;stroke-width:1;stroke-opacity:1"
       d="m 15,2.2580645 c 30,0 30,0 60,0 v 0.3225807 c -30,0 -30,0 -60,0 z"
       class="sankey-link" />
    <path
       inkscape:connector-curvature="0"
       id="path63"
       style="opacity:1;fill:#3880d9;fill-opacity:1;stroke:#3880d9;stroke-width:1;stroke-opacity:1"
       d="m 15,32.258065 c 30,0 30,0 60,0 v 0.32258 c -30,0 -30,0 -60,0 z"
       class="sankey-link" />
    <path
       inkscape:connector-curvature="0"
       id="path65"
       style="opacity:1;fill:#3880d9;fill-opacity:1;stroke:#3880d9;stroke-width:1;stroke-opacity:1"
       d="m 15,2.5806452 c 30,0 30,0 60,0 v 0.3225806 c -30,0 -30,0 -60,0 z"
       class="sankey-link" />
    <path
       inkscape:connector-curvature="0"
       id="path67"
       style="opacity:1;fill:#3880d9;fill-opacity:1;stroke:#3880d9;stroke-width:1;stroke-opacity:1"
       d="m 15,2.9032258 c 30,0 30,0 60,0 v 0.3225807 c -30,0 -30,0 -60,0 z"
       class="sankey-link" />
    <path
       inkscape:connector-curvature="0"
       id="path69"
       style="opacity:1;fill:#3880d9;fill-opacity:1;stroke:#3880d9;stroke-width:1;stroke-opacity:1"
       d="m 15,3.2258065 c 30,0 30,0 60,0 v 0.3225806 c -30,0 -30,0 -60,0 z"
       class="sankey-link" />
    <path
       inkscape:connector-curvature="0"
       id="path71"
       style="opacity:1;fill:#3880d9;fill-opacity:1;stroke:#3880d9;stroke-width:1;stroke-opacity:1"
       d="m 15,3.5483871 c 30,0 30,0 60,0 v 0.3225806 c -30,0 -30,0 -60,0 z"
       class="sankey-link" />
    <path
       inkscape:connector-curvature="0"
       id="path73"
       style="opacity:1;fill:#3880d9;fill-opacity:1;stroke:#3880d9;stroke-width:1;stroke-opacity:1"
       d="m 15,3.8709677 c 30,0 30,0 60,0 v 0.3225807 c -30,0 -30,0 -60,0 z"
       class="sankey-link" />
    <path
       inkscape:connector-curvature="0"
       id="path75"
       style="opacity:1;fill:#3880d9;fill-opacity:1;stroke:#3880d9;stroke-width:1;stroke-opacity:1"
       d="m 15,32.580645 c 30,0 30,0 60,0 v 0.322581 c -30,0 -30,0 -60,0 z"
       class="sankey-link" />
    <path
       inkscape:connector-curvature="0"
       id="path77"
       style="opacity:1;fill:#3880d9;fill-opacity:1;stroke:#3880d9;stroke-width:1;stroke-opacity:1"
       d="m 15,4.1935484 c 30,0 30,0 60,0 V 4.516129 c -30,0 -30,0 -60,0 z"
       class="sankey-link" />
    <path
       inkscape:connector-curvature="0"
       id="path79"
       style="opacity:1;fill:#3880d9;fill-opacity:1;stroke:#3880d9;stroke-width:1;stroke-opacity:1"
       d="m 15,32.903226 c 30,0 30,0 60,0 v 0.32258 c -30,0 -30,0 -60,0 z"
       class="sankey-link" />
    <path
       inkscape:connector-curvature="0"
       id="path81"
       style="opacity:1;fill:#3880d9;fill-opacity:1;stroke:#3880d9;stroke-width:1;stroke-opacity:1"
       d="m 15,33.225806 c 30,0 30,0 60,0 v 0.322581 c -30,0 -30,0 -60,0 z"
       class="sankey-link" />
    <path
       inkscape:connector-curvature="0"
       id="path83"
       style="opacity:1;fill:#3880d9;fill-opacity:1;stroke:#3880d9;stroke-width:1;stroke-opacity:1"
       d="m 15,4.516129 c 30,0 30,0 60,0 v 0.3225807 c -30,0 -30,0 -60,0 z"
       class="sankey-link" />
    <path
       inkscape:connector-curvature="0"
       id="path85"
       style="opacity:1;fill:#3880d9;fill-opacity:1;stroke:#3880d9;stroke-width:1;stroke-opacity:1"
       d="m 15,4.8387097 c 30,0 30,0 60,0 v 0.3225806 c -30,0 -30,0 -60,0 z"
       class="sankey-link" />
    <path
       inkscape:connector-curvature="0"
       id="path87"
       style="opacity:1;fill:#3880d9;fill-opacity:1;stroke:#3880d9;stroke-width:1;stroke-opacity:1"
       d="m 15,33.548387 c 30,0 30,0 60,0 v 0.322581 c -30,0 -30,0 -60,0 z"
       class="sankey-link" />
    <path
       inkscape:connector-curvature="0"
       id="path89"
       style="opacity:1;fill:#3880d9;fill-opacity:1;stroke:#3880d9;stroke-width:1;stroke-opacity:1"
       d="m 15,33.870968 c 30,0 30,0 60,0 v 0.32258 c -30,0 -30,0 -60,0 z"
       class="sankey-link" />
    <path
       inkscape:connector-curvature="0"
       id="path91"
       style="opacity:1;fill:#3880d9;fill-opacity:1;stroke:#3880d9;stroke-width:1;stroke-opacity:1"
       d="m 15,34.193548 c 30,0 30,0 60,0 v 0.322581 c -30,0 -30,0 -60,0 z"
       class="sankey-link" />
    <path
       inkscape:connector-curvature="0"
       id="path93"
       style="opacity:1;fill:#3880d9;fill-opacity:1;stroke:#3880d9;stroke-width:1;stroke-opacity:1"
       d="m 15,44.516129 c 30,0 30,10 60,10 v 0.322581 c -30,0 -30,-10 -60,-10 z"
       class="sankey-link" />
    <path
       inkscape:connector-curvature="0"
       id="path95"
       style="opacity:1;fill:#3880d9;fill-opacity:1;stroke:#3880d9;stroke-width:1;stroke-opacity:1"
       d="m 15,5.1612903 c 30,0 30,0 60,0 V 5.483871 c -30,0 -30,0 -60,0 z"
       class="sankey-link" />
    <path
       inkscape:connector-curvature="0"
       id="path97"
       style="opacity:1;fill:#3880d9;fill-opacity:1;stroke:#3880d9;stroke-width:1;stroke-opacity:1"
       d="m 15,5.483871 c 30,0 30,0 60,0 v 0.3225806 c -30,0 -30,0 -60,0 z"
       class="sankey-link" />
    <path
       inkscape:connector-curvature="0"
       id="path99"
       style="opacity:1;fill:#3880d9;fill-opacity:1;stroke:#3880d9;stroke-width:1;stroke-opacity:1"
       d="m 15,5.8064516 c 30,0 30,0 60,0 v 0.3225807 c -30,0 -30,0 -60,0 z"
       class="sankey-link" />
    <path
       inkscape:connector-curvature="0"
       id="path101"
       style="opacity:1;fill:#3880d9;fill-opacity:1;stroke:#3880d9;stroke-width:1;stroke-opacity:1"
       d="m 15,6.1290323 c 30,0 30,0 60,0 v 0.3225806 c -30,0 -30,0 -60,0 z"
       class="sankey-link" />
    <path
       inkscape:connector-curvature="0"
       id="path103"
       style="opacity:1;fill:#3880d9;fill-opacity:1;stroke:#3880d9;stroke-width:1;stroke-opacity:1"
       d="m 15,34.516129 c 30,0 30,0 60,0 v 0.322581 c -30,0 -30,0 -60,0 z"
       class="sankey-link" />
    <path
       inkscape:connector-curvature="0"
       id="path105"
       style="opacity:1;fill:#3880d9;fill-opacity:1;stroke:#3880d9;stroke-width:1;stroke-opacity:1"
       d="m 15,34.83871 c 30,0 30,0 60,0 v 0.32258 c -30,0 -30,0 -60,0 z"
       class="sankey-link" />
    <path
       inkscape:connector-curvature="0"
       id="path107"
       style="opacity:1;fill:#3880d9;fill-opacity:1;stroke:#3880d9;stroke-width:1;stroke-opacity:1"
       d="m 15,6.4516129 c 30,0 30,0 60,0 v 0.3225806 c -30,0 -30,0 -60,0 z"
       class="sankey-link" />
    <path
       inkscape:connector-curvature="0"
       id="path109"
       style="opacity:1;fill:#3880d9;fill-opacity:1;stroke:#3880d9;stroke-width:1;stroke-opacity:1"
       d="m 15,6.7741935 c 30,0 30,0 60,0 v 0.3225807 c -30,0 -30,0 -60,0 z"
       class="sankey-link" />
    <path
       inkscape:connector-curvature="0"
       id="path111"
       style="opacity:1;fill:#3880d9;fill-opacity:1;stroke:#3880d9;stroke-width:1;stroke-opacity:1"
       d="m 15,35.16129 c 30,0 30,0 60,0 v 0.322581 c -30,0 -30,0 -60,0 z"
       class="sankey-link" />
    <path
       inkscape:connector-curvature="0"
       id="path113"
       style="opacity:1;fill:#3880d9;fill-opacity:1;stroke:#3880d9;stroke-width:1;stroke-opacity:1"
       d="m 15,7.0967742 c 30,0 30,0 60,0 v 0.3225806 c -30,0 -30,0 -60,0 z"
       class="sankey-link" />
    <path
       inkscape:connector-curvature="0"
       id="path115"
       style="opacity:1;fill:#3880d9;fill-opacity:1;stroke:#3880d9;stroke-width:1;stroke-opacity:1"
       d="m 15,7.4193548 c 30,0 30,0 60,0 v 0.3225807 c -30,0 -30,0 -60,0 z"
       class="sankey-link" />
    <path
       inkscape:connector-curvature="0"
       id="path117"
       style="opacity:1;fill:#3880d9;fill-opacity:1;stroke:#3880d9;stroke-width:1;stroke-opacity:1"
       d="m 15,7.7419355 c 30,0 30,0 60,0 v 0.3225806 c -30,0 -30,0 -60,0 z"
       class="sankey-link" />
    <path
       inkscape:connector-curvature="0"
       id="path119"
       style="opacity:1;fill:#3880d9;fill-opacity:1;stroke:#3880d9;stroke-width:1;stroke-opacity:1"
       d="m 15,8.0645161 c 30,0 30,0 60,0 v 0.3225807 c -30,0 -30,0 -60,0 z"
       class="sankey-link" />
    <path
       inkscape:connector-curvature="0"
       id="path121"
       style="opacity:1;fill:#3880d9;fill-opacity:1;stroke:#3880d9;stroke-width:1;stroke-opacity:1"
       d="M 15,30.645161 C 45,30.645161 45,20 75,20 v 0.322581 c -30,0 -30,10.645161 -60,10.645161 z"
       class="sankey-link" />
    <path
       inkscape:connector-curvature="0"
       id="path123"
       style="opacity:1;fill:#3880d9;fill-opacity:1;stroke:#3880d9;stroke-width:1;stroke-opacity:1"
       d="m 15,8.3870968 c 30,0 30,0 60,0 v 0.3225806 c -30,0 -30,0 -60,0 z"
       class="sankey-link" />
    <path
       inkscape:connector-curvature="0"
       id="path125"
       style="opacity:1;fill:#3880d9;fill-opacity:1;stroke:#3880d9;stroke-width:1;stroke-opacity:1"
       d="m 15,35.483871 c 30,0 30,0 60,0 v 0.322581 c -30,0 -30,0 -60,0 z"
       class="sankey-link" />
    <path
       inkscape:connector-curvature="0"
       id="path127"
       style="opacity:1;fill:#3880d9;fill-opacity:1;stroke:#3880d9;stroke-width:1;stroke-opacity:1"
       d="m 15,30.967742 c 30,0 30,-10.645161 60,-10.645161 v 0.32258 c -30,0 -30,10.645162 -60,10.645162 z"
       class="sankey-link" />
    <path
       inkscape:connector-curvature="0"
       id="path129"
       style="opacity:1;fill:#3880d9;fill-opacity:1;stroke:#3880d9;stroke-width:1;stroke-opacity:1"
       d="m 15,8.7096774 c 30,0 30,0 60,0 v 0.3225807 c -30,0 -30,0 -60,0 z"
       class="sankey-link" />
    <path
       inkscape:connector-curvature="0"
       id="path131"
       style="opacity:1;fill:#3880d9;fill-opacity:1;stroke:#3880d9;stroke-width:1;stroke-opacity:1"
       d="m 15,35.806452 c 30,0 30,0 60,0 v 0.32258 c -30,0 -30,0 -60,0 z"
       class="sankey-link" />
    <path
       inkscape:connector-curvature="0"
       id="path133"
       style="opacity:1;fill:#910040;fill-opacity:1;stroke:#910040;stroke-width:1;stroke-opacity:1"
       d="m 15,9.0322581 c 30,0 30,0 60,0 v 0.3225806 c -30,0 -30,0 -60,0 z"
       class="sankey-link" />
    <path
       inkscape:connector-curvature="0"
       id="path135"
       style="opacity:1;fill:#910040;fill-opacity:1;stroke:#910040;stroke-width:1;stroke-opacity:1"
       d="m 15,9.3548387 c 30,0 30,0 60,0 v 0.3225807 c -30,0 -30,0 -60,0 z"
       class="sankey-link" />
    <path
       inkscape:connector-curvature="0"
       id="path137"
       style="opacity:1;fill:#910040;fill-opacity:1;stroke:#910040;stroke-width:1;stroke-opacity:1"
       d="m 15,9.6774194 c 30,0 30,0 60,0 V 10 c -30,0 -30,0 -60,0 z"
       class="sankey-link" />
    <path
       inkscape:connector-curvature="0"
       id="path139"
       style="opacity:1;fill:#910040;fill-opacity:1;stroke:#910040;stroke-width:1;stroke-opacity:1"
       d="m 15,10 c 30,0 30,0 60,0 v 0.322581 c -30,0 -30,0 -60,0 z"
       class="sankey-link" />
    <path
       inkscape:connector-curvature="0"
       id="path141"
       style="opacity:1;fill:#910040;fill-opacity:1;stroke:#910040;stroke-width:1;stroke-opacity:1"
       d="m 15,36.129032 c 30,0 30,0 60,0 v 0.322581 c -30,0 -30,0 -60,0 z"
       class="sankey-link" />
    <path
       inkscape:connector-curvature="0"
       id="path143"
       style="opacity:1;fill:#910040;fill-opacity:1;stroke:#910040;stroke-width:1;stroke-opacity:1"
       d="m 15,10.322581 c 30,0 30,0 60,0 v 0.32258 c -30,0 -30,0 -60,0 z"
       class="sankey-link" />
    <path
       inkscape:connector-curvature="0"
       id="path145"
       style="opacity:1;fill:#910040;fill-opacity:1;stroke:#910040;stroke-width:1;stroke-opacity:1"
       d="m 15,36.451613 c 30,0 30,0 60,0 v 0.322581 c -30,0 -30,0 -60,0 z"
       class="sankey-link" />
    <path
       inkscape:connector-curvature="0"
       id="path147"
       style="opacity:1;fill:#910040;fill-opacity:1;stroke:#910040;stroke-width:1;stroke-opacity:1"
       d="m 15,58.064516 c 30,0 30,0 60,0 v 0.322581 c -30,0 -30,0 -60,0 z"
       class="sankey-link" />
    <path
       inkscape:connector-curvature="0"
       id="path149"
       style="opacity:1;fill:#910040;fill-opacity:1;stroke:#910040;stroke-width:1;stroke-opacity:1"
       d="m 15,10.645161 c 30,0 30,0 60,0 v 0.322581 c -30,0 -30,0 -60,0 z"
       class="sankey-link" />
    <path
       inkscape:connector-curvature="0"
       id="path151"
       style="opacity:1;fill:#910040;fill-opacity:1;stroke:#910040;stroke-width:1;stroke-opacity:1"
       d="m 15,36.774194 c 30,0 30,0 60,0 v 0.32258 c -30,0 -30,0 -60,0 z"
       class="sankey-link" />
    <path
       inkscape:connector-curvature="0"
       id="path153"
       style="opacity:1;fill:#910040;fill-opacity:1;stroke:#910040;stroke-width:1;stroke-opacity:1"
       d="m 15,10.967742 c 30,0 30,0 60,0 v 0.322581 c -30,0 -30,0 -60,0 z"
       class="sankey-link" />
    <path
       inkscape:connector-curvature="0"
       id="path155"
       style="opacity:1;fill:#910040;fill-opacity:1;stroke:#910040;stroke-width:1;stroke-opacity:1"
       d="m 15,44.83871 c 30,0 30,10 60,10 v 0.32258 c -30,0 -30,-10 -60,-10 z"
       class="sankey-link" />
    <path
       inkscape:connector-curvature="0"
       id="path157"
       style="opacity:1;fill:#910040;fill-opacity:1;stroke:#910040;stroke-width:1;stroke-opacity:1"
       d="m 15,37.096774 c 30,0 30,0 60,0 v 0.322581 c -30,0 -30,0 -60,0 z"
       class="sankey-link" />
    <path
       inkscape:connector-curvature="0"
       id="path159"
       style="opacity:1;fill:#910040;fill-opacity:1;stroke:#910040;stroke-width:1;stroke-opacity:1"
       d="m 15,11.290323 c 30,0 30,0 60,0 v 0.32258 c -30,0 -30,0 -60,0 z"
       class="sankey-link" />
    <path
       inkscape:connector-curvature="0"
       id="path161"
       style="opacity:1;fill:#910040;fill-opacity:1;stroke:#910040;stroke-width:1;stroke-opacity:1"
       d="m 15,11.612903 c 30,0 30,0 60,0 v 0.322581 c -30,0 -30,0 -60,0 z"
       class="sankey-link" />
    <path
       inkscape:connector-curvature="0"
       id="path163"
       style="opacity:1;fill:#910040;fill-opacity:1;stroke:#910040;stroke-width:1;stroke-opacity:1"
       d="m 15,37.419355 c 30,0 30,0 60,0 v 0.32258 c -30,0 -30,0 -60,0 z"
       class="sankey-link" />
    <path
       inkscape:connector-curvature="0"
       id="path165"
       style="opacity:1;fill:#910040;fill-opacity:1;stroke:#910040;stroke-width:1;stroke-opacity:1"
       d="m 15,11.935484 c 30,0 30,0 60,0 v 0.322581 c -30,0 -30,0 -60,0 z"
       class="sankey-link" />
    <path
       inkscape:connector-curvature="0"
       id="path167"
       style="opacity:1;fill:#910040;fill-opacity:1;stroke:#910040;stroke-width:1;stroke-opacity:1"
       d="m 15,37.741935 c 30,0 30,0 60,0 v 0.322581 c -30,0 -30,0 -60,0 z"
       class="sankey-link" />
    <path
       inkscape:connector-curvature="0"
       id="path169"
       style="opacity:1;fill:#910040;fill-opacity:1;stroke:#910040;stroke-width:1;stroke-opacity:1"
       d="m 15,12.258065 c 30,0 30,0 60,0 v 0.32258 c -30,0 -30,0 -60,0 z"
       class="sankey-link" />
    <path
       inkscape:connector-curvature="0"
       id="path171"
       style="opacity:1;fill:#910040;fill-opacity:1;stroke:#910040;stroke-width:1;stroke-opacity:1"
       d="m 15,38.064516 c 30,0 30,0 60,0 v 0.322581 c -30,0 -30,0 -60,0 z"
       class="sankey-link" />
    <path
       inkscape:connector-curvature="0"
       id="path173"
       style="opacity:1;fill:#910040;fill-opacity:1;stroke:#910040;stroke-width:1;stroke-opacity:1"
       d="m 15,12.580645 c 30,0 30,0 60,0 v 0.322581 c -30,0 -30,0 -60,0 z"
       class="sankey-link" />
    <path
       inkscape:connector-curvature="0"
       id="path175"
       style="opacity:1;fill:#910040;fill-opacity:1;stroke:#910040;stroke-width:1;stroke-opacity:1"
       d="m 15,38.387097 c 30,0 30,0 60,0 v 0.32258 c -30,0 -30,0 -60,0 z"
       class="sankey-link" />
    <path
       inkscape:connector-curvature="0"
       id="path177"
       style="opacity:1;fill:#910040;fill-opacity:1;stroke:#910040;stroke-width:1;stroke-opacity:1"
       d="m 15,12.903226 c 30,0 30,0 60,0 v 0.32258 c -30,0 -30,0 -60,0 z"
       class="sankey-link" />
    <path
       inkscape:connector-curvature="0"
       id="path179"
       style="opacity:1;fill:#910040;fill-opacity:1;stroke:#910040;stroke-width:1;stroke-opacity:1"
       d="m 15,13.225806 c 30,0 30,0 60,0 v 0.322581 c -30,0 -30,0 -60,0 z"
       class="sankey-link" />
    <path
       inkscape:connector-curvature="0"
       id="path181"
       style="opacity:1;fill:#910040;fill-opacity:1;stroke:#910040;stroke-width:1;stroke-opacity:1"
       d="m 15,58.387097 c 30,0 30,0 60,0 v 0.32258 c -30,0 -30,0 -60,0 z"
       class="sankey-link" />
    <path
       inkscape:connector-curvature="0"
       id="path183"
       style="opacity:1;fill:#ff603d;fill-opacity:1;stroke:#ff603d;stroke-width:1;stroke-opacity:1"
       d="m 15,38.709677 c 30,0 30,0 60,0 v 0.322581 c -30,0 -30,0 -60,0 z"
       class="sankey-link" />
    <path
       inkscape:connector-curvature="0"
       id="path185"
       style="opacity:1;fill:#ff603d;fill-opacity:1;stroke:#ff603d;stroke-width:1;stroke-opacity:1"
       d="m 15,58.709677 c 30,0 30,0 60,0 v 0.322581 c -30,0 -30,0 -60,0 z"
       class="sankey-link" />
    <path
       inkscape:connector-curvature="0"
       id="path187"
       style="opacity:1;fill:#ff603d;fill-opacity:1;stroke:#ff603d;stroke-width:1;stroke-opacity:1"
       d="m 15,13.548387 c 30,0 30,0 60,0 v 0.322581 c -30,0 -30,0 -60,0 z"
       class="sankey-link" />
    <path
       inkscape:connector-curvature="0"
       id="path189"
       style="opacity:1;fill:#ff603d;fill-opacity:1;stroke:#ff603d;stroke-width:1;stroke-opacity:1"
       d="m 15,39.032258 c 30,0 30,0 60,0 v 0.322581 c -30,0 -30,0 -60,0 z"
       class="sankey-link" />
    <path
       inkscape:connector-curvature="0"
       id="path191"
       style="opacity:1;fill:#ff603d;fill-opacity:1;stroke:#ff603d;stroke-width:1;stroke-opacity:1"
       d="m 15,13.870968 c 30,0 30,0 60,0 v 0.32258 c -30,0 -30,0 -60,0 z"
       class="sankey-link" />
    <path
       inkscape:connector-curvature="0"
       id="path193"
       style="opacity:1;fill:#ff603d;fill-opacity:1;stroke:#ff603d;stroke-width:1;stroke-opacity:1"
       d="m 15,39.354839 c 30,0 30,0 60,0 v 0.32258 c -30,0 -30,0 -60,0 z"
       class="sankey-link" />
    <path
       inkscape:connector-curvature="0"
       id="path195"
       style="opacity:1;fill:#ff603d;fill-opacity:1;stroke:#ff603d;stroke-width:1;stroke-opacity:1"
       d="m 15,39.677419 c 30,0 30,0 60,0 V 40 c -30,0 -30,0 -60,0 z"
       class="sankey-link" />
    <path
       inkscape:connector-curvature="0"
       id="path197"
       style="opacity:1;fill:#ff603d;fill-opacity:1;stroke:#ff603d;stroke-width:1;stroke-opacity:1"
       d="m 15,14.193548 c 30,0 30,0 60,0 v 0.322581 c -30,0 -30,0 -60,0 z"
       class="sankey-link" />
    <path
       inkscape:connector-curvature="0"
       id="path199"
       style="opacity:1;fill:#ff603d;fill-opacity:1;stroke:#ff603d;stroke-width:1;stroke-opacity:1"
       d="m 15,14.516129 c 30,0 30,0 60,0 v 0.322581 c -30,0 -30,0 -60,0 z"
       class="sankey-link" />
    <path
       inkscape:connector-curvature="0"
       id="path201"
       style="opacity:1;fill:#ff603d;fill-opacity:1;stroke:#ff603d;stroke-width:1;stroke-opacity:1"
       d="m 15,14.83871 c 30,0 30,0 60,0 v 0.32258 c -30,0 -30,0 -60,0 z"
       class="sankey-link" />
    <path
       inkscape:connector-curvature="0"
       id="path203"
       style="opacity:1;fill:#ff603d;fill-opacity:1;stroke:#ff603d;stroke-width:1;stroke-opacity:1"
       d="m 15,45.16129 c 30,0 30,10 60,10 v 0.322581 c -30,0 -30,-10 -60,-10 z"
       class="sankey-link" />
    <path
       inkscape:connector-curvature="0"
       id="path205"
       style="opacity:1;fill:#ff603d;fill-opacity:1;stroke:#ff603d;stroke-width:1;stroke-opacity:1"
       d="m 15,45.483871 c 30,0 30,10 60,10 v 0.322581 c -30,0 -30,-10 -60,-10 z"
       class="sankey-link" />
    <path
       inkscape:connector-curvature="0"
       id="path207"
       style="opacity:1;fill:#ff603d;fill-opacity:1;stroke:#ff603d;stroke-width:1;stroke-opacity:1"
       d="m 15,15.16129 c 30,0 30,0 60,0 v 0.322581 c -30,0 -30,0 -60,0 z"
       class="sankey-link" />
    <path
       inkscape:connector-curvature="0"
       id="path209"
       style="opacity:1;fill:#ff603d;fill-opacity:1;stroke:#ff603d;stroke-width:1;stroke-opacity:1"
       d="m 15,59.032258 c 30,0 30,0 60,0 v 0.322581 c -30,0 -30,0 -60,0 z"
       class="sankey-link" />
    <path
       inkscape:connector-curvature="0"
       id="path211"
       style="opacity:1;fill:#ff603d;fill-opacity:1;stroke:#ff603d;stroke-width:1;stroke-opacity:1"
       d="m 15,40 c 30,0 30,0 60,0 v 0.322581 c -30,0 -30,0 -60,0 z"
       class="sankey-link" />
    <path
       inkscape:connector-curvature="0"
       id="path213"
       style="opacity:1;fill:#ff603d;fill-opacity:1;stroke:#ff603d;stroke-width:1;stroke-opacity:1"
       d="m 15,40.322581 c 30,0 30,0 60,0 v 0.32258 c -30,0 -30,0 -60,0 z"
       class="sankey-link" />
    <path
       inkscape:connector-curvature="0"
       id="path215"
       style="opacity:1;fill:#ff603d;fill-opacity:1;stroke:#ff603d;stroke-width:1;stroke-opacity:1"
       d="m 15,40.645161 c 30,0 30,0 60,0 v 0.322581 c -30,0 -30,0 -60,0 z"
       class="sankey-link" />
    <path
       inkscape:connector-curvature="0"
       id="path217"
       style="opacity:1;fill:#ff603d;fill-opacity:1;stroke:#ff603d;stroke-width:1;stroke-opacity:1"
       d="m 15,59.354839 c 30,0 30,0 60,0 v 0.32258 c -30,0 -30,0 -60,0 z"
       class="sankey-link" />
    <path
       inkscape:connector-curvature="0"
       id="path219"
       style="opacity:1;fill:#ff603d;fill-opacity:1;stroke:#ff603d;stroke-width:1;stroke-opacity:1"
       d="m 15,15.483871 c 30,0 30,0 60,0 v 0.322581 c -30,0 -30,0 -60,0 z"
       class="sankey-link" />
    <path
       inkscape:connector-curvature="0"
       id="path221"
       style="opacity:1;fill:#ff603d;fill-opacity:1;stroke:#ff603d;stroke-width:1;stroke-opacity:1"
       d="m 15,59.677419 c 30,0 30,0 60,0 V 60 c -30,0 -30,0 -60,0 z"
       class="sankey-link" />
    <path
       inkscape:connector-curvature="0"
       id="path223"
       style="opacity:1;fill:#ff603d;fill-opacity:1;stroke:#ff603d;stroke-width:1;stroke-opacity:1"
       d="m 15,15.806452 c 30,0 30,0 60,0 v 0.32258 c -30,0 -30,0 -60,0 z"
       class="sankey-link" />
    <path
       inkscape:connector-curvature="0"
       id="path225"
       style="opacity:1;fill:#ff603d;fill-opacity:1;stroke:#ff603d;stroke-width:1;stroke-opacity:1"
       d="m 15,16.129032 c 30,0 30,0 60,0 v 0.322581 c -30,0 -30,0 -60,0 z"
       class="sankey-link" />
    <path
       inkscape:connector-curvature="0"
       id="path227"
       style="opacity:1;fill:#ff603d;fill-opacity:1;stroke:#ff603d;stroke-width:1;stroke-opacity:1"
       d="m 15,45.806452 c 30,0 30,10 60,10 v 0.32258 c -30,0 -30,-10 -60,-10 z"
       class="sankey-link" />
    <path
       inkscape:connector-curvature="0"
       id="path229"
       style="opacity:1;fill:#ff603d;fill-opacity:1;stroke:#ff603d;stroke-width:1;stroke-opacity:1"
       d="m 15,40.967742 c 30,0 30,0 60,0 v 0.322581 c -30,0 -30,0 -60,0 z"
       class="sankey-link" />
    <path
       inkscape:connector-curvature="0"
       id="path231"
       style="opacity:1;fill:#ff603d;fill-opacity:1;stroke:#ff603d;stroke-width:1;stroke-opacity:1"
       d="m 15,41.290323 c 30,0 30,0 60,0 v 0.32258 c -30,0 -30,0 -60,0 z"
       class="sankey-link" />
    <path
       inkscape:connector-curvature="0"
       id="path233"
       style="opacity:1;fill:#ff603d;fill-opacity:1;stroke:#ff603d;stroke-width:1;stroke-opacity:1"
       d="m 15,41.612903 c 30,0 30,0 60,0 v 0.322581 c -30,0 -30,0 -60,0 z"
       class="sankey-link" />
    <path
       inkscape:connector-curvature="0"
       id="path235"
       style="opacity:1;fill:#ff603d;fill-opacity:1;stroke:#ff603d;stroke-width:1;stroke-opacity:1"
       d="m 15,60 c 30,0 30,0 60,0 v 0.322581 c -30,0 -30,0 -60,0 z"
       class="sankey-link" />
    <path
       inkscape:connector-curvature="0"
       id="path237"
       style="opacity:1;fill:#ff603d;fill-opacity:1;stroke:#ff603d;stroke-width:1;stroke-opacity:1"
       d="m 15,16.451613 c 30,0 30,0 60,0 v 0.322581 c -30,0 -30,0 -60,0 z"
       class="sankey-link" />
    <path
       inkscape:connector-curvature="0"
       id="path239"
       style="opacity:1;fill:#ff603d;fill-opacity:1;stroke:#ff603d;stroke-width:1;stroke-opacity:1"
       d="m 15,41.935484 c 30,0 30,0 60,0 v 0.322581 c -30,0 -30,0 -60,0 z"
       class="sankey-link" />
    <path
       inkscape:connector-curvature="0"
       id="path241"
       style="opacity:1;fill:#ff603d;fill-opacity:1;stroke:#ff603d;stroke-width:1;stroke-opacity:1"
       d="m 15,60.322581 c 30,0 30,0 60,0 v 0.32258 c -30,0 -30,0 -60,0 z"
       class="sankey-link" />
    <path
       inkscape:connector-curvature="0"
       id="path243"
       style="opacity:1;fill:#ff603d;fill-opacity:1;stroke:#ff603d;stroke-width:1;stroke-opacity:1"
       d="m 15,60.645161 c 30,0 30,0 60,0 v 0.322581 c -30,0 -30,0 -60,0 z"
       class="sankey-link" />
    <path
       inkscape:connector-curvature="0"
       id="path245"
       style="opacity:1;fill:#ff603d;fill-opacity:1;stroke:#ff603d;stroke-width:1;stroke-opacity:1"
       d="m 15,16.774194 c 30,0 30,0 60,0 v 0.32258 c -30,0 -30,0 -60,0 z"
       class="sankey-link" />
    <path
       inkscape:connector-curvature="0"
       id="path247"
       style="opacity:1;fill:#ff603d;fill-opacity:1;stroke:#ff603d;stroke-width:1;stroke-opacity:1"
       d="m 15,60.967742 c 30,0 30,0 60,0 v 0.322581 c -30,0 -30,0 -60,0 z"
       class="sankey-link" />
    <path
       inkscape:connector-curvature="0"
       id="path249"
       style="opacity:1;fill:#ff603d;fill-opacity:1;stroke:#ff603d;stroke-width:1;stroke-opacity:1"
       d="m 15,61.290323 c 30,0 30,0 60,0 v 0.32258 c -30,0 -30,0 -60,0 z"
       class="sankey-link" />
    <path
       inkscape:connector-curvature="0"
       id="path251"
       style="opacity:1;fill:#ff603d;fill-opacity:1;stroke:#ff603d;stroke-width:1;stroke-opacity:1"
       d="m 15,61.612903 c 30,0 30,0 60,0 v 0.322581 c -30,0 -30,0 -60,0 z"
       class="sankey-link" />
    <path
       inkscape:connector-curvature="0"
       id="path253"
       style="opacity:1;fill:#ff603d;fill-opacity:1;stroke:#ff603d;stroke-width:1;stroke-opacity:1"
       d="m 15,61.935484 c 30,0 30,0 60,0 v 0.322581 c -30,0 -30,0 -60,0 z"
       class="sankey-link" />
    <path
       inkscape:connector-curvature="0"
       id="path255"
       style="opacity:1;fill:#ff603d;fill-opacity:1;stroke:#ff603d;stroke-width:1;stroke-opacity:1"
       d="m 15,62.258065 c 30,0 30,0 60,0 v 0.32258 c -30,0 -30,0 -60,0 z"
       class="sankey-link" />
    <path
       inkscape:connector-curvature="0"
       id="path257"
       style="opacity:1;fill:#ff603d;fill-opacity:1;stroke:#ff603d;stroke-width:1;stroke-opacity:1"
       d="m 15,62.580645 c 30,0 30,0 60,0 v 0.322581 c -30,0 -30,0 -60,0 z"
       class="sankey-link" />
    <path
       inkscape:connector-curvature="0"
       id="path259"
       style="opacity:1;fill:#ff603d;fill-opacity:1;stroke:#ff603d;stroke-width:1;stroke-opacity:1"
       d="m 15,62.903226 c 30,0 30,0 60,0 v 0.32258 c -30,0 -30,0 -60,0 z"
       class="sankey-link" />
    <path
       inkscape:connector-curvature="0"
       id="path261"
       style="opacity:1;fill:#ff603d;fill-opacity:1;stroke:#ff603d;stroke-width:1;stroke-opacity:1"
       d="m 15,17.096774 c 30,0 30,0 60,0 v 0.322581 c -30,0 -30,0 -60,0 z"
       class="sankey-link" />
    <path
       inkscape:connector-curvature="0"
       id="path263"
       style="opacity:1;fill:#ff603d;fill-opacity:1;stroke:#ff603d;stroke-width:1;stroke-opacity:1"
       d="m 15,17.419355 c 30,0 30,0 60,0 v 0.32258 c -30,0 -30,0 -60,0 z"
       class="sankey-link" />
    <path
       inkscape:connector-curvature="0"
       id="path265"
       style="opacity:1;fill:#ff603d;fill-opacity:1;stroke:#ff603d;stroke-width:1;stroke-opacity:1"
       d="m 15,63.225806 c 30,0 30,0 60,0 v 0.322581 c -30,0 -30,0 -60,0 z"
       class="sankey-link" />
    <path
       inkscape:connector-curvature="0"
       id="path267"
       style="opacity:1;fill:#ff603d;fill-opacity:1;stroke:#ff603d;stroke-width:1;stroke-opacity:1"
       d="m 15,63.548387 c 30,0 30,0 60,0 v 0.322581 c -30,0 -30,0 -60,0 z"
       class="sankey-link" />
    <path
       inkscape:connector-curvature="0"
       id="path269"
       style="opacity:1;fill:#ff603d;fill-opacity:1;stroke:#ff603d;stroke-width:1;stroke-opacity:1"
       d="m 15,63.870968 c 30,0 30,0 60,0 v 0.32258 c -30,0 -30,0 -60,0 z"
       class="sankey-link" />
    <path
       inkscape:connector-curvature="0"
       id="path271"
       style="opacity:1;fill:#ff603d;fill-opacity:1;stroke:#ff603d;stroke-width:1;stroke-opacity:1"
       d="m 15,46.129032 c 30,0 30,10 60,10 v 0.322581 c -30,0 -30,-10 -60,-10 z"
       class="sankey-link" />
    <path
       inkscape:connector-curvature="0"
       id="path273"
       style="opacity:1;fill:#ff603d;fill-opacity:1;stroke:#ff603d;stroke-width:1;stroke-opacity:1"
       d="m 15,46.451613 c 30,0 30,10 60,10 v 0.322581 c -30,0 -30,-10 -60,-10 z"
       class="sankey-link" />
    <path
       inkscape:connector-curvature="0"
       id="path275"
       style="opacity:1;fill:#ff603d;fill-opacity:1;stroke:#ff603d;stroke-width:1;stroke-opacity:1"
       d="m 15,42.258065 c 30,0 30,0 60,0 v 0.32258 c -30,0 -30,0 -60,0 z"
       class="sankey-link" />
    <path
       inkscape:connector-curvature="0"
       id="path277"
       style="opacity:1;fill:#ff603d;fill-opacity:1;stroke:#ff603d;stroke-width:1;stroke-opacity:1"
       d="m 15,20 c 30,0 30,10.645161 60,10.645161 v 0.322581 c -30,0 -30,-10.645161 -60,-10.645161 z"
       class="sankey-link" />
    <path
       inkscape:connector-curvature="0"
       id="path279"
       style="opacity:1;fill:#ff603d;fill-opacity:1;stroke:#ff603d;stroke-width:1;stroke-opacity:1"
       d="m 15,20.322581 c 30,0 30,10.645161 60,10.645161 v 0.322581 c -30,0 -30,-10.645162 -60,-10.645162 z"
       class="sankey-link" />
    <path
       inkscape:connector-curvature="0"
       id="path281"
       style="opacity:1;fill:#ff603d;fill-opacity:1;stroke:#ff603d;stroke-width:1;stroke-opacity:1"
       d="m 15,42.580645 c 30,0 30,0 60,0 v 0.322581 c -30,0 -30,0 -60,0 z"
       class="sankey-link" />
    <path
       inkscape:connector-curvature="0"
       id="path283"
       style="opacity:1;fill:#ff603d;fill-opacity:1;stroke:#ff603d;stroke-width:1;stroke-opacity:1"
       d="m 15,64.193548 c 30,0 30,0 60,0 v 0.322581 c -30,0 -30,0 -60,0 z"
       class="sankey-link" />
    <path
       inkscape:connector-curvature="0"
       id="path285"
       style="opacity:1;fill:#ff603d;fill-opacity:1;stroke:#ff603d;stroke-width:1;stroke-opacity:1"
       d="m 15,17.741935 c 30,0 30,0 60,0 v 0.322581 c -30,0 -30,0 -60,0 z"
       class="sankey-link" />
    <path
       inkscape:connector-curvature="0"
       id="path287"
       style="opacity:1;fill:#ff603d;fill-opacity:1;stroke:#ff603d;stroke-width:1;stroke-opacity:1"
       d="m 15,64.516129 c 30,0 30,0 60,0 v 0.322581 c -30,0 -30,0 -60,0 z"
       class="sankey-link" />
    <path
       inkscape:connector-curvature="0"
       id="path289"
       style="opacity:1;fill:#ff603d;fill-opacity:1;stroke:#ff603d;stroke-width:1;stroke-opacity:1"
       d="m 15,18.064516 c 30,0 30,0 60,0 v 0.322581 c -30,0 -30,0 -60,0 z"
       class="sankey-link" />
    <path
       inkscape:connector-curvature="0"
       id="path291"
       style="opacity:1;fill:#ff603d;fill-opacity:1;stroke:#ff603d;stroke-width:1;stroke-opacity:1"
       d="m 15,18.387097 c 30,0 30,0 60,0 v 0.32258 c -30,0 -30,0 -60,0 z"
       class="sankey-link" />
    <path
       inkscape:connector-curvature="0"
       id="path293"
       style="opacity:1;fill:#ff603d;fill-opacity:1;stroke:#ff603d;stroke-width:1;stroke-opacity:1"
       d="m 15,64.83871 c 30,0 30,0 60,0 v 0.32258 c -30,0 -30,0 -60,0 z"
       class="sankey-link" />
    <path
       inkscape:connector-curvature="0"
       id="path295"
       style="opacity:1;fill:#ff603d;fill-opacity:1;stroke:#ff603d;stroke-width:1;stroke-opacity:1"
       d="m 15,65.16129 c 30,0 30,0 60,0 v 0.322581 c -30,0 -30,0 -60,0 z"
       class="sankey-link" />
    <path
       inkscape:connector-curvature="0"
       id="path297"
       style="opacity:1;fill:#ff603d;fill-opacity:1;stroke:#ff603d;stroke-width:1;stroke-opacity:1"
       d="m 15,65.483871 c 30,0 30,0 60,0 v 0.322581 c -30,0 -30,0 -60,0 z"
       class="sankey-link" />
    <path
       inkscape:connector-curvature="0"
       id="path299"
       style="opacity:1;fill:#ff603d;fill-opacity:1;stroke:#ff603d;stroke-width:1;stroke-opacity:1"
       d="m 15,42.903226 c 30,0 30,0 60,0 v 0.32258 c -30,0 -30,0 -60,0 z"
       class="sankey-link" />
    <path
       inkscape:connector-curvature="0"
       id="path301"
       style="opacity:1;fill:#ff603d;fill-opacity:1;stroke:#ff603d;stroke-width:1;stroke-opacity:1"
       d="m 15,18.709677 c 30,0 30,0 60,0 v 0.322581 c -30,0 -30,0 -60,0 z"
       class="sankey-link" />
    <path
       inkscape:connector-curvature="0"
       id="path303"
       style="opacity:1;fill:#ff603d;fill-opacity:1;stroke:#ff603d;stroke-width:1;stroke-opacity:1"
       d="m 15,46.774194 c 30,0 30,10 60,10 v 0.32258 c -30,0 -30,-10 -60,-10 z"
       class="sankey-link" />
    <path
       inkscape:connector-curvature="0"
       id="path305"
       style="opacity:1;fill:#ff603d;fill-opacity:1;stroke:#ff603d;stroke-width:1;stroke-opacity:1"
       d="m 15,65.806452 c 30,0 30,0 60,0 v 0.32258 c -30,0 -30,0 -60,0 z"
       class="sankey-link" />
    <path
       inkscape:connector-curvature="0"
       id="path307"
       style="opacity:1;fill:#ff603d;fill-opacity:1;stroke:#ff603d;stroke-width:1;stroke-opacity:1"
       d="m 15,47.096774 c 30,0 30,10 60,10 v 0.322581 c -30,0 -30,-10 -60,-10 z"
       class="sankey-link" />
    <path
       inkscape:connector-curvature="0"
       id="path309"
       style="opacity:1;fill:#ff603d;fill-opacity:1;stroke:#ff603d;stroke-width:1;stroke-opacity:1"
       d="m 15,43.225806 c 30,0 30,0 60,0 v 0.322581 c -30,0 -30,0 -60,0 z"
       class="sankey-link" />
    <path
       inkscape:connector-curvature="0"
       id="path311"
       style="opacity:1;fill:#ff603d;fill-opacity:1;stroke:#ff603d;stroke-width:1;stroke-opacity:1"
       d="m 15,66.129032 c 30,0 30,0 60,0 v 0.322581 c -30,0 -30,0 -60,0 z"
       class="sankey-link" />
    <path
       inkscape:connector-curvature="0"
       id="path313"
       style="opacity:1;fill:#ff603d;fill-opacity:1;stroke:#ff603d;stroke-width:1;stroke-opacity:1"
       d="m 15,66.451613 c 30,0 30,0 60,0 v 0.322581 c -30,0 -30,0 -60,0 z"
       class="sankey-link" />
    <path
       inkscape:connector-curvature="0"
       id="path315"
       style="opacity:1;fill:#ff603d;fill-opacity:1;stroke:#ff603d;stroke-width:1;stroke-opacity:1"
       d="m 15,43.548387 c 30,0 30,0 60,0 v 0.322581 c -30,0 -30,0 -60,0 z"
       class="sankey-link" />
    <path
       inkscape:connector-curvature="0"
       id="path317"
       style="opacity:1;fill:#ff603d;fill-opacity:1;stroke:#ff603d;stroke-width:1;stroke-opacity:1"
       d="m 15,66.774194 c 30,0 30,0 60,0 v 0.32258 c -30,0 -30,0 -60,0 z"
       class="sankey-link" />
    <path
       inkscape:connector-curvature="0"
       id="path319"
       style="opacity:1;fill:#ff603d;fill-opacity:1;stroke:#ff603d;stroke-width:1;stroke-opacity:1"
       d="m 15,67.096774 c 30,0 30,0 60,0 v 0.322581 c -30,0 -30,0 -60,0 z"
       class="sankey-link" />
    <path
       inkscape:connector-curvature="0"
       id="path321"
       style="opacity:1;fill:#ff603d;fill-opacity:1;stroke:#ff603d;stroke-width:1;stroke-opacity:1"
       d="m 15,43.870968 c 30,0 30,0 60,0 v 0.32258 c -30,0 -30,0 -60,0 z"
       class="sankey-link" />
    <path
       inkscape:connector-curvature="0"
       id="path323"
       style="opacity:1;fill:#ff603d;fill-opacity:1;stroke:#ff603d;stroke-width:1;stroke-opacity:1"
       d="m 15,67.419355 c 30,0 30,0 60,0 v 0.32258 c -30,0 -30,0 -60,0 z"
       class="sankey-link" />
    <path
       inkscape:connector-curvature="0"
       id="path325"
       style="opacity:1;fill:#ff603d;fill-opacity:1;stroke:#ff603d;stroke-width:1;stroke-opacity:1"
       d="m 15,47.419355 c 30,0 30,10 60,10 v 0.32258 c -30,0 -30,-10 -60,-10 z"
       class="sankey-link" />
    <path
       inkscape:connector-curvature="0"
       id="path327"
       style="opacity:1;fill:#ff603d;fill-opacity:1;stroke:#ff603d;stroke-width:1;stroke-opacity:1"
       d="m 15,19.032258 c 30,0 30,0 60,0 v 0.322581 c -30,0 -30,0 -60,0 z"
       class="sankey-link" />
    <path
       inkscape:connector-curvature="0"
       id="path329"
       style="opacity:1;fill:#ff603d;fill-opacity:1;stroke:#ff603d;stroke-width:1;stroke-opacity:1"
       d="m 15,67.741935 c 30,0 30,0 60,0 v 0.322581 c -30,0 -30,0 -60,0 z"
       class="sankey-link" />
    <path
       inkscape:connector-curvature="0"
       id="path331"
       style="opacity:1;fill:#ff603d;fill-opacity:1;stroke:#ff603d;stroke-width:1;stroke-opacity:1"
       d="m 15,19.354839 c 30,0 30,0 60,0 v 0.32258 c -30,0 -30,0 -60,0 z"
       class="sankey-link" />
    <path
       inkscape:connector-curvature="0"
       id="path333"
       style="opacity:1;fill:#ff603d;fill-opacity:1;stroke:#ff603d;stroke-width:1;stroke-opacity:1"
       d="m 15,68.064516 c 30,0 30,0 60,0 v 0.322581 c -30,0 -30,0 -60,0 z"
       class="sankey-link" />
    <path
       inkscape:connector-curvature="0"
       id="path335"
       style="opacity:1;fill:#ff603d;fill-opacity:1;stroke:#ff603d;stroke-width:1;stroke-opacity:1"
       d="m 15,68.387097 c 30,0 30,0 60,0 v 0.32258 c -30,0 -30,0 -60,0 z"
       class="sankey-link" />
    <path
       inkscape:connector-curvature="0"
       id="path337"
       style="opacity:1;fill:#ff603d;fill-opacity:1;stroke:#ff603d;stroke-width:1;stroke-opacity:1"
       d="m 15,19.677419 c 30,0 30,0 60,0 V 20 c -30,0 -30,0 -60,0 z"
       class="sankey-link" />
    <path
       inkscape:connector-curvature="0"
       id="path339"
       style="opacity:1;fill:#ff603d;fill-opacity:1;stroke:#ff603d;stroke-width:1;stroke-opacity:1"
       d="m 15,68.709677 c 30,0 30,0 60,0 v 0.322581 c -30,0 -30,0 -60,0 z"
       class="sankey-link" />
    <path
       inkscape:connector-curvature="0"
       id="path341"
       style="opacity:1;fill:#ff603d;fill-opacity:1;stroke:#ff603d;stroke-width:1;stroke-opacity:1"
       d="m 15,69.032258 c 30,0 30,0 60,0 v 0.322581 c -30,0 -30,0 -60,0 z"
       class="sankey-link" />
    <path
       inkscape:connector-curvature="0"
       id="path343"
       style="opacity:1;fill:#ff603d;fill-opacity:1;stroke:#ff603d;stroke-width:1;stroke-opacity:1"
       d="m 15,47.741935 c 30,0 30,10 60,10 v 0.322581 c -30,0 -30,-10 -60,-10 z"
       class="sankey-link" />
    <path
       inkscape:connector-curvature="0"
       id="path345"
       style="opacity:1;fill:#ff603d;fill-opacity:1;stroke:#ff603d;stroke-width:1;stroke-opacity:1"
       d="m 15,69.354839 c 30,0 30,0 60,0 v 0.32258 c -30,0 -30,0 -60,0 z"
       class="sankey-link" />
    <path
       inkscape:connector-curvature="0"
       id="path347"
       style="opacity:1;fill:#ff603d;fill-opacity:1;stroke:#ff603d;stroke-width:1;stroke-opacity:1"
       d="m 15,69.677419 c 30,0 30,0 60,0 V 70 c -30,0 -30,0 -60,0 z"
       class="sankey-link" />
    <path
       inkscape:connector-curvature="0"
       id="path349"
       style="opacity:1;fill:#ff603d;fill-opacity:1;stroke:#ff603d;stroke-width:1;stroke-opacity:1"
       d="m 15,44.193548 c 30,0 30,0 60,0 v 0.322581 c -30,0 -30,0 -60,0 z"
       class="sankey-link" />
  </g>
  <rect
     y="0.5"
     x="0.25"
     id="rect353"
     style="fill:#0c2c84;fill-opacity:1;stroke:#000000;stroke-width:0.5;stroke-opacity:1"
     height="20.645161"
     width="15"
     class="node-rect" />
  <rect
     y="31.145004"
     x="0.25"
     id="rect359"
     style="fill:#64b09e;fill-opacity:1;stroke:#000000;stroke-width:0.5;stroke-opacity:1"
     height="17.419355"
     width="15"
     class="node-rect" />
  <rect
     y="58.565002"
     x="0.25"
     id="rect365"
     style="fill:#bfcf69;fill-opacity:1;stroke:#000000;stroke-width:0.5;stroke-opacity:1"
     height="11.935484"
     width="15"
     class="node-rect" />
  <rect
     y="0.5"
     x="75.25"
     id="rect371"
     style="fill:#0c2c84;fill-opacity:1;stroke:#000000;stroke-width:0.5;stroke-opacity:1"
     height="20.645161"
     width="15"
     class="node-rect" />
  <rect
     y="31.145004"
     x="75.25"
     id="rect377"
     style="fill:#64b09e;fill-opacity:1;stroke:#000000;stroke-width:0.5;stroke-opacity:1"
     height="13.870968"
     width="15"
     class="node-rect" />
  <rect
     y="55.016006"
     x="75.25"
     id="rect383"
     style="fill:#bfcf69;fill-opacity:1;stroke:#000000;stroke-width:0.5;stroke-opacity:1"
     height="15.483871"
     width="15"
     class="node-rect" />
  <defs
     id="topdefs-5cad8c">
    <g
       class="clips"
       id="g393" />
  </defs>
  <g
     class="layer-above"
     id="g400"
     transform="translate(-79.75,-99.5)">
    <g
       class="imagelayer"
       id="g396" />
    <g
       class="shapelayer"
       id="g398" />
  </g>
  <g
     class="infolayer"
     id="g406"
     transform="translate(-79.75,-99.5)">
    <g
       class="g-gtitle"
       id="g402" />
    <g
       class="first-render"
       id="g404" />
  </g>
</svg>
