<?xml version="1.0" encoding="utf-8" standalone="no"?>
<!DOCTYPE svg PUBLIC "-//W3C//DTD SVG 1.1//EN"
  "http://www.w3.org/Graphics/SVG/1.1/DTD/svg11.dtd">
<!-- Created with matplotlib (https://matplotlib.org/) -->
<svg height="111.563pt" version="1.1" viewBox="0 0 149.709062 111.563" width="149.709062pt" xmlns="http://www.w3.org/2000/svg" xmlns:xlink="http://www.w3.org/1999/xlink">
 <defs>
  <style type="text/css">
*{stroke-linecap:butt;stroke-linejoin:round;}
  </style>
 </defs>
 <g id="figure_1">
  <g id="patch_1">
   <path d="M -0 111.563 
L 149.709063 111.563 
L 149.709063 0 
L -0 0 
z
" style="fill:#ffffff;"/>
  </g>
  <g id="axes_1">
   <g id="patch_2">
    <path d="M 75.549063 87.593625 
L 142.509063 87.593625 
L 142.509063 22.361625 
L 75.549063 22.361625 
z
" style="fill:#ffffff;"/>
   </g>
   <g id="QuadMesh_1">
    <path clip-path="url(#p83c72d91a9)" d="M 75.549063 22.361625 
L 97.869063 22.361625 
L 97.869063 54.977625 
L 75.549063 54.977625 
L 75.549063 22.361625 
" style="fill:#3383be;"/>
    <path clip-path="url(#p83c72d91a9)" d="M 97.869063 22.361625 
L 120.189063 22.361625 
L 120.189063 54.977625 
L 97.869063 54.977625 
L 97.869063 22.361625 
" style="fill:#bdd7ec;"/>
    <path clip-path="url(#p83c72d91a9)" d="M 120.189063 22.361625 
L 142.509063 22.361625 
L 142.509063 54.977625 
L 120.189063 54.977625 
L 120.189063 22.361625 
" style="fill:#eff6fc;"/>
    <path clip-path="url(#p83c72d91a9)" d="M 75.549063 54.977625 
L 97.869063 54.977625 
L 97.869063 87.593625 
L 75.549063 87.593625 
L 75.549063 54.977625 
" style="fill:#a8cee4;"/>
    <path clip-path="url(#p83c72d91a9)" d="M 97.869063 54.977625 
L 120.189063 54.977625 
L 120.189063 87.593625 
L 97.869063 87.593625 
L 97.869063 54.977625 
" style="fill:#cbdef1;"/>
    <path clip-path="url(#p83c72d91a9)" d="M 120.189063 54.977625 
L 142.509063 54.977625 
L 142.509063 87.593625 
L 120.189063 87.593625 
L 120.189063 54.977625 
" style="fill:#89bedc;"/>
   </g>
   <g id="matplotlib.axis_1">
    <g id="xtick_1">
     <g id="line2d_1">
      <defs>
       <path d="M 0 0 
L 0 3.5 
" id="m8f83767e45" style="stroke:#000000;stroke-width:0.8;"/>
      </defs>
      <g>
       <use style="stroke:#000000;stroke-width:0.8;" x="86.709063" xlink:href="#m8f83767e45" y="87.593625"/>
      </g>
     </g>
     <g id="text_1">
      <!-- 0 -->
      <defs>
       <path d="M 3.90625 32 
Q 3.90625 46.703125 7.59375 54.703125 
Q 12.796875 66.59375 25 66.59375 
Q 27.59375 66.59375 30.296875 65.890625 
Q 33 65.203125 36.453125 62.5 
Q 39.90625 59.796875 42 55.40625 
Q 46 46.90625 46 32 
Q 46 17.40625 42.296875 9.40625 
Q 36.90625 -2.203125 24.90625 -2.203125 
Q 20.40625 -2.203125 15.84375 0.09375 
Q 11.296875 2.40625 8.40625 7.90625 
Q 3.90625 16.203125 3.90625 32 
z
M 12.203125 33.203125 
Q 12.203125 18.09375 13.296875 12.09375 
Q 14.5 5.59375 17.84375 2.796875 
Q 21.203125 0 24.90625 0 
Q 28.90625 0 32.25 3 
Q 35.59375 6 36.59375 12.5 
Q 37.703125 18.90625 37.703125 33.203125 
Q 37.703125 47.09375 36.703125 52.703125 
Q 35.40625 59.203125 31.90625 61.796875 
Q 28.40625 64.40625 24.90625 64.40625 
Q 23.59375 64.40625 22.1875 64 
Q 20.796875 63.59375 18.796875 62.5 
Q 16.796875 61.40625 15.25 58.59375 
Q 13.703125 55.796875 13 51.59375 
Q 12.203125 46.203125 12.203125 33.203125 
z
" id="CMUSerif-Roman-48"/>
      </defs>
      <g transform="translate(83.959063 102.228313)scale(0.11 -0.11)">
       <use xlink:href="#CMUSerif-Roman-48"/>
      </g>
     </g>
    </g>
    <g id="xtick_2">
     <g id="line2d_2">
      <g>
       <use style="stroke:#000000;stroke-width:0.8;" x="109.029063" xlink:href="#m8f83767e45" y="87.593625"/>
      </g>
     </g>
     <g id="text_2">
      <!-- 1 -->
      <defs>
       <path d="M 8.90625 57.09375 
L 8.90625 60.203125 
Q 20.90625 60.203125 27.09375 66.59375 
Q 28.796875 66.59375 29.09375 66.1875 
Q 29.40625 65.796875 29.40625 64 
L 29.40625 7.90625 
Q 29.40625 4.90625 30.84375 4 
Q 32.296875 3.09375 38.703125 3.09375 
L 41.90625 3.09375 
L 41.90625 0 
Q 38.40625 0.296875 25.703125 0.296875 
Q 13 0.296875 9.5 0 
L 9.5 3.09375 
L 12.703125 3.09375 
Q 19 3.09375 20.5 4 
Q 22 4.90625 22 7.90625 
L 22 59.703125 
Q 16.796875 57.09375 8.90625 57.09375 
z
" id="CMUSerif-Roman-49"/>
      </defs>
      <g transform="translate(106.279063 102.228313)scale(0.11 -0.11)">
       <use xlink:href="#CMUSerif-Roman-49"/>
      </g>
     </g>
    </g>
    <g id="xtick_3">
     <g id="line2d_3">
      <g>
       <use style="stroke:#000000;stroke-width:0.8;" x="131.349063" xlink:href="#m8f83767e45" y="87.593625"/>
      </g>
     </g>
     <g id="text_3">
      <!-- 2 -->
      <defs>
       <path d="M 5 0 
Q 5 1.796875 5.140625 2.34375 
Q 5.296875 2.90625 6.09375 3.703125 
L 25.296875 25.09375 
Q 35.796875 36.90625 35.796875 47.203125 
Q 35.796875 53.90625 32.296875 58.703125 
Q 28.796875 63.5 22.40625 63.5 
Q 18 63.5 14.296875 60.796875 
Q 10.59375 58.09375 8.90625 53.296875 
Q 9.203125 53.40625 10.203125 53.40625 
Q 12.703125 53.40625 14.09375 51.84375 
Q 15.5 50.296875 15.5 48.203125 
Q 15.5 45.5 13.75 44.203125 
Q 12 42.90625 10.296875 42.90625 
Q 9.59375 42.90625 8.6875 43.046875 
Q 7.796875 43.203125 6.390625 44.59375 
Q 5 46 5 48.5 
Q 5 55.5 10.296875 61.046875 
Q 15.59375 66.59375 23.703125 66.59375 
Q 32.90625 66.59375 38.90625 61.140625 
Q 44.90625 55.703125 44.90625 47.203125 
Q 44.90625 44.203125 44 41.5 
Q 43.09375 38.796875 41.890625 36.6875 
Q 40.703125 34.59375 37.5 31.25 
Q 34.296875 27.90625 31.6875 25.5 
Q 29.09375 23.09375 23.296875 18 
L 12.703125 7.703125 
L 30.703125 7.703125 
Q 39.5 7.703125 40.203125 8.5 
Q 41.203125 9.90625 42.40625 17.40625 
L 44.90625 17.40625 
L 42.09375 0 
z
" id="CMUSerif-Roman-50"/>
      </defs>
      <g transform="translate(128.599063 102.228313)scale(0.11 -0.11)">
       <use xlink:href="#CMUSerif-Roman-50"/>
      </g>
     </g>
    </g>
   </g>
   <g id="matplotlib.axis_2">
    <g id="ytick_1">
     <g id="line2d_4">
      <defs>
       <path d="M 0 0 
L -3.5 0 
" id="mc8f33acdae" style="stroke:#000000;stroke-width:0.8;"/>
      </defs>
      <g>
       <use style="stroke:#000000;stroke-width:0.8;" x="75.549063" xlink:href="#mc8f33acdae" y="38.669625"/>
      </g>
     </g>
     <g id="text_4">
      <!-- affective -->
      <defs>
       <path d="M 4.203125 9.5 
Q 4.203125 18 14.203125 22.5 
Q 20.203125 25.40625 32.59375 26.09375 
L 32.59375 29.796875 
Q 32.59375 36 29.34375 39.296875 
Q 26.09375 42.59375 22 42.59375 
Q 14.703125 42.59375 11.203125 38 
Q 14.203125 37.90625 15.25 36.40625 
Q 16.296875 34.90625 16.296875 33.40625 
Q 16.296875 31.40625 15.046875 30.09375 
Q 13.796875 28.796875 11.703125 28.796875 
Q 9.703125 28.796875 8.390625 30.046875 
Q 7.09375 31.296875 7.09375 33.5 
Q 7.09375 38.40625 11.5 41.59375 
Q 15.90625 44.796875 22.203125 44.796875 
Q 30.40625 44.796875 35.90625 39.296875 
Q 37.59375 37.59375 38.4375 35.390625 
Q 39.296875 33.203125 39.390625 31.75 
Q 39.5 30.296875 39.5 27.5 
L 39.5 7.5 
Q 39.5 6.90625 39.703125 5.953125 
Q 39.90625 5 40.796875 3.75 
Q 41.703125 2.5 43.203125 2.5 
Q 46.796875 2.5 46.796875 8.90625 
L 46.796875 14.5 
L 49.296875 14.5 
L 49.296875 8.90625 
Q 49.296875 3.59375 46.5 1.5 
Q 43.703125 -0.59375 41.09375 -0.59375 
Q 37.796875 -0.59375 35.6875 1.84375 
Q 33.59375 4.296875 33.296875 7.59375 
Q 31.796875 3.796875 28.34375 1.34375 
Q 24.90625 -1.09375 20.203125 -1.09375 
Q 16.59375 -1.09375 13.1875 -0.1875 
Q 9.796875 0.703125 7 3.203125 
Q 4.203125 5.703125 4.203125 9.5 
z
M 11.90625 9.59375 
Q 11.90625 5.90625 14.546875 3.5 
Q 17.203125 1.09375 20.90625 1.09375 
Q 25.09375 1.09375 28.84375 4.34375 
Q 32.59375 7.59375 32.59375 14 
L 32.59375 24 
Q 21.5 23.59375 16.703125 19.1875 
Q 11.90625 14.796875 11.90625 9.59375 
z
" id="CMUSerif-Roman-97"/>
       <path d="M 3.296875 40 
L 3.296875 43.09375 
L 11.203125 43.09375 
L 11.203125 54.59375 
Q 11.203125 62 16 66.25 
Q 20.796875 70.5 26.703125 70.5 
Q 30.59375 70.5 33.140625 68.390625 
Q 35.703125 66.296875 35.703125 63.5 
Q 35.703125 61.59375 34.546875 60.34375 
Q 33.40625 59.09375 31.296875 59.09375 
Q 29.296875 59.09375 28.140625 60.34375 
Q 27 61.59375 27 63.40625 
Q 27 66.59375 30 67.59375 
Q 28.5 68.296875 26.703125 68.296875 
Q 23.09375 68.296875 20.296875 64.59375 
Q 17.5 60.90625 17.5 54.703125 
L 17.5 43.09375 
L 29.203125 43.09375 
L 29.203125 40 
L 17.796875 40 
L 17.796875 7.796875 
Q 17.796875 4.90625 19 4 
Q 20.203125 3.09375 25.40625 3.09375 
L 27.5 3.09375 
L 27.5 0 
Q 23.5 0.296875 14.796875 0.296875 
Q 13.59375 0.296875 11.6875 0.25 
Q 9.796875 0.203125 7.296875 0.09375 
Q 4.796875 0 3.40625 0 
L 3.40625 3.09375 
Q 8.703125 3.09375 9.953125 3.75 
Q 11.203125 4.40625 11.203125 7.59375 
L 11.203125 40 
z
" id="CMUSerif-Roman-102"/>
       <path d="M 2.796875 22 
Q 2.796875 31.40625 8.84375 38.09375 
Q 14.90625 44.796875 23.59375 44.796875 
Q 32.40625 44.796875 36.953125 39.09375 
Q 41.5 33.40625 41.5 25.203125 
Q 41.5 23.703125 41.09375 23.390625 
Q 40.703125 23.09375 39 23.09375 
L 11.09375 23.09375 
Q 11.09375 12.90625 14.09375 8.09375 
Q 18.296875 1.40625 25.40625 1.40625 
Q 26.40625 1.40625 27.546875 1.59375 
Q 28.703125 1.796875 31.09375 2.640625 
Q 33.5 3.5 35.59375 5.796875 
Q 37.703125 8.09375 38.90625 11.703125 
Q 39.203125 13.09375 40.203125 13.09375 
Q 41.5 13.09375 41.5 11.90625 
Q 41.5 11 40.546875 9.046875 
Q 39.59375 7.09375 37.796875 4.75 
Q 36 2.40625 32.5 0.65625 
Q 29 -1.09375 24.796875 -1.09375 
Q 16 -1.09375 9.390625 5.546875 
Q 2.796875 12.203125 2.796875 22 
z
M 11.203125 25.203125 
L 34.90625 25.203125 
Q 34.90625 27.296875 34.546875 29.640625 
Q 34.203125 32 33.140625 35.25 
Q 32.09375 38.5 29.640625 40.546875 
Q 27.203125 42.59375 23.59375 42.59375 
Q 22 42.59375 20.25 41.890625 
Q 18.5 41.203125 16.390625 39.546875 
Q 14.296875 37.90625 12.84375 34.15625 
Q 11.40625 30.40625 11.203125 25.203125 
z
" id="CMUSerif-Roman-101"/>
       <path d="M 16.09375 -1.09375 
Q 3.40625 12.09375 3.40625 21.59375 
Q 3.40625 31.09375 9.65625 37.9375 
Q 15.90625 44.796875 25.09375 44.796875 
Q 31.203125 44.796875 35.796875 41.890625 
Q 40.40625 39 40.40625 34.09375 
Q 40.40625 31.90625 39.09375 30.65625 
Q 37.796875 29.40625 35.796875 29.40625 
Q 33.703125 29.40625 32.453125 30.703125 
Q 31.203125 32 31.203125 34 
Q 31.203125 34.90625 31.5 35.75 
Q 31.796875 36.59375 32.890625 37.546875 
Q 34 38.5 35.90625 38.59375 
Q 32.296875 42.296875 25.203125 42.296875 
Q 20.09375 42.296875 15.890625 37.5 
Q 11.703125 32.703125 11.703125 21.796875 
Q 11.703125 16.09375 13.09375 11.890625 
Q 14.5 7.703125 16.796875 5.546875 
Q 19.09375 3.40625 21.34375 2.40625 
Q 23.59375 1.40625 25.796875 1.40625 
Q 35.59375 1.40625 38.90625 11.90625 
Q 39.203125 12.90625 40.203125 12.90625 
Q 41.5 12.90625 41.5 11.90625 
Q 41.5 11.40625 41.09375 10.15625 
Q 40.703125 8.90625 39.5 6.90625 
Q 38.296875 4.90625 36.546875 3.15625 
Q 34.796875 1.40625 31.75 0.15625 
Q 28.703125 -1.09375 24.90625 -1.09375 
Q 16.09375 -1.09375 3.40625 12.09375 
z
" id="CMUSerif-Roman-99"/>
       <path d="M 1.90625 40 
L 1.90625 42.203125 
Q 6.5 42.40625 9.546875 45.65625 
Q 12.59375 48.90625 13.640625 52.90625 
Q 14.703125 56.90625 14.796875 61.5 
L 17.296875 61.5 
L 17.296875 43.09375 
L 31.59375 43.09375 
L 31.59375 40 
L 17.296875 40 
L 17.296875 12.203125 
Q 17.296875 1.40625 24 1.40625 
Q 26.90625 1.40625 28.796875 4.34375 
Q 30.703125 7.296875 30.703125 12.59375 
L 30.703125 18.09375 
L 33.203125 18.09375 
L 33.203125 12.40625 
Q 33.203125 7 30.703125 2.953125 
Q 28.203125 -1.09375 23.296875 -1.09375 
Q 21.5 -1.09375 19.703125 -0.640625 
Q 17.90625 -0.203125 15.59375 1 
Q 13.296875 2.203125 11.84375 5.140625 
Q 10.40625 8.09375 10.40625 12.40625 
L 10.40625 40 
z
" id="CMUSerif-Roman-116"/>
       <path d="M 3.296875 0 
L 3.296875 3.09375 
Q 8.59375 3.09375 9.84375 3.75 
Q 11.09375 4.40625 11.09375 7.59375 
L 11.09375 34.5 
Q 11.09375 38.203125 9.84375 39.09375 
Q 8.59375 40 3.703125 40 
L 3.703125 43.09375 
L 17.703125 44.203125 
L 17.703125 7.5 
Q 17.703125 4.5 18.75 3.796875 
Q 19.796875 3.09375 24.703125 3.09375 
L 24.703125 0 
Q 14.5 0.296875 14.296875 0.296875 
Q 12.90625 0.296875 3.296875 0 
z
M 7.5 61.59375 
Q 7.5 63.59375 9.046875 65.25 
Q 10.59375 66.90625 12.796875 66.90625 
Q 15 66.90625 16.546875 65.40625 
Q 18.09375 63.90625 18.09375 61.59375 
Q 18.09375 59.296875 16.546875 57.796875 
Q 15 56.296875 12.796875 56.296875 
Q 10.5 56.296875 9 57.890625 
Q 7.5 59.5 7.5 61.59375 
z
" id="CMUSerif-Roman-105"/>
       <path d="M 1.90625 40 
L 1.90625 43.09375 
Q 6.40625 42.796875 11.59375 42.796875 
Q 13.5 42.796875 22.5 43.09375 
L 22.5 40 
Q 16.796875 40 16.796875 37.40625 
Q 16.796875 37 17.40625 35.703125 
L 28.59375 7.796875 
L 38.796875 33.296875 
Q 39.40625 35 39.40625 35.703125 
Q 39.40625 37.40625 38.25 38.65625 
Q 37.09375 39.90625 34.59375 40 
L 34.59375 43.09375 
Q 39.703125 42.796875 43.296875 42.796875 
Q 47.40625 42.796875 50.796875 43.09375 
L 50.796875 40 
Q 47.796875 40 45.6875 38.640625 
Q 43.59375 37.296875 42.9375 36.140625 
Q 42.296875 35 41.59375 33.296875 
L 28.5 0.796875 
Q 27.703125 -1.09375 26.40625 -1.09375 
Q 25.5 -1.09375 25.140625 -0.75 
Q 24.796875 -0.40625 24.296875 0.796875 
L 9.90625 36.296875 
Q 8.90625 38.796875 7.65625 39.390625 
Q 6.40625 40 1.90625 40 
z
" id="CMUSerif-Roman-118"/>
      </defs>
      <g transform="translate(28.572656 41.419625)scale(0.11 -0.11)">
       <use xlink:href="#CMUSerif-Roman-97"/>
       <use x="49.999985" xlink:href="#CMUSerif-Roman-102"/>
       <use x="80.499969" xlink:href="#CMUSerif-Roman-102"/>
       <use x="110.999954" xlink:href="#CMUSerif-Roman-101"/>
       <use x="155.399948" xlink:href="#CMUSerif-Roman-99"/>
       <use x="199.799942" xlink:href="#CMUSerif-Roman-116"/>
       <use x="238.59993" xlink:href="#CMUSerif-Roman-105"/>
       <use x="266.299927" xlink:href="#CMUSerif-Roman-118"/>
       <use x="318.999924" xlink:href="#CMUSerif-Roman-101"/>
      </g>
     </g>
    </g>
    <g id="ytick_2">
     <g id="line2d_5">
      <g>
       <use style="stroke:#000000;stroke-width:0.8;" x="75.549063" xlink:href="#mc8f33acdae" y="71.285625"/>
      </g>
     </g>
     <g id="text_5">
      <!-- non-affective -->
      <defs>
       <path d="M 3.203125 0 
L 3.203125 3.09375 
Q 8.5 3.09375 9.75 3.75 
Q 11 4.40625 11 7.59375 
L 11 34.40625 
Q 11 38.09375 9.703125 39.046875 
Q 8.40625 40 3.203125 40 
L 3.203125 43.09375 
L 17.296875 44.203125 
L 17.296875 33.703125 
Q 22 44.203125 32.09375 44.203125 
Q 39.59375 44.203125 42.59375 40.5 
Q 44.796875 38 45.25 35.203125 
Q 45.703125 32.40625 45.703125 25.203125 
L 45.703125 6.09375 
Q 45.796875 4 47.390625 3.546875 
Q 49 3.09375 53.5 3.09375 
L 53.5 0 
Q 43.296875 0.296875 42.296875 0.296875 
Q 41.5 0.296875 31 0 
L 31 3.09375 
Q 36.296875 3.09375 37.546875 3.75 
Q 38.796875 4.40625 38.796875 7.59375 
L 38.796875 30.90625 
Q 38.796875 36 37.25 39 
Q 35.703125 42 31.40625 42 
Q 26.203125 42 22.046875 37.640625 
Q 17.90625 33.296875 17.90625 26 
L 17.90625 7.59375 
Q 17.90625 4.40625 19.15625 3.75 
Q 20.40625 3.09375 25.703125 3.09375 
L 25.703125 0 
Q 15.5 0.296875 14.5 0.296875 
Q 13.703125 0.296875 3.203125 0 
z
" id="CMUSerif-Roman-110"/>
       <path d="M 16 -1.09375 
Q 2.796875 11.90625 2.796875 21.40625 
Q 2.796875 30.90625 9.25 37.84375 
Q 15.703125 44.796875 25 44.796875 
Q 34.09375 44.796875 40.59375 37.890625 
Q 47.09375 31 47.09375 21.40625 
Q 47.09375 12 40.546875 5.453125 
Q 34 -1.09375 24.90625 -1.09375 
Q 16 -1.09375 2.796875 11.90625 
z
M 11.09375 22.203125 
Q 11.09375 12.5 13.59375 8.09375 
Q 17.5 1.40625 25 1.40625 
Q 28.703125 1.40625 31.796875 3.40625 
Q 34.90625 5.40625 36.59375 8.796875 
Q 38.796875 13.203125 38.796875 22.203125 
Q 38.796875 31.796875 36.203125 36.09375 
Q 32.296875 42.59375 24.90625 42.59375 
Q 21.703125 42.59375 18.546875 40.890625 
Q 15.40625 39.203125 13.5 35.90625 
Q 11.09375 31.5 11.09375 22.203125 
z
" id="CMUSerif-Roman-111"/>
       <path d="M 1 18.59375 
L 1 24.5 
L 27.59375 24.5 
L 27.59375 18.59375 
z
" id="CMUSerif-Roman-45"/>
      </defs>
      <g transform="translate(7.2 74.035625)scale(0.11 -0.11)">
       <use xlink:href="#CMUSerif-Roman-110"/>
       <use x="55.499985" xlink:href="#CMUSerif-Roman-111"/>
       <use x="105.499969" xlink:href="#CMUSerif-Roman-110"/>
       <use x="160.999954" xlink:href="#CMUSerif-Roman-45"/>
       <use x="194.299942" xlink:href="#CMUSerif-Roman-97"/>
       <use x="244.299927" xlink:href="#CMUSerif-Roman-102"/>
       <use x="274.799911" xlink:href="#CMUSerif-Roman-102"/>
       <use x="305.299896" xlink:href="#CMUSerif-Roman-101"/>
       <use x="349.69989" xlink:href="#CMUSerif-Roman-99"/>
       <use x="394.099884" xlink:href="#CMUSerif-Roman-116"/>
       <use x="432.899872" xlink:href="#CMUSerif-Roman-105"/>
       <use x="460.599869" xlink:href="#CMUSerif-Roman-118"/>
       <use x="513.299866" xlink:href="#CMUSerif-Roman-101"/>
      </g>
     </g>
    </g>
   </g>
   <g id="text_6">
    <!-- 68% -->
    <defs>
     <path d="M 4.203125 31.59375 
Q 4.203125 47.296875 12.203125 56.9375 
Q 20.203125 66.59375 30.5 66.59375 
Q 36.5 66.59375 39.84375 63.546875 
Q 43.203125 60.5 43.203125 55.796875 
Q 43.203125 53.203125 41.703125 52.09375 
Q 40.203125 51 38.59375 51 
Q 36.796875 51 35.390625 52.203125 
Q 34 53.40625 34 55.59375 
Q 34 60.09375 39.5 60.09375 
Q 36.90625 64.09375 30.703125 64.09375 
Q 28.796875 64.09375 26.84375 63.546875 
Q 24.90625 63 22.34375 61.140625 
Q 19.796875 59.296875 17.84375 56.34375 
Q 15.90625 53.40625 14.546875 47.90625 
Q 13.203125 42.40625 13.203125 35.203125 
L 13.203125 32.796875 
Q 17.296875 42.703125 25.6875 42.703125 
Q 34.09375 42.703125 39.890625 36.296875 
Q 45.703125 29.90625 45.703125 20.40625 
Q 45.703125 10.703125 39.640625 4.25 
Q 33.59375 -2.203125 25.09375 -2.203125 
Q 21.296875 -2.203125 17.84375 -0.59375 
Q 14.40625 1 11.203125 4.59375 
Q 8 8.203125 6.09375 15.140625 
Q 4.203125 22.09375 4.203125 31.59375 
z
M 13.40625 22.59375 
Q 13.40625 12.796875 15.203125 8.09375 
Q 15.5 7.296875 16.140625 6.25 
Q 16.796875 5.203125 17.9375 3.796875 
Q 19.09375 2.40625 21 1.5 
Q 22.90625 0.59375 25.09375 0.59375 
Q 31.796875 0.59375 35 7.09375 
Q 36.703125 10.703125 36.703125 20.5 
Q 36.703125 30.5 34.90625 34.203125 
Q 31.796875 40.40625 25.59375 40.40625 
Q 21.40625 40.40625 18.5 37.5 
Q 15.59375 34.59375 14.5 30.75 
Q 13.40625 26.90625 13.40625 22.59375 
z
" id="CMUSerif-Roman-54"/>
     <path d="M 4.203125 15.09375 
Q 4.203125 26.296875 18.59375 33.5 
Q 12.40625 37.703125 11.296875 38.90625 
Q 6.90625 43.796875 6.90625 49.90625 
Q 6.90625 56.90625 12.203125 61.75 
Q 17.5 66.59375 25 66.59375 
Q 32.203125 66.59375 37.59375 62.4375 
Q 43 58.296875 43 51.703125 
Q 43 42.40625 30.90625 36.203125 
Q 38.90625 31.203125 40.796875 29.09375 
Q 45.703125 23.703125 45.703125 16.796875 
Q 45.703125 8.796875 39.546875 3.296875 
Q 33.40625 -2.203125 24.90625 -2.203125 
Q 16.59375 -2.203125 10.390625 2.640625 
Q 4.203125 7.5 4.203125 15.09375 
z
M 9.203125 15.09375 
Q 9.203125 8.90625 13.84375 4.75 
Q 18.5 0.59375 25 0.59375 
Q 31.296875 0.59375 36 4.1875 
Q 40.703125 7.796875 40.703125 13.203125 
Q 40.703125 15.296875 40 17.09375 
Q 39.296875 18.90625 37.890625 20.34375 
Q 36.5 21.796875 35.640625 22.4375 
Q 34.796875 23.09375 33.203125 24.203125 
L 20.90625 32 
Q 9.203125 25.5 9.203125 15.09375 
z
M 11.296875 53.796875 
Q 11.296875 49 16.296875 45.703125 
L 28.703125 37.703125 
Q 38.59375 43.5 38.59375 51.703125 
Q 38.59375 57 34.546875 60.546875 
Q 30.5 64.09375 24.90625 64.09375 
Q 19.40625 64.09375 15.34375 61.1875 
Q 11.296875 58.296875 11.296875 53.796875 
z
" id="CMUSerif-Roman-56"/>
     <path d="M 5.59375 54.90625 
Q 5.59375 63.5 10 69.25 
Q 14.40625 75 20.296875 75 
Q 23.90625 75 27.5 71.796875 
Q 35.59375 64.09375 46.203125 64.09375 
Q 58.203125 64.09375 65.203125 73.59375 
Q 66.40625 75 67.296875 75 
Q 68.09375 75 68.6875 74.390625 
Q 69.296875 73.796875 69.296875 73 
Q 69.296875 72.40625 68.5 71.203125 
L 17.90625 -4.09375 
Q 16.796875 -5.59375 15.90625 -5.59375 
Q 15.09375 -5.59375 14.5 -5 
Q 13.90625 -4.40625 13.90625 -3.59375 
Q 13.90625 -2.90625 14.796875 -1.59375 
L 59.703125 65.296875 
L 59.59375 65.40625 
Q 54.40625 61.90625 46.296875 61.90625 
Q 38.59375 61.90625 31.203125 66.09375 
Q 33.296875 60.90625 33.296875 54.796875 
Q 33.296875 46.40625 29.546875 40.546875 
Q 25.796875 34.703125 20.296875 34.703125 
Q 14.40625 34.703125 10 40.390625 
Q 5.59375 46.09375 5.59375 54.90625 
z
M 13.203125 66.59375 
Q 11.796875 59.5 11.796875 54.796875 
Q 11.796875 50.09375 12.5 46.59375 
Q 13.203125 43.09375 14.203125 41.296875 
Q 15.203125 39.5 16.546875 38.453125 
Q 17.90625 37.40625 18.75 37.15625 
Q 19.59375 36.90625 20.40625 36.90625 
Q 24.5 36.90625 27.640625 42 
Q 30.796875 47.09375 30.796875 54.90625 
Q 30.796875 62.5 27.640625 67.640625 
Q 24.5 72.796875 20.40625 72.796875 
Q 19.5 72.796875 18.640625 72.546875 
Q 17.796875 72.296875 16.5 71.25 
Q 15.203125 70.203125 14.203125 68.390625 
Q 13.203125 66.59375 11.796875 59.5 
z
M 49.90625 14.59375 
Q 49.90625 23.203125 54.296875 28.953125 
Q 58.703125 34.703125 64.59375 34.703125 
Q 70 34.703125 73.796875 28.84375 
Q 77.59375 23 77.59375 14.5 
Q 77.59375 6.09375 73.84375 0.25 
Q 70.09375 -5.59375 64.59375 -5.59375 
Q 58.703125 -5.59375 54.296875 0.09375 
Q 49.90625 5.796875 49.90625 14.59375 
z
M 57.5 26.296875 
Q 56.09375 19.203125 56.09375 14.5 
Q 56.09375 9.796875 56.796875 6.296875 
Q 57.5 2.796875 58.5 1 
Q 59.5 -0.796875 60.84375 -1.84375 
Q 62.203125 -2.90625 63.046875 -3.15625 
Q 63.90625 -3.40625 64.703125 -3.40625 
Q 68.796875 -3.40625 71.9375 1.6875 
Q 75.09375 6.796875 75.09375 14.59375 
Q 75.09375 22.203125 71.9375 27.34375 
Q 68.796875 32.5 64.703125 32.5 
Q 63.796875 32.5 62.9375 32.25 
Q 62.09375 32 60.796875 30.953125 
Q 59.5 29.90625 58.5 28.09375 
Q 57.5 26.296875 56.09375 19.203125 
z
" id="CMUSerif-Roman-37"/>
    </defs>
    <g style="fill:#ffffff;" transform="translate(77.544219 41.169625)scale(0.1 -0.1)">
     <use xlink:href="#CMUSerif-Roman-54"/>
     <use x="49.999985" xlink:href="#CMUSerif-Roman-56"/>
     <use x="99.999969" xlink:href="#CMUSerif-Roman-37"/>
    </g>
   </g>
   <g id="text_7">
    <!-- 28% -->
    <g style="fill:#262626;" transform="translate(99.864219 41.169625)scale(0.1 -0.1)">
     <use xlink:href="#CMUSerif-Roman-50"/>
     <use x="49.999985" xlink:href="#CMUSerif-Roman-56"/>
     <use x="99.999969" xlink:href="#CMUSerif-Roman-37"/>
    </g>
   </g>
   <g id="text_8">
    <!-- 4% -->
    <defs>
     <path d="M 2.796875 16.5 
L 2.796875 19.59375 
L 33.5 66.5 
Q 34.296875 67.703125 35.5 67.703125 
Q 36.59375 67.703125 36.84375 67.25 
Q 37.09375 66.796875 37.09375 65.09375 
L 37.09375 19.59375 
L 47.09375 19.59375 
L 47.09375 16.5 
L 37.09375 16.5 
L 37.09375 7.796875 
Q 37.09375 4.90625 38.296875 4 
Q 39.5 3.09375 44.703125 3.09375 
L 46.796875 3.09375 
L 46.796875 0 
Q 42.703125 0.296875 33.203125 0.296875 
Q 23.796875 0.296875 19.703125 0 
L 19.703125 3.09375 
L 21.796875 3.09375 
Q 27 3.09375 28.203125 4 
Q 29.40625 4.90625 29.40625 7.796875 
L 29.40625 16.5 
z
M 5.59375 19.59375 
L 30 19.59375 
L 30 56.90625 
z
" id="CMUSerif-Roman-52"/>
    </defs>
    <g style="fill:#262626;" transform="translate(124.684219 41.169625)scale(0.1 -0.1)">
     <use xlink:href="#CMUSerif-Roman-52"/>
     <use x="49.999985" xlink:href="#CMUSerif-Roman-37"/>
    </g>
   </g>
   <g id="text_9">
    <!-- 35% -->
    <defs>
     <path d="M 4.203125 13.5 
Q 4.203125 16.5 5.890625 17.890625 
Q 7.59375 19.296875 9.796875 19.296875 
Q 12.09375 19.296875 13.75 17.796875 
Q 15.40625 16.296875 15.40625 13.703125 
Q 15.40625 10.90625 13.453125 9.34375 
Q 11.5 7.796875 8.796875 8.203125 
Q 11.203125 4.203125 15.59375 2.390625 
Q 20 0.59375 24.09375 0.59375 
Q 28.40625 0.59375 31.90625 4.296875 
Q 35.40625 8 35.40625 17.09375 
Q 35.40625 24.796875 32.40625 29.25 
Q 29.40625 33.703125 23.5 33.703125 
L 19.09375 33.703125 
Q 17.59375 33.703125 17.140625 33.84375 
Q 16.703125 34 16.703125 34.796875 
Q 16.703125 35.796875 18.203125 36 
Q 19.703125 36 22.09375 36.296875 
Q 27.90625 36.5 31 41.5 
Q 33.796875 46.203125 33.796875 52.90625 
Q 33.796875 59 30.890625 61.546875 
Q 28 64.09375 24.203125 64.09375 
Q 20.703125 64.09375 16.84375 62.640625 
Q 13 61.203125 10.90625 57.90625 
Q 17.09375 57.90625 17.09375 52.90625 
Q 17.09375 50.703125 15.6875 49.25 
Q 14.296875 47.796875 12 47.796875 
Q 9.796875 47.796875 8.34375 49.1875 
Q 6.90625 50.59375 6.90625 53 
Q 6.90625 58.703125 12 62.640625 
Q 17.09375 66.59375 24.59375 66.59375 
Q 32 66.59375 37.5 62.6875 
Q 43 58.796875 43 52.796875 
Q 43 46.90625 39.09375 42.046875 
Q 35.203125 37.203125 29 35.203125 
Q 36.59375 33.703125 41.140625 28.546875 
Q 45.703125 23.40625 45.703125 17.09375 
Q 45.703125 9.296875 39.546875 3.546875 
Q 33.40625 -2.203125 24.40625 -2.203125 
Q 16.09375 -2.203125 10.140625 2.296875 
Q 4.203125 6.796875 4.203125 13.5 
z
" id="CMUSerif-Roman-51"/>
     <path d="M 5 16.09375 
Q 5 19.09375 6.59375 20.25 
Q 8.203125 21.40625 9.90625 21.40625 
Q 12.203125 21.40625 13.546875 19.953125 
Q 14.90625 18.5 14.90625 16.5 
Q 14.90625 14.5 13.546875 13.046875 
Q 12.203125 11.59375 9.90625 11.59375 
Q 8.796875 11.59375 8.203125 11.796875 
Q 9.5 7.203125 13.546875 3.890625 
Q 17.59375 0.59375 22.90625 0.59375 
Q 29.59375 0.59375 33.59375 7.09375 
Q 36 11.296875 36 20.796875 
Q 36 29.203125 34.203125 33.40625 
Q 31.40625 39.796875 25.703125 39.796875 
Q 17.59375 39.796875 12.796875 32.796875 
Q 12.203125 31.90625 11.5 31.90625 
Q 10.5 31.90625 10.296875 32.453125 
Q 10.09375 33 10.09375 34.5 
L 10.09375 64.09375 
Q 10.09375 66.5 11.09375 66.5 
Q 11.5 66.5 12.296875 66.203125 
Q 18.59375 63.40625 25.59375 63.40625 
Q 32.796875 63.40625 39.203125 66.296875 
Q 39.703125 66.59375 40 66.59375 
Q 41 66.59375 41 65.5 
Q 41 65.09375 40.203125 63.9375 
Q 39.40625 62.796875 37.703125 61.296875 
Q 36 59.796875 33.796875 58.390625 
Q 31.59375 57 28.390625 56.046875 
Q 25.203125 55.09375 21.703125 55.09375 
Q 17.5 55.09375 13.203125 56.40625 
L 13.203125 36.90625 
Q 18.40625 42 25.90625 42 
Q 33.90625 42 39.40625 35.546875 
Q 44.90625 29.09375 44.90625 20.09375 
Q 44.90625 10.703125 38.40625 4.25 
Q 31.90625 -2.203125 23.09375 -2.203125 
Q 15.09375 -2.203125 10.046875 3.5 
Q 5 9.203125 5 16.09375 
z
" id="CMUSerif-Roman-53"/>
    </defs>
    <g style="fill:#262626;" transform="translate(77.544219 73.785625)scale(0.1 -0.1)">
     <use xlink:href="#CMUSerif-Roman-51"/>
     <use x="49.999985" xlink:href="#CMUSerif-Roman-53"/>
     <use x="99.999969" xlink:href="#CMUSerif-Roman-37"/>
    </g>
   </g>
   <g id="text_10">
    <!-- 23% -->
    <g style="fill:#262626;" transform="translate(99.864219 73.785625)scale(0.1 -0.1)">
     <use xlink:href="#CMUSerif-Roman-50"/>
     <use x="49.999985" xlink:href="#CMUSerif-Roman-51"/>
     <use x="99.999969" xlink:href="#CMUSerif-Roman-37"/>
    </g>
   </g>
   <g id="text_11">
    <!-- 43% -->
    <g style="fill:#262626;" transform="translate(122.184219 73.785625)scale(0.1 -0.1)">
     <use xlink:href="#CMUSerif-Roman-52"/>
     <use x="49.999985" xlink:href="#CMUSerif-Roman-51"/>
     <use x="99.999969" xlink:href="#CMUSerif-Roman-37"/>
    </g>
   </g>
   <g id="text_12">
    <!-- Cluster -->
    <defs>
     <path d="M 5.59375 34.203125 
Q 5.59375 49.296875 15.890625 59.890625 
Q 26.203125 70.5 40.40625 70.5 
Q 44.796875 70.5 48.6875 68.890625 
Q 52.59375 67.296875 54.390625 65.890625 
Q 56.203125 64.5 58.796875 61.90625 
L 63.796875 69.296875 
Q 64.59375 70.5 65.390625 70.5 
Q 66.203125 70.5 66.34375 70.046875 
Q 66.5 69.59375 66.5 68.09375 
L 66.5 44.40625 
Q 66.5 42.796875 66.296875 42.390625 
Q 66.09375 42 64.90625 42 
Q 63.90625 42 63.703125 42.296875 
Q 63.5 42.59375 63.296875 43.703125 
Q 61.796875 54.5 55.796875 60.953125 
Q 49.796875 67.40625 41.5 67.40625 
Q 39.09375 67.40625 36.4375 66.84375 
Q 33.796875 66.296875 29.9375 64.25 
Q 26.09375 62.203125 23.140625 58.796875 
Q 20.203125 55.40625 18.046875 49 
Q 15.90625 42.59375 15.90625 34.09375 
Q 15.90625 25.703125 18.046875 19.25 
Q 20.203125 12.796875 23.140625 9.4375 
Q 26.09375 6.09375 29.9375 4.046875 
Q 33.796875 2 36.5 1.453125 
Q 39.203125 0.90625 41.59375 0.90625 
Q 50.203125 0.90625 56.796875 7 
Q 63.40625 13.09375 64 23.40625 
Q 64.09375 23.90625 64.09375 24.09375 
Q 64.09375 24.296875 64.1875 24.546875 
Q 64.296875 24.796875 64.546875 24.890625 
Q 64.796875 25 65.203125 25 
Q 66.5 25 66.5 23.296875 
Q 66.5 13.796875 59.203125 5.796875 
Q 51.90625 -2.203125 40.40625 -2.203125 
Q 26.203125 -2.203125 15.890625 8.34375 
Q 5.59375 18.90625 5.59375 34.203125 
z
" id="CMUSerif-Roman-67"/>
     <path d="M 3.296875 0 
L 3.296875 3.09375 
Q 8.59375 3.09375 9.84375 3.75 
Q 11.09375 4.40625 11.09375 7.59375 
L 11.09375 59.59375 
Q 11.09375 63.296875 9.796875 64.25 
Q 8.5 65.203125 3.296875 65.203125 
L 3.296875 68.296875 
L 17.703125 69.40625 
L 17.703125 7.59375 
Q 17.703125 4.40625 18.953125 3.75 
Q 20.203125 3.09375 25.5 3.09375 
L 25.5 0 
Q 24.296875 0 21.75 0.09375 
Q 19.203125 0.203125 17.34375 0.25 
Q 15.5 0.296875 14.40625 0.296875 
Q 13.203125 0.296875 3.296875 0 
z
" id="CMUSerif-Roman-108"/>
     <path d="M 3.203125 40 
L 3.203125 43.09375 
L 17.90625 44.203125 
L 17.90625 11 
Q 17.90625 8.59375 18.09375 7.1875 
Q 18.296875 5.796875 19.09375 4.1875 
Q 19.90625 2.59375 21.796875 1.84375 
Q 23.703125 1.09375 26.703125 1.09375 
Q 32.09375 1.09375 35.4375 5.546875 
Q 38.796875 10 38.796875 16.59375 
L 38.796875 34.40625 
Q 38.796875 38.09375 37.5 39.046875 
Q 36.203125 40 31 40 
L 31 43.09375 
L 45.703125 44.203125 
L 45.703125 8.703125 
Q 45.703125 5 47 4.046875 
Q 48.296875 3.09375 53.5 3.09375 
L 53.5 0 
L 39.09375 -1.09375 
L 39.09375 7.90625 
Q 34.90625 -1.09375 26.203125 -1.09375 
Q 21.796875 -1.09375 18.796875 0 
Q 15.796875 1.09375 14.296875 2.5 
Q 12.796875 3.90625 12 6.59375 
Q 11.203125 9.296875 11.09375 10.9375 
Q 11 12.59375 11 15.796875 
L 11 30.796875 
Q 11 37.59375 10 38.796875 
Q 9 40 3.203125 40 
z
" id="CMUSerif-Roman-117"/>
     <path d="M 3.296875 1.296875 
L 3.296875 14.5 
Q 3.296875 15.59375 3.34375 16 
Q 3.40625 16.40625 3.703125 16.703125 
Q 4 17 4.59375 17 
Q 5.296875 17 5.546875 16.703125 
Q 5.796875 16.40625 6 15.296875 
Q 7.5 8.40625 10.75 4.75 
Q 14 1.09375 19.90625 1.09375 
Q 25.5 1.09375 28.34375 3.59375 
Q 31.203125 6.09375 31.203125 10.203125 
Q 31.203125 17.5 20.796875 19.40625 
Q 14.796875 20.59375 12.296875 21.390625 
Q 9.796875 22.203125 7.59375 24 
Q 3.296875 27.5 3.296875 32.5 
Q 3.296875 37.5 7.09375 41.140625 
Q 10.90625 44.796875 19.296875 44.796875 
Q 24.90625 44.796875 28.703125 42 
Q 29.796875 42.90625 30.40625 43.59375 
Q 31.703125 44.796875 32.40625 44.796875 
Q 33.203125 44.796875 33.34375 44.296875 
Q 33.5 43.796875 33.5 42.40625 
L 33.5 32.296875 
Q 33.5 31.203125 33.453125 30.796875 
Q 33.40625 30.40625 33.09375 30.15625 
Q 32.796875 29.90625 32.203125 29.90625 
Q 31.09375 29.90625 31 30.796875 
Q 30.203125 42.90625 19.296875 42.90625 
Q 13.40625 42.90625 10.75 40.65625 
Q 8.09375 38.40625 8.09375 35.296875 
Q 8.09375 33.59375 8.890625 32.296875 
Q 9.703125 31 10.75 30.25 
Q 11.796875 29.5 13.75 28.796875 
Q 15.703125 28.09375 16.890625 27.84375 
Q 18.09375 27.59375 20.40625 27.09375 
Q 28.40625 25.59375 31.796875 22.296875 
Q 36 18.09375 36 12.796875 
Q 36 6.90625 32 2.90625 
Q 28 -1.09375 19.90625 -1.09375 
Q 13.40625 -1.09375 8.90625 3.203125 
Q 8.296875 2.59375 7.84375 2.09375 
Q 7.40625 1.59375 7.25 1.390625 
Q 7.09375 1.203125 7.046875 1.09375 
Q 7 1 6.90625 0.90625 
Q 4.90625 -1.09375 4.40625 -1.09375 
Q 3.59375 -1.09375 3.4375 -0.59375 
Q 3.296875 -0.09375 3.296875 1.296875 
z
" id="CMUSerif-Roman-115"/>
     <path d="M 2.796875 0 
L 2.796875 3.09375 
Q 8.09375 3.09375 9.34375 3.75 
Q 10.59375 4.40625 10.59375 7.59375 
L 10.59375 34.40625 
Q 10.59375 38.09375 9.296875 39.046875 
Q 8 40 2.796875 40 
L 2.796875 43.09375 
L 16.703125 44.203125 
L 16.703125 33.203125 
Q 18.09375 37.5 21.09375 40.84375 
Q 24.09375 44.203125 29 44.203125 
Q 32.203125 44.203125 34.296875 42.390625 
Q 36.40625 40.59375 36.40625 38.09375 
Q 36.40625 35.90625 35.046875 34.796875 
Q 33.703125 33.703125 32.09375 33.703125 
Q 30.296875 33.703125 29.046875 34.84375 
Q 27.796875 36 27.796875 38 
Q 27.796875 39.203125 28.34375 40.140625 
Q 28.90625 41.09375 29.34375 41.4375 
Q 29.796875 41.796875 30.09375 41.90625 
Q 29.90625 42 29 42 
Q 23.5 42 20.34375 36.5 
Q 17.203125 31 17.203125 23.203125 
L 17.203125 7.796875 
Q 17.203125 4.90625 18.390625 4 
Q 19.59375 3.09375 24.796875 3.09375 
L 26.90625 3.09375 
L 26.90625 0 
Q 22.90625 0.296875 14.203125 0.296875 
Q 13 0.296875 11.09375 0.25 
Q 9.203125 0.203125 6.703125 0.09375 
Q 4.203125 0 2.796875 0 
z
" id="CMUSerif-Roman-114"/>
    </defs>
    <g transform="translate(88.099844 16.361625)scale(0.132 -0.132)">
     <use xlink:href="#CMUSerif-Roman-67"/>
     <use x="72.199982" xlink:href="#CMUSerif-Roman-108"/>
     <use x="99.899979" xlink:href="#CMUSerif-Roman-117"/>
     <use x="155.399963" xlink:href="#CMUSerif-Roman-115"/>
     <use x="194.799957" xlink:href="#CMUSerif-Roman-116"/>
     <use x="233.599945" xlink:href="#CMUSerif-Roman-101"/>
     <use x="277.999939" xlink:href="#CMUSerif-Roman-114"/>
    </g>
   </g>
  </g>
 </g>
 <defs>
  <clipPath id="p83c72d91a9">
   <rect height="65.232" width="66.96" x="75.549063" y="22.361625"/>
  </clipPath>
 </defs>
</svg>
