<?xml version="1.0" encoding="utf-8" standalone="no"?>
<!DOCTYPE svg PUBLIC "-//W3C//DTD SVG 1.1//EN"
  "http://www.w3.org/Graphics/SVG/1.1/DTD/svg11.dtd">
<svg xmlns:xlink="http://www.w3.org/1999/xlink" width="145.17575pt" height="140.584378pt" viewBox="0 0 145.17575 140.584378" xmlns="http://www.w3.org/2000/svg" version="1.1">
 <metadata>
  <rdf:RDF xmlns:dc="http://purl.org/dc/elements/1.1/" xmlns:cc="http://creativecommons.org/ns#" xmlns:rdf="http://www.w3.org/1999/02/22-rdf-syntax-ns#">
   <cc:Work>
    <dc:type rdf:resource="http://purl.org/dc/dcmitype/StillImage"/>
    <dc:date>2023-08-10T12:05:13.690521</dc:date>
    <dc:format>image/svg+xml</dc:format>
    <dc:creator>
     <cc:Agent>
      <dc:title>Matplotlib v3.7.2, https://matplotlib.org/</dc:title>
     </cc:Agent>
    </dc:creator>
   </cc:Work>
  </rdf:RDF>
 </metadata>
 <defs>
  <style type="text/css">*{stroke-linejoin: round; stroke-linecap: butt}</style>
 </defs>
 <g id="figure_1">
  <g id="patch_1">
   <path d="M 0 140.584378 
L 145.17575 140.584378 
L 145.17575 0 
L 0 0 
z
" style="fill: #ffffff"/>
  </g>
  <g id="patch_2">
   <path d="M 7.2 118.8 
L 118.8 118.8 
L 118.8 7.2 
L 7.2 7.2 
z
" style="fill: #ffffff"/>
  </g>
  <g id="pane3d_1">
   <g id="patch_3">
    <path d="M 15.62657 91.283016 
L 52.480534 60.391293 
L 51.968229 15.839904 
L 13.350612 44.021282 
" style="fill: none; opacity: 0"/>
   </g>
  </g>
  <g id="pane3d_2">
   <g id="patch_4">
    <path d="M 52.480534 60.391293 
L 111.617998 77.580219 
L 113.728406 31.494309 
L 51.968229 15.839904 
" style="fill: none; opacity: 0"/>
   </g>
  </g>
  <g id="pane3d_3">
   <g id="patch_5">
    <path d="M 15.62657 91.283016 
L 78.31517 111.757113 
L 111.617998 77.580219 
L 52.480534 60.391293 
" style="fill: none; opacity: 0"/>
   </g>
  </g>
  <g id="axis3d_1">
   <g id="line2d_1">
    <path d="M 15.62657 91.283016 
L 78.31517 111.757113 
" style="fill: none; stroke: #000000; stroke-width: 0.8; stroke-linecap: square"/>
   </g>
   <g id="text_1">
    <!-- PC 3 -->
    <g transform="translate(19.729762 136.784755) scale(0.1 -0.1)">
     <defs>
      <path id="DejaVuSans-50" d="M 1259 4147 
L 1259 2394 
L 2053 2394 
Q 2494 2394 2734 2622 
Q 2975 2850 2975 3272 
Q 2975 3691 2734 3919 
Q 2494 4147 2053 4147 
L 1259 4147 
z
M 628 4666 
L 2053 4666 
Q 2838 4666 3239 4311 
Q 3641 3956 3641 3272 
Q 3641 2581 3239 2228 
Q 2838 1875 2053 1875 
L 1259 1875 
L 1259 0 
L 628 0 
L 628 4666 
z
" transform="scale(0.015625)"/>
      <path id="DejaVuSans-43" d="M 4122 4306 
L 4122 3641 
Q 3803 3938 3442 4084 
Q 3081 4231 2675 4231 
Q 1875 4231 1450 3742 
Q 1025 3253 1025 2328 
Q 1025 1406 1450 917 
Q 1875 428 2675 428 
Q 3081 428 3442 575 
Q 3803 722 4122 1019 
L 4122 359 
Q 3791 134 3420 21 
Q 3050 -91 2638 -91 
Q 1578 -91 968 557 
Q 359 1206 359 2328 
Q 359 3453 968 4101 
Q 1578 4750 2638 4750 
Q 3056 4750 3426 4639 
Q 3797 4528 4122 4306 
z
" transform="scale(0.015625)"/>
      <path id="DejaVuSans-20" transform="scale(0.015625)"/>
      <path id="DejaVuSans-33" d="M 2597 2516 
Q 3050 2419 3304 2112 
Q 3559 1806 3559 1356 
Q 3559 666 3084 287 
Q 2609 -91 1734 -91 
Q 1441 -91 1130 -33 
Q 819 25 488 141 
L 488 750 
Q 750 597 1062 519 
Q 1375 441 1716 441 
Q 2309 441 2620 675 
Q 2931 909 2931 1356 
Q 2931 1769 2642 2001 
Q 2353 2234 1838 2234 
L 1294 2234 
L 1294 2753 
L 1863 2753 
Q 2328 2753 2575 2939 
Q 2822 3125 2822 3475 
Q 2822 3834 2567 4026 
Q 2313 4219 1838 4219 
Q 1578 4219 1281 4162 
Q 984 4106 628 3988 
L 628 4550 
Q 988 4650 1302 4700 
Q 1616 4750 1894 4750 
Q 2613 4750 3031 4423 
Q 3450 4097 3450 3541 
Q 3450 3153 3228 2886 
Q 3006 2619 2597 2516 
z
" transform="scale(0.015625)"/>
     </defs>
     <use xlink:href="#DejaVuSans-50"/>
     <use xlink:href="#DejaVuSans-43" x="60.302734"/>
     <use xlink:href="#DejaVuSans-20" x="130.126953"/>
     <use xlink:href="#DejaVuSans-33" x="161.914062"/>
    </g>
   </g>
   <g id="Line3DCollection_1">
    <path d="M 28.994327 95.648926 
L 65.134904 64.069418 
L 65.161897 19.184115 
" style="fill: none"/>
    <path d="M 44.993142 100.874139 
L 80.248594 68.462371 
L 80.935315 23.182216 
" style="fill: none"/>
    <path d="M 61.435192 106.244112 
L 95.745545 72.966723 
L 97.126405 27.286185 
" style="fill: none"/>
   </g>
   <g id="xtick_1">
    <g id="line2d_2">
     <path d="M 29.309248 95.373749 
L 28.363123 96.20047 
" style="fill: none; stroke: #000000; stroke-width: 0.8; stroke-linecap: square"/>
    </g>
    <g id="text_2">
     <!-- −2.5 -->
     <g transform="translate(9.307979 119.198742) scale(0.1 -0.1)">
      <defs>
       <path id="DejaVuSans-2212" d="M 678 2272 
L 4684 2272 
L 4684 1741 
L 678 1741 
L 678 2272 
z
" transform="scale(0.015625)"/>
       <path id="DejaVuSans-32" d="M 1228 531 
L 3431 531 
L 3431 0 
L 469 0 
L 469 531 
Q 828 903 1448 1529 
Q 2069 2156 2228 2338 
Q 2531 2678 2651 2914 
Q 2772 3150 2772 3378 
Q 2772 3750 2511 3984 
Q 2250 4219 1831 4219 
Q 1534 4219 1204 4116 
Q 875 4013 500 3803 
L 500 4441 
Q 881 4594 1212 4672 
Q 1544 4750 1819 4750 
Q 2544 4750 2975 4387 
Q 3406 4025 3406 3419 
Q 3406 3131 3298 2873 
Q 3191 2616 2906 2266 
Q 2828 2175 2409 1742 
Q 1991 1309 1228 531 
z
" transform="scale(0.015625)"/>
       <path id="DejaVuSans-2e" d="M 684 794 
L 1344 794 
L 1344 0 
L 684 0 
L 684 794 
z
" transform="scale(0.015625)"/>
       <path id="DejaVuSans-35" d="M 691 4666 
L 3169 4666 
L 3169 4134 
L 1269 4134 
L 1269 2991 
Q 1406 3038 1543 3061 
Q 1681 3084 1819 3084 
Q 2600 3084 3056 2656 
Q 3513 2228 3513 1497 
Q 3513 744 3044 326 
Q 2575 -91 1722 -91 
Q 1428 -91 1123 -41 
Q 819 9 494 109 
L 494 744 
Q 775 591 1075 516 
Q 1375 441 1709 441 
Q 2250 441 2565 725 
Q 2881 1009 2881 1497 
Q 2881 1984 2565 2268 
Q 2250 2553 1709 2553 
Q 1456 2553 1204 2497 
Q 953 2441 691 2322 
L 691 4666 
z
" transform="scale(0.015625)"/>
      </defs>
      <use xlink:href="#DejaVuSans-2212"/>
      <use xlink:href="#DejaVuSans-32" x="83.789062"/>
      <use xlink:href="#DejaVuSans-2e" x="147.412109"/>
      <use xlink:href="#DejaVuSans-35" x="179.199219"/>
     </g>
    </g>
   </g>
   <g id="xtick_2">
    <g id="line2d_3">
     <path d="M 45.300694 100.591394 
L 44.37669 101.440868 
" style="fill: none; stroke: #000000; stroke-width: 0.8; stroke-linecap: square"/>
    </g>
    <g id="text_3">
     <!-- 0.0 -->
     <g transform="translate(29.538325 124.691471) scale(0.1 -0.1)">
      <defs>
       <path id="DejaVuSans-30" d="M 2034 4250 
Q 1547 4250 1301 3770 
Q 1056 3291 1056 2328 
Q 1056 1369 1301 889 
Q 1547 409 2034 409 
Q 2525 409 2770 889 
Q 3016 1369 3016 2328 
Q 3016 3291 2770 3770 
Q 2525 4250 2034 4250 
z
M 2034 4750 
Q 2819 4750 3233 4129 
Q 3647 3509 3647 2328 
Q 3647 1150 3233 529 
Q 2819 -91 2034 -91 
Q 1250 -91 836 529 
Q 422 1150 422 2328 
Q 422 3509 836 4129 
Q 1250 4750 2034 4750 
z
" transform="scale(0.015625)"/>
      </defs>
      <use xlink:href="#DejaVuSans-30"/>
      <use xlink:href="#DejaVuSans-2e" x="63.623047"/>
      <use xlink:href="#DejaVuSans-30" x="95.410156"/>
     </g>
    </g>
   </g>
   <g id="xtick_3">
    <g id="line2d_4">
     <path d="M 61.734842 105.953483 
L 60.834558 106.826663 
" style="fill: none; stroke: #000000; stroke-width: 0.8; stroke-linecap: square"/>
    </g>
    <g id="text_4">
     <!-- 2.5 -->
     <g transform="translate(46.027321 130.337776) scale(0.1 -0.1)">
      <use xlink:href="#DejaVuSans-32"/>
      <use xlink:href="#DejaVuSans-2e" x="63.623047"/>
      <use xlink:href="#DejaVuSans-35" x="95.410156"/>
     </g>
    </g>
   </g>
  </g>
  <g id="axis3d_2">
   <g id="line2d_5">
    <path d="M 111.617998 77.580219 
L 78.31517 111.757113 
" style="fill: none; stroke: #000000; stroke-width: 0.8; stroke-linecap: square"/>
   </g>
   <g id="text_5">
    <!-- PC 2 -->
    <g transform="translate(109.284787 122.472375) scale(0.1 -0.1)">
     <use xlink:href="#DejaVuSans-50"/>
     <use xlink:href="#DejaVuSans-43" x="60.302734"/>
     <use xlink:href="#DejaVuSans-20" x="130.126953"/>
     <use xlink:href="#DejaVuSans-32" x="161.914062"/>
    </g>
   </g>
   <g id="Line3DCollection_2">
    <path d="M 15.061848 42.7725 
L 17.253738 89.919092 
L 79.791766 110.241762 
" style="fill: none"/>
    <path d="M 29.38555 32.319714 
L 30.89523 78.484523 
L 92.14828 97.560939 
" style="fill: none"/>
    <path d="M 42.828573 22.509609 
L 43.732977 67.723669 
L 103.739914 85.665071 
" style="fill: none"/>
   </g>
   <g id="xtick_4">
    <g id="line2d_6">
     <path d="M 79.264699 110.070483 
L 80.847267 110.584762 
" style="fill: none; stroke: #000000; stroke-width: 0.8; stroke-linecap: square"/>
    </g>
    <g id="text_6">
     <!-- −5 -->
     <g transform="translate(85.338487 131.30469) scale(0.1 -0.1)">
      <use xlink:href="#DejaVuSans-2212"/>
      <use xlink:href="#DejaVuSans-35" x="83.789062"/>
     </g>
    </g>
   </g>
   <g id="xtick_5">
    <g id="line2d_7">
     <path d="M 91.632879 97.400425 
L 93.180374 97.88237 
" style="fill: none; stroke: #000000; stroke-width: 0.8; stroke-linecap: square"/>
    </g>
    <g id="text_7">
     <!-- 0 -->
     <g transform="translate(101.488819 118.17565) scale(0.1 -0.1)">
      <use xlink:href="#DejaVuSans-30"/>
     </g>
    </g>
   </g>
   <g id="xtick_6">
    <g id="line2d_8">
     <path d="M 103.235767 85.514337 
L 104.749432 85.966906 
" style="fill: none; stroke: #000000; stroke-width: 0.8; stroke-linecap: square"/>
    </g>
    <g id="text_8">
     <!-- 5 -->
     <g transform="translate(112.707948 105.860402) scale(0.1 -0.1)">
      <use xlink:href="#DejaVuSans-35"/>
     </g>
    </g>
   </g>
  </g>
  <g id="axis3d_3">
   <g id="line2d_9">
    <path d="M 111.617998 77.580219 
L 113.728406 31.494309 
" style="fill: none; stroke: #000000; stroke-width: 0.8; stroke-linecap: square"/>
   </g>
   <g id="text_9">
    <!-- -PC 1 -->
    <g transform="translate(150.081795 63.509328) rotate(-87.378092) scale(0.1 -0.1)">
     <defs>
      <path id="DejaVuSans-2d" d="M 313 2009 
L 1997 2009 
L 1997 1497 
L 313 1497 
L 313 2009 
z
" transform="scale(0.015625)"/>
      <path id="DejaVuSans-31" d="M 794 531 
L 1825 531 
L 1825 4091 
L 703 3866 
L 703 4441 
L 1819 4666 
L 2450 4666 
L 2450 531 
L 3481 531 
L 3481 0 
L 794 0 
L 794 531 
z
" transform="scale(0.015625)"/>
     </defs>
     <use xlink:href="#DejaVuSans-2d"/>
     <use xlink:href="#DejaVuSans-50" x="36.083984"/>
     <use xlink:href="#DejaVuSans-43" x="96.386719"/>
     <use xlink:href="#DejaVuSans-20" x="166.210938"/>
     <use xlink:href="#DejaVuSans-31" x="197.998047"/>
    </g>
   </g>
   <g id="Line3DCollection_3">
    <path d="M 112.209271 64.668323 
L 52.336783 47.890348 
L 14.989688 78.057756 
" style="fill: none"/>
    <path d="M 112.883691 49.940709 
L 52.173025 33.649523 
L 14.262511 62.957452 
" style="fill: none"/>
    <path d="M 113.577456 34.790671 
L 52.004801 19.020267 
L 13.513658 47.407043 
" style="fill: none"/>
   </g>
   <g id="xtick_7">
    <g id="line2d_10">
     <path d="M 111.706481 64.527427 
L 113.216062 64.950455 
" style="fill: none; stroke: #000000; stroke-width: 0.8; stroke-linecap: square"/>
    </g>
    <g id="text_10">
     <!-- −5 -->
     <g transform="translate(123.233563 69.733282) scale(0.1 -0.1)">
      <use xlink:href="#DejaVuSans-2212"/>
      <use xlink:href="#DejaVuSans-35" x="83.789062"/>
     </g>
    </g>
   </g>
   <g id="xtick_8">
    <g id="line2d_11">
     <path d="M 112.373521 49.803809 
L 113.905278 50.214843 
" style="fill: none; stroke: #000000; stroke-width: 0.8; stroke-linecap: square"/>
    </g>
    <g id="text_11">
     <!-- 0 -->
     <g transform="translate(128.351078 55.077763) scale(0.1 -0.1)">
      <use xlink:href="#DejaVuSans-30"/>
     </g>
    </g>
   </g>
   <g id="xtick_9">
    <g id="line2d_12">
     <path d="M 113.059686 34.658056 
L 114.614278 35.056229 
" style="fill: none; stroke: #000000; stroke-width: 0.8; stroke-linecap: square"/>
    </g>
    <g id="text_12">
     <!-- 5 -->
     <g transform="translate(129.30516 40.005005) scale(0.1 -0.1)">
      <use xlink:href="#DejaVuSans-35"/>
     </g>
    </g>
   </g>
  </g>
  <g id="axes_1">
   <g id="Path3DCollection_1">
    <defs>
     <path id="C0_0_ff480eed3c" d="M 0 1.936492 
C 0.513564 1.936492 1.006162 1.732451 1.369306 1.369306 
C 1.732451 1.006162 1.936492 0.513564 1.936492 -0 
C 1.936492 -0.513564 1.732451 -1.006162 1.369306 -1.369306 
C 1.006162 -1.732451 0.513564 -1.936492 0 -1.936492 
C -0.513564 -1.936492 -1.006162 -1.732451 -1.369306 -1.369306 
C -1.732451 -1.006162 -1.936492 -0.513564 -1.936492 0 
C -1.936492 0.513564 -1.732451 1.006162 -1.369306 1.369306 
C -1.006162 1.732451 -0.513564 1.936492 0 1.936492 
z
"/>
    </defs>
    <g clip-path="url(#p04ab18f32a)">
     <use xlink:href="#C0_0_ff480eed3c" x="68.445276" y="47.471572" style="fill: #ff603d; fill-opacity: 0.6"/>
    </g>
    <g clip-path="url(#p04ab18f32a)">
     <use xlink:href="#C0_0_ff480eed3c" x="72.929857" y="36.79122" style="fill: #910040; fill-opacity: 0.6"/>
    </g>
    <g clip-path="url(#p04ab18f32a)">
     <use xlink:href="#C0_0_ff480eed3c" x="50.851076" y="53.025579" style="fill: #910040; fill-opacity: 0.6"/>
    </g>
    <g clip-path="url(#p04ab18f32a)">
     <use xlink:href="#C0_0_ff480eed3c" x="75.315723" y="54.963134" style="fill: #ff603d; fill-opacity: 0.6"/>
    </g>
    <g clip-path="url(#p04ab18f32a)">
     <use xlink:href="#C0_0_ff480eed3c" x="67.677767" y="60.397079" style="fill: #910040; fill-opacity: 0.6"/>
    </g>
    <g clip-path="url(#p04ab18f32a)">
     <use xlink:href="#C0_0_ff480eed3c" x="60.161259" y="55.767834" style="fill: #910040; fill-opacity: 0.6"/>
    </g>
    <g clip-path="url(#p04ab18f32a)">
     <use xlink:href="#C0_0_ff480eed3c" x="56.081406" y="60.418283" style="fill: #ff603d; fill-opacity: 0.6"/>
    </g>
    <g clip-path="url(#p04ab18f32a)">
     <use xlink:href="#C0_0_ff480eed3c" x="95.326014" y="44.576319" style="fill: #ff603d; fill-opacity: 0.6"/>
    </g>
    <g clip-path="url(#p04ab18f32a)">
     <use xlink:href="#C0_0_ff480eed3c" x="42.660252" y="56.72844" style="fill: #ff603d; fill-opacity: 0.6"/>
    </g>
    <g clip-path="url(#p04ab18f32a)">
     <use xlink:href="#C0_0_ff480eed3c" x="62.346453" y="74.75952" style="fill: #ff603d; fill-opacity: 0.6"/>
    </g>
    <g clip-path="url(#p04ab18f32a)">
     <use xlink:href="#C0_0_ff480eed3c" x="65.157082" y="54.069024" style="fill: #ff603d; fill-opacity: 0.6"/>
    </g>
    <g clip-path="url(#p04ab18f32a)">
     <use xlink:href="#C0_0_ff480eed3c" x="54.54935" y="59.795581" style="fill: #ff603d; fill-opacity: 0.6"/>
    </g>
    <g clip-path="url(#p04ab18f32a)">
     <use xlink:href="#C0_0_ff480eed3c" x="73.11755" y="60.178247" style="fill: #ff603d; fill-opacity: 0.6"/>
    </g>
    <g clip-path="url(#p04ab18f32a)">
     <use xlink:href="#C0_0_ff480eed3c" x="56.773659" y="67.73103" style="fill: #ff603d; fill-opacity: 0.6"/>
    </g>
    <g clip-path="url(#p04ab18f32a)">
     <use xlink:href="#C0_0_ff480eed3c" x="57.671667" y="55.491129" style="fill: #910040; fill-opacity: 0.6"/>
    </g>
    <g clip-path="url(#p04ab18f32a)">
     <use xlink:href="#C0_0_ff480eed3c" x="66.249113" y="50.209019" style="fill: #ff603d; fill-opacity: 0.6"/>
    </g>
    <g clip-path="url(#p04ab18f32a)">
     <use xlink:href="#C0_0_ff480eed3c" x="44.167033" y="69.453086" style="fill: #ff603d; fill-opacity: 0.6"/>
    </g>
    <g clip-path="url(#p04ab18f32a)">
     <use xlink:href="#C0_0_ff480eed3c" x="60.2707" y="47.600688" style="fill: #910040; fill-opacity: 0.6"/>
    </g>
    <g clip-path="url(#p04ab18f32a)">
     <use xlink:href="#C0_0_ff480eed3c" x="53.043817" y="47.565632" style="fill: #ff603d; fill-opacity: 0.6"/>
    </g>
    <g clip-path="url(#p04ab18f32a)">
     <use xlink:href="#C0_0_ff480eed3c" x="55.595676" y="43.876245" style="fill: #ff603d; fill-opacity: 0.6"/>
    </g>
    <g clip-path="url(#p04ab18f32a)">
     <use xlink:href="#C0_0_ff480eed3c" x="63.298005" y="53.454313" style="fill: #910040; fill-opacity: 0.6"/>
    </g>
    <g clip-path="url(#p04ab18f32a)">
     <use xlink:href="#C0_0_ff480eed3c" x="71.667998" y="56.758918" style="fill: #910040; fill-opacity: 0.6"/>
    </g>
    <g clip-path="url(#p04ab18f32a)">
     <use xlink:href="#C0_0_ff480eed3c" x="61.833787" y="58.760931" style="fill: #ff603d; fill-opacity: 0.6"/>
    </g>
    <g clip-path="url(#p04ab18f32a)">
     <use xlink:href="#C0_0_ff480eed3c" x="82.073482" y="56.540793" style="fill: #910040; fill-opacity: 0.6"/>
    </g>
    <g clip-path="url(#p04ab18f32a)">
     <use xlink:href="#C0_0_ff480eed3c" x="42.646627" y="55.227065" style="fill: #ff603d; fill-opacity: 0.6"/>
    </g>
    <g clip-path="url(#p04ab18f32a)">
     <use xlink:href="#C0_0_ff480eed3c" x="81.515241" y="84.970474" style="fill: #ff603d; fill-opacity: 0.6"/>
    </g>
    <g clip-path="url(#p04ab18f32a)">
     <use xlink:href="#C0_0_ff480eed3c" x="52.266918" y="52.609902" style="fill: #ff603d; fill-opacity: 0.6"/>
    </g>
    <g clip-path="url(#p04ab18f32a)">
     <use xlink:href="#C0_0_ff480eed3c" x="58.543989" y="52.183642" style="fill: #ff603d; fill-opacity: 0.6"/>
    </g>
    <g clip-path="url(#p04ab18f32a)">
     <use xlink:href="#C0_0_ff480eed3c" x="44.198696" y="47.495581" style="fill: #910040; fill-opacity: 0.6"/>
    </g>
    <g clip-path="url(#p04ab18f32a)">
     <use xlink:href="#C0_0_ff480eed3c" x="49.077345" y="57.529845" style="fill: #ff603d; fill-opacity: 0.6"/>
    </g>
    <g clip-path="url(#p04ab18f32a)">
     <use xlink:href="#C0_0_ff480eed3c" x="59.745304" y="64.426457" style="fill: #ff603d; fill-opacity: 0.6"/>
    </g>
    <g clip-path="url(#p04ab18f32a)">
     <use xlink:href="#C0_0_ff480eed3c" x="45.550804" y="65.904319" style="fill: #ff603d; fill-opacity: 0.6"/>
    </g>
    <g clip-path="url(#p04ab18f32a)">
     <use xlink:href="#C0_0_ff480eed3c" x="59.917783" y="77.276077" style="fill: #ff603d; fill-opacity: 0.6"/>
    </g>
    <g clip-path="url(#p04ab18f32a)">
     <use xlink:href="#C0_0_ff480eed3c" x="44.649081" y="56.821855" style="fill: #ff603d; fill-opacity: 0.6"/>
    </g>
    <g clip-path="url(#p04ab18f32a)">
     <use xlink:href="#C0_0_ff480eed3c" x="28.378237" y="63.475271" style="fill: #ff603d; fill-opacity: 0.6"/>
    </g>
    <g clip-path="url(#p04ab18f32a)">
     <use xlink:href="#C0_0_ff480eed3c" x="61.048285" y="73.161257" style="fill: #ff603d; fill-opacity: 0.6"/>
    </g>
    <g clip-path="url(#p04ab18f32a)">
     <use xlink:href="#C0_0_ff480eed3c" x="51.481751" y="50.571098" style="fill: #910040; fill-opacity: 0.6"/>
    </g>
    <g clip-path="url(#p04ab18f32a)">
     <use xlink:href="#C0_0_ff480eed3c" x="56.628916" y="60.215947" style="fill: #ff603d; fill-opacity: 0.6"/>
    </g>
    <g clip-path="url(#p04ab18f32a)">
     <use xlink:href="#C0_0_ff480eed3c" x="64.326087" y="60.451197" style="fill: #ff603d; fill-opacity: 0.6"/>
    </g>
    <g clip-path="url(#p04ab18f32a)">
     <use xlink:href="#C0_0_ff480eed3c" x="52.895093" y="47.096134" style="fill: #ff603d; fill-opacity: 0.6"/>
    </g>
    <g clip-path="url(#p04ab18f32a)">
     <use xlink:href="#C0_0_ff480eed3c" x="63.716793" y="43.804217" style="fill: #910040; fill-opacity: 0.6"/>
    </g>
    <g clip-path="url(#p04ab18f32a)">
     <use xlink:href="#C0_0_ff480eed3c" x="51.180328" y="49.165133" style="fill: #910040; fill-opacity: 0.6"/>
    </g>
    <g clip-path="url(#p04ab18f32a)">
     <use xlink:href="#C0_0_ff480eed3c" x="73.344334" y="50.336427" style="fill: #910040; fill-opacity: 0.6"/>
    </g>
    <g clip-path="url(#p04ab18f32a)">
     <use xlink:href="#C0_0_ff480eed3c" x="48.416533" y="61.222106" style="fill: #910040; fill-opacity: 0.6"/>
    </g>
    <g clip-path="url(#p04ab18f32a)">
     <use xlink:href="#C0_0_ff480eed3c" x="55.709036" y="47.570761" style="fill: #ff603d; fill-opacity: 0.6"/>
    </g>
    <g clip-path="url(#p04ab18f32a)">
     <use xlink:href="#C0_0_ff480eed3c" x="65.629467" y="46.149051" style="fill: #ff603d; fill-opacity: 0.6"/>
    </g>
    <g clip-path="url(#p04ab18f32a)">
     <use xlink:href="#C0_0_ff480eed3c" x="60.848903" y="55.82403" style="fill: #ff603d; fill-opacity: 0.6"/>
    </g>
    <g clip-path="url(#p04ab18f32a)">
     <use xlink:href="#C0_0_ff480eed3c" x="59.911922" y="45.486764" style="fill: #910040; fill-opacity: 0.6"/>
    </g>
    <g clip-path="url(#p04ab18f32a)">
     <use xlink:href="#C0_0_ff480eed3c" x="30.104995" y="54.953791" style="fill: #ff603d; fill-opacity: 0.6"/>
    </g>
    <g clip-path="url(#p04ab18f32a)">
     <use xlink:href="#C0_0_ff480eed3c" x="38.057467" y="75.023634" style="fill: #ff603d; fill-opacity: 0.6"/>
    </g>
    <g clip-path="url(#p04ab18f32a)">
     <use xlink:href="#C0_0_ff480eed3c" x="72.762677" y="49.567198" style="fill: #ff603d; fill-opacity: 0.6"/>
    </g>
    <g clip-path="url(#p04ab18f32a)">
     <use xlink:href="#C0_0_ff480eed3c" x="31.701137" y="48.000476" style="fill: #ff603d; fill-opacity: 0.6"/>
    </g>
    <g clip-path="url(#p04ab18f32a)">
     <use xlink:href="#C0_0_ff480eed3c" x="73.148384" y="54.070767" style="fill: #ff603d; fill-opacity: 0.6"/>
    </g>
    <g clip-path="url(#p04ab18f32a)">
     <use xlink:href="#C0_0_ff480eed3c" x="63.285115" y="58.222612" style="fill: #910040; fill-opacity: 0.6"/>
    </g>
    <g clip-path="url(#p04ab18f32a)">
     <use xlink:href="#C0_0_ff480eed3c" x="77.063782" y="52.547216" style="fill: #ff603d; fill-opacity: 0.6"/>
    </g>
    <g clip-path="url(#p04ab18f32a)">
     <use xlink:href="#C0_0_ff480eed3c" x="49.685404" y="56.228505" style="fill: #910040; fill-opacity: 0.6"/>
    </g>
    <g clip-path="url(#p04ab18f32a)">
     <use xlink:href="#C0_0_ff480eed3c" x="57.295682" y="53.648419" style="fill: #910040; fill-opacity: 0.6"/>
    </g>
    <g clip-path="url(#p04ab18f32a)">
     <use xlink:href="#C0_0_ff480eed3c" x="53.151239" y="45.377087" style="fill: #ff603d; fill-opacity: 0.6"/>
    </g>
    <g clip-path="url(#p04ab18f32a)">
     <use xlink:href="#C0_0_ff480eed3c" x="58.768877" y="63.058166" style="fill: #ff603d; fill-opacity: 0.6"/>
    </g>
    <g clip-path="url(#p04ab18f32a)">
     <use xlink:href="#C0_0_ff480eed3c" x="59.263017" y="51.136419" style="fill: #ff603d; fill-opacity: 0.6"/>
    </g>
    <g clip-path="url(#p04ab18f32a)">
     <use xlink:href="#C0_0_ff480eed3c" x="58.620518" y="66.204398" style="fill: #ff603d; fill-opacity: 0.6"/>
    </g>
    <g clip-path="url(#p04ab18f32a)">
     <use xlink:href="#C0_0_ff480eed3c" x="50.35073" y="50.793021" style="fill: #ff603d; fill-opacity: 0.6"/>
    </g>
    <g clip-path="url(#p04ab18f32a)">
     <use xlink:href="#C0_0_ff480eed3c" x="76.325135" y="45.416849" style="fill: #ff603d; fill-opacity: 0.6"/>
    </g>
    <g clip-path="url(#p04ab18f32a)">
     <use xlink:href="#C0_0_ff480eed3c" x="90.339997" y="91.160644" style="fill: #ff603d; fill-opacity: 0.6"/>
    </g>
    <g clip-path="url(#p04ab18f32a)">
     <use xlink:href="#C0_0_ff480eed3c" x="49.439414" y="63.356442" style="fill: #ff603d; fill-opacity: 0.6"/>
    </g>
    <g clip-path="url(#p04ab18f32a)">
     <use xlink:href="#C0_0_ff480eed3c" x="53.470662" y="66.252451" style="fill: #ff603d; fill-opacity: 0.6"/>
    </g>
    <g clip-path="url(#p04ab18f32a)">
     <use xlink:href="#C0_0_ff480eed3c" x="53.53994" y="70.431174" style="fill: #ff603d; fill-opacity: 0.6"/>
    </g>
    <g clip-path="url(#p04ab18f32a)">
     <use xlink:href="#C0_0_ff480eed3c" x="61.770735" y="49.2449" style="fill: #ff603d; fill-opacity: 0.6"/>
    </g>
    <g clip-path="url(#p04ab18f32a)">
     <use xlink:href="#C0_0_ff480eed3c" x="79.798773" y="78.178421" style="fill: #ff603d; fill-opacity: 0.6"/>
    </g>
    <g clip-path="url(#p04ab18f32a)">
     <use xlink:href="#C0_0_ff480eed3c" x="61.370161" y="67.000146" style="fill: #ff603d; fill-opacity: 0.6"/>
    </g>
    <g clip-path="url(#p04ab18f32a)">
     <use xlink:href="#C0_0_ff480eed3c" x="45.629668" y="55.69713" style="fill: #ff603d; fill-opacity: 0.6"/>
    </g>
    <g clip-path="url(#p04ab18f32a)">
     <use xlink:href="#C0_0_ff480eed3c" x="50.295448" y="60.378621" style="fill: #ff603d; fill-opacity: 0.6"/>
    </g>
    <g clip-path="url(#p04ab18f32a)">
     <use xlink:href="#C0_0_ff480eed3c" x="64.61806" y="53.342403" style="fill: #ff603d; fill-opacity: 0.6"/>
    </g>
    <g clip-path="url(#p04ab18f32a)">
     <use xlink:href="#C0_0_ff480eed3c" x="77.955748" y="56.699961" style="fill: #910040; fill-opacity: 0.6"/>
    </g>
    <g clip-path="url(#p04ab18f32a)">
     <use xlink:href="#C0_0_ff480eed3c" x="62.832567" y="53.806272" style="fill: #ff603d; fill-opacity: 0.6"/>
    </g>
    <g clip-path="url(#p04ab18f32a)">
     <use xlink:href="#C0_0_ff480eed3c" x="53.727758" y="50.263728" style="fill: #910040; fill-opacity: 0.6"/>
    </g>
    <g clip-path="url(#p04ab18f32a)">
     <use xlink:href="#C0_0_ff480eed3c" x="53.890249" y="72.039195" style="fill: #ff603d; fill-opacity: 0.6"/>
    </g>
    <g clip-path="url(#p04ab18f32a)">
     <use xlink:href="#C0_0_ff480eed3c" x="77.191343" y="69.726822" style="fill: #ff603d; fill-opacity: 0.6"/>
    </g>
    <g clip-path="url(#p04ab18f32a)">
     <use xlink:href="#C0_0_ff480eed3c" x="55.665099" y="57.209772" style="fill: #ff603d; fill-opacity: 0.6"/>
    </g>
    <g clip-path="url(#p04ab18f32a)">
     <use xlink:href="#C0_0_ff480eed3c" x="65.281162" y="70.142165" style="fill: #ff603d; fill-opacity: 0.6"/>
    </g>
    <g clip-path="url(#p04ab18f32a)">
     <use xlink:href="#C0_0_ff480eed3c" x="66.468691" y="47.621807" style="fill: #ff603d; fill-opacity: 0.6"/>
    </g>
    <g clip-path="url(#p04ab18f32a)">
     <use xlink:href="#C0_0_ff480eed3c" x="59.251448" y="52.947171" style="fill: #910040; fill-opacity: 0.6"/>
    </g>
    <g clip-path="url(#p04ab18f32a)">
     <use xlink:href="#C0_0_ff480eed3c" x="50.58249" y="68.210856" style="fill: #910040; fill-opacity: 0.6"/>
    </g>
    <g clip-path="url(#p04ab18f32a)">
     <use xlink:href="#C0_0_ff480eed3c" x="31.360794" y="50.513813" style="fill: #ff603d; fill-opacity: 0.6"/>
    </g>
    <g clip-path="url(#p04ab18f32a)">
     <use xlink:href="#C0_0_ff480eed3c" x="57.411399" y="73.099417" style="fill: #ff603d; fill-opacity: 0.6"/>
    </g>
    <g clip-path="url(#p04ab18f32a)">
     <use xlink:href="#C0_0_ff480eed3c" x="49.622149" y="49.462508" style="fill: #ff603d; fill-opacity: 0.6"/>
    </g>
    <g clip-path="url(#p04ab18f32a)">
     <use xlink:href="#C0_0_ff480eed3c" x="61.128435" y="50.784921" style="fill: #910040; fill-opacity: 0.6"/>
    </g>
    <g clip-path="url(#p04ab18f32a)">
     <use xlink:href="#C0_0_ff480eed3c" x="70.724683" y="71.866242" style="fill: #ff603d; fill-opacity: 0.6"/>
    </g>
    <g clip-path="url(#p04ab18f32a)">
     <use xlink:href="#C0_0_ff480eed3c" x="67.785541" y="51.843914" style="fill: #910040; fill-opacity: 0.6"/>
    </g>
    <g clip-path="url(#p04ab18f32a)">
     <use xlink:href="#C0_0_ff480eed3c" x="46.391954" y="85.600532" style="fill: #ff603d; fill-opacity: 0.6"/>
    </g>
    <g clip-path="url(#p04ab18f32a)">
     <use xlink:href="#C0_0_ff480eed3c" x="52.540886" y="82.550582" style="fill: #ff603d; fill-opacity: 0.6"/>
    </g>
    <g clip-path="url(#p04ab18f32a)">
     <use xlink:href="#C0_0_ff480eed3c" x="45.653136" y="64.607352" style="fill: #ff603d; fill-opacity: 0.6"/>
    </g>
    <g clip-path="url(#p04ab18f32a)">
     <use xlink:href="#C0_0_ff480eed3c" x="45.289968" y="72.423431" style="fill: #ff603d; fill-opacity: 0.6"/>
    </g>
    <g clip-path="url(#p04ab18f32a)">
     <use xlink:href="#C0_0_ff480eed3c" x="67.190859" y="71.194547" style="fill: #ff603d; fill-opacity: 0.6"/>
    </g>
    <g clip-path="url(#p04ab18f32a)">
     <use xlink:href="#C0_0_ff480eed3c" x="52.270228" y="46.37627" style="fill: #ff603d; fill-opacity: 0.6"/>
    </g>
    <g clip-path="url(#p04ab18f32a)">
     <use xlink:href="#C0_0_ff480eed3c" x="53.720257" y="68.253408" style="fill: #ff603d; fill-opacity: 0.6"/>
    </g>
    <g clip-path="url(#p04ab18f32a)">
     <use xlink:href="#C0_0_ff480eed3c" x="62.444222" y="73.827907" style="fill: #ff603d; fill-opacity: 0.6"/>
    </g>
    <g clip-path="url(#p04ab18f32a)">
     <use xlink:href="#C0_0_ff480eed3c" x="68.502846" y="52.206291" style="fill: #ff603d; fill-opacity: 0.6"/>
    </g>
    <g clip-path="url(#p04ab18f32a)">
     <use xlink:href="#C0_0_ff480eed3c" x="64.816295" y="81.331805" style="fill: #ff603d; fill-opacity: 0.6"/>
    </g>
    <g clip-path="url(#p04ab18f32a)">
     <use xlink:href="#C0_0_ff480eed3c" x="64.267265" y="49.091775" style="fill: #ff603d; fill-opacity: 0.6"/>
    </g>
    <g clip-path="url(#p04ab18f32a)">
     <use xlink:href="#C0_0_ff480eed3c" x="58.950533" y="73.667417" style="fill: #ff603d; fill-opacity: 0.6"/>
    </g>
    <g clip-path="url(#p04ab18f32a)">
     <use xlink:href="#C0_0_ff480eed3c" x="43.115948" y="75.408283" style="fill: #ff603d; fill-opacity: 0.6"/>
    </g>
    <g clip-path="url(#p04ab18f32a)">
     <use xlink:href="#C0_0_ff480eed3c" x="52.38169" y="68.5196" style="fill: #ff603d; fill-opacity: 0.6"/>
    </g>
    <g clip-path="url(#p04ab18f32a)">
     <use xlink:href="#C0_0_ff480eed3c" x="58.806845" y="47.901723" style="fill: #ff603d; fill-opacity: 0.6"/>
    </g>
    <g clip-path="url(#p04ab18f32a)">
     <use xlink:href="#C0_0_ff480eed3c" x="56.445301" y="47.152846" style="fill: #910040; fill-opacity: 0.6"/>
    </g>
    <g clip-path="url(#p04ab18f32a)">
     <use xlink:href="#C0_0_ff480eed3c" x="68.552054" y="54.698868" style="fill: #910040; fill-opacity: 0.6"/>
    </g>
    <g clip-path="url(#p04ab18f32a)">
     <use xlink:href="#C0_0_ff480eed3c" x="49.804104" y="81.577436" style="fill: #ff603d; fill-opacity: 0.6"/>
    </g>
    <g clip-path="url(#p04ab18f32a)">
     <use xlink:href="#C0_0_ff480eed3c" x="52.322218" y="62.95385" style="fill: #ff603d; fill-opacity: 0.6"/>
    </g>
    <g clip-path="url(#p04ab18f32a)">
     <use xlink:href="#C0_0_ff480eed3c" x="61.836883" y="51.553866" style="fill: #ff603d; fill-opacity: 0.6"/>
    </g>
    <g clip-path="url(#p04ab18f32a)">
     <use xlink:href="#C0_0_ff480eed3c" x="50.759579" y="43.811668" style="fill: #ff603d; fill-opacity: 0.6"/>
    </g>
    <g clip-path="url(#p04ab18f32a)">
     <use xlink:href="#C0_0_ff480eed3c" x="32.07417" y="66.377284" style="fill: #ff603d; fill-opacity: 0.6"/>
    </g>
    <g clip-path="url(#p04ab18f32a)">
     <use xlink:href="#C0_0_ff480eed3c" x="67.700639" y="48.947356" style="fill: #910040; fill-opacity: 0.6"/>
    </g>
    <g clip-path="url(#p04ab18f32a)">
     <use xlink:href="#C0_0_ff480eed3c" x="56.584865" y="64.790302" style="fill: #ff603d; fill-opacity: 0.6"/>
    </g>
    <g clip-path="url(#p04ab18f32a)">
     <use xlink:href="#C0_0_ff480eed3c" x="60.882484" y="70.33235" style="fill: #ff603d; fill-opacity: 0.6"/>
    </g>
    <g clip-path="url(#p04ab18f32a)">
     <use xlink:href="#C0_0_ff480eed3c" x="78.505337" y="69.288619" style="fill: #ff603d; fill-opacity: 0.6"/>
    </g>
    <g clip-path="url(#p04ab18f32a)">
     <use xlink:href="#C0_0_ff480eed3c" x="65.980819" y="56.94003" style="fill: #910040; fill-opacity: 0.6"/>
    </g>
    <g clip-path="url(#p04ab18f32a)">
     <use xlink:href="#C0_0_ff480eed3c" x="48.68018" y="56.660028" style="fill: #910040; fill-opacity: 0.6"/>
    </g>
    <g clip-path="url(#p04ab18f32a)">
     <use xlink:href="#C0_0_ff480eed3c" x="54.855708" y="58.953137" style="fill: #ff603d; fill-opacity: 0.6"/>
    </g>
    <g clip-path="url(#p04ab18f32a)">
     <use xlink:href="#C0_0_ff480eed3c" x="62.826457" y="50.868956" style="fill: #910040; fill-opacity: 0.6"/>
    </g>
    <g clip-path="url(#p04ab18f32a)">
     <use xlink:href="#C0_0_ff480eed3c" x="60.525313" y="62.847836" style="fill: #ff603d; fill-opacity: 0.6"/>
    </g>
    <g clip-path="url(#p04ab18f32a)">
     <use xlink:href="#C0_0_ff480eed3c" x="66.37416" y="72.448646" style="fill: #ff603d; fill-opacity: 0.6"/>
    </g>
    <g clip-path="url(#p04ab18f32a)">
     <use xlink:href="#C0_0_ff480eed3c" x="70.764238" y="53.63688" style="fill: #ff603d; fill-opacity: 0.6"/>
    </g>
    <g clip-path="url(#p04ab18f32a)">
     <use xlink:href="#C0_0_ff480eed3c" x="72.483524" y="55.20988" style="fill: #ff603d; fill-opacity: 0.6"/>
    </g>
    <g clip-path="url(#p04ab18f32a)">
     <use xlink:href="#C0_0_ff480eed3c" x="62.026611" y="48.872688" style="fill: #910040; fill-opacity: 0.6"/>
    </g>
    <g clip-path="url(#p04ab18f32a)">
     <use xlink:href="#C0_0_ff480eed3c" x="52.467049" y="51.644425" style="fill: #ff603d; fill-opacity: 0.6"/>
    </g>
    <g clip-path="url(#p04ab18f32a)">
     <use xlink:href="#C0_0_ff480eed3c" x="56.738097" y="59.662729" style="fill: #910040; fill-opacity: 0.6"/>
    </g>
    <g clip-path="url(#p04ab18f32a)">
     <use xlink:href="#C0_0_ff480eed3c" x="66.067561" y="54.495449" style="fill: #ff603d; fill-opacity: 0.6"/>
    </g>
    <g clip-path="url(#p04ab18f32a)">
     <use xlink:href="#C0_0_ff480eed3c" x="78.24373" y="76.241323" style="fill: #ff603d; fill-opacity: 0.6"/>
    </g>
    <g clip-path="url(#p04ab18f32a)">
     <use xlink:href="#C0_0_ff480eed3c" x="43.80033" y="57.660053" style="fill: #ff603d; fill-opacity: 0.6"/>
    </g>
    <g clip-path="url(#p04ab18f32a)">
     <use xlink:href="#C0_0_ff480eed3c" x="66.815847" y="56.83608" style="fill: #910040; fill-opacity: 0.6"/>
    </g>
    <g clip-path="url(#p04ab18f32a)">
     <use xlink:href="#C0_0_ff480eed3c" x="84.800022" y="61.010057" style="fill: #ff603d; fill-opacity: 0.6"/>
    </g>
    <g clip-path="url(#p04ab18f32a)">
     <use xlink:href="#C0_0_ff480eed3c" x="60.444193" y="53.680002" style="fill: #910040; fill-opacity: 0.6"/>
    </g>
    <g clip-path="url(#p04ab18f32a)">
     <use xlink:href="#C0_0_ff480eed3c" x="45.853994" y="62.753467" style="fill: #ff603d; fill-opacity: 0.6"/>
    </g>
    <g clip-path="url(#p04ab18f32a)">
     <use xlink:href="#C0_0_ff480eed3c" x="38.165845" y="59.635742" style="fill: #ff603d; fill-opacity: 0.6"/>
    </g>
    <g clip-path="url(#p04ab18f32a)">
     <use xlink:href="#C0_0_ff480eed3c" x="56.669372" y="58.471229" style="fill: #ff603d; fill-opacity: 0.6"/>
    </g>
    <g clip-path="url(#p04ab18f32a)">
     <use xlink:href="#C0_0_ff480eed3c" x="46.08133" y="60.559384" style="fill: #910040; fill-opacity: 0.6"/>
    </g>
    <g clip-path="url(#p04ab18f32a)">
     <use xlink:href="#C0_0_ff480eed3c" x="59.013443" y="47.993482" style="fill: #910040; fill-opacity: 0.6"/>
    </g>
    <g clip-path="url(#p04ab18f32a)">
     <use xlink:href="#C0_0_ff480eed3c" x="63.192062" y="59.13342" style="fill: #ff603d; fill-opacity: 0.6"/>
    </g>
    <g clip-path="url(#p04ab18f32a)">
     <use xlink:href="#C0_0_ff480eed3c" x="51.421532" y="66.587372" style="fill: #ff603d; fill-opacity: 0.6"/>
    </g>
    <g clip-path="url(#p04ab18f32a)">
     <use xlink:href="#C0_0_ff480eed3c" x="74.177154" y="54.103089" style="fill: #ff603d; fill-opacity: 0.6"/>
    </g>
    <g clip-path="url(#p04ab18f32a)">
     <use xlink:href="#C0_0_ff480eed3c" x="67.634494" y="54.524535" style="fill: #ff603d; fill-opacity: 0.6"/>
    </g>
    <g clip-path="url(#p04ab18f32a)">
     <use xlink:href="#C0_0_ff480eed3c" x="73.594284" y="81.952656" style="fill: #ff603d; fill-opacity: 0.6"/>
    </g>
    <g clip-path="url(#p04ab18f32a)">
     <use xlink:href="#C0_0_ff480eed3c" x="67.978693" y="46.205088" style="fill: #910040; fill-opacity: 0.6"/>
    </g>
    <g clip-path="url(#p04ab18f32a)">
     <use xlink:href="#C0_0_ff480eed3c" x="53.283855" y="55.322614" style="fill: #ff603d; fill-opacity: 0.6"/>
    </g>
    <g clip-path="url(#p04ab18f32a)">
     <use xlink:href="#C0_0_ff480eed3c" x="86.021312" y="57.186562" style="fill: #ff603d; fill-opacity: 0.6"/>
    </g>
    <g clip-path="url(#p04ab18f32a)">
     <use xlink:href="#C0_0_ff480eed3c" x="56.570575" y="56.532493" style="fill: #ff603d; fill-opacity: 0.6"/>
    </g>
    <g clip-path="url(#p04ab18f32a)">
     <use xlink:href="#C0_0_ff480eed3c" x="77.543274" y="66.896759" style="fill: #ff603d; fill-opacity: 0.6"/>
    </g>
    <g clip-path="url(#p04ab18f32a)">
     <use xlink:href="#C0_0_ff480eed3c" x="55.116441" y="50.360112" style="fill: #910040; fill-opacity: 0.6"/>
    </g>
    <g clip-path="url(#p04ab18f32a)">
     <use xlink:href="#C0_0_ff480eed3c" x="59.976769" y="60.144953" style="fill: #910040; fill-opacity: 0.6"/>
    </g>
    <g clip-path="url(#p04ab18f32a)">
     <use xlink:href="#C0_0_ff480eed3c" x="48.712516" y="71.042237" style="fill: #ff603d; fill-opacity: 0.6"/>
    </g>
    <g clip-path="url(#p04ab18f32a)">
     <use xlink:href="#C0_0_ff480eed3c" x="65.718824" y="58.062144" style="fill: #910040; fill-opacity: 0.6"/>
    </g>
    <g clip-path="url(#p04ab18f32a)">
     <use xlink:href="#C0_0_ff480eed3c" x="79.855553" y="65.571406" style="fill: #910040; fill-opacity: 0.6"/>
    </g>
    <g clip-path="url(#p04ab18f32a)">
     <use xlink:href="#C0_0_ff480eed3c" x="50.263235" y="63.222958" style="fill: #910040; fill-opacity: 0.6"/>
    </g>
    <g clip-path="url(#p04ab18f32a)">
     <use xlink:href="#C0_0_ff480eed3c" x="53.039067" y="55.097266" style="fill: #ff603d; fill-opacity: 0.6"/>
    </g>
    <g clip-path="url(#p04ab18f32a)">
     <use xlink:href="#C0_0_ff480eed3c" x="63.466871" y="64.705472" style="fill: #ff603d; fill-opacity: 0.6"/>
    </g>
    <g clip-path="url(#p04ab18f32a)">
     <use xlink:href="#C0_0_ff480eed3c" x="54.024701" y="64.001967" style="fill: #ff603d; fill-opacity: 0.6"/>
    </g>
    <g clip-path="url(#p04ab18f32a)">
     <use xlink:href="#C0_0_ff480eed3c" x="59.001489" y="63.316803" style="fill: #910040; fill-opacity: 0.6"/>
    </g>
    <g clip-path="url(#p04ab18f32a)">
     <use xlink:href="#C0_0_ff480eed3c" x="49.534757" y="71.409584" style="fill: #910040; fill-opacity: 0.6"/>
    </g>
    <g clip-path="url(#p04ab18f32a)">
     <use xlink:href="#C0_0_ff480eed3c" x="52.079558" y="67.920812" style="fill: #ff603d; fill-opacity: 0.6"/>
    </g>
    <g clip-path="url(#p04ab18f32a)">
     <use xlink:href="#C0_0_ff480eed3c" x="42.669104" y="60.913381" style="fill: #910040; fill-opacity: 0.6"/>
    </g>
    <g clip-path="url(#p04ab18f32a)">
     <use xlink:href="#C0_0_ff480eed3c" x="66.116394" y="54.42321" style="fill: #ff603d; fill-opacity: 0.6"/>
    </g>
    <g clip-path="url(#p04ab18f32a)">
     <use xlink:href="#C0_0_ff480eed3c" x="36.565214" y="52.420209" style="fill: #910040; fill-opacity: 0.6"/>
    </g>
    <g clip-path="url(#p04ab18f32a)">
     <use xlink:href="#C0_0_ff480eed3c" x="67.009265" y="57.751078" style="fill: #910040; fill-opacity: 0.6"/>
    </g>
    <g clip-path="url(#p04ab18f32a)">
     <use xlink:href="#C0_0_ff480eed3c" x="71.906348" y="60.717165" style="fill: #910040; fill-opacity: 0.6"/>
    </g>
    <g clip-path="url(#p04ab18f32a)">
     <use xlink:href="#C0_0_ff480eed3c" x="75.029121" y="65.073767" style="fill: #910040; fill-opacity: 0.6"/>
    </g>
    <g clip-path="url(#p04ab18f32a)">
     <use xlink:href="#C0_0_ff480eed3c" x="56.61232" y="50.613167" style="fill: #910040; fill-opacity: 0.6"/>
    </g>
    <g clip-path="url(#p04ab18f32a)">
     <use xlink:href="#C0_0_ff480eed3c" x="46.04053" y="63.279732" style="fill: #ff603d; fill-opacity: 0.6"/>
    </g>
    <g clip-path="url(#p04ab18f32a)">
     <use xlink:href="#C0_0_ff480eed3c" x="72.843211" y="56.002064" style="fill: #ff603d; fill-opacity: 0.6"/>
    </g>
    <g clip-path="url(#p04ab18f32a)">
     <use xlink:href="#C0_0_ff480eed3c" x="75.502811" y="72.057895" style="fill: #910040; fill-opacity: 0.6"/>
    </g>
    <g clip-path="url(#p04ab18f32a)">
     <use xlink:href="#C0_0_ff480eed3c" x="79.693104" y="66.848163" style="fill: #ff603d; fill-opacity: 0.6"/>
    </g>
   </g>
  </g>
 </g>
 <defs>
  <clipPath id="p04ab18f32a">
   <rect x="7.2" y="7.2" width="111.6" height="111.6"/>
  </clipPath>
 </defs>
</svg>
