<?xml version="1.0" encoding="utf-8" standalone="no"?>
<!DOCTYPE svg PUBLIC "-//W3C//DTD SVG 1.1//EN"
  "http://www.w3.org/Graphics/SVG/1.1/DTD/svg11.dtd">
<svg height="150.918295pt" version="1.1" viewBox="0 0 174.842533 150.918295" width="174.842533pt" xmlns="http://www.w3.org/2000/svg" xmlns:xlink="http://www.w3.org/1999/xlink">
 <metadata>
  <rdf:RDF xmlns:cc="http://creativecommons.org/ns#" xmlns:dc="http://purl.org/dc/elements/1.1/" xmlns:rdf="http://www.w3.org/1999/02/22-rdf-syntax-ns#">
   <cc:Work>
    <dc:type rdf:resource="http://purl.org/dc/dcmitype/StillImage"/>
    <dc:date>2023-02-21T15:54:11.705718</dc:date>
    <dc:format>image/svg+xml</dc:format>
    <dc:creator>
     <cc:Agent>
      <dc:title>Matplotlib v3.4.3, https://matplotlib.org/</dc:title>
     </cc:Agent>
    </dc:creator>
   </cc:Work>
  </rdf:RDF>
 </metadata>
 <defs>
  <style type="text/css">*{stroke-linecap:butt;stroke-linejoin:round;}</style>
 </defs>
 <g id="figure_1">
  <g id="patch_1">
   <path d="M 0 150.918295 
L 174.842533 150.918295 
L 174.842533 0 
L 0 0 
z
" style="fill:#ffffff;"/>
  </g>
  <g id="patch_2">
   <path d="M 7.2 118.8 
L 118.8 118.8 
L 118.8 7.2 
L 7.2 7.2 
z
" style="fill:#ffffff;"/>
  </g>
  <g id="pane3d_1">
   <g id="patch_3">
    <path d="M 15.62657 91.283016 
L 52.480534 60.391293 
L 51.968229 15.839904 
L 13.350612 44.021282 
" style="fill:none;opacity:0;"/>
   </g>
  </g>
  <g id="pane3d_2">
   <g id="patch_4">
    <path d="M 52.480534 60.391293 
L 111.617998 77.580219 
L 113.728406 31.494309 
L 51.968229 15.839904 
" style="fill:none;opacity:0;"/>
   </g>
  </g>
  <g id="pane3d_3">
   <g id="patch_5">
    <path d="M 15.62657 91.283016 
L 78.31517 111.757113 
L 111.617998 77.580219 
L 52.480534 60.391293 
" style="fill:none;opacity:0;"/>
   </g>
  </g>
  <g id="axis3d_1">
   <g id="line2d_1">
    <path d="M 15.62657 91.283016 
L 78.31517 111.757113 
" style="fill:none;stroke:#262626;stroke-linecap:round;stroke-width:1.25;"/>
   </g>
   <g id="text_1">
    <!-- PC 1 -->
    <g style="fill:#262626;" transform="translate(15.580604 141.389545)scale(0.12 -0.12)">
     <defs>
      <path d="M 224 0 
L 224 198 
L 378 198 
Q 723 198 803 256 
Q 883 314 883 499 
L 883 3872 
Q 883 4058 803 4115 
Q 723 4173 378 4173 
L 224 4173 
L 224 4371 
L 2483 4371 
Q 3130 4371 3562 4016 
Q 3994 3661 3994 3181 
Q 3994 2707 3555 2364 
Q 3117 2022 2534 2022 
L 1453 2022 
L 1453 499 
Q 1453 314 1533 256 
Q 1613 198 1958 198 
L 2112 198 
L 2112 0 
Q 1888 19 1165 19 
Q 448 19 224 0 
z
M 1434 2189 
L 2317 2189 
Q 2605 2189 2813 2269 
Q 3021 2349 3117 2448 
Q 3213 2547 3267 2707 
Q 3322 2867 3328 2956 
Q 3334 3046 3334 3181 
Q 3334 3322 3328 3411 
Q 3322 3501 3267 3661 
Q 3213 3821 3117 3920 
Q 3021 4019 2813 4096 
Q 2605 4173 2317 4173 
L 1747 4173 
Q 1530 4173 1482 4128 
Q 1434 4083 1434 3917 
L 1434 2189 
z
" id="CMUSerif-Roman-50" transform="scale(0.015625)"/>
      <path d="M 358 2189 
Q 358 3155 1017 3833 
Q 1677 4512 2586 4512 
Q 2867 4512 3116 4409 
Q 3366 4307 3481 4217 
Q 3597 4128 3763 3962 
L 4083 4435 
Q 4134 4512 4185 4512 
Q 4237 4512 4246 4483 
Q 4256 4454 4256 4358 
L 4256 2842 
Q 4256 2739 4243 2713 
Q 4230 2688 4154 2688 
Q 4090 2688 4077 2707 
Q 4064 2726 4051 2797 
Q 3955 3488 3571 3901 
Q 3187 4314 2656 4314 
Q 2502 4314 2332 4278 
Q 2163 4243 1916 4112 
Q 1670 3981 1481 3763 
Q 1293 3546 1155 3136 
Q 1018 2726 1018 2182 
Q 1018 1645 1155 1232 
Q 1293 819 1481 604 
Q 1670 390 1916 259 
Q 2163 128 2336 93 
Q 2509 58 2662 58 
Q 3213 58 3635 448 
Q 4058 838 4096 1498 
Q 4102 1530 4102 1542 
Q 4102 1555 4108 1571 
Q 4115 1587 4131 1593 
Q 4147 1600 4173 1600 
Q 4256 1600 4256 1491 
Q 4256 883 3789 371 
Q 3322 -141 2586 -141 
Q 1677 -141 1017 534 
Q 358 1210 358 2189 
z
" id="CMUSerif-Roman-43" transform="scale(0.015625)"/>
      <path id="CMUSerif-Roman-20" transform="scale(0.015625)"/>
      <path d="M 570 3654 
L 570 3853 
Q 1338 3853 1734 4262 
Q 1843 4262 1862 4236 
Q 1882 4211 1882 4096 
L 1882 506 
Q 1882 314 1974 256 
Q 2067 198 2477 198 
L 2682 198 
L 2682 0 
Q 2458 19 1645 19 
Q 832 19 608 0 
L 608 198 
L 813 198 
Q 1216 198 1312 256 
Q 1408 314 1408 506 
L 1408 3821 
Q 1075 3654 570 3654 
z
" id="CMUSerif-Roman-31" transform="scale(0.015625)"/>
     </defs>
     <use xlink:href="#CMUSerif-Roman-50"/>
     <use x="67.999985" xlink:href="#CMUSerif-Roman-43"/>
     <use x="140.199966" xlink:href="#CMUSerif-Roman-20"/>
     <use x="173.499954" xlink:href="#CMUSerif-Roman-31"/>
    </g>
   </g>
   <g id="Line3DCollection_1">
    <path d="M 35.664984 97.827563 
L 71.440654 65.902251 
L 71.740831 20.851682 
" style="fill:none;"/>
    <path d="M 65.196815 107.472659 
L 99.285911 73.995768 
L 100.827865 28.224398 
" style="fill:none;"/>
   </g>
   <g id="xtick_1">
    <g id="line2d_2">
     <path d="M 35.97687 97.549243 
L 35.039854 98.385413 
" style="fill:none;stroke:#262626;stroke-linecap:round;stroke-width:1.25;"/>
    </g>
    <g id="text_2">
     <!-- 0 -->
     <g style="fill:#262626;" transform="translate(25.386944 121.525005)scale(0.11 -0.11)">
      <defs>
       <path d="M 250 2048 
Q 250 2989 486 3501 
Q 819 4262 1600 4262 
Q 1766 4262 1939 4217 
Q 2112 4173 2333 4000 
Q 2554 3827 2688 3546 
Q 2944 3002 2944 2048 
Q 2944 1114 2707 602 
Q 2362 -141 1594 -141 
Q 1306 -141 1014 6 
Q 723 154 538 506 
Q 250 1037 250 2048 
z
M 781 2125 
Q 781 1158 851 774 
Q 928 358 1142 179 
Q 1357 0 1594 0 
Q 1850 0 2064 192 
Q 2278 384 2342 800 
Q 2413 1210 2413 2125 
Q 2413 3014 2349 3373 
Q 2266 3789 2042 3955 
Q 1818 4122 1594 4122 
Q 1510 4122 1420 4096 
Q 1331 4070 1203 4000 
Q 1075 3930 976 3750 
Q 877 3571 832 3302 
Q 781 2957 781 2125 
z
" id="CMUSerif-Roman-30" transform="scale(0.015625)"/>
      </defs>
      <use xlink:href="#CMUSerif-Roman-30"/>
     </g>
    </g>
   </g>
   <g id="xtick_2">
    <g id="line2d_3">
     <path d="M 65.494612 107.18021 
L 64.599894 108.05886 
" style="fill:none;stroke:#262626;stroke-linecap:round;stroke-width:1.25;"/>
    </g>
    <g id="text_3">
     <!-- 10 -->
     <g style="fill:#262626;" transform="translate(52.251833 131.665992)scale(0.11 -0.11)">
      <use xlink:href="#CMUSerif-Roman-31"/>
      <use x="49.999985" xlink:href="#CMUSerif-Roman-30"/>
     </g>
    </g>
   </g>
  </g>
  <g id="axis3d_2">
   <g id="line2d_4">
    <path d="M 111.617998 77.580219 
L 78.31517 111.757113 
" style="fill:none;stroke:#262626;stroke-linecap:round;stroke-width:1.25;"/>
   </g>
   <g id="text_4">
    <!-- PC 3 -->
    <g style="fill:#262626;" transform="translate(110.402579 126.089971)scale(0.12 -0.12)">
     <defs>
      <path d="M 269 864 
Q 269 1056 377 1145 
Q 486 1235 627 1235 
Q 774 1235 880 1139 
Q 986 1043 986 877 
Q 986 698 861 598 
Q 736 499 563 525 
Q 717 269 998 153 
Q 1280 38 1542 38 
Q 1818 38 2042 275 
Q 2266 512 2266 1094 
Q 2266 1587 2074 1872 
Q 1882 2157 1504 2157 
L 1222 2157 
Q 1126 2157 1097 2166 
Q 1069 2176 1069 2227 
Q 1069 2291 1165 2304 
Q 1261 2304 1414 2323 
Q 1786 2336 1984 2656 
Q 2163 2957 2163 3386 
Q 2163 3776 1977 3939 
Q 1792 4102 1549 4102 
Q 1325 4102 1078 4009 
Q 832 3917 698 3706 
Q 1094 3706 1094 3386 
Q 1094 3245 1004 3152 
Q 915 3059 768 3059 
Q 627 3059 534 3148 
Q 442 3238 442 3392 
Q 442 3757 768 4009 
Q 1094 4262 1574 4262 
Q 2048 4262 2400 4012 
Q 2752 3763 2752 3379 
Q 2752 3002 2502 2691 
Q 2253 2381 1856 2253 
Q 2342 2157 2633 1827 
Q 2925 1498 2925 1094 
Q 2925 595 2531 227 
Q 2138 -141 1562 -141 
Q 1030 -141 649 147 
Q 269 435 269 864 
z
" id="CMUSerif-Roman-33" transform="scale(0.015625)"/>
     </defs>
     <use xlink:href="#CMUSerif-Roman-50"/>
     <use x="67.999985" xlink:href="#CMUSerif-Roman-43"/>
     <use x="140.199966" xlink:href="#CMUSerif-Roman-20"/>
     <use x="173.499954" xlink:href="#CMUSerif-Roman-33"/>
    </g>
   </g>
   <g id="Line3DCollection_2">
    <path d="M 24.33066 36.008543 
L 26.076711 82.523501 
L 87.788265 102.035386 
" style="fill:none;"/>
    <path d="M 37.095762 26.693153 
L 38.254135 72.316143 
L 98.797242 90.737468 
" style="fill:none;"/>
    <path d="M 49.144774 17.900333 
L 49.776527 62.657845 
L 109.184518 80.077567 
" style="fill:none;"/>
   </g>
   <g id="xtick_3">
    <g id="line2d_5">
     <path d="M 87.268709 101.871114 
L 88.828696 102.364349 
" style="fill:none;stroke:#262626;stroke-linecap:round;stroke-width:1.25;"/>
    </g>
    <g id="text_5">
     <!-- 0 -->
     <g style="fill:#262626;" transform="translate(97.699918 122.844365)scale(0.11 -0.11)">
      <use xlink:href="#CMUSerif-Roman-30"/>
     </g>
    </g>
   </g>
   <g id="xtick_4">
    <g id="line2d_6">
     <path d="M 98.28826 90.582602 
L 99.81646 91.047584 
" style="fill:none;stroke:#262626;stroke-linecap:round;stroke-width:1.25;"/>
    </g>
    <g id="text_6">
     <!-- 5 -->
     <g style="fill:#262626;" transform="translate(108.35548 111.147744)scale(0.11 -0.11)">
      <defs>
       <path d="M 320 1030 
Q 320 1222 422 1296 
Q 525 1370 634 1370 
Q 781 1370 867 1277 
Q 954 1184 954 1056 
Q 954 928 867 835 
Q 781 742 634 742 
Q 563 742 525 755 
Q 608 461 867 249 
Q 1126 38 1466 38 
Q 1894 38 2150 454 
Q 2304 723 2304 1331 
Q 2304 1869 2189 2138 
Q 2010 2547 1645 2547 
Q 1126 2547 819 2099 
Q 781 2042 736 2042 
Q 672 2042 659 2077 
Q 646 2112 646 2208 
L 646 4102 
Q 646 4256 710 4256 
Q 736 4256 787 4237 
Q 1190 4058 1638 4058 
Q 2099 4058 2509 4243 
Q 2541 4262 2560 4262 
Q 2624 4262 2624 4192 
Q 2624 4166 2573 4092 
Q 2522 4019 2413 3923 
Q 2304 3827 2163 3737 
Q 2022 3648 1817 3587 
Q 1613 3526 1389 3526 
Q 1120 3526 845 3610 
L 845 2362 
Q 1178 2688 1658 2688 
Q 2170 2688 2522 2275 
Q 2874 1862 2874 1286 
Q 2874 685 2458 272 
Q 2042 -141 1478 -141 
Q 966 -141 643 224 
Q 320 589 320 1030 
z
" id="CMUSerif-Roman-35" transform="scale(0.015625)"/>
      </defs>
      <use xlink:href="#CMUSerif-Roman-35"/>
     </g>
    </g>
   </g>
   <g id="xtick_5">
    <g id="line2d_7">
     <path d="M 108.685762 79.931321 
L 110.183226 80.37041 
" style="fill:none;stroke:#262626;stroke-linecap:round;stroke-width:1.25;"/>
    </g>
    <g id="text_7">
     <!-- 10 -->
     <g style="fill:#262626;" transform="translate(115.658504 100.11253)scale(0.11 -0.11)">
      <use xlink:href="#CMUSerif-Roman-31"/>
      <use x="49.999985" xlink:href="#CMUSerif-Roman-30"/>
     </g>
    </g>
   </g>
  </g>
  <g id="axis3d_3">
   <g id="line2d_8">
    <path d="M 111.617998 77.580219 
L 113.728406 31.494309 
" style="fill:none;stroke:#262626;stroke-linecap:round;stroke-width:1.25;"/>
   </g>
   <g id="text_8">
    <!-- PC 2 -->
    <g style="fill:#262626;" transform="translate(140.822533 52.471098)scale(0.12 -0.12)">
     <defs>
      <path d="M 320 0 
Q 320 115 329 150 
Q 339 186 390 237 
L 1619 1606 
Q 2291 2362 2291 3021 
Q 2291 3450 2067 3757 
Q 1843 4064 1434 4064 
Q 1152 4064 915 3891 
Q 678 3718 570 3411 
Q 589 3418 653 3418 
Q 813 3418 902 3318 
Q 992 3219 992 3085 
Q 992 2912 880 2829 
Q 768 2746 659 2746 
Q 614 2746 556 2755 
Q 499 2765 409 2854 
Q 320 2944 320 3104 
Q 320 3552 659 3907 
Q 998 4262 1517 4262 
Q 2106 4262 2490 3913 
Q 2874 3565 2874 3021 
Q 2874 2829 2816 2656 
Q 2758 2483 2681 2348 
Q 2605 2214 2400 2000 
Q 2195 1786 2028 1632 
Q 1862 1478 1491 1152 
L 813 493 
L 1965 493 
Q 2528 493 2573 544 
Q 2637 634 2714 1114 
L 2874 1114 
L 2694 0 
L 320 0 
z
" id="CMUSerif-Roman-32" transform="scale(0.015625)"/>
     </defs>
     <use xlink:href="#CMUSerif-Roman-50"/>
     <use x="67.999985" xlink:href="#CMUSerif-Roman-43"/>
     <use x="140.199966" xlink:href="#CMUSerif-Roman-20"/>
     <use x="173.499954" xlink:href="#CMUSerif-Roman-32"/>
    </g>
   </g>
   <g id="Line3DCollection_3">
    <path d="M 112.284693 63.021303 
L 52.318459 46.296812 
L 14.908405 76.369864 
" style="fill:none;"/>
    <path d="M 113.538241 35.647028 
L 52.014303 19.846646 
L 13.556009 48.28649 
" style="fill:none;"/>
   </g>
   <g id="xtick_6">
    <g id="line2d_9">
     <path d="M 111.781078 62.880845 
L 113.293138 63.302557 
" style="fill:none;stroke:#262626;stroke-linecap:round;stroke-width:1.25;"/>
    </g>
    <g id="text_9">
     <!-- 0 -->
     <g style="fill:#262626;" transform="translate(127.958409 68.130426)scale(0.11 -0.11)">
      <use xlink:href="#CMUSerif-Roman-30"/>
     </g>
    </g>
   </g>
   <g id="xtick_7">
    <g id="line2d_10">
     <path d="M 113.020901 35.514166 
L 114.574201 35.91308 
" style="fill:none;stroke:#262626;stroke-linecap:round;stroke-width:1.25;"/>
    </g>
    <g id="text_10">
     <!-- 10 -->
     <g style="fill:#262626;" transform="translate(126.932486 40.89316)scale(0.11 -0.11)">
      <use xlink:href="#CMUSerif-Roman-31"/>
      <use x="49.999985" xlink:href="#CMUSerif-Roman-30"/>
     </g>
    </g>
   </g>
  </g>
  <g id="axes_1">
   <g id="Path3DCollection_1">
    <defs>
     <path d="M 0 1.936492 
C 0.513564 1.936492 1.006162 1.732451 1.369306 1.369306 
C 1.732451 1.006162 1.936492 0.513564 1.936492 -0 
C 1.936492 -0.513564 1.732451 -1.006162 1.369306 -1.369306 
C 1.006162 -1.732451 0.513564 -1.936492 0 -1.936492 
C -0.513564 -1.936492 -1.006162 -1.732451 -1.369306 -1.369306 
C -1.732451 -1.006162 -1.936492 -0.513564 -1.936492 0 
C -1.936492 0.513564 -1.732451 1.006162 -1.369306 1.369306 
C -1.006162 1.732451 -0.513564 1.936492 0 1.936492 
z
" id="C0_0_effee7081a"/>
    </defs>
    <g clip-path="url(#pefb8ac4646)">
     <use style="fill:#ff603d;fill-opacity:0.6;" x="85.024724" xlink:href="#C0_0_effee7081a" y="63.158782"/>
    </g>
    <g clip-path="url(#pefb8ac4646)">
     <use style="fill:#ff603d;fill-opacity:0.6;" x="56.864476" xlink:href="#C0_0_effee7081a" y="60.333764"/>
    </g>
    <g clip-path="url(#pefb8ac4646)">
     <use style="fill:#910040;fill-opacity:0.6;" x="47.567975" xlink:href="#C0_0_effee7081a" y="63.328847"/>
    </g>
    <g clip-path="url(#pefb8ac4646)">
     <use style="fill:#ff603d;fill-opacity:0.6;" x="48.019614" xlink:href="#C0_0_effee7081a" y="74.717017"/>
    </g>
    <g clip-path="url(#pefb8ac4646)">
     <use style="fill:#910040;fill-opacity:0.6;" x="44.69353" xlink:href="#C0_0_effee7081a" y="79.118"/>
    </g>
    <g clip-path="url(#pefb8ac4646)">
     <use style="fill:#3880d9;fill-opacity:0.6;" x="50.394132" xlink:href="#C0_0_effee7081a" y="69.712857"/>
    </g>
    <g clip-path="url(#pefb8ac4646)">
     <use style="fill:#ff603d;fill-opacity:0.6;" x="51.295801" xlink:href="#C0_0_effee7081a" y="70.031114"/>
    </g>
    <g clip-path="url(#pefb8ac4646)">
     <use style="fill:#ff603d;fill-opacity:0.6;" x="76.381114" xlink:href="#C0_0_effee7081a" y="61.35969"/>
    </g>
    <g clip-path="url(#pefb8ac4646)">
     <use style="fill:#ff603d;fill-opacity:0.6;" x="55.311665" xlink:href="#C0_0_effee7081a" y="73.856287"/>
    </g>
    <g clip-path="url(#pefb8ac4646)">
     <use style="fill:#3880d9;fill-opacity:0.6;" x="35.520775" xlink:href="#C0_0_effee7081a" y="70.604849"/>
    </g>
    <g clip-path="url(#pefb8ac4646)">
     <use style="fill:#ff603d;fill-opacity:0.6;" x="45.247238" xlink:href="#C0_0_effee7081a" y="76.827103"/>
    </g>
    <g clip-path="url(#pefb8ac4646)">
     <use style="fill:#3880d9;fill-opacity:0.6;" x="33.158631" xlink:href="#C0_0_effee7081a" y="65.774358"/>
    </g>
    <g clip-path="url(#pefb8ac4646)">
     <use style="fill:#3880d9;fill-opacity:0.6;" x="39.739176" xlink:href="#C0_0_effee7081a" y="70.442424"/>
    </g>
    <g clip-path="url(#pefb8ac4646)">
     <use style="fill:#ff603d;fill-opacity:0.6;" x="56.128607" xlink:href="#C0_0_effee7081a" y="67.139814"/>
    </g>
    <g clip-path="url(#pefb8ac4646)">
     <use style="fill:#3880d9;fill-opacity:0.6;" x="48.530041" xlink:href="#C0_0_effee7081a" y="74.138821"/>
    </g>
    <g clip-path="url(#pefb8ac4646)">
     <use style="fill:#ff603d;fill-opacity:0.6;" x="41.993504" xlink:href="#C0_0_effee7081a" y="63.172332"/>
    </g>
    <g clip-path="url(#pefb8ac4646)">
     <use style="fill:#3880d9;fill-opacity:0.6;" x="35.219266" xlink:href="#C0_0_effee7081a" y="69.906915"/>
    </g>
    <g clip-path="url(#pefb8ac4646)">
     <use style="fill:#ff603d;fill-opacity:0.6;" x="46.610976" xlink:href="#C0_0_effee7081a" y="79.786397"/>
    </g>
    <g clip-path="url(#pefb8ac4646)">
     <use style="fill:#ff603d;fill-opacity:0.6;" x="51.411097" xlink:href="#C0_0_effee7081a" y="65.531227"/>
    </g>
    <g clip-path="url(#pefb8ac4646)">
     <use style="fill:#3880d9;fill-opacity:0.6;" x="36.689793" xlink:href="#C0_0_effee7081a" y="65.892086"/>
    </g>
    <g clip-path="url(#pefb8ac4646)">
     <use style="fill:#ff603d;fill-opacity:0.6;" x="37.786522" xlink:href="#C0_0_effee7081a" y="68.924175"/>
    </g>
    <g clip-path="url(#pefb8ac4646)">
     <use style="fill:#910040;fill-opacity:0.6;" x="48.340528" xlink:href="#C0_0_effee7081a" y="79.522314"/>
    </g>
    <g clip-path="url(#pefb8ac4646)">
     <use style="fill:#3880d9;fill-opacity:0.6;" x="34.349525" xlink:href="#C0_0_effee7081a" y="63.936578"/>
    </g>
    <g clip-path="url(#pefb8ac4646)">
     <use style="fill:#910040;fill-opacity:0.6;" x="30.346063" xlink:href="#C0_0_effee7081a" y="76.41563"/>
    </g>
    <g clip-path="url(#pefb8ac4646)">
     <use style="fill:#910040;fill-opacity:0.6;" x="43.837587" xlink:href="#C0_0_effee7081a" y="67.038732"/>
    </g>
    <g clip-path="url(#pefb8ac4646)">
     <use style="fill:#ff603d;fill-opacity:0.6;" x="43.012558" xlink:href="#C0_0_effee7081a" y="81.836901"/>
    </g>
    <g clip-path="url(#pefb8ac4646)">
     <use style="fill:#ff603d;fill-opacity:0.6;" x="38.744706" xlink:href="#C0_0_effee7081a" y="74.642587"/>
    </g>
    <g clip-path="url(#pefb8ac4646)">
     <use style="fill:#ff603d;fill-opacity:0.6;" x="50.878848" xlink:href="#C0_0_effee7081a" y="77.651386"/>
    </g>
    <g clip-path="url(#pefb8ac4646)">
     <use style="fill:#3880d9;fill-opacity:0.6;" x="45.136638" xlink:href="#C0_0_effee7081a" y="76.584773"/>
    </g>
    <g clip-path="url(#pefb8ac4646)">
     <use style="fill:#3880d9;fill-opacity:0.6;" x="28.524116" xlink:href="#C0_0_effee7081a" y="68.678537"/>
    </g>
    <g clip-path="url(#pefb8ac4646)">
     <use style="fill:#3880d9;fill-opacity:0.6;" x="45.540824" xlink:href="#C0_0_effee7081a" y="78.16248"/>
    </g>
    <g clip-path="url(#pefb8ac4646)">
     <use style="fill:#3880d9;fill-opacity:0.6;" x="38.30006" xlink:href="#C0_0_effee7081a" y="76.055957"/>
    </g>
    <g clip-path="url(#pefb8ac4646)">
     <use style="fill:#3880d9;fill-opacity:0.6;" x="33.933811" xlink:href="#C0_0_effee7081a" y="59.797335"/>
    </g>
    <g clip-path="url(#pefb8ac4646)">
     <use style="fill:#ff603d;fill-opacity:0.6;" x="36.370298" xlink:href="#C0_0_effee7081a" y="74.440928"/>
    </g>
    <g clip-path="url(#pefb8ac4646)">
     <use style="fill:#3880d9;fill-opacity:0.6;" x="32.227361" xlink:href="#C0_0_effee7081a" y="57.66704"/>
    </g>
    <g clip-path="url(#pefb8ac4646)">
     <use style="fill:#ff603d;fill-opacity:0.6;" x="48.824546" xlink:href="#C0_0_effee7081a" y="86.820433"/>
    </g>
    <g clip-path="url(#pefb8ac4646)">
     <use style="fill:#3880d9;fill-opacity:0.6;" x="41.080819" xlink:href="#C0_0_effee7081a" y="76.044199"/>
    </g>
    <g clip-path="url(#pefb8ac4646)">
     <use style="fill:#3880d9;fill-opacity:0.6;" x="33.099273" xlink:href="#C0_0_effee7081a" y="68.293222"/>
    </g>
    <g clip-path="url(#pefb8ac4646)">
     <use style="fill:#3880d9;fill-opacity:0.6;" x="29.614365" xlink:href="#C0_0_effee7081a" y="69.854577"/>
    </g>
    <g clip-path="url(#pefb8ac4646)">
     <use style="fill:#910040;fill-opacity:0.6;" x="38.263371" xlink:href="#C0_0_effee7081a" y="81.344271"/>
    </g>
    <g clip-path="url(#pefb8ac4646)">
     <use style="fill:#ff603d;fill-opacity:0.6;" x="44.574164" xlink:href="#C0_0_effee7081a" y="74.907118"/>
    </g>
    <g clip-path="url(#pefb8ac4646)">
     <use style="fill:#3880d9;fill-opacity:0.6;" x="41.736121" xlink:href="#C0_0_effee7081a" y="80.195387"/>
    </g>
    <g clip-path="url(#pefb8ac4646)">
     <use style="fill:#3880d9;fill-opacity:0.6;" x="38.562608" xlink:href="#C0_0_effee7081a" y="72.105499"/>
    </g>
    <g clip-path="url(#pefb8ac4646)">
     <use style="fill:#ff603d;fill-opacity:0.6;" x="49.545423" xlink:href="#C0_0_effee7081a" y="54.325807"/>
    </g>
    <g clip-path="url(#pefb8ac4646)">
     <use style="fill:#ff603d;fill-opacity:0.6;" x="61.380379" xlink:href="#C0_0_effee7081a" y="82.032099"/>
    </g>
    <g clip-path="url(#pefb8ac4646)">
     <use style="fill:#3880d9;fill-opacity:0.6;" x="34.079741" xlink:href="#C0_0_effee7081a" y="71.664901"/>
    </g>
    <g clip-path="url(#pefb8ac4646)">
     <use style="fill:#910040;fill-opacity:0.6;" x="39.106933" xlink:href="#C0_0_effee7081a" y="67.419685"/>
    </g>
    <g clip-path="url(#pefb8ac4646)">
     <use style="fill:#910040;fill-opacity:0.6;" x="40.431381" xlink:href="#C0_0_effee7081a" y="74.836166"/>
    </g>
    <g clip-path="url(#pefb8ac4646)">
     <use style="fill:#ff603d;fill-opacity:0.6;" x="36.971269" xlink:href="#C0_0_effee7081a" y="74.950384"/>
    </g>
    <g clip-path="url(#pefb8ac4646)">
     <use style="fill:#3880d9;fill-opacity:0.6;" x="38.542487" xlink:href="#C0_0_effee7081a" y="82.024701"/>
    </g>
    <g clip-path="url(#pefb8ac4646)">
     <use style="fill:#ff603d;fill-opacity:0.6;" x="38.7502" xlink:href="#C0_0_effee7081a" y="61.367947"/>
    </g>
    <g clip-path="url(#pefb8ac4646)">
     <use style="fill:#ff603d;fill-opacity:0.6;" x="40.778158" xlink:href="#C0_0_effee7081a" y="70.979056"/>
    </g>
    <g clip-path="url(#pefb8ac4646)">
     <use style="fill:#3880d9;fill-opacity:0.6;" x="41.413182" xlink:href="#C0_0_effee7081a" y="75.395193"/>
    </g>
    <g clip-path="url(#pefb8ac4646)">
     <use style="fill:#ff603d;fill-opacity:0.6;" x="41.368758" xlink:href="#C0_0_effee7081a" y="86.856963"/>
    </g>
    <g clip-path="url(#pefb8ac4646)">
     <use style="fill:#ff603d;fill-opacity:0.6;" x="62.997844" xlink:href="#C0_0_effee7081a" y="78.577019"/>
    </g>
    <g clip-path="url(#pefb8ac4646)">
     <use style="fill:#910040;fill-opacity:0.6;" x="38.304805" xlink:href="#C0_0_effee7081a" y="75.729985"/>
    </g>
    <g clip-path="url(#pefb8ac4646)">
     <use style="fill:#3880d9;fill-opacity:0.6;" x="39.179153" xlink:href="#C0_0_effee7081a" y="69.109343"/>
    </g>
    <g clip-path="url(#pefb8ac4646)">
     <use style="fill:#3880d9;fill-opacity:0.6;" x="37.756443" xlink:href="#C0_0_effee7081a" y="70.542931"/>
    </g>
    <g clip-path="url(#pefb8ac4646)">
     <use style="fill:#ff603d;fill-opacity:0.6;" x="53.634771" xlink:href="#C0_0_effee7081a" y="79.92289"/>
    </g>
    <g clip-path="url(#pefb8ac4646)">
     <use style="fill:#910040;fill-opacity:0.6;" x="42.375651" xlink:href="#C0_0_effee7081a" y="79.054422"/>
    </g>
    <g clip-path="url(#pefb8ac4646)">
     <use style="fill:#3880d9;fill-opacity:0.6;" x="29.768693" xlink:href="#C0_0_effee7081a" y="72.687175"/>
    </g>
    <g clip-path="url(#pefb8ac4646)">
     <use style="fill:#ff603d;fill-opacity:0.6;" x="44.606728" xlink:href="#C0_0_effee7081a" y="68.43201"/>
    </g>
    <g clip-path="url(#pefb8ac4646)">
     <use style="fill:#3880d9;fill-opacity:0.6;" x="42.137698" xlink:href="#C0_0_effee7081a" y="78.369633"/>
    </g>
    <g clip-path="url(#pefb8ac4646)">
     <use style="fill:#ff603d;fill-opacity:0.6;" x="47.897146" xlink:href="#C0_0_effee7081a" y="82.655926"/>
    </g>
    <g clip-path="url(#pefb8ac4646)">
     <use style="fill:#910040;fill-opacity:0.6;" x="47.720542" xlink:href="#C0_0_effee7081a" y="75.615336"/>
    </g>
    <g clip-path="url(#pefb8ac4646)">
     <use style="fill:#3880d9;fill-opacity:0.6;" x="33.933753" xlink:href="#C0_0_effee7081a" y="77.288635"/>
    </g>
    <g clip-path="url(#pefb8ac4646)">
     <use style="fill:#3880d9;fill-opacity:0.6;" x="33.569099" xlink:href="#C0_0_effee7081a" y="67.768124"/>
    </g>
    <g clip-path="url(#pefb8ac4646)">
     <use style="fill:#ff603d;fill-opacity:0.6;" x="46.325391" xlink:href="#C0_0_effee7081a" y="73.839825"/>
    </g>
    <g clip-path="url(#pefb8ac4646)">
     <use style="fill:#ff603d;fill-opacity:0.6;" x="38.114698" xlink:href="#C0_0_effee7081a" y="74.355222"/>
    </g>
    <g clip-path="url(#pefb8ac4646)">
     <use style="fill:#3880d9;fill-opacity:0.6;" x="34.473785" xlink:href="#C0_0_effee7081a" y="66.054077"/>
    </g>
    <g clip-path="url(#pefb8ac4646)">
     <use style="fill:#ff603d;fill-opacity:0.6;" x="41.541415" xlink:href="#C0_0_effee7081a" y="73.426857"/>
    </g>
    <g clip-path="url(#pefb8ac4646)">
     <use style="fill:#910040;fill-opacity:0.6;" x="30.584831" xlink:href="#C0_0_effee7081a" y="63.367819"/>
    </g>
    <g clip-path="url(#pefb8ac4646)">
     <use style="fill:#3880d9;fill-opacity:0.6;" x="50.773281" xlink:href="#C0_0_effee7081a" y="79.467132"/>
    </g>
    <g clip-path="url(#pefb8ac4646)">
     <use style="fill:#3880d9;fill-opacity:0.6;" x="38.470868" xlink:href="#C0_0_effee7081a" y="74.281071"/>
    </g>
    <g clip-path="url(#pefb8ac4646)">
     <use style="fill:#3880d9;fill-opacity:0.6;" x="36.050529" xlink:href="#C0_0_effee7081a" y="79.859964"/>
    </g>
    <g clip-path="url(#pefb8ac4646)">
     <use style="fill:#ff603d;fill-opacity:0.6;" x="44.15468" xlink:href="#C0_0_effee7081a" y="74.253526"/>
    </g>
    <g clip-path="url(#pefb8ac4646)">
     <use style="fill:#ff603d;fill-opacity:0.6;" x="38.081504" xlink:href="#C0_0_effee7081a" y="70.559584"/>
    </g>
    <g clip-path="url(#pefb8ac4646)">
     <use style="fill:#ff603d;fill-opacity:0.6;" x="50.862676" xlink:href="#C0_0_effee7081a" y="68.204796"/>
    </g>
    <g clip-path="url(#pefb8ac4646)">
     <use style="fill:#ff603d;fill-opacity:0.6;" x="35.127823" xlink:href="#C0_0_effee7081a" y="75.89248"/>
    </g>
    <g clip-path="url(#pefb8ac4646)">
     <use style="fill:#910040;fill-opacity:0.6;" x="48.558173" xlink:href="#C0_0_effee7081a" y="83.936377"/>
    </g>
    <g clip-path="url(#pefb8ac4646)">
     <use style="fill:#ff603d;fill-opacity:0.6;" x="42.573537" xlink:href="#C0_0_effee7081a" y="80.895126"/>
    </g>
    <g clip-path="url(#pefb8ac4646)">
     <use style="fill:#3880d9;fill-opacity:0.6;" x="36.136608" xlink:href="#C0_0_effee7081a" y="64.92783"/>
    </g>
    <g clip-path="url(#pefb8ac4646)">
     <use style="fill:#ff603d;fill-opacity:0.6;" x="31.986282" xlink:href="#C0_0_effee7081a" y="77.879365"/>
    </g>
    <g clip-path="url(#pefb8ac4646)">
     <use style="fill:#910040;fill-opacity:0.6;" x="43.460997" xlink:href="#C0_0_effee7081a" y="77.053227"/>
    </g>
    <g clip-path="url(#pefb8ac4646)">
     <use style="fill:#ff603d;fill-opacity:0.6;" x="62.186694" xlink:href="#C0_0_effee7081a" y="70.800217"/>
    </g>
    <g clip-path="url(#pefb8ac4646)">
     <use style="fill:#ff603d;fill-opacity:0.6;" x="57.11407" xlink:href="#C0_0_effee7081a" y="76.776738"/>
    </g>
    <g clip-path="url(#pefb8ac4646)">
     <use style="fill:#ff603d;fill-opacity:0.6;" x="44.346641" xlink:href="#C0_0_effee7081a" y="83.571383"/>
    </g>
    <g clip-path="url(#pefb8ac4646)">
     <use style="fill:#ff603d;fill-opacity:0.6;" x="50.727828" xlink:href="#C0_0_effee7081a" y="73.871506"/>
    </g>
    <g clip-path="url(#pefb8ac4646)">
     <use style="fill:#ff603d;fill-opacity:0.6;" x="48.273506" xlink:href="#C0_0_effee7081a" y="82.515779"/>
    </g>
    <g clip-path="url(#pefb8ac4646)">
     <use style="fill:#3880d9;fill-opacity:0.6;" x="37.228417" xlink:href="#C0_0_effee7081a" y="73.752533"/>
    </g>
    <g clip-path="url(#pefb8ac4646)">
     <use style="fill:#ff603d;fill-opacity:0.6;" x="47.625716" xlink:href="#C0_0_effee7081a" y="59.316861"/>
    </g>
    <g clip-path="url(#pefb8ac4646)">
     <use style="fill:#3880d9;fill-opacity:0.6;" x="44.24796" xlink:href="#C0_0_effee7081a" y="79.078147"/>
    </g>
    <g clip-path="url(#pefb8ac4646)">
     <use style="fill:#ff603d;fill-opacity:0.6;" x="50.222094" xlink:href="#C0_0_effee7081a" y="75.261702"/>
    </g>
    <g clip-path="url(#pefb8ac4646)">
     <use style="fill:#ff603d;fill-opacity:0.6;" x="55.058924" xlink:href="#C0_0_effee7081a" y="79.861999"/>
    </g>
    <g clip-path="url(#pefb8ac4646)">
     <use style="fill:#910040;fill-opacity:0.6;" x="37.240533" xlink:href="#C0_0_effee7081a" y="70.487429"/>
    </g>
    <g clip-path="url(#pefb8ac4646)">
     <use style="fill:#910040;fill-opacity:0.6;" x="55.973808" xlink:href="#C0_0_effee7081a" y="61.079389"/>
    </g>
    <g clip-path="url(#pefb8ac4646)">
     <use style="fill:#3880d9;fill-opacity:0.6;" x="40.217093" xlink:href="#C0_0_effee7081a" y="73.368651"/>
    </g>
    <g clip-path="url(#pefb8ac4646)">
     <use style="fill:#3880d9;fill-opacity:0.6;" x="44.003878" xlink:href="#C0_0_effee7081a" y="76.26122"/>
    </g>
    <g clip-path="url(#pefb8ac4646)">
     <use style="fill:#3880d9;fill-opacity:0.6;" x="34.657606" xlink:href="#C0_0_effee7081a" y="74.120014"/>
    </g>
    <g clip-path="url(#pefb8ac4646)">
     <use style="fill:#ff603d;fill-opacity:0.6;" x="38.928845" xlink:href="#C0_0_effee7081a" y="67.905077"/>
    </g>
    <g clip-path="url(#pefb8ac4646)">
     <use style="fill:#ff603d;fill-opacity:0.6;" x="52.142349" xlink:href="#C0_0_effee7081a" y="78.794659"/>
    </g>
    <g clip-path="url(#pefb8ac4646)">
     <use style="fill:#910040;fill-opacity:0.6;" x="38.088378" xlink:href="#C0_0_effee7081a" y="66.091061"/>
    </g>
    <g clip-path="url(#pefb8ac4646)">
     <use style="fill:#3880d9;fill-opacity:0.6;" x="37.960186" xlink:href="#C0_0_effee7081a" y="88.245337"/>
    </g>
    <g clip-path="url(#pefb8ac4646)">
     <use style="fill:#3880d9;fill-opacity:0.6;" x="31.52163" xlink:href="#C0_0_effee7081a" y="70.86725"/>
    </g>
    <g clip-path="url(#pefb8ac4646)">
     <use style="fill:#910040;fill-opacity:0.6;" x="42.702484" xlink:href="#C0_0_effee7081a" y="65.117552"/>
    </g>
    <g clip-path="url(#pefb8ac4646)">
     <use style="fill:#ff603d;fill-opacity:0.6;" x="71.526706" xlink:href="#C0_0_effee7081a" y="79.509645"/>
    </g>
    <g clip-path="url(#pefb8ac4646)">
     <use style="fill:#3880d9;fill-opacity:0.6;" x="37.822734" xlink:href="#C0_0_effee7081a" y="74.938822"/>
    </g>
    <g clip-path="url(#pefb8ac4646)">
     <use style="fill:#910040;fill-opacity:0.6;" x="41.839459" xlink:href="#C0_0_effee7081a" y="79.075036"/>
    </g>
    <g clip-path="url(#pefb8ac4646)">
     <use style="fill:#ff603d;fill-opacity:0.6;" x="45.119445" xlink:href="#C0_0_effee7081a" y="79.628476"/>
    </g>
    <g clip-path="url(#pefb8ac4646)">
     <use style="fill:#ff603d;fill-opacity:0.6;" x="58.968117" xlink:href="#C0_0_effee7081a" y="65.349668"/>
    </g>
    <g clip-path="url(#pefb8ac4646)">
     <use style="fill:#910040;fill-opacity:0.6;" x="35.35667" xlink:href="#C0_0_effee7081a" y="66.90306"/>
    </g>
    <g clip-path="url(#pefb8ac4646)">
     <use style="fill:#ff603d;fill-opacity:0.6;" x="53.656787" xlink:href="#C0_0_effee7081a" y="84.336844"/>
    </g>
    <g clip-path="url(#pefb8ac4646)">
     <use style="fill:#ff603d;fill-opacity:0.6;" x="28.431428" xlink:href="#C0_0_effee7081a" y="72.358694"/>
    </g>
    <g clip-path="url(#pefb8ac4646)">
     <use style="fill:#ff603d;fill-opacity:0.6;" x="48.354705" xlink:href="#C0_0_effee7081a" y="58.928245"/>
    </g>
    <g clip-path="url(#pefb8ac4646)">
     <use style="fill:#3880d9;fill-opacity:0.6;" x="29.635365" xlink:href="#C0_0_effee7081a" y="64.030268"/>
    </g>
    <g clip-path="url(#pefb8ac4646)">
     <use style="fill:#910040;fill-opacity:0.6;" x="41.480422" xlink:href="#C0_0_effee7081a" y="69.073388"/>
    </g>
    <g clip-path="url(#pefb8ac4646)">
     <use style="fill:#3880d9;fill-opacity:0.6;" x="28.049574" xlink:href="#C0_0_effee7081a" y="67.045726"/>
    </g>
    <g clip-path="url(#pefb8ac4646)">
     <use style="fill:#ff603d;fill-opacity:0.6;" x="45.782557" xlink:href="#C0_0_effee7081a" y="80.868907"/>
    </g>
    <g clip-path="url(#pefb8ac4646)">
     <use style="fill:#910040;fill-opacity:0.6;" x="51.495437" xlink:href="#C0_0_effee7081a" y="84.903856"/>
    </g>
    <g clip-path="url(#pefb8ac4646)">
     <use style="fill:#3880d9;fill-opacity:0.6;" x="39.300586" xlink:href="#C0_0_effee7081a" y="63.339458"/>
    </g>
    <g clip-path="url(#pefb8ac4646)">
     <use style="fill:#ff603d;fill-opacity:0.6;" x="33.969902" xlink:href="#C0_0_effee7081a" y="71.10242"/>
    </g>
    <g clip-path="url(#pefb8ac4646)">
     <use style="fill:#ff603d;fill-opacity:0.6;" x="52.329985" xlink:href="#C0_0_effee7081a" y="83.124401"/>
    </g>
    <g clip-path="url(#pefb8ac4646)">
     <use style="fill:#ff603d;fill-opacity:0.6;" x="46.546705" xlink:href="#C0_0_effee7081a" y="89.168131"/>
    </g>
    <g clip-path="url(#pefb8ac4646)">
     <use style="fill:#ff603d;fill-opacity:0.6;" x="45.683997" xlink:href="#C0_0_effee7081a" y="79.856086"/>
    </g>
    <g clip-path="url(#pefb8ac4646)">
     <use style="fill:#910040;fill-opacity:0.6;" x="34.119957" xlink:href="#C0_0_effee7081a" y="68.941834"/>
    </g>
    <g clip-path="url(#pefb8ac4646)">
     <use style="fill:#ff603d;fill-opacity:0.6;" x="40.353935" xlink:href="#C0_0_effee7081a" y="90.208629"/>
    </g>
    <g clip-path="url(#pefb8ac4646)">
     <use style="fill:#ff603d;fill-opacity:0.6;" x="64.053796" xlink:href="#C0_0_effee7081a" y="80.960542"/>
    </g>
    <g clip-path="url(#pefb8ac4646)">
     <use style="fill:#ff603d;fill-opacity:0.6;" x="57.322731" xlink:href="#C0_0_effee7081a" y="86.881508"/>
    </g>
    <g clip-path="url(#pefb8ac4646)">
     <use style="fill:#ff603d;fill-opacity:0.6;" x="43.512823" xlink:href="#C0_0_effee7081a" y="66.993667"/>
    </g>
    <g clip-path="url(#pefb8ac4646)">
     <use style="fill:#ff603d;fill-opacity:0.6;" x="52.384325" xlink:href="#C0_0_effee7081a" y="84.381138"/>
    </g>
    <g clip-path="url(#pefb8ac4646)">
     <use style="fill:#3880d9;fill-opacity:0.6;" x="44.827317" xlink:href="#C0_0_effee7081a" y="73.974868"/>
    </g>
    <g clip-path="url(#pefb8ac4646)">
     <use style="fill:#3880d9;fill-opacity:0.6;" x="34.426868" xlink:href="#C0_0_effee7081a" y="67.728183"/>
    </g>
    <g clip-path="url(#pefb8ac4646)">
     <use style="fill:#ff603d;fill-opacity:0.6;" x="60.048531" xlink:href="#C0_0_effee7081a" y="78.317211"/>
    </g>
    <g clip-path="url(#pefb8ac4646)">
     <use style="fill:#910040;fill-opacity:0.6;" x="35.643424" xlink:href="#C0_0_effee7081a" y="71.060414"/>
    </g>
    <g clip-path="url(#pefb8ac4646)">
     <use style="fill:#910040;fill-opacity:0.6;" x="41.567074" xlink:href="#C0_0_effee7081a" y="64.950447"/>
    </g>
    <g clip-path="url(#pefb8ac4646)">
     <use style="fill:#ff603d;fill-opacity:0.6;" x="47.191052" xlink:href="#C0_0_effee7081a" y="67.0209"/>
    </g>
    <g clip-path="url(#pefb8ac4646)">
     <use style="fill:#ff603d;fill-opacity:0.6;" x="64.890441" xlink:href="#C0_0_effee7081a" y="89.477537"/>
    </g>
    <g clip-path="url(#pefb8ac4646)">
     <use style="fill:#ff603d;fill-opacity:0.6;" x="52.453687" xlink:href="#C0_0_effee7081a" y="82.197121"/>
    </g>
    <g clip-path="url(#pefb8ac4646)">
     <use style="fill:#ff603d;fill-opacity:0.6;" x="48.736841" xlink:href="#C0_0_effee7081a" y="75.805187"/>
    </g>
    <g clip-path="url(#pefb8ac4646)">
     <use style="fill:#ff603d;fill-opacity:0.6;" x="54.890858" xlink:href="#C0_0_effee7081a" y="71.164399"/>
    </g>
    <g clip-path="url(#pefb8ac4646)">
     <use style="fill:#ff603d;fill-opacity:0.6;" x="46.509603" xlink:href="#C0_0_effee7081a" y="87.885171"/>
    </g>
    <g clip-path="url(#pefb8ac4646)">
     <use style="fill:#ff603d;fill-opacity:0.6;" x="49.822378" xlink:href="#C0_0_effee7081a" y="88.076549"/>
    </g>
    <g clip-path="url(#pefb8ac4646)">
     <use style="fill:#ff603d;fill-opacity:0.6;" x="52.175988" xlink:href="#C0_0_effee7081a" y="89.709653"/>
    </g>
    <g clip-path="url(#pefb8ac4646)">
     <use style="fill:#ff603d;fill-opacity:0.6;" x="64.756703" xlink:href="#C0_0_effee7081a" y="78.728884"/>
    </g>
    <g clip-path="url(#pefb8ac4646)">
     <use style="fill:#ff603d;fill-opacity:0.6;" x="51.341383" xlink:href="#C0_0_effee7081a" y="70.358495"/>
    </g>
    <g clip-path="url(#pefb8ac4646)">
     <use style="fill:#ff603d;fill-opacity:0.6;" x="40.294999" xlink:href="#C0_0_effee7081a" y="61.158752"/>
    </g>
    <g clip-path="url(#pefb8ac4646)">
     <use style="fill:#ff603d;fill-opacity:0.6;" x="49.14233" xlink:href="#C0_0_effee7081a" y="71.921457"/>
    </g>
    <g clip-path="url(#pefb8ac4646)">
     <use style="fill:#ff603d;fill-opacity:0.6;" x="65.911949" xlink:href="#C0_0_effee7081a" y="90.903808"/>
    </g>
    <g clip-path="url(#pefb8ac4646)">
     <use style="fill:#ff603d;fill-opacity:0.6;" x="71.08294" xlink:href="#C0_0_effee7081a" y="88.405128"/>
    </g>
    <g clip-path="url(#pefb8ac4646)">
     <use style="fill:#ff603d;fill-opacity:0.6;" x="62.060928" xlink:href="#C0_0_effee7081a" y="87.128548"/>
    </g>
    <g clip-path="url(#pefb8ac4646)">
     <use style="fill:#ff603d;fill-opacity:0.6;" x="64.491767" xlink:href="#C0_0_effee7081a" y="86.762034"/>
    </g>
    <g clip-path="url(#pefb8ac4646)">
     <use style="fill:#ff603d;fill-opacity:0.6;" x="66.326802" xlink:href="#C0_0_effee7081a" y="56.023295"/>
    </g>
    <g clip-path="url(#pefb8ac4646)">
     <use style="fill:#ff603d;fill-opacity:0.6;" x="69.588281" xlink:href="#C0_0_effee7081a" y="72.5594"/>
    </g>
    <g clip-path="url(#pefb8ac4646)">
     <use style="fill:#ff603d;fill-opacity:0.6;" x="78.662571" xlink:href="#C0_0_effee7081a" y="78.902496"/>
    </g>
    <g clip-path="url(#pefb8ac4646)">
     <use style="fill:#ff603d;fill-opacity:0.6;" x="80.210905" xlink:href="#C0_0_effee7081a" y="59.744389"/>
    </g>
   </g>
  </g>
 </g>
 <defs>
  <clipPath id="pefb8ac4646">
   <rect height="111.6" width="111.6" x="7.2" y="7.2"/>
  </clipPath>
 </defs>
</svg>
