<?xml version="1.0" encoding="utf-8" standalone="no"?>
<!DOCTYPE svg PUBLIC "-//W3C//DTD SVG 1.1//EN"
  "http://www.w3.org/Graphics/SVG/1.1/DTD/svg11.dtd">
<svg height="150.918295pt" version="1.1" viewBox="0 0 174.842533 150.918295" width="174.842533pt" xmlns="http://www.w3.org/2000/svg" xmlns:xlink="http://www.w3.org/1999/xlink">
 <metadata>
  <rdf:RDF xmlns:cc="http://creativecommons.org/ns#" xmlns:dc="http://purl.org/dc/elements/1.1/" xmlns:rdf="http://www.w3.org/1999/02/22-rdf-syntax-ns#">
   <cc:Work>
    <dc:type rdf:resource="http://purl.org/dc/dcmitype/StillImage"/>
    <dc:date>2023-02-21T15:54:44.942804</dc:date>
    <dc:format>image/svg+xml</dc:format>
    <dc:creator>
     <cc:Agent>
      <dc:title>Matplotlib v3.4.3, https://matplotlib.org/</dc:title>
     </cc:Agent>
    </dc:creator>
   </cc:Work>
  </rdf:RDF>
 </metadata>
 <defs>
  <style type="text/css">*{stroke-linecap:butt;stroke-linejoin:round;}</style>
 </defs>
 <g id="figure_1">
  <g id="patch_1">
   <path d="M 0 150.918295 
L 174.842533 150.918295 
L 174.842533 0 
L 0 0 
z
" style="fill:#ffffff;"/>
  </g>
  <g id="patch_2">
   <path d="M 7.2 118.8 
L 118.8 118.8 
L 118.8 7.2 
L 7.2 7.2 
z
" style="fill:#ffffff;"/>
  </g>
  <g id="pane3d_1">
   <g id="patch_3">
    <path d="M 15.62657 91.283016 
L 52.480534 60.391293 
L 51.968229 15.839904 
L 13.350612 44.021282 
" style="fill:none;opacity:0;"/>
   </g>
  </g>
  <g id="pane3d_2">
   <g id="patch_4">
    <path d="M 52.480534 60.391293 
L 111.617998 77.580219 
L 113.728406 31.494309 
L 51.968229 15.839904 
" style="fill:none;opacity:0;"/>
   </g>
  </g>
  <g id="pane3d_3">
   <g id="patch_5">
    <path d="M 15.62657 91.283016 
L 78.31517 111.757113 
L 111.617998 77.580219 
L 52.480534 60.391293 
" style="fill:none;opacity:0;"/>
   </g>
  </g>
  <g id="axis3d_1">
   <g id="line2d_1">
    <path d="M 15.62657 91.283016 
L 78.31517 111.757113 
" style="fill:none;stroke:#262626;stroke-linecap:round;stroke-width:1.25;"/>
   </g>
   <g id="text_1">
    <!-- PC 1 -->
    <g style="fill:#262626;" transform="translate(15.580604 141.389545)scale(0.12 -0.12)">
     <defs>
      <path d="M 224 0 
L 224 198 
L 378 198 
Q 723 198 803 256 
Q 883 314 883 499 
L 883 3872 
Q 883 4058 803 4115 
Q 723 4173 378 4173 
L 224 4173 
L 224 4371 
L 2483 4371 
Q 3130 4371 3562 4016 
Q 3994 3661 3994 3181 
Q 3994 2707 3555 2364 
Q 3117 2022 2534 2022 
L 1453 2022 
L 1453 499 
Q 1453 314 1533 256 
Q 1613 198 1958 198 
L 2112 198 
L 2112 0 
Q 1888 19 1165 19 
Q 448 19 224 0 
z
M 1434 2189 
L 2317 2189 
Q 2605 2189 2813 2269 
Q 3021 2349 3117 2448 
Q 3213 2547 3267 2707 
Q 3322 2867 3328 2956 
Q 3334 3046 3334 3181 
Q 3334 3322 3328 3411 
Q 3322 3501 3267 3661 
Q 3213 3821 3117 3920 
Q 3021 4019 2813 4096 
Q 2605 4173 2317 4173 
L 1747 4173 
Q 1530 4173 1482 4128 
Q 1434 4083 1434 3917 
L 1434 2189 
z
" id="CMUSerif-Roman-50" transform="scale(0.015625)"/>
      <path d="M 358 2189 
Q 358 3155 1017 3833 
Q 1677 4512 2586 4512 
Q 2867 4512 3116 4409 
Q 3366 4307 3481 4217 
Q 3597 4128 3763 3962 
L 4083 4435 
Q 4134 4512 4185 4512 
Q 4237 4512 4246 4483 
Q 4256 4454 4256 4358 
L 4256 2842 
Q 4256 2739 4243 2713 
Q 4230 2688 4154 2688 
Q 4090 2688 4077 2707 
Q 4064 2726 4051 2797 
Q 3955 3488 3571 3901 
Q 3187 4314 2656 4314 
Q 2502 4314 2332 4278 
Q 2163 4243 1916 4112 
Q 1670 3981 1481 3763 
Q 1293 3546 1155 3136 
Q 1018 2726 1018 2182 
Q 1018 1645 1155 1232 
Q 1293 819 1481 604 
Q 1670 390 1916 259 
Q 2163 128 2336 93 
Q 2509 58 2662 58 
Q 3213 58 3635 448 
Q 4058 838 4096 1498 
Q 4102 1530 4102 1542 
Q 4102 1555 4108 1571 
Q 4115 1587 4131 1593 
Q 4147 1600 4173 1600 
Q 4256 1600 4256 1491 
Q 4256 883 3789 371 
Q 3322 -141 2586 -141 
Q 1677 -141 1017 534 
Q 358 1210 358 2189 
z
" id="CMUSerif-Roman-43" transform="scale(0.015625)"/>
      <path id="CMUSerif-Roman-20" transform="scale(0.015625)"/>
      <path d="M 570 3654 
L 570 3853 
Q 1338 3853 1734 4262 
Q 1843 4262 1862 4236 
Q 1882 4211 1882 4096 
L 1882 506 
Q 1882 314 1974 256 
Q 2067 198 2477 198 
L 2682 198 
L 2682 0 
Q 2458 19 1645 19 
Q 832 19 608 0 
L 608 198 
L 813 198 
Q 1216 198 1312 256 
Q 1408 314 1408 506 
L 1408 3821 
Q 1075 3654 570 3654 
z
" id="CMUSerif-Roman-31" transform="scale(0.015625)"/>
     </defs>
     <use xlink:href="#CMUSerif-Roman-50"/>
     <use x="67.999985" xlink:href="#CMUSerif-Roman-43"/>
     <use x="140.199966" xlink:href="#CMUSerif-Roman-20"/>
     <use x="173.499954" xlink:href="#CMUSerif-Roman-31"/>
    </g>
   </g>
   <g id="Line3DCollection_1">
    <path d="M 35.518941 97.779865 
L 71.302664 65.862143 
L 71.596831 20.815183 
" style="fill:none;"/>
    <path d="M 63.9056 107.050948 
L 98.070855 73.642599 
L 99.557416 27.902376 
" style="fill:none;"/>
   </g>
   <g id="xtick_1">
    <g id="line2d_2">
     <path d="M 35.830895 97.501614 
L 34.893677 98.337577 
" style="fill:none;stroke:#262626;stroke-linecap:round;stroke-width:1.25;"/>
    </g>
    <g id="text_2">
     <!-- 0 -->
     <g style="fill:#262626;" transform="translate(25.240524 121.474866)scale(0.11 -0.11)">
      <defs>
       <path d="M 250 2048 
Q 250 2989 486 3501 
Q 819 4262 1600 4262 
Q 1766 4262 1939 4217 
Q 2112 4173 2333 4000 
Q 2554 3827 2688 3546 
Q 2944 3002 2944 2048 
Q 2944 1114 2707 602 
Q 2362 -141 1594 -141 
Q 1306 -141 1014 6 
Q 723 154 538 506 
Q 250 1037 250 2048 
z
M 781 2125 
Q 781 1158 851 774 
Q 928 358 1142 179 
Q 1357 0 1594 0 
Q 1850 0 2064 192 
Q 2278 384 2342 800 
Q 2413 1210 2413 2125 
Q 2413 3014 2349 3373 
Q 2266 3789 2042 3955 
Q 1818 4122 1594 4122 
Q 1510 4122 1420 4096 
Q 1331 4070 1203 4000 
Q 1075 3930 976 3750 
Q 877 3571 832 3302 
Q 781 2957 781 2125 
z
" id="CMUSerif-Roman-30" transform="scale(0.015625)"/>
      </defs>
      <use xlink:href="#CMUSerif-Roman-30"/>
     </g>
    </g>
   </g>
   <g id="xtick_2">
    <g id="line2d_3">
     <path d="M 64.204034 106.759124 
L 63.3074 107.635894 
" style="fill:none;stroke:#262626;stroke-linecap:round;stroke-width:1.25;"/>
    </g>
    <g id="text_3">
     <!-- 10 -->
     <g style="fill:#262626;" transform="translate(50.956705 131.222503)scale(0.11 -0.11)">
      <use xlink:href="#CMUSerif-Roman-31"/>
      <use x="49.999985" xlink:href="#CMUSerif-Roman-30"/>
     </g>
    </g>
   </g>
  </g>
  <g id="axis3d_2">
   <g id="line2d_4">
    <path d="M 111.617998 77.580219 
L 78.31517 111.757113 
" style="fill:none;stroke:#262626;stroke-linecap:round;stroke-width:1.25;"/>
   </g>
   <g id="text_4">
    <!-- PC 3 -->
    <g style="fill:#262626;" transform="translate(110.402579 126.089971)scale(0.12 -0.12)">
     <defs>
      <path d="M 269 864 
Q 269 1056 377 1145 
Q 486 1235 627 1235 
Q 774 1235 880 1139 
Q 986 1043 986 877 
Q 986 698 861 598 
Q 736 499 563 525 
Q 717 269 998 153 
Q 1280 38 1542 38 
Q 1818 38 2042 275 
Q 2266 512 2266 1094 
Q 2266 1587 2074 1872 
Q 1882 2157 1504 2157 
L 1222 2157 
Q 1126 2157 1097 2166 
Q 1069 2176 1069 2227 
Q 1069 2291 1165 2304 
Q 1261 2304 1414 2323 
Q 1786 2336 1984 2656 
Q 2163 2957 2163 3386 
Q 2163 3776 1977 3939 
Q 1792 4102 1549 4102 
Q 1325 4102 1078 4009 
Q 832 3917 698 3706 
Q 1094 3706 1094 3386 
Q 1094 3245 1004 3152 
Q 915 3059 768 3059 
Q 627 3059 534 3148 
Q 442 3238 442 3392 
Q 442 3757 768 4009 
Q 1094 4262 1574 4262 
Q 2048 4262 2400 4012 
Q 2752 3763 2752 3379 
Q 2752 3002 2502 2691 
Q 2253 2381 1856 2253 
Q 2342 2157 2633 1827 
Q 2925 1498 2925 1094 
Q 2925 595 2531 227 
Q 2138 -141 1562 -141 
Q 1030 -141 649 147 
Q 269 435 269 864 
z
" id="CMUSerif-Roman-33" transform="scale(0.015625)"/>
     </defs>
     <use xlink:href="#CMUSerif-Roman-50"/>
     <use x="67.999985" xlink:href="#CMUSerif-Roman-43"/>
     <use x="140.199966" xlink:href="#CMUSerif-Roman-20"/>
     <use x="173.499954" xlink:href="#CMUSerif-Roman-33"/>
    </g>
   </g>
   <g id="Line3DCollection_2">
    <path d="M 23.48597 36.624959 
L 25.271986 83.198037 
L 87.059623 102.783153 
" style="fill:none;"/>
    <path d="M 47.490284 19.107704 
L 48.19273 63.985415 
L 107.758444 81.54107 
" style="fill:none;"/>
   </g>
   <g id="xtick_3">
    <g id="line2d_5">
     <path d="M 86.539376 102.618248 
L 88.101438 103.113382 
" style="fill:none;stroke:#262626;stroke-linecap:round;stroke-width:1.25;"/>
    </g>
    <g id="text_5">
     <!-- 0 -->
     <g style="fill:#262626;" transform="translate(96.994636 123.618554)scale(0.11 -0.11)">
      <use xlink:href="#CMUSerif-Roman-30"/>
     </g>
    </g>
   </g>
   <g id="xtick_4">
    <g id="line2d_6">
     <path d="M 107.258269 81.393655 
L 108.759996 81.836255 
" style="fill:none;stroke:#262626;stroke-linecap:round;stroke-width:1.25;"/>
    </g>
    <g id="text_6">
     <!-- 10 -->
     <g style="fill:#262626;" transform="translate(114.278365 101.627509)scale(0.11 -0.11)">
      <use xlink:href="#CMUSerif-Roman-31"/>
      <use x="49.999985" xlink:href="#CMUSerif-Roman-30"/>
     </g>
    </g>
   </g>
  </g>
  <g id="axis3d_3">
   <g id="line2d_7">
    <path d="M 111.617998 77.580219 
L 113.728406 31.494309 
" style="fill:none;stroke:#262626;stroke-linecap:round;stroke-width:1.25;"/>
   </g>
   <g id="text_7">
    <!-- PC 2 -->
    <g style="fill:#262626;" transform="translate(140.822533 52.471098)scale(0.12 -0.12)">
     <defs>
      <path d="M 320 0 
Q 320 115 329 150 
Q 339 186 390 237 
L 1619 1606 
Q 2291 2362 2291 3021 
Q 2291 3450 2067 3757 
Q 1843 4064 1434 4064 
Q 1152 4064 915 3891 
Q 678 3718 570 3411 
Q 589 3418 653 3418 
Q 813 3418 902 3318 
Q 992 3219 992 3085 
Q 992 2912 880 2829 
Q 768 2746 659 2746 
Q 614 2746 556 2755 
Q 499 2765 409 2854 
Q 320 2944 320 3104 
Q 320 3552 659 3907 
Q 998 4262 1517 4262 
Q 2106 4262 2490 3913 
Q 2874 3565 2874 3021 
Q 2874 2829 2816 2656 
Q 2758 2483 2681 2348 
Q 2605 2214 2400 2000 
Q 2195 1786 2028 1632 
Q 1862 1478 1491 1152 
L 813 493 
L 1965 493 
Q 2528 493 2573 544 
Q 2637 634 2714 1114 
L 2874 1114 
L 2694 0 
L 320 0 
z
" id="CMUSerif-Roman-32" transform="scale(0.015625)"/>
     </defs>
     <use xlink:href="#CMUSerif-Roman-50"/>
     <use x="67.999985" xlink:href="#CMUSerif-Roman-43"/>
     <use x="140.199966" xlink:href="#CMUSerif-Roman-20"/>
     <use x="173.499954" xlink:href="#CMUSerif-Roman-32"/>
    </g>
   </g>
   <g id="Line3DCollection_3">
    <path d="M 111.68075 76.209876 
L 52.46527 59.063862 
L 15.559006 89.880009 
" style="fill:none;"/>
    <path d="M 112.360629 61.363054 
L 52.300013 44.692654 
L 14.826558 74.670261 
" style="fill:none;"/>
    <path d="M 113.060392 46.082012 
L 52.130157 29.921542 
L 14.071858 58.998418 
" style="fill:none;"/>
   </g>
   <g id="xtick_5">
    <g id="line2d_8">
     <path d="M 111.183738 76.065965 
L 112.675958 76.498041 
" style="fill:none;stroke:#262626;stroke-linecap:round;stroke-width:1.25;"/>
    </g>
    <g id="text_8">
     <!-- −5 -->
     <g style="fill:#262626;" transform="translate(122.84871 81.256673)scale(0.11 -0.11)">
      <defs>
       <path d="M 365 1594 
Q 365 1670 493 1670 
L 4416 1670 
Q 4422 1670 4451 1670 
Q 4480 1670 4489 1670 
Q 4499 1670 4521 1670 
Q 4544 1670 4553 1664 
Q 4563 1658 4576 1651 
Q 4589 1645 4595 1632 
Q 4602 1619 4602 1600 
Q 4602 1523 4435 1523 
L 4422 1523 
Q 4403 1523 4368 1526 
Q 4333 1530 4314 1530 
L 710 1530 
Q 685 1530 637 1526 
Q 589 1523 563 1523 
L 531 1523 
Q 365 1523 365 1594 
z
" id="CMUSerif-Roman-2212" transform="scale(0.015625)"/>
       <path d="M 320 1030 
Q 320 1222 422 1296 
Q 525 1370 634 1370 
Q 781 1370 867 1277 
Q 954 1184 954 1056 
Q 954 928 867 835 
Q 781 742 634 742 
Q 563 742 525 755 
Q 608 461 867 249 
Q 1126 38 1466 38 
Q 1894 38 2150 454 
Q 2304 723 2304 1331 
Q 2304 1869 2189 2138 
Q 2010 2547 1645 2547 
Q 1126 2547 819 2099 
Q 781 2042 736 2042 
Q 672 2042 659 2077 
Q 646 2112 646 2208 
L 646 4102 
Q 646 4256 710 4256 
Q 736 4256 787 4237 
Q 1190 4058 1638 4058 
Q 2099 4058 2509 4243 
Q 2541 4262 2560 4262 
Q 2624 4262 2624 4192 
Q 2624 4166 2573 4092 
Q 2522 4019 2413 3923 
Q 2304 3827 2163 3737 
Q 2022 3648 1817 3587 
Q 1613 3526 1389 3526 
Q 1120 3526 845 3610 
L 845 2362 
Q 1178 2688 1658 2688 
Q 2170 2688 2522 2275 
Q 2874 1862 2874 1286 
Q 2874 685 2458 272 
Q 2042 -141 1478 -141 
Q 966 -141 643 224 
Q 320 589 320 1030 
z
" id="CMUSerif-Roman-35" transform="scale(0.015625)"/>
      </defs>
      <use xlink:href="#CMUSerif-Roman-2212"/>
      <use x="77.799988" xlink:href="#CMUSerif-Roman-35"/>
     </g>
    </g>
   </g>
   <g id="xtick_6">
    <g id="line2d_9">
     <path d="M 111.856183 61.22304 
L 113.370739 61.64342 
" style="fill:none;stroke:#262626;stroke-linecap:round;stroke-width:1.25;"/>
    </g>
    <g id="text_9">
     <!-- 0 -->
     <g style="fill:#262626;" transform="translate(128.062867 66.480183)scale(0.11 -0.11)">
      <use xlink:href="#CMUSerif-Roman-30"/>
     </g>
    </g>
   </g>
   <g id="xtick_7">
    <g id="line2d_10">
     <path d="M 112.548287 45.946187 
L 114.085858 46.353995 
" style="fill:none;stroke:#262626;stroke-linecap:round;stroke-width:1.25;"/>
    </g>
    <g id="text_10">
     <!-- 5 -->
     <g style="fill:#262626;" transform="translate(129.02535 51.2747)scale(0.11 -0.11)">
      <use xlink:href="#CMUSerif-Roman-35"/>
     </g>
    </g>
   </g>
  </g>
  <g id="axes_1">
   <g id="Path3DCollection_1">
    <defs>
     <path d="M 0 1.936492 
C 0.513564 1.936492 1.006162 1.732451 1.369306 1.369306 
C 1.732451 1.006162 1.936492 0.513564 1.936492 -0 
C 1.936492 -0.513564 1.732451 -1.006162 1.369306 -1.369306 
C 1.006162 -1.732451 0.513564 -1.936492 0 -1.936492 
C -0.513564 -1.936492 -1.006162 -1.732451 -1.369306 -1.369306 
C -1.732451 -1.006162 -1.936492 -0.513564 -1.936492 0 
C -1.936492 0.513564 -1.732451 1.006162 -1.369306 1.369306 
C -1.006162 1.732451 -0.513564 1.936492 0 1.936492 
z
" id="C0_0_4092dbb786"/>
    </defs>
    <g clip-path="url(#pda1271f1bb)">
     <use style="fill:#ff603d;fill-opacity:0.6;" x="79.690678" xlink:href="#C0_0_4092dbb786" y="62.905139"/>
    </g>
    <g clip-path="url(#pda1271f1bb)">
     <use style="fill:#ff603d;fill-opacity:0.6;" x="72.778114" xlink:href="#C0_0_4092dbb786" y="59.14717"/>
    </g>
    <g clip-path="url(#pda1271f1bb)">
     <use style="fill:#ff603d;fill-opacity:0.6;" x="51.343482" xlink:href="#C0_0_4092dbb786" y="57.769675"/>
    </g>
    <g clip-path="url(#pda1271f1bb)">
     <use style="fill:#ff603d;fill-opacity:0.6;" x="41.865145" xlink:href="#C0_0_4092dbb786" y="73.060215"/>
    </g>
    <g clip-path="url(#pda1271f1bb)">
     <use style="fill:#910040;fill-opacity:0.6;" x="39.253577" xlink:href="#C0_0_4092dbb786" y="77.653207"/>
    </g>
    <g clip-path="url(#pda1271f1bb)">
     <use style="fill:#ff603d;fill-opacity:0.6;" x="49.868381" xlink:href="#C0_0_4092dbb786" y="72.542789"/>
    </g>
    <g clip-path="url(#pda1271f1bb)">
     <use style="fill:#910040;fill-opacity:0.6;" x="43.410231" xlink:href="#C0_0_4092dbb786" y="60.680127"/>
    </g>
    <g clip-path="url(#pda1271f1bb)">
     <use style="fill:#ff603d;fill-opacity:0.6;" x="45.425788" xlink:href="#C0_0_4092dbb786" y="67.938913"/>
    </g>
    <g clip-path="url(#pda1271f1bb)">
     <use style="fill:#ff603d;fill-opacity:0.6;" x="39.562683" xlink:href="#C0_0_4092dbb786" y="74.833696"/>
    </g>
    <g clip-path="url(#pda1271f1bb)">
     <use style="fill:#ff603d;fill-opacity:0.6;" x="41.173004" xlink:href="#C0_0_4092dbb786" y="77.935797"/>
    </g>
    <g clip-path="url(#pda1271f1bb)">
     <use style="fill:#ff603d;fill-opacity:0.6;" x="47.823991" xlink:href="#C0_0_4092dbb786" y="63.397137"/>
    </g>
    <g clip-path="url(#pda1271f1bb)">
     <use style="fill:#ff603d;fill-opacity:0.6;" x="43.570514" xlink:href="#C0_0_4092dbb786" y="85.944659"/>
    </g>
    <g clip-path="url(#pda1271f1bb)">
     <use style="fill:#910040;fill-opacity:0.6;" x="42.940009" xlink:href="#C0_0_4092dbb786" y="78.315856"/>
    </g>
    <g clip-path="url(#pda1271f1bb)">
     <use style="fill:#ff603d;fill-opacity:0.6;" x="34.755806" xlink:href="#C0_0_4092dbb786" y="71.989982"/>
    </g>
    <g clip-path="url(#pda1271f1bb)">
     <use style="fill:#ff603d;fill-opacity:0.6;" x="46.048888" xlink:href="#C0_0_4092dbb786" y="76.13675"/>
    </g>
    <g clip-path="url(#pda1271f1bb)">
     <use style="fill:#ff603d;fill-opacity:0.6;" x="55.378031" xlink:href="#C0_0_4092dbb786" y="81.548753"/>
    </g>
    <g clip-path="url(#pda1271f1bb)">
     <use style="fill:#ff603d;fill-opacity:0.6;" x="37.540308" xlink:href="#C0_0_4092dbb786" y="80.12844"/>
    </g>
    <g clip-path="url(#pda1271f1bb)">
     <use style="fill:#ff603d;fill-opacity:0.6;" x="41.139955" xlink:href="#C0_0_4092dbb786" y="72.627611"/>
    </g>
    <g clip-path="url(#pda1271f1bb)">
     <use style="fill:#ff603d;fill-opacity:0.6;" x="33.265451" xlink:href="#C0_0_4092dbb786" y="65.951165"/>
    </g>
    <g clip-path="url(#pda1271f1bb)">
     <use style="fill:#ff603d;fill-opacity:0.6;" x="58.715686" xlink:href="#C0_0_4092dbb786" y="77.830213"/>
    </g>
    <g clip-path="url(#pda1271f1bb)">
     <use style="fill:#910040;fill-opacity:0.6;" x="39.90216" xlink:href="#C0_0_4092dbb786" y="63.960071"/>
    </g>
    <g clip-path="url(#pda1271f1bb)">
     <use style="fill:#ff603d;fill-opacity:0.6;" x="49.837605" xlink:href="#C0_0_4092dbb786" y="65.220428"/>
    </g>
    <g clip-path="url(#pda1271f1bb)">
     <use style="fill:#910040;fill-opacity:0.6;" x="26.14817" xlink:href="#C0_0_4092dbb786" y="73.262071"/>
    </g>
    <g clip-path="url(#pda1271f1bb)">
     <use style="fill:#ff603d;fill-opacity:0.6;" x="37.255394" xlink:href="#C0_0_4092dbb786" y="60.15084"/>
    </g>
    <g clip-path="url(#pda1271f1bb)">
     <use style="fill:#910040;fill-opacity:0.6;" x="33.350726" xlink:href="#C0_0_4092dbb786" y="78.84877"/>
    </g>
    <g clip-path="url(#pda1271f1bb)">
     <use style="fill:#ff603d;fill-opacity:0.6;" x="49.268349" xlink:href="#C0_0_4092dbb786" y="78.773909"/>
    </g>
    <g clip-path="url(#pda1271f1bb)">
     <use style="fill:#ff603d;fill-opacity:0.6;" x="32.068242" xlink:href="#C0_0_4092dbb786" y="71.516927"/>
    </g>
    <g clip-path="url(#pda1271f1bb)">
     <use style="fill:#ff603d;fill-opacity:0.6;" x="43.079076" xlink:href="#C0_0_4092dbb786" y="80.968786"/>
    </g>
    <g clip-path="url(#pda1271f1bb)">
     <use style="fill:#ff603d;fill-opacity:0.6;" x="35.97368" xlink:href="#C0_0_4092dbb786" y="85.708943"/>
    </g>
    <g clip-path="url(#pda1271f1bb)">
     <use style="fill:#910040;fill-opacity:0.6;" x="43.001722" xlink:href="#C0_0_4092dbb786" y="73.624455"/>
    </g>
    <g clip-path="url(#pda1271f1bb)">
     <use style="fill:#ff603d;fill-opacity:0.6;" x="32.908479" xlink:href="#C0_0_4092dbb786" y="72.104231"/>
    </g>
    <g clip-path="url(#pda1271f1bb)">
     <use style="fill:#910040;fill-opacity:0.6;" x="36.156658" xlink:href="#C0_0_4092dbb786" y="72.495356"/>
    </g>
    <g clip-path="url(#pda1271f1bb)">
     <use style="fill:#ff603d;fill-opacity:0.6;" x="49.015007" xlink:href="#C0_0_4092dbb786" y="65.887652"/>
    </g>
    <g clip-path="url(#pda1271f1bb)">
     <use style="fill:#910040;fill-opacity:0.6;" x="34.627217" xlink:href="#C0_0_4092dbb786" y="73.162113"/>
    </g>
    <g clip-path="url(#pda1271f1bb)">
     <use style="fill:#ff603d;fill-opacity:0.6;" x="52.939643" xlink:href="#C0_0_4092dbb786" y="75.344857"/>
    </g>
    <g clip-path="url(#pda1271f1bb)">
     <use style="fill:#910040;fill-opacity:0.6;" x="35.53105" xlink:href="#C0_0_4092dbb786" y="63.984897"/>
    </g>
    <g clip-path="url(#pda1271f1bb)">
     <use style="fill:#ff603d;fill-opacity:0.6;" x="46.891884" xlink:href="#C0_0_4092dbb786" y="51.107485"/>
    </g>
    <g clip-path="url(#pda1271f1bb)">
     <use style="fill:#ff603d;fill-opacity:0.6;" x="36.53118" xlink:href="#C0_0_4092dbb786" y="67.957788"/>
    </g>
    <g clip-path="url(#pda1271f1bb)">
     <use style="fill:#ff603d;fill-opacity:0.6;" x="40.553558" xlink:href="#C0_0_4092dbb786" y="71.620221"/>
    </g>
    <g clip-path="url(#pda1271f1bb)">
     <use style="fill:#910040;fill-opacity:0.6;" x="43.140737" xlink:href="#C0_0_4092dbb786" y="83.080016"/>
    </g>
    <g clip-path="url(#pda1271f1bb)">
     <use style="fill:#910040;fill-opacity:0.6;" x="37.364375" xlink:href="#C0_0_4092dbb786" y="77.212448"/>
    </g>
    <g clip-path="url(#pda1271f1bb)">
     <use style="fill:#ff603d;fill-opacity:0.6;" x="44.043729" xlink:href="#C0_0_4092dbb786" y="80.998707"/>
    </g>
    <g clip-path="url(#pda1271f1bb)">
     <use style="fill:#ff603d;fill-opacity:0.6;" x="37.789318" xlink:href="#C0_0_4092dbb786" y="79.000051"/>
    </g>
    <g clip-path="url(#pda1271f1bb)">
     <use style="fill:#ff603d;fill-opacity:0.6;" x="34.385667" xlink:href="#C0_0_4092dbb786" y="72.061095"/>
    </g>
    <g clip-path="url(#pda1271f1bb)">
     <use style="fill:#ff603d;fill-opacity:0.6;" x="28.775362" xlink:href="#C0_0_4092dbb786" y="74.876547"/>
    </g>
    <g clip-path="url(#pda1271f1bb)">
     <use style="fill:#ff603d;fill-opacity:0.6;" x="41.459903" xlink:href="#C0_0_4092dbb786" y="71.645826"/>
    </g>
    <g clip-path="url(#pda1271f1bb)">
     <use style="fill:#ff603d;fill-opacity:0.6;" x="39.998826" xlink:href="#C0_0_4092dbb786" y="65.848726"/>
    </g>
    <g clip-path="url(#pda1271f1bb)">
     <use style="fill:#910040;fill-opacity:0.6;" x="29.189117" xlink:href="#C0_0_4092dbb786" y="59.279259"/>
    </g>
    <g clip-path="url(#pda1271f1bb)">
     <use style="fill:#ff603d;fill-opacity:0.6;" x="66.309779" xlink:href="#C0_0_4092dbb786" y="79.861749"/>
    </g>
    <g clip-path="url(#pda1271f1bb)">
     <use style="fill:#ff603d;fill-opacity:0.6;" x="34.584521" xlink:href="#C0_0_4092dbb786" y="67.503865"/>
    </g>
    <g clip-path="url(#pda1271f1bb)">
     <use style="fill:#ff603d;fill-opacity:0.6;" x="36.628659" xlink:href="#C0_0_4092dbb786" y="70.931427"/>
    </g>
    <g clip-path="url(#pda1271f1bb)">
     <use style="fill:#ff603d;fill-opacity:0.6;" x="34.596416" xlink:href="#C0_0_4092dbb786" y="57.837941"/>
    </g>
    <g clip-path="url(#pda1271f1bb)">
     <use style="fill:#ff603d;fill-opacity:0.6;" x="56.442859" xlink:href="#C0_0_4092dbb786" y="69.593053"/>
    </g>
    <g clip-path="url(#pda1271f1bb)">
     <use style="fill:#ff603d;fill-opacity:0.6;" x="48.867751" xlink:href="#C0_0_4092dbb786" y="81.980121"/>
    </g>
    <g clip-path="url(#pda1271f1bb)">
     <use style="fill:#ff603d;fill-opacity:0.6;" x="38.603151" xlink:href="#C0_0_4092dbb786" y="82.064738"/>
    </g>
    <g clip-path="url(#pda1271f1bb)">
     <use style="fill:#ff603d;fill-opacity:0.6;" x="30.430085" xlink:href="#C0_0_4092dbb786" y="73.335105"/>
    </g>
    <g clip-path="url(#pda1271f1bb)">
     <use style="fill:#910040;fill-opacity:0.6;" x="38.542263" xlink:href="#C0_0_4092dbb786" y="75.033069"/>
    </g>
    <g clip-path="url(#pda1271f1bb)">
     <use style="fill:#ff603d;fill-opacity:0.6;" x="49.809087" xlink:href="#C0_0_4092dbb786" y="79.30036"/>
    </g>
    <g clip-path="url(#pda1271f1bb)">
     <use style="fill:#ff603d;fill-opacity:0.6;" x="48.805674" xlink:href="#C0_0_4092dbb786" y="83.727364"/>
    </g>
    <g clip-path="url(#pda1271f1bb)">
     <use style="fill:#910040;fill-opacity:0.6;" x="47.142331" xlink:href="#C0_0_4092dbb786" y="83.382083"/>
    </g>
    <g clip-path="url(#pda1271f1bb)">
     <use style="fill:#ff603d;fill-opacity:0.6;" x="45.77774" xlink:href="#C0_0_4092dbb786" y="72.04567"/>
    </g>
    <g clip-path="url(#pda1271f1bb)">
     <use style="fill:#ff603d;fill-opacity:0.6;" x="47.560807" xlink:href="#C0_0_4092dbb786" y="77.372923"/>
    </g>
    <g clip-path="url(#pda1271f1bb)">
     <use style="fill:#ff603d;fill-opacity:0.6;" x="44.959829" xlink:href="#C0_0_4092dbb786" y="73.410347"/>
    </g>
    <g clip-path="url(#pda1271f1bb)">
     <use style="fill:#910040;fill-opacity:0.6;" x="37.857738" xlink:href="#C0_0_4092dbb786" y="76.748333"/>
    </g>
    <g clip-path="url(#pda1271f1bb)">
     <use style="fill:#ff603d;fill-opacity:0.6;" x="42.73166" xlink:href="#C0_0_4092dbb786" y="78.367548"/>
    </g>
    <g clip-path="url(#pda1271f1bb)">
     <use style="fill:#910040;fill-opacity:0.6;" x="35.257025" xlink:href="#C0_0_4092dbb786" y="62.621951"/>
    </g>
    <g clip-path="url(#pda1271f1bb)">
     <use style="fill:#ff603d;fill-opacity:0.6;" x="39.905851" xlink:href="#C0_0_4092dbb786" y="77.908223"/>
    </g>
    <g clip-path="url(#pda1271f1bb)">
     <use style="fill:#ff603d;fill-opacity:0.6;" x="54.68441" xlink:href="#C0_0_4092dbb786" y="63.462475"/>
    </g>
    <g clip-path="url(#pda1271f1bb)">
     <use style="fill:#910040;fill-opacity:0.6;" x="39.643192" xlink:href="#C0_0_4092dbb786" y="61.87508"/>
    </g>
    <g clip-path="url(#pda1271f1bb)">
     <use style="fill:#ff603d;fill-opacity:0.6;" x="40.892783" xlink:href="#C0_0_4092dbb786" y="78.96519"/>
    </g>
    <g clip-path="url(#pda1271f1bb)">
     <use style="fill:#ff603d;fill-opacity:0.6;" x="36.34778" xlink:href="#C0_0_4092dbb786" y="88.869261"/>
    </g>
    <g clip-path="url(#pda1271f1bb)">
     <use style="fill:#ff603d;fill-opacity:0.6;" x="60.132962" xlink:href="#C0_0_4092dbb786" y="89.85548"/>
    </g>
    <g clip-path="url(#pda1271f1bb)">
     <use style="fill:#ff603d;fill-opacity:0.6;" x="41.146012" xlink:href="#C0_0_4092dbb786" y="87.975999"/>
    </g>
    <g clip-path="url(#pda1271f1bb)">
     <use style="fill:#ff603d;fill-opacity:0.6;" x="43.458744" xlink:href="#C0_0_4092dbb786" y="56.152912"/>
    </g>
    <g clip-path="url(#pda1271f1bb)">
     <use style="fill:#910040;fill-opacity:0.6;" x="33.019711" xlink:href="#C0_0_4092dbb786" y="67.688563"/>
    </g>
    <g clip-path="url(#pda1271f1bb)">
     <use style="fill:#910040;fill-opacity:0.6;" x="51.637694" xlink:href="#C0_0_4092dbb786" y="58.785304"/>
    </g>
    <g clip-path="url(#pda1271f1bb)">
     <use style="fill:#ff603d;fill-opacity:0.6;" x="34.928105" xlink:href="#C0_0_4092dbb786" y="64.607578"/>
    </g>
    <g clip-path="url(#pda1271f1bb)">
     <use style="fill:#910040;fill-opacity:0.6;" x="38.584774" xlink:href="#C0_0_4092dbb786" y="66.70643"/>
    </g>
    <g clip-path="url(#pda1271f1bb)">
     <use style="fill:#ff603d;fill-opacity:0.6;" x="25.260247" xlink:href="#C0_0_4092dbb786" y="68.799636"/>
    </g>
    <g clip-path="url(#pda1271f1bb)">
     <use style="fill:#ff603d;fill-opacity:0.6;" x="30.537327" xlink:href="#C0_0_4092dbb786" y="67.328111"/>
    </g>
    <g clip-path="url(#pda1271f1bb)">
     <use style="fill:#ff603d;fill-opacity:0.6;" x="52.111605" xlink:href="#C0_0_4092dbb786" y="86.558239"/>
    </g>
    <g clip-path="url(#pda1271f1bb)">
     <use style="fill:#ff603d;fill-opacity:0.6;" x="57.964519" xlink:href="#C0_0_4092dbb786" y="80.534686"/>
    </g>
    <g clip-path="url(#pda1271f1bb)">
     <use style="fill:#ff603d;fill-opacity:0.6;" x="44.364691" xlink:href="#C0_0_4092dbb786" y="55.411634"/>
    </g>
    <g clip-path="url(#pda1271f1bb)">
     <use style="fill:#910040;fill-opacity:0.6;" x="31.762184" xlink:href="#C0_0_4092dbb786" y="63.271573"/>
    </g>
    <g clip-path="url(#pda1271f1bb)">
     <use style="fill:#ff603d;fill-opacity:0.6;" x="41.999665" xlink:href="#C0_0_4092dbb786" y="86.180199"/>
    </g>
    <g clip-path="url(#pda1271f1bb)">
     <use style="fill:#ff603d;fill-opacity:0.6;" x="47.263543" xlink:href="#C0_0_4092dbb786" y="88.3209"/>
    </g>
    <g clip-path="url(#pda1271f1bb)">
     <use style="fill:#ff603d;fill-opacity:0.6;" x="47.564861" xlink:href="#C0_0_4092dbb786" y="80.836536"/>
    </g>
    <g clip-path="url(#pda1271f1bb)">
     <use style="fill:#ff603d;fill-opacity:0.6;" x="45.179269" xlink:href="#C0_0_4092dbb786" y="86.966411"/>
    </g>
    <g clip-path="url(#pda1271f1bb)">
     <use style="fill:#910040;fill-opacity:0.6;" x="31.336299" xlink:href="#C0_0_4092dbb786" y="65.192315"/>
    </g>
    <g clip-path="url(#pda1271f1bb)">
     <use style="fill:#ff603d;fill-opacity:0.6;" x="46.658086" xlink:href="#C0_0_4092dbb786" y="83.273197"/>
    </g>
    <g clip-path="url(#pda1271f1bb)">
     <use style="fill:#ff603d;fill-opacity:0.6;" x="54.652671" xlink:href="#C0_0_4092dbb786" y="77.512077"/>
    </g>
    <g clip-path="url(#pda1271f1bb)">
     <use style="fill:#ff603d;fill-opacity:0.6;" x="44.844195" xlink:href="#C0_0_4092dbb786" y="73.66613"/>
    </g>
    <g clip-path="url(#pda1271f1bb)">
     <use style="fill:#910040;fill-opacity:0.6;" x="32.775428" xlink:href="#C0_0_4092dbb786" y="67.443474"/>
    </g>
    <g clip-path="url(#pda1271f1bb)">
     <use style="fill:#ff603d;fill-opacity:0.6;" x="39.64244" xlink:href="#C0_0_4092dbb786" y="64.153955"/>
    </g>
    <g clip-path="url(#pda1271f1bb)">
     <use style="fill:#ff603d;fill-opacity:0.6;" x="43.834417" xlink:href="#C0_0_4092dbb786" y="64.123806"/>
    </g>
    <g clip-path="url(#pda1271f1bb)">
     <use style="fill:#ff603d;fill-opacity:0.6;" x="50.597888" xlink:href="#C0_0_4092dbb786" y="69.508429"/>
    </g>
    <g clip-path="url(#pda1271f1bb)">
     <use style="fill:#ff603d;fill-opacity:0.6;" x="66.790676" xlink:href="#C0_0_4092dbb786" y="89.104265"/>
    </g>
    <g clip-path="url(#pda1271f1bb)">
     <use style="fill:#ff603d;fill-opacity:0.6;" x="60.688914" xlink:href="#C0_0_4092dbb786" y="91.632072"/>
    </g>
    <g clip-path="url(#pda1271f1bb)">
     <use style="fill:#910040;fill-opacity:0.6;" x="38.006403" xlink:href="#C0_0_4092dbb786" y="61.916619"/>
    </g>
    <g clip-path="url(#pda1271f1bb)">
     <use style="fill:#ff603d;fill-opacity:0.6;" x="58.729105" xlink:href="#C0_0_4092dbb786" y="78.744474"/>
    </g>
    <g clip-path="url(#pda1271f1bb)">
     <use style="fill:#ff603d;fill-opacity:0.6;" x="48.116459" xlink:href="#C0_0_4092dbb786" y="68.177305"/>
    </g>
    <g clip-path="url(#pda1271f1bb)">
     <use style="fill:#ff603d;fill-opacity:0.6;" x="46.578878" xlink:href="#C0_0_4092dbb786" y="69.631339"/>
    </g>
    <g clip-path="url(#pda1271f1bb)">
     <use style="fill:#ff603d;fill-opacity:0.6;" x="57.379274" xlink:href="#C0_0_4092dbb786" y="86.912271"/>
    </g>
    <g clip-path="url(#pda1271f1bb)">
     <use style="fill:#ff603d;fill-opacity:0.6;" x="38.159058" xlink:href="#C0_0_4092dbb786" y="57.60301"/>
    </g>
    <g clip-path="url(#pda1271f1bb)">
     <use style="fill:#ff603d;fill-opacity:0.6;" x="59.523444" xlink:href="#C0_0_4092dbb786" y="87.221636"/>
    </g>
    <g clip-path="url(#pda1271f1bb)">
     <use style="fill:#ff603d;fill-opacity:0.6;" x="66.382308" xlink:href="#C0_0_4092dbb786" y="72.024567"/>
    </g>
    <g clip-path="url(#pda1271f1bb)">
     <use style="fill:#ff603d;fill-opacity:0.6;" x="74.995701" xlink:href="#C0_0_4092dbb786" y="80.294798"/>
    </g>
    <g clip-path="url(#pda1271f1bb)">
     <use style="fill:#ff603d;fill-opacity:0.6;" x="62.433021" xlink:href="#C0_0_4092dbb786" y="54.26888"/>
    </g>
    <g clip-path="url(#pda1271f1bb)">
     <use style="fill:#ff603d;fill-opacity:0.6;" x="80.283778" xlink:href="#C0_0_4092dbb786" y="59.679044"/>
    </g>
   </g>
  </g>
 </g>
 <defs>
  <clipPath id="pda1271f1bb">
   <rect height="111.6" width="111.6" x="7.2" y="7.2"/>
  </clipPath>
 </defs>
</svg>
