<?xml version="1.0" encoding="utf-8" standalone="no"?>
<!DOCTYPE svg PUBLIC "-//W3C//DTD SVG 1.1//EN"
  "http://www.w3.org/Graphics/SVG/1.1/DTD/svg11.dtd">
<svg xmlns:xlink="http://www.w3.org/1999/xlink" width="145.124223pt" height="139.813912pt" viewBox="0 0 145.124223 139.813912" xmlns="http://www.w3.org/2000/svg" version="1.1">
 <metadata>
  <rdf:RDF xmlns:dc="http://purl.org/dc/elements/1.1/" xmlns:cc="http://creativecommons.org/ns#" xmlns:rdf="http://www.w3.org/1999/02/22-rdf-syntax-ns#">
   <cc:Work>
    <dc:type rdf:resource="http://purl.org/dc/dcmitype/StillImage"/>
    <dc:date>2023-08-10T12:00:11.927703</dc:date>
    <dc:format>image/svg+xml</dc:format>
    <dc:creator>
     <cc:Agent>
      <dc:title>Matplotlib v3.7.2, https://matplotlib.org/</dc:title>
     </cc:Agent>
    </dc:creator>
   </cc:Work>
  </rdf:RDF>
 </metadata>
 <defs>
  <style type="text/css">*{stroke-linejoin: round; stroke-linecap: butt}</style>
 </defs>
 <g id="figure_1">
  <g id="patch_1">
   <path d="M 0 139.813912 
L 145.124223 139.813912 
L 145.124223 0 
L 0 0 
z
" style="fill: #ffffff"/>
  </g>
  <g id="patch_2">
   <path d="M 7.2 118.8 
L 118.8 118.8 
L 118.8 7.2 
L 7.2 7.2 
z
" style="fill: #ffffff"/>
  </g>
  <g id="pane3d_1">
   <g id="patch_3">
    <path d="M 15.62657 91.283016 
L 52.480534 60.391293 
L 51.968229 15.839904 
L 13.350612 44.021282 
" style="fill: none; opacity: 0"/>
   </g>
  </g>
  <g id="pane3d_2">
   <g id="patch_4">
    <path d="M 52.480534 60.391293 
L 111.617998 77.580219 
L 113.728406 31.494309 
L 51.968229 15.839904 
" style="fill: none; opacity: 0"/>
   </g>
  </g>
  <g id="pane3d_3">
   <g id="patch_5">
    <path d="M 15.62657 91.283016 
L 78.31517 111.757113 
L 111.617998 77.580219 
L 52.480534 60.391293 
" style="fill: none; opacity: 0"/>
   </g>
  </g>
  <g id="axis3d_1">
   <g id="line2d_1">
    <path d="M 15.62657 91.283016 
L 78.31517 111.757113 
" style="fill: none; stroke: #000000; stroke-width: 0.8; stroke-linecap: square"/>
   </g>
   <g id="text_1">
    <!-- PC 3 -->
    <g transform="translate(19.729762 136.784755) scale(0.1 -0.1)">
     <defs>
      <path id="DejaVuSans-50" d="M 1259 4147 
L 1259 2394 
L 2053 2394 
Q 2494 2394 2734 2622 
Q 2975 2850 2975 3272 
Q 2975 3691 2734 3919 
Q 2494 4147 2053 4147 
L 1259 4147 
z
M 628 4666 
L 2053 4666 
Q 2838 4666 3239 4311 
Q 3641 3956 3641 3272 
Q 3641 2581 3239 2228 
Q 2838 1875 2053 1875 
L 1259 1875 
L 1259 0 
L 628 0 
L 628 4666 
z
" transform="scale(0.015625)"/>
      <path id="DejaVuSans-43" d="M 4122 4306 
L 4122 3641 
Q 3803 3938 3442 4084 
Q 3081 4231 2675 4231 
Q 1875 4231 1450 3742 
Q 1025 3253 1025 2328 
Q 1025 1406 1450 917 
Q 1875 428 2675 428 
Q 3081 428 3442 575 
Q 3803 722 4122 1019 
L 4122 359 
Q 3791 134 3420 21 
Q 3050 -91 2638 -91 
Q 1578 -91 968 557 
Q 359 1206 359 2328 
Q 359 3453 968 4101 
Q 1578 4750 2638 4750 
Q 3056 4750 3426 4639 
Q 3797 4528 4122 4306 
z
" transform="scale(0.015625)"/>
      <path id="DejaVuSans-20" transform="scale(0.015625)"/>
      <path id="DejaVuSans-33" d="M 2597 2516 
Q 3050 2419 3304 2112 
Q 3559 1806 3559 1356 
Q 3559 666 3084 287 
Q 2609 -91 1734 -91 
Q 1441 -91 1130 -33 
Q 819 25 488 141 
L 488 750 
Q 750 597 1062 519 
Q 1375 441 1716 441 
Q 2309 441 2620 675 
Q 2931 909 2931 1356 
Q 2931 1769 2642 2001 
Q 2353 2234 1838 2234 
L 1294 2234 
L 1294 2753 
L 1863 2753 
Q 2328 2753 2575 2939 
Q 2822 3125 2822 3475 
Q 2822 3834 2567 4026 
Q 2313 4219 1838 4219 
Q 1578 4219 1281 4162 
Q 984 4106 628 3988 
L 628 4550 
Q 988 4650 1302 4700 
Q 1616 4750 1894 4750 
Q 2613 4750 3031 4423 
Q 3450 4097 3450 3541 
Q 3450 3153 3228 2886 
Q 3006 2619 2597 2516 
z
" transform="scale(0.015625)"/>
     </defs>
     <use xlink:href="#DejaVuSans-50"/>
     <use xlink:href="#DejaVuSans-43" x="60.302734"/>
     <use xlink:href="#DejaVuSans-20" x="130.126953"/>
     <use xlink:href="#DejaVuSans-33" x="161.914062"/>
    </g>
   </g>
   <g id="Line3DCollection_1">
    <path d="M 29.482373 95.808322 
L 65.596453 64.203572 
L 65.643341 19.306147 
" style="fill: none"/>
    <path d="M 45.522107 101.046899 
L 80.747713 68.607445 
L 81.45651 23.314324 
" style="fill: none"/>
    <path d="M 62.007173 106.430922 
L 96.284004 73.123232 
L 97.689304 27.428864 
" style="fill: none"/>
   </g>
   <g id="xtick_1">
    <g id="line2d_2">
     <path d="M 29.797073 95.532916 
L 28.851609 96.360326 
" style="fill: none; stroke: #000000; stroke-width: 0.8; stroke-linecap: square"/>
    </g>
    <g id="text_2">
     <!-- −2.5 -->
     <g transform="translate(9.797237 119.366278) scale(0.1 -0.1)">
      <defs>
       <path id="DejaVuSans-2212" d="M 678 2272 
L 4684 2272 
L 4684 1741 
L 678 1741 
L 678 2272 
z
" transform="scale(0.015625)"/>
       <path id="DejaVuSans-32" d="M 1228 531 
L 3431 531 
L 3431 0 
L 469 0 
L 469 531 
Q 828 903 1448 1529 
Q 2069 2156 2228 2338 
Q 2531 2678 2651 2914 
Q 2772 3150 2772 3378 
Q 2772 3750 2511 3984 
Q 2250 4219 1831 4219 
Q 1534 4219 1204 4116 
Q 875 4013 500 3803 
L 500 4441 
Q 881 4594 1212 4672 
Q 1544 4750 1819 4750 
Q 2544 4750 2975 4387 
Q 3406 4025 3406 3419 
Q 3406 3131 3298 2873 
Q 3191 2616 2906 2266 
Q 2828 2175 2409 1742 
Q 1991 1309 1228 531 
z
" transform="scale(0.015625)"/>
       <path id="DejaVuSans-2e" d="M 684 794 
L 1344 794 
L 1344 0 
L 684 0 
L 684 794 
z
" transform="scale(0.015625)"/>
       <path id="DejaVuSans-35" d="M 691 4666 
L 3169 4666 
L 3169 4134 
L 1269 4134 
L 1269 2991 
Q 1406 3038 1543 3061 
Q 1681 3084 1819 3084 
Q 2600 3084 3056 2656 
Q 3513 2228 3513 1497 
Q 3513 744 3044 326 
Q 2575 -91 1722 -91 
Q 1428 -91 1123 -41 
Q 819 9 494 109 
L 494 744 
Q 775 591 1075 516 
Q 1375 441 1709 441 
Q 2250 441 2565 725 
Q 2881 1009 2881 1497 
Q 2881 1984 2565 2268 
Q 2250 2553 1709 2553 
Q 1456 2553 1204 2497 
Q 953 2441 691 2322 
L 691 4666 
z
" transform="scale(0.015625)"/>
      </defs>
      <use xlink:href="#DejaVuSans-2212"/>
      <use xlink:href="#DejaVuSans-32" x="83.789062"/>
      <use xlink:href="#DejaVuSans-2e" x="147.412109"/>
      <use xlink:href="#DejaVuSans-35" x="179.199219"/>
     </g>
    </g>
   </g>
   <g id="xtick_2">
    <g id="line2d_3">
     <path d="M 45.82941 100.763902 
L 44.906153 101.614134 
" style="fill: none; stroke: #000000; stroke-width: 0.8; stroke-linecap: square"/>
    </g>
    <g id="text_3">
     <!-- 0.0 -->
     <g transform="translate(30.068735 124.873098) scale(0.1 -0.1)">
      <defs>
       <path id="DejaVuSans-30" d="M 2034 4250 
Q 1547 4250 1301 3770 
Q 1056 3291 1056 2328 
Q 1056 1369 1301 889 
Q 1547 409 2034 409 
Q 2525 409 2770 889 
Q 3016 1369 3016 2328 
Q 3016 3291 2770 3770 
Q 2525 4250 2034 4250 
z
M 2034 4750 
Q 2819 4750 3233 4129 
Q 3647 3509 3647 2328 
Q 3647 1150 3233 529 
Q 2819 -91 2034 -91 
Q 1250 -91 836 529 
Q 422 1150 422 2328 
Q 422 3509 836 4129 
Q 1250 4750 2034 4750 
z
" transform="scale(0.015625)"/>
      </defs>
      <use xlink:href="#DejaVuSans-30"/>
      <use xlink:href="#DejaVuSans-2e" x="63.623047"/>
      <use xlink:href="#DejaVuSans-30" x="95.410156"/>
     </g>
    </g>
   </g>
   <g id="xtick_3">
    <g id="line2d_4">
     <path d="M 62.306543 106.140016 
L 61.407102 107.014027 
" style="fill: none; stroke: #000000; stroke-width: 0.8; stroke-linecap: square"/>
    </g>
    <g id="text_4">
     <!-- 2.5 -->
     <g transform="translate(46.601011 130.534224) scale(0.1 -0.1)">
      <use xlink:href="#DejaVuSans-32"/>
      <use xlink:href="#DejaVuSans-2e" x="63.623047"/>
      <use xlink:href="#DejaVuSans-35" x="95.410156"/>
     </g>
    </g>
   </g>
  </g>
  <g id="axis3d_2">
   <g id="line2d_5">
    <path d="M 111.617998 77.580219 
L 78.31517 111.757113 
" style="fill: none; stroke: #000000; stroke-width: 0.8; stroke-linecap: square"/>
   </g>
   <g id="text_5">
    <!-- PC 2 -->
    <g transform="translate(109.284787 122.472375) scale(0.1 -0.1)">
     <use xlink:href="#DejaVuSans-50"/>
     <use xlink:href="#DejaVuSans-43" x="60.302734"/>
     <use xlink:href="#DejaVuSans-20" x="130.126953"/>
     <use xlink:href="#DejaVuSans-32" x="161.914062"/>
    </g>
   </g>
   <g id="Line3DCollection_2">
    <path d="M 18.339351 40.380727 
L 20.371755 87.305508 
L 82.619644 107.339663 
" style="fill: none"/>
    <path d="M 31.831905 30.534476 
L 33.228911 76.528385 
L 94.258091 95.395754 
" style="fill: none"/>
    <path d="M 44.536067 21.263558 
L 45.366022 66.354818 
L 105.211892 84.154459 
" style="fill: none"/>
   </g>
   <g id="xtick_4">
    <g id="line2d_6">
     <path d="M 82.095217 107.170879 
L 83.669848 107.677666 
" style="fill: none; stroke: #000000; stroke-width: 0.8; stroke-linecap: square"/>
    </g>
    <g id="text_6">
     <!-- −5 -->
     <g transform="translate(88.075828 128.299908) scale(0.1 -0.1)">
      <use xlink:href="#DejaVuSans-2212"/>
      <use xlink:href="#DejaVuSans-35" x="83.789062"/>
     </g>
    </g>
   </g>
   <g id="xtick_5">
    <g id="line2d_7">
     <path d="M 93.744716 95.237043 
L 95.28612 95.713573 
" style="fill: none; stroke: #000000; stroke-width: 0.8; stroke-linecap: square"/>
    </g>
    <g id="text_7">
     <!-- 0 -->
     <g transform="translate(103.530902 115.934055) scale(0.1 -0.1)">
      <use xlink:href="#DejaVuSans-30"/>
     </g>
    </g>
   </g>
   <g id="xtick_6">
    <g id="line2d_8">
     <path d="M 104.709196 84.004945 
L 106.2185 84.45385 
" style="fill: none; stroke: #000000; stroke-width: 0.8; stroke-linecap: square"/>
    </g>
    <g id="text_8">
     <!-- 5 -->
     <g transform="translate(114.132554 104.296611) scale(0.1 -0.1)">
      <use xlink:href="#DejaVuSans-35"/>
     </g>
    </g>
   </g>
  </g>
  <g id="axis3d_3">
   <g id="line2d_9">
    <path d="M 111.617998 77.580219 
L 113.728406 31.494309 
" style="fill: none; stroke: #000000; stroke-width: 0.8; stroke-linecap: square"/>
   </g>
   <g id="text_9">
    <!-- -PC 1 -->
    <g transform="translate(150.081795 63.509328) rotate(-87.378092) scale(0.1 -0.1)">
     <defs>
      <path id="DejaVuSans-2d" d="M 313 2009 
L 1997 2009 
L 1997 1497 
L 313 1497 
L 313 2009 
z
" transform="scale(0.015625)"/>
      <path id="DejaVuSans-31" d="M 794 531 
L 1825 531 
L 1825 4091 
L 703 3866 
L 703 4441 
L 1819 4666 
L 2450 4666 
L 2450 531 
L 3481 531 
L 3481 0 
L 794 0 
L 794 531 
z
" transform="scale(0.015625)"/>
     </defs>
     <use xlink:href="#DejaVuSans-2d"/>
     <use xlink:href="#DejaVuSans-50" x="36.083984"/>
     <use xlink:href="#DejaVuSans-43" x="96.386719"/>
     <use xlink:href="#DejaVuSans-20" x="166.210938"/>
     <use xlink:href="#DejaVuSans-31" x="197.998047"/>
    </g>
   </g>
   <g id="Line3DCollection_3">
    <path d="M 112.171815 65.48627 
L 52.345885 48.681823 
L 15.030051 78.895924 
" style="fill: none"/>
    <path d="M 112.791907 51.945055 
L 52.195299 35.58649 
L 14.361522 65.013475 
" style="fill: none"/>
    <path d="M 113.428345 38.04686 
L 52.040937 22.162813 
L 13.674679 50.750739 
" style="fill: none"/>
   </g>
   <g id="xtick_7">
    <g id="line2d_10">
     <path d="M 111.669435 65.345157 
L 113.177785 65.768836 
" style="fill: none; stroke: #000000; stroke-width: 0.8; stroke-linecap: square"/>
    </g>
    <g id="text_10">
     <!-- −5 -->
     <g transform="translate(123.182036 70.547312) scale(0.1 -0.1)">
      <use xlink:href="#DejaVuSans-2212"/>
      <use xlink:href="#DejaVuSans-35" x="83.789062"/>
     </g>
    </g>
   </g>
   <g id="xtick_8">
    <g id="line2d_11">
     <path d="M 112.282741 51.807601 
L 113.811478 52.220297 
" style="fill: none; stroke: #000000; stroke-width: 0.8; stroke-linecap: square"/>
    </g>
    <g id="text_11">
     <!-- 0 -->
     <g transform="translate(128.224838 57.072122) scale(0.1 -0.1)">
      <use xlink:href="#DejaVuSans-30"/>
     </g>
    </g>
   </g>
   <g id="xtick_9">
    <g id="line2d_12">
     <path d="M 112.91221 37.91331 
L 114.461891 38.314291 
" style="fill: none; stroke: #000000; stroke-width: 0.8; stroke-linecap: square"/>
    </g>
    <g id="text_12">
     <!-- 5 -->
     <g transform="translate(129.100116 43.244318) scale(0.1 -0.1)">
      <use xlink:href="#DejaVuSans-35"/>
     </g>
    </g>
   </g>
  </g>
  <g id="axes_1">
   <g id="Path3DCollection_1">
    <defs>
     <path id="C0_0_4edc005316" d="M 0 1.936492 
C 0.513564 1.936492 1.006162 1.732451 1.369306 1.369306 
C 1.732451 1.006162 1.936492 0.513564 1.936492 -0 
C 1.936492 -0.513564 1.732451 -1.006162 1.369306 -1.369306 
C 1.006162 -1.732451 0.513564 -1.936492 0 -1.936492 
C -0.513564 -1.936492 -1.006162 -1.732451 -1.369306 -1.369306 
C -1.732451 -1.006162 -1.936492 -0.513564 -1.936492 0 
C -1.936492 0.513564 -1.732451 1.006162 -1.369306 1.369306 
C -1.006162 1.732451 -0.513564 1.936492 0 1.936492 
z
"/>
    </defs>
    <g clip-path="url(#p04ad75c083)">
     <use xlink:href="#C0_0_4edc005316" x="68.457287" y="62.836342" style="fill: #ff603d; fill-opacity: 0.6"/>
    </g>
    <g clip-path="url(#p04ad75c083)">
     <use xlink:href="#C0_0_4edc005316" x="72.16806" y="47.91397" style="fill: #910040; fill-opacity: 0.6"/>
    </g>
    <g clip-path="url(#p04ad75c083)">
     <use xlink:href="#C0_0_4edc005316" x="51.364716" y="61.797562" style="fill: #910040; fill-opacity: 0.6"/>
    </g>
    <g clip-path="url(#p04ad75c083)">
     <use xlink:href="#C0_0_4edc005316" x="96.241444" y="58.93256" style="fill: #ff603d; fill-opacity: 0.6"/>
    </g>
    <g clip-path="url(#p04ad75c083)">
     <use xlink:href="#C0_0_4edc005316" x="73.530984" y="65.922656" style="fill: #ff603d; fill-opacity: 0.6"/>
    </g>
    <g clip-path="url(#p04ad75c083)">
     <use xlink:href="#C0_0_4edc005316" x="63.319101" y="51.159194" style="fill: #ff603d; fill-opacity: 0.6"/>
    </g>
    <g clip-path="url(#p04ad75c083)">
     <use xlink:href="#C0_0_4edc005316" x="66.950053" y="63.296971" style="fill: #ff603d; fill-opacity: 0.6"/>
    </g>
    <g clip-path="url(#p04ad75c083)">
     <use xlink:href="#C0_0_4edc005316" x="62.364031" y="64.727716" style="fill: #910040; fill-opacity: 0.6"/>
    </g>
    <g clip-path="url(#p04ad75c083)">
     <use xlink:href="#C0_0_4edc005316" x="44.750653" y="62.450439" style="fill: #ff603d; fill-opacity: 0.6"/>
    </g>
    <g clip-path="url(#p04ad75c083)">
     <use xlink:href="#C0_0_4edc005316" x="59.675322" y="54.206928" style="fill: #ff603d; fill-opacity: 0.6"/>
    </g>
    <g clip-path="url(#p04ad75c083)">
     <use xlink:href="#C0_0_4edc005316" x="68.609649" y="57.738296" style="fill: #ff603d; fill-opacity: 0.6"/>
    </g>
    <g clip-path="url(#p04ad75c083)">
     <use xlink:href="#C0_0_4edc005316" x="49.648081" y="51.597723" style="fill: #910040; fill-opacity: 0.6"/>
    </g>
    <g clip-path="url(#p04ad75c083)">
     <use xlink:href="#C0_0_4edc005316" x="63.73653" y="54.614841" style="fill: #910040; fill-opacity: 0.6"/>
    </g>
    <g clip-path="url(#p04ad75c083)">
     <use xlink:href="#C0_0_4edc005316" x="70.39431" y="50.360993" style="fill: #910040; fill-opacity: 0.6"/>
    </g>
    <g clip-path="url(#p04ad75c083)">
     <use xlink:href="#C0_0_4edc005316" x="43.202665" y="52.503841" style="fill: #3880d9; fill-opacity: 0.6"/>
    </g>
    <g clip-path="url(#p04ad75c083)">
     <use xlink:href="#C0_0_4edc005316" x="60.43775" y="62.546274" style="fill: #910040; fill-opacity: 0.6"/>
    </g>
    <g clip-path="url(#p04ad75c083)">
     <use xlink:href="#C0_0_4edc005316" x="72.972364" y="53.282118" style="fill: #ff603d; fill-opacity: 0.6"/>
    </g>
    <g clip-path="url(#p04ad75c083)">
     <use xlink:href="#C0_0_4edc005316" x="80.374397" y="52.471374" style="fill: #ff603d; fill-opacity: 0.6"/>
    </g>
    <g clip-path="url(#p04ad75c083)">
     <use xlink:href="#C0_0_4edc005316" x="65.806174" y="60.367794" style="fill: #910040; fill-opacity: 0.6"/>
    </g>
    <g clip-path="url(#p04ad75c083)">
     <use xlink:href="#C0_0_4edc005316" x="54.654875" y="54.26058" style="fill: #910040; fill-opacity: 0.6"/>
    </g>
    <g clip-path="url(#p04ad75c083)">
     <use xlink:href="#C0_0_4edc005316" x="59.082534" y="51.528266" style="fill: #ff603d; fill-opacity: 0.6"/>
    </g>
    <g clip-path="url(#p04ad75c083)">
     <use xlink:href="#C0_0_4edc005316" x="57.095268" y="68.293365" style="fill: #ff603d; fill-opacity: 0.6"/>
    </g>
    <g clip-path="url(#p04ad75c083)">
     <use xlink:href="#C0_0_4edc005316" x="59.236127" y="49.150481" style="fill: #ff603d; fill-opacity: 0.6"/>
    </g>
    <g clip-path="url(#p04ad75c083)">
     <use xlink:href="#C0_0_4edc005316" x="70.066031" y="68.426047" style="fill: #ff603d; fill-opacity: 0.6"/>
    </g>
    <g clip-path="url(#p04ad75c083)">
     <use xlink:href="#C0_0_4edc005316" x="64.675227" y="50.003846" style="fill: #910040; fill-opacity: 0.6"/>
    </g>
    <g clip-path="url(#p04ad75c083)">
     <use xlink:href="#C0_0_4edc005316" x="59.101515" y="58.58307" style="fill: #ff603d; fill-opacity: 0.6"/>
    </g>
    <g clip-path="url(#p04ad75c083)">
     <use xlink:href="#C0_0_4edc005316" x="39.984974" y="49.318041" style="fill: #ff603d; fill-opacity: 0.6"/>
    </g>
    <g clip-path="url(#p04ad75c083)">
     <use xlink:href="#C0_0_4edc005316" x="62.79477" y="52.492504" style="fill: #ff603d; fill-opacity: 0.6"/>
    </g>
    <g clip-path="url(#p04ad75c083)">
     <use xlink:href="#C0_0_4edc005316" x="57.396772" y="53.459924" style="fill: #910040; fill-opacity: 0.6"/>
    </g>
    <g clip-path="url(#p04ad75c083)">
     <use xlink:href="#C0_0_4edc005316" x="58.661062" y="56.464856" style="fill: #ff603d; fill-opacity: 0.6"/>
    </g>
    <g clip-path="url(#p04ad75c083)">
     <use xlink:href="#C0_0_4edc005316" x="53.051686" y="65.492694" style="fill: #ff603d; fill-opacity: 0.6"/>
    </g>
    <g clip-path="url(#p04ad75c083)">
     <use xlink:href="#C0_0_4edc005316" x="46.363953" y="58.555782" style="fill: #ff603d; fill-opacity: 0.6"/>
    </g>
    <g clip-path="url(#p04ad75c083)">
     <use xlink:href="#C0_0_4edc005316" x="64.623906" y="69.148792" style="fill: #910040; fill-opacity: 0.6"/>
    </g>
    <g clip-path="url(#p04ad75c083)">
     <use xlink:href="#C0_0_4edc005316" x="61.349364" y="64.444644" style="fill: #ff603d; fill-opacity: 0.6"/>
    </g>
    <g clip-path="url(#p04ad75c083)">
     <use xlink:href="#C0_0_4edc005316" x="76.52334" y="56.142595" style="fill: #ff603d; fill-opacity: 0.6"/>
    </g>
    <g clip-path="url(#p04ad75c083)">
     <use xlink:href="#C0_0_4edc005316" x="50.115337" y="60.799438" style="fill: #ff603d; fill-opacity: 0.6"/>
    </g>
    <g clip-path="url(#p04ad75c083)">
     <use xlink:href="#C0_0_4edc005316" x="57.358461" y="54.49404" style="fill: #ff603d; fill-opacity: 0.6"/>
    </g>
    <g clip-path="url(#p04ad75c083)">
     <use xlink:href="#C0_0_4edc005316" x="82.652411" y="66.09321" style="fill: #910040; fill-opacity: 0.6"/>
    </g>
    <g clip-path="url(#p04ad75c083)">
     <use xlink:href="#C0_0_4edc005316" x="74.987292" y="56.881077" style="fill: #910040; fill-opacity: 0.6"/>
    </g>
    <g clip-path="url(#p04ad75c083)">
     <use xlink:href="#C0_0_4edc005316" x="59.927292" y="57.527995" style="fill: #910040; fill-opacity: 0.6"/>
    </g>
    <g clip-path="url(#p04ad75c083)">
     <use xlink:href="#C0_0_4edc005316" x="74.236349" y="64.922946" style="fill: #910040; fill-opacity: 0.6"/>
    </g>
    <g clip-path="url(#p04ad75c083)">
     <use xlink:href="#C0_0_4edc005316" x="62.630485" y="54.373365" style="fill: #ff603d; fill-opacity: 0.6"/>
    </g>
    <g clip-path="url(#p04ad75c083)">
     <use xlink:href="#C0_0_4edc005316" x="46.277648" y="59.274977" style="fill: #ff603d; fill-opacity: 0.6"/>
    </g>
    <g clip-path="url(#p04ad75c083)">
     <use xlink:href="#C0_0_4edc005316" x="54.60985" y="74.023299" style="fill: #ff603d; fill-opacity: 0.6"/>
    </g>
    <g clip-path="url(#p04ad75c083)">
     <use xlink:href="#C0_0_4edc005316" x="67.529522" y="53.434547" style="fill: #ff603d; fill-opacity: 0.6"/>
    </g>
    <g clip-path="url(#p04ad75c083)">
     <use xlink:href="#C0_0_4edc005316" x="55.792728" y="60.663151" style="fill: #3880d9; fill-opacity: 0.6"/>
    </g>
    <g clip-path="url(#p04ad75c083)">
     <use xlink:href="#C0_0_4edc005316" x="33.918092" y="54.237699" style="fill: #ff603d; fill-opacity: 0.6"/>
    </g>
    <g clip-path="url(#p04ad75c083)">
     <use xlink:href="#C0_0_4edc005316" x="79.539277" y="59.161898" style="fill: #ff603d; fill-opacity: 0.6"/>
    </g>
    <g clip-path="url(#p04ad75c083)">
     <use xlink:href="#C0_0_4edc005316" x="61.226205" y="59.710042" style="fill: #ff603d; fill-opacity: 0.6"/>
    </g>
    <g clip-path="url(#p04ad75c083)">
     <use xlink:href="#C0_0_4edc005316" x="55.901692" y="51.279956" style="fill: #ff603d; fill-opacity: 0.6"/>
    </g>
    <g clip-path="url(#p04ad75c083)">
     <use xlink:href="#C0_0_4edc005316" x="73.765584" y="52.488407" style="fill: #ff603d; fill-opacity: 0.6"/>
    </g>
    <g clip-path="url(#p04ad75c083)">
     <use xlink:href="#C0_0_4edc005316" x="58.589162" y="44.434709" style="fill: #ff603d; fill-opacity: 0.6"/>
    </g>
    <g clip-path="url(#p04ad75c083)">
     <use xlink:href="#C0_0_4edc005316" x="75.672305" y="59.943859" style="fill: #ff603d; fill-opacity: 0.6"/>
    </g>
    <g clip-path="url(#p04ad75c083)">
     <use xlink:href="#C0_0_4edc005316" x="62.594301" y="49.069344" style="fill: #ff603d; fill-opacity: 0.6"/>
    </g>
    <g clip-path="url(#p04ad75c083)">
     <use xlink:href="#C0_0_4edc005316" x="59.667142" y="41.773344" style="fill: #3880d9; fill-opacity: 0.6"/>
    </g>
    <g clip-path="url(#p04ad75c083)">
     <use xlink:href="#C0_0_4edc005316" x="53.048871" y="58.432964" style="fill: #910040; fill-opacity: 0.6"/>
    </g>
    <g clip-path="url(#p04ad75c083)">
     <use xlink:href="#C0_0_4edc005316" x="60.792614" y="70.163131" style="fill: #ff603d; fill-opacity: 0.6"/>
    </g>
    <g clip-path="url(#p04ad75c083)">
     <use xlink:href="#C0_0_4edc005316" x="66.321146" y="66.414514" style="fill: #ff603d; fill-opacity: 0.6"/>
    </g>
    <g clip-path="url(#p04ad75c083)">
     <use xlink:href="#C0_0_4edc005316" x="38.809395" y="48.971024" style="fill: #ff603d; fill-opacity: 0.6"/>
    </g>
    <g clip-path="url(#p04ad75c083)">
     <use xlink:href="#C0_0_4edc005316" x="67.056867" y="56.924784" style="fill: #ff603d; fill-opacity: 0.6"/>
    </g>
    <g clip-path="url(#p04ad75c083)">
     <use xlink:href="#C0_0_4edc005316" x="44.48866" y="69.242526" style="fill: #ff603d; fill-opacity: 0.6"/>
    </g>
    <g clip-path="url(#p04ad75c083)">
     <use xlink:href="#C0_0_4edc005316" x="58.300324" y="64.478071" style="fill: #ff603d; fill-opacity: 0.6"/>
    </g>
    <g clip-path="url(#p04ad75c083)">
     <use xlink:href="#C0_0_4edc005316" x="60.682464" y="52.666064" style="fill: #910040; fill-opacity: 0.6"/>
    </g>
    <g clip-path="url(#p04ad75c083)">
     <use xlink:href="#C0_0_4edc005316" x="30.906199" y="63.522075" style="fill: #ff603d; fill-opacity: 0.6"/>
    </g>
    <g clip-path="url(#p04ad75c083)">
     <use xlink:href="#C0_0_4edc005316" x="42.721885" y="72.979656" style="fill: #ff603d; fill-opacity: 0.6"/>
    </g>
    <g clip-path="url(#p04ad75c083)">
     <use xlink:href="#C0_0_4edc005316" x="50.26869" y="63.871804" style="fill: #910040; fill-opacity: 0.6"/>
    </g>
    <g clip-path="url(#p04ad75c083)">
     <use xlink:href="#C0_0_4edc005316" x="64.108155" y="55.808047" style="fill: #910040; fill-opacity: 0.6"/>
    </g>
    <g clip-path="url(#p04ad75c083)">
     <use xlink:href="#C0_0_4edc005316" x="72.369971" y="55.7322" style="fill: #910040; fill-opacity: 0.6"/>
    </g>
    <g clip-path="url(#p04ad75c083)">
     <use xlink:href="#C0_0_4edc005316" x="59.252591" y="83.069631" style="fill: #ff603d; fill-opacity: 0.6"/>
    </g>
    <g clip-path="url(#p04ad75c083)">
     <use xlink:href="#C0_0_4edc005316" x="67.675329" y="53.982903" style="fill: #910040; fill-opacity: 0.6"/>
    </g>
    <g clip-path="url(#p04ad75c083)">
     <use xlink:href="#C0_0_4edc005316" x="71.921221" y="51.211263" style="fill: #910040; fill-opacity: 0.6"/>
    </g>
    <g clip-path="url(#p04ad75c083)">
     <use xlink:href="#C0_0_4edc005316" x="65.122908" y="49.480398" style="fill: #ff603d; fill-opacity: 0.6"/>
    </g>
    <g clip-path="url(#p04ad75c083)">
     <use xlink:href="#C0_0_4edc005316" x="66.814201" y="63.36459" style="fill: #910040; fill-opacity: 0.6"/>
    </g>
    <g clip-path="url(#p04ad75c083)">
     <use xlink:href="#C0_0_4edc005316" x="67.098032" y="57.536676" style="fill: #ff603d; fill-opacity: 0.6"/>
    </g>
    <g clip-path="url(#p04ad75c083)">
     <use xlink:href="#C0_0_4edc005316" x="68.421119" y="51.084936" style="fill: #ff603d; fill-opacity: 0.6"/>
    </g>
    <g clip-path="url(#p04ad75c083)">
     <use xlink:href="#C0_0_4edc005316" x="64.200936" y="48.180428" style="fill: #910040; fill-opacity: 0.6"/>
    </g>
    <g clip-path="url(#p04ad75c083)">
     <use xlink:href="#C0_0_4edc005316" x="57.963185" y="65.985559" style="fill: #ff603d; fill-opacity: 0.6"/>
    </g>
    <g clip-path="url(#p04ad75c083)">
     <use xlink:href="#C0_0_4edc005316" x="55.84614" y="57.861103" style="fill: #ff603d; fill-opacity: 0.6"/>
    </g>
    <g clip-path="url(#p04ad75c083)">
     <use xlink:href="#C0_0_4edc005316" x="73.239248" y="55.592744" style="fill: #ff603d; fill-opacity: 0.6"/>
    </g>
    <g clip-path="url(#p04ad75c083)">
     <use xlink:href="#C0_0_4edc005316" x="50.195678" y="56.508228" style="fill: #ff603d; fill-opacity: 0.6"/>
    </g>
    <g clip-path="url(#p04ad75c083)">
     <use xlink:href="#C0_0_4edc005316" x="67.72226" y="53.999249" style="fill: #ff603d; fill-opacity: 0.6"/>
    </g>
    <g clip-path="url(#p04ad75c083)">
     <use xlink:href="#C0_0_4edc005316" x="82.732723" y="63.005045" style="fill: #910040; fill-opacity: 0.6"/>
    </g>
    <g clip-path="url(#p04ad75c083)">
     <use xlink:href="#C0_0_4edc005316" x="65.791583" y="49.579084" style="fill: #3880d9; fill-opacity: 0.6"/>
    </g>
    <g clip-path="url(#p04ad75c083)">
     <use xlink:href="#C0_0_4edc005316" x="68.456406" y="76.406528" style="fill: #3880d9; fill-opacity: 0.6"/>
    </g>
    <g clip-path="url(#p04ad75c083)">
     <use xlink:href="#C0_0_4edc005316" x="46.732611" y="53.446606" style="fill: #3880d9; fill-opacity: 0.6"/>
    </g>
    <g clip-path="url(#p04ad75c083)">
     <use xlink:href="#C0_0_4edc005316" x="52.784319" y="59.225882" style="fill: #3880d9; fill-opacity: 0.6"/>
    </g>
    <g clip-path="url(#p04ad75c083)">
     <use xlink:href="#C0_0_4edc005316" x="53.731001" y="61.603828" style="fill: #ff603d; fill-opacity: 0.6"/>
    </g>
    <g clip-path="url(#p04ad75c083)">
     <use xlink:href="#C0_0_4edc005316" x="50.512579" y="64.576873" style="fill: #ff603d; fill-opacity: 0.6"/>
    </g>
    <g clip-path="url(#p04ad75c083)">
     <use xlink:href="#C0_0_4edc005316" x="59.391677" y="53.247434" style="fill: #3880d9; fill-opacity: 0.6"/>
    </g>
    <g clip-path="url(#p04ad75c083)">
     <use xlink:href="#C0_0_4edc005316" x="59.357302" y="41.055238" style="fill: #3880d9; fill-opacity: 0.6"/>
    </g>
    <g clip-path="url(#p04ad75c083)">
     <use xlink:href="#C0_0_4edc005316" x="68.03333" y="51.64702" style="fill: #910040; fill-opacity: 0.6"/>
    </g>
    <g clip-path="url(#p04ad75c083)">
     <use xlink:href="#C0_0_4edc005316" x="58.180537" y="77.699332" style="fill: #ff603d; fill-opacity: 0.6"/>
    </g>
    <g clip-path="url(#p04ad75c083)">
     <use xlink:href="#C0_0_4edc005316" x="71.676958" y="50.947342" style="fill: #910040; fill-opacity: 0.6"/>
    </g>
    <g clip-path="url(#p04ad75c083)">
     <use xlink:href="#C0_0_4edc005316" x="58.939397" y="69.287473" style="fill: #ff603d; fill-opacity: 0.6"/>
    </g>
    <g clip-path="url(#p04ad75c083)">
     <use xlink:href="#C0_0_4edc005316" x="76.757744" y="52.447273" style="fill: #3880d9; fill-opacity: 0.6"/>
    </g>
    <g clip-path="url(#p04ad75c083)">
     <use xlink:href="#C0_0_4edc005316" x="58.453817" y="50.202654" style="fill: #ff603d; fill-opacity: 0.6"/>
    </g>
    <g clip-path="url(#p04ad75c083)">
     <use xlink:href="#C0_0_4edc005316" x="65.371396" y="47.039007" style="fill: #910040; fill-opacity: 0.6"/>
    </g>
    <g clip-path="url(#p04ad75c083)">
     <use xlink:href="#C0_0_4edc005316" x="62.075214" y="70.493235" style="fill: #ff603d; fill-opacity: 0.6"/>
    </g>
    <g clip-path="url(#p04ad75c083)">
     <use xlink:href="#C0_0_4edc005316" x="54.29701" y="67.807123" style="fill: #ff603d; fill-opacity: 0.6"/>
    </g>
    <g clip-path="url(#p04ad75c083)">
     <use xlink:href="#C0_0_4edc005316" x="75.927885" y="58.384835" style="fill: #910040; fill-opacity: 0.6"/>
    </g>
    <g clip-path="url(#p04ad75c083)">
     <use xlink:href="#C0_0_4edc005316" x="71.138915" y="55.783488" style="fill: #ff603d; fill-opacity: 0.6"/>
    </g>
    <g clip-path="url(#p04ad75c083)">
     <use xlink:href="#C0_0_4edc005316" x="61.207685" y="59.322136" style="fill: #3880d9; fill-opacity: 0.6"/>
    </g>
    <g clip-path="url(#p04ad75c083)">
     <use xlink:href="#C0_0_4edc005316" x="55.104554" y="55.978767" style="fill: #910040; fill-opacity: 0.6"/>
    </g>
    <g clip-path="url(#p04ad75c083)">
     <use xlink:href="#C0_0_4edc005316" x="78.093787" y="47.839221" style="fill: #910040; fill-opacity: 0.6"/>
    </g>
    <g clip-path="url(#p04ad75c083)">
     <use xlink:href="#C0_0_4edc005316" x="77.468145" y="56.364263" style="fill: #ff603d; fill-opacity: 0.6"/>
    </g>
    <g clip-path="url(#p04ad75c083)">
     <use xlink:href="#C0_0_4edc005316" x="65.001478" y="44.870943" style="fill: #3880d9; fill-opacity: 0.6"/>
    </g>
    <g clip-path="url(#p04ad75c083)">
     <use xlink:href="#C0_0_4edc005316" x="78.114805" y="75.751046" style="fill: #ff603d; fill-opacity: 0.6"/>
    </g>
    <g clip-path="url(#p04ad75c083)">
     <use xlink:href="#C0_0_4edc005316" x="49.685024" y="64.742969" style="fill: #ff603d; fill-opacity: 0.6"/>
    </g>
    <g clip-path="url(#p04ad75c083)">
     <use xlink:href="#C0_0_4edc005316" x="69.035226" y="57.856689" style="fill: #910040; fill-opacity: 0.6"/>
    </g>
    <g clip-path="url(#p04ad75c083)">
     <use xlink:href="#C0_0_4edc005316" x="52.757143" y="49.500174" style="fill: #3880d9; fill-opacity: 0.6"/>
    </g>
    <g clip-path="url(#p04ad75c083)">
     <use xlink:href="#C0_0_4edc005316" x="52.855947" y="71.934982" style="fill: #ff603d; fill-opacity: 0.6"/>
    </g>
    <g clip-path="url(#p04ad75c083)">
     <use xlink:href="#C0_0_4edc005316" x="37.194061" y="75.541231" style="fill: #ff603d; fill-opacity: 0.6"/>
    </g>
    <g clip-path="url(#p04ad75c083)">
     <use xlink:href="#C0_0_4edc005316" x="56.714728" y="63.275475" style="fill: #ff603d; fill-opacity: 0.6"/>
    </g>
    <g clip-path="url(#p04ad75c083)">
     <use xlink:href="#C0_0_4edc005316" x="56.539818" y="81.832629" style="fill: #ff603d; fill-opacity: 0.6"/>
    </g>
    <g clip-path="url(#p04ad75c083)">
     <use xlink:href="#C0_0_4edc005316" x="65.791601" y="53.131435" style="fill: #910040; fill-opacity: 0.6"/>
    </g>
    <g clip-path="url(#p04ad75c083)">
     <use xlink:href="#C0_0_4edc005316" x="74.207906" y="58.892985" style="fill: #910040; fill-opacity: 0.6"/>
    </g>
    <g clip-path="url(#p04ad75c083)">
     <use xlink:href="#C0_0_4edc005316" x="81.042004" y="56.390939" style="fill: #ff603d; fill-opacity: 0.6"/>
    </g>
    <g clip-path="url(#p04ad75c083)">
     <use xlink:href="#C0_0_4edc005316" x="78.701236" y="57.600392" style="fill: #ff603d; fill-opacity: 0.6"/>
    </g>
    <g clip-path="url(#p04ad75c083)">
     <use xlink:href="#C0_0_4edc005316" x="67.139835" y="55.614363" style="fill: #3880d9; fill-opacity: 0.6"/>
    </g>
    <g clip-path="url(#p04ad75c083)">
     <use xlink:href="#C0_0_4edc005316" x="59.841491" y="58.06129" style="fill: #ff603d; fill-opacity: 0.6"/>
    </g>
    <g clip-path="url(#p04ad75c083)">
     <use xlink:href="#C0_0_4edc005316" x="67.074879" y="73.963084" style="fill: #ff603d; fill-opacity: 0.6"/>
    </g>
    <g clip-path="url(#p04ad75c083)">
     <use xlink:href="#C0_0_4edc005316" x="63.252809" y="48.014333" style="fill: #910040; fill-opacity: 0.6"/>
    </g>
    <g clip-path="url(#p04ad75c083)">
     <use xlink:href="#C0_0_4edc005316" x="53.677529" y="73.402977" style="fill: #ff603d; fill-opacity: 0.6"/>
    </g>
    <g clip-path="url(#p04ad75c083)">
     <use xlink:href="#C0_0_4edc005316" x="59.083406" y="64.77787" style="fill: #ff603d; fill-opacity: 0.6"/>
    </g>
    <g clip-path="url(#p04ad75c083)">
     <use xlink:href="#C0_0_4edc005316" x="57.232209" y="45.018141" style="fill: #3880d9; fill-opacity: 0.6"/>
    </g>
    <g clip-path="url(#p04ad75c083)">
     <use xlink:href="#C0_0_4edc005316" x="50.615127" y="68.267913" style="fill: #910040; fill-opacity: 0.6"/>
    </g>
    <g clip-path="url(#p04ad75c083)">
     <use xlink:href="#C0_0_4edc005316" x="59.857495" y="58.407869" style="fill: #910040; fill-opacity: 0.6"/>
    </g>
    <g clip-path="url(#p04ad75c083)">
     <use xlink:href="#C0_0_4edc005316" x="50.149241" y="54.826385" style="fill: #ff603d; fill-opacity: 0.6"/>
    </g>
    <g clip-path="url(#p04ad75c083)">
     <use xlink:href="#C0_0_4edc005316" x="73.820585" y="55.013327" style="fill: #ff603d; fill-opacity: 0.6"/>
    </g>
    <g clip-path="url(#p04ad75c083)">
     <use xlink:href="#C0_0_4edc005316" x="73.698122" y="93.003679" style="fill: #ff603d; fill-opacity: 0.6"/>
    </g>
    <g clip-path="url(#p04ad75c083)">
     <use xlink:href="#C0_0_4edc005316" x="57.207644" y="51.880005" style="fill: #3880d9; fill-opacity: 0.6"/>
    </g>
    <g clip-path="url(#p04ad75c083)">
     <use xlink:href="#C0_0_4edc005316" x="62.661674" y="57.53066" style="fill: #ff603d; fill-opacity: 0.6"/>
    </g>
    <g clip-path="url(#p04ad75c083)">
     <use xlink:href="#C0_0_4edc005316" x="68.249211" y="74.539087" style="fill: #ff603d; fill-opacity: 0.6"/>
    </g>
    <g clip-path="url(#p04ad75c083)">
     <use xlink:href="#C0_0_4edc005316" x="63.023923" y="62.770798" style="fill: #ff603d; fill-opacity: 0.6"/>
    </g>
    <g clip-path="url(#p04ad75c083)">
     <use xlink:href="#C0_0_4edc005316" x="43.98172" y="55.294993" style="fill: #ff603d; fill-opacity: 0.6"/>
    </g>
    <g clip-path="url(#p04ad75c083)">
     <use xlink:href="#C0_0_4edc005316" x="66.856978" y="58.758794" style="fill: #ff603d; fill-opacity: 0.6"/>
    </g>
    <g clip-path="url(#p04ad75c083)">
     <use xlink:href="#C0_0_4edc005316" x="76.151564" y="59.84442" style="fill: #3880d9; fill-opacity: 0.6"/>
    </g>
    <g clip-path="url(#p04ad75c083)">
     <use xlink:href="#C0_0_4edc005316" x="52.545648" y="58.352195" style="fill: #910040; fill-opacity: 0.6"/>
    </g>
    <g clip-path="url(#p04ad75c083)">
     <use xlink:href="#C0_0_4edc005316" x="88.683955" y="64.956328" style="fill: #ff603d; fill-opacity: 0.6"/>
    </g>
    <g clip-path="url(#p04ad75c083)">
     <use xlink:href="#C0_0_4edc005316" x="59.641411" y="52.278164" style="fill: #ff603d; fill-opacity: 0.6"/>
    </g>
    <g clip-path="url(#p04ad75c083)">
     <use xlink:href="#C0_0_4edc005316" x="64.580997" y="55.346112" style="fill: #ff603d; fill-opacity: 0.6"/>
    </g>
    <g clip-path="url(#p04ad75c083)">
     <use xlink:href="#C0_0_4edc005316" x="73.776701" y="57.382939" style="fill: #3880d9; fill-opacity: 0.6"/>
    </g>
    <g clip-path="url(#p04ad75c083)">
     <use xlink:href="#C0_0_4edc005316" x="35.541531" y="62.541151" style="fill: #ff603d; fill-opacity: 0.6"/>
    </g>
    <g clip-path="url(#p04ad75c083)">
     <use xlink:href="#C0_0_4edc005316" x="60.266069" y="41.286241" style="fill: #3880d9; fill-opacity: 0.6"/>
    </g>
    <g clip-path="url(#p04ad75c083)">
     <use xlink:href="#C0_0_4edc005316" x="91.827439" y="60.905483" style="fill: #ff603d; fill-opacity: 0.6"/>
    </g>
    <g clip-path="url(#p04ad75c083)">
     <use xlink:href="#C0_0_4edc005316" x="58.841861" y="51.2937" style="fill: #ff603d; fill-opacity: 0.6"/>
    </g>
    <g clip-path="url(#p04ad75c083)">
     <use xlink:href="#C0_0_4edc005316" x="68.738586" y="74.211819" style="fill: #ff603d; fill-opacity: 0.6"/>
    </g>
    <g clip-path="url(#p04ad75c083)">
     <use xlink:href="#C0_0_4edc005316" x="53.81972" y="68.361823" style="fill: #ff603d; fill-opacity: 0.6"/>
    </g>
    <g clip-path="url(#p04ad75c083)">
     <use xlink:href="#C0_0_4edc005316" x="76.651331" y="83.900992" style="fill: #ff603d; fill-opacity: 0.6"/>
    </g>
    <g clip-path="url(#p04ad75c083)">
     <use xlink:href="#C0_0_4edc005316" x="55.250143" y="68.423092" style="fill: #ff603d; fill-opacity: 0.6"/>
    </g>
    <g clip-path="url(#p04ad75c083)">
     <use xlink:href="#C0_0_4edc005316" x="49.83106" y="59.132702" style="fill: #ff603d; fill-opacity: 0.6"/>
    </g>
    <g clip-path="url(#p04ad75c083)">
     <use xlink:href="#C0_0_4edc005316" x="46.603057" y="71.930486" style="fill: #ff603d; fill-opacity: 0.6"/>
    </g>
    <g clip-path="url(#p04ad75c083)">
     <use xlink:href="#C0_0_4edc005316" x="64.445318" y="71.812388" style="fill: #ff603d; fill-opacity: 0.6"/>
    </g>
    <g clip-path="url(#p04ad75c083)">
     <use xlink:href="#C0_0_4edc005316" x="43.873096" y="42.749247" style="fill: #3880d9; fill-opacity: 0.6"/>
    </g>
    <g clip-path="url(#p04ad75c083)">
     <use xlink:href="#C0_0_4edc005316" x="52.77779" y="50.412131" style="fill: #3880d9; fill-opacity: 0.6"/>
    </g>
    <g clip-path="url(#p04ad75c083)">
     <use xlink:href="#C0_0_4edc005316" x="47.926675" y="43.528663" style="fill: #3880d9; fill-opacity: 0.6"/>
    </g>
    <g clip-path="url(#p04ad75c083)">
     <use xlink:href="#C0_0_4edc005316" x="58.723246" y="75.701668" style="fill: #ff603d; fill-opacity: 0.6"/>
    </g>
    <g clip-path="url(#p04ad75c083)">
     <use xlink:href="#C0_0_4edc005316" x="61.208872" y="75.029315" style="fill: #ff603d; fill-opacity: 0.6"/>
    </g>
    <g clip-path="url(#p04ad75c083)">
     <use xlink:href="#C0_0_4edc005316" x="62.87066" y="54.271959" style="fill: #3880d9; fill-opacity: 0.6"/>
    </g>
    <g clip-path="url(#p04ad75c083)">
     <use xlink:href="#C0_0_4edc005316" x="80.387446" y="72.846445" style="fill: #ff603d; fill-opacity: 0.6"/>
    </g>
    <g clip-path="url(#p04ad75c083)">
     <use xlink:href="#C0_0_4edc005316" x="75.503213" y="53.83357" style="fill: #ff603d; fill-opacity: 0.6"/>
    </g>
    <g clip-path="url(#p04ad75c083)">
     <use xlink:href="#C0_0_4edc005316" x="45.373751" y="45.542506" style="fill: #910040; fill-opacity: 0.6"/>
    </g>
    <g clip-path="url(#p04ad75c083)">
     <use xlink:href="#C0_0_4edc005316" x="47.341107" y="55.129879" style="fill: #3880d9; fill-opacity: 0.6"/>
    </g>
    <g clip-path="url(#p04ad75c083)">
     <use xlink:href="#C0_0_4edc005316" x="71.005664" y="57.036593" style="fill: #910040; fill-opacity: 0.6"/>
    </g>
    <g clip-path="url(#p04ad75c083)">
     <use xlink:href="#C0_0_4edc005316" x="60.302003" y="62.866476" style="fill: #3880d9; fill-opacity: 0.6"/>
    </g>
    <g clip-path="url(#p04ad75c083)">
     <use xlink:href="#C0_0_4edc005316" x="64.871417" y="57.742271" style="fill: #910040; fill-opacity: 0.6"/>
    </g>
    <g clip-path="url(#p04ad75c083)">
     <use xlink:href="#C0_0_4edc005316" x="53.347426" y="63.202485" style="fill: #ff603d; fill-opacity: 0.6"/>
    </g>
    <g clip-path="url(#p04ad75c083)">
     <use xlink:href="#C0_0_4edc005316" x="47.850425" y="46.54451" style="fill: #3880d9; fill-opacity: 0.6"/>
    </g>
    <g clip-path="url(#p04ad75c083)">
     <use xlink:href="#C0_0_4edc005316" x="57.586745" y="47.103608" style="fill: #3880d9; fill-opacity: 0.6"/>
    </g>
    <g clip-path="url(#p04ad75c083)">
     <use xlink:href="#C0_0_4edc005316" x="43.984125" y="73.469398" style="fill: #ff603d; fill-opacity: 0.6"/>
    </g>
    <g clip-path="url(#p04ad75c083)">
     <use xlink:href="#C0_0_4edc005316" x="67.115839" y="52.47907" style="fill: #3880d9; fill-opacity: 0.6"/>
    </g>
    <g clip-path="url(#p04ad75c083)">
     <use xlink:href="#C0_0_4edc005316" x="61.95125" y="74.88071" style="fill: #ff603d; fill-opacity: 0.6"/>
    </g>
    <g clip-path="url(#p04ad75c083)">
     <use xlink:href="#C0_0_4edc005316" x="58.857011" y="53.727415" style="fill: #3880d9; fill-opacity: 0.6"/>
    </g>
    <g clip-path="url(#p04ad75c083)">
     <use xlink:href="#C0_0_4edc005316" x="65.572225" y="46.066169" style="fill: #910040; fill-opacity: 0.6"/>
    </g>
    <g clip-path="url(#p04ad75c083)">
     <use xlink:href="#C0_0_4edc005316" x="64.994405" y="51.938947" style="fill: #3880d9; fill-opacity: 0.6"/>
    </g>
    <g clip-path="url(#p04ad75c083)">
     <use xlink:href="#C0_0_4edc005316" x="66.676403" y="62.552245" style="fill: #ff603d; fill-opacity: 0.6"/>
    </g>
    <g clip-path="url(#p04ad75c083)">
     <use xlink:href="#C0_0_4edc005316" x="70.849862" y="46.809105" style="fill: #3880d9; fill-opacity: 0.6"/>
    </g>
    <g clip-path="url(#p04ad75c083)">
     <use xlink:href="#C0_0_4edc005316" x="57.015124" y="59.720001" style="fill: #910040; fill-opacity: 0.6"/>
    </g>
    <g clip-path="url(#p04ad75c083)">
     <use xlink:href="#C0_0_4edc005316" x="66.206416" y="72.356183" style="fill: #ff603d; fill-opacity: 0.6"/>
    </g>
    <g clip-path="url(#p04ad75c083)">
     <use xlink:href="#C0_0_4edc005316" x="62.244681" y="54.596879" style="fill: #3880d9; fill-opacity: 0.6"/>
    </g>
    <g clip-path="url(#p04ad75c083)">
     <use xlink:href="#C0_0_4edc005316" x="76.511735" y="58.926707" style="fill: #910040; fill-opacity: 0.6"/>
    </g>
    <g clip-path="url(#p04ad75c083)">
     <use xlink:href="#C0_0_4edc005316" x="74.847897" y="55.725185" style="fill: #910040; fill-opacity: 0.6"/>
    </g>
    <g clip-path="url(#p04ad75c083)">
     <use xlink:href="#C0_0_4edc005316" x="80.359879" y="67.550795" style="fill: #ff603d; fill-opacity: 0.6"/>
    </g>
    <g clip-path="url(#p04ad75c083)">
     <use xlink:href="#C0_0_4edc005316" x="63.621478" y="59.935754" style="fill: #910040; fill-opacity: 0.6"/>
    </g>
    <g clip-path="url(#p04ad75c083)">
     <use xlink:href="#C0_0_4edc005316" x="58.549148" y="54.464537" style="fill: #3880d9; fill-opacity: 0.6"/>
    </g>
    <g clip-path="url(#p04ad75c083)">
     <use xlink:href="#C0_0_4edc005316" x="68.902269" y="50.19289" style="fill: #3880d9; fill-opacity: 0.6"/>
    </g>
    <g clip-path="url(#p04ad75c083)">
     <use xlink:href="#C0_0_4edc005316" x="79.2239" y="53.660983" style="fill: #ff603d; fill-opacity: 0.6"/>
    </g>
    <g clip-path="url(#p04ad75c083)">
     <use xlink:href="#C0_0_4edc005316" x="43.321693" y="85.201944" style="fill: #ff603d; fill-opacity: 0.6"/>
    </g>
    <g clip-path="url(#p04ad75c083)">
     <use xlink:href="#C0_0_4edc005316" x="61.551506" y="82.170535" style="fill: #ff603d; fill-opacity: 0.6"/>
    </g>
    <g clip-path="url(#p04ad75c083)">
     <use xlink:href="#C0_0_4edc005316" x="77.332263" y="52.972887" style="fill: #3880d9; fill-opacity: 0.6"/>
    </g>
    <g clip-path="url(#p04ad75c083)">
     <use xlink:href="#C0_0_4edc005316" x="48.254622" y="54.49893" style="fill: #910040; fill-opacity: 0.6"/>
    </g>
    <g clip-path="url(#p04ad75c083)">
     <use xlink:href="#C0_0_4edc005316" x="54.494676" y="57.093767" style="fill: #3880d9; fill-opacity: 0.6"/>
    </g>
    <g clip-path="url(#p04ad75c083)">
     <use xlink:href="#C0_0_4edc005316" x="50.500667" y="82.959239" style="fill: #ff603d; fill-opacity: 0.6"/>
    </g>
    <g clip-path="url(#p04ad75c083)">
     <use xlink:href="#C0_0_4edc005316" x="70.343911" y="52.677613" style="fill: #3880d9; fill-opacity: 0.6"/>
    </g>
    <g clip-path="url(#p04ad75c083)">
     <use xlink:href="#C0_0_4edc005316" x="83.822204" y="66.615268" style="fill: #910040; fill-opacity: 0.6"/>
    </g>
    <g clip-path="url(#p04ad75c083)">
     <use xlink:href="#C0_0_4edc005316" x="47.862716" y="80.043082" style="fill: #ff603d; fill-opacity: 0.6"/>
    </g>
    <g clip-path="url(#p04ad75c083)">
     <use xlink:href="#C0_0_4edc005316" x="70.334332" y="56.93293" style="fill: #3880d9; fill-opacity: 0.6"/>
    </g>
    <g clip-path="url(#p04ad75c083)">
     <use xlink:href="#C0_0_4edc005316" x="46.621741" y="54.710034" style="fill: #3880d9; fill-opacity: 0.6"/>
    </g>
    <g clip-path="url(#p04ad75c083)">
     <use xlink:href="#C0_0_4edc005316" x="65.914168" y="54.297007" style="fill: #3880d9; fill-opacity: 0.6"/>
    </g>
    <g clip-path="url(#p04ad75c083)">
     <use xlink:href="#C0_0_4edc005316" x="79.023561" y="78.594482" style="fill: #ff603d; fill-opacity: 0.6"/>
    </g>
    <g clip-path="url(#p04ad75c083)">
     <use xlink:href="#C0_0_4edc005316" x="52.810885" y="49.638397" style="fill: #3880d9; fill-opacity: 0.6"/>
    </g>
    <g clip-path="url(#p04ad75c083)">
     <use xlink:href="#C0_0_4edc005316" x="82.696942" y="98.49277" style="fill: #ff603d; fill-opacity: 0.6"/>
    </g>
    <g clip-path="url(#p04ad75c083)">
     <use xlink:href="#C0_0_4edc005316" x="62.917226" y="55.23333" style="fill: #3880d9; fill-opacity: 0.6"/>
    </g>
    <g clip-path="url(#p04ad75c083)">
     <use xlink:href="#C0_0_4edc005316" x="76.736538" y="44.427279" style="fill: #3880d9; fill-opacity: 0.6"/>
    </g>
    <g clip-path="url(#p04ad75c083)">
     <use xlink:href="#C0_0_4edc005316" x="67.08139" y="53.915494" style="fill: #3880d9; fill-opacity: 0.6"/>
    </g>
    <g clip-path="url(#p04ad75c083)">
     <use xlink:href="#C0_0_4edc005316" x="57.043449" y="46.86072" style="fill: #3880d9; fill-opacity: 0.6"/>
    </g>
    <g clip-path="url(#p04ad75c083)">
     <use xlink:href="#C0_0_4edc005316" x="64.55298" y="57.358671" style="fill: #3880d9; fill-opacity: 0.6"/>
    </g>
    <g clip-path="url(#p04ad75c083)">
     <use xlink:href="#C0_0_4edc005316" x="52.160362" y="66.855077" style="fill: #ff603d; fill-opacity: 0.6"/>
    </g>
    <g clip-path="url(#p04ad75c083)">
     <use xlink:href="#C0_0_4edc005316" x="59.519054" y="59.926116" style="fill: #ff603d; fill-opacity: 0.6"/>
    </g>
    <g clip-path="url(#p04ad75c083)">
     <use xlink:href="#C0_0_4edc005316" x="72.913212" y="58.77955" style="fill: #3880d9; fill-opacity: 0.6"/>
    </g>
    <g clip-path="url(#p04ad75c083)">
     <use xlink:href="#C0_0_4edc005316" x="53.465246" y="43.841032" style="fill: #3880d9; fill-opacity: 0.6"/>
    </g>
    <g clip-path="url(#p04ad75c083)">
     <use xlink:href="#C0_0_4edc005316" x="70.85552" y="55.444215" style="fill: #3880d9; fill-opacity: 0.6"/>
    </g>
    <g clip-path="url(#p04ad75c083)">
     <use xlink:href="#C0_0_4edc005316" x="58.067667" y="63.92904" style="fill: #ff603d; fill-opacity: 0.6"/>
    </g>
    <g clip-path="url(#p04ad75c083)">
     <use xlink:href="#C0_0_4edc005316" x="50.944231" y="54.815965" style="fill: #3880d9; fill-opacity: 0.6"/>
    </g>
    <g clip-path="url(#p04ad75c083)">
     <use xlink:href="#C0_0_4edc005316" x="79.049246" y="62.926247" style="fill: #910040; fill-opacity: 0.6"/>
    </g>
    <g clip-path="url(#p04ad75c083)">
     <use xlink:href="#C0_0_4edc005316" x="52.818381" y="66.263387" style="fill: #910040; fill-opacity: 0.6"/>
    </g>
    <g clip-path="url(#p04ad75c083)">
     <use xlink:href="#C0_0_4edc005316" x="55.793752" y="54.949857" style="fill: #3880d9; fill-opacity: 0.6"/>
    </g>
    <g clip-path="url(#p04ad75c083)">
     <use xlink:href="#C0_0_4edc005316" x="51.210622" y="55.298991" style="fill: #ff603d; fill-opacity: 0.6"/>
    </g>
    <g clip-path="url(#p04ad75c083)">
     <use xlink:href="#C0_0_4edc005316" x="50.486832" y="67.67152" style="fill: #3880d9; fill-opacity: 0.6"/>
    </g>
    <g clip-path="url(#p04ad75c083)">
     <use xlink:href="#C0_0_4edc005316" x="73.140967" y="82.409708" style="fill: #ff603d; fill-opacity: 0.6"/>
    </g>
    <g clip-path="url(#p04ad75c083)">
     <use xlink:href="#C0_0_4edc005316" x="58.338892" y="61.064742" style="fill: #3880d9; fill-opacity: 0.6"/>
    </g>
    <g clip-path="url(#p04ad75c083)">
     <use xlink:href="#C0_0_4edc005316" x="65.071668" y="62.927971" style="fill: #3880d9; fill-opacity: 0.6"/>
    </g>
    <g clip-path="url(#p04ad75c083)">
     <use xlink:href="#C0_0_4edc005316" x="60.830734" y="62.285688" style="fill: #3880d9; fill-opacity: 0.6"/>
    </g>
    <g clip-path="url(#p04ad75c083)">
     <use xlink:href="#C0_0_4edc005316" x="73.58022" y="57.543794" style="fill: #3880d9; fill-opacity: 0.6"/>
    </g>
    <g clip-path="url(#p04ad75c083)">
     <use xlink:href="#C0_0_4edc005316" x="87.721647" y="63.526756" style="fill: #ff603d; fill-opacity: 0.6"/>
    </g>
    <g clip-path="url(#p04ad75c083)">
     <use xlink:href="#C0_0_4edc005316" x="81.281434" y="68.980507" style="fill: #910040; fill-opacity: 0.6"/>
    </g>
   </g>
  </g>
 </g>
 <defs>
  <clipPath id="p04ad75c083">
   <rect x="7.2" y="7.2" width="111.6" height="111.6"/>
  </clipPath>
 </defs>
</svg>
