<?xml version="1.0" encoding="utf-8" standalone="no"?>
<!DOCTYPE svg PUBLIC "-//W3C//DTD SVG 1.1//EN"
  "http://www.w3.org/Graphics/SVG/1.1/DTD/svg11.dtd">
<svg xmlns:xlink="http://www.w3.org/1999/xlink" width="232.1425pt" height="100.19625pt" viewBox="0 0 232.1425 100.19625" xmlns="http://www.w3.org/2000/svg" version="1.1">
 <metadata>
  <rdf:RDF xmlns:dc="http://purl.org/dc/elements/1.1/" xmlns:cc="http://creativecommons.org/ns#" xmlns:rdf="http://www.w3.org/1999/02/22-rdf-syntax-ns#">
   <cc:Work>
    <dc:type rdf:resource="http://purl.org/dc/dcmitype/StillImage"/>
    <dc:date>2023-08-10T12:05:05.759405</dc:date>
    <dc:format>image/svg+xml</dc:format>
    <dc:creator>
     <cc:Agent>
      <dc:title>Matplotlib v3.7.2, https://matplotlib.org/</dc:title>
     </cc:Agent>
    </dc:creator>
   </cc:Work>
  </rdf:RDF>
 </metadata>
 <defs>
  <style type="text/css">*{stroke-linejoin: round; stroke-linecap: butt}</style>
 </defs>
 <g id="figure_1">
  <g id="patch_1">
   <path d="M -0 100.19625 
L 232.1425 100.19625 
L 232.1425 0 
L -0 0 
z
" style="fill: #ffffff"/>
  </g>
  <g id="axes_1">
   <g id="patch_2">
    <path d="M 42.620313 62.64 
L 126.320313 62.64 
L 126.320313 7.2 
L 42.620313 7.2 
z
" style="fill: #ffffff"/>
   </g>
   <g id="PathCollection_1">
    <defs>
     <path id="C0_0_ffec64ad52" d="M 0 1.936492 
C 0.513564 1.936492 1.006162 1.732451 1.369306 1.369306 
C 1.732451 1.006162 1.936492 0.513564 1.936492 -0 
C 1.936492 -0.513564 1.732451 -1.006162 1.369306 -1.369306 
C 1.006162 -1.732451 0.513564 -1.936492 0 -1.936492 
C -0.513564 -1.936492 -1.006162 -1.732451 -1.369306 -1.369306 
C -1.732451 -1.006162 -1.936492 -0.513564 -1.936492 0 
C -1.936492 0.513564 -1.732451 1.006162 -1.369306 1.369306 
C -1.006162 1.732451 -0.513564 1.936492 0 1.936492 
z
"/>
    </defs>
    <g clip-path="url(#pcf83d08d7a)">
     <use xlink:href="#C0_0_ffec64ad52" x="66.606368" y="47.874004" style="fill: #910040; fill-opacity: 0.6"/>
    </g>
    <g clip-path="url(#pcf83d08d7a)">
     <use xlink:href="#C0_0_ffec64ad52" x="64.882853" y="42.304129" style="fill: #910040; fill-opacity: 0.6"/>
    </g>
    <g clip-path="url(#pcf83d08d7a)">
     <use xlink:href="#C0_0_ffec64ad52" x="54.707625" y="40.944618" style="fill: #910040; fill-opacity: 0.6"/>
    </g>
    <g clip-path="url(#pcf83d08d7a)">
     <use xlink:href="#C0_0_ffec64ad52" x="58.082845" y="48.63903" style="fill: #910040; fill-opacity: 0.6"/>
    </g>
    <g clip-path="url(#pcf83d08d7a)">
     <use xlink:href="#C0_0_ffec64ad52" x="71.057282" y="36.930809" style="fill: #910040; fill-opacity: 0.6"/>
    </g>
    <g clip-path="url(#pcf83d08d7a)">
     <use xlink:href="#C0_0_ffec64ad52" x="60.798305" y="32.169186" style="fill: #910040; fill-opacity: 0.6"/>
    </g>
    <g clip-path="url(#pcf83d08d7a)">
     <use xlink:href="#C0_0_ffec64ad52" x="64.429372" y="35.300445" style="fill: #910040; fill-opacity: 0.6"/>
    </g>
    <g clip-path="url(#pcf83d08d7a)">
     <use xlink:href="#C0_0_ffec64ad52" x="69.430742" y="36.147948" style="fill: #910040; fill-opacity: 0.6"/>
    </g>
    <g clip-path="url(#pcf83d08d7a)">
     <use xlink:href="#C0_0_ffec64ad52" x="62.296947" y="46.367941" style="fill: #910040; fill-opacity: 0.6"/>
    </g>
    <g clip-path="url(#pcf83d08d7a)">
     <use xlink:href="#C0_0_ffec64ad52" x="52.337322" y="47.545834" style="fill: #910040; fill-opacity: 0.6"/>
    </g>
    <g clip-path="url(#pcf83d08d7a)">
     <use xlink:href="#C0_0_ffec64ad52" x="59.458748" y="29.251132" style="fill: #910040; fill-opacity: 0.6"/>
    </g>
    <g clip-path="url(#pcf83d08d7a)">
     <use xlink:href="#C0_0_ffec64ad52" x="85.913575" y="27.496915" style="fill: #910040; fill-opacity: 0.6"/>
    </g>
    <g clip-path="url(#pcf83d08d7a)">
     <use xlink:href="#C0_0_ffec64ad52" x="66.697784" y="36.365392" style="fill: #910040; fill-opacity: 0.6"/>
    </g>
    <g clip-path="url(#pcf83d08d7a)">
     <use xlink:href="#C0_0_ffec64ad52" x="68.025551" y="51.745744" style="fill: #910040; fill-opacity: 0.6"/>
    </g>
    <g clip-path="url(#pcf83d08d7a)">
     <use xlink:href="#C0_0_ffec64ad52" x="69.186847" y="52.243422" style="fill: #910040; fill-opacity: 0.6"/>
    </g>
    <g clip-path="url(#pcf83d08d7a)">
     <use xlink:href="#C0_0_ffec64ad52" x="51.938089" y="57.81993" style="fill: #910040; fill-opacity: 0.6"/>
    </g>
    <g clip-path="url(#pcf83d08d7a)">
     <use xlink:href="#C0_0_ffec64ad52" x="66.580725" y="38.584303" style="fill: #910040; fill-opacity: 0.6"/>
    </g>
    <g clip-path="url(#pcf83d08d7a)">
     <use xlink:href="#C0_0_ffec64ad52" x="63.511991" y="39.357717" style="fill: #910040; fill-opacity: 0.6"/>
    </g>
    <g clip-path="url(#pcf83d08d7a)">
     <use xlink:href="#C0_0_ffec64ad52" x="46.424858" y="51.869673" style="fill: #910040; fill-opacity: 0.6"/>
    </g>
    <g clip-path="url(#pcf83d08d7a)">
     <use xlink:href="#C0_0_ffec64ad52" x="74.752558" y="40.796802" style="fill: #910040; fill-opacity: 0.6"/>
    </g>
    <g clip-path="url(#pcf83d08d7a)">
     <use xlink:href="#C0_0_ffec64ad52" x="63.169989" y="37.418193" style="fill: #910040; fill-opacity: 0.6"/>
    </g>
    <g clip-path="url(#pcf83d08d7a)">
     <use xlink:href="#C0_0_ffec64ad52" x="55.507977" y="40.088217" style="fill: #910040; fill-opacity: 0.6"/>
    </g>
    <g clip-path="url(#pcf83d08d7a)">
     <use xlink:href="#C0_0_ffec64ad52" x="81.676236" y="31.327065" style="fill: #910040; fill-opacity: 0.6"/>
    </g>
    <g clip-path="url(#pcf83d08d7a)">
     <use xlink:href="#C0_0_ffec64ad52" x="60.200199" y="44.01651" style="fill: #910040; fill-opacity: 0.6"/>
    </g>
    <g clip-path="url(#pcf83d08d7a)">
     <use xlink:href="#C0_0_ffec64ad52" x="68.732567" y="54.484491" style="fill: #910040; fill-opacity: 0.6"/>
    </g>
    <g clip-path="url(#pcf83d08d7a)">
     <use xlink:href="#C0_0_ffec64ad52" x="72.809947" y="31.651514" style="fill: #910040; fill-opacity: 0.6"/>
    </g>
    <g clip-path="url(#pcf83d08d7a)">
     <use xlink:href="#C0_0_ffec64ad52" x="66.820269" y="48.795963" style="fill: #910040; fill-opacity: 0.6"/>
    </g>
    <g clip-path="url(#pcf83d08d7a)">
     <use xlink:href="#C0_0_ffec64ad52" x="68.767453" y="28.834847" style="fill: #910040; fill-opacity: 0.6"/>
    </g>
    <g clip-path="url(#pcf83d08d7a)">
     <use xlink:href="#C0_0_ffec64ad52" x="57.189107" y="36.879158" style="fill: #910040; fill-opacity: 0.6"/>
    </g>
    <g clip-path="url(#pcf83d08d7a)">
     <use xlink:href="#C0_0_ffec64ad52" x="58.370716" y="40.582883" style="fill: #910040; fill-opacity: 0.6"/>
    </g>
    <g clip-path="url(#pcf83d08d7a)">
     <use xlink:href="#C0_0_ffec64ad52" x="72.399813" y="43.443309" style="fill: #910040; fill-opacity: 0.6"/>
    </g>
    <g clip-path="url(#pcf83d08d7a)">
     <use xlink:href="#C0_0_ffec64ad52" x="63.875596" y="57.91788" style="fill: #910040; fill-opacity: 0.6"/>
    </g>
    <g clip-path="url(#pcf83d08d7a)">
     <use xlink:href="#C0_0_ffec64ad52" x="68.208682" y="27.972151" style="fill: #910040; fill-opacity: 0.6"/>
    </g>
    <g clip-path="url(#pcf83d08d7a)">
     <use xlink:href="#C0_0_ffec64ad52" x="87.635476" y="47.331046" style="fill: #910040; fill-opacity: 0.6"/>
    </g>
    <g clip-path="url(#pcf83d08d7a)">
     <use xlink:href="#C0_0_ffec64ad52" x="79.977114" y="24.238487" style="fill: #910040; fill-opacity: 0.6"/>
    </g>
    <g clip-path="url(#pcf83d08d7a)">
     <use xlink:href="#C0_0_ffec64ad52" x="66.995461" y="41.169044" style="fill: #910040; fill-opacity: 0.6"/>
    </g>
    <g clip-path="url(#pcf83d08d7a)">
     <use xlink:href="#C0_0_ffec64ad52" x="76.526344" y="30.056457" style="fill: #910040; fill-opacity: 0.6"/>
    </g>
    <g clip-path="url(#pcf83d08d7a)">
     <use xlink:href="#C0_0_ffec64ad52" x="77.663266" y="35.949196" style="fill: #910040; fill-opacity: 0.6"/>
    </g>
    <g clip-path="url(#pcf83d08d7a)">
     <use xlink:href="#C0_0_ffec64ad52" x="78.631113" y="58.325485" style="fill: #910040; fill-opacity: 0.6"/>
    </g>
    <g clip-path="url(#pcf83d08d7a)">
     <use xlink:href="#C0_0_ffec64ad52" x="71.927681" y="54.0024" style="fill: #910040; fill-opacity: 0.6"/>
    </g>
    <g clip-path="url(#pcf83d08d7a)">
     <use xlink:href="#C0_0_ffec64ad52" x="47.989258" y="40.148313" style="fill: #910040; fill-opacity: 0.6"/>
    </g>
    <g clip-path="url(#pcf83d08d7a)">
     <use xlink:href="#C0_0_ffec64ad52" x="63.232319" y="11.840168" style="fill: #910040; fill-opacity: 0.6"/>
    </g>
    <g clip-path="url(#pcf83d08d7a)">
     <use xlink:href="#C0_0_ffec64ad52" x="52.045394" y="42.967342" style="fill: #910040; fill-opacity: 0.6"/>
    </g>
    <g clip-path="url(#pcf83d08d7a)">
     <use xlink:href="#C0_0_ffec64ad52" x="69.330199" y="46.76332" style="fill: #910040; fill-opacity: 0.6"/>
    </g>
    <g clip-path="url(#pcf83d08d7a)">
     <use xlink:href="#C0_0_ffec64ad52" x="83.243758" y="41.917663" style="fill: #910040; fill-opacity: 0.6"/>
    </g>
    <g clip-path="url(#pcf83d08d7a)">
     <use xlink:href="#C0_0_ffec64ad52" x="66.712284" y="36.778955" style="fill: #910040; fill-opacity: 0.6"/>
    </g>
    <g clip-path="url(#pcf83d08d7a)">
     <use xlink:href="#C0_0_ffec64ad52" x="65.387928" y="49.08725" style="fill: #910040; fill-opacity: 0.6"/>
    </g>
    <g clip-path="url(#pcf83d08d7a)">
     <use xlink:href="#C0_0_ffec64ad52" x="80.670292" y="28.224804" style="fill: #910040; fill-opacity: 0.6"/>
    </g>
    <g clip-path="url(#pcf83d08d7a)">
     <use xlink:href="#C0_0_ffec64ad52" x="86.446857" y="26.963029" style="fill: #910040; fill-opacity: 0.6"/>
    </g>
    <g clip-path="url(#pcf83d08d7a)">
     <use xlink:href="#C0_0_ffec64ad52" x="92.807033" y="25.851684" style="fill: #910040; fill-opacity: 0.6"/>
    </g>
    <g clip-path="url(#pcf83d08d7a)">
     <use xlink:href="#C0_0_ffec64ad52" x="65.665324" y="38.060192" style="fill: #910040; fill-opacity: 0.6"/>
    </g>
    <g clip-path="url(#pcf83d08d7a)">
     <use xlink:href="#C0_0_ffec64ad52" x="62.050047" y="47.750511" style="fill: #910040; fill-opacity: 0.6"/>
    </g>
    <g clip-path="url(#pcf83d08d7a)">
     <use xlink:href="#C0_0_ffec64ad52" x="88.108568" y="41.086347" style="fill: #ff603d; fill-opacity: 0.6"/>
    </g>
    <g clip-path="url(#pcf83d08d7a)">
     <use xlink:href="#C0_0_ffec64ad52" x="84.080439" y="39.676023" style="fill: #ff603d; fill-opacity: 0.6"/>
    </g>
    <g clip-path="url(#pcf83d08d7a)">
     <use xlink:href="#C0_0_ffec64ad52" x="78.562901" y="46.935628" style="fill: #ff603d; fill-opacity: 0.6"/>
    </g>
    <g clip-path="url(#pcf83d08d7a)">
     <use xlink:href="#C0_0_ffec64ad52" x="101.542534" y="39.867985" style="fill: #ff603d; fill-opacity: 0.6"/>
    </g>
    <g clip-path="url(#pcf83d08d7a)">
     <use xlink:href="#C0_0_ffec64ad52" x="80.083594" y="57.145508" style="fill: #ff603d; fill-opacity: 0.6"/>
    </g>
    <g clip-path="url(#pcf83d08d7a)">
     <use xlink:href="#C0_0_ffec64ad52" x="50.291167" y="41.678393" style="fill: #ff603d; fill-opacity: 0.6"/>
    </g>
    <g clip-path="url(#pcf83d08d7a)">
     <use xlink:href="#C0_0_ffec64ad52" x="66.586795" y="39.092844" style="fill: #ff603d; fill-opacity: 0.6"/>
    </g>
    <g clip-path="url(#pcf83d08d7a)">
     <use xlink:href="#C0_0_ffec64ad52" x="77.965782" y="39.831354" style="fill: #ff603d; fill-opacity: 0.6"/>
    </g>
    <g clip-path="url(#pcf83d08d7a)">
     <use xlink:href="#C0_0_ffec64ad52" x="76.89774" y="47.362598" style="fill: #ff603d; fill-opacity: 0.6"/>
    </g>
    <g clip-path="url(#pcf83d08d7a)">
     <use xlink:href="#C0_0_ffec64ad52" x="64.175407" y="34.665135" style="fill: #ff603d; fill-opacity: 0.6"/>
    </g>
    <g clip-path="url(#pcf83d08d7a)">
     <use xlink:href="#C0_0_ffec64ad52" x="92.234571" y="47.974036" style="fill: #ff603d; fill-opacity: 0.6"/>
    </g>
    <g clip-path="url(#pcf83d08d7a)">
     <use xlink:href="#C0_0_ffec64ad52" x="92.955873" y="45.321637" style="fill: #ff603d; fill-opacity: 0.6"/>
    </g>
    <g clip-path="url(#pcf83d08d7a)">
     <use xlink:href="#C0_0_ffec64ad52" x="94.625271" y="54.82189" style="fill: #ff603d; fill-opacity: 0.6"/>
    </g>
    <g clip-path="url(#pcf83d08d7a)">
     <use xlink:href="#C0_0_ffec64ad52" x="81.209716" y="56.789919" style="fill: #ff603d; fill-opacity: 0.6"/>
    </g>
    <g clip-path="url(#pcf83d08d7a)">
     <use xlink:href="#C0_0_ffec64ad52" x="86.065578" y="35.918016" style="fill: #ff603d; fill-opacity: 0.6"/>
    </g>
    <g clip-path="url(#pcf83d08d7a)">
     <use xlink:href="#C0_0_ffec64ad52" x="100.206581" y="42.637765" style="fill: #ff603d; fill-opacity: 0.6"/>
    </g>
    <g clip-path="url(#pcf83d08d7a)">
     <use xlink:href="#C0_0_ffec64ad52" x="111.028265" y="34.782607" style="fill: #ff603d; fill-opacity: 0.6"/>
    </g>
    <g clip-path="url(#pcf83d08d7a)">
     <use xlink:href="#C0_0_ffec64ad52" x="102.524533" y="54.691661" style="fill: #ff603d; fill-opacity: 0.6"/>
    </g>
    <g clip-path="url(#pcf83d08d7a)">
     <use xlink:href="#C0_0_ffec64ad52" x="91.770312" y="52.067543" style="fill: #ff603d; fill-opacity: 0.6"/>
    </g>
    <g clip-path="url(#pcf83d08d7a)">
     <use xlink:href="#C0_0_ffec64ad52" x="73.03105" y="26.876789" style="fill: #ff603d; fill-opacity: 0.6"/>
    </g>
    <g clip-path="url(#pcf83d08d7a)">
     <use xlink:href="#C0_0_ffec64ad52" x="59.775772" y="39.567701" style="fill: #ff603d; fill-opacity: 0.6"/>
    </g>
    <g clip-path="url(#pcf83d08d7a)">
     <use xlink:href="#C0_0_ffec64ad52" x="61.605274" y="48.364879" style="fill: #ff603d; fill-opacity: 0.6"/>
    </g>
    <g clip-path="url(#pcf83d08d7a)">
     <use xlink:href="#C0_0_ffec64ad52" x="62.50469" y="37.125218" style="fill: #ff603d; fill-opacity: 0.6"/>
    </g>
    <g clip-path="url(#pcf83d08d7a)">
     <use xlink:href="#C0_0_ffec64ad52" x="83.503435" y="44.233115" style="fill: #ff603d; fill-opacity: 0.6"/>
    </g>
    <g clip-path="url(#pcf83d08d7a)">
     <use xlink:href="#C0_0_ffec64ad52" x="59.515408" y="35.727271" style="fill: #ff603d; fill-opacity: 0.6"/>
    </g>
    <g clip-path="url(#pcf83d08d7a)">
     <use xlink:href="#C0_0_ffec64ad52" x="78.916351" y="40.541912" style="fill: #ff603d; fill-opacity: 0.6"/>
    </g>
    <g clip-path="url(#pcf83d08d7a)">
     <use xlink:href="#C0_0_ffec64ad52" x="101.818693" y="51.381067" style="fill: #ff603d; fill-opacity: 0.6"/>
    </g>
    <g clip-path="url(#pcf83d08d7a)">
     <use xlink:href="#C0_0_ffec64ad52" x="71.737882" y="43.931763" style="fill: #ff603d; fill-opacity: 0.6"/>
    </g>
    <g clip-path="url(#pcf83d08d7a)">
     <use xlink:href="#C0_0_ffec64ad52" x="77.028358" y="52.460553" style="fill: #ff603d; fill-opacity: 0.6"/>
    </g>
    <g clip-path="url(#pcf83d08d7a)">
     <use xlink:href="#C0_0_ffec64ad52" x="62.164816" y="41.440212" style="fill: #ff603d; fill-opacity: 0.6"/>
    </g>
    <g clip-path="url(#pcf83d08d7a)">
     <use xlink:href="#C0_0_ffec64ad52" x="72.485698" y="52.84819" style="fill: #ff603d; fill-opacity: 0.6"/>
    </g>
    <g clip-path="url(#pcf83d08d7a)">
     <use xlink:href="#C0_0_ffec64ad52" x="107.848064" y="41.388597" style="fill: #ff603d; fill-opacity: 0.6"/>
    </g>
    <g clip-path="url(#pcf83d08d7a)">
     <use xlink:href="#C0_0_ffec64ad52" x="73.310613" y="32.626948" style="fill: #ff603d; fill-opacity: 0.6"/>
    </g>
    <g clip-path="url(#pcf83d08d7a)">
     <use xlink:href="#C0_0_ffec64ad52" x="61.474149" y="38.937588" style="fill: #ff603d; fill-opacity: 0.6"/>
    </g>
    <g clip-path="url(#pcf83d08d7a)">
     <use xlink:href="#C0_0_ffec64ad52" x="73.912474" y="47.499755" style="fill: #ff603d; fill-opacity: 0.6"/>
    </g>
    <g clip-path="url(#pcf83d08d7a)">
     <use xlink:href="#C0_0_ffec64ad52" x="63.230727" y="36.45898" style="fill: #ff603d; fill-opacity: 0.6"/>
    </g>
    <g clip-path="url(#pcf83d08d7a)">
     <use xlink:href="#C0_0_ffec64ad52" x="66.182825" y="28.685411" style="fill: #ff603d; fill-opacity: 0.6"/>
    </g>
    <g clip-path="url(#pcf83d08d7a)">
     <use xlink:href="#C0_0_ffec64ad52" x="103.110457" y="48.050895" style="fill: #ff603d; fill-opacity: 0.6"/>
    </g>
    <g clip-path="url(#pcf83d08d7a)">
     <use xlink:href="#C0_0_ffec64ad52" x="59.980095" y="49.224149" style="fill: #ff603d; fill-opacity: 0.6"/>
    </g>
    <g clip-path="url(#pcf83d08d7a)">
     <use xlink:href="#C0_0_ffec64ad52" x="87.533555" y="41.487255" style="fill: #ff603d; fill-opacity: 0.6"/>
    </g>
    <g clip-path="url(#pcf83d08d7a)">
     <use xlink:href="#C0_0_ffec64ad52" x="68.21717" y="54.812462" style="fill: #ff603d; fill-opacity: 0.6"/>
    </g>
    <g clip-path="url(#pcf83d08d7a)">
     <use xlink:href="#C0_0_ffec64ad52" x="63.530551" y="38.869551" style="fill: #ff603d; fill-opacity: 0.6"/>
    </g>
    <g clip-path="url(#pcf83d08d7a)">
     <use xlink:href="#C0_0_ffec64ad52" x="63.317196" y="60.12" style="fill: #ff603d; fill-opacity: 0.6"/>
    </g>
    <g clip-path="url(#pcf83d08d7a)">
     <use xlink:href="#C0_0_ffec64ad52" x="69.64097" y="28.547733" style="fill: #ff603d; fill-opacity: 0.6"/>
    </g>
    <g clip-path="url(#pcf83d08d7a)">
     <use xlink:href="#C0_0_ffec64ad52" x="103.128663" y="37.951907" style="fill: #ff603d; fill-opacity: 0.6"/>
    </g>
    <g clip-path="url(#pcf83d08d7a)">
     <use xlink:href="#C0_0_ffec64ad52" x="89.293511" y="32.991772" style="fill: #ff603d; fill-opacity: 0.6"/>
    </g>
    <g clip-path="url(#pcf83d08d7a)">
     <use xlink:href="#C0_0_ffec64ad52" x="74.818844" y="44.319385" style="fill: #ff603d; fill-opacity: 0.6"/>
    </g>
    <g clip-path="url(#pcf83d08d7a)">
     <use xlink:href="#C0_0_ffec64ad52" x="97.012488" y="49.643378" style="fill: #ff603d; fill-opacity: 0.6"/>
    </g>
    <g clip-path="url(#pcf83d08d7a)">
     <use xlink:href="#C0_0_ffec64ad52" x="92.146539" y="40.986962" style="fill: #ff603d; fill-opacity: 0.6"/>
    </g>
    <g clip-path="url(#pcf83d08d7a)">
     <use xlink:href="#C0_0_ffec64ad52" x="68.792611" y="36.674331" style="fill: #ff603d; fill-opacity: 0.6"/>
    </g>
    <g clip-path="url(#pcf83d08d7a)">
     <use xlink:href="#C0_0_ffec64ad52" x="71.962607" y="30.490622" style="fill: #ff603d; fill-opacity: 0.6"/>
    </g>
    <g clip-path="url(#pcf83d08d7a)">
     <use xlink:href="#C0_0_ffec64ad52" x="93.667085" y="46.816095" style="fill: #ff603d; fill-opacity: 0.6"/>
    </g>
    <g clip-path="url(#pcf83d08d7a)">
     <use xlink:href="#C0_0_ffec64ad52" x="85.650039" y="47.566775" style="fill: #ff603d; fill-opacity: 0.6"/>
    </g>
    <g clip-path="url(#pcf83d08d7a)">
     <use xlink:href="#C0_0_ffec64ad52" x="91.629304" y="44.207162" style="fill: #ff603d; fill-opacity: 0.6"/>
    </g>
    <g clip-path="url(#pcf83d08d7a)">
     <use xlink:href="#C0_0_ffec64ad52" x="58.700599" y="37.254005" style="fill: #ff603d; fill-opacity: 0.6"/>
    </g>
    <g clip-path="url(#pcf83d08d7a)">
     <use xlink:href="#C0_0_ffec64ad52" x="74.453101" y="45.789572" style="fill: #ff603d; fill-opacity: 0.6"/>
    </g>
    <g clip-path="url(#pcf83d08d7a)">
     <use xlink:href="#C0_0_ffec64ad52" x="70.443599" y="50.082726" style="fill: #ff603d; fill-opacity: 0.6"/>
    </g>
    <g clip-path="url(#pcf83d08d7a)">
     <use xlink:href="#C0_0_ffec64ad52" x="92.303888" y="42.896678" style="fill: #ff603d; fill-opacity: 0.6"/>
    </g>
    <g clip-path="url(#pcf83d08d7a)">
     <use xlink:href="#C0_0_ffec64ad52" x="119.733955" y="34.6231" style="fill: #ff603d; fill-opacity: 0.6"/>
    </g>
    <g clip-path="url(#pcf83d08d7a)">
     <use xlink:href="#C0_0_ffec64ad52" x="69.56093" y="46.366756" style="fill: #ff603d; fill-opacity: 0.6"/>
    </g>
    <g clip-path="url(#pcf83d08d7a)">
     <use xlink:href="#C0_0_ffec64ad52" x="89.405426" y="25.87748" style="fill: #ff603d; fill-opacity: 0.6"/>
    </g>
    <g clip-path="url(#pcf83d08d7a)">
     <use xlink:href="#C0_0_ffec64ad52" x="54.672108" y="47.068563" style="fill: #ff603d; fill-opacity: 0.6"/>
    </g>
    <g clip-path="url(#pcf83d08d7a)">
     <use xlink:href="#C0_0_ffec64ad52" x="99.194947" y="35.889634" style="fill: #ff603d; fill-opacity: 0.6"/>
    </g>
    <g clip-path="url(#pcf83d08d7a)">
     <use xlink:href="#C0_0_ffec64ad52" x="110.999893" y="55.445716" style="fill: #ff603d; fill-opacity: 0.6"/>
    </g>
    <g clip-path="url(#pcf83d08d7a)">
     <use xlink:href="#C0_0_ffec64ad52" x="87.501153" y="46.816937" style="fill: #ff603d; fill-opacity: 0.6"/>
    </g>
    <g clip-path="url(#pcf83d08d7a)">
     <use xlink:href="#C0_0_ffec64ad52" x="61.157256" y="39.776529" style="fill: #ff603d; fill-opacity: 0.6"/>
    </g>
    <g clip-path="url(#pcf83d08d7a)">
     <use xlink:href="#C0_0_ffec64ad52" x="80.614461" y="38.481519" style="fill: #ff603d; fill-opacity: 0.6"/>
    </g>
    <g clip-path="url(#pcf83d08d7a)">
     <use xlink:href="#C0_0_ffec64ad52" x="68.981872" y="53.874591" style="fill: #ff603d; fill-opacity: 0.6"/>
    </g>
    <g clip-path="url(#pcf83d08d7a)">
     <use xlink:href="#C0_0_ffec64ad52" x="82.899987" y="34.714131" style="fill: #ff603d; fill-opacity: 0.6"/>
    </g>
    <g clip-path="url(#pcf83d08d7a)">
     <use xlink:href="#C0_0_ffec64ad52" x="91.822425" y="31.368754" style="fill: #ff603d; fill-opacity: 0.6"/>
    </g>
    <g clip-path="url(#pcf83d08d7a)">
     <use xlink:href="#C0_0_ffec64ad52" x="122.515767" y="37.300175" style="fill: #ff603d; fill-opacity: 0.6"/>
    </g>
    <g clip-path="url(#pcf83d08d7a)">
     <use xlink:href="#C0_0_ffec64ad52" x="94.25712" y="46.403521" style="fill: #ff603d; fill-opacity: 0.6"/>
    </g>
    <g clip-path="url(#pcf83d08d7a)">
     <use xlink:href="#C0_0_ffec64ad52" x="87.22798" y="43.846082" style="fill: #ff603d; fill-opacity: 0.6"/>
    </g>
    <g clip-path="url(#pcf83d08d7a)">
     <use xlink:href="#C0_0_ffec64ad52" x="93.026882" y="46.244551" style="fill: #ff603d; fill-opacity: 0.6"/>
    </g>
    <g clip-path="url(#pcf83d08d7a)">
     <use xlink:href="#C0_0_ffec64ad52" x="56.69443" y="39.290338" style="fill: #ff603d; fill-opacity: 0.6"/>
    </g>
    <g clip-path="url(#pcf83d08d7a)">
     <use xlink:href="#C0_0_ffec64ad52" x="84.017508" y="40.369706" style="fill: #ff603d; fill-opacity: 0.6"/>
    </g>
    <g clip-path="url(#pcf83d08d7a)">
     <use xlink:href="#C0_0_ffec64ad52" x="85.130927" y="48.821322" style="fill: #ff603d; fill-opacity: 0.6"/>
    </g>
    <g clip-path="url(#pcf83d08d7a)">
     <use xlink:href="#C0_0_ffec64ad52" x="106.683654" y="52.028551" style="fill: #ff603d; fill-opacity: 0.6"/>
    </g>
    <g clip-path="url(#pcf83d08d7a)">
     <use xlink:href="#C0_0_ffec64ad52" x="55.672453" y="40.508839" style="fill: #ff603d; fill-opacity: 0.6"/>
    </g>
    <g clip-path="url(#pcf83d08d7a)">
     <use xlink:href="#C0_0_ffec64ad52" x="83.335446" y="33.021994" style="fill: #ff603d; fill-opacity: 0.6"/>
    </g>
    <g clip-path="url(#pcf83d08d7a)">
     <use xlink:href="#C0_0_ffec64ad52" x="69.167965" y="9.72" style="fill: #ff603d; fill-opacity: 0.6"/>
    </g>
    <g clip-path="url(#pcf83d08d7a)">
     <use xlink:href="#C0_0_ffec64ad52" x="58.399915" y="45.701614" style="fill: #ff603d; fill-opacity: 0.6"/>
    </g>
    <g clip-path="url(#pcf83d08d7a)">
     <use xlink:href="#C0_0_ffec64ad52" x="57.614019" y="50.797391" style="fill: #ff603d; fill-opacity: 0.6"/>
    </g>
    <g clip-path="url(#pcf83d08d7a)">
     <use xlink:href="#C0_0_ffec64ad52" x="62.025401" y="52.918084" style="fill: #ff603d; fill-opacity: 0.6"/>
    </g>
    <g clip-path="url(#pcf83d08d7a)">
     <use xlink:href="#C0_0_ffec64ad52" x="85.557036" y="47.570281" style="fill: #ff603d; fill-opacity: 0.6"/>
    </g>
    <g clip-path="url(#pcf83d08d7a)">
     <use xlink:href="#C0_0_ffec64ad52" x="82.956512" y="37.439672" style="fill: #ff603d; fill-opacity: 0.6"/>
    </g>
    <g clip-path="url(#pcf83d08d7a)">
     <use xlink:href="#C0_0_ffec64ad52" x="67.349774" y="35.430708" style="fill: #ff603d; fill-opacity: 0.6"/>
    </g>
    <g clip-path="url(#pcf83d08d7a)">
     <use xlink:href="#C0_0_ffec64ad52" x="90.136675" y="36.992987" style="fill: #ff603d; fill-opacity: 0.6"/>
    </g>
    <g clip-path="url(#pcf83d08d7a)">
     <use xlink:href="#C0_0_ffec64ad52" x="78.017669" y="43.850381" style="fill: #ff603d; fill-opacity: 0.6"/>
    </g>
    <g clip-path="url(#pcf83d08d7a)">
     <use xlink:href="#C0_0_ffec64ad52" x="63.059695" y="29.773717" style="fill: #ff603d; fill-opacity: 0.6"/>
    </g>
    <g clip-path="url(#pcf83d08d7a)">
     <use xlink:href="#C0_0_ffec64ad52" x="59.300098" y="33.814426" style="fill: #ff603d; fill-opacity: 0.6"/>
    </g>
    <g clip-path="url(#pcf83d08d7a)">
     <use xlink:href="#C0_0_ffec64ad52" x="66.527204" y="47.264895" style="fill: #ff603d; fill-opacity: 0.6"/>
    </g>
    <g clip-path="url(#pcf83d08d7a)">
     <use xlink:href="#C0_0_ffec64ad52" x="70.575108" y="36.683559" style="fill: #ff603d; fill-opacity: 0.6"/>
    </g>
    <g clip-path="url(#pcf83d08d7a)">
     <use xlink:href="#C0_0_ffec64ad52" x="61.823907" y="30.027503" style="fill: #ff603d; fill-opacity: 0.6"/>
    </g>
    <g clip-path="url(#pcf83d08d7a)">
     <use xlink:href="#C0_0_ffec64ad52" x="64.032788" y="34.328499" style="fill: #ff603d; fill-opacity: 0.6"/>
    </g>
    <g clip-path="url(#pcf83d08d7a)">
     <use xlink:href="#C0_0_ffec64ad52" x="73.993159" y="35.247016" style="fill: #ff603d; fill-opacity: 0.6"/>
    </g>
    <g clip-path="url(#pcf83d08d7a)">
     <use xlink:href="#C0_0_ffec64ad52" x="73.651624" y="56.376914" style="fill: #ff603d; fill-opacity: 0.6"/>
    </g>
    <g clip-path="url(#pcf83d08d7a)">
     <use xlink:href="#C0_0_ffec64ad52" x="86.957961" y="19.30082" style="fill: #ff603d; fill-opacity: 0.6"/>
    </g>
    <g clip-path="url(#pcf83d08d7a)">
     <use xlink:href="#C0_0_ffec64ad52" x="90.032629" y="43.01148" style="fill: #ff603d; fill-opacity: 0.6"/>
    </g>
    <g clip-path="url(#pcf83d08d7a)">
     <use xlink:href="#C0_0_ffec64ad52" x="90.281251" y="36.612977" style="fill: #ff603d; fill-opacity: 0.6"/>
    </g>
    <g clip-path="url(#pcf83d08d7a)">
     <use xlink:href="#C0_0_ffec64ad52" x="53.365197" y="47.636288" style="fill: #ff603d; fill-opacity: 0.6"/>
    </g>
    <g clip-path="url(#pcf83d08d7a)">
     <use xlink:href="#C0_0_ffec64ad52" x="58.90109" y="27.008789" style="fill: #ff603d; fill-opacity: 0.6"/>
    </g>
    <g clip-path="url(#pcf83d08d7a)">
     <use xlink:href="#C0_0_ffec64ad52" x="72.685109" y="41.322042" style="fill: #ff603d; fill-opacity: 0.6"/>
    </g>
    <g clip-path="url(#pcf83d08d7a)">
     <use xlink:href="#C0_0_ffec64ad52" x="59.847416" y="42.646929" style="fill: #ff603d; fill-opacity: 0.6"/>
    </g>
    <g clip-path="url(#pcf83d08d7a)">
     <use xlink:href="#C0_0_ffec64ad52" x="90.49136" y="42.027697" style="fill: #ff603d; fill-opacity: 0.6"/>
    </g>
    <g clip-path="url(#pcf83d08d7a)">
     <use xlink:href="#C0_0_ffec64ad52" x="75.269242" y="35.36996" style="fill: #ff603d; fill-opacity: 0.6"/>
    </g>
    <g clip-path="url(#pcf83d08d7a)">
     <use xlink:href="#C0_0_ffec64ad52" x="88.165163" y="49.488432" style="fill: #ff603d; fill-opacity: 0.6"/>
    </g>
    <g clip-path="url(#pcf83d08d7a)">
     <use xlink:href="#C0_0_ffec64ad52" x="67.210242" y="45.105023" style="fill: #ff603d; fill-opacity: 0.6"/>
    </g>
    <g clip-path="url(#pcf83d08d7a)">
     <use xlink:href="#C0_0_ffec64ad52" x="63.530209" y="44.947549" style="fill: #ff603d; fill-opacity: 0.6"/>
    </g>
    <g clip-path="url(#pcf83d08d7a)">
     <use xlink:href="#C0_0_ffec64ad52" x="66.110072" y="51.50994" style="fill: #ff603d; fill-opacity: 0.6"/>
    </g>
    <g clip-path="url(#pcf83d08d7a)">
     <use xlink:href="#C0_0_ffec64ad52" x="63.125586" y="48.887098" style="fill: #ff603d; fill-opacity: 0.6"/>
    </g>
    <g clip-path="url(#pcf83d08d7a)">
     <use xlink:href="#C0_0_ffec64ad52" x="87.313689" y="10.67662" style="fill: #ff603d; fill-opacity: 0.6"/>
    </g>
    <g clip-path="url(#pcf83d08d7a)">
     <use xlink:href="#C0_0_ffec64ad52" x="81.513345" y="26.358418" style="fill: #ff603d; fill-opacity: 0.6"/>
    </g>
    <g clip-path="url(#pcf83d08d7a)">
     <use xlink:href="#C0_0_ffec64ad52" x="61.542324" y="41.373956" style="fill: #ff603d; fill-opacity: 0.6"/>
    </g>
    <g clip-path="url(#pcf83d08d7a)">
     <use xlink:href="#C0_0_ffec64ad52" x="68.152288" y="35.801407" style="fill: #ff603d; fill-opacity: 0.6"/>
    </g>
    <g clip-path="url(#pcf83d08d7a)">
     <use xlink:href="#C0_0_ffec64ad52" x="63.158791" y="34.983455" style="fill: #ff603d; fill-opacity: 0.6"/>
    </g>
    <g clip-path="url(#pcf83d08d7a)">
     <use xlink:href="#C0_0_ffec64ad52" x="68.294563" y="32.080497" style="fill: #ff603d; fill-opacity: 0.6"/>
    </g>
    <g clip-path="url(#pcf83d08d7a)">
     <use xlink:href="#C0_0_ffec64ad52" x="81.092678" y="49.169927" style="fill: #ff603d; fill-opacity: 0.6"/>
    </g>
   </g>
   <g id="matplotlib.axis_1">
    <g id="xtick_1">
     <g id="line2d_1">
      <defs>
       <path id="m16762e6d62" d="M 0 0 
L 0 3.5 
" style="stroke: #000000; stroke-width: 0.8"/>
      </defs>
      <g>
       <use xlink:href="#m16762e6d62" x="46.863749" y="62.64" style="stroke: #000000; stroke-width: 0.8"/>
      </g>
     </g>
     <g id="text_1">
      <!-- −5 -->
      <g transform="translate(39.492655 77.238438) scale(0.1 -0.1)">
       <defs>
        <path id="DejaVuSans-2212" d="M 678 2272 
L 4684 2272 
L 4684 1741 
L 678 1741 
L 678 2272 
z
" transform="scale(0.015625)"/>
        <path id="DejaVuSans-35" d="M 691 4666 
L 3169 4666 
L 3169 4134 
L 1269 4134 
L 1269 2991 
Q 1406 3038 1543 3061 
Q 1681 3084 1819 3084 
Q 2600 3084 3056 2656 
Q 3513 2228 3513 1497 
Q 3513 744 3044 326 
Q 2575 -91 1722 -91 
Q 1428 -91 1123 -41 
Q 819 9 494 109 
L 494 744 
Q 775 591 1075 516 
Q 1375 441 1709 441 
Q 2250 441 2565 725 
Q 2881 1009 2881 1497 
Q 2881 1984 2565 2268 
Q 2250 2553 1709 2553 
Q 1456 2553 1204 2497 
Q 953 2441 691 2322 
L 691 4666 
z
" transform="scale(0.015625)"/>
       </defs>
       <use xlink:href="#DejaVuSans-2212"/>
       <use xlink:href="#DejaVuSans-35" x="83.789062"/>
      </g>
     </g>
    </g>
    <g id="xtick_2">
     <g id="line2d_2">
      <g>
       <use xlink:href="#m16762e6d62" x="74.861272" y="62.64" style="stroke: #000000; stroke-width: 0.8"/>
      </g>
     </g>
     <g id="text_2">
      <!-- 0 -->
      <g transform="translate(71.680022 77.238438) scale(0.1 -0.1)">
       <defs>
        <path id="DejaVuSans-30" d="M 2034 4250 
Q 1547 4250 1301 3770 
Q 1056 3291 1056 2328 
Q 1056 1369 1301 889 
Q 1547 409 2034 409 
Q 2525 409 2770 889 
Q 3016 1369 3016 2328 
Q 3016 3291 2770 3770 
Q 2525 4250 2034 4250 
z
M 2034 4750 
Q 2819 4750 3233 4129 
Q 3647 3509 3647 2328 
Q 3647 1150 3233 529 
Q 2819 -91 2034 -91 
Q 1250 -91 836 529 
Q 422 1150 422 2328 
Q 422 3509 836 4129 
Q 1250 4750 2034 4750 
z
" transform="scale(0.015625)"/>
       </defs>
       <use xlink:href="#DejaVuSans-30"/>
      </g>
     </g>
    </g>
    <g id="xtick_3">
     <g id="line2d_3">
      <g>
       <use xlink:href="#m16762e6d62" x="102.858795" y="62.64" style="stroke: #000000; stroke-width: 0.8"/>
      </g>
     </g>
     <g id="text_3">
      <!-- 5 -->
      <g transform="translate(99.677545 77.238438) scale(0.1 -0.1)">
       <use xlink:href="#DejaVuSans-35"/>
      </g>
     </g>
    </g>
    <g id="text_4">
     <!-- PC1 -->
     <g transform="translate(74.782813 90.916562) scale(0.1 -0.1)">
      <defs>
       <path id="DejaVuSans-50" d="M 1259 4147 
L 1259 2394 
L 2053 2394 
Q 2494 2394 2734 2622 
Q 2975 2850 2975 3272 
Q 2975 3691 2734 3919 
Q 2494 4147 2053 4147 
L 1259 4147 
z
M 628 4666 
L 2053 4666 
Q 2838 4666 3239 4311 
Q 3641 3956 3641 3272 
Q 3641 2581 3239 2228 
Q 2838 1875 2053 1875 
L 1259 1875 
L 1259 0 
L 628 0 
L 628 4666 
z
" transform="scale(0.015625)"/>
       <path id="DejaVuSans-43" d="M 4122 4306 
L 4122 3641 
Q 3803 3938 3442 4084 
Q 3081 4231 2675 4231 
Q 1875 4231 1450 3742 
Q 1025 3253 1025 2328 
Q 1025 1406 1450 917 
Q 1875 428 2675 428 
Q 3081 428 3442 575 
Q 3803 722 4122 1019 
L 4122 359 
Q 3791 134 3420 21 
Q 3050 -91 2638 -91 
Q 1578 -91 968 557 
Q 359 1206 359 2328 
Q 359 3453 968 4101 
Q 1578 4750 2638 4750 
Q 3056 4750 3426 4639 
Q 3797 4528 4122 4306 
z
" transform="scale(0.015625)"/>
       <path id="DejaVuSans-31" d="M 794 531 
L 1825 531 
L 1825 4091 
L 703 3866 
L 703 4441 
L 1819 4666 
L 2450 4666 
L 2450 531 
L 3481 531 
L 3481 0 
L 794 0 
L 794 531 
z
" transform="scale(0.015625)"/>
      </defs>
      <use xlink:href="#DejaVuSans-50"/>
      <use xlink:href="#DejaVuSans-43" x="60.302734"/>
      <use xlink:href="#DejaVuSans-31" x="130.126953"/>
     </g>
    </g>
   </g>
   <g id="matplotlib.axis_2">
    <g id="ytick_1">
     <g id="line2d_4">
      <defs>
       <path id="mf3d801379f" d="M 0 0 
L -3.5 0 
" style="stroke: #000000; stroke-width: 0.8"/>
      </defs>
      <g>
       <use xlink:href="#mf3d801379f" x="42.620313" y="61.445094" style="stroke: #000000; stroke-width: 0.8"/>
      </g>
     </g>
     <g id="text_5">
      <!-- −5 -->
      <g transform="translate(20.878125 65.244313) scale(0.1 -0.1)">
       <use xlink:href="#DejaVuSans-2212"/>
       <use xlink:href="#DejaVuSans-35" x="83.789062"/>
      </g>
     </g>
    </g>
    <g id="ytick_2">
     <g id="line2d_5">
      <g>
       <use xlink:href="#mf3d801379f" x="42.620313" y="41.054203" style="stroke: #000000; stroke-width: 0.8"/>
      </g>
     </g>
     <g id="text_6">
      <!-- 0 -->
      <g transform="translate(29.257813 44.853422) scale(0.1 -0.1)">
       <use xlink:href="#DejaVuSans-30"/>
      </g>
     </g>
    </g>
    <g id="ytick_3">
     <g id="line2d_6">
      <g>
       <use xlink:href="#mf3d801379f" x="42.620313" y="20.663312" style="stroke: #000000; stroke-width: 0.8"/>
      </g>
     </g>
     <g id="text_7">
      <!-- 5 -->
      <g transform="translate(29.257813 24.462531) scale(0.1 -0.1)">
       <use xlink:href="#DejaVuSans-35"/>
      </g>
     </g>
    </g>
    <g id="text_8">
     <!-- PC2 -->
     <g transform="translate(14.798438 44.6075) rotate(-90) scale(0.1 -0.1)">
      <defs>
       <path id="DejaVuSans-32" d="M 1228 531 
L 3431 531 
L 3431 0 
L 469 0 
L 469 531 
Q 828 903 1448 1529 
Q 2069 2156 2228 2338 
Q 2531 2678 2651 2914 
Q 2772 3150 2772 3378 
Q 2772 3750 2511 3984 
Q 2250 4219 1831 4219 
Q 1534 4219 1204 4116 
Q 875 4013 500 3803 
L 500 4441 
Q 881 4594 1212 4672 
Q 1544 4750 1819 4750 
Q 2544 4750 2975 4387 
Q 3406 4025 3406 3419 
Q 3406 3131 3298 2873 
Q 3191 2616 2906 2266 
Q 2828 2175 2409 1742 
Q 1991 1309 1228 531 
z
" transform="scale(0.015625)"/>
      </defs>
      <use xlink:href="#DejaVuSans-50"/>
      <use xlink:href="#DejaVuSans-43" x="60.302734"/>
      <use xlink:href="#DejaVuSans-32" x="130.126953"/>
     </g>
    </g>
   </g>
   <g id="patch_3">
    <path d="M 42.620313 62.64 
L 42.620313 7.2 
" style="fill: none; stroke: #000000; stroke-width: 0.8; stroke-linejoin: miter; stroke-linecap: square"/>
   </g>
   <g id="patch_4">
    <path d="M 42.620312 62.64 
L 126.320313 62.64 
" style="fill: none; stroke: #000000; stroke-width: 0.8; stroke-linejoin: miter; stroke-linecap: square"/>
   </g>
   <g id="legend_1">
    <g id="line2d_7">
     <defs>
      <path id="mf5c4e9ffbe" d="M 0 3 
C 0.795609 3 1.55874 2.683901 2.12132 2.12132 
C 2.683901 1.55874 3 0.795609 3 0 
C 3 -0.795609 2.683901 -1.55874 2.12132 -2.12132 
C 1.55874 -2.683901 0.795609 -3 0 -3 
C -0.795609 -3 -1.55874 -2.683901 -2.12132 -2.12132 
C -2.683901 -1.55874 -3 -0.795609 -3 0 
C -3 0.795609 -2.683901 1.55874 -2.12132 2.12132 
C -1.55874 2.683901 -0.795609 3 0 3 
z
"/>
     </defs>
     <g>
      <use xlink:href="#mf5c4e9ffbe" x="136.950313" y="26.840312" style="fill: #910040; fill-opacity: 0.6"/>
     </g>
    </g>
    <g id="text_9">
     <!-- affective -->
     <g transform="translate(154.950313 30.340312) scale(0.1 -0.1)">
      <defs>
       <path id="DejaVuSans-61" d="M 2194 1759 
Q 1497 1759 1228 1600 
Q 959 1441 959 1056 
Q 959 750 1161 570 
Q 1363 391 1709 391 
Q 2188 391 2477 730 
Q 2766 1069 2766 1631 
L 2766 1759 
L 2194 1759 
z
M 3341 1997 
L 3341 0 
L 2766 0 
L 2766 531 
Q 2569 213 2275 61 
Q 1981 -91 1556 -91 
Q 1019 -91 701 211 
Q 384 513 384 1019 
Q 384 1609 779 1909 
Q 1175 2209 1959 2209 
L 2766 2209 
L 2766 2266 
Q 2766 2663 2505 2880 
Q 2244 3097 1772 3097 
Q 1472 3097 1187 3025 
Q 903 2953 641 2809 
L 641 3341 
Q 956 3463 1253 3523 
Q 1550 3584 1831 3584 
Q 2591 3584 2966 3190 
Q 3341 2797 3341 1997 
z
" transform="scale(0.015625)"/>
       <path id="DejaVuSans-66" d="M 2375 4863 
L 2375 4384 
L 1825 4384 
Q 1516 4384 1395 4259 
Q 1275 4134 1275 3809 
L 1275 3500 
L 2222 3500 
L 2222 3053 
L 1275 3053 
L 1275 0 
L 697 0 
L 697 3053 
L 147 3053 
L 147 3500 
L 697 3500 
L 697 3744 
Q 697 4328 969 4595 
Q 1241 4863 1831 4863 
L 2375 4863 
z
" transform="scale(0.015625)"/>
       <path id="DejaVuSans-65" d="M 3597 1894 
L 3597 1613 
L 953 1613 
Q 991 1019 1311 708 
Q 1631 397 2203 397 
Q 2534 397 2845 478 
Q 3156 559 3463 722 
L 3463 178 
Q 3153 47 2828 -22 
Q 2503 -91 2169 -91 
Q 1331 -91 842 396 
Q 353 884 353 1716 
Q 353 2575 817 3079 
Q 1281 3584 2069 3584 
Q 2775 3584 3186 3129 
Q 3597 2675 3597 1894 
z
M 3022 2063 
Q 3016 2534 2758 2815 
Q 2500 3097 2075 3097 
Q 1594 3097 1305 2825 
Q 1016 2553 972 2059 
L 3022 2063 
z
" transform="scale(0.015625)"/>
       <path id="DejaVuSans-63" d="M 3122 3366 
L 3122 2828 
Q 2878 2963 2633 3030 
Q 2388 3097 2138 3097 
Q 1578 3097 1268 2742 
Q 959 2388 959 1747 
Q 959 1106 1268 751 
Q 1578 397 2138 397 
Q 2388 397 2633 464 
Q 2878 531 3122 666 
L 3122 134 
Q 2881 22 2623 -34 
Q 2366 -91 2075 -91 
Q 1284 -91 818 406 
Q 353 903 353 1747 
Q 353 2603 823 3093 
Q 1294 3584 2113 3584 
Q 2378 3584 2631 3529 
Q 2884 3475 3122 3366 
z
" transform="scale(0.015625)"/>
       <path id="DejaVuSans-74" d="M 1172 4494 
L 1172 3500 
L 2356 3500 
L 2356 3053 
L 1172 3053 
L 1172 1153 
Q 1172 725 1289 603 
Q 1406 481 1766 481 
L 2356 481 
L 2356 0 
L 1766 0 
Q 1100 0 847 248 
Q 594 497 594 1153 
L 594 3053 
L 172 3053 
L 172 3500 
L 594 3500 
L 594 4494 
L 1172 4494 
z
" transform="scale(0.015625)"/>
       <path id="DejaVuSans-69" d="M 603 3500 
L 1178 3500 
L 1178 0 
L 603 0 
L 603 3500 
z
M 603 4863 
L 1178 4863 
L 1178 4134 
L 603 4134 
L 603 4863 
z
" transform="scale(0.015625)"/>
       <path id="DejaVuSans-76" d="M 191 3500 
L 800 3500 
L 1894 563 
L 2988 3500 
L 3597 3500 
L 2284 0 
L 1503 0 
L 191 3500 
z
" transform="scale(0.015625)"/>
      </defs>
      <use xlink:href="#DejaVuSans-61"/>
      <use xlink:href="#DejaVuSans-66" x="61.279297"/>
      <use xlink:href="#DejaVuSans-66" x="96.484375"/>
      <use xlink:href="#DejaVuSans-65" x="131.689453"/>
      <use xlink:href="#DejaVuSans-63" x="193.212891"/>
      <use xlink:href="#DejaVuSans-74" x="248.193359"/>
      <use xlink:href="#DejaVuSans-69" x="287.402344"/>
      <use xlink:href="#DejaVuSans-76" x="315.185547"/>
      <use xlink:href="#DejaVuSans-65" x="374.365234"/>
     </g>
    </g>
    <g id="line2d_8">
     <defs>
      <path id="m6beb9efe3c" d="M 0 3 
C 0.795609 3 1.55874 2.683901 2.12132 2.12132 
C 2.683901 1.55874 3 0.795609 3 0 
C 3 -0.795609 2.683901 -1.55874 2.12132 -2.12132 
C 1.55874 -2.683901 0.795609 -3 0 -3 
C -0.795609 -3 -1.55874 -2.683901 -2.12132 -2.12132 
C -2.683901 -1.55874 -3 -0.795609 -3 0 
C -3 0.795609 -2.683901 1.55874 -2.12132 2.12132 
C -1.55874 2.683901 -0.795609 3 0 3 
z
"/>
     </defs>
     <g>
      <use xlink:href="#m6beb9efe3c" x="136.950313" y="41.518437" style="fill: #ff603d; fill-opacity: 0.6"/>
     </g>
    </g>
    <g id="text_10">
     <!-- non-affective -->
     <g transform="translate(154.950313 45.018437) scale(0.1 -0.1)">
      <defs>
       <path id="DejaVuSans-6e" d="M 3513 2113 
L 3513 0 
L 2938 0 
L 2938 2094 
Q 2938 2591 2744 2837 
Q 2550 3084 2163 3084 
Q 1697 3084 1428 2787 
Q 1159 2491 1159 1978 
L 1159 0 
L 581 0 
L 581 3500 
L 1159 3500 
L 1159 2956 
Q 1366 3272 1645 3428 
Q 1925 3584 2291 3584 
Q 2894 3584 3203 3211 
Q 3513 2838 3513 2113 
z
" transform="scale(0.015625)"/>
       <path id="DejaVuSans-6f" d="M 1959 3097 
Q 1497 3097 1228 2736 
Q 959 2375 959 1747 
Q 959 1119 1226 758 
Q 1494 397 1959 397 
Q 2419 397 2687 759 
Q 2956 1122 2956 1747 
Q 2956 2369 2687 2733 
Q 2419 3097 1959 3097 
z
M 1959 3584 
Q 2709 3584 3137 3096 
Q 3566 2609 3566 1747 
Q 3566 888 3137 398 
Q 2709 -91 1959 -91 
Q 1206 -91 779 398 
Q 353 888 353 1747 
Q 353 2609 779 3096 
Q 1206 3584 1959 3584 
z
" transform="scale(0.015625)"/>
       <path id="DejaVuSans-2d" d="M 313 2009 
L 1997 2009 
L 1997 1497 
L 313 1497 
L 313 2009 
z
" transform="scale(0.015625)"/>
      </defs>
      <use xlink:href="#DejaVuSans-6e"/>
      <use xlink:href="#DejaVuSans-6f" x="63.378906"/>
      <use xlink:href="#DejaVuSans-6e" x="124.560547"/>
      <use xlink:href="#DejaVuSans-2d" x="187.939453"/>
      <use xlink:href="#DejaVuSans-61" x="224.023438"/>
      <use xlink:href="#DejaVuSans-66" x="285.302734"/>
      <use xlink:href="#DejaVuSans-66" x="320.507812"/>
      <use xlink:href="#DejaVuSans-65" x="355.712891"/>
      <use xlink:href="#DejaVuSans-63" x="417.236328"/>
      <use xlink:href="#DejaVuSans-74" x="472.216797"/>
      <use xlink:href="#DejaVuSans-69" x="511.425781"/>
      <use xlink:href="#DejaVuSans-76" x="539.208984"/>
      <use xlink:href="#DejaVuSans-65" x="598.388672"/>
     </g>
    </g>
   </g>
  </g>
 </g>
 <defs>
  <clipPath id="pcf83d08d7a">
   <rect x="42.620313" y="7.2" width="83.7" height="55.44"/>
  </clipPath>
 </defs>
</svg>
