<?xml version="1.0" encoding="utf-8" standalone="no"?>
<!DOCTYPE svg PUBLIC "-//W3C//DTD SVG 1.1//EN"
  "http://www.w3.org/Graphics/SVG/1.1/DTD/svg11.dtd">
<svg height="139.889375pt" version="1.1" viewBox="0 0 244.657656 139.889375" width="244.657656pt" xmlns="http://www.w3.org/2000/svg" xmlns:xlink="http://www.w3.org/1999/xlink">
 <metadata>
  <rdf:RDF xmlns:cc="http://creativecommons.org/ns#" xmlns:dc="http://purl.org/dc/elements/1.1/" xmlns:rdf="http://www.w3.org/1999/02/22-rdf-syntax-ns#">
   <cc:Work>
    <dc:type rdf:resource="http://purl.org/dc/dcmitype/StillImage"/>
    <dc:date>2023-02-21T15:33:47.438488</dc:date>
    <dc:format>image/svg+xml</dc:format>
    <dc:creator>
     <cc:Agent>
      <dc:title>Matplotlib v3.4.3, https://matplotlib.org/</dc:title>
     </cc:Agent>
    </dc:creator>
   </cc:Work>
  </rdf:RDF>
 </metadata>
 <defs>
  <style type="text/css">*{stroke-linecap:butt;stroke-linejoin:round;}</style>
 </defs>
 <g id="figure_1">
  <g id="patch_1">
   <path d="M 0 139.889375 
L 244.657656 139.889375 
L 244.657656 0 
L 0 0 
z
" style="fill:none;"/>
  </g>
  <g id="axes_1">
   <g id="patch_2">
    <path d="M 42.157656 115.92 
L 237.457656 115.92 
L 237.457656 7.2 
L 42.157656 7.2 
z
" style="fill:#ffffff;"/>
   </g>
   <g id="matplotlib.axis_1">
    <g id="xtick_1">
     <g id="line2d_1">
      <defs>
       <path d="M 0 0 
L 0 3.5 
" id="m6ea2f5e8b0" style="stroke:#000000;stroke-width:0.8;"/>
      </defs>
      <g>
       <use style="stroke:#000000;stroke-width:0.8;" x="51.034929" xlink:href="#m6ea2f5e8b0" y="115.92"/>
      </g>
     </g>
     <g id="text_1">
      <!-- F1 -->
      <g transform="translate(44.698757 130.554687)scale(0.11 -0.11)">
       <defs>
        <path d="M 211 0 
L 211 198 
L 365 198 
Q 710 198 790 256 
Q 870 314 870 499 
L 870 3853 
Q 870 4038 790 4096 
Q 710 4154 365 4154 
L 211 4154 
L 211 4352 
L 3725 4352 
L 3904 2912 
L 3744 2912 
Q 3699 3277 3641 3485 
Q 3584 3693 3453 3859 
Q 3322 4026 3101 4090 
Q 2880 4154 2522 4154 
L 1754 4154 
Q 1536 4154 1488 4109 
Q 1440 4064 1440 3898 
L 1440 2278 
L 1990 2278 
Q 2426 2278 2547 2435 
Q 2669 2592 2669 3027 
L 2829 3027 
L 2829 1331 
L 2669 1331 
Q 2669 1773 2547 1926 
Q 2426 2080 1990 2080 
L 1440 2080 
L 1440 506 
Q 1440 371 1462 320 
Q 1485 269 1619 233 
Q 1754 198 2048 198 
L 2259 198 
L 2259 0 
Q 2029 19 1184 19 
Q 435 19 211 0 
z
" id="CMUSerif-Roman-46" transform="scale(0.015625)"/>
        <path d="M 570 3654 
L 570 3853 
Q 1338 3853 1734 4262 
Q 1843 4262 1862 4236 
Q 1882 4211 1882 4096 
L 1882 506 
Q 1882 314 1974 256 
Q 2067 198 2477 198 
L 2682 198 
L 2682 0 
Q 2458 19 1645 19 
Q 832 19 608 0 
L 608 198 
L 813 198 
Q 1216 198 1312 256 
Q 1408 314 1408 506 
L 1408 3821 
Q 1075 3654 570 3654 
z
" id="CMUSerif-Roman-31" transform="scale(0.015625)"/>
       </defs>
       <use xlink:href="#CMUSerif-Roman-46"/>
       <use x="65.199997" xlink:href="#CMUSerif-Roman-31"/>
      </g>
     </g>
    </g>
    <g id="xtick_2">
     <g id="line2d_2">
      <g>
       <use style="stroke:#000000;stroke-width:0.8;" x="119.321642" xlink:href="#m6ea2f5e8b0" y="115.92"/>
      </g>
     </g>
     <g id="text_2">
      <!-- F11 -->
      <g transform="translate(110.23547 130.554687)scale(0.11 -0.11)">
       <use xlink:href="#CMUSerif-Roman-46"/>
       <use x="65.199997" xlink:href="#CMUSerif-Roman-31"/>
       <use x="115.199982" xlink:href="#CMUSerif-Roman-31"/>
      </g>
     </g>
    </g>
    <g id="xtick_3">
     <g id="line2d_3">
      <g>
       <use style="stroke:#000000;stroke-width:0.8;" x="187.608356" xlink:href="#m6ea2f5e8b0" y="115.92"/>
      </g>
     </g>
     <g id="text_3">
      <!-- F21 -->
      <g transform="translate(178.522184 130.554687)scale(0.11 -0.11)">
       <defs>
        <path d="M 320 0 
Q 320 115 329 150 
Q 339 186 390 237 
L 1619 1606 
Q 2291 2362 2291 3021 
Q 2291 3450 2067 3757 
Q 1843 4064 1434 4064 
Q 1152 4064 915 3891 
Q 678 3718 570 3411 
Q 589 3418 653 3418 
Q 813 3418 902 3318 
Q 992 3219 992 3085 
Q 992 2912 880 2829 
Q 768 2746 659 2746 
Q 614 2746 556 2755 
Q 499 2765 409 2854 
Q 320 2944 320 3104 
Q 320 3552 659 3907 
Q 998 4262 1517 4262 
Q 2106 4262 2490 3913 
Q 2874 3565 2874 3021 
Q 2874 2829 2816 2656 
Q 2758 2483 2681 2348 
Q 2605 2214 2400 2000 
Q 2195 1786 2028 1632 
Q 1862 1478 1491 1152 
L 813 493 
L 1965 493 
Q 2528 493 2573 544 
Q 2637 634 2714 1114 
L 2874 1114 
L 2694 0 
L 320 0 
z
" id="CMUSerif-Roman-32" transform="scale(0.015625)"/>
       </defs>
       <use xlink:href="#CMUSerif-Roman-46"/>
       <use x="65.199997" xlink:href="#CMUSerif-Roman-32"/>
       <use x="115.199982" xlink:href="#CMUSerif-Roman-31"/>
      </g>
     </g>
    </g>
   </g>
   <g id="matplotlib.axis_2">
    <g id="ytick_1">
     <g id="line2d_4">
      <defs>
       <path d="M 0 0 
L -3.5 0 
" id="m9c5d827cff" style="stroke:#000000;stroke-width:0.8;"/>
      </defs>
      <g>
       <use style="stroke:#000000;stroke-width:0.8;" x="42.157656" xlink:href="#m9c5d827cff" y="111.836486"/>
      </g>
     </g>
     <g id="text_4">
      <!-- 0.0 -->
      <g transform="translate(21.1 115.65383)scale(0.11 -0.11)">
       <defs>
        <path d="M 250 2048 
Q 250 2989 486 3501 
Q 819 4262 1600 4262 
Q 1766 4262 1939 4217 
Q 2112 4173 2333 4000 
Q 2554 3827 2688 3546 
Q 2944 3002 2944 2048 
Q 2944 1114 2707 602 
Q 2362 -141 1594 -141 
Q 1306 -141 1014 6 
Q 723 154 538 506 
Q 250 1037 250 2048 
z
M 781 2125 
Q 781 1158 851 774 
Q 928 358 1142 179 
Q 1357 0 1594 0 
Q 1850 0 2064 192 
Q 2278 384 2342 800 
Q 2413 1210 2413 2125 
Q 2413 3014 2349 3373 
Q 2266 3789 2042 3955 
Q 1818 4122 1594 4122 
Q 1510 4122 1420 4096 
Q 1331 4070 1203 4000 
Q 1075 3930 976 3750 
Q 877 3571 832 3302 
Q 781 2957 781 2125 
z
" id="CMUSerif-Roman-30" transform="scale(0.015625)"/>
        <path d="M 640 102 
Q 544 205 544 339 
Q 544 474 640 573 
Q 736 672 883 672 
Q 1024 672 1120 579 
Q 1216 486 1216 339 
Q 1216 192 1113 96 
Q 1011 0 883 0 
Q 736 0 640 102 
z
" id="CMUSerif-Roman-2e" transform="scale(0.015625)"/>
       </defs>
       <use xlink:href="#CMUSerif-Roman-30"/>
       <use x="49.999985" xlink:href="#CMUSerif-Roman-2e"/>
       <use x="77.799973" xlink:href="#CMUSerif-Roman-30"/>
      </g>
     </g>
    </g>
    <g id="ytick_2">
     <g id="line2d_5">
      <g>
       <use style="stroke:#000000;stroke-width:0.8;" x="42.157656" xlink:href="#m9c5d827cff" y="79.21192"/>
      </g>
     </g>
     <g id="text_5">
      <!-- 2.5 -->
      <g transform="translate(21.1 83.029263)scale(0.11 -0.11)">
       <defs>
        <path d="M 320 1030 
Q 320 1222 422 1296 
Q 525 1370 634 1370 
Q 781 1370 867 1277 
Q 954 1184 954 1056 
Q 954 928 867 835 
Q 781 742 634 742 
Q 563 742 525 755 
Q 608 461 867 249 
Q 1126 38 1466 38 
Q 1894 38 2150 454 
Q 2304 723 2304 1331 
Q 2304 1869 2189 2138 
Q 2010 2547 1645 2547 
Q 1126 2547 819 2099 
Q 781 2042 736 2042 
Q 672 2042 659 2077 
Q 646 2112 646 2208 
L 646 4102 
Q 646 4256 710 4256 
Q 736 4256 787 4237 
Q 1190 4058 1638 4058 
Q 2099 4058 2509 4243 
Q 2541 4262 2560 4262 
Q 2624 4262 2624 4192 
Q 2624 4166 2573 4092 
Q 2522 4019 2413 3923 
Q 2304 3827 2163 3737 
Q 2022 3648 1817 3587 
Q 1613 3526 1389 3526 
Q 1120 3526 845 3610 
L 845 2362 
Q 1178 2688 1658 2688 
Q 2170 2688 2522 2275 
Q 2874 1862 2874 1286 
Q 2874 685 2458 272 
Q 2042 -141 1478 -141 
Q 966 -141 643 224 
Q 320 589 320 1030 
z
" id="CMUSerif-Roman-35" transform="scale(0.015625)"/>
       </defs>
       <use xlink:href="#CMUSerif-Roman-32"/>
       <use x="49.999985" xlink:href="#CMUSerif-Roman-2e"/>
       <use x="77.799973" xlink:href="#CMUSerif-Roman-35"/>
      </g>
     </g>
    </g>
    <g id="ytick_3">
     <g id="line2d_6">
      <g>
       <use style="stroke:#000000;stroke-width:0.8;" x="42.157656" xlink:href="#m9c5d827cff" y="46.587353"/>
      </g>
     </g>
     <g id="text_6">
      <!-- 5.0 -->
      <g transform="translate(21.1 50.404697)scale(0.11 -0.11)">
       <use xlink:href="#CMUSerif-Roman-35"/>
       <use x="49.999985" xlink:href="#CMUSerif-Roman-2e"/>
       <use x="77.799973" xlink:href="#CMUSerif-Roman-30"/>
      </g>
     </g>
    </g>
    <g id="ytick_4">
     <g id="line2d_7">
      <g>
       <use style="stroke:#000000;stroke-width:0.8;" x="42.157656" xlink:href="#m9c5d827cff" y="13.962786"/>
      </g>
     </g>
     <g id="text_7">
      <!-- 7.5 -->
      <g transform="translate(21.1 17.78013)scale(0.11 -0.11)">
       <defs>
        <path d="M 358 3008 
L 570 4326 
L 730 4326 
Q 749 4250 781 4214 
Q 813 4179 995 4150 
Q 1178 4122 1549 4122 
L 3104 4122 
Q 3104 3974 3046 3898 
L 2182 2682 
Q 1907 2298 1786 1587 
Q 1715 1114 1715 538 
L 1715 211 
Q 1715 -141 1420 -141 
Q 1126 -141 1126 211 
Q 1126 1434 1914 2618 
Q 1997 2739 2307 3174 
Q 2618 3610 2630 3629 
L 1306 3629 
Q 723 3629 678 3590 
Q 614 3533 518 3008 
L 358 3008 
z
" id="CMUSerif-Roman-37" transform="scale(0.015625)"/>
       </defs>
       <use xlink:href="#CMUSerif-Roman-37"/>
       <use x="49.999985" xlink:href="#CMUSerif-Roman-2e"/>
       <use x="77.799973" xlink:href="#CMUSerif-Roman-35"/>
      </g>
     </g>
    </g>
    <g id="text_8">
     <!-- eigenvalue -->
     <g transform="translate(14.834687 86.438047)rotate(-90)scale(0.11 -0.11)">
      <defs>
       <path d="M 179 1408 
Q 179 2010 566 2438 
Q 954 2867 1510 2867 
Q 2074 2867 2365 2502 
Q 2656 2138 2656 1613 
Q 2656 1517 2630 1497 
Q 2605 1478 2496 1478 
L 710 1478 
Q 710 826 902 518 
Q 1171 90 1626 90 
Q 1690 90 1763 102 
Q 1837 115 1990 169 
Q 2144 224 2278 371 
Q 2413 518 2490 749 
Q 2509 838 2573 838 
Q 2656 838 2656 762 
Q 2656 704 2595 579 
Q 2534 454 2419 304 
Q 2304 154 2080 42 
Q 1856 -70 1587 -70 
Q 1024 -70 601 355 
Q 179 781 179 1408 
z
M 717 1613 
L 2234 1613 
Q 2234 1747 2211 1897 
Q 2189 2048 2121 2256 
Q 2054 2464 1897 2595 
Q 1741 2726 1510 2726 
Q 1408 2726 1296 2681 
Q 1184 2637 1049 2531 
Q 915 2426 822 2186 
Q 730 1946 717 1613 
z
" id="CMUSerif-Roman-65" transform="scale(0.015625)"/>
       <path d="M 211 0 
L 211 198 
Q 550 198 630 240 
Q 710 282 710 486 
L 710 2208 
Q 710 2445 630 2502 
Q 550 2560 237 2560 
L 237 2758 
L 1133 2829 
L 1133 480 
Q 1133 288 1200 243 
Q 1267 198 1581 198 
L 1581 0 
Q 928 19 915 19 
Q 826 19 211 0 
z
M 480 3942 
Q 480 4070 579 4176 
Q 678 4282 819 4282 
Q 960 4282 1059 4186 
Q 1158 4090 1158 3942 
Q 1158 3795 1059 3699 
Q 960 3603 819 3603 
Q 672 3603 576 3705 
Q 480 3808 480 3942 
z
" id="CMUSerif-Roman-69" transform="scale(0.015625)"/>
       <path d="M 179 -506 
Q 179 -301 336 -121 
Q 493 58 768 134 
Q 486 314 486 704 
Q 486 1005 685 1235 
Q 384 1485 384 1894 
Q 384 2272 685 2550 
Q 986 2829 1421 2829 
Q 1805 2829 2099 2598 
Q 2406 2899 2778 2899 
Q 2944 2899 3024 2796 
Q 3104 2694 3104 2586 
Q 3104 2490 3043 2442 
Q 2982 2394 2918 2394 
Q 2842 2394 2787 2445 
Q 2733 2496 2733 2579 
Q 2733 2714 2835 2752 
Q 2816 2758 2771 2758 
Q 2458 2758 2195 2509 
Q 2458 2266 2458 1888 
Q 2458 1510 2157 1232 
Q 1856 954 1421 954 
Q 1062 954 787 1152 
Q 678 1024 678 851 
Q 678 691 774 566 
Q 870 442 1018 422 
Q 1062 416 1498 416 
Q 1754 416 1894 409 
Q 2035 403 2236 361 
Q 2438 320 2598 237 
Q 3014 6 3014 -493 
Q 3014 -858 2595 -1088 
Q 2176 -1318 1594 -1318 
Q 1005 -1318 592 -1084 
Q 179 -851 179 -506 
z
M 512 -506 
Q 512 -768 822 -969 
Q 1133 -1171 1600 -1171 
Q 2061 -1171 2371 -972 
Q 2682 -774 2682 -506 
Q 2682 -314 2573 -192 
Q 2464 -70 2240 -22 
Q 2016 26 1859 35 
Q 1702 45 1414 45 
L 1037 45 
Q 819 32 665 -128 
Q 512 -288 512 -506 
z
M 864 1888 
Q 864 1101 1421 1101 
Q 1702 1101 1875 1357 
Q 1978 1530 1978 1894 
Q 1978 2682 1421 2682 
Q 1139 2682 966 2426 
Q 864 2253 864 1888 
z
" id="CMUSerif-Roman-67" transform="scale(0.015625)"/>
       <path d="M 205 0 
L 205 198 
Q 544 198 624 240 
Q 704 282 704 486 
L 704 2202 
Q 704 2438 621 2499 
Q 538 2560 205 2560 
L 205 2758 
L 1107 2829 
L 1107 2157 
Q 1408 2829 2054 2829 
Q 2534 2829 2726 2592 
Q 2867 2432 2896 2253 
Q 2925 2074 2925 1613 
L 2925 390 
Q 2931 256 3033 227 
Q 3136 198 3424 198 
L 3424 0 
Q 2771 19 2707 19 
Q 2656 19 1984 0 
L 1984 198 
Q 2323 198 2403 240 
Q 2483 282 2483 486 
L 2483 1978 
Q 2483 2304 2384 2496 
Q 2285 2688 2010 2688 
Q 1677 2688 1411 2409 
Q 1146 2131 1146 1664 
L 1146 486 
Q 1146 282 1226 240 
Q 1306 198 1645 198 
L 1645 0 
Q 992 19 928 19 
Q 877 19 205 0 
z
" id="CMUSerif-Roman-6e" transform="scale(0.015625)"/>
       <path d="M 122 2560 
L 122 2758 
Q 410 2739 742 2739 
Q 864 2739 1440 2758 
L 1440 2560 
Q 1075 2560 1075 2394 
Q 1075 2368 1114 2285 
L 1830 499 
L 2483 2131 
Q 2522 2240 2522 2285 
Q 2522 2394 2448 2474 
Q 2374 2554 2214 2560 
L 2214 2758 
Q 2541 2739 2771 2739 
Q 3034 2739 3251 2758 
L 3251 2560 
Q 3059 2560 2924 2473 
Q 2790 2387 2748 2313 
Q 2707 2240 2662 2131 
L 1824 51 
Q 1773 -70 1690 -70 
Q 1632 -70 1609 -48 
Q 1587 -26 1555 51 
L 634 2323 
Q 570 2483 490 2521 
Q 410 2560 122 2560 
z
" id="CMUSerif-Roman-76" transform="scale(0.015625)"/>
       <path d="M 269 608 
Q 269 1152 909 1440 
Q 1293 1626 2086 1670 
L 2086 1907 
Q 2086 2304 1878 2515 
Q 1670 2726 1408 2726 
Q 941 2726 717 2432 
Q 909 2426 976 2330 
Q 1043 2234 1043 2138 
Q 1043 2010 963 1926 
Q 883 1843 749 1843 
Q 621 1843 537 1923 
Q 454 2003 454 2144 
Q 454 2458 736 2662 
Q 1018 2867 1421 2867 
Q 1946 2867 2298 2515 
Q 2406 2406 2460 2265 
Q 2515 2125 2521 2032 
Q 2528 1939 2528 1760 
L 2528 480 
Q 2528 442 2541 381 
Q 2554 320 2611 240 
Q 2669 160 2765 160 
Q 2995 160 2995 570 
L 2995 928 
L 3155 928 
L 3155 570 
Q 3155 230 2976 96 
Q 2797 -38 2630 -38 
Q 2419 -38 2284 118 
Q 2150 275 2131 486 
Q 2035 243 1814 86 
Q 1594 -70 1293 -70 
Q 1062 -70 844 -12 
Q 627 45 448 205 
Q 269 365 269 608 
z
M 762 614 
Q 762 378 931 224 
Q 1101 70 1338 70 
Q 1606 70 1846 278 
Q 2086 486 2086 896 
L 2086 1536 
Q 1376 1510 1069 1228 
Q 762 947 762 614 
z
" id="CMUSerif-Roman-61" transform="scale(0.015625)"/>
       <path d="M 211 0 
L 211 198 
Q 550 198 630 240 
Q 710 282 710 486 
L 710 3814 
Q 710 4051 627 4112 
Q 544 4173 211 4173 
L 211 4371 
L 1133 4442 
L 1133 486 
Q 1133 282 1213 240 
Q 1293 198 1632 198 
L 1632 0 
Q 1555 0 1392 6 
Q 1229 13 1110 16 
Q 992 19 922 19 
Q 845 19 211 0 
z
" id="CMUSerif-Roman-6c" transform="scale(0.015625)"/>
       <path d="M 205 2560 
L 205 2758 
L 1146 2829 
L 1146 704 
Q 1146 550 1158 460 
Q 1171 371 1222 268 
Q 1274 166 1395 118 
Q 1517 70 1709 70 
Q 2054 70 2268 355 
Q 2483 640 2483 1062 
L 2483 2202 
Q 2483 2438 2400 2499 
Q 2317 2560 1984 2560 
L 1984 2758 
L 2925 2829 
L 2925 557 
Q 2925 320 3008 259 
Q 3091 198 3424 198 
L 3424 0 
L 2502 -70 
L 2502 506 
Q 2234 -70 1677 -70 
Q 1395 -70 1203 0 
Q 1011 70 915 160 
Q 819 250 768 422 
Q 717 595 710 700 
Q 704 806 704 1011 
L 704 1971 
Q 704 2406 640 2483 
Q 576 2560 205 2560 
z
" id="CMUSerif-Roman-75" transform="scale(0.015625)"/>
      </defs>
      <use xlink:href="#CMUSerif-Roman-65"/>
      <use x="44.399994" xlink:href="#CMUSerif-Roman-69"/>
      <use x="72.099991" xlink:href="#CMUSerif-Roman-67"/>
      <use x="122.099976" xlink:href="#CMUSerif-Roman-65"/>
      <use x="166.499969" xlink:href="#CMUSerif-Roman-6e"/>
      <use x="221.999954" xlink:href="#CMUSerif-Roman-76"/>
      <use x="274.699951" xlink:href="#CMUSerif-Roman-61"/>
      <use x="324.699936" xlink:href="#CMUSerif-Roman-6c"/>
      <use x="352.399933" xlink:href="#CMUSerif-Roman-75"/>
      <use x="407.899918" xlink:href="#CMUSerif-Roman-65"/>
     </g>
    </g>
   </g>
   <g id="line2d_8">
    <path clip-path="url(#pf246a71780)" d="M 51.034929 12.141818 
L 57.8636 71.025681 
L 64.692272 75.95996 
L 71.520943 84.05685 
L 78.349614 93.021883 
L 85.178286 96.847105 
L 92.006957 98.434 
L 98.835628 100.068481 
L 105.6643 101.656162 
L 112.492971 101.985821 
L 119.321642 103.27856 
L 126.150314 104.37801 
L 132.978985 105.011951 
L 139.807656 105.84563 
L 146.636328 106.244412 
L 153.464999 106.830503 
L 160.29367 106.943161 
L 167.122342 107.421849 
L 173.951013 108.039671 
L 180.779684 108.278578 
L 187.608356 108.856004 
L 194.437027 109.325142 
L 201.265698 109.648682 
L 208.09437 109.952772 
L 214.923041 110.216971 
L 221.751712 110.791974 
L 228.580384 110.978182 
" style="fill:none;stroke:#000000;stroke-linecap:square;"/>
    <defs>
     <path d="M 0 1 
C 0.265203 1 0.51958 0.894634 0.707107 0.707107 
C 0.894634 0.51958 1 0.265203 1 0 
C 1 -0.265203 0.894634 -0.51958 0.707107 -0.707107 
C 0.51958 -0.894634 0.265203 -1 0 -1 
C -0.265203 -1 -0.51958 -0.894634 -0.707107 -0.707107 
C -0.894634 -0.51958 -1 -0.265203 -1 0 
C -1 0.265203 -0.894634 0.51958 -0.707107 0.707107 
C -0.51958 0.894634 -0.265203 1 0 1 
z
" id="m5493442f7b" style="stroke:#000000;"/>
    </defs>
    <g clip-path="url(#pf246a71780)">
     <use style="stroke:#000000;" x="51.034929" xlink:href="#m5493442f7b" y="12.141818"/>
     <use style="stroke:#000000;" x="57.8636" xlink:href="#m5493442f7b" y="71.025681"/>
     <use style="stroke:#000000;" x="64.692272" xlink:href="#m5493442f7b" y="75.95996"/>
     <use style="stroke:#000000;" x="71.520943" xlink:href="#m5493442f7b" y="84.05685"/>
     <use style="stroke:#000000;" x="78.349614" xlink:href="#m5493442f7b" y="93.021883"/>
     <use style="stroke:#000000;" x="85.178286" xlink:href="#m5493442f7b" y="96.847105"/>
     <use style="stroke:#000000;" x="92.006957" xlink:href="#m5493442f7b" y="98.434"/>
     <use style="stroke:#000000;" x="98.835628" xlink:href="#m5493442f7b" y="100.068481"/>
     <use style="stroke:#000000;" x="105.6643" xlink:href="#m5493442f7b" y="101.656162"/>
     <use style="stroke:#000000;" x="112.492971" xlink:href="#m5493442f7b" y="101.985821"/>
     <use style="stroke:#000000;" x="119.321642" xlink:href="#m5493442f7b" y="103.27856"/>
     <use style="stroke:#000000;" x="126.150314" xlink:href="#m5493442f7b" y="104.37801"/>
     <use style="stroke:#000000;" x="132.978985" xlink:href="#m5493442f7b" y="105.011951"/>
     <use style="stroke:#000000;" x="139.807656" xlink:href="#m5493442f7b" y="105.84563"/>
     <use style="stroke:#000000;" x="146.636328" xlink:href="#m5493442f7b" y="106.244412"/>
     <use style="stroke:#000000;" x="153.464999" xlink:href="#m5493442f7b" y="106.830503"/>
     <use style="stroke:#000000;" x="160.29367" xlink:href="#m5493442f7b" y="106.943161"/>
     <use style="stroke:#000000;" x="167.122342" xlink:href="#m5493442f7b" y="107.421849"/>
     <use style="stroke:#000000;" x="173.951013" xlink:href="#m5493442f7b" y="108.039671"/>
     <use style="stroke:#000000;" x="180.779684" xlink:href="#m5493442f7b" y="108.278578"/>
     <use style="stroke:#000000;" x="187.608356" xlink:href="#m5493442f7b" y="108.856004"/>
     <use style="stroke:#000000;" x="194.437027" xlink:href="#m5493442f7b" y="109.325142"/>
     <use style="stroke:#000000;" x="201.265698" xlink:href="#m5493442f7b" y="109.648682"/>
     <use style="stroke:#000000;" x="208.09437" xlink:href="#m5493442f7b" y="109.952772"/>
     <use style="stroke:#000000;" x="214.923041" xlink:href="#m5493442f7b" y="110.216971"/>
     <use style="stroke:#000000;" x="221.751712" xlink:href="#m5493442f7b" y="110.791974"/>
     <use style="stroke:#000000;" x="228.580384" xlink:href="#m5493442f7b" y="110.978182"/>
    </g>
   </g>
   <g id="line2d_9">
    <path clip-path="url(#pf246a71780)" d="M 51.034929 98.78666 
L 57.8636 98.78666 
L 64.692272 98.78666 
L 71.520943 98.78666 
L 78.349614 98.78666 
L 85.178286 98.78666 
L 92.006957 98.78666 
L 98.835628 98.78666 
L 105.6643 98.78666 
L 112.492971 98.78666 
L 119.321642 98.78666 
L 126.150314 98.78666 
L 132.978985 98.78666 
L 139.807656 98.78666 
L 146.636328 98.78666 
L 153.464999 98.78666 
L 160.29367 98.78666 
L 167.122342 98.78666 
L 173.951013 98.78666 
L 180.779684 98.78666 
L 187.608356 98.78666 
L 194.437027 98.78666 
L 201.265698 98.78666 
L 208.09437 98.78666 
L 214.923041 98.78666 
L 221.751712 98.78666 
L 228.580384 98.78666 
" style="fill:none;stroke:#808080;stroke-dasharray:7.4,3.2;stroke-dashoffset:0;stroke-width:2;"/>
   </g>
   <g id="line2d_10">
    <path clip-path="url(#pf246a71780)" d="M 51.034929 12.141818 
L 57.8636 71.025681 
L 64.692272 75.95996 
L 71.520943 84.05685 
L 78.349614 93.021883 
L 85.178286 96.847105 
L 92.006957 98.434 
" style="fill:none;stroke:#0000ff;stroke-linecap:square;stroke-width:2;"/>
    <defs>
     <path d="M 0 2 
C 0.530406 2 1.03916 1.789267 1.414214 1.414214 
C 1.789267 1.03916 2 0.530406 2 0 
C 2 -0.530406 1.789267 -1.03916 1.414214 -1.414214 
C 1.03916 -1.789267 0.530406 -2 0 -2 
C -0.530406 -2 -1.03916 -1.789267 -1.414214 -1.414214 
C -1.789267 -1.03916 -2 -0.530406 -2 0 
C -2 0.530406 -1.789267 1.03916 -1.414214 1.414214 
C -1.03916 1.789267 -0.530406 2 0 2 
z
" id="m31e0950365" style="stroke:#0000ff;"/>
    </defs>
    <g clip-path="url(#pf246a71780)">
     <use style="fill:#0000ff;stroke:#0000ff;" x="51.034929" xlink:href="#m31e0950365" y="12.141818"/>
     <use style="fill:#0000ff;stroke:#0000ff;" x="57.8636" xlink:href="#m31e0950365" y="71.025681"/>
     <use style="fill:#0000ff;stroke:#0000ff;" x="64.692272" xlink:href="#m31e0950365" y="75.95996"/>
     <use style="fill:#0000ff;stroke:#0000ff;" x="71.520943" xlink:href="#m31e0950365" y="84.05685"/>
     <use style="fill:#0000ff;stroke:#0000ff;" x="78.349614" xlink:href="#m31e0950365" y="93.021883"/>
     <use style="fill:#0000ff;stroke:#0000ff;" x="85.178286" xlink:href="#m31e0950365" y="96.847105"/>
     <use style="fill:#0000ff;stroke:#0000ff;" x="92.006957" xlink:href="#m31e0950365" y="98.434"/>
    </g>
   </g>
   <g id="patch_3">
    <path d="M 42.157656 115.92 
L 42.157656 7.2 
" style="fill:none;stroke:#000000;stroke-linecap:square;stroke-linejoin:miter;stroke-width:0.8;"/>
   </g>
   <g id="patch_4">
    <path d="M 42.157656 115.92 
L 237.457656 115.92 
" style="fill:none;stroke:#000000;stroke-linecap:square;stroke-linejoin:miter;stroke-width:0.8;"/>
   </g>
   <g id="text_9">
    <!-- Factors -->
    <g transform="translate(61.687656 20.270687)scale(0.11 -0.11)">
     <defs>
      <path d="M 624 352 
Q 218 774 218 1382 
Q 218 1990 618 2428 
Q 1018 2867 1606 2867 
Q 1997 2867 2291 2681 
Q 2586 2496 2586 2182 
Q 2586 2042 2502 1962 
Q 2419 1882 2291 1882 
Q 2157 1882 2077 1965 
Q 1997 2048 1997 2176 
Q 1997 2234 2016 2288 
Q 2035 2342 2105 2403 
Q 2176 2464 2298 2470 
Q 2067 2707 1613 2707 
Q 1286 2707 1017 2400 
Q 749 2093 749 1395 
Q 749 1030 838 761 
Q 928 493 1075 355 
Q 1222 218 1366 154 
Q 1510 90 1651 90 
Q 2278 90 2490 762 
Q 2509 826 2573 826 
Q 2656 826 2656 762 
Q 2656 730 2630 650 
Q 2605 570 2528 442 
Q 2451 314 2339 202 
Q 2227 90 2032 10 
Q 1837 -70 1594 -70 
Q 1030 -70 624 352 
z
" id="CMUSerif-Roman-63" transform="scale(0.015625)"/>
      <path d="M 122 2560 
L 122 2701 
Q 416 2714 611 2922 
Q 806 3130 873 3386 
Q 941 3642 947 3936 
L 1107 3936 
L 1107 2758 
L 2022 2758 
L 2022 2560 
L 1107 2560 
L 1107 781 
Q 1107 90 1536 90 
Q 1722 90 1843 278 
Q 1965 467 1965 806 
L 1965 1158 
L 2125 1158 
L 2125 794 
Q 2125 448 1965 189 
Q 1805 -70 1491 -70 
Q 1376 -70 1261 -41 
Q 1146 -13 998 64 
Q 851 141 758 329 
Q 666 518 666 794 
L 666 2560 
L 122 2560 
z
" id="CMUSerif-Roman-74" transform="scale(0.015625)"/>
      <path d="M 601 346 
Q 179 762 179 1370 
Q 179 1978 592 2422 
Q 1005 2867 1600 2867 
Q 2182 2867 2598 2425 
Q 3014 1984 3014 1370 
Q 3014 768 2595 349 
Q 2176 -70 1594 -70 
Q 1024 -70 601 346 
z
M 710 1421 
Q 710 800 870 518 
Q 1120 90 1600 90 
Q 1837 90 2035 218 
Q 2234 346 2342 563 
Q 2483 845 2483 1421 
Q 2483 2035 2317 2310 
Q 2067 2726 1594 2726 
Q 1389 2726 1187 2617 
Q 986 2509 864 2298 
Q 710 2016 710 1421 
z
" id="CMUSerif-Roman-6f" transform="scale(0.015625)"/>
      <path d="M 179 0 
L 179 198 
Q 518 198 598 240 
Q 678 282 678 486 
L 678 2202 
Q 678 2438 595 2499 
Q 512 2560 179 2560 
L 179 2758 
L 1069 2829 
L 1069 2125 
Q 1158 2400 1350 2614 
Q 1542 2829 1856 2829 
Q 2061 2829 2195 2713 
Q 2330 2598 2330 2438 
Q 2330 2298 2243 2227 
Q 2157 2157 2054 2157 
Q 1939 2157 1859 2230 
Q 1779 2304 1779 2432 
Q 1779 2509 1814 2569 
Q 1850 2630 1878 2652 
Q 1907 2675 1926 2682 
Q 1914 2688 1856 2688 
Q 1504 2688 1302 2336 
Q 1101 1984 1101 1485 
L 1101 499 
Q 1101 314 1177 256 
Q 1254 198 1587 198 
L 1722 198 
L 1722 0 
Q 1466 19 909 19 
Q 832 19 710 16 
Q 589 13 429 6 
Q 269 0 179 0 
z
" id="CMUSerif-Roman-72" transform="scale(0.015625)"/>
      <path d="M 211 83 
L 211 928 
Q 211 998 214 1024 
Q 218 1050 237 1069 
Q 256 1088 294 1088 
Q 339 1088 355 1069 
Q 371 1050 384 979 
Q 480 538 688 304 
Q 896 70 1274 70 
Q 1632 70 1814 230 
Q 1997 390 1997 653 
Q 1997 1120 1331 1242 
Q 947 1318 787 1369 
Q 627 1421 486 1536 
Q 211 1760 211 2080 
Q 211 2400 454 2633 
Q 698 2867 1235 2867 
Q 1594 2867 1837 2688 
Q 1907 2746 1946 2790 
Q 2029 2867 2074 2867 
Q 2125 2867 2134 2835 
Q 2144 2803 2144 2714 
L 2144 2067 
Q 2144 1997 2141 1971 
Q 2138 1946 2118 1930 
Q 2099 1914 2061 1914 
Q 1990 1914 1984 1971 
Q 1933 2746 1235 2746 
Q 858 2746 688 2602 
Q 518 2458 518 2259 
Q 518 2150 569 2067 
Q 621 1984 688 1936 
Q 755 1888 880 1843 
Q 1005 1798 1081 1782 
Q 1158 1766 1306 1734 
Q 1818 1638 2035 1427 
Q 2304 1158 2304 819 
Q 2304 442 2048 186 
Q 1792 -70 1274 -70 
Q 858 -70 570 205 
Q 531 166 502 134 
Q 474 102 464 89 
Q 454 77 451 70 
Q 448 64 442 58 
Q 314 -70 282 -70 
Q 230 -70 220 -38 
Q 211 -6 211 83 
z
" id="CMUSerif-Roman-73" transform="scale(0.015625)"/>
     </defs>
     <use xlink:href="#CMUSerif-Roman-46"/>
     <use x="65.199997" xlink:href="#CMUSerif-Roman-61"/>
     <use x="115.199982" xlink:href="#CMUSerif-Roman-63"/>
     <use x="159.599976" xlink:href="#CMUSerif-Roman-74"/>
     <use x="198.399963" xlink:href="#CMUSerif-Roman-6f"/>
     <use x="248.399948" xlink:href="#CMUSerif-Roman-72"/>
     <use x="287.499939" xlink:href="#CMUSerif-Roman-73"/>
    </g>
   </g>
   <g id="text_10">
    <g id="patch_5">
     <path d="M 62.893656 46.705162 
L 93.790375 46.705162 
L 93.790375 24.0696 
L 62.893656 24.0696 
z
" style="fill:#0000ff;opacity:0.3;stroke:#000000;stroke-linejoin:miter;"/>
    </g>
    <!-- 1-7*** -->
    <g transform="translate(65.593656 33.016162)scale(0.09 -0.09)">
     <defs>
      <path d="M 64 1190 
L 64 1568 
L 1766 1568 
L 1766 1190 
L 64 1190 
z
" id="CMUSerif-Roman-2d" transform="scale(0.015625)"/>
      <path d="M 416 2822 
Q 416 2931 563 3002 
L 1453 3424 
L 550 3846 
Q 416 3910 416 4019 
Q 416 4083 467 4140 
Q 518 4198 589 4198 
Q 640 4198 730 4128 
L 1523 3552 
Q 1427 4608 1427 4640 
Q 1427 4704 1475 4752 
Q 1523 4800 1600 4800 
Q 1664 4800 1715 4755 
Q 1766 4710 1766 4640 
L 1670 3552 
L 2381 4077 
Q 2547 4198 2605 4198 
Q 2675 4198 2726 4140 
Q 2778 4083 2778 4019 
Q 2778 3910 2630 3840 
L 1741 3418 
L 2643 2995 
Q 2778 2931 2778 2822 
Q 2778 2758 2726 2700 
Q 2675 2643 2605 2643 
Q 2566 2643 2502 2682 
Q 2490 2688 2355 2787 
Q 2221 2886 2013 3040 
Q 1805 3194 1670 3290 
Q 1766 2234 1766 2202 
Q 1766 2138 1718 2090 
Q 1670 2042 1594 2042 
Q 1530 2042 1478 2086 
Q 1427 2131 1427 2202 
L 1523 3290 
L 627 2643 
Q 531 2643 480 2691 
Q 429 2739 422 2768 
Q 416 2797 416 2822 
z
" id="CMUSerif-Roman-2a" transform="scale(0.015625)"/>
     </defs>
     <use xlink:href="#CMUSerif-Roman-31"/>
     <use x="49.999985" xlink:href="#CMUSerif-Roman-2d"/>
     <use x="83.299973" xlink:href="#CMUSerif-Roman-37"/>
     <use x="133.299957" xlink:href="#CMUSerif-Roman-2a"/>
     <use x="183.299942" xlink:href="#CMUSerif-Roman-2a"/>
     <use x="233.299927" xlink:href="#CMUSerif-Roman-2a"/>
    </g>
    <!-- 8-27 -->
    <g transform="translate(65.593656 42.2586)scale(0.09 -0.09)">
     <defs>
      <path d="M 269 966 
Q 269 1683 1190 2144 
Q 794 2413 723 2490 
Q 442 2803 442 3194 
Q 442 3642 781 3952 
Q 1120 4262 1600 4262 
Q 2061 4262 2406 3996 
Q 2752 3731 2752 3309 
Q 2752 2714 1978 2317 
Q 2490 1997 2611 1862 
Q 2925 1517 2925 1075 
Q 2925 563 2531 211 
Q 2138 -141 1594 -141 
Q 1062 -141 665 169 
Q 269 480 269 966 
z
M 589 966 
Q 589 570 886 304 
Q 1184 38 1600 38 
Q 2003 38 2304 268 
Q 2605 499 2605 845 
Q 2605 979 2560 1094 
Q 2515 1210 2425 1302 
Q 2336 1395 2281 1436 
Q 2227 1478 2125 1549 
L 1338 2048 
Q 589 1632 589 966 
z
M 723 3443 
Q 723 3136 1043 2925 
L 1837 2413 
Q 2470 2784 2470 3309 
Q 2470 3648 2211 3875 
Q 1952 4102 1594 4102 
Q 1242 4102 982 3916 
Q 723 3731 723 3443 
z
" id="CMUSerif-Roman-38" transform="scale(0.015625)"/>
     </defs>
     <use xlink:href="#CMUSerif-Roman-38"/>
     <use x="49.999985" xlink:href="#CMUSerif-Roman-2d"/>
     <use x="83.299973" xlink:href="#CMUSerif-Roman-32"/>
     <use x="133.299957" xlink:href="#CMUSerif-Roman-37"/>
    </g>
   </g>
  </g>
 </g>
 <defs>
  <clipPath id="pf246a71780">
   <rect height="108.72" width="195.3" x="42.157656" y="7.2"/>
  </clipPath>
 </defs>
</svg>
