<?xml version="1.0" encoding="UTF-8" standalone="no"?>
<svg
   xmlns:dc="http://purl.org/dc/elements/1.1/"
   xmlns:cc="http://creativecommons.org/ns#"
   xmlns:rdf="http://www.w3.org/1999/02/22-rdf-syntax-ns#"
   xmlns:svg="http://www.w3.org/2000/svg"
   xmlns="http://www.w3.org/2000/svg"
   xmlns:xlink="http://www.w3.org/1999/xlink"
   xmlns:sodipodi="http://sodipodi.sourceforge.net/DTD/sodipodi-0.dtd"
   xmlns:inkscape="http://www.inkscape.org/namespaces/inkscape"
   height="23.210001pt"
   version="1.1"
   viewBox="0 0 83.327986 23.21"
   width="83.327988pt"
   id="svg637"
   sodipodi:docname="pat.svg"
   inkscape:version="0.92.5 (2060ec1f9f, 2020-04-08)">
  <sodipodi:namedview
     pagecolor="#ffffff"
     bordercolor="#666666"
     borderopacity="1"
     objecttolerance="10"
     gridtolerance="10"
     guidetolerance="10"
     inkscape:pageopacity="0"
     inkscape:pageshadow="2"
     inkscape:window-width="1920"
     inkscape:window-height="1018"
     id="namedview639"
     showgrid="false"
     inkscape:zoom="1.0076724"
     inkscape:cx="-41.706876"
     inkscape:cy="-3.7205197"
     inkscape:window-x="1920"
     inkscape:window-y="34"
     inkscape:window-maximized="1"
     inkscape:current-layer="svg637" />
  <metadata
     id="metadata2">
    <rdf:RDF>
      <cc:Work>
        <dc:type
           rdf:resource="http://purl.org/dc/dcmitype/StillImage" />
        <dc:date>2023-02-21T21:35:00.577483</dc:date>
        <dc:format>image/svg+xml</dc:format>
        <dc:creator>
          <cc:Agent>
            <dc:title>Matplotlib v3.4.3, https://matplotlib.org/</dc:title>
          </cc:Agent>
        </dc:creator>
        <dc:title></dc:title>
      </cc:Work>
    </rdf:RDF>
  </metadata>
  <defs
     id="defs6"
     style="stroke-linecap:butt;stroke-linejoin:round">
    <style
       type="text/css"
       id="style4">*{stroke-linecap:butt;stroke-linejoin:round;}</style>
  </defs>
  <g
     id="legend_1"
     style="stroke-linecap:butt;stroke-linejoin:round"
     transform="translate(-157.80937,-39.147656)">
    <g
       id="line2d_5"
       style="stroke-linecap:butt;stroke-linejoin:round" />
    <g
       id="line2d_6"
       style="stroke-linecap:butt;stroke-linejoin:round">
      <defs
         id="defs549">
        <path
           d="M 0,2.5 C 0.663008,2.5 1.29895,2.236584 1.767767,1.767767 2.236584,1.29895 2.5,0.663008 2.5,0 2.5,-0.663008 2.236584,-1.29895 1.767767,-1.767767 1.29895,-2.236584 0.663008,-2.5 0,-2.5 c -0.663008,0 -1.29895,0.263416 -1.767767,0.732233 C -2.236584,-1.29895 -2.5,-0.663008 -2.5,0 c 0,0.663008 0.263416,1.29895 0.732233,1.767767 C -1.29895,2.236584 -0.663008,2.5 0,2.5 Z"
           id="mfc88fc290a"
           inkscape:connector-curvature="0"
           style="stroke-linecap:butt;stroke-linejoin:round" />
      </defs>
      <g
         id="g553"
         style="stroke-linecap:butt;stroke-linejoin:round">
        <use
           style="fill:#910040;fill-opacity:0.6;stroke-linecap:butt;stroke-linejoin:round"
           x="160.30937"
           xlink:href="#mfc88fc290a"
           y="43.052654"
           id="use551"
           width="100%"
           height="100%" />
      </g>
    </g>
    <g
       id="text_7"
       style="stroke-linecap:butt;stroke-linejoin:round">
      <!-- affective -->
      <g
         transform="matrix(0.11,0,0,-0.11,180.10937,46.902656)"
         id="g583"
         style="stroke-linecap:butt;stroke-linejoin:round">
        <defs
           id="defs563">
          <path
             d="m 269,608 q 0,544 640,832 384,186 1177,230 v 237 q 0,397 -208,608 -208,211 -470,211 -467,0 -691,-294 192,-6 259,-102 67,-96 67,-192 0,-128 -80,-212 -80,-83 -214,-83 -128,0 -212,80 -83,80 -83,221 0,314 282,518 282,205 685,205 525,0 877,-352 108,-109 162,-250 55,-140 61,-233 7,-93 7,-272 V 480 q 0,-38 13,-99 13,-61 70,-141 58,-80 154,-80 230,0 230,410 v 358 h 160 V 570 Q 3155,230 2976,96 2797,-38 2630,-38 2419,-38 2284,118 2150,275 2131,486 2035,243 1814,86 1594,-70 1293,-70 1062,-70 844,-12 627,45 448,205 269,365 269,608 Z m 493,6 q 0,-236 169,-390 170,-154 407,-154 268,0 508,208 240,208 240,618 v 640 Q 1376,1510 1069,1228 762,947 762,614 Z"
             id="CMUSerif-Roman-61"
             transform="scale(0.015625)"
             inkscape:connector-curvature="0"
             style="stroke-linecap:butt;stroke-linejoin:round" />
          <path
             d="m 211,2560 v 198 h 506 v 736 q 0,474 307,746 307,272 685,272 249,0 412,-135 164,-134 164,-313 0,-122 -74,-202 -73,-80 -208,-80 -128,0 -202,80 -73,80 -73,196 0,204 192,268 -96,45 -211,45 -231,0 -410,-237 -179,-236 -179,-633 v -743 h 749 V 2560 H 1139 V 499 q 0,-185 77,-243 77,-58 410,-58 h 134 V 0 Q 1504,19 947,19 870,19 748,16 627,13 467,6 307,0 218,0 v 198 q 339,0 419,42 80,42 80,246 v 2074 z"
             id="CMUSerif-Roman-66"
             transform="scale(0.015625)"
             inkscape:connector-curvature="0"
             style="stroke-linecap:butt;stroke-linejoin:round" />
          <path
             d="m 179,1408 q 0,602 387,1030 388,429 944,429 564,0 855,-365 291,-364 291,-889 0,-96 -26,-116 -25,-19 -134,-19 H 710 q 0,-652 192,-960 269,-428 724,-428 64,0 137,12 74,13 227,67 154,55 288,202 135,147 212,378 19,89 83,89 83,0 83,-76 0,-58 -61,-183 Q 2534,454 2419,304 2304,154 2080,42 1856,-70 1587,-70 1024,-70 601,355 179,781 179,1408 Z m 538,205 h 1517 q 0,134 -23,284 -22,151 -90,359 -67,208 -224,339 -156,131 -387,131 -102,0 -214,-45 -112,-44 -247,-150 Q 915,2426 822,2186 730,1946 717,1613 Z"
             id="CMUSerif-Roman-65"
             transform="scale(0.015625)"
             inkscape:connector-curvature="0"
             style="stroke-linecap:butt;stroke-linejoin:round" />
          <path
             d="m 624,352 q -406,422 -406,1030 0,608 400,1046 400,439 988,439 391,0 685,-186 295,-185 295,-499 0,-140 -84,-220 -83,-80 -211,-80 -134,0 -214,83 -80,83 -80,211 0,58 19,112 19,54 89,115 71,61 193,67 -231,237 -685,237 -327,0 -596,-307 -268,-307 -268,-1005 0,-365 89,-634 90,-268 237,-406 147,-137 291,-201 144,-64 285,-64 627,0 839,672 19,64 83,64 83,0 83,-64 0,-32 -26,-112 Q 2605,570 2528,442 2451,314 2339,202 2227,90 2032,10 1837,-70 1594,-70 1030,-70 624,352 Z"
             id="CMUSerif-Roman-63"
             transform="scale(0.015625)"
             inkscape:connector-curvature="0"
             style="stroke-linecap:butt;stroke-linejoin:round" />
          <path
             d="m 122,2560 v 141 q 294,13 489,221 195,208 262,464 68,256 74,550 h 160 V 2758 h 915 V 2560 H 1107 V 781 q 0,-691 429,-691 186,0 307,188 122,189 122,528 v 352 h 160 V 794 q 0,-346 -160,-605 -160,-259 -474,-259 -115,0 -230,29 -115,28 -263,105 -147,77 -240,265 -92,189 -92,465 v 1766 z"
             id="CMUSerif-Roman-74"
             transform="scale(0.015625)"
             inkscape:connector-curvature="0"
             style="stroke-linecap:butt;stroke-linejoin:round" />
          <path
             d="m 211,0 v 198 q 339,0 419,42 80,42 80,246 v 1722 q 0,237 -80,294 -80,58 -393,58 v 198 l 896,71 V 480 q 0,-192 67,-237 67,-45 381,-45 V 0 Q 928,19 915,19 826,19 211,0 Z m 269,3942 q 0,128 99,234 99,106 240,106 141,0 240,-96 99,-96 99,-244 0,-147 -99,-243 -99,-96 -240,-96 -147,0 -243,102 -96,103 -96,237 z"
             id="CMUSerif-Roman-69"
             transform="scale(0.015625)"
             inkscape:connector-curvature="0"
             style="stroke-linecap:butt;stroke-linejoin:round" />
          <path
             d="m 122,2560 v 198 q 288,-19 620,-19 122,0 698,19 v -198 q -365,0 -365,-166 0,-26 39,-109 l 716,-1786 653,1632 q 39,109 39,154 0,109 -74,189 -74,80 -234,86 v 198 q 327,-19 557,-19 263,0 480,19 v -198 q -192,0 -327,-87 -134,-86 -176,-160 -41,-73 -86,-182 L 1824,51 q -51,-121 -134,-121 -58,0 -81,22 -22,22 -54,99 L 634,2323 q -64,160 -144,198 -80,39 -368,39 z"
             id="CMUSerif-Roman-76"
             transform="scale(0.015625)"
             inkscape:connector-curvature="0"
             style="stroke-linecap:butt;stroke-linejoin:round" />
        </defs>
        <use
           xlink:href="#CMUSerif-Roman-61"
           id="use565"
           style="stroke-linecap:butt;stroke-linejoin:round"
           x="0"
           y="0"
           width="100%"
           height="100%" />
        <use
           x="49.999985"
           xlink:href="#CMUSerif-Roman-66"
           id="use567"
           style="stroke-linecap:butt;stroke-linejoin:round"
           y="0"
           width="100%"
           height="100%" />
        <use
           x="80.499969"
           xlink:href="#CMUSerif-Roman-66"
           id="use569"
           style="stroke-linecap:butt;stroke-linejoin:round"
           y="0"
           width="100%"
           height="100%" />
        <use
           x="110.99995"
           xlink:href="#CMUSerif-Roman-65"
           id="use571"
           style="stroke-linecap:butt;stroke-linejoin:round"
           y="0"
           width="100%"
           height="100%" />
        <use
           x="155.39995"
           xlink:href="#CMUSerif-Roman-63"
           id="use573"
           style="stroke-linecap:butt;stroke-linejoin:round"
           y="0"
           width="100%"
           height="100%" />
        <use
           x="199.79994"
           xlink:href="#CMUSerif-Roman-74"
           id="use575"
           style="stroke-linecap:butt;stroke-linejoin:round"
           y="0"
           width="100%"
           height="100%" />
        <use
           x="238.59993"
           xlink:href="#CMUSerif-Roman-69"
           id="use577"
           style="stroke-linecap:butt;stroke-linejoin:round"
           y="0"
           width="100%"
           height="100%" />
        <use
           x="266.29993"
           xlink:href="#CMUSerif-Roman-76"
           id="use579"
           style="stroke-linecap:butt;stroke-linejoin:round"
           y="0"
           width="100%"
           height="100%" />
        <use
           x="318.99994"
           xlink:href="#CMUSerif-Roman-65"
           id="use581"
           style="stroke-linecap:butt;stroke-linejoin:round"
           y="0"
           width="100%"
           height="100%" />
      </g>
    </g>
    <g
       id="line2d_7"
       style="stroke-linecap:butt;stroke-linejoin:round" />
    <g
       id="line2d_8"
       style="stroke-linecap:butt;stroke-linejoin:round">
      <defs
         id="defs588">
        <path
           d="M 0,2.5 C 0.663008,2.5 1.29895,2.236584 1.767767,1.767767 2.236584,1.29895 2.5,0.663008 2.5,0 2.5,-0.663008 2.236584,-1.29895 1.767767,-1.767767 1.29895,-2.236584 0.663008,-2.5 0,-2.5 c -0.663008,0 -1.29895,0.263416 -1.767767,0.732233 C -2.236584,-1.29895 -2.5,-0.663008 -2.5,0 c 0,0.663008 0.263416,1.29895 0.732233,1.767767 C -1.29895,2.236584 -0.663008,2.5 0,2.5 Z"
           id="m21c42b9195"
           inkscape:connector-curvature="0"
           style="stroke-linecap:butt;stroke-linejoin:round" />
      </defs>
      <g
         id="g592"
         style="stroke-linecap:butt;stroke-linejoin:round">
        <use
           style="fill:#ff603d;fill-opacity:0.6;stroke-linecap:butt;stroke-linejoin:round"
           x="160.30937"
           xlink:href="#m21c42b9195"
           y="58.387344"
           id="use590"
           width="100%"
           height="100%" />
      </g>
    </g>
    <g
       id="text_8"
       style="stroke-linecap:butt;stroke-linejoin:round">
      <!-- non-affective -->
      <g
         transform="matrix(0.11,0,0,-0.11,180.10937,62.237344)"
         id="g626"
         style="stroke-linecap:butt;stroke-linejoin:round">
        <defs
           id="defs598">
          <path
             d="m 205,0 v 198 q 339,0 419,42 80,42 80,246 v 1716 q 0,236 -83,297 -83,61 -416,61 v 198 l 902,71 v -672 q 301,672 947,672 480,0 672,-237 141,-160 170,-339 29,-179 29,-640 V 390 q 6,-134 108,-163 103,-29 391,-29 V 0 q -653,19 -717,19 -51,0 -723,-19 v 198 q 339,0 419,42 80,42 80,246 v 1492 q 0,326 -99,518 -99,192 -374,192 -333,0 -599,-279 -265,-278 -265,-745 V 486 q 0,-204 80,-246 80,-42 419,-42 V 0 Q 992,19 928,19 877,19 205,0 Z"
             id="CMUSerif-Roman-6e"
             transform="scale(0.015625)"
             inkscape:connector-curvature="0"
             style="stroke-linecap:butt;stroke-linejoin:round" />
          <path
             d="m 601,346 q -422,416 -422,1024 0,608 413,1052 413,445 1008,445 582,0 998,-442 416,-441 416,-1055 0,-602 -419,-1021 -419,-419 -1001,-419 -570,0 -993,416 z m 109,1075 q 0,-621 160,-903 250,-428 730,-428 237,0 435,128 199,128 307,345 141,282 141,858 0,614 -166,889 -250,416 -723,416 -205,0 -407,-109 Q 986,2509 864,2298 710,2016 710,1421 Z"
             id="CMUSerif-Roman-6f"
             transform="scale(0.015625)"
             inkscape:connector-curvature="0"
             style="stroke-linecap:butt;stroke-linejoin:round" />
          <path
             d="m 64,1190 v 378 h 1702 v -378 z"
             id="CMUSerif-Roman-2d"
             transform="scale(0.015625)"
             inkscape:connector-curvature="0"
             style="stroke-linecap:butt;stroke-linejoin:round" />
        </defs>
        <use
           xlink:href="#CMUSerif-Roman-6e"
           id="use600"
           style="stroke-linecap:butt;stroke-linejoin:round"
           x="0"
           y="0"
           width="100%"
           height="100%" />
        <use
           x="55.499985"
           xlink:href="#CMUSerif-Roman-6f"
           id="use602"
           style="stroke-linecap:butt;stroke-linejoin:round"
           y="0"
           width="100%"
           height="100%" />
        <use
           x="105.49997"
           xlink:href="#CMUSerif-Roman-6e"
           id="use604"
           style="stroke-linecap:butt;stroke-linejoin:round"
           y="0"
           width="100%"
           height="100%" />
        <use
           x="160.99995"
           xlink:href="#CMUSerif-Roman-2d"
           id="use606"
           style="stroke-linecap:butt;stroke-linejoin:round"
           y="0"
           width="100%"
           height="100%" />
        <use
           x="194.29994"
           xlink:href="#CMUSerif-Roman-61"
           id="use608"
           style="stroke-linecap:butt;stroke-linejoin:round"
           y="0"
           width="100%"
           height="100%" />
        <use
           x="244.29993"
           xlink:href="#CMUSerif-Roman-66"
           id="use610"
           style="stroke-linecap:butt;stroke-linejoin:round"
           y="0"
           width="100%"
           height="100%" />
        <use
           x="274.7999"
           xlink:href="#CMUSerif-Roman-66"
           id="use612"
           style="stroke-linecap:butt;stroke-linejoin:round"
           y="0"
           width="100%"
           height="100%" />
        <use
           x="305.2999"
           xlink:href="#CMUSerif-Roman-65"
           id="use614"
           style="stroke-linecap:butt;stroke-linejoin:round"
           y="0"
           width="100%"
           height="100%" />
        <use
           x="349.69989"
           xlink:href="#CMUSerif-Roman-63"
           id="use616"
           style="stroke-linecap:butt;stroke-linejoin:round"
           y="0"
           width="100%"
           height="100%" />
        <use
           x="394.09988"
           xlink:href="#CMUSerif-Roman-74"
           id="use618"
           style="stroke-linecap:butt;stroke-linejoin:round"
           y="0"
           width="100%"
           height="100%" />
        <use
           x="432.89987"
           xlink:href="#CMUSerif-Roman-69"
           id="use620"
           style="stroke-linecap:butt;stroke-linejoin:round"
           y="0"
           width="100%"
           height="100%" />
        <use
           x="460.59988"
           xlink:href="#CMUSerif-Roman-76"
           id="use622"
           style="stroke-linecap:butt;stroke-linejoin:round"
           y="0"
           width="100%"
           height="100%" />
        <use
           x="513.29987"
           xlink:href="#CMUSerif-Roman-65"
           id="use624"
           style="stroke-linecap:butt;stroke-linejoin:round"
           y="0"
           width="100%"
           height="100%" />
      </g>
    </g>
  </g>
  <defs
     id="defs635">
    <clipPath
       id="p86010f06da"
       style="stroke-linecap:butt;stroke-linejoin:round">
      <rect
         height="81.540001"
         width="111.6"
         x="38.969376"
         y="11.017344"
         id="rect632"
         style="stroke-linecap:butt;stroke-linejoin:round" />
    </clipPath>
  </defs>
</svg>
