<?xml version="1.0" encoding="utf-8" standalone="no"?>
<!DOCTYPE svg PUBLIC "-//W3C//DTD SVG 1.1//EN"
  "http://www.w3.org/Graphics/SVG/1.1/DTD/svg11.dtd">
<svg height="139.889375pt" version="1.1" viewBox="0 0 242.7 139.889375" width="242.7pt" xmlns="http://www.w3.org/2000/svg" xmlns:xlink="http://www.w3.org/1999/xlink">
 <metadata>
  <rdf:RDF xmlns:cc="http://creativecommons.org/ns#" xmlns:dc="http://purl.org/dc/elements/1.1/" xmlns:rdf="http://www.w3.org/1999/02/22-rdf-syntax-ns#">
   <cc:Work>
    <dc:type rdf:resource="http://purl.org/dc/dcmitype/StillImage"/>
    <dc:date>2023-02-21T15:12:46.699141</dc:date>
    <dc:format>image/svg+xml</dc:format>
    <dc:creator>
     <cc:Agent>
      <dc:title>Matplotlib v3.4.3, https://matplotlib.org/</dc:title>
     </cc:Agent>
    </dc:creator>
   </cc:Work>
  </rdf:RDF>
 </metadata>
 <defs>
  <style type="text/css">*{stroke-linecap:butt;stroke-linejoin:round;}</style>
 </defs>
 <g id="figure_1">
  <g id="patch_1">
   <path d="M 0 139.889375 
L 242.7 139.889375 
L 242.7 0 
L 0 0 
z
" style="fill:none;"/>
  </g>
  <g id="axes_1">
   <g id="patch_2">
    <path d="M 40.2 115.92 
L 235.5 115.92 
L 235.5 7.2 
L 40.2 7.2 
z
" style="fill:#ffffff;"/>
   </g>
   <g id="matplotlib.axis_1">
    <g id="xtick_1">
     <g id="line2d_1">
      <defs>
       <path d="M 0 0 
L 0 3.5 
" id="m9120ada55f" style="stroke:#000000;stroke-width:0.8;"/>
      </defs>
      <g>
       <use style="stroke:#000000;stroke-width:0.8;" x="49.077273" xlink:href="#m9120ada55f" y="115.92"/>
      </g>
     </g>
     <g id="text_1">
      <!-- PC1 -->
      <g transform="translate(38.616101 130.554687)scale(0.11 -0.11)">
       <defs>
        <path d="M 224 0 
L 224 198 
L 378 198 
Q 723 198 803 256 
Q 883 314 883 499 
L 883 3872 
Q 883 4058 803 4115 
Q 723 4173 378 4173 
L 224 4173 
L 224 4371 
L 2483 4371 
Q 3130 4371 3562 4016 
Q 3994 3661 3994 3181 
Q 3994 2707 3555 2364 
Q 3117 2022 2534 2022 
L 1453 2022 
L 1453 499 
Q 1453 314 1533 256 
Q 1613 198 1958 198 
L 2112 198 
L 2112 0 
Q 1888 19 1165 19 
Q 448 19 224 0 
z
M 1434 2189 
L 2317 2189 
Q 2605 2189 2813 2269 
Q 3021 2349 3117 2448 
Q 3213 2547 3267 2707 
Q 3322 2867 3328 2956 
Q 3334 3046 3334 3181 
Q 3334 3322 3328 3411 
Q 3322 3501 3267 3661 
Q 3213 3821 3117 3920 
Q 3021 4019 2813 4096 
Q 2605 4173 2317 4173 
L 1747 4173 
Q 1530 4173 1482 4128 
Q 1434 4083 1434 3917 
L 1434 2189 
z
" id="CMUSerif-Roman-50" transform="scale(0.015625)"/>
        <path d="M 358 2189 
Q 358 3155 1017 3833 
Q 1677 4512 2586 4512 
Q 2867 4512 3116 4409 
Q 3366 4307 3481 4217 
Q 3597 4128 3763 3962 
L 4083 4435 
Q 4134 4512 4185 4512 
Q 4237 4512 4246 4483 
Q 4256 4454 4256 4358 
L 4256 2842 
Q 4256 2739 4243 2713 
Q 4230 2688 4154 2688 
Q 4090 2688 4077 2707 
Q 4064 2726 4051 2797 
Q 3955 3488 3571 3901 
Q 3187 4314 2656 4314 
Q 2502 4314 2332 4278 
Q 2163 4243 1916 4112 
Q 1670 3981 1481 3763 
Q 1293 3546 1155 3136 
Q 1018 2726 1018 2182 
Q 1018 1645 1155 1232 
Q 1293 819 1481 604 
Q 1670 390 1916 259 
Q 2163 128 2336 93 
Q 2509 58 2662 58 
Q 3213 58 3635 448 
Q 4058 838 4096 1498 
Q 4102 1530 4102 1542 
Q 4102 1555 4108 1571 
Q 4115 1587 4131 1593 
Q 4147 1600 4173 1600 
Q 4256 1600 4256 1491 
Q 4256 883 3789 371 
Q 3322 -141 2586 -141 
Q 1677 -141 1017 534 
Q 358 1210 358 2189 
z
" id="CMUSerif-Roman-43" transform="scale(0.015625)"/>
        <path d="M 570 3654 
L 570 3853 
Q 1338 3853 1734 4262 
Q 1843 4262 1862 4236 
Q 1882 4211 1882 4096 
L 1882 506 
Q 1882 314 1974 256 
Q 2067 198 2477 198 
L 2682 198 
L 2682 0 
Q 2458 19 1645 19 
Q 832 19 608 0 
L 608 198 
L 813 198 
Q 1216 198 1312 256 
Q 1408 314 1408 506 
L 1408 3821 
Q 1075 3654 570 3654 
z
" id="CMUSerif-Roman-31" transform="scale(0.015625)"/>
       </defs>
       <use xlink:href="#CMUSerif-Roman-50"/>
       <use x="67.999985" xlink:href="#CMUSerif-Roman-43"/>
       <use x="140.199966" xlink:href="#CMUSerif-Roman-31"/>
      </g>
     </g>
    </g>
    <g id="xtick_2">
     <g id="line2d_2">
      <g>
       <use style="stroke:#000000;stroke-width:0.8;" x="87.674111" xlink:href="#m9120ada55f" y="115.92"/>
      </g>
     </g>
     <g id="text_2">
      <!-- PC11 -->
      <g transform="translate(74.462939 130.554687)scale(0.11 -0.11)">
       <use xlink:href="#CMUSerif-Roman-50"/>
       <use x="67.999985" xlink:href="#CMUSerif-Roman-43"/>
       <use x="140.199966" xlink:href="#CMUSerif-Roman-31"/>
       <use x="190.199951" xlink:href="#CMUSerif-Roman-31"/>
      </g>
     </g>
    </g>
    <g id="xtick_3">
     <g id="line2d_3">
      <g>
       <use style="stroke:#000000;stroke-width:0.8;" x="126.270949" xlink:href="#m9120ada55f" y="115.92"/>
      </g>
     </g>
     <g id="text_3">
      <!-- PC21 -->
      <g transform="translate(113.059777 130.554687)scale(0.11 -0.11)">
       <defs>
        <path d="M 320 0 
Q 320 115 329 150 
Q 339 186 390 237 
L 1619 1606 
Q 2291 2362 2291 3021 
Q 2291 3450 2067 3757 
Q 1843 4064 1434 4064 
Q 1152 4064 915 3891 
Q 678 3718 570 3411 
Q 589 3418 653 3418 
Q 813 3418 902 3318 
Q 992 3219 992 3085 
Q 992 2912 880 2829 
Q 768 2746 659 2746 
Q 614 2746 556 2755 
Q 499 2765 409 2854 
Q 320 2944 320 3104 
Q 320 3552 659 3907 
Q 998 4262 1517 4262 
Q 2106 4262 2490 3913 
Q 2874 3565 2874 3021 
Q 2874 2829 2816 2656 
Q 2758 2483 2681 2348 
Q 2605 2214 2400 2000 
Q 2195 1786 2028 1632 
Q 1862 1478 1491 1152 
L 813 493 
L 1965 493 
Q 2528 493 2573 544 
Q 2637 634 2714 1114 
L 2874 1114 
L 2694 0 
L 320 0 
z
" id="CMUSerif-Roman-32" transform="scale(0.015625)"/>
       </defs>
       <use xlink:href="#CMUSerif-Roman-50"/>
       <use x="67.999985" xlink:href="#CMUSerif-Roman-43"/>
       <use x="140.199966" xlink:href="#CMUSerif-Roman-32"/>
       <use x="190.199951" xlink:href="#CMUSerif-Roman-31"/>
      </g>
     </g>
    </g>
    <g id="xtick_4">
     <g id="line2d_4">
      <g>
       <use style="stroke:#000000;stroke-width:0.8;" x="164.867787" xlink:href="#m9120ada55f" y="115.92"/>
      </g>
     </g>
     <g id="text_4">
      <!-- PC31 -->
      <g transform="translate(151.656615 130.554687)scale(0.11 -0.11)">
       <defs>
        <path d="M 269 864 
Q 269 1056 377 1145 
Q 486 1235 627 1235 
Q 774 1235 880 1139 
Q 986 1043 986 877 
Q 986 698 861 598 
Q 736 499 563 525 
Q 717 269 998 153 
Q 1280 38 1542 38 
Q 1818 38 2042 275 
Q 2266 512 2266 1094 
Q 2266 1587 2074 1872 
Q 1882 2157 1504 2157 
L 1222 2157 
Q 1126 2157 1097 2166 
Q 1069 2176 1069 2227 
Q 1069 2291 1165 2304 
Q 1261 2304 1414 2323 
Q 1786 2336 1984 2656 
Q 2163 2957 2163 3386 
Q 2163 3776 1977 3939 
Q 1792 4102 1549 4102 
Q 1325 4102 1078 4009 
Q 832 3917 698 3706 
Q 1094 3706 1094 3386 
Q 1094 3245 1004 3152 
Q 915 3059 768 3059 
Q 627 3059 534 3148 
Q 442 3238 442 3392 
Q 442 3757 768 4009 
Q 1094 4262 1574 4262 
Q 2048 4262 2400 4012 
Q 2752 3763 2752 3379 
Q 2752 3002 2502 2691 
Q 2253 2381 1856 2253 
Q 2342 2157 2633 1827 
Q 2925 1498 2925 1094 
Q 2925 595 2531 227 
Q 2138 -141 1562 -141 
Q 1030 -141 649 147 
Q 269 435 269 864 
z
" id="CMUSerif-Roman-33" transform="scale(0.015625)"/>
       </defs>
       <use xlink:href="#CMUSerif-Roman-50"/>
       <use x="67.999985" xlink:href="#CMUSerif-Roman-43"/>
       <use x="140.199966" xlink:href="#CMUSerif-Roman-33"/>
       <use x="190.199951" xlink:href="#CMUSerif-Roman-31"/>
      </g>
     </g>
    </g>
    <g id="xtick_5">
     <g id="line2d_5">
      <g>
       <use style="stroke:#000000;stroke-width:0.8;" x="203.464625" xlink:href="#m9120ada55f" y="115.92"/>
      </g>
     </g>
     <g id="text_5">
      <!-- PC41 -->
      <g transform="translate(190.253453 130.554687)scale(0.11 -0.11)">
       <defs>
        <path d="M 179 1056 
L 179 1254 
L 2144 4256 
Q 2195 4333 2272 4333 
Q 2342 4333 2358 4304 
Q 2374 4275 2374 4166 
L 2374 1254 
L 3014 1254 
L 3014 1056 
L 2374 1056 
L 2374 499 
Q 2374 314 2451 256 
Q 2528 198 2861 198 
L 2995 198 
L 2995 0 
Q 2733 19 2125 19 
Q 1523 19 1261 0 
L 1261 198 
L 1395 198 
Q 1728 198 1805 256 
Q 1882 314 1882 499 
L 1882 1056 
L 179 1056 
z
M 358 1254 
L 1920 1254 
L 1920 3642 
L 358 1254 
z
" id="CMUSerif-Roman-34" transform="scale(0.015625)"/>
       </defs>
       <use xlink:href="#CMUSerif-Roman-50"/>
       <use x="67.999985" xlink:href="#CMUSerif-Roman-43"/>
       <use x="140.199966" xlink:href="#CMUSerif-Roman-34"/>
       <use x="190.199951" xlink:href="#CMUSerif-Roman-31"/>
      </g>
     </g>
    </g>
   </g>
   <g id="matplotlib.axis_2">
    <g id="ytick_1">
     <g id="line2d_6">
      <defs>
       <path d="M 0 0 
L -3.5 0 
" id="mc499b739f2" style="stroke:#000000;stroke-width:0.8;"/>
      </defs>
      <g>
       <use style="stroke:#000000;stroke-width:0.8;" x="40.2" xlink:href="#mc499b739f2" y="110.978182"/>
      </g>
     </g>
     <g id="text_6">
      <!-- 0 -->
      <g transform="translate(27.7 114.795526)scale(0.11 -0.11)">
       <defs>
        <path d="M 250 2048 
Q 250 2989 486 3501 
Q 819 4262 1600 4262 
Q 1766 4262 1939 4217 
Q 2112 4173 2333 4000 
Q 2554 3827 2688 3546 
Q 2944 3002 2944 2048 
Q 2944 1114 2707 602 
Q 2362 -141 1594 -141 
Q 1306 -141 1014 6 
Q 723 154 538 506 
Q 250 1037 250 2048 
z
M 781 2125 
Q 781 1158 851 774 
Q 928 358 1142 179 
Q 1357 0 1594 0 
Q 1850 0 2064 192 
Q 2278 384 2342 800 
Q 2413 1210 2413 2125 
Q 2413 3014 2349 3373 
Q 2266 3789 2042 3955 
Q 1818 4122 1594 4122 
Q 1510 4122 1420 4096 
Q 1331 4070 1203 4000 
Q 1075 3930 976 3750 
Q 877 3571 832 3302 
Q 781 2957 781 2125 
z
" id="CMUSerif-Roman-30" transform="scale(0.015625)"/>
       </defs>
       <use xlink:href="#CMUSerif-Roman-30"/>
      </g>
     </g>
    </g>
    <g id="ytick_2">
     <g id="line2d_7">
      <g>
       <use style="stroke:#000000;stroke-width:0.8;" x="40.2" xlink:href="#mc499b739f2" y="72.7052"/>
      </g>
     </g>
     <g id="text_7">
      <!-- 10 -->
      <g transform="translate(22.2 76.522544)scale(0.11 -0.11)">
       <use xlink:href="#CMUSerif-Roman-31"/>
       <use x="49.999985" xlink:href="#CMUSerif-Roman-30"/>
      </g>
     </g>
    </g>
    <g id="ytick_3">
     <g id="line2d_8">
      <g>
       <use style="stroke:#000000;stroke-width:0.8;" x="40.2" xlink:href="#mc499b739f2" y="34.432219"/>
      </g>
     </g>
     <g id="text_8">
      <!-- 20 -->
      <g transform="translate(22.2 38.249562)scale(0.11 -0.11)">
       <use xlink:href="#CMUSerif-Roman-32"/>
       <use x="49.999985" xlink:href="#CMUSerif-Roman-30"/>
      </g>
     </g>
    </g>
    <g id="text_9">
     <!-- explained variance [%] -->
     <g transform="translate(15.45 115.609531)rotate(-90)scale(0.11 -0.11)">
      <defs>
       <path d="M 179 1408 
Q 179 2010 566 2438 
Q 954 2867 1510 2867 
Q 2074 2867 2365 2502 
Q 2656 2138 2656 1613 
Q 2656 1517 2630 1497 
Q 2605 1478 2496 1478 
L 710 1478 
Q 710 826 902 518 
Q 1171 90 1626 90 
Q 1690 90 1763 102 
Q 1837 115 1990 169 
Q 2144 224 2278 371 
Q 2413 518 2490 749 
Q 2509 838 2573 838 
Q 2656 838 2656 762 
Q 2656 704 2595 579 
Q 2534 454 2419 304 
Q 2304 154 2080 42 
Q 1856 -70 1587 -70 
Q 1024 -70 601 355 
Q 179 781 179 1408 
z
M 717 1613 
L 2234 1613 
Q 2234 1747 2211 1897 
Q 2189 2048 2121 2256 
Q 2054 2464 1897 2595 
Q 1741 2726 1510 2726 
Q 1408 2726 1296 2681 
Q 1184 2637 1049 2531 
Q 915 2426 822 2186 
Q 730 1946 717 1613 
z
" id="CMUSerif-Roman-65" transform="scale(0.015625)"/>
       <path d="M 77 0 
L 77 198 
Q 576 198 896 582 
Q 896 582 1498 1344 
L 864 2170 
Q 640 2458 541 2509 
Q 442 2560 109 2560 
L 109 2758 
Q 371 2739 717 2739 
Q 909 2739 1408 2758 
L 1408 2560 
Q 1184 2547 1184 2400 
Q 1184 2349 1242 2285 
L 1741 1638 
L 2138 2138 
Q 2234 2253 2234 2362 
Q 2234 2541 2048 2560 
L 2048 2758 
Q 2298 2739 2662 2739 
Q 2938 2739 3187 2758 
L 3187 2560 
Q 2701 2547 2426 2227 
Q 2304 2093 1837 1504 
L 2694 397 
Q 2797 262 2912 230 
Q 3027 198 3302 198 
L 3302 0 
Q 3014 19 2688 19 
Q 2573 19 1997 0 
L 1997 198 
Q 2112 205 2169 256 
Q 2227 307 2227 358 
Q 2227 384 2093 570 
L 1606 1210 
Q 1120 634 1056 499 
Q 1030 442 1030 397 
Q 1030 224 1216 198 
L 1216 0 
Q 755 19 608 19 
Q 326 19 77 0 
z
" id="CMUSerif-Roman-78" transform="scale(0.015625)"/>
       <path d="M 179 -1043 
Q 518 -1043 598 -1001 
Q 678 -960 678 -755 
L 678 2240 
Q 678 2451 598 2505 
Q 518 2560 179 2560 
L 179 2758 
L 1101 2829 
L 1101 2406 
Q 1485 2829 1997 2829 
Q 2541 2829 2937 2406 
Q 3334 1984 3334 1382 
Q 3334 774 2912 352 
Q 2490 -70 1907 -70 
Q 1587 -70 1372 93 
Q 1158 256 1120 378 
L 1120 320 
L 1120 -755 
Q 1120 -960 1200 -1001 
Q 1280 -1043 1619 -1043 
L 1619 -1242 
Q 947 -1222 896 -1222 
Q 832 -1222 179 -1242 
L 179 -1043 
z
M 1120 730 
Q 1120 634 1133 598 
Q 1146 563 1210 461 
Q 1466 70 1882 70 
Q 2246 70 2524 444 
Q 2803 819 2803 1382 
Q 2803 1920 2550 2294 
Q 2298 2669 1946 2669 
Q 1696 2669 1478 2534 
Q 1261 2400 1120 2157 
L 1120 730 
z
" id="CMUSerif-Roman-70" transform="scale(0.015625)"/>
       <path d="M 211 0 
L 211 198 
Q 550 198 630 240 
Q 710 282 710 486 
L 710 3814 
Q 710 4051 627 4112 
Q 544 4173 211 4173 
L 211 4371 
L 1133 4442 
L 1133 486 
Q 1133 282 1213 240 
Q 1293 198 1632 198 
L 1632 0 
Q 1555 0 1392 6 
Q 1229 13 1110 16 
Q 992 19 922 19 
Q 845 19 211 0 
z
" id="CMUSerif-Roman-6c" transform="scale(0.015625)"/>
       <path d="M 269 608 
Q 269 1152 909 1440 
Q 1293 1626 2086 1670 
L 2086 1907 
Q 2086 2304 1878 2515 
Q 1670 2726 1408 2726 
Q 941 2726 717 2432 
Q 909 2426 976 2330 
Q 1043 2234 1043 2138 
Q 1043 2010 963 1926 
Q 883 1843 749 1843 
Q 621 1843 537 1923 
Q 454 2003 454 2144 
Q 454 2458 736 2662 
Q 1018 2867 1421 2867 
Q 1946 2867 2298 2515 
Q 2406 2406 2460 2265 
Q 2515 2125 2521 2032 
Q 2528 1939 2528 1760 
L 2528 480 
Q 2528 442 2541 381 
Q 2554 320 2611 240 
Q 2669 160 2765 160 
Q 2995 160 2995 570 
L 2995 928 
L 3155 928 
L 3155 570 
Q 3155 230 2976 96 
Q 2797 -38 2630 -38 
Q 2419 -38 2284 118 
Q 2150 275 2131 486 
Q 2035 243 1814 86 
Q 1594 -70 1293 -70 
Q 1062 -70 844 -12 
Q 627 45 448 205 
Q 269 365 269 608 
z
M 762 614 
Q 762 378 931 224 
Q 1101 70 1338 70 
Q 1606 70 1846 278 
Q 2086 486 2086 896 
L 2086 1536 
Q 1376 1510 1069 1228 
Q 762 947 762 614 
z
" id="CMUSerif-Roman-61" transform="scale(0.015625)"/>
       <path d="M 211 0 
L 211 198 
Q 550 198 630 240 
Q 710 282 710 486 
L 710 2208 
Q 710 2445 630 2502 
Q 550 2560 237 2560 
L 237 2758 
L 1133 2829 
L 1133 480 
Q 1133 288 1200 243 
Q 1267 198 1581 198 
L 1581 0 
Q 928 19 915 19 
Q 826 19 211 0 
z
M 480 3942 
Q 480 4070 579 4176 
Q 678 4282 819 4282 
Q 960 4282 1059 4186 
Q 1158 4090 1158 3942 
Q 1158 3795 1059 3699 
Q 960 3603 819 3603 
Q 672 3603 576 3705 
Q 480 3808 480 3942 
z
" id="CMUSerif-Roman-69" transform="scale(0.015625)"/>
       <path d="M 205 0 
L 205 198 
Q 544 198 624 240 
Q 704 282 704 486 
L 704 2202 
Q 704 2438 621 2499 
Q 538 2560 205 2560 
L 205 2758 
L 1107 2829 
L 1107 2157 
Q 1408 2829 2054 2829 
Q 2534 2829 2726 2592 
Q 2867 2432 2896 2253 
Q 2925 2074 2925 1613 
L 2925 390 
Q 2931 256 3033 227 
Q 3136 198 3424 198 
L 3424 0 
Q 2771 19 2707 19 
Q 2656 19 1984 0 
L 1984 198 
Q 2323 198 2403 240 
Q 2483 282 2483 486 
L 2483 1978 
Q 2483 2304 2384 2496 
Q 2285 2688 2010 2688 
Q 1677 2688 1411 2409 
Q 1146 2131 1146 1664 
L 1146 486 
Q 1146 282 1226 240 
Q 1306 198 1645 198 
L 1645 0 
Q 992 19 928 19 
Q 877 19 205 0 
z
" id="CMUSerif-Roman-6e" transform="scale(0.015625)"/>
       <path d="M 218 1376 
Q 218 1984 643 2406 
Q 1069 2829 1645 2829 
Q 2131 2829 2451 2432 
L 2451 3814 
Q 2451 4051 2368 4112 
Q 2285 4173 1952 4173 
L 1952 4371 
L 2874 4442 
L 2874 557 
Q 2874 320 2957 259 
Q 3040 198 3373 198 
L 3373 0 
L 2432 -70 
L 2432 352 
Q 2099 -70 1574 -70 
Q 1024 -70 621 352 
Q 218 774 218 1376 
z
M 749 1370 
Q 749 774 934 480 
Q 1190 70 1606 70 
Q 2080 70 2362 518 
Q 2432 627 2432 755 
L 2432 2067 
Q 2432 2195 2362 2304 
Q 2099 2688 1670 2688 
Q 1222 2688 947 2278 
Q 749 1971 749 1370 
z
" id="CMUSerif-Roman-64" transform="scale(0.015625)"/>
       <path id="CMUSerif-Roman-20" transform="scale(0.015625)"/>
       <path d="M 122 2560 
L 122 2758 
Q 410 2739 742 2739 
Q 864 2739 1440 2758 
L 1440 2560 
Q 1075 2560 1075 2394 
Q 1075 2368 1114 2285 
L 1830 499 
L 2483 2131 
Q 2522 2240 2522 2285 
Q 2522 2394 2448 2474 
Q 2374 2554 2214 2560 
L 2214 2758 
Q 2541 2739 2771 2739 
Q 3034 2739 3251 2758 
L 3251 2560 
Q 3059 2560 2924 2473 
Q 2790 2387 2748 2313 
Q 2707 2240 2662 2131 
L 1824 51 
Q 1773 -70 1690 -70 
Q 1632 -70 1609 -48 
Q 1587 -26 1555 51 
L 634 2323 
Q 570 2483 490 2521 
Q 410 2560 122 2560 
z
" id="CMUSerif-Roman-76" transform="scale(0.015625)"/>
       <path d="M 179 0 
L 179 198 
Q 518 198 598 240 
Q 678 282 678 486 
L 678 2202 
Q 678 2438 595 2499 
Q 512 2560 179 2560 
L 179 2758 
L 1069 2829 
L 1069 2125 
Q 1158 2400 1350 2614 
Q 1542 2829 1856 2829 
Q 2061 2829 2195 2713 
Q 2330 2598 2330 2438 
Q 2330 2298 2243 2227 
Q 2157 2157 2054 2157 
Q 1939 2157 1859 2230 
Q 1779 2304 1779 2432 
Q 1779 2509 1814 2569 
Q 1850 2630 1878 2652 
Q 1907 2675 1926 2682 
Q 1914 2688 1856 2688 
Q 1504 2688 1302 2336 
Q 1101 1984 1101 1485 
L 1101 499 
Q 1101 314 1177 256 
Q 1254 198 1587 198 
L 1722 198 
L 1722 0 
Q 1466 19 909 19 
Q 832 19 710 16 
Q 589 13 429 6 
Q 269 0 179 0 
z
" id="CMUSerif-Roman-72" transform="scale(0.015625)"/>
       <path d="M 624 352 
Q 218 774 218 1382 
Q 218 1990 618 2428 
Q 1018 2867 1606 2867 
Q 1997 2867 2291 2681 
Q 2586 2496 2586 2182 
Q 2586 2042 2502 1962 
Q 2419 1882 2291 1882 
Q 2157 1882 2077 1965 
Q 1997 2048 1997 2176 
Q 1997 2234 2016 2288 
Q 2035 2342 2105 2403 
Q 2176 2464 2298 2470 
Q 2067 2707 1613 2707 
Q 1286 2707 1017 2400 
Q 749 2093 749 1395 
Q 749 1030 838 761 
Q 928 493 1075 355 
Q 1222 218 1366 154 
Q 1510 90 1651 90 
Q 2278 90 2490 762 
Q 2509 826 2573 826 
Q 2656 826 2656 762 
Q 2656 730 2630 650 
Q 2605 570 2528 442 
Q 2451 314 2339 202 
Q 2227 90 2032 10 
Q 1837 -70 1594 -70 
Q 1030 -70 624 352 
z
" id="CMUSerif-Roman-63" transform="scale(0.015625)"/>
       <path d="M 666 -1600 
L 666 4800 
L 1632 4800 
L 1632 4653 
L 1094 4653 
L 1094 -1453 
L 1632 -1453 
L 1632 -1600 
L 666 -1600 
z
" id="CMUSerif-Roman-5b" transform="scale(0.015625)"/>
       <path d="M 358 3514 
Q 358 4064 640 4432 
Q 922 4800 1299 4800 
Q 1530 4800 1760 4595 
Q 2278 4102 2957 4102 
Q 3725 4102 4173 4710 
Q 4250 4800 4307 4800 
Q 4358 4800 4396 4761 
Q 4435 4723 4435 4672 
Q 4435 4634 4384 4557 
L 1146 -262 
Q 1075 -358 1018 -358 
Q 966 -358 928 -320 
Q 890 -282 890 -230 
Q 890 -186 947 -102 
L 3821 4179 
L 3814 4186 
Q 3482 3962 2963 3962 
Q 2470 3962 1997 4230 
Q 2131 3898 2131 3507 
Q 2131 2970 1891 2595 
Q 1651 2221 1299 2221 
Q 922 2221 640 2585 
Q 358 2950 358 3514 
z
M 800 4035 
Q 755 3808 755 3507 
Q 755 3206 800 2982 
Q 845 2758 909 2643 
Q 973 2528 1059 2461 
Q 1146 2394 1200 2378 
Q 1254 2362 1306 2362 
Q 1568 2362 1769 2688 
Q 1971 3014 1971 3514 
Q 1971 4000 1769 4329 
Q 1568 4659 1306 4659 
Q 1248 4659 1193 4643 
Q 1139 4627 1056 4560 
Q 973 4493 909 4377 
Q 845 4262 800 4035 
z
M 3194 934 
Q 3194 1485 3475 1853 
Q 3757 2221 4134 2221 
Q 4480 2221 4723 1846 
Q 4966 1472 4966 928 
Q 4966 390 4726 16 
Q 4486 -358 4134 -358 
Q 3757 -358 3475 6 
Q 3194 371 3194 934 
z
M 3635 1456 
Q 3590 1229 3590 928 
Q 3590 627 3635 403 
Q 3680 179 3744 64 
Q 3808 -51 3894 -118 
Q 3981 -186 4035 -202 
Q 4090 -218 4141 -218 
Q 4403 -218 4604 108 
Q 4806 435 4806 934 
Q 4806 1421 4604 1750 
Q 4403 2080 4141 2080 
Q 4083 2080 4028 2064 
Q 3974 2048 3891 1981 
Q 3808 1914 3744 1798 
Q 3680 1683 3635 1456 
z
" id="CMUSerif-Roman-25" transform="scale(0.015625)"/>
       <path d="M 134 -1453 
L 672 -1453 
L 672 4653 
L 134 4653 
L 134 4800 
L 1101 4800 
L 1101 -1600 
L 134 -1600 
L 134 -1453 
z
" id="CMUSerif-Roman-5d" transform="scale(0.015625)"/>
      </defs>
      <use xlink:href="#CMUSerif-Roman-65"/>
      <use x="44.399994" xlink:href="#CMUSerif-Roman-78"/>
      <use x="97.099991" xlink:href="#CMUSerif-Roman-70"/>
      <use x="152.599976" xlink:href="#CMUSerif-Roman-6c"/>
      <use x="180.299973" xlink:href="#CMUSerif-Roman-61"/>
      <use x="230.299957" xlink:href="#CMUSerif-Roman-69"/>
      <use x="257.999954" xlink:href="#CMUSerif-Roman-6e"/>
      <use x="313.499939" xlink:href="#CMUSerif-Roman-65"/>
      <use x="357.899933" xlink:href="#CMUSerif-Roman-64"/>
      <use x="413.399918" xlink:href="#CMUSerif-Roman-20"/>
      <use x="446.699905" xlink:href="#CMUSerif-Roman-76"/>
      <use x="499.399902" xlink:href="#CMUSerif-Roman-61"/>
      <use x="549.399887" xlink:href="#CMUSerif-Roman-72"/>
      <use x="588.499878" xlink:href="#CMUSerif-Roman-69"/>
      <use x="616.199875" xlink:href="#CMUSerif-Roman-61"/>
      <use x="666.19986" xlink:href="#CMUSerif-Roman-6e"/>
      <use x="721.699844" xlink:href="#CMUSerif-Roman-63"/>
      <use x="766.099838" xlink:href="#CMUSerif-Roman-65"/>
      <use x="810.499832" xlink:href="#CMUSerif-Roman-20"/>
      <use x="843.79982" xlink:href="#CMUSerif-Roman-5b"/>
      <use x="871.599808" xlink:href="#CMUSerif-Roman-25"/>
      <use x="954.899796" xlink:href="#CMUSerif-Roman-5d"/>
     </g>
    </g>
   </g>
   <g id="line2d_9">
    <path clip-path="url(#p12fddf5ee4)" d="M 49.077273 12.141818 
L 52.936957 60.853287 
L 56.79664 82.258537 
L 60.656324 89.66453 
L 64.516008 93.422673 
L 68.375692 94.500294 
L 72.235375 97.039555 
L 76.095059 98.665161 
L 79.954743 99.297282 
L 83.814427 100.558073 
L 87.674111 101.548989 
L 91.533794 102.105606 
L 95.393478 102.50911 
L 99.253162 104.049769 
L 103.112846 104.521038 
L 106.97253 104.641614 
L 110.832213 105.144613 
L 114.691897 105.863626 
L 118.551581 106.106172 
L 122.411265 106.551522 
L 126.270949 106.987709 
L 130.130632 107.379592 
L 133.990316 107.867624 
L 137.85 108.036469 
L 141.709684 108.372965 
L 145.569368 108.532134 
L 149.429051 108.696623 
L 153.288735 108.945851 
L 157.148419 108.989383 
L 161.008103 109.185035 
L 164.867787 109.516944 
L 168.72747 109.768318 
L 172.587154 109.856006 
L 176.446838 110.024611 
L 180.306522 110.162677 
L 184.166206 110.309226 
L 188.025889 110.436001 
L 191.885573 110.630461 
L 195.745257 110.685772 
L 199.604941 110.832761 
L 203.464625 110.860528 
L 207.324308 110.874228 
L 211.183992 110.940218 
L 215.043676 110.975781 
L 218.90336 110.978182 
L 222.763043 110.978182 
L 226.622727 110.978182 
" style="fill:none;stroke:#000000;stroke-linecap:square;"/>
    <defs>
     <path d="M 0 1 
C 0.265203 1 0.51958 0.894634 0.707107 0.707107 
C 0.894634 0.51958 1 0.265203 1 0 
C 1 -0.265203 0.894634 -0.51958 0.707107 -0.707107 
C 0.51958 -0.894634 0.265203 -1 0 -1 
C -0.265203 -1 -0.51958 -0.894634 -0.707107 -0.707107 
C -0.894634 -0.51958 -1 -0.265203 -1 0 
C -1 0.265203 -0.894634 0.51958 -0.707107 0.707107 
C -0.51958 0.894634 -0.265203 1 0 1 
z
" id="m77e25fe445" style="stroke:#000000;"/>
    </defs>
    <g clip-path="url(#p12fddf5ee4)">
     <use style="stroke:#000000;" x="49.077273" xlink:href="#m77e25fe445" y="12.141818"/>
     <use style="stroke:#000000;" x="52.936957" xlink:href="#m77e25fe445" y="60.853287"/>
     <use style="stroke:#000000;" x="56.79664" xlink:href="#m77e25fe445" y="82.258537"/>
     <use style="stroke:#000000;" x="60.656324" xlink:href="#m77e25fe445" y="89.66453"/>
     <use style="stroke:#000000;" x="64.516008" xlink:href="#m77e25fe445" y="93.422673"/>
     <use style="stroke:#000000;" x="68.375692" xlink:href="#m77e25fe445" y="94.500294"/>
     <use style="stroke:#000000;" x="72.235375" xlink:href="#m77e25fe445" y="97.039555"/>
     <use style="stroke:#000000;" x="76.095059" xlink:href="#m77e25fe445" y="98.665161"/>
     <use style="stroke:#000000;" x="79.954743" xlink:href="#m77e25fe445" y="99.297282"/>
     <use style="stroke:#000000;" x="83.814427" xlink:href="#m77e25fe445" y="100.558073"/>
     <use style="stroke:#000000;" x="87.674111" xlink:href="#m77e25fe445" y="101.548989"/>
     <use style="stroke:#000000;" x="91.533794" xlink:href="#m77e25fe445" y="102.105606"/>
     <use style="stroke:#000000;" x="95.393478" xlink:href="#m77e25fe445" y="102.50911"/>
     <use style="stroke:#000000;" x="99.253162" xlink:href="#m77e25fe445" y="104.049769"/>
     <use style="stroke:#000000;" x="103.112846" xlink:href="#m77e25fe445" y="104.521038"/>
     <use style="stroke:#000000;" x="106.97253" xlink:href="#m77e25fe445" y="104.641614"/>
     <use style="stroke:#000000;" x="110.832213" xlink:href="#m77e25fe445" y="105.144613"/>
     <use style="stroke:#000000;" x="114.691897" xlink:href="#m77e25fe445" y="105.863626"/>
     <use style="stroke:#000000;" x="118.551581" xlink:href="#m77e25fe445" y="106.106172"/>
     <use style="stroke:#000000;" x="122.411265" xlink:href="#m77e25fe445" y="106.551522"/>
     <use style="stroke:#000000;" x="126.270949" xlink:href="#m77e25fe445" y="106.987709"/>
     <use style="stroke:#000000;" x="130.130632" xlink:href="#m77e25fe445" y="107.379592"/>
     <use style="stroke:#000000;" x="133.990316" xlink:href="#m77e25fe445" y="107.867624"/>
     <use style="stroke:#000000;" x="137.85" xlink:href="#m77e25fe445" y="108.036469"/>
     <use style="stroke:#000000;" x="141.709684" xlink:href="#m77e25fe445" y="108.372965"/>
     <use style="stroke:#000000;" x="145.569368" xlink:href="#m77e25fe445" y="108.532134"/>
     <use style="stroke:#000000;" x="149.429051" xlink:href="#m77e25fe445" y="108.696623"/>
     <use style="stroke:#000000;" x="153.288735" xlink:href="#m77e25fe445" y="108.945851"/>
     <use style="stroke:#000000;" x="157.148419" xlink:href="#m77e25fe445" y="108.989383"/>
     <use style="stroke:#000000;" x="161.008103" xlink:href="#m77e25fe445" y="109.185035"/>
     <use style="stroke:#000000;" x="164.867787" xlink:href="#m77e25fe445" y="109.516944"/>
     <use style="stroke:#000000;" x="168.72747" xlink:href="#m77e25fe445" y="109.768318"/>
     <use style="stroke:#000000;" x="172.587154" xlink:href="#m77e25fe445" y="109.856006"/>
     <use style="stroke:#000000;" x="176.446838" xlink:href="#m77e25fe445" y="110.024611"/>
     <use style="stroke:#000000;" x="180.306522" xlink:href="#m77e25fe445" y="110.162677"/>
     <use style="stroke:#000000;" x="184.166206" xlink:href="#m77e25fe445" y="110.309226"/>
     <use style="stroke:#000000;" x="188.025889" xlink:href="#m77e25fe445" y="110.436001"/>
     <use style="stroke:#000000;" x="191.885573" xlink:href="#m77e25fe445" y="110.630461"/>
     <use style="stroke:#000000;" x="195.745257" xlink:href="#m77e25fe445" y="110.685772"/>
     <use style="stroke:#000000;" x="199.604941" xlink:href="#m77e25fe445" y="110.832761"/>
     <use style="stroke:#000000;" x="203.464625" xlink:href="#m77e25fe445" y="110.860528"/>
     <use style="stroke:#000000;" x="207.324308" xlink:href="#m77e25fe445" y="110.874228"/>
     <use style="stroke:#000000;" x="211.183992" xlink:href="#m77e25fe445" y="110.940218"/>
     <use style="stroke:#000000;" x="215.043676" xlink:href="#m77e25fe445" y="110.975781"/>
     <use style="stroke:#000000;" x="218.90336" xlink:href="#m77e25fe445" y="110.978182"/>
     <use style="stroke:#000000;" x="222.763043" xlink:href="#m77e25fe445" y="110.978182"/>
     <use style="stroke:#000000;" x="226.622727" xlink:href="#m77e25fe445" y="110.978182"/>
    </g>
   </g>
   <g id="line2d_10">
    <path clip-path="url(#p12fddf5ee4)" d="M 49.077273 89.140933 
L 52.936957 90.820092 
L 56.79664 92.04602 
L 60.656324 93.074955 
L 64.516008 93.993556 
L 68.375692 94.815192 
L 72.235375 95.573675 
L 76.095059 96.273577 
L 79.954743 96.931524 
L 83.814427 97.561541 
L 87.674111 98.156982 
L 91.533794 98.727365 
L 95.393478 99.26173 
L 99.253162 99.780448 
L 103.112846 100.278825 
L 106.97253 100.762469 
L 110.832213 101.215196 
L 114.691897 101.665863 
L 118.551581 102.095914 
L 122.411265 102.507685 
L 126.270949 102.911972 
L 130.130632 103.296536 
L 133.990316 103.674778 
L 137.85 104.040291 
L 141.709684 104.391361 
L 145.569368 104.728548 
L 149.429051 105.060754 
L 153.288735 105.381667 
L 157.148419 105.69714 
L 161.008103 105.99858 
L 164.867787 106.293595 
L 168.72747 106.580298 
L 172.587154 106.859846 
L 176.446838 107.130063 
L 180.306522 107.396361 
L 184.166206 107.654997 
L 188.025889 107.907213 
L 191.885573 108.150419 
L 195.745257 108.391246 
L 199.604941 108.629842 
L 203.464625 108.864326 
L 207.324308 109.102679 
L 211.183992 109.347689 
L 215.043676 109.625794 
L 218.90336 110.072592 
L 222.763043 110.598377 
L 226.622727 110.774229 
" style="fill:none;stroke:#808080;stroke-dasharray:7.4,3.2;stroke-dashoffset:0;stroke-width:2;"/>
   </g>
   <g id="line2d_11">
    <path clip-path="url(#p12fddf5ee4)" d="M 49.077273 12.141818 
L 52.936957 60.853287 
L 56.79664 82.258537 
L 60.656324 89.66453 
L 64.516008 93.422673 
L 68.375692 94.500294 
" style="fill:none;stroke:#0000ff;stroke-linecap:square;stroke-width:2;"/>
    <defs>
     <path d="M 0 2 
C 0.530406 2 1.03916 1.789267 1.414214 1.414214 
C 1.789267 1.03916 2 0.530406 2 0 
C 2 -0.530406 1.789267 -1.03916 1.414214 -1.414214 
C 1.03916 -1.789267 0.530406 -2 0 -2 
C -0.530406 -2 -1.03916 -1.789267 -1.414214 -1.414214 
C -1.789267 -1.03916 -2 -0.530406 -2 0 
C -2 0.530406 -1.789267 1.03916 -1.414214 1.414214 
C -1.03916 1.789267 -0.530406 2 0 2 
z
" id="mb58c1d85f2" style="stroke:#0000ff;"/>
    </defs>
    <g clip-path="url(#p12fddf5ee4)">
     <use style="fill:#0000ff;stroke:#0000ff;" x="49.077273" xlink:href="#mb58c1d85f2" y="12.141818"/>
     <use style="fill:#0000ff;stroke:#0000ff;" x="52.936957" xlink:href="#mb58c1d85f2" y="60.853287"/>
     <use style="fill:#0000ff;stroke:#0000ff;" x="56.79664" xlink:href="#mb58c1d85f2" y="82.258537"/>
     <use style="fill:#0000ff;stroke:#0000ff;" x="60.656324" xlink:href="#mb58c1d85f2" y="89.66453"/>
     <use style="fill:#0000ff;stroke:#0000ff;" x="64.516008" xlink:href="#mb58c1d85f2" y="93.422673"/>
     <use style="fill:#0000ff;stroke:#0000ff;" x="68.375692" xlink:href="#mb58c1d85f2" y="94.500294"/>
    </g>
   </g>
   <g id="patch_3">
    <path d="M 40.2 115.92 
L 40.2 7.2 
" style="fill:none;stroke:#000000;stroke-linecap:square;stroke-linejoin:miter;stroke-width:0.8;"/>
   </g>
   <g id="patch_4">
    <path d="M 40.2 115.92 
L 235.5 115.92 
" style="fill:none;stroke:#000000;stroke-linecap:square;stroke-linejoin:miter;stroke-width:0.8;"/>
   </g>
   <g id="text_10">
    <!-- PCs -->
    <g transform="translate(59.73 20.270687)scale(0.11 -0.11)">
     <defs>
      <path d="M 211 83 
L 211 928 
Q 211 998 214 1024 
Q 218 1050 237 1069 
Q 256 1088 294 1088 
Q 339 1088 355 1069 
Q 371 1050 384 979 
Q 480 538 688 304 
Q 896 70 1274 70 
Q 1632 70 1814 230 
Q 1997 390 1997 653 
Q 1997 1120 1331 1242 
Q 947 1318 787 1369 
Q 627 1421 486 1536 
Q 211 1760 211 2080 
Q 211 2400 454 2633 
Q 698 2867 1235 2867 
Q 1594 2867 1837 2688 
Q 1907 2746 1946 2790 
Q 2029 2867 2074 2867 
Q 2125 2867 2134 2835 
Q 2144 2803 2144 2714 
L 2144 2067 
Q 2144 1997 2141 1971 
Q 2138 1946 2118 1930 
Q 2099 1914 2061 1914 
Q 1990 1914 1984 1971 
Q 1933 2746 1235 2746 
Q 858 2746 688 2602 
Q 518 2458 518 2259 
Q 518 2150 569 2067 
Q 621 1984 688 1936 
Q 755 1888 880 1843 
Q 1005 1798 1081 1782 
Q 1158 1766 1306 1734 
Q 1818 1638 2035 1427 
Q 2304 1158 2304 819 
Q 2304 442 2048 186 
Q 1792 -70 1274 -70 
Q 858 -70 570 205 
Q 531 166 502 134 
Q 474 102 464 89 
Q 454 77 451 70 
Q 448 64 442 58 
Q 314 -70 282 -70 
Q 230 -70 220 -38 
Q 211 -6 211 83 
z
" id="CMUSerif-Roman-73" transform="scale(0.015625)"/>
     </defs>
     <use xlink:href="#CMUSerif-Roman-50"/>
     <use x="67.999985" xlink:href="#CMUSerif-Roman-43"/>
     <use x="140.199966" xlink:href="#CMUSerif-Roman-73"/>
    </g>
   </g>
   <g id="text_11">
    <g id="patch_5">
     <path d="M 57.03 46.705162 
L 87.926719 46.705162 
L 87.926719 24.0696 
L 57.03 24.0696 
z
" style="fill:#0000ff;opacity:0.3;stroke:#000000;stroke-linejoin:miter;"/>
    </g>
    <!-- 1-6*** -->
    <g transform="translate(59.73 33.016162)scale(0.09 -0.09)">
     <defs>
      <path d="M 64 1190 
L 64 1568 
L 1766 1568 
L 1766 1190 
L 64 1190 
z
" id="CMUSerif-Roman-2d" transform="scale(0.015625)"/>
      <path d="M 269 2022 
Q 269 3027 781 3644 
Q 1293 4262 1952 4262 
Q 2336 4262 2550 4067 
Q 2765 3872 2765 3571 
Q 2765 3405 2669 3334 
Q 2573 3264 2470 3264 
Q 2355 3264 2265 3341 
Q 2176 3418 2176 3558 
Q 2176 3846 2528 3846 
Q 2362 4102 1965 4102 
Q 1843 4102 1718 4067 
Q 1594 4032 1430 3913 
Q 1267 3795 1142 3606 
Q 1018 3418 931 3066 
Q 845 2714 845 2253 
L 845 2099 
Q 1107 2733 1644 2733 
Q 2182 2733 2553 2323 
Q 2925 1914 2925 1306 
Q 2925 685 2537 272 
Q 2150 -141 1606 -141 
Q 1363 -141 1142 -38 
Q 922 64 717 294 
Q 512 525 390 969 
Q 269 1414 269 2022 
z
M 858 1446 
Q 858 819 973 518 
Q 992 467 1033 400 
Q 1075 333 1148 243 
Q 1222 154 1344 96 
Q 1466 38 1606 38 
Q 2035 38 2240 454 
Q 2349 685 2349 1312 
Q 2349 1952 2234 2189 
Q 2035 2586 1638 2586 
Q 1370 2586 1184 2400 
Q 998 2214 928 1968 
Q 858 1722 858 1446 
z
" id="CMUSerif-Roman-36" transform="scale(0.015625)"/>
      <path d="M 416 2822 
Q 416 2931 563 3002 
L 1453 3424 
L 550 3846 
Q 416 3910 416 4019 
Q 416 4083 467 4140 
Q 518 4198 589 4198 
Q 640 4198 730 4128 
L 1523 3552 
Q 1427 4608 1427 4640 
Q 1427 4704 1475 4752 
Q 1523 4800 1600 4800 
Q 1664 4800 1715 4755 
Q 1766 4710 1766 4640 
L 1670 3552 
L 2381 4077 
Q 2547 4198 2605 4198 
Q 2675 4198 2726 4140 
Q 2778 4083 2778 4019 
Q 2778 3910 2630 3840 
L 1741 3418 
L 2643 2995 
Q 2778 2931 2778 2822 
Q 2778 2758 2726 2700 
Q 2675 2643 2605 2643 
Q 2566 2643 2502 2682 
Q 2490 2688 2355 2787 
Q 2221 2886 2013 3040 
Q 1805 3194 1670 3290 
Q 1766 2234 1766 2202 
Q 1766 2138 1718 2090 
Q 1670 2042 1594 2042 
Q 1530 2042 1478 2086 
Q 1427 2131 1427 2202 
L 1523 3290 
L 627 2643 
Q 531 2643 480 2691 
Q 429 2739 422 2768 
Q 416 2797 416 2822 
z
" id="CMUSerif-Roman-2a" transform="scale(0.015625)"/>
     </defs>
     <use xlink:href="#CMUSerif-Roman-31"/>
     <use x="49.999985" xlink:href="#CMUSerif-Roman-2d"/>
     <use x="83.299973" xlink:href="#CMUSerif-Roman-36"/>
     <use x="133.299957" xlink:href="#CMUSerif-Roman-2a"/>
     <use x="183.299942" xlink:href="#CMUSerif-Roman-2a"/>
     <use x="233.299927" xlink:href="#CMUSerif-Roman-2a"/>
    </g>
    <!-- 7-47 -->
    <g transform="translate(59.73 42.2586)scale(0.09 -0.09)">
     <defs>
      <path d="M 358 3008 
L 570 4326 
L 730 4326 
Q 749 4250 781 4214 
Q 813 4179 995 4150 
Q 1178 4122 1549 4122 
L 3104 4122 
Q 3104 3974 3046 3898 
L 2182 2682 
Q 1907 2298 1786 1587 
Q 1715 1114 1715 538 
L 1715 211 
Q 1715 -141 1420 -141 
Q 1126 -141 1126 211 
Q 1126 1434 1914 2618 
Q 1997 2739 2307 3174 
Q 2618 3610 2630 3629 
L 1306 3629 
Q 723 3629 678 3590 
Q 614 3533 518 3008 
L 358 3008 
z
" id="CMUSerif-Roman-37" transform="scale(0.015625)"/>
     </defs>
     <use xlink:href="#CMUSerif-Roman-37"/>
     <use x="49.999985" xlink:href="#CMUSerif-Roman-2d"/>
     <use x="83.299973" xlink:href="#CMUSerif-Roman-34"/>
     <use x="133.299957" xlink:href="#CMUSerif-Roman-37"/>
    </g>
   </g>
  </g>
 </g>
 <defs>
  <clipPath id="p12fddf5ee4">
   <rect height="108.72" width="195.3" x="40.2" y="7.2"/>
  </clipPath>
 </defs>
</svg>
