<?xml version="1.0" encoding="utf-8" standalone="no"?>
<!DOCTYPE svg PUBLIC "-//W3C//DTD SVG 1.1//EN"
  "http://www.w3.org/Graphics/SVG/1.1/DTD/svg11.dtd">
<!-- Created with matplotlib (https://matplotlib.org/) -->
<svg height="85.068pt" version="1.1" viewBox="0 0 86.94 85.068" width="86.94pt" xmlns="http://www.w3.org/2000/svg" xmlns:xlink="http://www.w3.org/1999/xlink">
 <defs>
  <style type="text/css">
*{stroke-linecap:butt;stroke-linejoin:round;}
  </style>
 </defs>
 <g id="figure_1">
  <g id="patch_1">
   <path d="M 0 85.068 
L 86.94 85.068 
L 86.94 0 
L 0 0 
z
" style="fill:#ffffff;"/>
  </g>
  <g id="axes_1">
   <g id="patch_2">
    <path d="M 43.438839 9.70836 
C 38.531214 9.70836 33.686087 10.814229 29.26447 12.943568 
C 24.842853 15.072906 20.957362 18.171482 17.897509 22.008417 
C 14.837655 25.845353 12.681371 30.322924 11.589322 35.107504 
C 10.497273 39.892085 10.497273 44.861814 11.589323 49.646394 
L 43.438839 42.376947 
L 43.438839 9.70836 
z
" style="fill:#3880d9;"/>
   </g>
   <g id="patch_3">
    <path d="M 11.589323 49.646394 
C 12.825232 55.061264 15.421872 60.07255 19.132934 64.204899 
C 22.843996 68.337248 27.548309 71.455734 32.799641 73.264549 
L 43.438839 42.376947 
L 11.589323 49.646394 
z
" style="fill:#910040;"/>
   </g>
   <g id="patch_4">
    <path d="M 32.799641 73.264549 
C 37.287218 74.81029 42.058218 75.35964 46.779666 74.874261 
C 51.501114 74.388881 56.060556 72.880331 60.139781 70.453896 
C 64.219006 68.02746 67.720856 64.740932 70.400933 60.823681 
C 73.08101 56.90643 74.87548 52.451758 75.659103 47.770561 
C 76.442727 43.089365 76.196841 38.293141 74.938606 33.716623 
C 73.680371 29.140106 71.439755 24.892299 68.373133 21.269662 
C 65.306512 17.647024 61.486926 14.735841 57.180949 12.739286 
C 52.874973 10.742732 48.185164 9.70836 43.438833 9.70836 
L 43.438839 42.376947 
L 32.799641 73.264549 
z
" style="fill:#ff603d;"/>
   </g>
   <g id="matplotlib.axis_1"/>
   <g id="matplotlib.axis_2"/>
   <g id="text_1">
    <!-- 28.6% -->
    <defs>
     <path d="M 5 0 
Q 5 1.796875 5.140625 2.34375 
Q 5.296875 2.90625 6.09375 3.703125 
L 25.296875 25.09375 
Q 35.796875 36.90625 35.796875 47.203125 
Q 35.796875 53.90625 32.296875 58.703125 
Q 28.796875 63.5 22.40625 63.5 
Q 18 63.5 14.296875 60.796875 
Q 10.59375 58.09375 8.90625 53.296875 
Q 9.203125 53.40625 10.203125 53.40625 
Q 12.703125 53.40625 14.09375 51.84375 
Q 15.5 50.296875 15.5 48.203125 
Q 15.5 45.5 13.75 44.203125 
Q 12 42.90625 10.296875 42.90625 
Q 9.59375 42.90625 8.6875 43.046875 
Q 7.796875 43.203125 6.390625 44.59375 
Q 5 46 5 48.5 
Q 5 55.5 10.296875 61.046875 
Q 15.59375 66.59375 23.703125 66.59375 
Q 32.90625 66.59375 38.90625 61.140625 
Q 44.90625 55.703125 44.90625 47.203125 
Q 44.90625 44.203125 44 41.5 
Q 43.09375 38.796875 41.890625 36.6875 
Q 40.703125 34.59375 37.5 31.25 
Q 34.296875 27.90625 31.6875 25.5 
Q 29.09375 23.09375 23.296875 18 
L 12.703125 7.703125 
L 30.703125 7.703125 
Q 39.5 7.703125 40.203125 8.5 
Q 41.203125 9.90625 42.40625 17.40625 
L 44.90625 17.40625 
L 42.09375 0 
z
" id="CMUSerif-Roman-50"/>
     <path d="M 4.203125 15.09375 
Q 4.203125 26.296875 18.59375 33.5 
Q 12.40625 37.703125 11.296875 38.90625 
Q 6.90625 43.796875 6.90625 49.90625 
Q 6.90625 56.90625 12.203125 61.75 
Q 17.5 66.59375 25 66.59375 
Q 32.203125 66.59375 37.59375 62.4375 
Q 43 58.296875 43 51.703125 
Q 43 42.40625 30.90625 36.203125 
Q 38.90625 31.203125 40.796875 29.09375 
Q 45.703125 23.703125 45.703125 16.796875 
Q 45.703125 8.796875 39.546875 3.296875 
Q 33.40625 -2.203125 24.90625 -2.203125 
Q 16.59375 -2.203125 10.390625 2.640625 
Q 4.203125 7.5 4.203125 15.09375 
z
M 9.203125 15.09375 
Q 9.203125 8.90625 13.84375 4.75 
Q 18.5 0.59375 25 0.59375 
Q 31.296875 0.59375 36 4.1875 
Q 40.703125 7.796875 40.703125 13.203125 
Q 40.703125 15.296875 40 17.09375 
Q 39.296875 18.90625 37.890625 20.34375 
Q 36.5 21.796875 35.640625 22.4375 
Q 34.796875 23.09375 33.203125 24.203125 
L 20.90625 32 
Q 9.203125 25.5 9.203125 15.09375 
z
M 11.296875 53.796875 
Q 11.296875 49 16.296875 45.703125 
L 28.703125 37.703125 
Q 38.59375 43.5 38.59375 51.703125 
Q 38.59375 57 34.546875 60.546875 
Q 30.5 64.09375 24.90625 64.09375 
Q 19.40625 64.09375 15.34375 61.1875 
Q 11.296875 58.296875 11.296875 53.796875 
z
" id="CMUSerif-Roman-56"/>
     <path d="M 11.5 0 
Q 8.5 3.203125 8.5 5.296875 
Q 8.5 7.40625 10 8.953125 
Q 11.5 10.5 13.796875 10.5 
Q 16 10.5 17.5 9.046875 
Q 19 7.59375 19 5.296875 
Q 19 3 17.390625 1.5 
Q 15.796875 0 13.796875 0 
Q 11.5 0 8.5 3.203125 
z
" id="CMUSerif-Roman-46"/>
     <path d="M 4.203125 31.59375 
Q 4.203125 47.296875 12.203125 56.9375 
Q 20.203125 66.59375 30.5 66.59375 
Q 36.5 66.59375 39.84375 63.546875 
Q 43.203125 60.5 43.203125 55.796875 
Q 43.203125 53.203125 41.703125 52.09375 
Q 40.203125 51 38.59375 51 
Q 36.796875 51 35.390625 52.203125 
Q 34 53.40625 34 55.59375 
Q 34 60.09375 39.5 60.09375 
Q 36.90625 64.09375 30.703125 64.09375 
Q 28.796875 64.09375 26.84375 63.546875 
Q 24.90625 63 22.34375 61.140625 
Q 19.796875 59.296875 17.84375 56.34375 
Q 15.90625 53.40625 14.546875 47.90625 
Q 13.203125 42.40625 13.203125 35.203125 
L 13.203125 32.796875 
Q 17.296875 42.703125 25.6875 42.703125 
Q 34.09375 42.703125 39.890625 36.296875 
Q 45.703125 29.90625 45.703125 20.40625 
Q 45.703125 10.703125 39.640625 4.25 
Q 33.59375 -2.203125 25.09375 -2.203125 
Q 21.296875 -2.203125 17.84375 -0.59375 
Q 14.40625 1 11.203125 4.59375 
Q 8 8.203125 6.09375 15.140625 
Q 4.203125 22.09375 4.203125 31.59375 
z
M 13.40625 22.59375 
Q 13.40625 12.796875 15.203125 8.09375 
Q 15.5 7.296875 16.140625 6.25 
Q 16.796875 5.203125 17.9375 3.796875 
Q 19.09375 2.40625 21 1.5 
Q 22.90625 0.59375 25.09375 0.59375 
Q 31.796875 0.59375 35 7.09375 
Q 36.703125 10.703125 36.703125 20.5 
Q 36.703125 30.5 34.90625 34.203125 
Q 31.796875 40.40625 25.59375 40.40625 
Q 21.40625 40.40625 18.5 37.5 
Q 15.59375 34.59375 14.5 30.75 
Q 13.40625 26.90625 13.40625 22.59375 
z
" id="CMUSerif-Roman-54"/>
     <path d="M 5.59375 54.90625 
Q 5.59375 63.5 10 69.25 
Q 14.40625 75 20.296875 75 
Q 23.90625 75 27.5 71.796875 
Q 35.59375 64.09375 46.203125 64.09375 
Q 58.203125 64.09375 65.203125 73.59375 
Q 66.40625 75 67.296875 75 
Q 68.09375 75 68.6875 74.390625 
Q 69.296875 73.796875 69.296875 73 
Q 69.296875 72.40625 68.5 71.203125 
L 17.90625 -4.09375 
Q 16.796875 -5.59375 15.90625 -5.59375 
Q 15.09375 -5.59375 14.5 -5 
Q 13.90625 -4.40625 13.90625 -3.59375 
Q 13.90625 -2.90625 14.796875 -1.59375 
L 59.703125 65.296875 
L 59.59375 65.40625 
Q 54.40625 61.90625 46.296875 61.90625 
Q 38.59375 61.90625 31.203125 66.09375 
Q 33.296875 60.90625 33.296875 54.796875 
Q 33.296875 46.40625 29.546875 40.546875 
Q 25.796875 34.703125 20.296875 34.703125 
Q 14.40625 34.703125 10 40.390625 
Q 5.59375 46.09375 5.59375 54.90625 
z
M 13.203125 66.59375 
Q 11.796875 59.5 11.796875 54.796875 
Q 11.796875 50.09375 12.5 46.59375 
Q 13.203125 43.09375 14.203125 41.296875 
Q 15.203125 39.5 16.546875 38.453125 
Q 17.90625 37.40625 18.75 37.15625 
Q 19.59375 36.90625 20.40625 36.90625 
Q 24.5 36.90625 27.640625 42 
Q 30.796875 47.09375 30.796875 54.90625 
Q 30.796875 62.5 27.640625 67.640625 
Q 24.5 72.796875 20.40625 72.796875 
Q 19.5 72.796875 18.640625 72.546875 
Q 17.796875 72.296875 16.5 71.25 
Q 15.203125 70.203125 14.203125 68.390625 
Q 13.203125 66.59375 11.796875 59.5 
z
M 49.90625 14.59375 
Q 49.90625 23.203125 54.296875 28.953125 
Q 58.703125 34.703125 64.59375 34.703125 
Q 70 34.703125 73.796875 28.84375 
Q 77.59375 23 77.59375 14.5 
Q 77.59375 6.09375 73.84375 0.25 
Q 70.09375 -5.59375 64.59375 -5.59375 
Q 58.703125 -5.59375 54.296875 0.09375 
Q 49.90625 5.796875 49.90625 14.59375 
z
M 57.5 26.296875 
Q 56.09375 19.203125 56.09375 14.5 
Q 56.09375 9.796875 56.796875 6.296875 
Q 57.5 2.796875 58.5 1 
Q 59.5 -0.796875 60.84375 -1.84375 
Q 62.203125 -2.90625 63.046875 -3.15625 
Q 63.90625 -3.40625 64.703125 -3.40625 
Q 68.796875 -3.40625 71.9375 1.6875 
Q 75.09375 6.796875 75.09375 14.59375 
Q 75.09375 22.203125 71.9375 27.34375 
Q 68.796875 32.5 64.703125 32.5 
Q 63.796875 32.5 62.9375 32.25 
Q 62.09375 32 60.796875 30.953125 
Q 59.5 29.90625 58.5 28.09375 
Q 57.5 26.296875 56.09375 19.203125 
z
" id="CMUSerif-Roman-37"/>
    </defs>
    <g style="fill:#ffffff;" transform="translate(16.364822 32.405829)scale(0.09 -0.09)">
     <use xlink:href="#CMUSerif-Roman-50"/>
     <use x="49.999985" xlink:href="#CMUSerif-Roman-56"/>
     <use x="99.999969" xlink:href="#CMUSerif-Roman-46"/>
     <use x="127.799957" xlink:href="#CMUSerif-Roman-54"/>
     <use x="177.799942" xlink:href="#CMUSerif-Roman-37"/>
    </g>
   </g>
   <g id="text_2">
    <!-- 16.1% -->
    <defs>
     <path d="M 8.90625 57.09375 
L 8.90625 60.203125 
Q 20.90625 60.203125 27.09375 66.59375 
Q 28.796875 66.59375 29.09375 66.1875 
Q 29.40625 65.796875 29.40625 64 
L 29.40625 7.90625 
Q 29.40625 4.90625 30.84375 4 
Q 32.296875 3.09375 38.703125 3.09375 
L 41.90625 3.09375 
L 41.90625 0 
Q 38.40625 0.296875 25.703125 0.296875 
Q 13 0.296875 9.5 0 
L 9.5 3.09375 
L 12.703125 3.09375 
Q 19 3.09375 20.5 4 
Q 22 4.90625 22 7.90625 
L 22 59.703125 
Q 16.796875 57.09375 8.90625 57.09375 
z
" id="CMUSerif-Roman-49"/>
    </defs>
    <g style="fill:#ffffff;" transform="translate(17.106077 57.723718)scale(0.09 -0.09)">
     <use xlink:href="#CMUSerif-Roman-49"/>
     <use x="49.999985" xlink:href="#CMUSerif-Roman-54"/>
     <use x="99.999969" xlink:href="#CMUSerif-Roman-46"/>
     <use x="127.799957" xlink:href="#CMUSerif-Roman-49"/>
     <use x="177.799942" xlink:href="#CMUSerif-Roman-37"/>
    </g>
   </g>
   <g id="text_3">
    <!-- 55.3% -->
    <defs>
     <path d="M 5 16.09375 
Q 5 19.09375 6.59375 20.25 
Q 8.203125 21.40625 9.90625 21.40625 
Q 12.203125 21.40625 13.546875 19.953125 
Q 14.90625 18.5 14.90625 16.5 
Q 14.90625 14.5 13.546875 13.046875 
Q 12.203125 11.59375 9.90625 11.59375 
Q 8.796875 11.59375 8.203125 11.796875 
Q 9.5 7.203125 13.546875 3.890625 
Q 17.59375 0.59375 22.90625 0.59375 
Q 29.59375 0.59375 33.59375 7.09375 
Q 36 11.296875 36 20.796875 
Q 36 29.203125 34.203125 33.40625 
Q 31.40625 39.796875 25.703125 39.796875 
Q 17.59375 39.796875 12.796875 32.796875 
Q 12.203125 31.90625 11.5 31.90625 
Q 10.5 31.90625 10.296875 32.453125 
Q 10.09375 33 10.09375 34.5 
L 10.09375 64.09375 
Q 10.09375 66.5 11.09375 66.5 
Q 11.5 66.5 12.296875 66.203125 
Q 18.59375 63.40625 25.59375 63.40625 
Q 32.796875 63.40625 39.203125 66.296875 
Q 39.703125 66.59375 40 66.59375 
Q 41 66.59375 41 65.5 
Q 41 65.09375 40.203125 63.9375 
Q 39.40625 62.796875 37.703125 61.296875 
Q 36 59.796875 33.796875 58.390625 
Q 31.59375 57 28.390625 56.046875 
Q 25.203125 55.09375 21.703125 55.09375 
Q 17.5 55.09375 13.203125 56.40625 
L 13.203125 36.90625 
Q 18.40625 42 25.90625 42 
Q 33.90625 42 39.40625 35.546875 
Q 44.90625 29.09375 44.90625 20.09375 
Q 44.90625 10.703125 38.40625 4.25 
Q 31.90625 -2.203125 23.09375 -2.203125 
Q 15.09375 -2.203125 10.046875 3.5 
Q 5 9.203125 5 16.09375 
z
" id="CMUSerif-Roman-53"/>
     <path d="M 4.203125 13.5 
Q 4.203125 16.5 5.890625 17.890625 
Q 7.59375 19.296875 9.796875 19.296875 
Q 12.09375 19.296875 13.75 17.796875 
Q 15.40625 16.296875 15.40625 13.703125 
Q 15.40625 10.90625 13.453125 9.34375 
Q 11.5 7.796875 8.796875 8.203125 
Q 11.203125 4.203125 15.59375 2.390625 
Q 20 0.59375 24.09375 0.59375 
Q 28.40625 0.59375 31.90625 4.296875 
Q 35.40625 8 35.40625 17.09375 
Q 35.40625 24.796875 32.40625 29.25 
Q 29.40625 33.703125 23.5 33.703125 
L 19.09375 33.703125 
Q 17.59375 33.703125 17.140625 33.84375 
Q 16.703125 34 16.703125 34.796875 
Q 16.703125 35.796875 18.203125 36 
Q 19.703125 36 22.09375 36.296875 
Q 27.90625 36.5 31 41.5 
Q 33.796875 46.203125 33.796875 52.90625 
Q 33.796875 59 30.890625 61.546875 
Q 28 64.09375 24.203125 64.09375 
Q 20.703125 64.09375 16.84375 62.640625 
Q 13 61.203125 10.90625 57.90625 
Q 17.09375 57.90625 17.09375 52.90625 
Q 17.09375 50.703125 15.6875 49.25 
Q 14.296875 47.796875 12 47.796875 
Q 9.796875 47.796875 8.34375 49.1875 
Q 6.90625 50.59375 6.90625 53 
Q 6.90625 58.703125 12 62.640625 
Q 17.09375 66.59375 24.59375 66.59375 
Q 32 66.59375 37.5 62.6875 
Q 43 58.796875 43 52.796875 
Q 43 46.90625 39.09375 42.046875 
Q 35.203125 37.203125 29 35.203125 
Q 36.59375 33.703125 41.140625 28.546875 
Q 45.703125 23.40625 45.703125 17.09375 
Q 45.703125 9.296875 39.546875 3.546875 
Q 33.40625 -2.203125 24.40625 -2.203125 
Q 16.09375 -2.203125 10.140625 2.296875 
Q 4.203125 6.796875 4.203125 13.5 
z
" id="CMUSerif-Roman-51"/>
    </defs>
    <g style="fill:#ffffff;" transform="translate(51.021779 47.863115)scale(0.09 -0.09)">
     <use xlink:href="#CMUSerif-Roman-53"/>
     <use x="49.999985" xlink:href="#CMUSerif-Roman-53"/>
     <use x="99.999969" xlink:href="#CMUSerif-Roman-46"/>
     <use x="127.799957" xlink:href="#CMUSerif-Roman-51"/>
     <use x="177.799942" xlink:href="#CMUSerif-Roman-37"/>
    </g>
   </g>
  </g>
 </g>
</svg>
