<?xml version="1.0" encoding="utf-8" standalone="no"?>
<!DOCTYPE svg PUBLIC "-//W3C//DTD SVG 1.1//EN"
  "http://www.w3.org/Graphics/SVG/1.1/DTD/svg11.dtd">
<svg xmlns:xlink="http://www.w3.org/1999/xlink" width="86.94pt" height="86.472pt" viewBox="0 0 86.94 86.472" xmlns="http://www.w3.org/2000/svg" version="1.1">
 <metadata>
  <rdf:RDF xmlns:dc="http://purl.org/dc/elements/1.1/" xmlns:cc="http://creativecommons.org/ns#" xmlns:rdf="http://www.w3.org/1999/02/22-rdf-syntax-ns#">
   <cc:Work>
    <dc:type rdf:resource="http://purl.org/dc/dcmitype/StillImage"/>
    <dc:date>2023-08-09T13:39:15.303187</dc:date>
    <dc:format>image/svg+xml</dc:format>
    <dc:creator>
     <cc:Agent>
      <dc:title>Matplotlib v3.7.2, https://matplotlib.org/</dc:title>
     </cc:Agent>
    </dc:creator>
   </cc:Work>
  </rdf:RDF>
 </metadata>
 <defs>
  <style type="text/css">*{stroke-linejoin: round; stroke-linecap: butt}</style>
 </defs>
 <g id="figure_1">
  <g id="patch_1">
   <path d="M 0 86.472 
L 86.94 86.472 
L 86.94 0 
L 0 0 
z
" style="fill: #ffffff"/>
  </g>
  <g id="axes_1">
   <g id="patch_2">
    <path d="M 43.47 10.263276 
C 34.961882 10.263276 26.775455 13.556364 20.637315 19.447995 
C 14.499176 25.339625 10.873489 33.384276 10.524946 41.885252 
L 43.47 43.236009 
z
" style="fill: #3880d9"/>
   </g>
   <g id="patch_3">
    <path d="M 10.524946 41.885252 
C 10.195479 49.920985 12.817163 57.806055 17.892677 64.044701 
C 22.968192 70.283347 30.15494 74.454462 38.089631 75.766805 
L 43.47 43.236009 
z
" style="fill: #910040"/>
   </g>
   <g id="patch_4">
    <path d="M 38.089631 75.766805 
C 42.585948 76.510465 47.187997 76.313909 51.604531 75.189577 
C 56.021066 74.065244 60.156908 72.037364 63.750317 69.234275 
C 67.343726 66.431185 70.317263 62.913292 72.482743 58.90323 
C 74.648223 54.893169 75.958981 50.477356 76.332063 45.935252 
C 76.705145 41.393148 76.132511 36.822635 74.650402 32.512966 
C 73.168292 28.203297 70.808646 24.247344 67.720798 20.895465 
C 64.632949 17.543586 60.883441 14.868015 56.709566 13.038079 
C 52.535692 11.208142 48.027397 10.263276 43.469997 10.263276 
L 43.47 43.236009 
z
" style="fill: #ff603d"/>
   </g>
   <g id="matplotlib.axis_1"/>
   <g id="matplotlib.axis_2"/>
   <g id="text_1">
    <!-- 24.3% -->
    <g style="fill: #ffffff" transform="translate(14.158905 31.446638) scale(0.09 -0.09)">
     <defs>
      <path id="DejaVuSans-Bold-32" d="M 1844 884 
L 3897 884 
L 3897 0 
L 506 0 
L 506 884 
L 2209 2388 
Q 2438 2594 2547 2791 
Q 2656 2988 2656 3200 
Q 2656 3528 2436 3728 
Q 2216 3928 1850 3928 
Q 1569 3928 1234 3808 
Q 900 3688 519 3450 
L 519 4475 
Q 925 4609 1322 4679 
Q 1719 4750 2100 4750 
Q 2938 4750 3402 4381 
Q 3866 4013 3866 3353 
Q 3866 2972 3669 2642 
Q 3472 2313 2841 1759 
L 1844 884 
z
" transform="scale(0.015625)"/>
      <path id="DejaVuSans-Bold-34" d="M 2356 3675 
L 1038 1722 
L 2356 1722 
L 2356 3675 
z
M 2156 4666 
L 3494 4666 
L 3494 1722 
L 4159 1722 
L 4159 850 
L 3494 850 
L 3494 0 
L 2356 0 
L 2356 850 
L 288 850 
L 288 1881 
L 2156 4666 
z
" transform="scale(0.015625)"/>
      <path id="DejaVuSans-Bold-2e" d="M 653 1209 
L 1778 1209 
L 1778 0 
L 653 0 
L 653 1209 
z
" transform="scale(0.015625)"/>
      <path id="DejaVuSans-Bold-33" d="M 2981 2516 
Q 3453 2394 3698 2092 
Q 3944 1791 3944 1325 
Q 3944 631 3412 270 
Q 2881 -91 1863 -91 
Q 1503 -91 1142 -33 
Q 781 25 428 141 
L 428 1069 
Q 766 900 1098 814 
Q 1431 728 1753 728 
Q 2231 728 2486 893 
Q 2741 1059 2741 1369 
Q 2741 1688 2480 1852 
Q 2219 2016 1709 2016 
L 1228 2016 
L 1228 2791 
L 1734 2791 
Q 2188 2791 2409 2933 
Q 2631 3075 2631 3366 
Q 2631 3634 2415 3781 
Q 2200 3928 1806 3928 
Q 1516 3928 1219 3862 
Q 922 3797 628 3669 
L 628 4550 
Q 984 4650 1334 4700 
Q 1684 4750 2022 4750 
Q 2931 4750 3382 4451 
Q 3834 4153 3834 3553 
Q 3834 3144 3618 2883 
Q 3403 2622 2981 2516 
z
" transform="scale(0.015625)"/>
      <path id="DejaVuSans-Bold-25" d="M 4959 1925 
Q 4738 1925 4616 1733 
Q 4494 1541 4494 1184 
Q 4494 825 4614 633 
Q 4734 441 4959 441 
Q 5184 441 5303 633 
Q 5422 825 5422 1184 
Q 5422 1541 5301 1733 
Q 5181 1925 4959 1925 
z
M 4959 2450 
Q 5541 2450 5875 2112 
Q 6209 1775 6209 1184 
Q 6209 594 5875 251 
Q 5541 -91 4959 -91 
Q 4378 -91 4042 251 
Q 3706 594 3706 1184 
Q 3706 1772 4042 2111 
Q 4378 2450 4959 2450 
z
M 2094 -91 
L 1403 -91 
L 4319 4750 
L 5013 4750 
L 2094 -91 
z
M 1453 4750 
Q 2034 4750 2367 4411 
Q 2700 4072 2700 3481 
Q 2700 2891 2367 2550 
Q 2034 2209 1453 2209 
Q 872 2209 539 2550 
Q 206 2891 206 3481 
Q 206 4072 539 4411 
Q 872 4750 1453 4750 
z
M 1453 4225 
Q 1228 4225 1106 4031 
Q 984 3838 984 3481 
Q 984 3122 1106 2926 
Q 1228 2731 1453 2731 
Q 1678 2731 1798 2926 
Q 1919 3122 1919 3481 
Q 1919 3838 1797 4031 
Q 1675 4225 1453 4225 
z
" transform="scale(0.015625)"/>
     </defs>
     <use xlink:href="#DejaVuSans-Bold-32"/>
     <use xlink:href="#DejaVuSans-Bold-34" x="69.580078"/>
     <use xlink:href="#DejaVuSans-Bold-2e" x="139.160156"/>
     <use xlink:href="#DejaVuSans-Bold-33" x="177.148438"/>
     <use xlink:href="#DejaVuSans-Bold-25" x="246.728516"/>
    </g>
   </g>
   <g id="text_2">
    <!-- 23.0% -->
    <g style="fill: #ffffff" transform="translate(12.512122 58.204662) scale(0.09 -0.09)">
     <defs>
      <path id="DejaVuSans-Bold-30" d="M 2944 2338 
Q 2944 3213 2780 3570 
Q 2616 3928 2228 3928 
Q 1841 3928 1675 3570 
Q 1509 3213 1509 2338 
Q 1509 1453 1675 1090 
Q 1841 728 2228 728 
Q 2613 728 2778 1090 
Q 2944 1453 2944 2338 
z
M 4147 2328 
Q 4147 1169 3647 539 
Q 3147 -91 2228 -91 
Q 1306 -91 806 539 
Q 306 1169 306 2328 
Q 306 3491 806 4120 
Q 1306 4750 2228 4750 
Q 3147 4750 3647 4120 
Q 4147 3491 4147 2328 
z
" transform="scale(0.015625)"/>
     </defs>
     <use xlink:href="#DejaVuSans-Bold-32"/>
     <use xlink:href="#DejaVuSans-Bold-33" x="69.580078"/>
     <use xlink:href="#DejaVuSans-Bold-2e" x="139.160156"/>
     <use xlink:href="#DejaVuSans-Bold-30" x="177.148438"/>
     <use xlink:href="#DejaVuSans-Bold-25" x="246.728516"/>
    </g>
   </g>
   <g id="text_3">
    <!-- 52.6% -->
    <g style="fill: #ffffff" transform="translate(47.575753 47.338992) scale(0.09 -0.09)">
     <defs>
      <path id="DejaVuSans-Bold-35" d="M 678 4666 
L 3669 4666 
L 3669 3781 
L 1638 3781 
L 1638 3059 
Q 1775 3097 1914 3117 
Q 2053 3138 2203 3138 
Q 3056 3138 3531 2711 
Q 4006 2284 4006 1522 
Q 4006 766 3489 337 
Q 2972 -91 2053 -91 
Q 1656 -91 1267 -14 
Q 878 63 494 219 
L 494 1166 
Q 875 947 1217 837 
Q 1559 728 1863 728 
Q 2300 728 2551 942 
Q 2803 1156 2803 1522 
Q 2803 1891 2551 2103 
Q 2300 2316 1863 2316 
Q 1603 2316 1309 2248 
Q 1016 2181 678 2041 
L 678 4666 
z
" transform="scale(0.015625)"/>
      <path id="DejaVuSans-Bold-36" d="M 2316 2303 
Q 2000 2303 1842 2098 
Q 1684 1894 1684 1484 
Q 1684 1075 1842 870 
Q 2000 666 2316 666 
Q 2634 666 2792 870 
Q 2950 1075 2950 1484 
Q 2950 1894 2792 2098 
Q 2634 2303 2316 2303 
z
M 3803 4544 
L 3803 3681 
Q 3506 3822 3243 3889 
Q 2981 3956 2731 3956 
Q 2194 3956 1894 3657 
Q 1594 3359 1544 2772 
Q 1750 2925 1990 3001 
Q 2231 3078 2516 3078 
Q 3231 3078 3670 2659 
Q 4109 2241 4109 1563 
Q 4109 813 3618 361 
Q 3128 -91 2303 -91 
Q 1394 -91 895 523 
Q 397 1138 397 2266 
Q 397 3422 980 4083 
Q 1563 4744 2578 4744 
Q 2900 4744 3203 4694 
Q 3506 4644 3803 4544 
z
" transform="scale(0.015625)"/>
     </defs>
     <use xlink:href="#DejaVuSans-Bold-35"/>
     <use xlink:href="#DejaVuSans-Bold-32" x="69.580078"/>
     <use xlink:href="#DejaVuSans-Bold-2e" x="139.160156"/>
     <use xlink:href="#DejaVuSans-Bold-36" x="177.148438"/>
     <use xlink:href="#DejaVuSans-Bold-25" x="246.728516"/>
    </g>
   </g>
  </g>
 </g>
</svg>
